<svg xmlns="http://www.w3.org/2000/svg" xmlns:xlink="http://www.w3.org/1999/xlink" width="1676.926" height="562" viewBox="0 0 1676.926 562">
  <defs>
    <linearGradient id="linear-gradient" x1="0.001" y1="0.492" x2="1.004" y2="0.529" gradientUnits="objectBoundingBox">
      <stop offset="0" stop-color="#eca459"/>
      <stop offset="1" stop-color="#be3265"/>
    </linearGradient>
  </defs>
  <path id="Path_1198" data-name="Path 1198" d="M1423,559.5H557a283.061,283.061,0,0,1-56.629-5.709,279.468,279.468,0,0,1-100.483-42.283A281.812,281.812,0,0,1,298.083,387.879a279.594,279.594,0,0,1-16.375-52.75,283.713,283.713,0,0,1,0-113.258,279.476,279.476,0,0,1,42.283-100.483A281.814,281.814,0,0,1,447.621,19.583a279.608,279.608,0,0,1,52.75-16.374A283.063,283.063,0,0,1,557-2.5H1952.925v5H557c-152.187,0-276,123.813-276,276s123.813,276,276,276h866Z" transform="translate(-276 2.5)" fill="url(#linear-gradient)"/>
</svg>
