<svg xmlns="http://www.w3.org/2000/svg" xmlns:xlink="http://www.w3.org/1999/xlink" width="1228.844" height="586.931" viewBox="0 0 1228.844 586.931">
  <defs>
    <linearGradient id="linear-gradient" y1="0.5" x2="1" y2="0.5" gradientUnits="objectBoundingBox">
      <stop offset="0" stop-color="gray" stop-opacity="0.251"/>
      <stop offset="0.54" stop-color="gray" stop-opacity="0.122"/>
      <stop offset="1" stop-color="gray" stop-opacity="0.102"/>
    </linearGradient>
    <linearGradient id="linear-gradient-2" x1="-8.171" y1="1" x2="-8.171" y2="0" xlink:href="#linear-gradient"/>
  </defs>
  <g id="sup5" transform="translate(-0.006 0.03)">
    <path id="Path_321" data-name="Path 321" d="M1237.438,656.667a88.281,88.281,0,0,1-24.28,29.135q-2.153,1.727-4.391,3.347-3.008,2.115-6.165,4.149c-16.352,10.377-35.508,17.47-54.2,22.644q-7.643,2.116-15.338,3.969-6.5,1.573-12.995,2.934c-1.647.36-3.294.7-4.941,1.058s-3.536.707-5.278,1.058l-2.5.474c-48.368,8.915-97.371,10.619-146.732,8.381l-2.344-.116-3.747-.19q-15.031-.781-30.1-1.995l-3.8-.3-1.679-.138q-8.445-.707-16.89-1.552-11.127-1.058-22.284-2.333l-.961-.106-.781-.1h0c-26.55-2.987-53.161-6.576-79.806-10.261l-3.768-.527-6.766-.94-5.7-.792h0l-1.689-.233q-13.49-1.89-26.982-3.737l-1.457-.2c-16.89-2.312-33.875-4.533-50.807-6.567l-2.206-.264h0q-10.4-1.235-20.785-2.354l-5.278-.559-7.02-.707c-19.456-1.931-38.9-3.475-58.3-4.433q-14-.7-28.059-1.058-11.612-.264-23.224-.3-15.751-.074-31.563.18h-2.387c-14.853.243-29.738.665-44.632,1.171l-2.682.085h-.887c-31.669,1.12-63.338,2.608-94.922,3.673l-7.717.254h-1.12q-16.47.527-32.9.813h-6.524l-4.9.063q-7.632.074-15.232.085H304.5c-18.6-.053-37.127-.464-55.537-1.425l-2.047-.116a702.911,702.911,0,0,1-105.89-13.174q-5.394-1.13-10.767-2.365a494.441,494.441,0,0,1-70.516-21.439c-10.81-4.223-21.683-9.1-29.906-17.355-20.862-21.124-13.029-62.48,14.111-74.5,21.229-9.406,46.1-1.753,68.933-6a35.2,35.2,0,0,0,4.149-1.058,57.653,57.653,0,0,0,8.445-3.483c.929-.464,1.859-.961,2.8-1.478a71.253,71.253,0,0,0,6.249-3.821,95.926,95.926,0,0,0,9.5-7.211q2.005-1.71,3.906-3.546a74.7,74.7,0,0,0,11.527-13.8,48.766,48.766,0,0,0,3.173-5.953,31.432,31.432,0,0,0,1.309-3.294,30.674,30.674,0,0,0,1.256-4.877c1.33-7.833-.824-15.476-8.318-21.937a22.1,22.1,0,0,0-2.115-1.594,32.259,32.259,0,0,0-4.581-2.65c-.644-.3-1.309-.6-1.984-.887-9.649-4.065-22.094-5.627-32.588-8.445h0a57.539,57.539,0,0,1-9.332-3.241c-1.911-.887-3.811-1.813-5.68-2.786h0l-.5-.275h0A127.086,127.086,0,0,1,58.929,439.9a110.043,110.043,0,0,1-7.67-11.127c-.707-1.16-1.393-2.354-2.047-3.546-18.547-33.464-20.459-76.343-1.16-109.245a103.389,103.389,0,0,1,7.812-11.464q1.393-1.806,2.881-3.546c18.368-21.672,44.759-36.356,71.4-47.229,35.765-14.589,73.208-23.8,111.369-29.874q11.612-1.848,23.224-3.315c32.408-4.139,65.2-6.334,97.752-8.008q45.677-2.312,91.755-2.987,15.613-.212,31.258-.18,35.247,0,70.5,1.36,11.612.443,23.224,1.058,29.78,1.541,59.442,4.223,14.252,1.287,28.438,2.839c72.036,7.875,143.027,21.229,211.571,41.993q11.665,3.525,23.224,7.389a896.9,896.9,0,0,1,84.862,32.8q3.928,1.763,7.833,3.546,25.959,11.908,51.177,25.663a569.144,569.144,0,0,1,63.971,40.114q11.95,8.764,23.224,18.283a334.025,334.025,0,0,1,37.063,36.566q1.52,1.763,3.008,3.546,7.727,9.279,14.673,19.223c22.591,32.471,37.749,69.608,48.94,107.548C1246.526,588.639,1253.091,625.808,1237.438,656.667Z" transform="translate(-17.96 -169.952)" fill="#44bba4" opacity="0.1"/>
    <path id="Path_322" data-name="Path 322" d="M1221.595,543.417h-90.183V428.7h40.114q-1.488-1.785-3.008-3.546h-37.063V388.591q-11.254-9.5-23.224-18.283V425.2H900.317V304.518h92.7q-3.916-1.784-7.833-3.546H900.323v-32.8q-11.612-3.832-23.224-7.389V300.9H580.381l-.707-.675,85.833-81.474q-14.188-1.562-28.438-2.839l-59.442,56.413V211.731q-11.612-.612-23.224-1.058v65.544l-70.5-66.907q-15.634,0-31.258.18l95.6,90.732-.707.675H263.121v-80.3q-11.612,1.467-23.224,3.315V300.97H57.105q-1.488,1.742-2.881,3.546H239.876V425.154H47.53c.654,1.192,1.34,2.386,2.047,3.546h190.3V543.416h-93.6q-1.9,1.837-3.906,3.546h97.509V664.348q11.612,1.662,23.224,3.463V546.962H554.382V694.043q11.612,0,23.224.3V546.965H877.084V727.024l.961.106q11.148,1.245,22.284,2.333v-182.5h207.837V724.9c1.774-.328,3.546-.675,5.278-1.058s3.294-.665,4.941-1.058q6.5-1.383,12.995-2.934V546.965h90.912Zm-667.213,0H263.121V428.7h291.26Zm0-118.231H263.121V304.518H550.254l4.1,3.23Zm322.7,118.231H577.627V428.7H877.078Zm0-118.231H577.627V304.518H877.078Zm231.088,118.231H900.323V428.7h207.843Z" transform="translate(-16.316 -169.955)" fill="#44bba4" opacity="0.1"/>
    <path id="Path_323" data-name="Path 323" d="M315.156,679.24a1.5,1.5,0,0,1-.116.349h0a.933.933,0,0,1,.127-.349Z" transform="translate(-1.434 -143.811)" fill="#eaecf0"/>
    <path id="Path_324" data-name="Path 324" d="M321.186,676.9h-6.524l-4.9.063-.538-5.563-.5-5.278-2.3-24.079-.074-.739v-.328l-.644-6.777,9.859-3.694,1.209,9.821.085.728v.085l2.439,19.945.755,6.123.432,3.557.37,3.051v.106Z" transform="translate(-1.952 -146.523)" fill="#eaecf0"/>
    <path id="Path_325" data-name="Path 325" d="M335.981,507.2l.116.349h-.781l-.116-.349Z" transform="translate(18.647 28.219)" fill="#3a3768"/>
    <path id="Path_326" data-name="Path 326" d="M439.4,679.55Z" transform="translate(5.486 -143.793)" fill="#3a3768"/>
    <path id="Path_327" data-name="Path 327" d="M508.817,548.1v.453s-9.2,25.155-12.2,46.628q-.3,2.116-.506,4.222c-.151,1.488-.264,2.945-.328,4.359q-.127,2.493-.064,4.793v1.058c0,.707.074,1.435.116,2.185s.106,1.5.169,2.28.127,1.467.2,2.217c2.266,23.224,10.894,57.226,10.894,57.226s.286.919.654,2.481h-2.386c-14.853.243-29.738.665-44.632,1.171l-2.682.085h-.887c-31.669,1.12-63.338,2.608-94.922,3.673l-7.717.254H353.41q-16.47.527-32.9.813H317.6a17.779,17.779,0,0,1,2.555-2.881,18.584,18.584,0,0,1,2.582-2.007,58.206,58.206,0,0,1,16.2-6.951,12.923,12.923,0,0,1,3.705-.453l7.389.151h1.141l11.332.222,97.244,1.932H460l.686-.137a18.189,18.189,0,0,0,3.283-1.16,11.528,11.528,0,0,0,6.925-8.951c0-.328.085-.675.106-1.058a12.427,12.427,0,0,0,0-1.541,5.241,5.241,0,0,0-.085-1.13c-.085-.39-.106-.781-.18-1.182-2.344-13.1-6.334-53.426-6.334-53.426v.127s0-1.721.1-4.613v-1.33c0-.644.074-1.34.116-2.115,0-.453.063-.919.1-1.4.053-.707.116-1.435.18-2.2a.617.617,0,0,1,0-.138q.063-.718.127-1.457v-.151c1.573-15.563,6.524-40.22,22.168-49.351,7.337-4.3,12.192-5.162,15.391-4.317,4.666,1.224,5.837,6.08,6.091,9.237v.612a15.413,15.413,0,0,1,.151,1.784Z" transform="translate(-1.29 -151.764)" fill="#3a3768"/>
    <path id="Path_328" data-name="Path 328" d="M315.156,679.24a1.5,1.5,0,0,1-.116.349h0a.933.933,0,0,1,.127-.349Z" transform="translate(-1.434 -143.811)" opacity="0.1"/>
    <path id="Path_329" data-name="Path 329" d="M335.981,507.2l.116.349h-.781l-.116-.349Z" transform="translate(18.647 28.219)" opacity="0.1"/>
    <path id="Path_330" data-name="Path 330" d="M439.4,679.55Z" transform="translate(5.486 -143.793)" opacity="0.1"/>
    <path id="Path_331" data-name="Path 331" d="M508.822,548.123v.328a287.3,287.3,0,0,0-11.212,40.632h0q-.379,2.115-.7,4.08c-.106.675-.2,1.351-.3,2.026q-.3,2.115-.506,4.223c-.151,1.488-.264,2.945-.328,4.359q-.127,2.493-.063,4.793v1.058c0,.707.074,1.435.116,2.185s.106,1.511.169,2.28.127,1.467.2,2.217.151,1.467.233,2.206c.338,2.987.755,6.122,1.245,9.311,3.3,21.5,9.417,45.593,9.417,45.593s.3.972.675,2.6h-2.386c-14.853.243-29.738.665-44.632,1.173l-2.682.085h-.887c-31.669,1.12-63.338,2.608-94.922,3.673l-7.717.254h-1.12q-16.47.527-32.9.813H317.53a18.127,18.127,0,0,1,2.64-2.987,17.483,17.483,0,0,1,2.6-2.026,58.842,58.842,0,0,1,16.2-6.951,13.3,13.3,0,0,1,3.7-.443l7.389.151h1.141l11.369.222L459.9,671.9h.169a2.676,2.676,0,0,0,.755-.151,17.062,17.062,0,0,0,3.3-1.192,11.517,11.517,0,0,0,6.83-8.773c0-.328.085-.675.106-1.058a12.45,12.45,0,0,0,0-1.541,5.246,5.246,0,0,0-.085-1.129c-.085-.39-.106-.855-.18-1.3-2.344-13.1-6.334-53.426-6.334-53.426s0-1.721.1-4.613v-1.33c0-.644.074-1.34.116-2.115,0-.453.063-.919.1-1.4.053-.707.116-1.435.18-2.2a.625.625,0,0,1,0-.138q.063-.717.127-1.456v-.151c.19-1.943.443-4.033.756-6.218,2.2-15.285,7.685-35.248,21.365-43.281,7.147-4.223,11.929-5.109,15.137-4.382,4.941,1.13,6.112,6.218,6.334,9.427v.612a15.433,15.433,0,0,1,.151,2.038Z" transform="translate(-1.294 -151.783)" opacity="0.1"/>
    <path id="Path_332" data-name="Path 332" d="M315.156,679.24a1.5,1.5,0,0,1-.116.349h0a.933.933,0,0,1,.127-.349Z" transform="translate(-1.434 -143.811)" fill="#3a3768"/>
    <path id="Path_333" data-name="Path 333" d="M335.981,507.2l.116.349h-.781l-.116-.349Z" transform="translate(18.647 28.219)" fill="#3a3768"/>
    <path id="Path_334" data-name="Path 334" d="M439.4,679.55Z" transform="translate(5.486 -143.793)" fill="#3a3768"/>
    <path id="Path_335" data-name="Path 335" d="M506.305,547.277s-13.776,37.643-13.111,60.171,11.422,64.858,11.422,64.858.464,1.488.961,3.864c-14.853.243-29.738.665-44.632,1.171l-2.682.085h-.887c-31.669,1.12-63.338,2.608-94.922,3.673l-7.717.254h-1.12q-16.47.527-32.9.813H314.19a19,19,0,0,1,5.8-6.091l.286-.2a58.757,58.757,0,0,1,16.193-6.808,13.282,13.282,0,0,1,3.7-.443l9.753.19h1.141l11.749.233,94.739,1.89a15.938,15.938,0,0,0,3.917-1.277,11.249,11.249,0,0,0,1.209-.644h0a12.661,12.661,0,0,0,3.173-2.587,11.958,11.958,0,0,0,2.439-10.556c-2.354-13.1-6.334-53.426-6.334-53.426S461.281,553.38,484.8,539.6c9.5-5.563,14.842-5.373,17.83-3.173a2,2,0,0,1,.254.19C506.991,539.94,506.305,547.277,506.305,547.277Z" transform="translate(-1.48 -151.836)" fill="#3a3768"/>
    <path id="Path_336" data-name="Path 336" d="M137.789,634.324l-.381,3.938-2.3,24.164q-5.394-1.13-10.767-2.365l2.693-21.968.907-7.463Z" transform="translate(-12.041 -146.516)" fill="#eaecf0"/>
    <path id="Path_337" data-name="Path 337" d="M55.12,461.149,112.61,338.79l231.575,18.062,21.344,104.3Z" transform="translate(3.065 18.85)" fill="#efc6cd"/>
    <path id="Path_338" data-name="Path 338" d="M55.12,465.372V454.7H365.529v15.6Z" transform="translate(3.065 25.298)" fill="#d48a9b"/>
    <path id="Path_339" data-name="Path 339" d="M156.121,612.957,295,615.785a1.922,1.922,0,0,0,1.869-2.523l-21.651-58.4-93.539-1.785-27.668,56.646a2.3,2.3,0,0,0,2.115,3.231Z" transform="translate(-10.402 -150.83)" fill="#dfe6f5"/>
    <path id="Path_340" data-name="Path 340" d="M156.121,612.957,295,615.785a1.922,1.922,0,0,0,1.869-2.523l-21.651-58.4-93.539-1.785-27.668,56.646a2.3,2.3,0,0,0,2.115,3.231Z" transform="translate(-10.402 -150.83)" opacity="0.15"/>
    <path id="Path_341" data-name="Path 341" d="M154.94,610.642,295.255,613.6,276.18,555.823a4.761,4.761,0,0,0-4.423-3.273l-90.171-1.71Z" transform="translate(-10.34 -150.954)" fill="#dfe6f5"/>
    <path id="Path_342" data-name="Path 342" d="M165.94,597.19l16.817-37a4.486,4.486,0,0,1,4.08-2.619H228.63a4.465,4.465,0,0,1,4.465,4.465v39.976a4.476,4.476,0,0,1-4.684,4.465l-58.626-2.987a4.465,4.465,0,0,1-3.842-6.3Z" transform="translate(-9.75 -150.581)" fill="#4c4c56"/>
    <path id="Path_343" data-name="Path 343" d="M244,591.942l.718-21.113a3.241,3.241,0,0,1,3.231-3.173H260.3a3.231,3.231,0,0,1,3.173,2.68l3.626,21a3.241,3.241,0,0,1-3.173,3.789l-16.71.151A3.231,3.231,0,0,1,244,591.942Z" transform="translate(-5.385 -150.021)" fill="#d1d9ec"/>
    <path id="Path_344" data-name="Path 344" d="M89.264,460.786l46.564-3.885a3.173,3.173,0,0,1,3.315,1.869l44.03,99.662L158.6,613.6c.771-1.732,1.34,11.739-4.223.063L84.4,467.679C83.459,465.727,87.079,461.061,89.264,460.786Z" transform="translate(-14.272 -156.182)" fill="#4c4c56"/>
    <path id="Path_345" data-name="Path 345" d="M89.264,460.786l46.564-3.885a3.173,3.173,0,0,1,3.315,1.869l44.03,99.662L158.6,613.6c.771-1.732,1.34,11.739-4.223.063L84.4,467.679C83.459,465.727,87.079,461.061,89.264,460.786Z" transform="translate(-14.272 -156.182)" opacity="0.15"/>
    <path id="Path_346" data-name="Path 346" d="M89.155,460.911l48.929-6.249a3.173,3.173,0,0,1,3.315,1.869l44.041,99.662-26.645,59.8L86.647,465.439a3.173,3.173,0,0,1,2.5-4.533Z" transform="translate(-14.157 -156.307)" fill="#4c4c56"/>
    <path id="Path_347" data-name="Path 347" d="M100.715,467.513,136.089,462a3.173,3.173,0,0,1,3.431,1.943l37.047,90.635a2.871,2.871,0,0,1-.063,2.322l-16.964,35.448a2.86,2.86,0,0,1-5.183,0L98.315,472.009a3.173,3.173,0,0,1,2.4-4.5Z" transform="translate(-13.506 -155.898)" fill="#44bba4"/>
    <path id="Path_348" data-name="Path 348" d="M439.4,679.55Z" transform="translate(5.486 -143.793)" fill="#fff"/>
    <path id="Path_349" data-name="Path 349" d="M473.211,675.6s-.728,1.209-1.8,3.173l-.1.18c-.95,1.689-2.115,3.906-3.294,6.334l-2.682.085h-.887c-31.669,1.12-63.338,2.608-94.922,3.673l-7.717.254H360.7q-16.47.527-32.9.813h-6.524l-4.9.063q-7.632.074-15.232.085H295.1c-18.6-.053-37.127-.464-55.536-1.425l-2.047-.116c3.626-7.875,10.092-20.785,15.349-24.913,4.065-3.173,33.252-6.682,60.1-9.258l2.829-.275h.063l7.495-.7c10.275-.94,19.593-1.7,26.243-2.217l.612-.053L346.736,639.7l-5.015-16.89,1.425-14.188.116-1.141h-.151a9.323,9.323,0,0,1-4.223-.527l-50.135-1.737h-.907l-19.255-.686h0c-10.325-.37-17.66-.644-17.946-.7a4.557,4.557,0,0,1-.887-.243,3.989,3.989,0,0,1-1.224-.739,4.9,4.9,0,0,1-1.058-1.266H246.8l-2.72.18-1.383.1c-.053-.151-.1-.3-.151-.432-.127-.411-.254-.8-.37-1.209h-.719l-9.5-.2h-.169s-24.511,1.869-37.322-2.8h0c-4.7-1.711-7.822-4.3-7.579-8.17a8.831,8.831,0,0,1,.548-2.569c-4.117-7.7,15.992-21.736,31.321-17.862a27.129,27.129,0,0,0,12.732.527,16.385,16.385,0,0,0,6.334-2.881c.19-.138.36-.275.517-.413-.254-.151-.517-.3-.755-.422a11.8,11.8,0,0,0-3.347-1.161l4.16-1.209h.063s14.779-1.351,24.395-1.89h.063c2.86-.151,5.278-.243,6.713-.2,6.334.18,18.674-4.349,19.2-5.742s6.165,0,6.165,0l4.93-1.922c4.93-1.911,7.748-4.518,7.748-6.44s4.4-4.012,4.4-4.012c1.984-3.336,5.879-6.914,9.973-10.081,3.536-2.733,7.211-5.172,9.933-6.872a200.262,200.262,0,0,1,4.222-20.311c1.869-6.239,7.664-10.862,9.743-12.361l.755-.506A54.735,54.735,0,0,0,344.382,485a5.928,5.928,0,0,0-.254-.633c-.212-.5-.432-.982-.654-1.435l-.328-.633c-.538.106-1.058.2-1.626.275a36.93,36.93,0,0,1-5.278.39,36.218,36.218,0,0,1-34.995-26.391v-.063a35.743,35.743,0,0,1-1.266-9.5,34.755,34.755,0,0,1,1.209-9.12h0c.151-.633.349-1.256.548-1.88a1.683,1.683,0,0,1,.074-.212c.1-.286.19-.58.3-.866a37.13,37.13,0,0,1-4.719.411h-1.058a22.336,22.336,0,0,1-8.836-1.467h0a11.988,11.988,0,0,1-1.954-1.058.254.254,0,0,1-.085-.063,9.9,9.9,0,0,1-2.174-1.721,11.19,11.19,0,0,0,4.3-7.473c.286-2.28-.1-4.825,1.266-6.682a9.587,9.587,0,0,1,2.47-2.115c5.616-3.832,10.071-9.089,15.148-13.617s11.222-8.445,18.052-8.656c9.163-.286,17.225,6.091,26.306,7.3a71.229,71.229,0,0,1,8.371.94,28.822,28.822,0,0,1,8.5,4.306,21.334,21.334,0,0,1,6.059,5.151,18.167,18.167,0,0,1,2.47,5.9,65.257,65.257,0,0,1,2.115,13.523c.243,4.782,0,9.6.506,14.345a24.605,24.605,0,0,0,4.054,11.538h.137a15.854,15.854,0,0,0,1.309,1.6c-.9.286-1.8.538-2.72.755a42.813,42.813,0,0,1-4.634.919,13.5,13.5,0,0,1-2.164.18,6.447,6.447,0,0,1-1.5-.137l.929.622,2.569,1.732h0l.972.644,1.952,1.3c.443-1.3,1.058-1.647,1.763-1.562,1.436-1.351,3.578,1.573,3.578,1.573,1.256,2.407,4.634,4.8,7.621,6.577a60.223,60.223,0,0,0,5.415,2.829c39.449,23.509,36.947,58.682,39.269,61.47s2.47,12.878,2.47,12.878,5.816,34.3,8.445,37.264.169,4,2.46,7.316,1.763,12.182,1.763,12.182,1.584,20.891,7.221,25.419c5.056,4.065,11.813,38.257,13.146,45.245Z" transform="translate(-8.564 -159.767)" fill="url(#linear-gradient)"/>
    <path id="Path_350" data-name="Path 350" d="M241.844,556.44s-5.479,8.625-21,4.655-36.049,11.042-30.191,18.452,43.64-2.115,43.64-2.115l14.493-2.934-.95-12.065Z" transform="translate(-8.412 -150.642)" fill="#d38884"/>
    <path id="Path_351" data-name="Path 351" d="M241.844,556.44s-5.479,8.625-21,4.655-36.049,11.042-30.191,18.452,43.64-2.115,43.64-2.115l14.493-2.934-.95-12.065Z" transform="translate(-8.412 -150.642)" opacity="0.1"/>
    <path id="Path_352" data-name="Path 352" d="M244.443,556.018l-6.724-.349-4.139,1.209s13.111,1.9,9.5,19.667l14.135-.855Z" transform="translate(-5.966 -150.685)" fill="#a36468"/>
    <path id="Path_353" data-name="Path 353" d="M244.443,556.018l-6.724-.349-4.139,1.209s13.111,1.9,9.5,19.667l14.135-.855Z" transform="translate(-5.966 -150.685)" opacity="0.1"/>
    <path id="Path_354" data-name="Path 354" d="M333.234,518.36s-18.452,10.556-23.635,19.329c0,0-4.306,2.115-4.306,3.969s-2.765,4.476-7.59,6.334l-4.835,1.9s-5.521-1.383-6.044,0-12.584,5.858-18.8,5.69S237.5,557.7,237.5,557.7a21.607,21.607,0,0,1,12.239,23.973l57.448-2.407,21.725-4.835,12.772-12.762Z" transform="translate(-5.747 -152.76)" fill="#444053"/>
    <path id="Path_355" data-name="Path 355" d="M333.234,518.36s-18.452,10.556-23.635,19.329c0,0-4.306,2.115-4.306,3.969s-2.765,4.476-7.59,6.334l-4.835,1.9s-5.521-1.383-6.044,0-12.584,5.858-18.8,5.69S237.5,557.7,237.5,557.7a21.607,21.607,0,0,1,12.239,23.973l57.448-2.407,21.725-4.835,12.772-12.762Z" transform="translate(-5.747 -152.76)" opacity="0.1"/>
    <path id="Path_356" data-name="Path 356" d="M251.249,592.128l-8.129-.151-9.5-.2s-44.864,3.453-43.988-10.894,35.384-19.382,40.192-15.261c3.641,3.114,12.065,5.627,15.908,6.648,1.224.328,1.973.506,1.973.506Z" transform="translate(-8.411 -150.207)" fill="#d38884"/>
    <path id="Path_357" data-name="Path 357" d="M248.495,591.706l-8.128-.151c-3.241-11.137.517-17.271,2.65-19.678,1.224.328,1.973.506,1.973.506Z" transform="translate(-5.657 -149.78)" opacity="0.1"/>
    <path id="Path_358" data-name="Path 358" d="M253.941,592.386l-8.445.591-4.012.275c-5.521-16.214,3.4-22.6,3.4-22.6h2.64l4.317.517Z" transform="translate(-5.625 -149.852)" fill="#a36468"/>
    <path id="Path_359" data-name="Path 359" d="M351.17,491.478l-10.007,19s-1.531-19.244-5.985-28.311c-1.139-2.322-2.47-3.969-4.022-4.465-4.223-1.33,20.057-27.943,20.057-27.943a96.6,96.6,0,0,1,11.148,7.041c6.26,4.223,13.8,9.368,18.865,12.668C390.842,475.6,351.17,491.478,351.17,491.478Z" transform="translate(-0.564 -156.578)" fill="#d38884"/>
    <path id="Path_360" data-name="Path 360" d="M338.7,489.62s-8.045,5.162-10.275,12.751a212.97,212.97,0,0,0-4.324,21.216s3.626,32.6,5.521,34.148,9.078,34.148,9.078,34.148l6.967-4.655-9.142-41.054S342.605,493.431,338.7,489.62Z" transform="translate(-0.929 -154.359)" fill="#444053"/>
    <path id="Path_361" data-name="Path 361" d="M338.7,489.62s-8.045,5.162-10.275,12.751a212.97,212.97,0,0,0-4.324,21.216s3.626,32.6,5.521,34.148,9.078,34.148,9.078,34.148l6.967-4.655-9.142-41.054S342.605,493.431,338.7,489.62Z" transform="translate(-0.929 -154.359)" opacity="0.1"/>
    <path id="Path_362" data-name="Path 362" d="M355.249,389.823H315.04l6.514-63.433h33.7Z" transform="translate(17.526 18.16)" fill="#a36468"/>
    <path id="Path_363" data-name="Path 363" d="M282.862,679.24h.485l-.907.349Z" transform="translate(-3.246 -143.811)" fill="#67647e"/>
    <path id="Path_364" data-name="Path 364" d="M361.046,652.7l-7.857,3.022-1.058.39L323.82,666.989l-10.8,4.149-14.694,5.648h-6c-18.6-.053-37.127-.464-55.536-1.425,3.567-7.822,9.806-20.343,14.9-24.384,3.969-3.173,32.365-6.586,58.577-9.163,3.273-.317,6.5-.622,9.649-.907l.755-.074c10.409-.95,19.824-1.721,26.391-2.248l1.058-.085,8.255-.633.855-.867,1.058,4.518.876,3.61Z" transform="translate(-5.784 -146.16)" fill="#67647e"/>
    <path id="Path_365" data-name="Path 365" d="M282.862,679.24h.485l-.907.349Z" transform="translate(-3.246 -143.811)" opacity="0.1"/>
    <path id="Path_366" data-name="Path 366" d="M361.046,652.7l-7.857,3.022-1.058.39L323.82,666.989l-10.8,4.149-14.694,5.648h-6c-18.6-.053-37.127-.464-55.536-1.425,3.567-7.822,9.806-20.343,14.9-24.384,3.969-3.173,32.365-6.586,58.577-9.163,3.273-.317,6.5-.622,9.649-.907l.755-.074c10.409-.95,19.824-1.721,26.391-2.248l1.058-.085,8.255-.633.855-.867,1.058,4.518.876,3.61Z" transform="translate(-5.784 -146.16)" opacity="0.1"/>
    <path id="Path_367" data-name="Path 367" d="M282.862,679.24h.485l-.907.349Z" transform="translate(-3.246 -143.811)" fill="#67647e"/>
    <path id="Path_368" data-name="Path 368" d="M315.156,679.24a1.5,1.5,0,0,1-.116.349h0a.933.933,0,0,1,.127-.349Z" transform="translate(-1.434 -143.811)" fill="#67647e"/>
    <path id="Path_369" data-name="Path 369" d="M336.1,507.549h-.781l-.116-.349h.781Z" transform="translate(18.647 28.219)" fill="#67647e"/>
    <path id="Path_370" data-name="Path 370" d="M364.845,641.428l-.654,21.725v1.287l-.328,10.757-7.717.254h-1.12q-16.47.527-32.9.813H315.6l-4.9.064q-7.632.074-15.232.085H289.4c5.489-3.4,12.594-7.147,20.237-10.894,3.431-1.689,6.988-3.368,10.556-5.026,9.5-4.412,19.117-8.582,26.961-11.908l1-.422c3.04-1.287,5.8-2.439,8.149-3.41,5.088-2.115,8.318-3.379,8.54-3.463Z" transform="translate(-2.86 -145.922)" fill="#67647e"/>
    <path id="Path_371" data-name="Path 371" d="M294.148,557.076c1.973,4.117,4.012,8.318,7.274,11.527.517.506,1.414.972,1.88.413a1.329,1.329,0,0,0,.2-.781,10.069,10.069,0,0,0-1.9-5.384c-1.058-1.626-2.3-3.1-3.241-4.793s-2.016-4.941-4.128-5.384C291.519,552.1,293.547,555.829,294.148,557.076Z" transform="translate(-2.667 -150.854)" opacity="0.1"/>
    <path id="Path_372" data-name="Path 372" d="M362.319,456.771c-.151.527-.3,1.058-.474,1.562a35.564,35.564,0,0,1-26.666,23.8c-1.139-2.322-2.47-3.969-4.022-4.465-4.223-1.33,20.057-27.943,20.057-27.943a112.445,112.445,0,0,1,11.106,7.041Z" transform="translate(-0.564 -156.579)" opacity="0.1"/>
    <path id="Path_373" data-name="Path 373" d="M365.546,448.664a35.458,35.458,0,1,1-10.385-25.152,35.458,35.458,0,0,1,10.385,25.152Z" transform="translate(-2.526 -158.617)" fill="#d38884"/>
    <path id="Path_374" data-name="Path 374" d="M341.433,496.79s-7.389,8.972-6.207,14.842h8.962l6.556-7.389Z" transform="translate(-0.318 -153.961)" fill="#67647e"/>
    <path id="Path_375" data-name="Path 375" d="M367.486,460.9,339.3,499.652s7.242,10.356,10.693,10.879S373.133,464.7,373.133,464.7Z" transform="translate(-0.084 -155.958)" opacity="0.1"/>
    <path id="Path_376" data-name="Path 376" d="M367.827,460.24l-28.2,38.805s7.242,10.346,10.693,10.862,23.139-45.825,23.139-45.825Z" transform="translate(-0.065 -155.994)" fill="#a36468"/>
    <path id="Path_377" data-name="Path 377" d="M336.378,507.26S335,528.985,333.613,533.3s0,43.977,0,43.977l12.942-5.341-2.248-60.893Z" transform="translate(-0.433 -153.378)" fill="#67647e"/>
    <path id="Path_378" data-name="Path 378" d="M335.981,507.2l.116.349h-.781l-.116-.349Z" transform="translate(18.647 28.219)" opacity="0.1"/>
    <path id="Path_379" data-name="Path 379" d="M439.4,679.55Z" transform="translate(5.486 -143.793)" opacity="0.1"/>
    <path id="Path_380" data-name="Path 380" d="M461.074,672.706l-.644,1.058c-.4.657-.834,1.467-1.393,2.5a.8.8,0,0,0-.074.127c-.781,1.446-1.71,3.22-2.65,5.151-31.669,1.12-63.338,2.608-94.922,3.673l-7.717.254h-1.12l-3.315-11.19v-.116l-.349-1.182-2.115-7.031L344.66,658.8l-2.185-7.621-.8-2.765-.212-.7L338.019,636,333.353,620.1l1.511-15.179h0l.106-1.151,1.36-13.6.19-4.033h0l.106-2.115v-.6h0l.233-4.9.7-14.568.36-7.452h0l.063-1.13h0l.718-14.959,2.037-6.112,1.058-3.04,2.344-7.062.506-1.742h0c.739-2.65,2.227-7.886,3.626-12.92h0l.127-.432h0l.1-.328.993-3.578,1.234-4.592c.464-1.763.771-3.022.845-3.453a67.684,67.684,0,0,1,4.729-8.445h0c5.278-8.73,13.217-21.577,14.125-25.883a.475.475,0,0,0,0-.106,5.286,5.286,0,0,1,.222-.771c.432-1.287,1.058-1.636,1.71-1.552a2.115,2.115,0,0,1,.834.328,6.642,6.642,0,0,1,1.647,1.583c1.234,2.375,4.533,4.751,7.463,6.514l.57.328.338.2c2.428,1.383,4.391,2.267,4.391,2.267,38.636,23.287,36.229,58.134,38.467,60.893s2.418,12.772,2.418,12.772,5.69,33.981,8.276,36.947.18,3.969,2.418,7.253,1.721,11.961,1.721,11.961,1.552,20.69,7.073,25.176S461.074,672.706,461.074,672.706Z" transform="translate(-0.418 -155.987)" opacity="0.1"/>
    <path id="Path_381" data-name="Path 381" d="M462.051,672.382l-.464.8h0c-.37.654-.961,1.689-1.662,2.987l-.074.151c-.8,1.488-1.753,3.294-2.691,5.278h-.887c-31.669,1.12-63.338,2.608-94.922,3.673l-7.717.254-3.3-11.233v-.116L349.98,673l-2.185-7.39-2.115-7.179-2.115-7.168-.834-2.871h0l-3.61-12.33-4.772-16.246,1.319-13.206.18-1.763,1.457-15h0l.559-11.7.686-14.135.18-3.705.2-4.287.085-1.806.686-14.125,2.037-6.1.876-2.629,2.047-6.175.432-1.308s1.973-6.935,3.885-13.807c.074-.254.151-.506.212-.755.169-.591.328-1.182.5-1.763h0c.169-.591.328-1.171.474-1.753.538-1.922,1.058-3.716,1.414-5.193.517-1.933.866-3.336.94-3.79a62.185,62.185,0,0,1,4.825-8.593c4.986-8.255,12.277-20.057,13.818-24.956a7.874,7.874,0,0,0,.212-.771h0a4.022,4.022,0,0,1,.919-2.115c1.414-1.36,3.515,1.562,3.515,1.562,1.234,2.375,4.533,4.761,7.463,6.514a55.963,55.963,0,0,0,5.278,2.8c38.636,23.287,36.229,58.134,38.467,60.893s2.418,12.763,2.418,12.763,5.69,33.981,8.276,36.947.18,3.969,2.418,7.242,1.721,12.076,1.721,12.076,1.552,20.7,7.073,25.187S462.051,672.382,462.051,672.382Z" transform="translate(-0.359 -156.007)" fill="#444053"/>
    <path id="Path_382" data-name="Path 382" d="M382.876,469.092c-3.79,5.511-9.973,15.2-11.612,22.168,0,0-6.044,6.218-8.286,5.869s2.115,4.655,2.115,4.655l-23.723,32.873,3.368-10.1s7.073-24.839,7.389-27.077,17.491-27.879,18.854-34.33c1.058-5.161,4.433-.517,4.433-.517C376.638,464.954,379.945,467.342,382.876,469.092Z" transform="translate(0.032 -155.968)" opacity="0.1"/>
    <path id="Path_383" data-name="Path 383" d="M382.876,468.445c-3.79,5.5-9.973,15.2-11.612,22.115,0,0-6.044,6.207-8.286,5.869s2.115,4.655,2.115,4.655l-23.723,32.872,3.368-10.1s7.073-24.839,7.389-27.088,17.491-27.869,18.854-34.319c1.058-5.172,4.433-.517,4.433-.517C376.638,464.308,379.945,466.683,382.876,468.445Z" transform="translate(0.032 -156.008)" fill="#444053"/>
    <path id="Path_384" data-name="Path 384" d="M415.059,534.9c.18,7.537-10.862,17.83-11.379,18.434s-34.33,28.5-34.33,28.5l-24.28,18.621a20.63,20.63,0,0,1-9.5,4.391l1.662-16.657,1.636-33.78c3.79-4.222,7.463-8.657,7.555-10.071.169-2.924,6.334-6.044,6.334-6.044s4.317-3.626,3.626-5.69,2.291-11.982,2.291-11.982c1.552-28.123,30.522-30.877,30.522-30.877A198.63,198.63,0,0,1,413,501.127C422.818,506.99,414.89,527.373,415.059,534.9Z" transform="translate(-0.292 -154.353)" opacity="0.1"/>
    <path id="Path_385" data-name="Path 385" d="M253.7,592.386l-8.445.591c-3.567-6.07,1.34-22.326,1.34-22.326h.686l4.317.517Z" transform="translate(-5.387 -149.852)" opacity="0.1"/>
    <path id="Path_386" data-name="Path 386" d="M394.238,488.13s-28.978,2.765-30.522,30.877c0,0-2.934,9.838-2.248,11.908s-3.626,5.69-3.626,5.69-6.207,3.1-6.334,6.044-15.835,18.939-15.835,18.939-6.546,7.452-21.725,8.233-22.252,5.426-22.252,5.426-7.389-5.172-12.772-3.626-31.563,3.626-31.563,3.626-6.951,23.055,1.721,24.5c1.058.169,86.456,3.1,86.456,3.1s5.837,2.755,14.631-3.969,24.28-18.632,24.28-18.632,33.778-27.949,34.334-28.508,11.612-10.9,11.379-18.434,7.77-27.89-2.115-33.78a198.994,198.994,0,0,0-23.807-11.4Z" transform="translate(-5.344 -154.442)" fill="#444053"/>
    <path id="Path_387" data-name="Path 387" d="M365.506,448.667a35.461,35.461,0,0,1-1.742,11.011,14.848,14.848,0,0,1-1.309-1.806q-2.471-3.8-4.952-7.6a20.549,20.549,0,0,0-5.035-5.932,7.031,7.031,0,0,0-7.389-.781,7.4,7.4,0,0,0-3.173,5.922,67.25,67.25,0,0,0,.18,6.988,3.853,3.853,0,0,1-.644,2.523,4.137,4.137,0,0,1-2.72,1.058l-3.173.432a2.266,2.266,0,0,1-2.913-1.446c-2.629-4.761-4.444-10.672-9.368-12.963-3.04-1.414-7.052-1.319-9-4.043-1.33-1.859-1.15-4.382-.755-6.639a52.414,52.414,0,0,1,1.848-7.516c.559-1.732,1.806-5.183-.961-5.532-1.88-.243-4.476,1.753-5.426,3.173a28.194,28.194,0,0,0-1.858,4.92,11.75,11.75,0,0,1-6.5,6.027,18.6,18.6,0,0,1-4.476,1.209,35.532,35.532,0,0,1,69.355,10.915Z" transform="translate(-2.485 -158.62)" opacity="0.1"/>
    <path id="Path_388" data-name="Path 388" d="M309.921,425.58a28.848,28.848,0,0,0-1.859,4.909,11.76,11.76,0,0,1-6.482,6.027,24.941,24.941,0,0,1-8.9,1.584c-4.92.151-10.409-.6-13.575-4.37a11.115,11.115,0,0,0,4.223-7.389c.275-2.266-.1-4.782,1.245-6.629a9.5,9.5,0,0,1,2.407-2.037c5.511-3.8,9.859-9.015,14.842-13.492s10.989-8.371,17.679-8.582c8.962-.275,16.89,6.044,25.758,7.232a70.466,70.466,0,0,1,8.191.929,27.931,27.931,0,0,1,8.329,4.223,21.315,21.315,0,0,1,5.943,5.109,18.382,18.382,0,0,1,2.418,5.848,65.311,65.311,0,0,1,2.115,13.4c.243,4.729,0,9.5.506,14.2a22.513,22.513,0,0,0,5.225,12.984,46.451,46.451,0,0,1-7.189,1.662,7.484,7.484,0,0,1-4.571-.358,8.053,8.053,0,0,1-2.786-3.008l-4.952-7.6a20.551,20.551,0,0,0-5.035-5.932,7.031,7.031,0,0,0-7.389-.781,7.428,7.428,0,0,0-3.173,5.922,67.189,67.189,0,0,0,.18,6.988,3.853,3.853,0,0,1-.644,2.523A4.149,4.149,0,0,1,339.695,460l-3.173.432a2.266,2.266,0,0,1-2.913-1.446c-2.629-4.772-4.444-10.672-9.368-12.963-3.04-1.414-7.052-1.319-9-4.043-1.33-1.859-1.151-4.382-.756-6.639a52.4,52.4,0,0,1,1.848-7.516c.559-1.732,1.806-5.183-.961-5.542C313.473,422.074,310.876,424.071,309.921,425.58Z" transform="translate(-3.434 -159.591)" fill="#444053"/>
    <path id="Path_389" data-name="Path 389" d="M385.234,503.128a15.464,15.464,0,0,1,7.981.411c-6.514-2.672-17.112-1.647-23.044,2.026C370.707,506.8,383.164,503.413,385.234,503.128Z" transform="translate(1.634 -153.67)" opacity="0.1"/>
    <path id="Path_390" data-name="Path 390" d="M388.322,511.438c6.5.432,13.2,1.34,19.35-.771-5.151-1.774-10.82-.654-16.246-1.192-4.328-.432-8.731-1.933-12.952-.834-1.763.453-8.255,3.442-7.812,5.627a35.079,35.079,0,0,1,17.661-2.83Z" transform="translate(1.661 -153.324)" opacity="0.1"/>
    <path id="Path_391" data-name="Path 391" d="M371.1,524.771a9.758,9.758,0,0,1,4.033.422A61.675,61.675,0,0,0,390,526.829c3.821,0,7.939-.58,10.728-3.173Z" transform="translate(1.686 -152.469)" opacity="0.1"/>
    <path id="Path_392" data-name="Path 392" d="M351.29,556.18a29.748,29.748,0,0,0,14.515,2.64,64.06,64.06,0,0,0,14.61-2.807c2.115-.622,4.412-1.4,5.648-3.241Z" transform="translate(0.584 -150.846)" opacity="0.1"/>
    <path id="Path_393" data-name="Path 393" d="M395.733,560.48a77.547,77.547,0,0,0,32.217,9.973q-8.582-3.442-17.292-6.514a125.2,125.2,0,0,0-18.209-4.878,9.256,9.256,0,0,1,3.283,1.414Z" transform="translate(2.874 -150.496)" opacity="0.1"/>
    <path id="Path_394" data-name="Path 394" d="M411.147,554.844a27.219,27.219,0,0,0,6.006.326,3.425,3.425,0,0,0,2.934-1.058,51.507,51.507,0,0,1-13.418-1.973c-1.256-.3-3.514-.993-4.571-.243C404.106,553.335,408.614,554.341,411.147,554.844Z" transform="translate(3.41 -150.915)" opacity="0.1"/>
    <path id="Path_395" data-name="Path 395" d="M436.832,644.934a43.626,43.626,0,0,0,14.114,16.805c-3.917-9.986-7.9-20.057-14.167-28.788-1.584-2.2-3.948-5.341-6.83-5.742-.824,2.439,1.256,6.756,2.266,9.046A87.059,87.059,0,0,0,436.832,644.934Z" transform="translate(4.948 -146.705)" opacity="0.1"/>
    <path id="Path_396" data-name="Path 396" d="M327.153,573.491a7.172,7.172,0,0,0,.665,4.941,3.567,3.567,0,0,0,2.005,1.383c-.506-.127-1.058-5.088-1.182-5.764-.233-1.383,0-3.969-.982-4.986C327.405,570.515,327.313,572.013,327.153,573.491Z" transform="translate(-0.783 -149.939)" opacity="0.1"/>
    <path id="Path_397" data-name="Path 397" d="M332.379,571.565a11.254,11.254,0,0,0,5.278,7.147c-1.848-2.28-2.449-5.278-4.054-7.78-.517-.8-1.12-1.952-2.115-2.115q.375,1.393.887,2.744Z" transform="translate(-0.519 -149.955)" opacity="0.1"/>
    <path id="Path_398" data-name="Path 398" d="M328.6,542.7a13.184,13.184,0,0,1-10.45,1.319c-.792-.233-2.64-1.058-2.2-2.216s2.587-.36,3.463-.254l4.592.58C324.852,542.236,327.914,543.1,328.6,542.7Z" transform="translate(-1.387 -151.491)" opacity="0.1"/>
    <path id="Path_399" data-name="Path 399" d="M313.21,549.75c2.164-.275,4.107,1.224,6.133,2.037a18.685,18.685,0,0,0,6.967.929,3.891,3.891,0,0,0,3.252-1.058C324.062,550.406,318.922,549.022,313.21,549.75Z" transform="translate(-1.535 -151.027)" opacity="0.1"/>
    <path id="Path_400" data-name="Path 400" d="M319.97,317.58h.349l2.587,9.3L319.97,330Z" transform="translate(17.8 17.67)" fill="#a36468"/>
    <g id="Group_29" data-name="Group 29" transform="translate(275.826 260.591)" opacity="0.1">
      <path id="Path_401" data-name="Path 401" d="M283.775,419.76a21.789,21.789,0,0,0-.474,4.592,10.136,10.136,0,0,0,.286-1.478C283.711,421.86,283.7,420.8,283.775,419.76Z" transform="translate(-279.024 -418.838)"/>
      <path id="Path_402" data-name="Path 402" d="M315.49,421.011a1.858,1.858,0,0,1,1.732,2.115c.5-1.753.771-3.906-1.383-4.223-1.88-.233-4.476,1.763-5.426,3.22a29.533,29.533,0,0,0-1.859,4.92,11.728,11.728,0,0,1-6.482,6.027,24.941,24.941,0,0,1-8.9,1.584c-4.476.137-9.427-.485-12.668-3.442a10.75,10.75,0,0,1-1.256,1.141c3.173,3.768,8.656,4.518,13.585,4.37a24.932,24.932,0,0,0,8.889-1.583,11.786,11.786,0,0,0,6.5-6.027,28.829,28.829,0,0,1,1.848-4.909C311.025,422.732,313.612,420.778,315.49,421.011Z" transform="translate(-279.25 -418.885)"/>
      <path id="Path_403" data-name="Path 403" d="M367.873,456.719a7.484,7.484,0,0,1-4.571-.36,8.149,8.149,0,0,1-2.786-3.008q-2.471-3.8-4.952-7.6a20.375,20.375,0,0,0-5.026-5.932,7.011,7.011,0,0,0-7.389-.781,7.566,7.566,0,0,0-3.22,5.922v.286a6.671,6.671,0,0,1,2.882-4.139,7.037,7.037,0,0,1,7.389.781,20.708,20.708,0,0,1,5.035,5.932q2.47,3.8,4.952,7.6a7.97,7.97,0,0,0,2.786,3.008,7.453,7.453,0,0,0,4.56.36,46.809,46.809,0,0,0,7.2-1.662,15.451,15.451,0,0,1-1.287-1.594,45.324,45.324,0,0,1-5.574,1.183Z" transform="translate(-275.875 -417.797)"/>
      <path id="Path_404" data-name="Path 404" d="M341.015,454.815a4.23,4.23,0,0,1-2.72,1.058l-3.173.432a2.266,2.266,0,0,1-2.913-1.446c-2.629-4.772-4.444-10.672-9.368-12.963-3.04-1.414-7.041-1.319-8.993-4.043a7.769,7.769,0,0,1-.94-5.532c-.053.328-.127.644-.18.961-.379,2.266-.57,4.782.771,6.639,1.954,2.72,5.964,2.629,8.993,4.043,4.941,2.291,6.756,8.191,9.385,12.963a3.022,3.022,0,0,0,1.209,1.446,3.093,3.093,0,0,0,1.7.074l3.173-.432a4.138,4.138,0,0,0,2.72-1.058,3.789,3.789,0,0,0,.644-2.523h0A3.175,3.175,0,0,1,341.015,454.815Z" transform="translate(-277.402 -418.138)"/>
    </g>
    <path id="Path_405" data-name="Path 405" d="M753.756,694.745l-6.766-.94V593.91l1.383.422,4.223,1.3v9.617l.053,4.338.1,8.93V630.7l.506,44.981v1.209l.18,15.835v.243Z" transform="translate(22.597 -148.559)" fill="#eaecf0"/>
    <path id="Path_406" data-name="Path 406" d="M757.243,695.182l-3.768-.527v-2.047l-.18-15.835v-1.209l-.506-44.981V618.4l-.1-8.93-.053-4.338V595.52H756.7v12.91l.085,9.649v10.208h0l.391,47.208V676.7l.127,15.7v.254Z" transform="translate(22.911 -148.469)" fill="#d3dae1"/>
    <path id="Path_407" data-name="Path 407" d="M757,695.27Z" transform="translate(23.154 -142.919)" fill="#d3dae1"/>
    <path id="Path_408" data-name="Path 408" d="M1146.333,582.18V668.4q-3.008,2.115-6.165,4.149l-.085-71.783V593.15Z" transform="translate(44.468 -149.21)" fill="#eaecf0"/>
    <path id="Path_409" data-name="Path 409" d="M1150.4,581v84.134q-2.153,1.727-4.391,3.347V582.245Z" transform="translate(44.798 -149.276)" fill="#d3dae1"/>
    <path id="Path_410" data-name="Path 410" d="M1057.714,701.129c-2.6.527-5.2,1.058-7.812,1.511l-.095-78.022V621.24l7.526-3.173v7.158Z" transform="translate(39.443 -147.216)" fill="#eaecf0"/>
    <path id="Path_411" data-name="Path 411" d="M1062.279,615.73v84.451c-1.647.36-3.294.7-4.941,1.058l-.349-75.868v-7.158l.5-.233h0Z" transform="translate(39.843 -147.344)" fill="#d3dae1"/>
    <path id="Path_412" data-name="Path 412" d="M638.568,679.511l-7.02-.707-.9-87.988V586.63h6.893v4.782Z" transform="translate(16.126 -148.964)" fill="#eaecf0"/>
    <path id="Path_413" data-name="Path 413" d="M643.435,680.064l-5.278-.559L637.1,591.414V586.63h5.331v5.243Z" transform="translate(16.484 -148.964)" fill="#d3dae1"/>
    <path id="Path_414" data-name="Path 414" d="M1039.45,445.959l4.825-2.267v10.651l-4.7,1.573Z" transform="translate(57.828 24.687)" opacity="0.1"/>
    <path id="Path_415" data-name="Path 415" d="M1132.753,408.95v16.3l-4.382,1.467-6.26,2.079-.01-7.621,6.271-10.968Z" transform="translate(62.425 22.753)" opacity="0.1"/>
    <path id="Path_416" data-name="Path 416" d="M1137.38,379.27V424.4L1039.6,456.98l-.633-48.264Z" transform="translate(57.8 21.102)" fill="#d48a9b"/>
    <path id="Path_417" data-name="Path 417" d="M611.46,377.588,739.955,353.14l421.205,27.591-98.406,29.452Z" transform="translate(34.016 19.648)" fill="#efc6cd"/>
    <path id="Path_418" data-name="Path 418" d="M624.874,414.6l.042,5.236-5.32-.464-6.914-.591-.032-4.181Z" transform="translate(34.083 23.066)" opacity="0.1"/>
    <path id="Path_419" data-name="Path 419" d="M738.795,429.776l-4.065-.36-5.7-.485V421.88l5.638,1.71h4.08Z" transform="translate(40.557 23.471)" opacity="0.1"/>
    <path id="Path_420" data-name="Path 420" d="M611.46,376.3v41.993l451.927,38.858-.633-48.264Z" transform="translate(34.016 20.937)" fill="#d48a9b"/>
    <path id="Path_421" data-name="Path 421" d="M954.011,424.728H894.98V403.31l59.031,4.16Z" transform="translate(49.79 22.439)" fill="#d48a9b"/>
    <path id="Path_422" data-name="Path 422" d="M954.011,424.728H894.98V403.31l59.031,4.16Z" transform="translate(49.79 22.439)" opacity="0.1"/>
    <path id="Path_423" data-name="Path 423" d="M819.87,398.86v33.846l226.591,17.239V413.9l-88.378-5.015-8.783,7.833-36.039-2.5-12.843-9.406Z" transform="translate(45.611 22.192)" opacity="0.1"/>
    <path id="Path_424" data-name="Path 424" d="M818.68,397.67v33.854l226.591,17.225V412.713L956.893,407.7l-8.773,7.844-36.049-2.513-12.843-9.406Z" transform="translate(45.545 22.124)" fill="#fff"/>
    <path id="Path_425" data-name="Path 425" d="M686.556,389.06l53.595,3.768-.622,17.027H704.534l-23.4-9.194Z" transform="translate(37.892 21.646)" fill="#d48a9b"/>
    <path id="Path_426" data-name="Path 426" d="M686.556,389.06l53.595,3.768-.622,17.027H704.534l-23.4-9.194Z" transform="translate(37.892 21.646)" opacity="0.1"/>
    <path id="Path_427" data-name="Path 427" d="M618.59,384.61v30.4l205.584,16.3V399.029l-79.289-4.708-8.461,6.271-31.965-1.88-13.164-8.149Z" transform="translate(34.414 21.398)" opacity="0.1"/>
    <path id="Path_428" data-name="Path 428" d="M617.4,383.42v30.4l205.584,16.3V397.839l-79.288-4.7-8.461,6.26-31.976-1.88L690.1,389.373Z" transform="translate(34.347 21.333)" fill="#fff"/>
    <path id="Path_429" data-name="Path 429" d="M1036.818,383.53l28.819,1.89-47.747,14.294-24.327-1.753Z" transform="translate(55.271 21.339)" opacity="0.1"/>
    <path id="Path_430" data-name="Path 430" d="M1036.818,382.35l28.819,1.88-47.747,14.294-24.327-1.753Z" transform="translate(55.271 21.272)" fill="#fff"/>
    <path id="Path_431" data-name="Path 431" d="M1049.24,557.458c1.141-.5,2.354.422,3.568.654.686.138,1.4,0,2.115.138,1.414.19,2.807,1.13,4.16.654Z" transform="translate(39.413 -150.593)" fill="#d3dae1"/>
    <path id="Path_432" data-name="Path 432" d="M1047.83,558.267c1.129-.485,2.344.432,3.557.665.7.127,1.414,0,2.115.127,1.4.19,2.807,1.141,4.16.665Z" transform="translate(39.335 -150.548)" fill="#d3dae1"/>
    <path id="Path_433" data-name="Path 433" d="M1044.59,559.908c1.129-.485,2.344.422,3.557.654.7.137,1.4,0,2.115.137,1.414.19,2.818,1.141,4.16.654Z" transform="translate(39.154 -150.457)" fill="#d3dae1"/>
    <path id="Path_434" data-name="Path 434" d="M851.408,368.55l64.256,4.213L901.973,392.43l-70.643-7.555Z" transform="translate(46.249 20.505)" opacity="0.1"/>
    <path id="Path_435" data-name="Path 435" d="M850.219,367.36l64.257,4.2L900.784,391.24l-70.654-7.555Z" transform="translate(46.182 20.439)" fill="#3a3768"/>
    <path id="Path_436" data-name="Path 436" d="M852.761,368.73l56.044,3.43-11.937,16.024-61.617-6.154Z" transform="translate(46.468 20.515)" fill="#d5e1f4"/>
    <path id="Path_437" data-name="Path 437" d="M757,695.27Z" transform="translate(23.154 -142.919)" fill="#3a3768"/>
    <path id="Path_438" data-name="Path 438" d="M757,695.27Z" transform="translate(23.154 -142.919)" opacity="0.1"/>
    <path id="Path_439" data-name="Path 439" d="M756.54,695.27Z" transform="translate(23.129 -142.919)" fill="#3a3768"/>
    <path id="Path_440" data-name="Path 440" d="M843.777,700.773a5.1,5.1,0,0,1-.053.9,6.046,6.046,0,0,1-.085.792,17.834,17.834,0,0,1-1.531,5.373h0c-26.55-2.987-53.161-6.576-79.806-10.261l-3.768-.527-6.766-.94-5.7-.792h0a137.342,137.342,0,0,1-18.622-1.742,96.329,96.329,0,0,1-11.506-2.428c-16.89-2.312-33.875-4.533-50.807-6.567l-2.206-.264c.4-1.8.739-2.881.739-2.881s3.626-14.273,6.648-30.22c.665-3.463,1.3-6.988,1.848-10.482.443-2.8.845-5.563,1.182-8.223.19-1.467.349-2.9.485-4.306.074-.7.138-1.393.19-2.115s.116-1.5.169-2.227.074-1.372.106-2.037v-1c0-1.425,0-2.913-.053-4.444a130.915,130.915,0,0,0-3.587-22.6c-.3-1.266-.6-2.534-.919-3.768-.1-.4-.2-.792-.3-1.182-3.41-13.206-7.39-23.995-7.39-23.995a1.211,1.211,0,0,1,0-.18.612.612,0,0,0,0-.127,2.618,2.618,0,0,0,0-.264v-1.88a16.171,16.171,0,0,1,.57-3.273,11.865,11.865,0,0,1,.4-1.12,6.95,6.95,0,0,1,4.751-4.391h0c2.987-.771,7.5,0,14.324,4.043a24.664,24.664,0,0,1,3.173,2.174,13.414,13.414,0,0,1,1.478,1.277c7.812,7.274,11.972,19.276,14.188,30.233.085.391.151.781.233,1.171.264,1.351.485,2.672.686,3.969.358,2.28.644,4.476.855,6.514,0,.548.116,1.058.169,1.615s.106,1.058.137,1.562c.138,1.647.233,3.173.3,4.454.18,3.421.151,5.521.151,5.521v.106a2.887,2.887,0,0,1-.053.453.2.2,0,0,0,0,.085v.949q-.064.665-.151,1.552c-.1.907-.2,1.973-.326,3.173-.085.887-.19,1.848-.3,2.86-.233,2.115-.485,4.56-.756,7.136-.063.485-.116.972-.169,1.457-.243,2.206-.5,4.507-.755,6.83h0c-.286,2.64-.6,5.278-.907,7.886-.074.57-.151,1.141-.212,1.7-.781,6.334-1.562,12.088-2.2,15.666a14.818,14.818,0,0,0-.212,1.6,4.938,4.938,0,0,0,0,.549,10.778,10.778,0,0,0,0,1.435c.517,9.015,10.261,10.556,10.261,10.556l44.242-.876,6.565-.127,3.821-.074,34.487-.686h0l3.173-.063,17.154-.339a12.264,12.264,0,0,1,3.453.411,54.8,54.8,0,0,1,14.991,6.556,17.619,17.619,0,0,1,3.874,3.379,1.107,1.107,0,0,1,.151.169,18.261,18.261,0,0,1,4.149,9.881q0,.364,0,.728a9.47,9.47,0,0,1,.032,1.684Z" transform="translate(17.872 -150.819)" fill="#3a3768"/>
    <path id="Path_441" data-name="Path 441" d="M756.54,695.27Z" transform="translate(23.129 -142.919)" opacity="0.1"/>
    <path id="Path_442" data-name="Path 442" d="M843.778,700.777a5.122,5.122,0,0,1-.053.9,6.134,6.134,0,0,1-.085.792,18.475,18.475,0,0,1-1.583,5.373c-26.55-2.987-53.161-6.577-79.806-10.261l-3.768-.527-6.766-.94-5.7-.792h0a137.3,137.3,0,0,1-18.621-1.742,96.3,96.3,0,0,1-11.506-2.428c-16.89-2.312-33.875-4.533-50.807-6.565l-2.206-.264h0c.4-1.859.755-2.987.755-2.987s2.966-11.612,5.784-25.687h0c.2-.972.39-1.943.58-2.924l.286-1.488c.654-3.453,1.287-7,1.848-10.482.443-2.8.845-5.564,1.182-8.223.19-1.467.349-2.9.485-4.308.074-.7.137-1.393.19-2.115s.116-1.5.169-2.227.074-1.372.106-2.037v-.993c0-1.425,0-2.913-.053-4.444a129.835,129.835,0,0,0-3.557-22.6q-.443-1.921-.919-3.768c-.106-.4-.2-.792-.3-1.182-3.421-13.248-7.389-24.1-7.389-24.1a.326.326,0,0,0,0-.074.589.589,0,0,0,0-.127,2.48,2.48,0,0,0,0-.264v-1.88a16.2,16.2,0,0,1,.538-3.273c.116-.37.243-.755.39-1.12a6.978,6.978,0,0,1,5-4.55c2.987-.7,7.452.169,14.125,4.08a25.585,25.585,0,0,1,3.294,2.3h0c.5.411.972.823,1.436,1.266,7.748,7.316,11.876,19.3,14.072,30.22.085.39.151.792.233,1.182.264,1.34.485,2.671.686,3.959.359,2.28.633,4.465.845,6.5.053.559.116,1.109.151,1.636s.106,1.058.138,1.562c.137,1.647.233,3.173.3,4.454.18,3.421.151,5.521.151,5.521v.559a.2.2,0,0,0,0,.085v.95q-.064.665-.151,1.552c-.1.907-.2,1.973-.328,3.173-.106.876-.2,1.837-.3,2.86-.233,2.115-.485,4.56-.756,7.136-.063.485-.116.972-.169,1.457-.243,2.206-.506,4.533-.755,6.851h0c-.3,2.64-.612,5.278-.929,7.875-.074.57-.137,1.141-.212,1.7-.771,6.334-1.541,12-2.174,15.563a14.68,14.68,0,0,0-.212,1.721,4.92,4.92,0,0,0,0,.548,10.836,10.836,0,0,0,0,1.436c.6,8.915,10.261,10.4,10.261,10.4l44.242-.866,6.556-.138,3.832-.074,34.55-.675,3.231-.063,17.091-.338a11.549,11.549,0,0,1,3.453.411,54.183,54.183,0,0,1,15.11,6.5,17.4,17.4,0,0,1,3.929,3.442,1.112,1.112,0,0,1,.151.169,18.084,18.084,0,0,1,4.1,9.923q0,.364,0,.728a12.281,12.281,0,0,0-.137,1.751Z" transform="translate(17.872 -150.823)" opacity="0.1"/>
    <path id="Path_443" data-name="Path 443" d="M756.54,695.27Z" transform="translate(23.129 -142.919)" fill="#3a3768"/>
    <path id="Path_444" data-name="Path 444" d="M843.722,708.062l-1.742-.2h0c-26.55-2.987-53.161-6.576-79.806-10.261l-3.768-.527-6.766-.94-5.7-.792h0a137.334,137.334,0,0,1-18.622-1.742,96.317,96.317,0,0,1-11.506-2.428c-16.89-2.312-33.875-4.533-50.807-6.567a43.284,43.284,0,0,1,1.058-4.391s10.029-39.491,10.651-60.488c.222-7.505-1.266-16.795-3.283-25.652h0c-.3-1.277-.591-2.544-.907-3.79l-.286-1.182c-3.578-13.881-7.833-25.493-7.833-25.493a17.151,17.151,0,0,1,.243-4.3,11.451,11.451,0,0,1,.254-1.129,8.612,8.612,0,0,1,2.72-4.56h0a1.376,1.376,0,0,1,.2-.151c2.776-2.115,7.759-2.266,16.621,2.934a26,26,0,0,1,4.951,3.789c.423.4.845.823,1.245,1.256,7.126,7.717,10.9,19.54,12.889,30.117l.222,1.171c.233,1.319.432,2.619.623,3.874v.106h0c.243,1.662.443,3.262.612,4.782h0a125.943,125.943,0,0,1,.755,13.481s-.411,4.17-1.058,10.176c-.243,2.354-.527,4.986-.834,7.78v.422l-.151,1.478c-.538,4.867-1.13,10.06-1.732,14.874-.063.591-.138,1.171-.212,1.742-.675,5.415-1.351,10.229-1.91,13.365-2.2,12.224,10.029,14.1,10.029,14.1l41.74-.823,6.546-.127,3.832-.085h2.115l33.1-.654h3.173l19-.379a11.86,11.86,0,0,1,3.451.421,54.45,54.45,0,0,1,15.11,6.482,17.954,17.954,0,0,1,3.557,3.022,1.726,1.726,0,0,1,.18.211,18.283,18.283,0,0,1,2.042,21.071Z" transform="translate(18.002 -150.887)" fill="#3a3768"/>
    <path id="Path_445" data-name="Path 445" d="M957.9,347.05l12.91,27.651h-2.164L953.51,347.378Z" transform="translate(53.046 19.31)" fill="#4c4c56"/>
    <path id="Path_446" data-name="Path 446" d="M957.9,347.05l12.91,27.651h-2.164L953.51,347.378Z" transform="translate(53.046 19.31)" opacity="0.1"/>
    <path id="Path_447" data-name="Path 447" d="M957.67,373.25h12.91v2.892l-12.91.328Z" transform="translate(53.277 20.767)" fill="#4c4c56"/>
    <path id="Path_448" data-name="Path 448" d="M957.67,373.25h12.91v2.892l-12.91.328Z" transform="translate(53.277 20.767)" opacity="0.1"/>
    <path id="Path_449" data-name="Path 449" d="M880.5,423.051v96.58a7.168,7.168,0,0,0,7.168,7.168h160.984a7.126,7.126,0,0,0,7.126-7.263l-1.827-96.672a7.126,7.126,0,0,0-7.126-6.988H887.668a7.168,7.168,0,0,0-7.168,7.176Z" transform="translate(30.025 -158.465)" fill="#4c4c56"/>
    <path id="Path_450" data-name="Path 450" d="M880.5,423.051v96.58a7.168,7.168,0,0,0,7.168,7.168h160.984a7.126,7.126,0,0,0,7.126-7.263l-1.827-96.672a7.126,7.126,0,0,0-7.126-6.988H887.668a7.168,7.168,0,0,0-7.168,7.176Z" transform="translate(30.025 -158.465)" opacity="0.1"/>
    <path id="Path_451" data-name="Path 451" d="M875,423.051v96.58a7.168,7.168,0,0,0,7.168,7.168h160.984a7.115,7.115,0,0,0,7.115-7.263l-1.827-96.672a7.126,7.126,0,0,0-7.115-6.988H882.211a7.168,7.168,0,0,0-7.21,7.176Z" transform="translate(29.718 -158.465)" fill="#4c4c56"/>
    <path id="Path_452" data-name="Path 452" d="M881,428.768V513.8a7.168,7.168,0,0,0,7.168,7.168h149.069a7.126,7.126,0,0,0,7.126-7.126V428.715a7.126,7.126,0,0,0-7.126-7.115H888.168A7.168,7.168,0,0,0,881,428.768Z" transform="translate(30.052 -158.145)" fill="#44bba4"/>
    <path id="Path_453" data-name="Path 453" d="M924.14,347.629,938.3,374.9h31.986l-15.994-31.2Z" transform="translate(51.412 19.123)" fill="#4c4c56"/>
    <path id="Path_454" data-name="Path 454" d="M913.585,373.25l-2.365,2.892h49.035V373.25Z" transform="translate(50.694 20.767)" fill="#4c4c56"/>
    <path id="Path_455" data-name="Path 455" d="M738.182,454.161c-3.515-9.88-3.493-20.852-7.759-30.424a37.057,37.057,0,0,1-1.784-4.223,12.372,12.372,0,0,1-.485-2.755l-.264.063-.264.074-.264.106h0l-.243.151a9.243,9.243,0,0,0,.243.929,35.51,35.51,0,0,0,1.806,4.223c4.349,9.628,4.317,20.637,7.9,30.613a2.873,2.873,0,0,0,.665,1.171,1.575,1.575,0,0,0,.538.328C738.234,454.3,738.2,454.234,738.182,454.161Zm0,0c-3.515-9.88-3.493-20.852-7.759-30.424a37.057,37.057,0,0,1-1.784-4.223,12.372,12.372,0,0,1-.485-2.755l-.264.063-.264.074-.264.106h0l-.243.151a9.243,9.243,0,0,0,.243.929,35.51,35.51,0,0,0,1.806,4.223c4.349,9.628,4.317,20.637,7.9,30.613a2.873,2.873,0,0,0,.665,1.171,1.575,1.575,0,0,0,.538.328C738.234,454.3,738.2,454.234,738.182,454.161Zm0,0c-3.515-9.88-3.493-20.852-7.759-30.424a37.057,37.057,0,0,1-1.784-4.223,12.372,12.372,0,0,1-.485-2.755l-.264.063-.264.074-.264.106h0l-.243.151a9.243,9.243,0,0,0,.243.929,35.51,35.51,0,0,0,1.806,4.223c4.349,9.628,4.317,20.637,7.9,30.613a2.873,2.873,0,0,0,.665,1.171,1.575,1.575,0,0,0,.538.328C738.234,454.3,738.2,454.234,738.182,454.161Zm0,0c-3.515-9.88-3.493-20.852-7.759-30.424a37.057,37.057,0,0,1-1.784-4.223,12.372,12.372,0,0,1-.485-2.755l-.264.063-.264.074-.264.106h0l-.243.151a9.243,9.243,0,0,0,.243.929,35.51,35.51,0,0,0,1.806,4.223c4.349,9.628,4.317,20.637,7.9,30.613a2.873,2.873,0,0,0,.665,1.171,1.575,1.575,0,0,0,.538.328C738.234,454.3,738.2,454.234,738.182,454.161Zm0,0c-3.515-9.88-3.493-20.852-7.759-30.424a37.057,37.057,0,0,1-1.784-4.223,12.372,12.372,0,0,1-.485-2.755l-.264.063-.264.074-.264.106h0l-.243.151a9.243,9.243,0,0,0,.243.929,35.51,35.51,0,0,0,1.806,4.223c4.349,9.628,4.317,20.637,7.9,30.613a2.873,2.873,0,0,0,.665,1.171,1.575,1.575,0,0,0,.538.328C738.234,454.3,738.2,454.234,738.182,454.161Zm0,0c-3.515-9.88-3.493-20.852-7.759-30.424a37.057,37.057,0,0,1-1.784-4.223,12.372,12.372,0,0,1-.485-2.755l-.264.063-.264.074-.264.106h0l-.243.151a9.243,9.243,0,0,0,.243.929,35.51,35.51,0,0,0,1.806,4.223c4.349,9.628,4.317,20.637,7.9,30.613a2.873,2.873,0,0,0,.665,1.171,1.575,1.575,0,0,0,.538.328C738.234,454.3,738.2,454.234,738.182,454.161Zm0,0c-3.515-9.88-3.493-20.852-7.759-30.424a37.057,37.057,0,0,1-1.784-4.223,12.372,12.372,0,0,1-.485-2.755l-.264.063-.264.074-.264.106h0l-.243.151a9.243,9.243,0,0,0,.243.929,35.51,35.51,0,0,0,1.806,4.223c4.349,9.628,4.317,20.637,7.9,30.613a2.873,2.873,0,0,0,.665,1.171,1.575,1.575,0,0,0,.538.328C738.234,454.3,738.2,454.234,738.182,454.161ZM921.6,552.547h0l-.813-.151,1.058-.233h0a1.607,1.607,0,0,0,.3-.074h0c1.173-.254,2.333-.538,3.475-.845h0l1.192-.338h0l.169-.053c9.838-2.9-1.636-5.574-16.225-7.555h-.042c-15.751-2.115-35.069-3.493-35.069-3.493l-6.044.8h-.053c-7.389.971-19.054,2.569-20.912,3.173-2.266.755-21.429,1.662-28.1,1.964a2.916,2.916,0,0,0-.993-1.058l-19.709-.907v2.72h0l-.151-.063a27.039,27.039,0,0,0-2.671-10.556l-.151-.3c-5.087-9.649-6.112-12.065-6.112-12.065h0a1.982,1.982,0,0,0-.138-.517c-1.71-5.932-8.008-16.246-18.7-31.046l-.37-.517-1.34-6.567-.233-1.151h-6.724a87.916,87.916,0,0,1,4.666-16.689c.137-.339.275-.675.421-1l.085-.19c.151-.349.317-.7.474-1.058h1.171A32.124,32.124,0,0,0,800.929,434.9a.2.2,0,0,0,0-.085q.064-.982.063-1.964a31.425,31.425,0,0,0-4.222-15.835c-.085-.151-.169-.3-.264-.443l-.169-.286-.379-.591c2.407-.57,5.278.527,7.389-.823a5.407,5.407,0,0,0,1.806-2.174,11.306,11.306,0,0,0,1.058-3.173h0a1.029,1.029,0,0,0,0-.18.136.136,0,0,0,0-.063,12.485,12.485,0,0,0,.151-2.174,11.719,11.719,0,0,0-.739-4.391,12.1,12.1,0,0,0-6.8-6.819,46.06,46.06,0,0,0-4.941-1.34c-6.756-1.806-12.467-6.26-19-8.741a34.466,34.466,0,0,0-14.241-2.2,20.373,20.373,0,0,0-8.445,2.115,36.149,36.149,0,0,0-5.638,4.08c-4.7,3.7-10.029,6.872-14.114,11.295a25.233,25.233,0,0,0-2.047,2.534c-.36.517-.686,1.058-1.058,1.584a2.829,2.829,0,0,0-2.545-1.058h0a4.147,4.147,0,0,0-.517,0,10.246,10.246,0,0,0-1.309.137c-1.058.18-8.915,2.266-8.915,3.336a37.138,37.138,0,0,0-9.036,5.553c-6.334,5.8-7.748,14.98-8.551,23.446a217.245,217.245,0,0,0-1.058,29.558c.151,3.589.432,7.179.264,10.767a80.087,80.087,0,0,1-1.869,12.541q-1.36,6.44-2.945,12.843c-.506,2.115-1.319,4.465-3.389,5.137l.771.106a3.715,3.715,0,0,1-.771.37,23.067,23.067,0,0,0,2.682.264h.623a7.285,7.285,0,0,0,1.511-.18,5.639,5.639,0,0,0,1.911-.887c.085-.212.151-.422.233-.644a3.569,3.569,0,0,0,1.266-1.964,13.972,13.972,0,0,1-.212,3.567,2.254,2.254,0,0,1-.106.517,14.571,14.571,0,0,1-3.626,6.883l1.058-.8A15.506,15.506,0,0,1,693.753,516q2.28-1.71,4.56-3.493h0a2.217,2.217,0,0,0,.264-.2h0l2.6-2.048V512.3h0v.474c-.212,7.285-.517,25.176,1.139,29.452.1.254.2.506.286.756,1.889,4.867,2.7,6.967,2.46,9.5-.169,1.763,1.151,6.809,1.88,10.82a13.428,13.428,0,0,1,.339,4.888,6.97,6.97,0,0,0,.19,2.913c.1.464.212.961.338,1.478a2.289,2.289,0,0,0,.138.559c.961,3.842,2.322,8.593.9,10.482a8.366,8.366,0,0,0-1.058,2.115c-1.171,3.173-1.36,7.495-2.72,9.247-1.583,2.037-1.058,5.659-.929,6.123a.187.187,0,0,1,0,.053s-.074.411-.222,1.058c-.18.887-.464,2.248-.823,3.758v.106a53.743,53.743,0,0,1-1.827,6.26h0c-.538,1.435-1.058,2.471-1.662,2.671-2.115.771-3.173,10.683-3.173,10.683s-4.835,7.844-3.916,9.775a12.932,12.932,0,0,0,.686,1.3l-.464.718c-2.587,4.149-6.334,11.686-2.7,15.74a17.949,17.949,0,0,0,4.328,3.3c-.191.422-.39.876-.6,1.372-3.99,9.353-10.134,31.078,13.5,40.241a74.944,74.944,0,0,0,7.168,2.354,96.309,96.309,0,0,0,11.506,2.428,141.017,141.017,0,0,0,16.89,1.511c2.513.085,4.986.106,7.389.085s4.571-.074,6.745-.169q1.932-.074,3.768-.19a197.117,197.117,0,0,0,21.672-2.375l33.78-6.044s14.188.506,19.413,3.5l.151.1s.855-.5,2.291-1.467h0c.622-.423,1.36-.929,2.174-1.531a71.316,71.316,0,0,0,20.131-22.4l.116-.2,1.151-.151h.264l.823-.116,1.71-.243h.3c4.275-.622,8.318-1.309,8.318-1.309s.151,4.719.349,10.187c.063,1.662.116,3.41.18,5.1.2,5.784.379,11.042.379,11.221s4.349,11.612,9.217,23.139l3.8.3q15.054,1.209,30.1,1.995l3.747.19,2.344.116c-1.689-10.229-3.022-19.983-3.022-19.983l-6.271-29.209s-.654-6.044-5.352-32.94c-3.8-21.788-26.18-19.856-34.561-18.325-.855.151-1.552.3-2.115.422v-1.636s-16.077,1.351-30.613,2.007l-3.536.151c-3.368.127-6.567.2-9.368.2a68.635,68.635,0,0,1-7.389-.3c-11.222-1.287-24.016,2.569-24.016,2.569s-16.352,2.65-18.537,1.679a5.631,5.631,0,0,0-1.848-.381h-1.058a1.69,1.69,0,0,0,1.058-1.88c-.654-2.7-.919-6.44.919-9.015.8-1.141,2.115-2.934,3.283-4.571l2.85-3.916v-.3l.074-1.151.686-10.261,1.647-9.5.106-.6.151-.845.106-.612.317.106h0c4.676,1.626,9.972,2.765,13.723,1.457h.074a6.293,6.293,0,0,0,.866-.369h.169v.707l.063,1.234,17.618-.961h.264s.686-3.4,1.425-8.087c.053-.381.116-.771.18-1.171s.151-1.058.233-1.541a6.453,6.453,0,0,1,.106-.755h1.058c8.17-.3,19.572-.993,24.217-2.682h0a5.276,5.276,0,0,0,1.594-.855c1.973-1.71,9.057-4.16,16.016-6.271h0l2.776-.824c2.016-.591,3.959-1.141,5.68-1.626,3.99-1.058,6.84-1.837,6.84-1.837s27.447,2.544,47.947-3.379h0l.339-.1C935.564,556.356,930.771,554.287,921.6,552.547ZM726.843,415.314a5.728,5.728,0,0,0,.116.94h0a2.642,2.642,0,0,0,.064.4.725.725,0,0,0,.085.411,9.267,9.267,0,0,0,.243.929,35.549,35.549,0,0,0,1.806,4.223c4.348,9.628,4.317,20.637,7.9,30.613a2.871,2.871,0,0,0,.665,1.171,1.571,1.571,0,0,0,.538.328l.254.085h.3l-.116.2a1.048,1.048,0,0,1-.085.151l-.074.116c-1.414,2.386-2.924,4.729-4.444,6.8a9.923,9.923,0,0,0-3.663,1.5l-.591.39-.254.19c-.37-1.813-.876-3.61-1.34-5.4a124.754,124.754,0,0,1-4.08-29.283v-1.995c0-2.555.064-5.1.222-7.653a6.332,6.332,0,0,1,.9-3.357h0a2.312,2.312,0,0,1,1.562-.755Zm11.333,38.858c-3.515-9.88-3.494-20.852-7.759-30.424a37.014,37.014,0,0,1-1.784-4.223,12.374,12.374,0,0,1-.485-2.754l-.265.063-.264.074-.264.106h0l-.243.151a9.25,9.25,0,0,0,.243.929,35.5,35.5,0,0,0,1.806,4.223c4.349,9.628,4.317,20.637,7.9,30.613a2.872,2.872,0,0,0,.665,1.171,1.572,1.572,0,0,0,.538.328c-.032-.127-.063-.19-.085-.264Zm0,0c-3.515-9.88-3.494-20.852-7.759-30.424a37.014,37.014,0,0,1-1.784-4.223,12.374,12.374,0,0,1-.485-2.754l-.265.063-.264.074-.264.106h0l-.243.151a9.25,9.25,0,0,0,.243.929,35.5,35.5,0,0,0,1.806,4.223c4.349,9.628,4.317,20.637,7.9,30.613a2.872,2.872,0,0,0,.665,1.171,1.572,1.572,0,0,0,.538.328c-.032-.127-.063-.19-.085-.264Zm0,0c-3.515-9.88-3.494-20.852-7.759-30.424a37.014,37.014,0,0,1-1.784-4.223,12.374,12.374,0,0,1-.485-2.754l-.265.063-.264.074-.264.106h0l-.243.151a9.25,9.25,0,0,0,.243.929,35.5,35.5,0,0,0,1.806,4.223c4.349,9.628,4.317,20.637,7.9,30.613a2.872,2.872,0,0,0,.665,1.171,1.572,1.572,0,0,0,.538.328c-.032-.127-.063-.19-.085-.264Zm0,0c-3.515-9.88-3.494-20.852-7.759-30.424a37.014,37.014,0,0,1-1.784-4.223,12.374,12.374,0,0,1-.485-2.754l-.265.063-.264.074-.264.106h0l-.243.151a9.25,9.25,0,0,0,.243.929,35.5,35.5,0,0,0,1.806,4.223c4.349,9.628,4.317,20.637,7.9,30.613a2.872,2.872,0,0,0,.665,1.171,1.572,1.572,0,0,0,.538.328c-.032-.127-.063-.19-.085-.264Zm0,0c-3.515-9.88-3.494-20.852-7.759-30.424a37.014,37.014,0,0,1-1.784-4.223,12.374,12.374,0,0,1-.485-2.754l-.265.063-.264.074-.264.106h0l-.243.151a9.25,9.25,0,0,0,.243.929,35.5,35.5,0,0,0,1.806,4.223c4.349,9.628,4.317,20.637,7.9,30.613a2.872,2.872,0,0,0,.665,1.171,1.572,1.572,0,0,0,.538.328c-.032-.127-.063-.19-.085-.264Zm0,0c-3.515-9.88-3.494-20.852-7.759-30.424a37.014,37.014,0,0,1-1.784-4.223,12.374,12.374,0,0,1-.485-2.754l-.265.063-.264.074-.264.106h0l-.243.151a9.25,9.25,0,0,0,.243.929,35.5,35.5,0,0,0,1.806,4.223c4.349,9.628,4.317,20.637,7.9,30.613a2.872,2.872,0,0,0,.665,1.171,1.572,1.572,0,0,0,.538.328c-.032-.127-.063-.19-.085-.264Z" transform="translate(19.341 -160.26)" fill="url(#linear-gradient-2)"/>
    <path id="Path_456" data-name="Path 456" d="M771.321,456.727A24.62,24.62,0,0,0,767.267,463c-.151.349-.317.686-.464,1.058-4.666,10.556-6.25,25.493-6.25,25.493s-2.892-1.3-6.988-3.324c-7.632-3.777-19.413-10.071-24.176-15.086-2.115-2.266-2.871-4.275-1.118-5.68a13.033,13.033,0,0,0,1.161-1.058,33.577,33.577,0,0,0,3.684-4.37c1.52-2.115,3.022-4.465,4.433-6.883.834-1.414,1.626-2.839,2.365-4.223l.3-.548c3.173-6.006,5.479-11.138,5.479-11.138s1.058.338,2.765.94C756.341,441,778.056,449.559,771.321,456.727Z" transform="translate(21.501 -157.274)" fill="#efb7b9"/>
    <path id="Path_457" data-name="Path 457" d="M909.13,691.656s1.287,9.565,2.924,19.657l-3.747-.19q-15.031-.781-30.1-1.995C872.51,695.921,866.6,680.245,866.6,680s-.18-5.4-.379-11.169c-.063-2.026-.138-4.117-.2-6.08h0c-.106-2.977-.2-5.659-.254-7.327,0-1.139-.064-1.813-.064-1.813s-5.426.951-10.3,1.615l-2.164.286c-1.118.138-2.115.243-3.008.3a7.749,7.749,0,0,1-2.333,0c-1.662-.644,1.8-16.89,1.8-16.89l8.613-20.852,2.407-5.805,1.058-.264c.517-.127,1.209-.275,2.047-.432,8.223-1.511,30.191-3.431,33.917,18.251,4.613,26.781,5.278,32.8,5.278,32.8Z" transform="translate(28.186 -147.623)" fill="#efb7b9"/>
    <path id="Path_458" data-name="Path 458" d="M913.039,728H913Z" transform="translate(32.607 -141.099)" fill="#efb7b9"/>
    <path id="Path_459" data-name="Path 459" d="M909.13,691.656s1.287,9.565,2.924,19.657l-3.747-.19q-15.031-.781-30.1-1.995C872.51,695.921,866.6,680.245,866.6,680s-.18-5.4-.379-11.169c-.063-2.026-.138-4.117-.2-6.08h0c-.106-2.977-.2-5.659-.254-7.327,0-1.139-.064-1.813-.064-1.813s-5.426.951-10.3,1.615l-2.164.286c-1.118.138-2.115.243-3.008.3a7.749,7.749,0,0,1-2.333,0c-1.662-.644,1.8-16.89,1.8-16.89l8.613-20.852,2.407-5.805,1.058-.264c.517-.127,1.209-.275,2.047-.432,8.223-1.511,30.191-3.431,33.917,18.251,4.613,26.781,5.278,32.8,5.278,32.8Z" transform="translate(28.186 -147.623)" opacity="0.05"/>
    <path id="Path_460" data-name="Path 460" d="M913.039,728H913Z" transform="translate(32.607 -141.099)" opacity="0.05"/>
    <path id="Path_461" data-name="Path 461" d="M908.459,710.807q-15.033-.781-30.1-1.995l-3.8-.3-1.679-.138c-4.729-11.411-8.93-22.57-8.93-22.771s-.18-5.4-.381-11.169c-.243-7.2-.517-15.222-.517-15.222l-.707.116-.3.053h-.381l-1.7.286-.929.151c-1.679.275-3.7.58-5.69.866l-.443.063-1.16.151-1.058.127h0c-.813.106-1.583.19-2.28.254l-.855.074a7.392,7.392,0,0,1-2.333,0c-1.662-.644,1.795-16.89,1.795-16.89l11.021-26.655.381-.106c.58-.151,1.806-.432,3.463-.718.623-.106,1.309-.211,2.047-.3,9.564-1.224,27.763-.876,31.126,18.685,4.613,26.781,5.278,32.8,5.278,32.8l6.154,29.114S907.3,703.281,908.459,710.807Z" transform="translate(28.036 -147.31)" fill="#efb7b9"/>
    <path id="Path_462" data-name="Path 462" d="M863.422,672.393c-.243-7.2-.517-15.232-.517-15.232s-10.556,1.848-15.476,2.206l.993-3.357s18.073-4.986,18.452-2.174C867.15,655.808,864.826,666.3,863.422,672.393Z" transform="translate(28.185 -145.271)" opacity="0.1"/>
    <path id="Path_463" data-name="Path 463" d="M863.949,611.48v7.632s-.9,13.723-7.949,34.72c-.151.453-.3.9-.474,1.34a47.888,47.888,0,0,1-2.619,5.893c-1.984.275-3.906.506-5.331.612a7.717,7.717,0,0,1-2.333,0c-1.662-.644,1.784-16.89,1.784-16.89l11.021-26.645.39-.106,2.4-5.816a27.812,27.812,0,0,1,3.114-.741Z" transform="translate(28.039 -147.581)" opacity="0.1"/>
    <path id="Path_464" data-name="Path 464" d="M870.413,610.34v8.836s-.9,13.723-7.949,34.73c-.18.549-.379,1.058-.58,1.615s-.464,1.224-.728,1.813c-.58,1.4-1.234,2.765-1.92,4.08h0a70.507,70.507,0,0,1-19.276,22.06c-.781.6-1.511,1.129-2.115,1.573h-.053c-1.058.718-1.813,1.234-2.3,1.541s-.527.328-.527.328c-5-3.072-19.223-3.589-19.223-3.589l-33.189,6.027a192.363,192.363,0,0,1-21.926,2.492l-3.768.18c-2.174.085-4.433.138-6.745.151-1.869,0-3.768,0-5.7-.074h0a137.283,137.283,0,0,1-18.621-1.742,92.972,92.972,0,0,1-10.049-2.227,70.73,70.73,0,0,1-6.951-2.323c-23.224-9.12-17.175-30.75-13.259-40.114.212-.5.411-.95.6-1.372.866-1.911,1.511-3.03,1.511-3.03l1.541-3.726h0l2.523-6.112.559-1.34.151-.391,1.869-4.533,26.391-3.421,19.392-2.513,5.9-.756,4-.517,7.632-.993,2.871-.37a35.723,35.723,0,0,1,5.352-.422,7.478,7.478,0,0,1,2.849.422c2.115.961,18.2-1.662,18.2-1.662s12.552-3.843,23.571-2.569a131.12,131.12,0,0,0,16.373.106h0l1.351-.063,1.753-.074h.381C854.578,611.691,870.413,610.34,870.413,610.34Z" transform="translate(19.528 -147.644)" fill="#444053"/>
    <path id="Path_465" data-name="Path 465" d="M771.766,635.521s-12.668,28.83-13.2,29.336-.506,9.5,0,8.972,18.073-39.459,18.073-39.459Z" transform="translate(23.22 -146.307)" opacity="0.1"/>
    <path id="Path_466" data-name="Path 466" d="M831.41,612.367s-6.408,4.139-8.329,7.473-19.477,36.515-23.825,41.38a106.3,106.3,0,0,0-9.743,13.86c-.506.876-.506,6.387,2.569,1.13s2.312-6.144,8.329-12.668,12.668-21.272,15.243-24.217,6.154-11.786,10.64-17.049l8.593-10.039Z" transform="translate(24.95 -147.539)" opacity="0.1"/>
    <path id="Path_467" data-name="Path 467" d="M831.154,666.337s-4.486-3.072-8.709,2.174S831.154,666.337,831.154,666.337Z" transform="translate(26.748 -144.578)" opacity="0.1"/>
    <path id="Path_468" data-name="Path 468" d="M836.176,667.79s-3.716,6.482-5.511,7S836.176,667.79,836.176,667.79Z" transform="translate(27.237 -144.447)" opacity="0.1"/>
    <path id="Path_469" data-name="Path 469" d="M830.941,669.32s-2.945,5.137-5.511,4.613Z" transform="translate(26.961 -144.362)" opacity="0.1"/>
    <path id="Path_470" data-name="Path 470" d="M811.3,538.427s27.161-1.15,29.853-2.047,26.518-3.969,26.518-3.969,70.6,4.986,50.491,11.021-47.409,3.453-47.409,3.453S844.1,553.809,840,557.44s-34.34,3.716-34.34,3.716Z" transform="translate(25.861 -151.98)" fill="#efb7b9"/>
    <path id="Path_471" data-name="Path 471" d="M811.3,538.427s27.161-1.15,29.853-2.047,26.518-3.969,26.518-3.969,70.6,4.986,50.491,11.021-47.409,3.453-47.409,3.453S844.1,553.809,840,557.44s-34.34,3.716-34.34,3.716Z" transform="translate(25.861 -151.98)" opacity="0.05"/>
    <path id="Path_472" data-name="Path 472" d="M720.319,479.521s-24.86,8.445-12.815,29.98,27.552,31.669,27.552,31.669l39.976,27.678s16.784,9.607,24.469,5.638l12.552-1.058,2.115-32.94s-10.556,8.2-22.042-3.173-25.631-19.1-26.781-25.234S734.791,474.264,720.319,479.521Z" transform="translate(20.218 -154.954)" fill="#a36468"/>
    <path id="Path_473" data-name="Path 473" d="M793.87,546.038s12.942,4.613,12.435,4.867-12.435,4.74-12.435,4.74l.9,17.555,17.555-.961s6.408-31.965.9-35.174l-19.35-.9Z" transform="translate(25.205 -151.772)" fill="#67647e"/>
    <path id="Path_474" data-name="Path 474" d="M793.87,546.038s12.942,4.613,12.435,4.867-12.435,4.74-12.435,4.74l.9,17.555,17.555-.961s6.408-31.965.9-35.174l-19.35-.9Z" transform="translate(25.205 -151.772)" opacity="0.1"/>
    <path id="Path_475" data-name="Path 475" d="M770.657,456.725A24.617,24.617,0,0,0,766.6,463c-.151.349-.317.686-.464,1.058-9.427,0-16.2-7.327-21.989-13.881-1.058-1.209-3.726.622-4.6-.739-.1-.151-.19-.317-.3-.474l.3-.549c3.173-6.006,5.479-11.138,5.479-11.138s1.058.338,2.765.94C755.679,441,777.393,449.553,770.657,456.725Z" transform="translate(22.165 -157.272)" opacity="0.1"/>
    <path id="Path_476" data-name="Path 476" d="M798.349,433.226A31.775,31.775,0,0,1,766.87,464.99h-.3a31.721,31.721,0,0,1-23.836-10.767,32.366,32.366,0,0,1-2.913-3.853,31.785,31.785,0,1,1,58.534-17.144Z" transform="translate(21.92 -159.267)" fill="#efb7b9"/>
    <path id="Path_477" data-name="Path 477" d="M768.224,618.22s-2.418,2.955-5.088,5.712a19.841,19.841,0,0,1-5.553,4.533c-3.173,1.16-17.679,12.171-17.679,12.171s-11.527,7.822-14.472,10.124-13.585.9-13.585.9-10.24-2.238-16.585-6.334a41.191,41.191,0,0,1,2.115-4.391l6.661-16.151,26.391-3.41Z" transform="translate(19.722 -147.206)" opacity="0.1"/>
    <path id="Path_478" data-name="Path 478" d="M767.978,616.28s-2.407,2.956-5.077,5.712a20.612,20.612,0,0,1-5.553,4.533c-3.173,1.152-17.679,12.171-17.679,12.171s-11.538,7.822-14.483,10.124-13.575.9-13.575.9-14.61-3.173-19.741-8.972c-3.589-4.044.127-11.538,2.661-15.666a31.685,31.685,0,0,1,1.952-2.913Z" transform="translate(19.45 -147.313)" fill="#67647e"/>
    <path id="Path_479" data-name="Path 479" d="M783.833,524.588c-8.72-.771-37.423-35.892-37.423-35.892l.654-.9,6.017-8.329h14.072l1.552,7.685c10.7,15.012,17.006,25.451,18.717,31.429C788.656,522.931,787.485,524.915,783.833,524.588Z" transform="translate(22.565 -154.924)" fill="#67647e"/>
    <path id="Path_480" data-name="Path 480" d="M783.833,524.149c-8.72-.771-37.423-35.892-37.423-35.892l.654-.9a162.089,162.089,0,0,1,14.472,15.11c21,24.723,25.166,17.819,25.883,15.666C788.656,522.493,787.485,524.477,783.833,524.149Z" transform="translate(22.565 -154.486)" opacity="0.1"/>
    <path id="Path_481" data-name="Path 481" d="M767.761,616.28s-2.407,2.956-5.077,5.712a14.4,14.4,0,0,1-4.4.951c-3.336-.127-11.021,5.137-11.021,5.137s-13.575-.771-16.14.633-12.435,1.662-12.435,1.662c-18.062,5.151-23.055-2.671-24.375-5.278a31.682,31.682,0,0,1,1.952-2.913Z" transform="translate(19.667 -147.313)" opacity="0.1"/>
    <path id="Path_482" data-name="Path 482" d="M799.151,547.854a11.163,11.163,0,0,1-.151,1.467c-.064.474-.127.961-.2,1.414a23.22,23.22,0,0,1-2.312,7.484c-2.3,3.843-9.353,18.833-9.353,18.833l-.474,2.765-.243,1.446-.254,1.425-1.721,10.1-.771,11.665s-4.223,5.893-6.017,8.445-1.541,6.281-.9,8.972-5.893,3.072-5.893,3.072-9.226,4.486-12.562,4.359-11.021,5.109-11.021,5.109-13.575-.771-16.14.644-12.435,1.662-12.435,1.662c-19.341,5.5-23.7-3.853-24.6-5.775s3.843-9.732,3.843-9.732,1.058-9.87,3.072-10.64,4.486-13.829,4.486-13.829-.771-3.98.9-6.154,1.541-8.329,3.715-11.274-2.3-12.815-1.531-15.38-2.439-12.942-2.185-15.634-.633-4.867-2.693-10.251c-1.753-4.592-1.256-25-1.058-30.845,0-.993.053-1.562.053-1.562s1.795-5.775,6.535-17.3c3.589-8.731,11.665-12.034,15.37-13.111a19.283,19.283,0,0,1,1.932-.474,13.553,13.553,0,0,1,2.72.686c3.737,1.256,11.21,4.814,21.873,14.779a163.921,163.921,0,0,1,13.333,14.061c24.037,28.256,26,15.065,26,15.065s1.058,2.407,6.006,12.012A30.568,30.568,0,0,1,799.151,547.854Z" transform="translate(19.651 -155.19)" fill="#a36468"/>
    <path id="Path_483" data-name="Path 483" d="M758.038,479.013,733.927,459.78s-8.688,1.058-12.277,15.645l24.818,21.736Z" transform="translate(21.188 -156.021)" opacity="0.1"/>
    <path id="Path_484" data-name="Path 484" d="M758.063,479.066l-4.22,5.9-4.285,6.044-3.231,4.74-19.814-16.689-3.41-2.956-1.913-1.626c1.933-7.886,5.362-11.824,8.1-13.723a10.061,10.061,0,0,1,4.223-1.89Z" transform="translate(21.162 -156.072)" fill="#67647e"/>
    <path id="Path_485" data-name="Path 485" d="M919.116,550.713c-20.12,6.017-47.409,3.463-47.409,3.463s-26.655,6.914-30.75,10.556c-2.64,2.312-16.119,3.173-25.335,3.514-5.119.19-8.951.2-8.951.2l5.627-22.728,3.252-.151c7.3-.338,24.49-1.209,26.6-1.911,2.691-.9,26.518-3.969,26.518-3.969S939.229,544.685,919.116,550.713Z" transform="translate(25.919 -151.577)" fill="#efb7b9"/>
    <path id="Path_486" data-name="Path 486" d="M798.171,549.964a23.212,23.212,0,0,1-2.312,7.484c-2.3,3.842-9.353,18.833-9.353,18.833l-.972,5.69a69.428,69.428,0,0,1-9.5-4.37l-40.008-27.71s-15.507-10.124-27.551-31.669,12.815-29.98,12.815-29.98c14.472-5.278,43.819,26.391,44.97,32.545s15.261,13.839,26.781,25.234A23.437,23.437,0,0,0,798.171,549.964Z" transform="translate(20.271 -154.469)" opacity="0.1"/>
    <path id="Path_487" data-name="Path 487" d="M798.529,547.3c-.1,1-.212,1.964-.36,2.881a23.221,23.221,0,0,1-2.312,7.484c-2.3,3.842-9.353,18.833-9.353,18.833l-.474,2.765A68.5,68.5,0,0,1,776,574.7L736.025,546.98s-15.507-10.124-27.552-31.669,12.815-29.99,12.815-29.99c14.472-5.278,43.819,26.391,44.97,32.545s15.261,13.839,26.781,25.25a23.114,23.114,0,0,0,5.489,4.181Z" transform="translate(20.271 -154.633)" opacity="0.1"/>
    <path id="Path_488" data-name="Path 488" d="M815.082,547.8l-2.047,32.924-12.562,1.058a6.149,6.149,0,0,1-.855.369c-8.008,2.934-23.614-6.006-23.614-6.006l-39.976-27.71s-15.507-10.124-27.551-31.669,12.815-29.98,12.815-29.98c14.472-5.278,43.819,26.391,44.97,32.545s15.261,13.839,26.781,25.234a23.011,23.011,0,0,0,5.765,4.223,15.74,15.74,0,0,0,16.276-.988Z" transform="translate(20.272 -154.55)" fill="#a36468"/>
    <path id="Path_489" data-name="Path 489" d="M810.148,544.55,808.1,577.474l-12.562,1.058a6.125,6.125,0,0,1-.855.37l-.813-16s11.919-4.486,12.435-4.74-12.435-4.867-12.435-4.867v-7.655a15.739,15.739,0,0,0,16.278-1.088Z" transform="translate(25.205 -151.304)" opacity="0.1"/>
    <path id="Path_490" data-name="Path 490" d="M815.571,567.884c-5.119.19-8.951.2-8.951.2l5.68-22.675,3.252-.151C817.641,548.86,816.744,559.439,815.571,567.884Z" transform="translate(25.915 -151.265)" opacity="0.1"/>
    <path id="Path_491" data-name="Path 491" d="M794.84,553.32s12.942,4.613,12.435,4.867-12.435,4.74-12.435,4.74l.9,17.555,17.555-.961s6.408-31.965.9-35.174l-19.35-.9Z" transform="translate(25.26 -151.366)" fill="#67647e"/>
    <path id="Path_492" data-name="Path 492" d="M722.559,572.71s-4.359,4.1-7.949,5.183Z" transform="translate(20.796 -149.738)" opacity="0.1"/>
    <path id="Path_493" data-name="Path 493" d="M712.31,584.407s10.63-.391,11.908-2.569S712.31,584.407,712.31,584.407Z" transform="translate(20.668 -149.262)" opacity="0.1"/>
    <path id="Path_494" data-name="Path 494" d="M707.33,598.862c.644,0,13.448-1.8,13.966-3.463Z" transform="translate(20.391 -148.476)" opacity="0.1"/>
    <path id="Path_495" data-name="Path 495" d="M703.57,608.182c4.613-.137,12.425-5.137,12.425-5.137Z" transform="translate(20.181 -148.052)" opacity="0.1"/>
    <path id="Path_496" data-name="Path 496" d="M731.85,610.675s27.8,0,29.082-5.119S731.85,610.675,731.85,610.675Z" transform="translate(21.756 -147.99)" opacity="0.1"/>
    <path id="Path_497" data-name="Path 497" d="M751.63,542.675c.517,0,21.909,0,23.963-2.945S751.63,542.675,751.63,542.675Z" transform="translate(22.856 -151.619)" opacity="0.1"/>
    <path id="Path_498" data-name="Path 498" d="M730.819,463.129a20.488,20.488,0,0,1,.275,3.173,19.611,19.611,0,0,1-.318,3.515,30.435,30.435,0,0,1-1.984,6.408l-.222.517c-.317.739-.654,1.457-1,2.174a59.8,59.8,0,0,1-5.532,9.12,99.722,99.722,0,0,1-16.594,17.257q-1.615,1.36-3.262,2.692c0-.993.053-1.562.053-1.562s1.8-5.775,6.535-17.3c3.589-8.73,11.665-12.034,15.37-13.111l-1.911-1.626c1.932-7.886,5.362-11.824,8.1-13.723C730.492,461.44,730.692,462.264,730.819,463.129Z" transform="translate(20.104 -155.97)" opacity="0.1"/>
    <path id="Path_499" data-name="Path 499" d="M793.7,416.707a3.714,3.714,0,0,0-.929.369c-2.005,1.109-2.587,3.737-4.223,5.394-1.89,1.952-4.846,2.248-7.537,2.587s-5.7,1-7.126,3.315c-1.058,1.721-.961,3.885-1.34,5.869a1.869,1.869,0,0,1-.411.972,1.9,1.9,0,0,1-1.287.422c-5.278.37-9.12-1.446-14.061-2.72a7.511,7.511,0,0,0-6.8,1.058,7.733,7.733,0,0,0-2.005,5.974v.19a40.8,40.8,0,0,1,.19,6.334,10.451,10.451,0,0,1-5.521,7.738,9.765,9.765,0,0,1-3.99,1.141,3.23,3.23,0,0,1-1.583-.233c.94-1.6,1.837-3.173,2.661-4.761A31.783,31.783,0,1,1,793.66,416.7Z" transform="translate(21.927 -159.247)" opacity="0.1"/>
    <path id="Path_500" data-name="Path 500" d="M804.821,413.6a5.363,5.363,0,0,1-1.763,2.164c-2.407,1.562-5.858-.151-8.371,1.234-2.016,1.109-2.587,3.737-4.223,5.394-1.88,1.952-4.835,2.248-7.537,2.587s-5.69,1-7.126,3.315c-1.058,1.721-.951,3.874-1.34,5.869a1.784,1.784,0,0,1-.412.972,1.933,1.933,0,0,1-1.287.422c-5.278.37-9.12-1.457-14.061-2.72a7.494,7.494,0,0,0-6.787,1.058,7.356,7.356,0,0,0-2.014,5.973,46.272,46.272,0,0,1,.2,6.5,10.556,10.556,0,0,1-9.5,8.879,2.6,2.6,0,0,1-1.954-.5,2.8,2.8,0,0,1-.644-1.162c-3.515-9.88-3.483-20.852-7.748-30.434a34.4,34.4,0,0,1-1.784-4.223c-.085-.3-.169-.6-.233-.907a13.866,13.866,0,0,1-.254-1.848,2.639,2.639,0,0,0-1.209.5,2.231,2.231,0,0,0-.338.36,6.26,6.26,0,0,0-.887,3.347,126.678,126.678,0,0,0,3.8,39.237,41.013,41.013,0,0,1,1.827,9.849A26.319,26.319,0,0,1,728.64,479.9c-6.618,15.261-19.92,26.442-33.147,36.546a14.705,14.705,0,0,0,3.929-10.9,4.306,4.306,0,0,1-3.347,3,12.9,12.9,0,0,1-4.719-.074c2.026-.665,2.818-3.051,3.324-5.119q1.552-6.334,2.881-12.783a80.511,80.511,0,0,0,1.859-12.478c.151-3.568-.117-7.147-.265-10.728a217.118,217.118,0,0,1,1.058-29.4c.781-8.445,2.2-17.576,8.392-23.34a36.462,36.462,0,0,1,8.868-5.532c0-1.058,7.738-3.173,8.764-3.315a8.321,8.321,0,0,1,1.287-.151,2.65,2.65,0,0,1,2.755,1.446c.381-.686.8-1.36,1.245-2.005a23.392,23.392,0,0,1,2.007-2.523c4.022-4.433,9.237-7.555,13.892-11.316a35.742,35.742,0,0,1,5.532-4.08,19.909,19.909,0,0,1,8.286-2.115,33.623,33.623,0,0,1,13.987,2.2c6.419,2.47,12.023,6.9,18.664,8.7a44.39,44.39,0,0,1,4.846,1.34,11.739,11.739,0,0,1,6.122,16.278Z" transform="translate(19.5 -160.189)" fill="#444053"/>
    <g id="Group_30" data-name="Group 30" transform="translate(710.82 244.992)" opacity="0.1">
      <path id="Path_501" data-name="Path 501" d="M697.917,501.978a14.588,14.588,0,0,0,.961-6.228,4.327,4.327,0,0,1-3.357,3,6.858,6.858,0,0,1-1.224.18,5.3,5.3,0,0,1-2.977,3.842,12.911,12.911,0,0,0,4.719.085,5.28,5.28,0,0,0,1.88-.876Z" transform="translate(-691.32 -399.012)"/>
      <path id="Path_502" data-name="Path 502" d="M803.819,404.11a11.8,11.8,0,0,1-1.268,4.793,5.439,5.439,0,0,1-1.774,2.115c-2.4,1.562-5.858-.151-8.371,1.234-2.005,1.109-2.587,3.747-4.223,5.394-1.89,1.952-4.846,2.267-7.537,2.587s-5.7,1.058-7.126,3.315c-1.058,1.721-.961,3.885-1.34,5.869a1.478,1.478,0,0,1-1.7,1.4c-5.278.37-9.12-1.457-14.061-2.733a7.511,7.511,0,0,0-6.8,1.058,7.756,7.756,0,0,0-2.005,5.985,44.527,44.527,0,0,1,.19,6.5,10.492,10.492,0,0,1-9.5,8.889,2.627,2.627,0,0,1-1.952-.5,2.838,2.838,0,0,1-.644-1.171c-3.515-9.88-3.494-20.852-7.759-30.424a36.94,36.94,0,0,1-1.774-4.223,12.384,12.384,0,0,1-.5-2.755,2.323,2.323,0,0,0-1.541.855,6.486,6.486,0,0,0-.887,3.347,127.391,127.391,0,0,0,1.058,25.335,127.672,127.672,0,0,1-.517-21.261,6.259,6.259,0,0,1,.887-3.347,2.216,2.216,0,0,1,1.541-.855,12.49,12.49,0,0,0,.485,2.754,36.1,36.1,0,0,0,1.784,4.223c4.223,9.586,4.223,20.549,7.748,30.424a2.913,2.913,0,0,0,.654,1.171,2.555,2.555,0,0,0,1.942.58,10.556,10.556,0,0,0,9.5-8.879,46.253,46.253,0,0,0-.2-6.5,7.925,7.925,0,0,1,2.016-5.985,7.343,7.343,0,0,1,6.787-1.058c4.941,1.266,8.764,3.093,14.061,2.72a1.933,1.933,0,0,0,1.287-.422,1.826,1.826,0,0,0,.412-.982c.39-1.984.275-4.149,1.34-5.858,1.435-2.312,4.433-2.987,7.126-3.324s5.659-.622,7.555-2.569c1.594-1.662,2.164-4.285,4.223-5.4,2.5-1.383,5.964.339,8.371-1.224a5.363,5.363,0,0,0,1.75-2.183A11.973,11.973,0,0,0,803.819,404.11Z" transform="translate(-689.555 -404.11)"/>
      <path id="Path_503" data-name="Path 503" d="M730.453,461.624a26.389,26.389,0,0,1-2.523,10.439c-5.922,13.649-17.2,24.037-28.967,33.295a14.778,14.778,0,0,1-3.673,7.389c13.217-10.092,26.539-21.27,33.147-36.536a26.316,26.316,0,0,0,2.534-10.441,23.118,23.118,0,0,0-.538-4.592A4.35,4.35,0,0,1,730.453,461.624Z" transform="translate(-691.099 -400.936)"/>
    </g>
    <path id="Path_504" data-name="Path 504" d="M730.1,404c-.95,4.37-2.266,10.05-3.241,12.973a15.832,15.832,0,0,1-.254-1.848,2.609,2.609,0,0,0-1.192.5c0-3.072.37-7.643.686-11.064A2.661,2.661,0,0,1,728.861,406,18.307,18.307,0,0,1,730.1,404Z" transform="translate(21.398 -159.124)" opacity="0.1"/>
    <path id="Path_505" data-name="Path 505" d="M729.62,404c-.95,4.37-2.266,10.05-3.241,12.973a13.856,13.856,0,0,1-.254-1.848,2.639,2.639,0,0,0-1.209.5c0-3.072.37-7.643.7-11.064A2.651,2.651,0,0,1,728.367,406C728.754,405.33,729.228,404.654,729.62,404Z" transform="translate(21.367 -159.124)" fill="#67647e"/>
    <g id="Group_31" data-name="Group 31" transform="translate(958.04 -0.03)" opacity="0.7">
      <path id="Path_506" data-name="Path 506" d="M933,179.57h174.887v170.1H933Z" transform="translate(-925.093 -171.578)" fill="#2e001e"/>
      <path id="Path_507" data-name="Path 507" d="M925.51,172V358.045h190.784V172Zm7.949,7.96h174.887V350.1H933.417Z" transform="translate(-925.51 -172)" fill="#ff2bc2"/>
      <path id="Path_508" data-name="Path 508" d="M1062.157,247.855a10.861,10.861,0,0,0-4.613-.8c-10.007,0-16.689,7.717-16.689,20.512,0,14.631,6.84,20.51,15.74,20.51a14.84,14.84,0,0,0,5.489-.876V247.855Zm-35.638,20.353c0-18.526,11.919-33,31.479-33a33.053,33.053,0,0,1,4.128.169V214.707a.8.8,0,0,1,.8-.8h12.794c.633,0,.792.243.792.644V287.2a56.02,56.02,0,0,0,.4,7.791c0,.559,0,.644-.474.876a47.43,47.43,0,0,1-20.353,4.613c-17.249,0-29.558-10.651-29.558-32.27Zm-27.1-12.887,22.284,43.133c.4.633.151,1.266-.474,1.266H1007.4a1.552,1.552,0,0,1-1.662-1.058q-7.632-15.74-15.581-32.672H990c-4.772,10.651-10.018,22.263-15.11,32.725a1.531,1.531,0,0,1-1.435.876h-13.2c-.792,0-.866-.644-.474-1.12l21.778-41.888-21.06-41.528a.707.707,0,0,1,.559-1.192h13.665c.792,0,1.192.151,1.425.876,5.015,10.556,10.1,20.986,14.874,31.669h.151c4.6-10.492,9.69-21.113,14.546-31.478.39-.644.633-1.058,1.425-1.058h12.8c.633,0,.866.474.474,1.192L999.45,255.381Z" transform="translate(-923.613 -169.675)" fill="#ff2bc2"/>
    </g>
    <g id="Group_32" data-name="Group 32" transform="translate(200.37 11.635)" opacity="0.7">
      <path id="Path_509" data-name="Path 509" d="M248.461,244.46l59.77,116.975L207.77,244.46Z" transform="translate(-207.77 -179.634)" fill="#ea6c00"/>
      <path id="Path_510" data-name="Path 510" d="M362.715,244.46,302.94,361.435,403.394,244.46Z" transform="translate(-202.476 -179.634)" fill="#ea6c00"/>
      <path id="Path_511" data-name="Path 511" d="M246.31,244.46H365.84L306.08,361.435Z" transform="translate(-205.627 -179.634)" fill="#fdad00"/>
      <path id="Path_512" data-name="Path 512" d="M306.083,183.05l-56.624,5.985-3.173,58.841Z" transform="translate(-205.63 -183.05)" fill="#fdd231"/>
      <path id="Path_513" data-name="Path 513" d="M302.93,183.05l56.614,5.985,3.173,58.841Z" transform="translate(-202.476 -183.05)" fill="#fdd231"/>
      <path id="Path_514" data-name="Path 514" d="M400.409,247.561,356.58,188.72l3.173,58.841Z" transform="translate(-199.491 -182.735)" fill="#fdad00"/>
      <path id="Path_515" data-name="Path 515" d="M207.77,247.561,251.6,188.72l-3.173,58.841Z" transform="translate(-207.77 -182.735)" fill="#fdad00"/>
      <path id="Path_516" data-name="Path 516" d="M306.08,183.05l-59.77,64.822H365.84Z" transform="translate(-205.627 -183.05)" fill="#feeeb7"/>
    </g>
  </g>
</svg>
