<svg xmlns="http://www.w3.org/2000/svg" width="1161" height="618.943" viewBox="0 0 1161 618.943">
  <g id="sup1" transform="translate(-976.384 -687.876)">
    <path id="Path_127" data-name="Path 127" d="M422.277,245.452c21.33-9.034,48.068-8.04,65.519,7.192a106.726,106.726,0,0,0-63.428,36.684c-6.2,7.478-12.321,16.442-21.857,18.295-5.934,1.154-12.132-.832-17.2-4.125s-9.189-7.826-13.259-12.3l-1.414-.524C384.283,271.953,400.947,254.49,422.277,245.452Z" transform="translate(879.969 448.189)" fill="#f0f0f0"/>
    <path id="Path_128" data-name="Path 128" d="M487.368,249.691a91.221,91.221,0,0,0-55.8,6.071,39.286,39.286,0,0,0-10.423,6.544,22.531,22.531,0,0,0-6.241,10.083c-1.137,3.576-1.887,7.366-3.875,10.608a13.8,13.8,0,0,1-9.411,6.222c-4.76.911-9.563.055-14.232-.944-5.183-1.109-10.549-2.344-15.817-1.043-.638.158-.846-.843-.208-1,9.167-2.263,18.031,2.777,27.2,2.323,4.272-.212,8.521-1.715,11.085-5.32,2.241-3.151,3.017-7.058,4.138-10.689a24.042,24.042,0,0,1,5.735-10.086,36.315,36.315,0,0,1,10.135-6.924,88.5,88.5,0,0,1,26.519-7.869,92.838,92.838,0,0,1,31.516,1.058c.642.133.312,1.1-.324.968Z" transform="translate(880.079 451.554)" fill="#fff"/>
    <path id="Path_129" data-name="Path 129" d="M416.01,256.164a13.687,13.687,0,0,1,7.2-16.2c.589-.283,1.061.625.467.909a12.67,12.67,0,0,0-6.662,15.079c.189.629-.812.834-1,.208Z" transform="translate(897.701 448.297)" fill="#fff"/>
    <path id="Path_130" data-name="Path 130" d="M401.283,262.909a26.372,26.372,0,0,0,19.049,2.592c.639-.155.846.844.208,1a27.438,27.438,0,0,1-19.817-2.737C400.15,263.441,400.711,262.589,401.283,262.909Z" transform="translate(892.492 459.146)" fill="#fff"/>
    <path id="Path_131" data-name="Path 131" d="M436.006,247.42a7.747,7.747,0,0,0,4,6.169c.578.314.015,1.167-.56.855A8.682,8.682,0,0,1,435,247.628a.527.527,0,0,1,.4-.6.513.513,0,0,1,.607.4Z" transform="translate(904.127 451.656)" fill="#fff"/>
    <path id="Path_132" data-name="Path 132" d="M486.146,317.08c-.367-.186-.737-.373-1.106-.554a102.029,102.029,0,0,0-15.347-6.188c-.405-.134-.819-.264-1.227-.385a107.555,107.555,0,0,0-39.376-4.218,104.459,104.459,0,0,0-15.679,2.457c-7.12,1.68-14.709,4.068-21.76,3.318a17.892,17.892,0,0,1-2.191-.346l-18.908-32.684c0-.1-.019-.187-.025-.284l-.815-1.271c.262-.081.535-.161.8-.242.147-.047.308-.088.458-.136.1-.029.2-.059.295-.091l.094-.025c.091-.032.178-.053.262-.081q2.288-.666,4.592-1.3h.019a153.579,153.579,0,0,1,35.843-5.8c.362-.01.737-.025,1.1-.021a99.667,99.667,0,0,1,16.237.952,88.136,88.136,0,0,1,8.748,1.719,73.273,73.273,0,0,1,21.068,9c12.965,8.146,23.2,20.349,26.666,35.064C485.981,316.332,486.065,316.7,486.146,317.08Z" transform="translate(879.705 462.157)" fill="#f0f0f0"/>
    <path id="Path_133" data-name="Path 133" d="M485.485,314.894a91.222,91.222,0,0,0-48.205-28.745,39.287,39.287,0,0,0-12.263-1.05,22.531,22.531,0,0,0-11.049,4.293c-3.061,2.17-5.942,4.744-9.476,6.132a13.8,13.8,0,0,1-11.26-.7c-4.349-2.139-7.67-5.713-10.795-9.323-3.471-4.006-7.011-8.222-12-10.356-.6-.258-.168-1.179.442-.924,8.682,3.711,12.725,13.074,20.322,18.233,3.545,2.407,7.836,3.761,12.053,2.426,3.683-1.167,6.659-3.819,9.74-6.04a24.042,24.042,0,0,1,10.652-4.6,36.314,36.314,0,0,1,12.259.575,88.5,88.5,0,0,1,25.91,9.682,92.837,92.837,0,0,1,24.527,19.82c.432.492-.413,1.067-.843.578Z" transform="translate(879.845 464.513)" fill="#fff"/>
    <path id="Path_134" data-name="Path 134" d="M419.865,285.848a13.687,13.687,0,0,1,15.5-8.6c.644.131.47,1.137-.174,1.006a12.67,12.67,0,0,0-14.4,8.029c-.228.616-1.151.177-.924-.442Z" transform="translate(898.87 465.839)" fill="#fff"/>
    <path id="Path_135" data-name="Path 135" d="M401.167,283.72a26.379,26.379,0,0,0,13.65,13.538c.6.261.168,1.179-.442.924A27.438,27.438,0,0,1,400.2,284.064c-.265-.6.7-.944.961-.345Z" transform="translate(892.556 468.88)" fill="#fff"/>
    <path id="Path_136" data-name="Path 136" d="M438.617,292.263a7.748,7.748,0,0,0-.522,7.332c.273.6-.691.94-.961.345a8.681,8.681,0,0,1,.56-8.113.527.527,0,0,1,.679-.244.513.513,0,0,1,.245.679Z" transform="translate(904.678 472.729)" fill="#fff"/>
    <path id="Path_137" data-name="Path 137" d="M859.382,429.84H842.645l-7.956-64.564h24.7Z" transform="translate(1141.017 857.812)" fill="#a0616a"/>
    <path id="Path_138" data-name="Path 138" d="M973.186,666.767H919.213v-.682a21.009,21.009,0,0,1,21-21.007h32.969Z" transform="translate(1031.483 637.102)" fill="#2f2e41"/>
    <path id="Path_139" data-name="Path 139" d="M950.865,424.684l-16.551,2.5-17.532-62.648,21.7-3.692Z" transform="translate(1179.869 855.717)" fill="#a0616a"/>
    <path id="Path_140" data-name="Path 140" d="M1063.183,661.214l-53.366,8.066-.1-.675a21.009,21.009,0,0,1,17.632-23.911h0l32.595-4.927Z" transform="translate(1074.201 634.589)" fill="#2f2e41"/>
    <path id="Path_141" data-name="Path 141" d="M878.009,820.469H377.849V320.309h500.16Z" transform="translate(864.497 486.345)" fill="#fff"/>
    <path id="Path_142" data-name="Path 142" d="M878.009,820.469H377.849V320.309h500.16Zm-492.77-7.39h485.38V327.7H385.239Z" transform="translate(864.497 486.345)" fill="#f0f0f0"/>
    <rect id="Rectangle_1522" data-name="Rectangle 1522" width="320.768" height="11.324" transform="translate(1341.879 1021.666)" fill="#44bba4"/>
    <rect id="Rectangle_1523" data-name="Rectangle 1523" width="320.768" height="11.324" transform="translate(1341.879 1051.109)" fill="#44bba4"/>
    <rect id="Rectangle_1524" data-name="Rectangle 1524" width="320.768" height="11.324" transform="translate(1341.879 1080.548)" fill="#44bba4"/>
    <circle id="Ellipse_21" data-name="Ellipse 21" cx="7.39" cy="7.39" r="7.39" transform="translate(1331.679 1021.598)" fill="#44bba4"/>
    <rect id="Rectangle_1525" data-name="Rectangle 1525" width="320.768" height="11.324" transform="translate(1341.879 894.808)" fill="#f0f0f0"/>
    <rect id="Rectangle_1526" data-name="Rectangle 1526" width="320.768" height="11.324" transform="translate(1341.879 924.249)" fill="#f0f0f0"/>
    <rect id="Rectangle_1527" data-name="Rectangle 1527" width="320.768" height="11.324" transform="translate(1341.879 953.693)" fill="#f0f0f0"/>
    <circle id="Ellipse_22" data-name="Ellipse 22" cx="7.39" cy="7.39" r="7.39" transform="translate(1331.679 893.507)" fill="#f0f0f0"/>
    <rect id="Rectangle_1528" data-name="Rectangle 1528" width="320.768" height="11.324" transform="translate(1341.879 1149.76)" fill="#f0f0f0"/>
    <rect id="Rectangle_1529" data-name="Rectangle 1529" width="320.768" height="11.324" transform="translate(1341.879 1179.199)" fill="#f0f0f0"/>
    <rect id="Rectangle_1530" data-name="Rectangle 1530" width="320.768" height="11.324" transform="translate(1341.879 1208.64)" fill="#f0f0f0"/>
    <circle id="Ellipse_23" data-name="Ellipse 23" cx="7.39" cy="7.39" r="7.39" transform="translate(1331.679 1148.46)" fill="#e5e5e5"/>
    <path id="Path_143" data-name="Path 143" d="M995.6,605.623H704.582c-4.359-.012-7.894-7.238-7.9-16.162v-216.5c0-8.922,3.536-16.147,7.9-16.162H995.6c4.359.012,7.894,7.238,7.9,16.162v216.5C1003.495,598.38,999.955,605.611,995.6,605.623Z" transform="translate(965.658 503.612)" fill="#fff"/>
    <path id="Path_144" data-name="Path 144" d="M995.6,605.623H704.582c-4.359-.012-7.894-7.238-7.9-16.162v-216.5c0-8.922,3.536-16.147,7.9-16.162H995.6c4.359.012,7.894,7.238,7.9,16.162v216.5C1003.495,598.38,999.955,605.611,995.6,605.623ZM704.582,363.261c-2.616,0-4.737,4.345-4.741,9.7v216.5c0,5.352,2.123,9.693,4.741,9.7H995.6c2.617,0,4.737-4.343,4.741-9.7v-216.5c0-5.352-2.123-9.693-4.741-9.7Z" transform="translate(965.658 503.612)" fill="#e6e6e6"/>
    <rect id="Rectangle_1531" data-name="Rectangle 1531" width="78.335" height="5.887" transform="translate(1783.015 1036.941)" fill="#44bba4"/>
    <rect id="Rectangle_1532" data-name="Rectangle 1532" width="98.585" height="5.887" transform="translate(1772.104 1052.239)" fill="#44bba4"/>
    <path id="Path_145" data-name="Path 145" d="M868.395,442.633a51.168,51.168,0,0,1-75.4,45.045l-.01-.01a51.152,51.152,0,1,1,75.412-45.036Z" transform="translate(1004.173 520.026)" fill="#cacaca"/>
    <circle id="Ellipse_24" data-name="Ellipse 24" cx="13.905" cy="13.905" r="13.905" transform="translate(1809.411 932.376)" fill="#fff"/>
    <path id="Path_146" data-name="Path 146" d="M832.521,450.649a71.667,71.667,0,0,1-47.995-.186h-.01l10.358-20.447h27.809Z" transform="translate(1014.126 538.265)" fill="#fff"/>
    <path id="Path_147" data-name="Path 147" d="M560.144,369.3H778.505V273.559h-3.36v92.384h-215Z" transform="translate(1064.657 817.349)" fill="#3f3d56"/>
    <circle id="Ellipse_25" data-name="Ellipse 25" cx="18.476" cy="18.476" r="18.476" transform="translate(1814.852 1087.944)" fill="#3f3d56"/>
    <path id="Path_148" data-name="Path 148" d="M483.6,515.623H192.582c-4.359-.012-7.894-7.238-7.9-16.162v-216.5c0-8.922,3.536-16.147,7.9-16.162H483.6c4.359.012,7.894,7.238,7.9,16.162v216.5C491.5,508.38,487.955,515.611,483.6,515.623Z" transform="translate(835.602 461.019)" fill="#fff"/>
    <path id="Path_149" data-name="Path 149" d="M483.6,515.623H192.582c-4.359-.012-7.894-7.238-7.9-16.162v-216.5c0-8.922,3.536-16.147,7.9-16.162H483.6c4.359.012,7.894,7.238,7.9,16.162v216.5C491.5,508.38,487.955,515.611,483.6,515.623ZM192.582,273.261c-2.617,0-4.737,4.345-4.741,9.7v216.5c0,5.352,2.123,9.693,4.741,9.7H483.6c2.617,0,4.737-4.343,4.741-9.7v-216.5c0-5.352-2.123-9.693-4.741-9.7Z" transform="translate(835.602 461.019)" fill="#e6e6e6"/>
    <path id="Path_150" data-name="Path 150" d="M348.613,319.965a72.115,72.115,0,0,0-49.649-22.615v72.265Z" transform="translate(859.194 475.479)" fill="#3f3d56"/>
    <path id="Path_151" data-name="Path 151" d="M348.613,318.813l-49.649,49.649h69.391a72.076,72.076,0,0,0-19.742-49.649Z" transform="translate(858.764 485.637)" fill="#e4e4e4"/>
    <path id="Path_152" data-name="Path 152" d="M368.425,356.038a72.517,72.517,0,0,1-1.245,13.426q-.1.526-.2,1.045a71.748,71.748,0,0,1-8.371,21.935c-.211.365-.429.737-.648,1.087h0a72.552,72.552,0,0,1-14.523,17.183c-.283.247-.566.491-.852.737a72.013,72.013,0,0,1-43.62,16.856V356.038Z" transform="translate(858.762 503.254)" fill="#f0f0f0"/>
    <path id="Path_153" data-name="Path 153" d="M310.163,428.365c.961,0,1.915-.025,2.867-.062V356.037l-52.559,52.556a72.077,72.077,0,0,0,49.692,19.773Z" transform="translate(871.471 503.253)" fill="#cacaca"/>
    <path id="Path_154" data-name="Path 154" d="M317.5,303.419a72.328,72.328,0,0,0-72.328,72.328h75.27V303.484C319.466,303.446,318.485,303.419,317.5,303.419Z" transform="translate(864.23 478.351)" fill="#44bba4"/>
    <path id="Path_155" data-name="Path 155" d="M306.709,356.038,291.5,371.245l-.5.5-.01.01-13.259,13.259-.5.5L262.9,399.845l-.5.5h0l-8.25,8.241a72.121,72.121,0,0,1-22.641-52.553Z" transform="translate(857.763 503.253)" fill="#44bba4"/>
    <path id="Path_156" data-name="Path 156" d="M417.057,281.3H198.7V185.559h3.359v92.384h215Z" transform="translate(956.948 775.702)" fill="#3f3d56"/>
    <circle id="Ellipse_26" data-name="Ellipse 26" cx="18.476" cy="18.476" r="18.476" transform="translate(1173.673 958.297)" fill="#3f3d56"/>
    <path id="Path_157" data-name="Path 157" d="M1013.439,431.608l-18.585,4.869,1.236,30.133.147,54.861a11,11,0,1,0,14.552,1.828l5.712-55.062Z" transform="translate(1065.692 536.075)" fill="#a0616a"/>
    <path id="Path_158" data-name="Path 158" d="M1019.936,465.544,992.771,456.4l-.063-.41c-.04-.258-4.025-25.987-3.978-43.638a13.524,13.524,0,0,1,4.508-10.46,14.185,14.185,0,0,1,15.354-2.469,15.175,15.175,0,0,1,9.379,13.492Z" transform="translate(1064.38 520.257)" fill="#e4e4e4"/>
    <path id="Path_159" data-name="Path 159" d="M995.348,445.647,953.8,434.892,934.59,499.58l-.682,240.98,31.774-.2,13.282-195.044,84.651,180.223,34.132-4.1-74.41-193.195s4.1-34.133-8.875-51.2l2.73-17.75Z" transform="translate(1038.438 537.629)" fill="#2f2e41"/>
    <path id="Path_160" data-name="Path 160" d="M1012.8,489.831l-3.144-.049L945.8,464.264l30.548-68.037,14.5,2.636-2.64-10.562,32.047-7.833,5.576,22.3,8.228,7.478a14.466,14.466,0,0,1,3.99,15.267l-18.956,56.859a6.39,6.39,0,0,1-6.3,7.461Z" transform="translate(1044.066 511.872)" fill="#e4e4e4"/>
    <path id="Path_161" data-name="Path 161" d="M986.707,423.118l-16.8-9.324-19.929,22.634-37.8,39.759a10.995,10.995,0,1,0,9.254,11.376l42.172-35.85Z" transform="translate(1022.133 527.644)" fill="#a0616a"/>
    <path id="Path_162" data-name="Path 162" d="M957.009,452.16,943.7,426.776l.237-.34c.147-.214,15.05-21.566,27.282-34.29A13.525,13.525,0,0,1,981.7,387.7a14.192,14.192,0,0,1,12.8,8.825,15.174,15.174,0,0,1-2.544,16.232Z" transform="translate(1043.07 515.291)" fill="#e4e4e4"/>
    <circle id="Ellipse_27" data-name="Ellipse 27" cx="25.462" cy="25.462" r="25.462" transform="translate(2015.147 837.266)" fill="#a0616a"/>
    <path id="Path_163" data-name="Path 163" d="M959.446,356.465c4.281-7.661,5.92-10.867,11.441-15.528,4.883-4.125,10.887-5.333,15.73-1.428a29.171,29.171,0,1,1-17.3,23.345C965.1,362.264,963.651,357.056,959.446,356.465Z" transform="translate(1050.524 491.334)" fill="#2f2e41"/>
    <path id="Path_164" data-name="Path 164" d="M199.793,546.046a9.566,9.566,0,0,0,2.278-14.49L214.5,406.821,193.746,408.2,188,531.025a9.617,9.617,0,0,0,11.8,15.027Z" transform="translate(835.828 527.287)" fill="#ffb8b8"/>
    <path id="Path_165" data-name="Path 165" d="M185.279,411.88l5.442,41.357-.756,25.348,22.828,2.091,4.574-21.082,2.521-55.813a16.655,16.655,0,0,0-14.715-17.3h0a16.655,16.655,0,0,0-18.435,14.367Z" transform="translate(835.885 517.609)" fill="#2f2e41"/>
    <path id="Path_166" data-name="Path 166" d="M143.12,428.158h13.849l6.587-53.412H143.117Z" transform="translate(965.467 865.237)" fill="#ffb7b7"/>
    <path id="Path_167" data-name="Path 167" d="M242.221,647.62h27.272A17.384,17.384,0,0,1,286.877,665v.566H242.222Z" transform="translate(862.833 641.249)" fill="#2f2e41"/>
    <path id="Path_168" data-name="Path 168" d="M65.509,428.158H79.358l6.587-53.412H65.506Z" transform="translate(928.737 865.237)" fill="#ffb7b7"/>
    <path id="Path_169" data-name="Path 169" d="M164.61,647.62h27.272A17.384,17.384,0,0,1,209.266,665v.566H164.611Z" transform="translate(826.103 641.249)" fill="#2f2e41"/>
    <circle id="Ellipse_28" data-name="Ellipse 28" cx="30.022" cy="30.022" r="30.022" transform="translate(1018.071 824.393)" fill="#ffb8b8"/>
    <path id="Path_170" data-name="Path 170" d="M230.473,381.378l-20.835,2.381h0a55.443,55.443,0,0,0-7.089,50.064L218.27,479.3s-21.823,43.756-21.823,84.371-41.562,185.611-41.562,185.611l58.5,6.1,25.526-154.46,35.183,153.841,40.158-6.537-22.118-201.69L277.52,480.154,276.9,447.78s6.214-24.293-9.339-39.846l-18.989-26.46Z" transform="translate(821.5 515.246)" fill="#2f2e41"/>
    <path id="Path_171" data-name="Path 171" d="M349.455,482.066a10.481,10.481,0,0,0-12.722-9.819L223.44,394.606l-9.609,20.667L328.81,485.5a10.537,10.537,0,0,0,20.645-3.424Z" transform="translate(849.397 521.507)" fill="#ffb8b8"/>
    <path id="Path_172" data-name="Path 172" d="M212.467,424.886l42.6,16.554,23.955,14.076,14.031-20.832-17.846-15.5-52.3-31.823a18.249,18.249,0,0,0-24.368,5.03h0a18.249,18.249,0,0,0,4.088,25.275Z" transform="translate(840.568 516.819)" fill="#2f2e41"/>
    <path id="Path_173" data-name="Path 173" d="M241.485,352.974H197.367V333.749c9.684-3.847,19.152-7.119,24.886,0a19.23,19.23,0,0,1,19.23,19.23Z" transform="translate(841.606 490.718)" fill="#2f2e41"/>
    <path id="Path_174" data-name="Path 174" d="M213.553,331.092c-26.371.116-33.757,33.059-33.757,51.712,0,10.4,4.7,14.121,12.1,15.379l2.611-13.922,6.114,14.52c2.076.01,4.258-.029,6.519-.072l2.073-4.272,4.623,4.191c18.515.028,45.419-1.621,33.478-15.83C231.313,363.772,236.542,330.99,213.553,331.092Z" transform="translate(833.29 491.448)" fill="#2f2e41"/>
    <path id="Path_175" data-name="Path 175" d="M1034.359,433.494a30.93,30.93,0,0,1-.51-13.522c1.23-8.672,4-17.035,6.529-25.42s4.851-16.934,5.145-25.686-1.606-17.827-6.824-24.86-14.118-11.639-22.775-10.313c-8.272,1.264-15.5,8.725-15.539,17-1.481,2.68.432,6.335,3.156,7.928,2.857,1.666,6.3,1.889,9.47,2.836a23.742,23.742,0,0,1,14.227,12.592,30.694,30.694,0,0,1,2.063,19.119c-1.248,6.23-4.125,12-6.27,17.974s-3.59,12.542-1.862,18.656a19.648,19.648,0,0,0,22.019,13.417,14.505,14.505,0,0,1-8.828-9.724Z" transform="translate(1069.655 489.628)" fill="#2f2e41"/>
    <path id="Path_176" data-name="Path 176" d="M884.911,628.757c-2.858-22.983-17.1-45.636-39.027-53.117a106.727,106.727,0,0,1,0,73.274c-3.369,9.112-8.064,18.9-4.9,28.08,1.971,5.715,6.795,10.086,12.185,12.818s11.375,4.037,17.284,5.314l1.162.962C880.995,674.91,887.763,651.749,884.911,628.757Z" transform="translate(1031.996 607.183)" fill="#f0f0f0"/>
    <path id="Path_177" data-name="Path 177" d="M843.868,576.233a91.223,91.223,0,0,1,22.678,51.339,39.284,39.284,0,0,1-.442,12.3,22.53,22.53,0,0,1-5.6,10.45c-2.525,2.776-5.43,5.321-7.238,8.661a13.8,13.8,0,0,0-.673,11.262c1.6,4.576,4.741,8.306,7.942,11.847,3.555,3.931,7.31,7.956,8.822,13.171.183.632,1.152.311.969-.32-2.63-9.068-11.432-14.219-15.63-22.386-1.959-3.811-2.781-8.236-.944-12.259,1.606-3.518,4.6-6.146,7.181-8.934a24.042,24.042,0,0,0,5.859-10.018,36.323,36.323,0,0,0,.918-12.237,88.5,88.5,0,0,0-6.463-26.894,92.838,92.838,0,0,0-16.694-26.753c-.442-.489-1.109.28-.676.766Z" transform="translate(1034.718 607.025)" fill="#fff"/>
    <path id="Path_178" data-name="Path 178" d="M859.248,611.344a13.687,13.687,0,0,0,10.417-14.336c-.051-.654-1.073-.6-1.019.051a12.67,12.67,0,0,1-9.724,13.317c-.639.148-.315,1.12.32.97Z" transform="translate(1040.706 617.075)" fill="#fff"/>
    <path id="Path_179" data-name="Path 179" d="M860.212,630.374a26.378,26.378,0,0,1-11.786-15.192c-.185-.631-1.155-.31-.969.32a27.44,27.44,0,0,0,12.3,15.78c.566.336,1.022-.577.46-.912Z" transform="translate(1036.962 625.735)" fill="#fff"/>
    <path id="Path_180" data-name="Path 180" d="M854.846,587.72a7.746,7.746,0,0,1-7.341-.373c-.561-.343-1.016.572-.459.912a8.68,8.68,0,0,0,8.121.43.527.527,0,0,0,.324-.645.513.513,0,0,0-.645-.324Z" transform="translate(1037.086 612.688)" fill="#fff"/>
    <path id="Path_181" data-name="Path 181" d="M798.616,604.293c.345.224.69.442,1.031.681a102.04,102.04,0,0,1,13.044,10.185c.318.284.638.577.947.871A107.559,107.559,0,0,1,837,648a104.455,104.455,0,0,1,5.721,14.8c2.111,7.005,3.842,14.768,8.022,20.5a17.916,17.916,0,0,0,1.4,1.724H889.9c.085-.043.172-.078.258-.121l1.507.069c-.06-.267-.13-.542-.19-.81-.034-.155-.078-.311-.112-.466-.025-.1-.051-.206-.069-.295-.009-.034-.018-.069-.025-.094-.018-.094-.043-.181-.06-.267q-.569-2.313-1.179-4.628c0-.009,0-.009-.009-.018A153.588,153.588,0,0,0,877.1,644.466c-.172-.318-.345-.647-.535-.965a99.71,99.71,0,0,0-8.953-13.579,88.114,88.114,0,0,0-5.868-6.712,73.276,73.276,0,0,0-18.336-13.735c-13.545-7.151-29.227-9.891-43.7-5.523C799.348,604.06,798.986,604.172,798.616,604.293Z" transform="translate(1015.103 619.589)" fill="#f0f0f0"/>
    <path id="Path_182" data-name="Path 182" d="M798.815,604.165A91.222,91.222,0,0,1,847.831,631.5a39.281,39.281,0,0,1,7.048,10.09A22.542,22.542,0,0,1,856.7,653.31c-.346,3.736-1.133,7.514-.564,11.273a13.8,13.8,0,0,0,6.242,9.4c4.029,2.693,8.785,3.779,13.474,4.678,5.205,1,10.628,1.953,14.973,5.205.526.393,1.106-.442.582-.84-7.559-5.657-17.688-4.47-25.957-8.464-3.859-1.864-7.179-4.9-8.135-9.22-.835-3.776-.028-7.676.355-11.456a24.038,24.038,0,0,0-1.349-11.524,36.315,36.315,0,0,0-6.63-10.323,88.5,88.5,0,0,0-21.353-17.582,92.839,92.839,0,0,0-29.436-11.31c-.642-.128-.718.891-.078,1.018Z" transform="translate(1015.014 620.195)" fill="#fff"/>
    <path id="Path_183" data-name="Path 183" d="M829.665,624.9a13.686,13.686,0,0,0-.314-17.719c-.442-.492-1.22.162-.784.654a12.67,12.67,0,0,1,.258,16.483C828.407,624.822,829.248,625.412,829.665,624.9Z" transform="translate(1031.482 622.029)" fill="#fff"/>
    <path id="Path_184" data-name="Path 184" d="M844.464,637.573a26.379,26.379,0,0,1-18.553-5.039c-.527-.392-1.108.442-.582.84a27.438,27.438,0,0,0,19.316,5.2C845.3,638.5,845.115,637.5,844.464,637.573Z" transform="translate(1029.243 634.061)" fill="#fff"/>
    <path id="Path_185" data-name="Path 185" d="M814.5,608.12a7.746,7.746,0,0,1-6.086,4.125c-.654.065-.469,1.068.183,1a8.681,8.681,0,0,0,6.743-4.545.527.527,0,0,0-.129-.71.513.513,0,0,0-.71.13Z" transform="translate(1024.647 622.453)" fill="#fff"/>
    <path id="Path_186" data-name="Path 186" d="M293.807,628.757c2.858-22.983,17.1-45.636,39.027-53.117a106.726,106.726,0,0,0,0,73.274c3.369,9.112,8.065,18.9,4.9,28.08-1.971,5.715-6.795,10.086-12.185,12.818s-11.375,4.037-17.284,5.314l-1.162.962C297.722,674.91,290.947,651.749,293.807,628.757Z" transform="translate(857.421 607.183)" fill="#f0f0f0"/>
    <path id="Path_187" data-name="Path 187" d="M328.739,576.233a91.222,91.222,0,0,0-22.678,51.34,39.284,39.284,0,0,0,.442,12.3,22.53,22.53,0,0,0,5.6,10.45c2.525,2.776,5.43,5.321,7.238,8.661a13.8,13.8,0,0,1,.673,11.262c-1.6,4.576-4.739,8.306-7.942,11.847-3.555,3.931-7.31,7.956-8.822,13.171-.183.632-1.152.311-.969-.32,2.63-9.068,11.433-14.219,15.63-22.386,1.959-3.811,2.782-8.236.944-12.259-1.606-3.518-4.6-6.146-7.181-8.934a24.041,24.041,0,0,1-5.859-10.018,36.314,36.314,0,0,1-.918-12.237,88.5,88.5,0,0,1,6.463-26.894,92.839,92.839,0,0,1,16.694-26.753c.442-.489,1.109.28.676.766Z" transform="translate(891.246 607.025)" fill="#fff"/>
    <path id="Path_188" data-name="Path 188" d="M308.385,611.344a13.687,13.687,0,0,1-10.417-14.336c.052-.654,1.072-.6,1.019.051a12.67,12.67,0,0,0,9.724,13.317C309.344,610.526,309.02,611.5,308.385,611.344Z" transform="translate(889.198 617.075)" fill="#fff"/>
    <path id="Path_189" data-name="Path 189" d="M308.034,630.374a26.379,26.379,0,0,0,11.786-15.192c.186-.631,1.155-.31.969.32a27.439,27.439,0,0,1-12.3,15.78c-.566.336-1.022-.578-.46-.912Z" transform="translate(893.859 625.735)" fill="#fff"/>
    <path id="Path_190" data-name="Path 190" d="M312.014,587.72a7.746,7.746,0,0,0,7.341-.373c.561-.343,1.017.572.46.912a8.681,8.681,0,0,1-8.121.43.527.527,0,0,1-.324-.645.513.513,0,0,1,.645-.324Z" transform="translate(895.549 612.688)" fill="#fff"/>
    <path id="Path_191" data-name="Path 191" d="M395.334,604.3c-.345.224-.689.442-1.031.681a102.036,102.036,0,0,0-13.044,10.185c-.318.284-.638.578-.947.871A107.559,107.559,0,0,0,356.952,648a104.445,104.445,0,0,0-5.722,14.8c-2.111,7.005-3.842,14.768-8.022,20.5a17.909,17.909,0,0,1-1.4,1.724H304.043c-.085-.043-.172-.078-.258-.121l-1.507.069c.06-.267.13-.542.19-.81.034-.155.078-.311.112-.466.025-.1.052-.206.069-.295.009-.034.018-.069.025-.094.018-.094.043-.181.06-.267q.569-2.313,1.179-4.628c0-.009,0-.009.009-.018a153.581,153.581,0,0,1,12.925-33.932c.172-.318.345-.647.535-.965a99.67,99.67,0,0,1,8.943-13.585,88.106,88.106,0,0,1,5.868-6.712,73.271,73.271,0,0,1,18.335-13.735c13.545-7.151,29.227-9.891,43.7-5.523C394.6,604.063,394.964,604.175,395.334,604.3Z" transform="translate(859.272 619.586)" fill="#f0f0f0"/>
    <path id="Path_192" data-name="Path 192" d="M395.193,604.165A91.22,91.22,0,0,0,346.176,631.5a39.285,39.285,0,0,0-7.048,10.09,22.53,22.53,0,0,0-1.818,11.717c.346,3.736,1.133,7.513.564,11.273a13.8,13.8,0,0,1-6.242,9.4c-4.029,2.693-8.785,3.779-13.474,4.678-5.205,1-10.628,1.953-14.973,5.205-.526.393-1.106-.442-.582-.84,7.559-5.657,17.688-4.47,25.957-8.464,3.858-1.864,7.179-4.9,8.135-9.22.835-3.776.028-7.676-.355-11.456a24.041,24.041,0,0,1,1.35-11.524,36.318,36.318,0,0,1,6.63-10.323,88.5,88.5,0,0,1,21.353-17.582,92.841,92.841,0,0,1,29.436-11.31c.642-.127.717.891.078,1.018Z" transform="translate(859.304 620.196)" fill="#fff"/>
    <path id="Path_193" data-name="Path 193" d="M335.783,624.9a13.687,13.687,0,0,1,.314-17.719c.442-.492,1.22.162.784.654a12.67,12.67,0,0,0-.258,16.483C337.041,624.822,336.2,625.412,335.783,624.9Z" transform="translate(871.049 622.029)" fill="#fff"/>
    <path id="Path_194" data-name="Path 194" d="M325.995,637.574a26.38,26.38,0,0,0,18.554-5.041c.527-.392,1.108.442.582.84a27.438,27.438,0,0,1-19.316,5.2c-.654-.072-.469-1.077.183-1Z" transform="translate(868.334 634.06)" fill="#fff"/>
    <path id="Path_195" data-name="Path 195" d="M351.939,608.121a7.746,7.746,0,0,0,6.086,4.125c.654.065.469,1.068-.183,1A8.681,8.681,0,0,1,351.1,608.7a.527.527,0,0,1,.128-.71.513.513,0,0,1,.71.13Z" transform="translate(876.902 622.453)" fill="#fff"/>
  </g>
</svg>
