<svg xmlns="http://www.w3.org/2000/svg" width="1182.594" height="738.674" viewBox="0 0 1182.594 738.674">
  <g id="sup4" transform="translate(-134.54 -2530.811)">
    <ellipse id="Ellipse_38" data-name="Ellipse 38" cx="131.69" cy="32.12" rx="131.69" ry="32.12" transform="translate(1053.755 3205.245)" fill="#3f3d56"/>
    <path id="Path_297" data-name="Path 297" d="M597.729,170.98V596.037a19.1,19.1,0,0,1-19.1,19.09H406.065a19.066,19.066,0,0,1-19.1-19.091V170.98a19.1,19.1,0,0,1,19.1-19.1h25.823v3.314a15.726,15.726,0,0,0,15.725,15.725h87.77a15.725,15.725,0,0,0,15.725-15.725V151.88h27.523A19.093,19.093,0,0,1,597.729,170.98Z" transform="translate(94.987 2479.019)" fill="#44bba4"/>
    <rect id="Rectangle_1593" data-name="Rectangle 1593" width="195.628" height="95.283" transform="translate(489.533 2701.938)" fill="#3f3d56"/>
    <path id="Path_298" data-name="Path 298" d="M467.715,281.843c5.122,18.93,22.662,30.654,22.662,30.654s9.238-18.968,4.116-37.9-22.662-30.654-22.662-30.654S462.594,262.913,467.715,281.843Z" transform="translate(100.582 2485.52)" fill="#fff"/>
    <path id="Path_299" data-name="Path 299" d="M476.956,276.521c14.053,13.679,15.772,34.708,15.772,34.708s-21.067-1.151-35.118-14.829-15.772-34.708-15.772-34.708S462.909,262.841,476.956,276.521Z" transform="translate(98.863 2486.776)" fill="#44bba4"/>
    <path id="Path_300" data-name="Path 300" d="M513,281.843c-5.122,18.93-22.662,30.654-22.662,30.654s-9.238-18.968-4.116-37.9,22.662-30.654,22.662-30.654S518.115,262.913,513,281.843Z" transform="translate(101.889 2485.52)" fill="#fff"/>
    <path id="Path_301" data-name="Path 301" d="M505.139,276.521c-14.053,13.679-15.772,34.708-15.772,34.708s21.067-1.151,35.118-14.829,15.772-34.708,15.772-34.708S519.192,262.841,505.139,276.521Z" transform="translate(102.22 2486.776)" fill="#44bba4"/>
    <rect id="Rectangle_1594" data-name="Rectangle 1594" width="160.632" height="8.817" transform="translate(507.03 2850.582)" fill="#f0f0f0"/>
    <rect id="Rectangle_1595" data-name="Rectangle 1595" width="160.632" height="8.817" transform="translate(507.03 2864.786)" fill="#f0f0f0"/>
    <rect id="Rectangle_1596" data-name="Rectangle 1596" width="160.632" height="8.817" transform="translate(507.03 2878.993)" fill="#f0f0f0"/>
    <rect id="Rectangle_1597" data-name="Rectangle 1597" width="160.632" height="8.817" transform="translate(507.03 2893.2)" fill="#f0f0f0"/>
    <rect id="Rectangle_1598" data-name="Rectangle 1598" width="43.847" height="43.847" transform="translate(582.148 2943.807) rotate(35.391)" fill="#f0f0f0"/>
    <path id="Path_302" data-name="Path 302" d="M490.6,511.186a10.119,10.119,0,1,1,10.119-10.119A10.119,10.119,0,0,1,490.6,511.186Zm0-18.545a8.432,8.432,0,1,0,8.432,8.432,8.432,8.432,0,0,0-8.432-8.432Z" transform="translate(101.593 2502.975)" fill="#3f3d56"/>
    <path id="Path_303" data-name="Path 303" d="M273.25,85.92V510.979a19.1,19.1,0,0,1-19.1,19.093H81.579a19.065,19.065,0,0,1-19.1-19.09V85.92a19.1,19.1,0,0,1,19.1-19.1H107.4v3.314A15.725,15.725,0,0,0,123.13,85.861h87.763A15.726,15.726,0,0,0,226.62,70.134V66.822h27.523a19.093,19.093,0,0,1,19.1,19.1Z" transform="translate(72.059 2473.009)" fill="#f2f2f2"/>
    <path id="Path_304" data-name="Path 304" d="M250.022,293.564H81.38V142.627H250.022ZM83.065,291.877H248.335V144.313H83.065Z" transform="translate(73.397 2478.365)" fill="#3f3d56"/>
    <rect id="Rectangle_1599" data-name="Rectangle 1599" width="1.686" height="223.943" transform="translate(155.056 2622.46) rotate(-48.206)" fill="#3f3d56"/>
    <rect id="Rectangle_1600" data-name="Rectangle 1600" width="223.943" height="1.686" transform="translate(155.054 2770.454) rotate(-41.794)" fill="#3f3d56"/>
    <rect id="Rectangle_1601" data-name="Rectangle 1601" width="166.957" height="1.686" transform="translate(155.619 2815.776)" fill="#3f3d56"/>
    <rect id="Rectangle_1602" data-name="Rectangle 1602" width="166.957" height="1.686" transform="translate(155.619 2830.95)" fill="#3f3d56"/>
    <rect id="Rectangle_1603" data-name="Rectangle 1603" width="166.957" height="1.686" transform="translate(155.619 2846.13)" fill="#3f3d56"/>
    <rect id="Rectangle_1604" data-name="Rectangle 1604" width="83.478" height="1.686" transform="translate(155.619 2861.305)" fill="#3f3d56"/>
    <rect id="Rectangle_1605" data-name="Rectangle 1605" width="83.478" height="1.686" transform="translate(155.619 2876.485)" fill="#3f3d56"/>
    <path id="Path_305" data-name="Path 305" d="M921.423,85.92V510.979a19.1,19.1,0,0,1-19.1,19.093H729.759a19.065,19.065,0,0,1-19.1-19.09V85.92a19.1,19.1,0,0,1,19.1-19.1h25.825v3.314a15.726,15.726,0,0,0,15.726,15.725h87.763A15.725,15.725,0,0,0,874.8,70.136V66.822h27.523a19.093,19.093,0,0,1,19.1,19.1Z" transform="translate(117.856 2473.009)" fill="#f2f2f2"/>
    <rect id="Rectangle_1606" data-name="Rectangle 1606" width="166.957" height="1.686" transform="translate(851.276 2757.59)" fill="#3f3d56"/>
    <rect id="Rectangle_1607" data-name="Rectangle 1607" width="166.957" height="1.686" transform="translate(851.276 2801.438)" fill="#3f3d56"/>
    <rect id="Rectangle_1608" data-name="Rectangle 1608" width="166.957" height="1.686" transform="translate(851.276 2845.287)" fill="#3f3d56"/>
    <circle id="Ellipse_39" data-name="Ellipse 39" cx="27.411" cy="27.411" r="27.411" transform="translate(902.889 2638.75)" fill="#44bba4"/>
    <rect id="Rectangle_1609" data-name="Rectangle 1609" width="11.805" height="26.983" transform="translate(976.071 2750)" fill="#44bba4"/>
    <rect id="Rectangle_1610" data-name="Rectangle 1610" width="11.805" height="26.983" transform="translate(872.355 2793.006)" fill="#44bba4"/>
    <rect id="Rectangle_1611" data-name="Rectangle 1611" width="11.805" height="26.983" transform="translate(941.5 2836.011)" fill="#44bba4"/>
    <path id="Path_306" data-name="Path 306" d="M811.313,217.959a33.728,33.728,0,1,1,33.729-33.728,33.728,33.728,0,0,1-33.729,33.728Zm0-65.772a32.042,32.042,0,1,0,32.042,32.042,32.042,32.042,0,0,0-32.042-32.042Z" transform="translate(122.585 2478.919)" fill="#3f3d56"/>
    <rect id="Rectangle_1612" data-name="Rectangle 1612" width="2.141" height="106.269" transform="translate(366.44 2764.175) rotate(-39.546)" fill="#3f3d56"/>
    <path id="Path_307" data-name="Path 307" d="M352.017,362.929a64.714,64.714,0,0,0-19.506-7.626l10.2-3.64,5.506-9.323a64.636,64.636,0,0,0,3.8,20.589Z" transform="translate(91.139 2492.477)" fill="#3f3d56"/>
    <rect id="Rectangle_1613" data-name="Rectangle 1613" width="106.27" height="2.142" transform="translate(737.263 2844.769) rotate(-50.466)" fill="#3f3d56"/>
    <path id="Path_308" data-name="Path 308" d="M618.506,362.932a64.712,64.712,0,0,0,3.8-20.6l5.508,9.325,10.2,3.64a64.646,64.646,0,0,0-19.506,7.633Z" transform="translate(111.346 2492.473)" fill="#3f3d56"/>
    <path id="Path_309" data-name="Path 309" d="M1086.928,445.317s0,156.315-24.625,213.059l-56.745,127.407s-36.4-2.141-38.543-17.131l42.826-132.764,25.695-78.158,6.423-122.055Z" transform="translate(167.569 2408.216)" fill="#2f2e41"/>
    <path id="Path_310" data-name="Path 310" d="M1052.388,448.962l-9.637,65.309,6.423,143.467,3.212,79.229s12.848,35.331,8.565,38.543l-8.565,6.423s-34.26-4.283-35.332-6.423S995.641,611.7,995.641,611.7s-41.755-130.62-39.614-132.764,11.786-34.26,11.786-34.26Z" transform="translate(166.792 2408.854)" fill="#2f2e41"/>
    <path id="Path_311" data-name="Path 311" d="M1055.014,749.678,1059.3,774.3s11.786,50.32,0,50.32-33.191-13.918-34.26-22.483,2.141-47.109,2.141-47.109Z" transform="translate(171.658 2430.404)" fill="#2f2e41"/>
    <path id="Path_312" data-name="Path 312" d="M1005.269,758.4s8.566,17.131,13.918,19.272,29.732,16.148,15.4,25.2-29.319.49-29.319.49L956.02,776.6s6.423-26.766,16.06-28.908S1005.269,758.4,1005.269,758.4Z" transform="translate(166.797 2430.245)" fill="#2f2e41"/>
    <circle id="Ellipse_40" data-name="Ellipse 40" cx="38.543" cy="38.543" r="38.543" transform="translate(1122.811 2539.833)" fill="#ffb8b8"/>
    <path id="Path_313" data-name="Path 313" d="M1024.449,190.678s7.494,49.249,14.989,55.674-16.06,28.908-26.766,27.837-22.483-24.626-22.483-24.626,3.212-31.049-2.14-39.614S1024.449,190.678,1024.449,190.678Z" transform="translate(169.023 2390.911)" fill="#ffb8b8"/>
    <path id="Path_314" data-name="Path 314" d="M1017.479,250.786,1035.666,234a68.83,68.83,0,0,0,21.429,17.852c13.918,7.495-26.766,84.581-26.766,84.581L965.02,255.064s20.773-13.809,27.516-19.216Z" transform="translate(167.435 2393.971)" fill="#3f3d56"/>
    <path id="Path_315" data-name="Path 315" d="M1029.945,315.051s28.693-50.021,25.589-66.23c0,0,41.862,10.557,44,24.475s-20.351,64.233-20.351,64.233,18.2,127.407,7.495,128.478-117.772,2.14-119.912-3.212,2.141-21.412-4.283-26.766-13.918-2.14-10.706-10.706,17.131-19.272,12.848-25.695-5.354-4.283-4.283-8.565-2.141-61.026-2.141-61.026-22.483-62.1-17.131-66.382,33.434-14.838,33.434-14.838Z" transform="translate(165.681 2395.015)" fill="#3f3d56"/>
    <path id="Path_316" data-name="Path 316" d="M1105.92,467.172s-3.212,42.826-21.412,40.685,3.212-48.183,3.212-48.183Z" transform="translate(175.359 2409.913)" fill="#ffb8b8"/>
    <path id="Path_317" data-name="Path 317" d="M955.015,466.458s6.423,25.695,13.918,23.554V460.028l-3.212-5.354Z" transform="translate(166.725 2409.561)" fill="#ffb8b8"/>
    <path id="Path_318" data-name="Path 318" d="M1026.819,196.366a6.661,6.661,0,0,0-1.1-3.1,5.024,5.024,0,0,0-2.343-1.485,10.527,10.527,0,0,0-12.545,5.373c-.988,2.156-1.463,4.933-3.64,5.893-2.52,1.116-5.316-1.26-6.307-3.832s-1.017-5.489-2.336-7.909a11.541,11.541,0,0,0-7.928-5.238c-2.65-.562-5.893-.856-7.089-3.293a6.505,6.505,0,0,1-.484-2.946,31.016,31.016,0,0,1,1.907-10.482c-10.49-2.1-19.819,8.146-30.515,8.307a8.056,8.056,0,0,1-3.935-.771c-2.373-1.267-3.4-4.078-4.12-6.671q-1.139-4.132-1.875-8.363l3.421,1.57a13.438,13.438,0,0,1-1.527-5.9,14.123,14.123,0,0,1,5.266.444l.25-6.139c2.647,3.356,7.922,2.177,11.9.622,7.683-3,15.329-6.24,23.4-7.973s16.708-1.858,24.334,1.286c8.014,3.3,14.193,9.879,19.635,16.618a43.431,43.431,0,0,1,7.562,12.19,29.545,29.545,0,0,1-.064,18.844c-1.756,5.5-5.026,12.146-9.413,15.954C1027.747,205.495,1027.544,200.526,1026.819,196.366Z" transform="translate(165.979 2387.551)" fill="#2f2e41"/>
    <path id="Path_319" data-name="Path 319" d="M955.136,259.678l-13.919,3.212s-16.06,17.131-17.131,33.191-1.071,96.367-1.071,96.367l20.343,66.382s-2.141,14.989,0,14.989,3.212-3.212,3.212,1.071-5.354,0,0,4.283l10.706,8.566,17.894-23.724s1.386-9.467-1.834-11.613-3.212-3.212-2.141-6.423,3.212-4.283,2.141-6.423-4.283-5.354-4.283-7.494,0-4.283-1.071-5.354-8.566-26.766-8.566-26.766l4.283-83.511Z" transform="translate(164.464 2395.786)" fill="#3f3d56"/>
    <path id="Path_320" data-name="Path 320" d="M1080.219,264.678l10.706,5.354s17.131,51.391,17.131,96.367,3.212,74.946,3.212,74.946,5.354,12.848,3.212,12.848-4.283,0-2.14,3.212,3.212,2.141,2.14,5.354-2.14-2.14-1.071,3.212,0,7.494-2.141,7.494-2.141,13.918-2.141,13.918l-25.695-9.637s4.283-5.354,3.212-7.494a10.67,10.67,0,0,1-1.071-4.283s5.354-1.071,0-3.212-3.212-2.141-2.141-8.566,4.283-5.354,1.071-6.423-22.484-100.641-22.484-100.641Z" transform="translate(174.286 2396.138)" fill="#3f3d56"/>
    <circle id="Ellipse_41" data-name="Ellipse 41" cx="3.212" cy="3.212" r="3.212" transform="translate(1181.682 2641.888)" fill="#2f2e41"/>
    <circle id="Ellipse_42" data-name="Ellipse 42" cx="3.212" cy="3.212" r="3.212" transform="translate(1181.682 2652.595)" fill="#2f2e41"/>
  </g>
</svg>
