<svg xmlns="http://www.w3.org/2000/svg" width="1228.844" height="578.433" viewBox="0 0 1228.844 578.433">
  <g id="sup3" transform="translate(-64.8)">
    <path id="Path_249" data-name="Path 249" d="M751.077,393.053a16.85,16.85,0,0,1,22.81,10.592,16.232,16.232,0,0,1,.49,2.2l67.3,33.375L857.258,428.9l19.38,22.311-23.783,19.316a17.077,17.077,0,0,1-20.373.786l-68.288-47.223a16.065,16.065,0,0,1-1.555.567,16.85,16.85,0,0,1-21.461-13.114,16.387,16.387,0,0,1-.25-2.053,16.9,16.9,0,0,1,10.15-16.435Z" transform="translate(148.168 -191.803)" fill="#ffb8b8"/>
    <path id="Path_250" data-name="Path 250" d="M202.8,463.683a9.957,9.957,0,0,0,9.957,9.957h16.237l2.9,5.25V711.836a9.957,9.957,0,0,0,19.914,0V473.64H796.989l.153,238.2a9.957,9.957,0,0,0,19.914,0V473.64h17.616a9.957,9.957,0,1,0,0-19.914H212.757A9.957,9.957,0,0,0,202.8,463.683Z" transform="translate(-138 -158.802)" fill="#e5e5e5"/>
    <path id="Path_251" data-name="Path 251" d="M404.349,567.018V530.254a6.127,6.127,0,0,0-6.127-6.127H258.827a6.127,6.127,0,0,0-6.127,6.127v36.763Z" transform="translate(-111.463 -121.362)" fill="#e5e5e5"/>
    <rect id="Rectangle_1584" data-name="Rectangle 1584" width="151.649" height="47.486" transform="translate(141.233 459.442)" fill="#e5e5e5"/>
    <path id="Path_252" data-name="Path 252" d="M252.7,601.127V637.89a6.127,6.127,0,0,0,6.127,6.127H398.222a6.127,6.127,0,0,0,6.127-6.127V601.127Z" transform="translate(-111.463 -80.413)" fill="#e5e5e5"/>
    <circle id="Ellipse_33" data-name="Ellipse 33" cx="4.595" cy="4.595" r="4.595" transform="translate(213.228 421.146)" fill="#fff"/>
    <circle id="Ellipse_34" data-name="Ellipse 34" cx="4.595" cy="4.595" r="4.595" transform="translate(213.228 482.419)" fill="#fff"/>
    <circle id="Ellipse_35" data-name="Ellipse 35" cx="4.595" cy="4.595" r="4.595" transform="translate(212.981 542.394)" fill="#fff"/>
    <path id="Path_253" data-name="Path 253" d="M234,446.075v12.163a2.526,2.526,0,0,0,2.665,2.344h48.129a2.973,2.973,0,0,0,1.317-.306l12.147-6.081a2.213,2.213,0,0,0,0-4.075l-12.147-6.081a2.975,2.975,0,0,0-1.317-.306H236.665A2.526,2.526,0,0,0,234,446.075Z" transform="translate(-121.408 -164.12)" fill="#3f3d56"/>
    <path id="Path_254" data-name="Path 254" d="M236.665,443.732h9.589v16.85h-9.589A2.526,2.526,0,0,1,234,458.238V446.075a2.526,2.526,0,0,1,2.665-2.344Z" transform="translate(-121.408 -164.12)" fill="#44bba4"/>
    <path id="Path_255" data-name="Path 255" d="M1012.494,576.634a37.9,37.9,0,0,1-36.61-6.447c-12.82-10.761-16.839-28.492-20.11-44.9L946.1,476.725l20.252,13.939c14.564,10.029,29.457,20.373,39.542,34.9s14.486,34.355,6.383,50.073" transform="translate(257.294 -146.571)" fill="#e6e6e6"/>
    <path id="Path_256" data-name="Path 256" d="M998.385,614c2.05-14.931,4.157-30.054,2.721-45.145-1.277-13.4-5.361-26.5-13.69-37.223a61.923,61.923,0,0,0-15.888-14.4c-1.589-1-3.051,1.515-1.469,2.514a58.875,58.875,0,0,1,23.284,28.1c5.07,12.895,5.884,26.96,5.01,40.651-.528,8.284-1.648,16.514-2.777,24.733a1.509,1.509,0,0,0,1.017,1.791A1.464,1.464,0,0,0,998.383,614Z" transform="translate(269.673 -125.153)" fill="#f2f2f2"/>
    <path id="Path_257" data-name="Path 257" d="M1004.391,573.562A27.9,27.9,0,0,1,980.08,586.11c-12.307-.584-22.567-9.174-31.8-17.328l-27.318-24.12,18.075-.866c13-.622,26.347-1.2,38.724,2.806s23.806,13.659,26.07,26.479" transform="translate(243.923 -111.137)" fill="#e6e6e6"/>
    <path id="Path_258" data-name="Path 258" d="M1013.108,601.568c-9.866-17.463-21.311-36.86-41.759-43.061a46.6,46.6,0,0,0-17.564-1.814c-1.864.153-1.4,3.036.46,2.875a43.291,43.291,0,0,1,28.032,7.416c7.9,5.38,14.057,12.858,19.266,20.79,3.191,4.859,6.048,9.922,8.906,14.98.919,1.616,3.583.45,2.659-1.186Z" transform="translate(260.749 -104.139)" fill="#f2f2f2"/>
    <path id="Path_259" data-name="Path 259" d="M1018.425,607.57a21.128,21.128,0,0,0-12.947-17.7V579.781H988.55V590.2a21.118,21.118,0,0,0-12.242,17.378l-3.983,46.27H1022.4Z" transform="translate(271.241 -91.765)" fill="#f2f2f2"/>
    <path id="Path_260" data-name="Path 260" d="M377.5,462.137l5.029-2.117,3.45-25.207h45.928l3.739,25.1,4.5,2.249a1.072,1.072,0,0,1-.478,2.024H377.917a1.072,1.072,0,0,1-.414-2.053Z" transform="translate(-45.431 -168.86)" fill="#e6e6e6"/>
    <path id="Path_261" data-name="Path 261" d="M321.079,445.131v-31.82H555.65V445.13a4.47,4.47,0,0,1-4.461,4.468H325.54a4.471,4.471,0,0,1-4.461-4.47Z" transform="translate(-75.098 -180.295)" fill="#ccc"/>
    <path id="Path_262" data-name="Path 262" d="M320.925,336.119a5.4,5.4,0,0,1,5.389-5.389H550.548a5.4,5.4,0,0,1,5.389,5.389V472.268H320.925Z" transform="translate(-75.18 -224.213)" fill="#3f3d56"/>
    <path id="Path_263" data-name="Path 263" d="M327.376,454.8V341.335a4.159,4.159,0,0,1,4.154-4.154H538.47a4.159,4.159,0,0,1,4.154,4.154V454.8a4.159,4.159,0,0,1-4.154,4.154H331.532a4.159,4.159,0,0,1-4.156-4.154Z" transform="translate(-71.749 -220.782)" fill="#fff"/>
    <path id="Path_264" data-name="Path 264" d="M612.1,261.193H819.493V508.825H612.1Z" transform="translate(79.67 -261.193)" fill="#fff"/>
    <path id="Path_265" data-name="Path 265" d="M612.1,261.193H819.493V508.825H612.1Zm203.731,3.658H615.758V505.166H815.831Z" transform="translate(79.67 -261.193)" fill="#e5e5e5"/>
    <rect id="Rectangle_1585" data-name="Rectangle 1585" width="145.076" height="5.606" transform="translate(722.928 119.918)" fill="#f1f1f1"/>
    <path id="Path_266" data-name="Path 266" d="M597.765,76.1h1.585V19.379H543.614v1.582h54.151Z" transform="translate(254.638 10.306)" fill="#cbcbcb"/>
    <path id="Path_267" data-name="Path 267" d="M506.2,79.489h55.732V77.913H507.779V22.777H506.2Z" transform="translate(234.741 12.113)" fill="#cbcbcb"/>
    <rect id="Rectangle_1586" data-name="Rectangle 1586" width="145.076" height="5.606" transform="translate(722.928 134.534)" fill="#f1f1f1"/>
    <rect id="Rectangle_1587" data-name="Rectangle 1587" width="145.076" height="5.606" transform="translate(722.928 149.151)" fill="#f1f1f1"/>
    <rect id="Rectangle_1588" data-name="Rectangle 1588" width="145.076" height="5.606" transform="translate(722.928 174.877)" fill="#f1f1f1"/>
    <rect id="Rectangle_1589" data-name="Rectangle 1589" width="145.076" height="5.606" transform="translate(722.928 189.496)" fill="#f1f1f1"/>
    <rect id="Rectangle_1590" data-name="Rectangle 1590" width="145.076" height="5.606" transform="translate(722.928 204.112)" fill="#f1f1f1"/>
    <path id="Path_268" data-name="Path 268" d="M680.545,293.317l1.463-1.791-2.2-2.509-1.964,1.225a10.952,10.952,0,0,0-3.83-1.93l-.254-2.517-3.33-.221-.561,2.394a10.953,10.953,0,0,0-4.442,1.481l-1.656-1.353-2.509,2.2,1.127,1.815a10.951,10.951,0,0,0-2.04,4.209l-2.451.247-.216,3.332,2.463.576a10.942,10.942,0,0,0,1.435,4.069l-1.353,1.656,2.2,2.509,1.815-1.127a10.951,10.951,0,0,0,3.949,1.976l.264,2.613,3.332.216.593-2.534a10.953,10.953,0,0,0,4.269-1.451l1.791,1.463,2.525-2.2-1.225-1.964a10.957,10.957,0,0,0,1.991-4.047l2.589-.261.216-3.332-2.557-.6a10.953,10.953,0,0,0-1.437-4.147Zm-3.491,12.3a8.9,8.9,0,1,1,.813-12.561,8.9,8.9,0,0,1-.813,12.561Z" transform="translate(103.908 -248.226)" fill="#44bba4"/>
    <path id="Path_269" data-name="Path 269" d="M693.879,310.269l2.017-1.127L694.767,306l-2.275.412a10.953,10.953,0,0,0-2.851-3.2l.688-2.434-3.019-1.425-1.4,2.02a10.954,10.954,0,0,0-4.672-.253l-1.043-1.866-3.143,1.127.381,2.1a10.952,10.952,0,0,0-3.445,3.166l-2.367-.669L670.2,308l2.079,1.44a10.946,10.946,0,0,0-.153,4.311l-1.866,1.043,1.127,3.143,2.1-.381a10.954,10.954,0,0,0,2.947,3.289l-.718,2.529,3.019,1.425,1.483-2.145a10.956,10.956,0,0,0,4.5.219l1.127,2.017,3.143-1.127-.412-2.275a10.958,10.958,0,0,0,3.338-3.033l2.5.708,1.425-3.019-2.158-1.5a10.957,10.957,0,0,0,.188-4.383Zm-7.766,10.16a8.9,8.9,0,1,1,5.372-11.391A8.9,8.9,0,0,1,686.113,320.43Z" transform="translate(110.566 -240.952)" fill="#44bba4"/>
    <path id="Path_270" data-name="Path 270" d="M709.614,299.579,711,297.732l-2.3-2.419-1.913,1.3a10.953,10.953,0,0,0-3.9-1.775l-.354-2.5-3.338-.083-.459,2.414a10.955,10.955,0,0,0-4.375,1.657l-1.708-1.285-2.419,2.3,1.2,1.769a10.954,10.954,0,0,0-1.87,4.289l-2.434.345-.083,3.338,2.483.478a10.951,10.951,0,0,0,1.6,4.007l-1.285,1.708,2.3,2.419,1.769-1.2a10.956,10.956,0,0,0,4.026,1.817l.368,2.6,3.338.083.492-2.555a10.954,10.954,0,0,0,4.208-1.621l1.847,1.389,2.419-2.3-1.3-1.913a10.955,10.955,0,0,0,1.826-4.124l2.577-.365.083-3.338-2.58-.495a10.953,10.953,0,0,0-1.6-4.085Zm-3,12.432a8.9,8.9,0,1,1,.306-12.59,8.9,8.9,0,0,1-.306,12.59Z" transform="translate(119.53 -244.678)" fill="#44bba4"/>
    <path id="Path_271" data-name="Path 271" d="M436.485,397.7l5.942-.472.738-8.578-5.773-1.48a28.241,28.241,0,0,0-3.237-10.57l4.232-4.963-5.544-6.587-5.456,3.229a28.25,28.25,0,0,0-10.677-5.619l-.437-5.495-8.578-.738-1.368,5.338a28.24,28.24,0,0,0-11.479,3.713l-4.825-4.114-6.587,5.544,3.323,5.613a28.232,28.232,0,0,0-5.012,9.932l-5.495.437-.738,8.578,5.34,1.368a28.245,28.245,0,0,0,3.37,10.876l-4.393,5.155,5.544,6.587,5.775-3.419a28.247,28.247,0,0,0,10.321,5.361l.473,5.942,8.578.738L412,418.3a28.255,28.255,0,0,0,11.084-3.523l5.107,4.355,6.587-5.544-3.45-5.821A28.248,28.248,0,0,0,436.485,397.7Zm-29.13,15.454A22.965,22.965,0,1,1,432.2,392.247a22.965,22.965,0,0,1-24.847,20.911Z" transform="translate(-46.149 -210.544)" fill="#44bba4"/>
    <path id="Path_272" data-name="Path 272" d="M893.571,526.722H820.028c0,2.114-75.794,3.83-75.794,3.83A19.692,19.692,0,0,0,741,533.615a19.009,19.009,0,0,0-4.442,12.254v3.064a19.147,19.147,0,0,0,19.147,19.147H893.571a19.164,19.164,0,0,0,19.148-19.148V545.87a19.174,19.174,0,0,0-19.148-19.148Z" transform="translate(145.858 -119.982)" fill="#3f3d56"/>
    <rect id="Rectangle_1591" data-name="Rectangle 1591" width="19.914" height="128.672" transform="translate(959.432 447.337)" fill="#3f3d56"/>
    <path id="Path_273" data-name="Path 273" d="M749.836,643.438c0,2.145,30.177.832,67.4.832s67.4,1.319,67.4-.832-30.177-19.213-67.4-19.213S749.836,641.288,749.836,643.438Z" transform="translate(152.919 -68.129)" fill="#3f3d56"/>
    <path id="Path_274" data-name="Path 274" d="M633.193,382.642H614.414l-8.935-48.712H633.2Z" transform="translate(287.538 177.587)" fill="#ffb8b8"/>
    <path id="Path_275" data-name="Path 275" d="M785.724,647.255H725.167v-.766a23.568,23.568,0,0,1,23.568-23.568h36.989Z" transform="translate(139.8 -68.823)" fill="#2f2e41"/>
    <path id="Path_276" data-name="Path 276" d="M757.146,667.354,719.707,583.4a30.768,30.768,0,0,1,13.509-39.5l81.206-43.546,37.056-3.152L885.66,494.1l.247.417c.316.533,7.659,13.227,2.7,27.147-3.768,10.559-13.57,18.8-29.133,24.509-36.325,13.327-78.289,24.7-94.644,28.979a5.286,5.286,0,0,0-3.387,2.7,5.361,5.361,0,0,0-.306,4.289l34.781,78.145a6.893,6.893,0,0,1-5.835,9.235l-25.99,1.892q-.331.032-.659.032a6.893,6.893,0,0,1-6.284-4.088Z" transform="translate(135.498 -137.33)" fill="#2f2e41"/>
    <path id="Path_277" data-name="Path 277" d="M641.192,382.642H622.414l-8.935-48.712H641.2Z" transform="translate(291.793 177.587)" fill="#ffb8b8"/>
    <path id="Path_278" data-name="Path 278" d="M793.724,647.255H733.167v-.766a23.568,23.568,0,0,1,23.568-23.568h36.989Z" transform="translate(144.054 -68.823)" fill="#2f2e41"/>
    <path id="Path_279" data-name="Path 279" d="M766.146,670.21l-37.439-83.951a30.768,30.768,0,0,1,13.509-39.5l81.206-43.546,37.056-3.153,26.773-2.322v-.368c.316.533,7.659,13.227,2.7,27.147-3.768,10.559-5.911,18.8-21.474,24.509-36.325,13.327-78.289,24.7-94.644,28.979a5.287,5.287,0,0,0-3.387,2.7,5.362,5.362,0,0,0-.306,4.289l34.781,78.145a6.893,6.893,0,0,1-5.835,9.235l-25.99,1.892q-.331.032-.659.032a6.893,6.893,0,0,1-6.29-4.086Z" transform="translate(140.284 -135.59)" fill="#2f2e41"/>
    <path id="Path_280" data-name="Path 280" d="M809.463,543.543c-1.8-1.27-27.573,12.255-32.168,1.532,21.445-53.613,6.668-76.765,19.8-107.51a38.283,38.283,0,0,1,25.378-21.721l34.081-1.72.176.086a39.835,39.835,0,0,1,21.781,42.26c-.121,33.459-20.14,58.975-13.141,83.248a7.846,7.846,0,0,1-.742,6.1,7.481,7.481,0,0,1-4.773,3.537l-45-6a7.6,7.6,0,0,1-6.153-1.19Z" transform="translate(167.522 -179.863)" fill="#44bba4"/>
    <circle id="Ellipse_36" data-name="Ellipse 36" cx="37.623" cy="37.623" r="37.623" transform="translate(975.084 146.286)" fill="#ffb8b8"/>
    <path id="Path_281" data-name="Path 281" d="M805.662,493.771,740.293,442.2a16.13,16.13,0,0,1-1.587.469,16.854,16.854,0,1,1,12.54-20.255,16.186,16.186,0,0,1,.351,2.224l65.073,37.54,16.194-9.323,17.95,23.478L825.67,494.256a16.761,16.761,0,0,1-20-.487Z" transform="translate(135.983 -182.369)" fill="#ffb8b8"/>
    <path id="Path_282" data-name="Path 282" d="M822.847,477.816l-37.292-25.362,17.532-24.826a17.108,17.108,0,0,1,21.337-5.576h0a17.107,17.107,0,0,1,9.028,20.347Z" transform="translate(171.914 -176.533)" fill="#44bba4"/>
    <path id="Path_283" data-name="Path 283" d="M848.105,432.879c-1.991.875-6.092-15.053-4.258-18.239,2.727-4.738,2.566-4.7,4.376-7.838s2.215-7.425-.129-10.184-7.769-2.393-8.838,1.072c.688-6.568-5.809-11.849-12.244-13.327s-13.223-.562-19.694-1.883c-7.506-1.532-15.318-7.828-12.327-16.084a11.63,11.63,0,0,1,2.269-3.728c3.462-3.892,8.3-5.554,13.039-7.161,9.85-3.342,19.969-6.728,30.364-6.359a44.116,44.116,0,0,1,38.978,28.506,40.074,40.074,0,0,1,1.659,6.165c3.568,19.184-7.573,38.108-25.667,45.414Z" transform="translate(176.585 -214.432)" fill="#2f2e41"/>
    <path id="Path_284" data-name="Path 284" d="M480.619,545.781v3.064a19.164,19.164,0,0,0,19.148,19.148H637.63a19.148,19.148,0,0,0,19.148-19.148v-3.064a19.01,19.01,0,0,0-4.442-12.255,19.706,19.706,0,0,0-3.232-3.064s-75.794-1.716-75.794-3.83H499.767A19.174,19.174,0,0,0,480.619,545.781Z" transform="translate(9.747 -120.03)" fill="#3f3d56"/>
    <rect id="Rectangle_1592" data-name="Rectangle 1592" width="19.914" height="128.672" transform="translate(569.595 447.201)" fill="#3f3d56"/>
    <path id="Path_285" data-name="Path 285" d="M561.743,624.136c-37.223,0-67.4,17.063-67.4,19.213s30.177.832,67.4.832,67.4,1.319,67.4-.832S598.966,624.136,561.743,624.136Z" transform="translate(17.045 -68.177)" fill="#3f3d56"/>
    <path id="Path_286" data-name="Path 286" d="M443.761,332.185h27.717L462.543,380.9H443.764Z" transform="translate(201.535 176.659)" fill="#ffb8b8"/>
    <path id="Path_287" data-name="Path 287" d="M578.636,621.172h36.986A23.568,23.568,0,0,1,639.19,644.74v.766H578.638Z" transform="translate(61.873 -69.753)" fill="#2f2e41"/>
    <path id="Path_288" data-name="Path 288" d="M640.044,669.693q-.328,0-.659-.032L613.4,667.769a6.893,6.893,0,0,1-5.835-9.235l34.783-78.145a5.362,5.362,0,0,0-.306-4.289,5.286,5.286,0,0,0-3.387-2.7c-16.355-4.275-58.319-15.66-94.644-28.979-15.563-5.708-25.365-13.953-29.133-24.509-4.968-13.919,2.382-26.614,2.7-27.147l.247-.417L552,495.458l37.056,3.152,81.206,43.546a30.768,30.768,0,0,1,13.509,39.5l-37.439,83.954A6.893,6.893,0,0,1,640.044,669.693Z" transform="translate(27.052 -138.261)" fill="#2f2e41"/>
    <path id="Path_289" data-name="Path 289" d="M437.761,332.185h27.717L456.543,380.9H437.764Z" transform="translate(198.344 176.659)" fill="#ffb8b8"/>
    <path id="Path_290" data-name="Path 290" d="M572.636,621.172h36.986A23.568,23.568,0,0,1,633.19,644.74v.766H572.638Z" transform="translate(58.682 -69.753)" fill="#2f2e41"/>
    <path id="Path_291" data-name="Path 291" d="M633.045,672.693q-.328,0-.659-.032L606.4,670.769a6.893,6.893,0,0,1-5.835-9.235l34.781-78.145a5.361,5.361,0,0,0-.306-4.289,5.287,5.287,0,0,0-3.387-2.7c-16.355-4.275-58.319-15.66-94.644-28.979-15.563-5.708-25.365-13.953-29.134-24.509-4.968-13.92,2.382-26.614,2.7-27.147l.247-.417L545,498.459l37.056,3.152,81.206,43.546a30.768,30.768,0,0,1,13.509,39.5l-37.437,83.954A6.893,6.893,0,0,1,633.045,672.693Z" transform="translate(23.329 -136.665)" fill="#2f2e41"/>
    <path id="Path_292" data-name="Path 292" d="M511.464,419.333a17.107,17.107,0,0,1,21.847-4.265h0a17.107,17.107,0,0,1,7.659,20.679l-10.294,28.594-42.152-16.027Z" transform="translate(13.951 -180.544)" fill="#44bba4"/>
    <path id="Path_293" data-name="Path 293" d="M589.87,561.86a7.6,7.6,0,0,1-6.153,1.19L518.8,547.608a7.481,7.481,0,0,1-4.773-3.537,7.845,7.845,0,0,1-.741-6.1c7-24.268-2.178-54.353-13.141-83.248a39.835,39.835,0,0,1,21.781-42.26l.176-.086,34.083,1.72a38.283,38.283,0,0,1,25.378,21.721c13.137,30.745,16.9,70.2,11.5,120.607a7.659,7.659,0,0,1-3.191,5.436Z" transform="translate(19.847 -180.792)" fill="#44bba4"/>
    <circle id="Ellipse_37" data-name="Ellipse 37" cx="37.623" cy="37.623" r="37.623" transform="translate(510.161 212.338) rotate(-80.783)" fill="#ffb8b8"/>
    <path id="Path_294" data-name="Path 294" d="M563.781,492.511l-25.143-17.922L556.577,451.1l16.194,9.323,65.07-37.542a16.224,16.224,0,0,1,.351-2.224,16.85,16.85,0,1,1,12.547,20.26,16.121,16.121,0,0,1-1.587-.469l-65.368,51.57a16.761,16.761,0,0,1-20,.49Z" transform="translate(40.602 -183.299)" fill="#ffb8b8"/>
    <path id="Path_295" data-name="Path 295" d="M526.763,440.65a17.107,17.107,0,0,1,9.029-20.347h0a17.107,17.107,0,0,1,21.337,5.576L574.657,450.7l-37.3,25.364Z" transform="translate(33.903 -177.463)" fill="#44bba4"/>
    <path id="Path_296" data-name="Path 296" d="M577.824,392.123a6.8,6.8,0,0,1-.91,7.944c-5.344,6.045-6.769,15.4-4.844,23.46,2.312,9.67,8.449,17.911,14.509,25.794s12.333,15.978,14.995,25.558c6.3,22.678-10.628,46.864-32.384,55.85s-46.533,6.14-69.44.726c-17.29-4.085-35.132-10.1-46.956-23.357s-14.961-35.708-2.4-48.267c9.85-9.845,25.188-10.638,38.894-13.1s29.232-9.733,31.067-23.539c1.824-13.717-11.029-25.053-13.448-38.678-3.01-16.942,11.726-33.087,28.4-37.335s34.262.47,50.414,6.4c12.424,4.563,25.417,10.517,30.146,24.042,2.63,7.52.587,16.084-5.9,20.718-9.876,7.046-22.573.245-32.243-6.374Z" transform="translate(-10.613 -216.336)" fill="#2f2e41"/>
  </g>
</svg>
