<svg xmlns="http://www.w3.org/2000/svg" width="1182.594" height="945.21" viewBox="0 0 1182.594 945.21">
  <g id="sup2" transform="translate(0.005)">
    <rect id="Rectangle_1533" data-name="Rectangle 1533" width="107.241" height="32.422" rx="7.43" transform="translate(241.756 162.108)" fill="#44bba4" opacity="0.1"/>
    <rect id="Rectangle_1534" data-name="Rectangle 1534" width="107.241" height="32.422" rx="7.43" transform="translate(353.984 194.529)" fill="#44bba4" opacity="0.1"/>
    <rect id="Rectangle_1535" data-name="Rectangle 1535" width="107.241" height="32.422" rx="7.43" transform="translate(466.212 226.951)" fill="#44bba4" opacity="0.1"/>
    <rect id="Rectangle_1536" data-name="Rectangle 1536" width="107.241" height="32.422" rx="7.43" transform="translate(241.756 113.475)" fill="#44bba4" opacity="0.1"/>
    <rect id="Rectangle_1537" data-name="Rectangle 1537" width="107.241" height="32.422" rx="7.43" transform="translate(353.984 145.897)" fill="#44bba4" opacity="0.1"/>
    <rect id="Rectangle_1538" data-name="Rectangle 1538" width="107.241" height="32.422" rx="7.43" transform="translate(466.212 178.318)" fill="#44bba4" opacity="0.1"/>
    <rect id="Rectangle_1539" data-name="Rectangle 1539" width="107.241" height="32.422" rx="7.43" transform="translate(590.909 162.108)" fill="#44bba4" opacity="0.1"/>
    <rect id="Rectangle_1540" data-name="Rectangle 1540" width="107.241" height="32.422" rx="7.43" transform="translate(703.138 194.529)" fill="#44bba4" opacity="0.1"/>
    <rect id="Rectangle_1541" data-name="Rectangle 1541" width="107.241" height="32.422" rx="7.43" transform="translate(815.366 226.951)" fill="#44bba4" opacity="0.1"/>
    <rect id="Rectangle_1542" data-name="Rectangle 1542" width="107.241" height="32.422" rx="7.43" transform="translate(590.909 113.475)" fill="#44bba4" opacity="0.1"/>
    <rect id="Rectangle_1543" data-name="Rectangle 1543" width="107.241" height="32.422" rx="7.43" transform="translate(703.138 145.897)" fill="#44bba4" opacity="0.1"/>
    <rect id="Rectangle_1544" data-name="Rectangle 1544" width="107.241" height="32.422" rx="7.43" transform="translate(815.366 178.318)" fill="#44bba4" opacity="0.1"/>
    <rect id="Rectangle_1545" data-name="Rectangle 1545" width="107.241" height="32.422" rx="7.43" transform="translate(241.756 48.632)" fill="#44bba4" opacity="0.1"/>
    <rect id="Rectangle_1546" data-name="Rectangle 1546" width="107.241" height="32.422" rx="7.43" transform="translate(353.984 81.054)" fill="#44bba4" opacity="0.1"/>
    <rect id="Rectangle_1547" data-name="Rectangle 1547" width="107.241" height="32.422" rx="7.43" transform="translate(466.212 113.475)" fill="#44bba4" opacity="0.1"/>
    <rect id="Rectangle_1548" data-name="Rectangle 1548" width="107.241" height="32.422" rx="7.43" transform="translate(241.756)" fill="#44bba4" opacity="0.1"/>
    <rect id="Rectangle_1549" data-name="Rectangle 1549" width="107.241" height="32.422" rx="7.43" transform="translate(353.984 32.422)" fill="#44bba4" opacity="0.1"/>
    <rect id="Rectangle_1550" data-name="Rectangle 1550" width="107.241" height="32.422" rx="7.43" transform="translate(466.212 64.843)" fill="#44bba4" opacity="0.1"/>
    <rect id="Rectangle_1551" data-name="Rectangle 1551" width="107.241" height="32.422" rx="7.43" transform="translate(590.909 48.632)" fill="#44bba4" opacity="0.1"/>
    <rect id="Rectangle_1552" data-name="Rectangle 1552" width="107.241" height="32.422" rx="7.43" transform="translate(703.138 81.054)" fill="#44bba4" opacity="0.1"/>
    <rect id="Rectangle_1553" data-name="Rectangle 1553" width="107.241" height="32.422" rx="7.43" transform="translate(815.366 113.475)" fill="#44bba4" opacity="0.1"/>
    <rect id="Rectangle_1554" data-name="Rectangle 1554" width="107.241" height="32.422" rx="7.43" transform="translate(590.909)" fill="#44bba4" opacity="0.1"/>
    <rect id="Rectangle_1555" data-name="Rectangle 1555" width="107.241" height="32.422" rx="7.43" transform="translate(703.138 32.422)" fill="#44bba4" opacity="0.1"/>
    <rect id="Rectangle_1556" data-name="Rectangle 1556" width="107.241" height="32.422" rx="7.43" transform="translate(815.366 64.843)" fill="#44bba4" opacity="0.1"/>
    <rect id="Rectangle_1557" data-name="Rectangle 1557" width="107.241" height="32.422" rx="7.43" transform="translate(241.756 739.459)" fill="#44bba4" opacity="0.1"/>
    <rect id="Rectangle_1558" data-name="Rectangle 1558" width="107.241" height="32.422" rx="7.43" transform="translate(353.984 771.88)" fill="#44bba4" opacity="0.1"/>
    <rect id="Rectangle_1559" data-name="Rectangle 1559" width="107.241" height="32.422" rx="7.43" transform="translate(466.212 804.302)" fill="#44bba4" opacity="0.1"/>
    <rect id="Rectangle_1560" data-name="Rectangle 1560" width="107.241" height="32.422" rx="7.43" transform="translate(241.756 690.826)" fill="#44bba4" opacity="0.1"/>
    <rect id="Rectangle_1561" data-name="Rectangle 1561" width="107.241" height="32.422" rx="7.43" transform="translate(353.984 723.248)" fill="#44bba4" opacity="0.1"/>
    <rect id="Rectangle_1562" data-name="Rectangle 1562" width="107.241" height="32.422" rx="7.43" transform="translate(466.212 755.669)" fill="#44bba4" opacity="0.1"/>
    <rect id="Rectangle_1563" data-name="Rectangle 1563" width="107.241" height="32.422" rx="7.43" transform="translate(590.909 739.459)" fill="#44bba4" opacity="0.1"/>
    <rect id="Rectangle_1564" data-name="Rectangle 1564" width="107.241" height="32.422" rx="7.43" transform="translate(703.138 771.88)" fill="#44bba4" opacity="0.1"/>
    <rect id="Rectangle_1565" data-name="Rectangle 1565" width="107.241" height="32.422" rx="7.43" transform="translate(815.366 804.302)" fill="#44bba4" opacity="0.1"/>
    <rect id="Rectangle_1566" data-name="Rectangle 1566" width="107.241" height="32.422" rx="7.43" transform="translate(590.909 690.826)" fill="#44bba4" opacity="0.1"/>
    <rect id="Rectangle_1567" data-name="Rectangle 1567" width="107.241" height="32.422" rx="7.43" transform="translate(703.138 723.248)" fill="#44bba4" opacity="0.1"/>
    <rect id="Rectangle_1568" data-name="Rectangle 1568" width="107.241" height="32.422" rx="7.43" transform="translate(815.366 755.669)" fill="#44bba4" opacity="0.1"/>
    <rect id="Rectangle_1569" data-name="Rectangle 1569" width="107.241" height="32.422" rx="7.43" transform="translate(241.756 625.983)" fill="#44bba4" opacity="0.1"/>
    <rect id="Rectangle_1570" data-name="Rectangle 1570" width="107.241" height="32.422" rx="7.43" transform="translate(353.984 658.405)" fill="#44bba4" opacity="0.1"/>
    <rect id="Rectangle_1571" data-name="Rectangle 1571" width="107.241" height="32.422" rx="7.43" transform="translate(466.212 690.826)" fill="#44bba4" opacity="0.1"/>
    <rect id="Rectangle_1572" data-name="Rectangle 1572" width="107.241" height="32.422" rx="7.43" transform="translate(241.756 577.351)" fill="#44bba4" opacity="0.1"/>
    <rect id="Rectangle_1573" data-name="Rectangle 1573" width="107.241" height="32.422" rx="7.43" transform="translate(353.984 609.772)" fill="#44bba4" opacity="0.1"/>
    <rect id="Rectangle_1574" data-name="Rectangle 1574" width="107.241" height="32.422" rx="7.43" transform="translate(466.212 642.194)" fill="#44bba4" opacity="0.1"/>
    <rect id="Rectangle_1575" data-name="Rectangle 1575" width="107.241" height="32.422" rx="7.43" transform="translate(590.909 625.983)" fill="#44bba4" opacity="0.1"/>
    <rect id="Rectangle_1576" data-name="Rectangle 1576" width="107.241" height="32.422" rx="7.43" transform="translate(703.138 658.405)" fill="#44bba4" opacity="0.1"/>
    <rect id="Rectangle_1577" data-name="Rectangle 1577" width="107.241" height="32.422" rx="7.43" transform="translate(815.366 690.826)" fill="#44bba4" opacity="0.1"/>
    <rect id="Rectangle_1578" data-name="Rectangle 1578" width="107.241" height="32.422" rx="7.43" transform="translate(590.909 577.351)" fill="#44bba4" opacity="0.1"/>
    <rect id="Rectangle_1579" data-name="Rectangle 1579" width="107.241" height="32.422" rx="7.43" transform="translate(703.138 609.772)" fill="#44bba4" opacity="0.1"/>
    <rect id="Rectangle_1580" data-name="Rectangle 1580" width="107.241" height="32.422" rx="7.43" transform="translate(815.366 642.194)" fill="#44bba4" opacity="0.1"/>
    <ellipse id="Ellipse_29" data-name="Ellipse 29" cx="546.8" cy="44.891" rx="546.8" ry="44.891" transform="translate(54.71 855.427)" fill="#44bba4" opacity="0.1"/>
    <path id="Path_196" data-name="Path 196" d="M231.382,260.689c51.563,22.346,81.192,68.584,81.192,68.584s-53.983,9.974-105.567-12.359-81.192-68.584-81.192-68.584S179.811,238.343,231.382,260.689Z" transform="translate(-125.82 -27.754)" fill="#44bba4"/>
    <path id="Path_197" data-name="Path 197" d="M340.279,196.656C356.227,170.47,383.388,158,383.388,158s1.248,29.853-14.653,55.964-43.12,38.57-43.12,38.57S324.322,222.692,340.279,196.656Z" transform="translate(-76.476 -49.514)" fill="#44bba4"/>
    <path id="Path_198" data-name="Path 198" d="M244.283,227.311c11.409,40.727,42.859,67.537,42.859,67.537s12.956-39.242,1.545-79.981-42.872-67.537-42.872-67.537S232.861,186.572,244.283,227.311Z" transform="translate(-97.72 -52.147)" fill="#46455b"/>
    <rect id="Rectangle_1581" data-name="Rectangle 1581" width="909.047" height="455.147" rx="7.21" transform="translate(148.233 173.33)" fill="#3f3d56"/>
    <path id="Path_199" data-name="Path 199" d="M118.87,482h909.047v18.443a8.991,8.991,0,0,1-8.991,8.991H127.861a8.991,8.991,0,0,1-8.991-8.991Z" transform="translate(29.363 119.044)" opacity="0.1"/>
    <rect id="Rectangle_1582" data-name="Rectangle 1582" width="67.337" height="33.669" rx="2.5" transform="translate(236.767 567.375)" fill="#44bba4"/>
    <rect id="Rectangle_1583" data-name="Rectangle 1583" width="46.139" height="4.987" rx="1.357" transform="translate(322.81 596.055)" fill="#44bba4"/>
    <path id="Path_200" data-name="Path 200" d="M366.479,285.614c32.908,6.064,66.477,0,99.247-4.114l99.595-12.47c4.028-.511,9.888-2.918,12.258,2.008,1.334,2.756.435,8.728.537,11.9.263,8.728.237,17.457,0,26.187-.448,16.685-1.67,33.331-3.23,49.941-3.03,32.508-7.319,64.843-9.465,97.476-1.1,16.609-1.654,33.269-1.16,49.88.112,3.965.274,7.931.511,11.883.261,4.427,2.244,11-2.573,13.954-2.756,1.7-8.181,1.608-11.336,2.108-4.987.786-9.976,1.409-15.068,1.92-33.531,3.354-67.5,1.957-101.155,1.758l-101.629-.524-24.79-.138c-2.244,0-10.338,1.347-11.722-1.321-.586-1.136.972-6.446,1.248-7.868q.573-3.517,1.248-7.021c2.892-16.4,6.31-32.7,9.752-48.981,7.394-34.913,14.963-70.01,18.008-105.669,1.509-17.894.511-35.95,2.358-53.807.86-8.293,1.883-26.8,12.918-27.534,9.353-.623,18.978,0,28.357,0a1.871,1.871,0,1,0,0-3.741c-8.853,0-17.719-.237-26.573-.062-5.88.112-9.976,1.509-12.782,6.92-7.166,13.892-6.431,32.422-6.659,47.592-.537,36.3-6.11,71.826-13.368,107.327-3.653,17.87-7.595,35.676-11.224,53.557-1.709,8.543-3.342,17.109-4.838,25.7-.7,4.09-4.226,13.105-1.123,16.859s12.657,1.733,16.935,1.758l29.753.184,57.011.323c36.835.211,73.8,1.248,110.62.162,17.582-.524,36.163-1.248,53.289-5.45,5.1-1.248,7.556-3.591,7.756-9.028.3-8.429-1.073-17.12-1.248-25.588-1.248-72.449,15.773-143.888,14.028-216.363-.112-4.926,1.746-17.346-3.642-20.325-2.418-1.347-5.562-.61-8.105-.312-4.864.56-9.713,1.248-14.577,1.821l-63.16,7.881c-20.189,2.494-40.365,5.187-60.591,7.482-21.411,2.494-43.033,3.978-64.369,0-2.358-.437-3.366,3.168-1,3.6Z" transform="translate(-84.633 -23.274)" fill="#44bba4"/>
    <path id="Path_201" data-name="Path 201" d="M320.357,319.891l249.17-12.22c2.407-.125,2.42-3.859,0-3.741l-249.17,12.22C317.962,316.264,317.95,320.005,320.357,319.891Z" transform="translate(-78.215 -13.472)" fill="#44bba4"/>
    <path id="Path_202" data-name="Path 202" d="M381.9,294.389a6.235,6.235,0,0,0,2.205,10.062c3.354,1.534,7.3.25,10.625-.586,4.987-1.248,9.976-2.358,15.1-3.267a205.95,205.95,0,0,1,33.781-3.142c5.163-.062,10.29.184,15.45.4,3.741.149,7.769.448,10.935-1.871,3.616-2.644,4.789-7.806,1.248-11.025-4.987-4.552-15.737-1.907-21.5-1.433a482.071,482.071,0,0,0-62.175,9.278c-2.345.5-1.36,4.114,1,3.6q20.288-4.377,40.889-7.032,10.125-1.248,20.288-2.108c3.192-.263,6.385-.5,9.577-.685,1.248-.075,2.573-.211,3.841-.184,3.953.086,4.41-.623,2.045,4.153-2.108,4.226-1.433,3.741-5.088,3.6-1.545,0-3.093-.184-4.638-.25q-4.75-.2-9.5-.211-10.107,0-20.176.972c-5.687.551-11.36,1.321-16.984,2.319-3.517.623-7.008,1.347-10.487,2.144-1.534.368-3.08.735-4.614,1.123-.735.2-1.485.367-2.22.56q-4.09,1.422-6.97-3.741c1.67-1.733-.961-4.39-2.644-2.644Z" transform="translate(-62.99 -18.807)" fill="#44bba4"/>
    <path id="Path_203" data-name="Path 203" d="M429.554,335.251c-18.045-.7-37.534,4.177-49.417,18.7-9.3,11.36-14.6,30.85-4.752,43.643,10.586,13.717,33.811,11.3,47.809,5.45,14.814-6.235,31.025-19.092,35.477-35.178,5.549-20.088-12.47-35.281-31.238-35.5a1.872,1.872,0,0,0,0,3.741c10.7.125,21.2,4.713,26.187,14.676,5.224,10.5.724,21.523-6.235,29.928C436.237,394.1,418.8,404.185,401.048,403.9c-10.658-.162-22.446-3.817-25.749-15.068-2.718-9.116-.649-19.079,4.09-27.159,10.25-17.457,31.111-23.368,50.24-22.62,2.407.088,2.407-3.653,0-3.741Z" transform="translate(-65.482 -6.448)" fill="#44bba4"/>
    <path id="Path_204" data-name="Path 204" d="M404.708,359.377a4.864,4.864,0,0,0-6.534,4.987c.367,4.864,5.737,6.235,9.765,5.948,3.478-.3,7.545-1.584,6.323-5.935a5.585,5.585,0,0,0-3.043-3.517,7.045,7.045,0,0,0-3.517-.437c-.461,0-4.689,1.547-2.892-.312l-2.94-.386a3.067,3.067,0,0,1,.9,2.494,1.883,1.883,0,0,0,2.806,1.608,2.494,2.494,0,0,1,3.379,2.918,1.884,1.884,0,0,0,3.416,1.446c1.248-2.244,2.756-6.709.886-9.054-1.248-1.584-3.653-1.1-5.145-.184a18.049,18.049,0,0,0-2.573,2.205c-1.509,1.334-2.494,1.957-1.933-.6.935-4.651,5.375-8.355,9.427-10.213l-2.743-2.108a39.427,39.427,0,0,1-7.545,14.777l3.192,1.321a8.33,8.33,0,0,1,5.088-8.118h-1.837l.972,1.6c-.368,2.358,3.241,3.366,3.6.985.474-3.08-1.47-7.082-5.075-5.573-4.3,1.8-6.534,6.722-6.446,11.11,0,1.5,2.121,2.655,3.2,1.334a43.969,43.969,0,0,0,8.491-16.448,1.895,1.895,0,0,0-2.756-2.108,20.913,20.913,0,0,0-9.077,7.9c-1.521,2.494-3.429,6.385-1.883,9.252a3.965,3.965,0,0,0,5.424,1.534,14.6,14.6,0,0,0,3.124-2.494c.461-.412.972-1.123,1.584-1.248.551-.368.524-.162-.088.661a6.8,6.8,0,0,1-1.084,3.642l3.416,1.433a6.235,6.235,0,0,0-8.866-7.144l2.819,1.621a6.8,6.8,0,0,0-1.409-4.41,1.894,1.894,0,0,0-2.931-.386,4.892,4.892,0,0,0,.125,7.245c1.782,1.36,2.655,0,4.614-.312,6.646-.86,2.769,2.132.424,2.233a8.841,8.841,0,0,1-3.124-.224q-3.9-1.321-.487-3.405c2.233.919,3.192-2.707,1-3.6Z" transform="translate(-58.556 -2.867)" fill="#44bba4"/>
    <path id="Path_205" data-name="Path 205" d="M404.683,362.836c1.534,4.987-4.8,6.634-7.806,8.355a17.384,17.384,0,0,0-5.4,4.726c-3.142,4.215-4.315,9.577-5.349,14.627-.474,2.358,3.124,3.354,3.616,1a42.4,42.4,0,0,1,3.155-10.761c2.244-4.463,5.461-5.961,9.651-8.254s7.22-5.849,5.737-10.687c-.7-2.3-4.315-1.31-3.6,1Z" transform="translate(-61.535 0.51)" fill="#44bba4"/>
    <path id="Path_206" data-name="Path 206" d="M409.952,360.37a3.616,3.616,0,0,0-3.124,3.741c0,1.485.985,2.431,1.654,3.616A28.555,28.555,0,0,1,412.1,375.6c.6,2.681,1.185,7.482-.211,9.976-2.573,4.627-7.245,3.741-11.224,3.741-3.741,0-6.634,1.248-6.509-3.965.075-2.931,2.121-5.9,3.741-8.2l-3.416-.448a65.172,65.172,0,0,1,1.136,11.547c0,1.733,2.655,2.694,3.478.935a72.23,72.23,0,0,0,4.752-13.144l-3.675-.5.649,9.476a1.883,1.883,0,0,0,3.478.948,4.239,4.239,0,0,0,.935-1.683c.125-.586-1.022-4.539-1.485-3.124l3.675.5.263-9-3.741.5a18.629,18.629,0,0,1,.7,7.855c-.237,2.082,3.267,2.556,3.741.5l2.345-12.1-3.416.437a8.269,8.269,0,0,1,.636,5.388c-.274,2.389,3.467,2.369,3.741,0a13.142,13.142,0,0,0-1.147-7.269,1.883,1.883,0,0,0-3.416.448l-2.358,12.1,3.675.5a20.4,20.4,0,0,0-.836-8.84,1.871,1.871,0,0,0-3.675.487l-.261,9a1.88,1.88,0,0,0,3.675.5l.2-.61a1.9,1.9,0,0,0-.474-1.821c-3.877-4.215-4.664,2.493-6.01,4.351l3.491.948-.649-9.476a1.882,1.882,0,0,0-3.675-.5,67.046,67.046,0,0,1-4.364,12.258l3.491.948a70.5,70.5,0,0,0-1.248-12.545c-.323-1.72-2.572-1.654-3.416-.448-2.494,3.591-6.808,11.435-3.478,15.737,2.905,3.741,12.045,2.3,15.95,2.058,6.159-.349,8.392-4.252,9.065-10.062a24.641,24.641,0,0,0-.461-8.33c-.336-1.47-3.741-10.8-4.763-10.612,2.369-.436,1.36-4.052-1-3.616Z" transform="translate(-60.57 0.467)" fill="#44bba4"/>
    <path id="Path_207" data-name="Path 207" d="M402.373,368.145l-10.213,13.48,3.23,1.883,7.482-10.823-3.416-1.446-3.728,14.228a1.883,1.883,0,0,0,3.414,1.452,65.729,65.729,0,0,1,5.7-8.017l-3.124-1.821a20.362,20.362,0,0,1-4.7,8.636l3.124,1.821a16.722,16.722,0,0,1,1.36-4.987c.961-2.157-2.082-4.065-3.23-1.894a43.918,43.918,0,0,1-3.6,5.661l3.416.448.761-3.554-3.416-.448.551,3.124a1.884,1.884,0,0,0,3.124.823,37.235,37.235,0,0,0,7.482-11.284h-3.218a16.8,16.8,0,0,1,1.759,4.987c.448,2.245,3.429,1.409,3.675-.5a101.415,101.415,0,0,0,.823-12.594h-3.741v7.837c0,2.032,3.33,2.631,3.675.5a14.291,14.291,0,0,1,1.838-5.362h-3.28a8.316,8.316,0,0,1,1.248,4.239,1.871,1.871,0,0,0,3.741,0l.474-2.494h-3.592c.368,2.205,1.733,14.64-3.142,13.181-.823-.2-1.06-.149-.711.138l1.1-2.369,2.606-5.524-3.491-.948c.224,2.573.461,6.235-1.084,8.429a6.459,6.459,0,0,1-7.045,1.446,12.471,12.471,0,0,1-3.254-3.416l-2.556,2.493c2.069,1.509,5.424,5.213,8.085,5.424,2.032.162,3.741-1.522,5.075-2.868a21.735,21.735,0,0,0,6.1-16,1.871,1.871,0,1,0-3.741,0v4.265a1.871,1.871,0,0,0,3.741,0V365.824a1.871,1.871,0,1,0-3.741,0,44.89,44.89,0,0,1-.649,7.482l3.675.5a86.168,86.168,0,0,1-.412-8.965,1.871,1.871,0,0,0-3.675-.5c-.56,2.389-1.248,4.726-1.907,7.058l3.416-.448-.263-1c-.184-2.389-3.916-2.389-3.741,0a6.844,6.844,0,0,0,.774,2.892,1.891,1.891,0,0,0,3.416-.448c.711-2.345,1.347-4.689,1.907-7.058l-3.675-.5a86.164,86.164,0,0,0,.412,8.965c.184,1.92,3.28,2.743,3.675.5a51.545,51.545,0,0,0,.786-8.53h-3.741v10.463h3.741v-4.265h-3.741a17.983,17.983,0,0,1-4.552,12.819,15.3,15.3,0,0,1-1.571,1.545c-.886.847-1.7.724-2.407-.386a31.152,31.152,0,0,1-5.145-3.741c-1.545-1.1-3.675,1.084-2.573,2.556,2.868,3.817,7.144,8.069,12.47,6.235,5.6-1.983,6.36-9.555,5.935-14.551-.138-1.654-2.618-2.78-3.479-.935-1.248,2.631-2.493,5.25-3.741,7.9a6.984,6.984,0,0,0-1.123,3.293c.411,2.806,3.816,2.345,5.911,2.183,8.118-.61,6.834-12.128,5.9-17.907-.312-1.92-3.105-1.621-3.6,0a11.025,11.025,0,0,0-.612,3.541h3.741a14.824,14.824,0,0,0-1.759-6.123,1.883,1.883,0,0,0-3.23,0,18.193,18.193,0,0,0-2.22,6.235l3.741.5v-7.843a1.871,1.871,0,1,0-3.741,0,101.4,101.4,0,0,1-.823,12.594l3.675-.5a21.412,21.412,0,0,0-2.132-5.836,1.884,1.884,0,0,0-3.23,0,34.119,34.119,0,0,1-6.9,10.525l3.124.823-.551-3.124c-.287-1.654-2.631-1.709-3.416-.448a8.2,8.2,0,0,0-1.134,6.431c.312,1.771,2.556,1.584,3.416.448a43.766,43.766,0,0,0,3.6-5.649l-3.23-1.894a21.273,21.273,0,0,0-1.746,5.88c-.224,1.654,1.733,3.366,3.124,1.821a24.939,24.939,0,0,0,5.661-10.3c.461-1.7-1.883-3.308-3.124-1.821a71.434,71.434,0,0,0-6.235,8.728l3.416,1.446,3.8-14.178a1.884,1.884,0,0,0-3.416-1.446l-7.482,10.841c-1.4,2.008,1.808,3.741,3.23,1.883l10.174-13.467c1.446-1.92-1.8-3.741-3.23-1.894Z" transform="translate(-60.234 1.099)" fill="#44bba4"/>
    <path id="Path_208" data-name="Path 208" d="M528.331,429.268c14.963-9.153,26.859-22.808,40.078-34.23,14.333-12.383,29.391-23.917,44.891-34.84,30.1-21.2,61.714-40.165,93.3-59.082a1.871,1.871,0,0,0-1.883-3.23c-31.586,18.917-63.212,37.853-93.312,59.082-14.2,9.976-28.07,20.551-41.363,31.773-14.465,12.22-27.346,27.434-43.645,37.3-2.058,1.248-.184,4.489,1.884,3.23Z" transform="translate(-27.104 -15.021)" fill="#44bba4"/>
    <path id="Path_209" data-name="Path 209" d="M719.378,253.853c-16.211,1.654-33.669,5.774-43.643,19.952-8.616,12.2-8.429,33.469-.336,45.988,9.188,14.228,27.969,14.739,42.559,10.138s29.691-12.67,29.553-30.1c-.075-9.353-3.455-19.092-7.183-27.563-3.217-7.319-8.916-13.717-17.545-12.907-2.389.224-2.407,3.965,0,3.741,11.56-1.073,15.276,12.657,18.019,21.315,2.494,8.085,4.8,17.67.886,25.713s-13.355,12.146-21.424,15.088c-8.728,3.168-18.318,5.1-27.435,2.494-18.056-5.049-23.045-27.931-17.844-44.167,5.985-18.7,27.185-24.2,44.456-25.95,2.369-.237,2.389-3.978,0-3.741Z" transform="translate(8.413 -25.844)" fill="#44bba4"/>
    <path id="Path_210" data-name="Path 210" d="M739.378,369.853c-16.211,1.654-33.669,5.774-43.643,19.952-8.616,12.2-8.429,33.469-.336,45.988,9.188,14.228,27.969,14.739,42.559,10.138s29.691-12.67,29.553-30.1c-.075-9.353-3.455-19.092-7.183-27.563-3.217-7.319-8.916-13.717-17.545-12.907-2.389.224-2.407,3.965,0,3.741,11.56-1.073,15.275,12.657,18.019,21.315,2.494,8.085,4.8,17.67.886,25.713s-13.355,12.146-21.424,15.088c-8.728,3.168-18.318,5.1-27.433,2.494-18.056-5.05-23.045-27.931-17.844-44.167,5.985-18.7,27.185-24.2,44.456-25.95,2.369-.237,2.389-3.978,0-3.741Z" transform="translate(13.352 2.806)" fill="#44bba4"/>
    <path id="Path_211" data-name="Path 211" d="M689.942,295.693,701.75,309.16a1.883,1.883,0,0,0,3.124-.836c2.494-6.56,2.021-13.355,2.606-20.251a66.677,66.677,0,0,1,5.3-20.663,69.742,69.742,0,0,1,27.907-31.984c2.058-1.248.184-4.489-1.884-3.23a73.22,73.22,0,0,0-28.219,31,71.668,71.668,0,0,0-6.235,19.79c-1.248,8.085-.112,16.573-3.106,24.342l3.124-.836-11.747-13.442c-1.6-1.808-4.226.847-2.644,2.644Z" transform="translate(13.397 -31.26)" fill="#44bba4"/>
    <path id="Path_212" data-name="Path 212" d="M532.959,416q96.471-2.94,193.008-1.248a1.872,1.872,0,0,0,0-3.741q-96.5-1.722-193.008,1.248C530.552,412.338,530.539,416.077,532.959,416Z" transform="translate(-25.708 12.821)" fill="#44bba4"/>
    <path id="Path_213" data-name="Path 213" d="M698.4,386.052A386.462,386.462,0,0,1,761.581,417.8c2.045,1.246,3.928-1.957,1.883-3.23a390.579,390.579,0,0,0-64.02-32.122c-2.233-.886-3.2,2.73-.985,3.6Z" transform="translate(15.304 5.886)" fill="#44bba4"/>
    <path id="Path_214" data-name="Path 214" d="M737.443,371.842a152.753,152.753,0,0,0-36.674,92.937c-.1,2.407,3.64,2.407,3.741,0a148.564,148.564,0,0,1,35.577-90.293C741.646,372.666,739.015,370.01,737.443,371.842Z" transform="translate(16.183 3.15)" fill="#44bba4"/>
    <path id="Path_215" data-name="Path 215" d="M330.6,405.186l139.375-1.821L486,403.154c2.881,0,5.761-.1,8.637-.112a6.872,6.872,0,0,1,6.709,7.482c-.184,8.728-5.674,8.418-12.863,8.728l-17.321.786-70.528,3.105c-12.631.56-25.275,1.248-37.908,1.683-11.393.349-33.076-3.366-28.008-19.952.7-2.306-2.905-3.293-3.616-1-2.493,8.155,1.92,16.435,9.028,20.713,10.088,6.064,23.381,4,34.516,3.5l86.59-3.929,21.023-.935c5.388-.25,12.881.847,17.824-1.654,5.81-2.931,6.834-14.564,3.168-19.465-1.883-2.494-4.526-2.718-7.482-2.83-7.756-.3-15.65.211-23.418.312l-43.171.573-98.648,1.248a1.872,1.872,0,0,0,0,3.741Z" transform="translate(-75.701 10.059)" fill="#44bba4"/>
    <g id="Group_28" data-name="Group 28" transform="translate(800.5 280.1)">
      <path id="Path_216" data-name="Path 216" d="M785.284,776.734c-3.142,1.97-6.733,3.08-9.976,4.813s-6.4,4.34-7.319,7.931a4.988,4.988,0,0,0,.161,3.392,6.584,6.584,0,0,0,3.492,2.769,52.985,52.985,0,0,0,41.91.474,55.17,55.17,0,0,1,7.233-2.868,46.982,46.982,0,0,1,9.265-.948,71.231,71.231,0,0,0,9.739-1.248,8.569,8.569,0,0,0,4.41-1.837,8.193,8.193,0,0,0,1.983-4.763,39.217,39.217,0,0,0-6.235-27.784,9.387,9.387,0,0,0-2.718-2.881,10.488,10.488,0,0,0-4.327-1.159c-6.235-.761-12.769-2.157-19.066-2.306-4.515-.1-6.784,2.045-9.976,5.145C797.26,762.07,793.406,771.659,785.284,776.734Z" transform="translate(-767.767 -183.325)" fill="#323444"/>
      <path id="Path_217" data-name="Path 217" d="M855.645,775.928c0,6.11.735,12.582,4.44,17.457a23.066,23.066,0,0,0,6.064,5.3c7.832,4.987,18.206,6.821,26.461,2.593a7.855,7.855,0,0,0,3.293-2.767c1.248-2.17.586-4.875-.112-7.269l-11.944-41.4c-7.718,1.185-19.066,2.021-25.924,5.935C852.939,758.607,855.645,770.465,855.645,775.928Z" transform="translate(-746.246 -183.441)" fill="#323444"/>
      <path id="Path_218" data-name="Path 218" d="M777.423,568.573c-.724,2.282-3.342,3.342-4.778,5.263a9.989,9.989,0,0,0-.9,8.131,21.5,21.5,0,0,0,5.474,10.786,12.932,12.932,0,0,0,11.222,3.817,9.351,9.351,0,0,0,7.618-8.392,15.884,15.884,0,0,0-1.172-5.4L786.4,558.186a.93.93,0,0,0-1.534-.673c-2.008.948-6.036,1.946-7.207,4.028S778.27,566.313,777.423,568.573Z" transform="translate(-766.921 -231.007)" fill="#fbb3b2"/>
      <path id="Path_219" data-name="Path 219" d="M773,569.374c3.105-.487,5.823-2.306,8.728-3.5s6.547-1.654,8.991.336c.7.573,1.371,1.36,2.282,1.347a89.279,89.279,0,0,0-5.586-17.756,1.384,1.384,0,0,0-.487-.685,1.41,1.41,0,0,0-1.061,0l-8.392,2.194c-3.105.81-3.467.56-3.23,3.616C774.31,556.279,775.008,569.374,773,569.374Z" transform="translate(-766.477 -233.042)" fill="#323444"/>
      <path id="Path_220" data-name="Path 220" d="M773.25,423.037A11.819,11.819,0,0,0,772,429.608a223.415,223.415,0,0,0,1.746,33.057c.386,2.618.873,5.237,1.123,7.881a90.917,90.917,0,0,1,.184,11.06l-1.248,48.009c-.151,5.88-.448,12.183-4.078,16.8a8.03,8.03,0,0,0-1.459,5.329c.948,12.045,2.94,23.993,4.926,35.9a22.185,22.185,0,0,1,20.126.961,221.544,221.544,0,0,0,10.338-61.1c.287-10.213-.149-20.488,1.422-30.576,2.631-16.984,1.558-34.4-.368-51.488-.612-5.412-1.907-10.987-5.375-15.176a23.006,23.006,0,0,0-12.47-7.183C782.241,421.865,778.114,423.113,773.25,423.037Z" transform="translate(-767.65 -264.276)" fill="#5b5583"/>
      <path id="Path_221" data-name="Path 221" d="M773.25,423.037A11.819,11.819,0,0,0,772,429.608a223.415,223.415,0,0,0,1.746,33.057c.386,2.618.873,5.237,1.123,7.881a90.917,90.917,0,0,1,.184,11.06l-1.248,48.009c-.151,5.88-.448,12.183-4.078,16.8a8.03,8.03,0,0,0-1.459,5.329c.948,12.045,2.94,23.993,4.926,35.9a22.185,22.185,0,0,1,20.126.961,221.544,221.544,0,0,0,10.338-61.1c.287-10.213-.149-20.488,1.422-30.576,2.631-16.984,1.558-34.4-.368-51.488-.612-5.412-1.907-10.987-5.375-15.176a23.006,23.006,0,0,0-12.47-7.183C782.241,421.865,778.114,423.113,773.25,423.037Z" transform="translate(-767.65 -264.276)" opacity="0.1"/>
      <path id="Path_222" data-name="Path 222" d="M785.287,537.918a220.229,220.229,0,0,0,13.118,127.49,34.572,34.572,0,0,1,3.043,9.427c.685,6.11-2.132,11.982-3.742,17.894-3.741,13.442-1.584,27.758.81,41.512q1.5,8.6,3.08,17.2c1.034,5.586,2.032,11.659-.56,16.722,2.233,9.3,3.554,18.517,5.786,27.82a5.291,5.291,0,0,1,.211,2.282,6.722,6.722,0,0,1-2.282,3.056,13.642,13.642,0,0,0-3.478,13.056c5.7-4.09,13.642-2.655,20.15,0s12.918,6.235,19.952,6.235c-1.022-8.254-2.009-16.922,1.035-24.665,1.771-4.489,4.888-8.728,4.8-13.53-.088-4.3-2.718-8.142-3.354-12.394a31.365,31.365,0,0,1,.3-7.931c1.67-15.263-.224-30.676-2.121-45.915a27.437,27.437,0,0,0-2.095-8.728,12.888,12.888,0,0,1-2.183-5.524c0-2.332,1.884-4.226,2.573-6.446,1.248-4.09-1.047-9.653,2.407-12.183,9.1-6.683,5.612-22.646,5.412-33.93q-.237-14.6-1.248-29.18a124.288,124.288,0,0,1,6.883,50.3c-.4,5.586-1.134,11.459,1.047,16.623,1.67,3.965,4.987,7.232,5.88,11.435a47.841,47.841,0,0,1,.287,7.918,8.16,8.16,0,0,0,3.308,6.858c.184,12.021,1.248,24.876,1.433,36.9a91,91,0,0,0,1.5,18.331,23.375,23.375,0,0,1,.919,5.911,24.7,24.7,0,0,1-1.97,7.269,41.687,41.687,0,0,0,6.235,38.469c2.94-5.224,9.077-7.993,15.068-8.429s11.9,1.073,17.7,2.593a34.655,34.655,0,0,1,4.14-21.075,17.24,17.24,0,0,0,2.183-4.689c.673-3.168-.9-6.323-1.746-9.452-1.384-4.987-.9-10.362-.573-15.575a246.454,246.454,0,0,0-2.306-52.273,44.3,44.3,0,0,0-2.389-9.976c-.448-1.146-1-2.243-1.371-3.4a26.83,26.83,0,0,1-1-6.384l-1.417-19.952c-1.011-13.978,3.58-27.784,6.784-41.426,1.433-6.11,2.993-12.208,3.953-18.418,1.31-8.453,1.521-17.089,3.442-25.439,1.72-7.483,4.825-14.777,5.474-22.446,1-11.883-3.94-23.368-8.728-34.266-2-4.489-9.539-4.043-14.39-4.838-34.4-5.648-70.64-5.685-103.086,7.045a25.651,25.651,0,0,0-8.87,6.127Z" transform="translate(-764.45 -239.932)" fill="#3c354c"/>
      <path id="Path_223" data-name="Path 223" d="M805.374,359.138l3.817,14.84a39.657,39.657,0,0,1,1.709,10.487,7.746,7.746,0,0,1-.836,3.741,8.913,8.913,0,0,1-2.369,2.418c-2.606,1.983-4.41,6.615-7.394,7.98,1.534,2.668,3.653.935,6.422,2.269,4.875,2.369,9.34,5.774,14.627,6.946,4.987,1.1,10.226.062,15.176-1.248a52.405,52.405,0,0,0,19.653-9.14c5.648-4.594,8.866-8.666,8.84-15.937-6.235.735-11.784-5.562-14.541-11.224a30.5,30.5,0,0,1-2.095-6.722l-3.342-14.7c-3.642.8-6.615,3.4-10.088,4.763a36.625,36.625,0,0,1-11.459,1.654,123.461,123.461,0,0,0-20.4,2.644c-.919.184-2.082.774-1.858,1.67" transform="translate(-759.734 -282.477)" fill="#fbb3b2"/>
      <path id="Path_224" data-name="Path 224" d="M805.374,359.138l3.817,14.84a39.657,39.657,0,0,1,1.709,10.487,7.746,7.746,0,0,1-.836,3.741,8.913,8.913,0,0,1-2.369,2.418c-2.606,1.983-4.41,6.615-7.394,7.98,1.534,2.668,3.653.935,6.422,2.269,4.875,2.369,9.34,5.774,14.627,6.946,4.987,1.1,10.226.062,15.176-1.248a52.405,52.405,0,0,0,19.653-9.14c5.648-4.594,8.866-8.666,8.84-15.937-6.235.735-11.784-5.562-14.541-11.224a30.5,30.5,0,0,1-2.095-6.722l-3.342-14.7c-3.642.8-6.615,3.4-10.088,4.763a36.625,36.625,0,0,1-11.459,1.654,123.461,123.461,0,0,0-20.4,2.644c-.919.184-2.082.774-1.858,1.67" transform="translate(-759.734 -282.477)" opacity="0.1"/>
      <circle id="Ellipse_30" data-name="Ellipse 30" cx="33.021" cy="33.021" r="33.021" transform="translate(29.006 18.801)" fill="#fbb3b2"/>
      <path id="Path_225" data-name="Path 225" d="M832.395,385.473a29.931,29.931,0,0,1,7.483-9.976c4.651-4.077,11.01-7.381,12.107-13.467l10.075,11.734a5.43,5.43,0,0,1,1.248,1.92,4.839,4.839,0,0,1-.948,3.877c-2.494,3.978-6.422,6.821-10.138,9.7a307.835,307.835,0,0,0-24.428,21.547,2.5,2.5,0,0,1-1.31.8,2.356,2.356,0,0,1-1.36-.386,56.724,56.724,0,0,1-17.42-14.166c-.367-.437-.81-.935-1.4-.9a1.8,1.8,0,0,0-.935.487c-3.355,2.744-7.021,6.024-11.323,5.6,5.573-4,8.728-10.687,9.9-17.457a32.992,32.992,0,0,1,1.422-6.821,7.121,7.121,0,0,1,4.864-4.614c-2.718,4.153-.86,10.039,2.793,13.392a27.534,27.534,0,0,0,12.37,6C829.64,393.542,830.893,388.74,832.395,385.473Z" transform="translate(-761.28 -279.222)" fill="#323444"/>
      <path id="Path_226" data-name="Path 226" d="M793.424,542.072c4.7,1.159,9.153,3.124,13.717,4.594a65.553,65.553,0,0,0,25.749,2.707,13.9,13.9,0,0,0,7.482-2.389c.586-.474,1.123-1.035,1.746-1.47a12.2,12.2,0,0,1,3.353-1.384c11.435-3.579,21.012-11.3,30.3-18.855.3-.25.636-.56.61-.961a1.247,1.247,0,0,0-.367-.711l-4.892-5.6c-12.819,2.183-25.95,1.36-38.956,1.035a56.552,56.552,0,0,0-8.006.211c-2.573.3-5.1.948-7.631,1.5-9.614,2.095-19.441,2.892-29.18,4.265a4.5,4.5,0,0,0-1.933.6,4.356,4.356,0,0,0-1.035,1.147l-3.416,4.8a15.1,15.1,0,0,0-2.868,5.5c-.8,3.741.873,4.987,4.054,4.5a29.6,29.6,0,0,1,11.272.517Z" transform="translate(-765.267 -240.701)" fill="#323444"/>
      <path id="Path_227" data-name="Path 227" d="M833.4,402.768a60.746,60.746,0,0,0-12.863-10.039,18.217,18.217,0,0,0-6.235-2.494,7.782,7.782,0,0,0-6.384,1.571c-1.1.985-1.808,2.358-2.881,3.392a14.332,14.332,0,0,1-4.565,2.572,80.949,80.949,0,0,0-16.036,9.14,36.782,36.782,0,0,0-7.269,6.709c-5.649,7.233-6.5,17.071-6.347,26.249.112,6.384,6.235,11.123,10.45,15.9a117.127,117.127,0,0,1,10.7,14.963c2.269,3.591,4.638,7.482,4.351,11.76-.237,3.5-2.282,6.8-1.957,10.29.112,1.248.511,2.389.623,3.6.224,2.494-.761,4.987-1.011,7.482-.336,3.528.81,7.032.873,10.586a33.682,33.682,0,0,1-.919,7.22c-2.389,11.393-5.4,22.857-4.789,34.491l-6.909,1.247a5.836,5.836,0,0,1-1.334,9.315c10.786,3.6,22.446,1.782,33.881,1.771,9.465,0,18.892,1.248,28.344,1.073s19.2-1.884,27-7.233c2.12-1.446,4.065-3.142,6.3-4.41a31.064,31.064,0,0,1,9.539-3.124,94.664,94.664,0,0,1,18.7-1.67c3.067,0,6.409.125,8.853-1.72,2.694-2.045,3.379-5.748,3.741-9.1q.551-5.311.649-10.658a45.923,45.923,0,0,0-.437-8.28,54.177,54.177,0,0,0-1.459-5.935l-4.7-16.56c-1.946-6.834.761-14.333,1.334-21.411a5.37,5.37,0,0,0-1.123-4.689c-.461-.386-1.1-.649-1.248-1.248a2.131,2.131,0,0,1,.3-1.67,92.314,92.314,0,0,1,9.651-13.892,283.869,283.869,0,0,0,15.961-24.527A78.922,78.922,0,0,0,915.05,386.2a22.853,22.853,0,0,0-8.84-6.521,26.187,26.187,0,0,0-7.032-1.136c-9.776-.662-19.952-1.248-28.469-6.159a5.413,5.413,0,0,0-2.032-.86c-1.883-.211-3.254,1.654-4.476,3.124-3.142,3.741-7.769,5.88-11.834,8.636C844.8,388.466,838.873,395.548,833.4,402.768Z" transform="translate(-767.022 -276.889)" fill="#5b5583"/>
      <path id="Path_228" data-name="Path 228" d="M913.735,428.1c1.946,6.159,1.758,12.743,2.389,19.165a74.615,74.615,0,0,0,2.032,11.485,18.332,18.332,0,0,0,2.368,5.849,25.738,25.738,0,0,1,3.442,4.838,11.677,11.677,0,0,1,.511,3.89l.149,8.6A30.941,30.941,0,0,1,922.6,495.32l-5.375,16.354c-2.905,8.853-5.88,17.844-11.123,25.542a7.367,7.367,0,0,1-3.2,3,15.551,15.551,0,0,1-3.231.5,8.306,8.306,0,0,0-6.836,8.072,18.945,18.945,0,0,0-4.594-4.7L877.3,535.363a46.744,46.744,0,0,0-12.183-7.9A33.031,33.031,0,0,0,888.088,499.7a12.473,12.473,0,0,1,1.248-5.461c.919-1.47,2.595-2.595,2.718-4.327.149-2.183-2.319-3.828-2.319-6.011,0-1.446,1.073-2.644,1.547-4a10.053,10.053,0,0,0,0-5.125l-1.509-8.379a6.4,6.4,0,0,0-.748-2.389,15.493,15.493,0,0,0-1.871-1.97c-2.593-2.905-1.446-7.482,0-11.06A105.716,105.716,0,0,1,899.9,428.621a76.451,76.451,0,0,0,5.075-7.258c1.321-2.3,1.621-5.474,3.017-7.482C909.769,418.593,912.2,423.244,913.735,428.1Z" transform="translate(-743.72 -266.416)" fill="#5b5583"/>
      <path id="Path_229" data-name="Path 229" d="M866.2,505.607a6,6,0,0,0-1.422,1.5,12.608,12.608,0,0,1-5.648,4.028c1.248.9,2.389,1.782,3.554,2.694a155.74,155.74,0,0,1,23.693,22.657c.787-2.806,5.487-2.606,6.634-5.287a5.178,5.178,0,0,0,.25-2.389,73.028,73.028,0,0,0-1.8-12.469,14.116,14.116,0,0,0-2.493-5.836,14.965,14.965,0,0,0-7.058-3.991C877.985,505.133,870.19,503.2,866.2,505.607Z" transform="translate(-745.204 -244.043)" fill="#323444"/>
      <path id="Path_230" data-name="Path 230" d="M856.29,514.031c-3.741,2.767-7.021,6.235-11.222,8.129-2.968,1.347-6.347,1.933-8.941,3.94a8.884,8.884,0,0,0,8.48,4.594,20.152,20.152,0,0,0,9.489-3.479c2.233-1.371,4.851-2.968,7.282-2.008.368,1.894-1.248,3.675-1.248,5.6a5.644,5.644,0,0,0,3.168,4.327c7.482,4.825,17.109,4.427,26.025,3.859a2.343,2.343,0,0,0,1.433-.425,2.256,2.256,0,0,0,.537-1.654c.112-1.97.162-3.929.184-5.9a8.453,8.453,0,0,0-3.616-8.329,101.745,101.745,0,0,0-15.588-11.036C866.783,508.482,861.222,510.366,856.29,514.031Z" transform="translate(-750.887 -242.668)" fill="#fbb3b2"/>
      <path id="Path_231" data-name="Path 231" d="M828.6,326.127c-5.537.661-9.555,4.987-9,9.689s5.5,7.944,11.036,7.269,9.555-4.987,9-9.676S834.14,325.465,828.6,326.127Zm1.883,15.661c-4.689.56-8.866-2.194-9.353-6.159s2.94-7.631,7.619-8.194,8.866,2.194,9.353,6.159S835.165,341.226,830.487,341.788Z" transform="translate(-754.98 -288.111)" fill="#3c354c"/>
      <path id="Path_232" data-name="Path 232" d="M806.963,328.727c-5.537.661-9.555,4.987-9,9.676s5.5,7.944,11.036,7.282,9.555-4.987,9-9.689S812.5,328.066,806.963,328.727Zm1.884,15.65c-4.69.56-8.866-2.194-9.34-6.148s2.931-7.631,7.618-8.2,8.866,2.194,9.34,6.159-2.942,7.633-7.618,8.184Z" transform="translate(-760.326 -287.468)" fill="#3c354c"/>
      <path id="Path_233" data-name="Path 233" d="M663.378,259.64l12.034,2.573-1.185,3.168-11.347-3.33Z" transform="translate(-636.779 -215.975)" fill="#3c354c"/>
      <path id="Path_234" data-name="Path 234" d="M719.269,253.18l-11.1,5.349,1.907,2.793,10.237-5.922Z" transform="translate(-625.595 -217.571)" fill="#3c354c"/>
      <path id="Path_235" data-name="Path 235" d="M687.31,261.261l8.442-1.011-.435,2.095-7.245.487Z" transform="translate(-630.747 -215.824)" fill="#3c354c"/>
      <path id="Path_236" data-name="Path 236" d="M804.049,338.229a13.391,13.391,0,0,0,1.248-5.45,11.629,11.629,0,0,1,.573-3.317,9.282,9.282,0,0,1,2.718-3.478,25.149,25.149,0,0,1,14.963-5.224,34.591,34.591,0,0,1,17.308,3.741,13.463,13.463,0,0,1,4.3,3.192c1.746,2.132,2.12,4.888,3.877,7a10.188,10.188,0,0,0,9.555,2.993c.612-2.17-.184-4.463.125-6.683a32.311,32.311,0,0,1,1.983-5.537,13.609,13.609,0,0,0-6.7-15.713,25.847,25.847,0,0,1-5.961-3.741,28.226,28.226,0,0,1-2.931-5.112c-2.78-4.452-9.976-6.534-15.45-4.476-1.722.649-3.242,1.634-4.987,2.332a41.117,41.117,0,0,1-10.5,2.021A32.159,32.159,0,0,0,804,303.44a11.393,11.393,0,0,0-6.372,6.884c-.336,1.347-.263,2.743-.6,4.077-1.722,6.771-12.832,10.062-13.454,16.971a9.9,9.9,0,0,0,2.832,6.92c1.172,1.384,3.978,5.088,5.961,5.625s3.491-1.347,5.388-2C800.743,340.983,802.548,340.785,804.049,338.229Z" transform="translate(-763.856 -295.622)" fill="#cbceda"/>
    </g>
    <path id="Path_237" data-name="Path 237" d="M912.81,682c0,62.649,39.3,113.35,87.875,113.35" transform="translate(68.553 79.904)" fill="#46455b"/>
    <path id="Path_238" data-name="Path 238" d="M983.28,795.612c0-63.358,43.869-114.622,98.075-114.622" transform="translate(85.959 79.654)" fill="#44bba4"/>
    <path id="Path_239" data-name="Path 239" d="M938.35,686.56c0,59.518,25.064,107.68,56.027,107.68" transform="translate(74.862 81.029)" fill="#44bba4"/>
    <path id="Path_240" data-name="Path 240" d="M983.28,801.92c0-80.955,50.7-146.47,113.351-146.47" transform="translate(85.959 73.347)" fill="#46455b"/>
    <ellipse id="Ellipse_31" data-name="Ellipse 31" cx="21.846" cy="3.692" rx="21.846" ry="3.692" transform="translate(1043.588 889.532)" fill="#44bba4" opacity="0.1"/>
    <path id="Path_241" data-name="Path 241" d="M968.46,774.886s12.469-.386,16.211-3.056,19.165-5.88,20.1-1.584,18.7,21.336,4.651,21.448-32.7-2.194-36.436-4.476S968.46,774.886,968.46,774.886Z" transform="translate(82.298 101.179)" fill="#a8a8a8"/>
    <path id="Path_242" data-name="Path 242" d="M1009.685,788.862c-14.066.112-32.683-2.194-36.436-4.476-2.856-1.733-3.991-7.98-4.377-10.842h-.412s.785,10.051,4.539,12.332,22.37,4.594,36.436,4.476c4.065,0,5.461-1.485,5.388-3.616C1014.261,788.026,1012.778,788.838,1009.685,788.862Z" transform="translate(82.298 102.515)" opacity="0.2"/>
    <path id="Path_243" data-name="Path 243" d="M148.31,711.36c0,49.88,31.262,90.181,69.905,90.181" transform="translate(-120.261 87.155)" fill="#46455b"/>
    <path id="Path_244" data-name="Path 244" d="M204.37,801.742c0-50.4,34.913-91.192,78.024-91.192" transform="translate(-106.416 86.954)" fill="#44bba4"/>
    <path id="Path_245" data-name="Path 245" d="M168.62,715c0,47.385,19.952,85.668,44.579,85.668" transform="translate(-115.245 88.054)" fill="#44bba4"/>
    <path id="Path_246" data-name="Path 246" d="M204.37,806.759c0-64.406,40.34-116.529,90.181-116.529" transform="translate(-106.416 81.937)" fill="#46455b"/>
    <ellipse id="Ellipse_32" data-name="Ellipse 32" cx="17.383" cy="2.944" rx="17.383" ry="2.944" transform="translate(77.541 900.045)" fill="#44bba4" opacity="0.1"/>
    <path id="Path_247" data-name="Path 247" d="M192.58,785.266s9.914-.312,12.894-2.494,15.263-4.677,16-1.248,14.9,16.972,3.741,17.058-26.012-1.746-28.993-3.554S192.58,785.266,192.58,785.266Z" transform="translate(-109.328 104.066)" fill="#a8a8a8"/>
    <path id="Path_248" data-name="Path 248" d="M225.376,796.419c-11.224.086-26.012-1.746-28.993-3.567-2.269-1.371-3.168-6.347-3.478-8.636h-.323s.623,7.993,3.6,9.814,17.808,3.642,28.993,3.554c3.23,0,4.351-1.172,4.289-2.881C229.016,795.708,227.781,796.344,225.376,796.419Z" transform="translate(-109.327 105.147)" opacity="0.2"/>
  </g>
</svg>
