<svg xmlns="http://www.w3.org/2000/svg" width="1169.25" height="750.898" viewBox="0 0 1169.25 750.898">
  <g id="sup7" transform="translate(-996.543 -4324.646)">
    <path id="Path_578" data-name="Path 578" d="M1274.7,743.509H264.868a33.86,33.86,0,0,1-33.86-33.86h0q549.1-63.815,1077.55,0h0A33.86,33.86,0,0,1,1274.7,743.509Z" transform="translate(835.642 4332.036)" fill="#ccc"/>
    <path id="Path_579" data-name="Path 579" d="M1308.555,892.924,231.008,890.932,355.892,680.8l.6-1V216.7a42.8,42.8,0,0,1,42.809-42.8h735a42.8,42.8,0,0,1,42.8,42.809v466.29Z" transform="translate(835.642 4150.754)" fill="#e6e6e6"/>
    <path id="Path_580" data-name="Path 580" d="M357.737,195.864a13.958,13.958,0,0,0-13.943,13.943V632.063a13.959,13.959,0,0,0,13.943,13.943h742.934a13.959,13.959,0,0,0,13.942-13.943V209.807a13.958,13.958,0,0,0-13.943-13.943Z" transform="translate(876.221 4158.657)" fill="#fff"/>
    <path id="Path_581" data-name="Path 581" d="M369.4,567.913a5.991,5.991,0,0,0-5.429,3.477L325.5,655.045a5.981,5.981,0,0,0,5.429,8.473h809.222a5.981,5.981,0,0,0,5.343-8.647l-41.828-83.654a5.944,5.944,0,0,0-5.343-3.3Z" transform="translate(869.445 4292.52)" fill="#ccc"/>
    <circle id="Ellipse_44" data-name="Ellipse 44" cx="8.962" cy="8.962" r="8.962" transform="translate(1593.475 4329.626)" fill="#fff"/>
    <path id="Path_582" data-name="Path 582" d="M570.668,649.94a5.981,5.981,0,0,0-5.77,4.421l-9.653,35.851a5.982,5.982,0,0,0,5.77,7.53h183.57a5.982,5.982,0,0,0,5.645-7.929l-12.409-35.851a5.982,5.982,0,0,0-5.647-4.021Z" transform="translate(952.228 4322.032)" fill="#ccc"/>
    <path id="Path_583" data-name="Path 583" d="M983.378,366.923v7.968H162.169l.618-1v-6.972Z" transform="translate(1029.365 4456.662)" fill="#ccc"/>
    <path id="Path_584" data-name="Path 584" d="M853.233,554.238a1.455,1.455,0,0,0-1.4,1.077l-2.351,8.73a1.455,1.455,0,0,0,1.4,1.833h44.7a1.455,1.455,0,0,0,1.374-1.932l-3.022-8.73a1.455,1.455,0,0,0-1.376-.98Z" transform="translate(1058.148 4287.598)" fill="#ccc"/>
    <path id="Path_585" data-name="Path 585" d="M805.233,554.238a1.455,1.455,0,0,0-1.4,1.077l-2.351,8.73a1.455,1.455,0,0,0,1.4,1.833h44.7a1.455,1.455,0,0,0,1.374-1.932l-3.022-8.73a1.455,1.455,0,0,0-1.376-.98Z" transform="translate(1040.877 4287.598)" fill="#ccc"/>
    <path id="Path_586" data-name="Path 586" d="M690.5,718.942H694L687,250.644h-3.5l.139,9.342H605.107l.139-9.342h-3.5l-7.006,468.3h3.5l.454-30.363h91.349Zm-5.05-337.5H603.292l.857-57.228h80.445Zm.052,3.5.857,57.228H602.382l.857-57.228Zm.909,60.728.857,57.228h-85.8l.857-57.228Zm.909,60.727.857,57.228h-87.61l.857-57.228Zm.909,60.728.857,57.228H599.656l.857-57.228Zm-4.543-303.634.857,57.228H604.2l.857-57.228ZM598.748,685.074l.857-57.228h89.532l.857,57.228Z" transform="translate(966.51 4178.367)" fill="#3f3d56"/>
    <circle id="Ellipse_45" data-name="Ellipse 45" cx="57.129" cy="57.129" r="57.129" transform="translate(1536.396 4476.055)" fill="#2f2e41"/>
    <rect id="Rectangle_1623" data-name="Rectangle 1623" width="17.356" height="31.095" transform="translate(1610.052 4575.757) rotate(-10.261)" fill="#2f2e41"/>
    <rect id="Rectangle_1624" data-name="Rectangle 1624" width="17.356" height="31.095" transform="translate(1575.896 4581.942) rotate(-10.261)" fill="#2f2e41"/>
    <ellipse id="Ellipse_46" data-name="Ellipse 46" cx="14.462" cy="5.424" rx="14.462" ry="5.424" transform="matrix(0.763, -0.646, 0.646, 0.763, 1572.455, 4620.042)" fill="#2f2e41"/>
    <ellipse id="Ellipse_47" data-name="Ellipse 47" cx="14.464" cy="5.424" rx="14.464" ry="5.424" transform="matrix(0.763, -0.646, 0.646, 0.763, 1605.899, 4613.989)" fill="#2f2e41"/>
    <circle id="Ellipse_48" data-name="Ellipse 48" cx="19.525" cy="19.525" r="19.525" transform="translate(1570.001 4499.681)" fill="#fff"/>
    <circle id="Ellipse_49" data-name="Ellipse 49" cx="6.508" cy="6.508" r="6.508" transform="translate(1574.993 4505.7)" fill="#3f3d56"/>
    <path id="Path_587" data-name="Path 587" d="M673.993,292.142c.858-21.15-17.369-39.064-40.714-40.012s-42.966,15.429-43.824,36.579,15.369,25.955,38.713,26.9S673.126,313.292,673.993,292.142Z" transform="translate(964.599 4178.886)" fill="#6c63ff"/>
    <ellipse id="Ellipse_50" data-name="Ellipse 50" cx="8.967" cy="28.564" rx="8.967" ry="28.564" transform="translate(1510.927 4525.13) rotate(-77.117)" fill="#2f2e41"/>
    <ellipse id="Ellipse_51" data-name="Ellipse 51" cx="8.967" cy="28.564" rx="8.967" ry="28.564" transform="translate(1623.067 4543.78) rotate(-77.117)" fill="#2f2e41"/>
    <path id="Path_588" data-name="Path 588" d="M636.84,345.6a13.017,13.017,0,1,1-25.612,4.662v-.026c-1.28-7.074,4.189-9.577,11.263-10.857S635.557,338.529,636.84,345.6Z" transform="translate(972.378 4210.092)" fill="#fff"/>
    <ellipse id="Ellipse_52" data-name="Ellipse 52" cx="29.281" cy="9.192" rx="29.281" ry="9.192" transform="translate(1372.405 4747.999) rotate(-69.082)" fill="#2f2e41"/>
    <circle id="Ellipse_53" data-name="Ellipse 53" cx="58.563" cy="58.563" r="58.563" transform="translate(1270.131 4816.571) rotate(-80.783)" fill="#2f2e41"/>
    <rect id="Rectangle_1625" data-name="Rectangle 1625" width="17.791" height="31.876" transform="translate(1310.632 4814.109)" fill="#2f2e41"/>
    <rect id="Rectangle_1626" data-name="Rectangle 1626" width="17.791" height="31.876" transform="translate(1346.215 4814.109)" fill="#2f2e41"/>
    <ellipse id="Ellipse_54" data-name="Ellipse 54" cx="14.826" cy="5.559" rx="14.826" ry="5.559" transform="translate(1310.63 4840.8)" fill="#2f2e41"/>
    <ellipse id="Ellipse_55" data-name="Ellipse 55" cx="14.826" cy="5.559" rx="14.826" ry="5.559" transform="translate(1346.215 4840.058)" fill="#2f2e41"/>
    <path id="Path_589" data-name="Path 589" d="M388.511,472.949c-4.729-21.177,10.387-42.576,33.763-47.795s46.157,7.718,50.886,28.893-10.763,28.987-34.138,34.207S393.24,494.126,388.511,472.949Z" transform="translate(892 4240.739)" fill="#6c63ff"/>
    <ellipse id="Ellipse_56" data-name="Ellipse 56" cx="9.192" cy="29.281" rx="9.192" ry="29.281" transform="translate(1240.963 4736.734) rotate(-64.626)" fill="#2f2e41"/>
    <circle id="Ellipse_57" data-name="Ellipse 57" cx="58.563" cy="58.563" r="58.563" transform="translate(1025.182 4768.885)" fill="#2f2e41"/>
    <rect id="Rectangle_1627" data-name="Rectangle 1627" width="17.791" height="31.876" transform="translate(1057.059 4873.41)" fill="#2f2e41"/>
    <rect id="Rectangle_1628" data-name="Rectangle 1628" width="17.791" height="31.876" transform="translate(1092.642 4873.41)" fill="#2f2e41"/>
    <ellipse id="Ellipse_58" data-name="Ellipse 58" cx="14.826" cy="5.559" rx="14.826" ry="5.559" transform="translate(1057.059 4900.094)" fill="#2f2e41"/>
    <ellipse id="Ellipse_59" data-name="Ellipse 59" cx="14.826" cy="5.559" rx="14.826" ry="5.559" transform="translate(1092.642 4899.352)" fill="#2f2e41"/>
    <circle id="Ellipse_60" data-name="Ellipse 60" cx="20.015" cy="20.015" r="20.015" transform="translate(1065.213 4792.607)" fill="#fff"/>
    <circle id="Ellipse_61" data-name="Ellipse 61" cx="6.672" cy="6.672" r="6.672" transform="translate(1078.556 4805.95)" fill="#3f3d56"/>
    <path id="Path_590" data-name="Path 590" d="M202.03,516.556c-4.729-21.177,10.387-42.576,33.763-47.795s46.157,7.718,50.886,28.893-10.763,28.987-34.138,34.207S206.764,537.733,202.03,516.556Z" transform="translate(824.903 4256.43)" fill="#e6e6e6"/>
    <ellipse id="Ellipse_62" data-name="Ellipse 62" cx="29.281" cy="9.192" rx="29.281" ry="9.192" transform="translate(1098.817 4639.02) rotate(-69.082)" fill="#2f2e41"/>
    <circle id="Ellipse_63" data-name="Ellipse 63" cx="58.563" cy="58.563" r="58.563" transform="translate(996.543 4707.597) rotate(-80.783)" fill="#2f2e41"/>
    <rect id="Rectangle_1629" data-name="Rectangle 1629" width="17.791" height="31.876" transform="translate(1037.044 4705.131)" fill="#2f2e41"/>
    <rect id="Rectangle_1630" data-name="Rectangle 1630" width="17.791" height="31.876" transform="translate(1072.627 4705.131)" fill="#2f2e41"/>
    <ellipse id="Ellipse_64" data-name="Ellipse 64" cx="14.826" cy="5.559" rx="14.826" ry="5.559" transform="translate(1037.044 4731.821)" fill="#2f2e41"/>
    <ellipse id="Ellipse_65" data-name="Ellipse 65" cx="14.826" cy="5.559" rx="14.826" ry="5.559" transform="translate(1072.627 4731.08)" fill="#2f2e41"/>
    <circle id="Ellipse_66" data-name="Ellipse 66" cx="20.015" cy="20.015" r="20.015" transform="translate(1045.198 4624.332)" fill="#fff"/>
    <circle id="Ellipse_67" data-name="Ellipse 67" cx="6.672" cy="6.672" r="6.672" transform="translate(1058.541 4637.675)" fill="#3f3d56"/>
    <path id="Path_591" data-name="Path 591" d="M187.314,392.806c-4.729-21.177,10.387-42.576,33.763-47.795s46.157,7.718,50.886,28.893-10.763,28.987-34.138,34.207S192.043,413.983,187.314,392.806Z" transform="translate(819.609 4211.904)" fill="#6c63ff"/>
    <path id="Path_592" data-name="Path 592" d="M207.707,437.322c0,5.733,14.758,17.05,31.134,17.05s31.731-16.137,31.731-21.868-15.358,1.112-31.731,1.112S207.707,431.59,207.707,437.322Z" transform="translate(827.258 4242.977)" fill="#fff"/>
    <path id="Path_593" data-name="Path 593" d="M272.283,255.461a4.084,4.084,0,0,0-4.079,4.079V428.151a4.084,4.084,0,0,0,4.079,4.079H662.546a4.084,4.084,0,0,0,4.079-4.079V259.54a4.084,4.084,0,0,0-4.079-4.079Z" transform="translate(849.025 4180.099)" fill="#44bba4"/>
    <circle id="Ellipse_68" data-name="Ellipse 68" cx="39.599" cy="39.599" r="39.599" transform="translate(1187.085 4484.353)" fill="#fff"/>
    <path id="Path_594" data-name="Path 594" d="M415.648,316.587a4.63,4.63,0,0,0,0,9.26H540.676a4.631,4.631,0,1,0,.152-9.26Z" transform="translate(900.409 4202.094)" fill="#fff"/>
    <path id="Path_595" data-name="Path 595" d="M415.648,296.86a4.63,4.63,0,0,0,0,9.26h62.43a4.631,4.631,0,1,0,.152-9.26Z" transform="translate(900.409 4194.996)" fill="#fff"/>
    <path id="Path_596" data-name="Path 596" d="M415.648,337.253a4.63,4.63,0,0,0,0,9.26H540.676a4.631,4.631,0,1,0,.152-9.26Z" transform="translate(900.409 4209.53)" fill="#fff"/>
    <ellipse id="Ellipse_69" data-name="Ellipse 69" cx="9.192" cy="29.281" rx="9.192" ry="29.281" transform="translate(1893.773 4807.245) rotate(-20.918)" fill="#2f2e41"/>
    <circle id="Ellipse_70" data-name="Ellipse 70" cx="58.563" cy="58.563" r="58.563" transform="translate(1887.523 4839.359) rotate(-9.217)" fill="#2f2e41"/>
    <path id="Path_597" data-name="Path 597" d="M747.74,447.932H729.957l3.481,38.173,14.341-3.9Z" transform="translate(1233.654 4485.809)" fill="#2f2e41"/>
    <path id="Path_598" data-name="Path 598" d="M719.22,448.005H701.428l3.481,38.173,13.693-3.995Z" transform="translate(1223.39 4485.836)" fill="#2f2e41"/>
    <ellipse id="Ellipse_71" data-name="Ellipse 71" cx="14.826" cy="5.559" rx="14.826" ry="5.559" transform="translate(1912.199 4963.8) rotate(-4.182)" fill="#2f2e41"/>
    <circle id="Ellipse_72" data-name="Ellipse 72" cx="20.015" cy="20.015" r="20.015" transform="translate(1933.211 4852.938)" fill="#fff"/>
    <circle id="Ellipse_73" data-name="Ellipse 73" cx="6.672" cy="6.672" r="6.672" transform="translate(1946.555 4866.282)" fill="#3f3d56"/>
    <ellipse id="Ellipse_74" data-name="Ellipse 74" cx="29.281" cy="9.192" rx="29.281" ry="9.192" transform="translate(1991.792 4865.104) rotate(-53.55)" fill="#2f2e41"/>
    <path id="Path_599" data-name="Path 599" d="M863.077,613.948c0-4.724,12.163-14.052,25.66-14.052s26.152,13.3,26.152,18.023S902.234,617,888.737,617,863.077,618.674,863.077,613.948Z" transform="translate(1063.058 4304.026)" fill="#fff"/>
    <path id="Path_600" data-name="Path 600" d="M1091.854,637.987l-320.571-44.44a9.538,9.538,0,0,1-8.122-10.736L799.2,322.862a9.538,9.538,0,0,1,10.736-8.122l320.571,44.44a9.538,9.538,0,0,1,8.122,10.736l-36.04,259.949a9.538,9.538,0,0,1-10.729,8.12Z" transform="translate(1027.077 4201.399)" fill="#44bba4"/>
    <path id="Path_601" data-name="Path 601" d="M963.866,532.016,800.208,509.329a3.353,3.353,0,0,1-.6-.133L895.592,385.85a5.472,5.472,0,0,1,9.434,1.308L944.5,484.331l1.891,4.651Z" transform="translate(1040.221 4226.24)" fill="#fff"/>
    <path id="Path_602" data-name="Path 602" d="M774.506,331.493l-55.876-7.745,32.953-36.04,2.373-2.6,1.185-1.293,1.891,4.651Z" transform="translate(1229.578 4426.763)" opacity="0.2"/>
    <path id="Path_603" data-name="Path 603" d="M1024.869,530.438,883.318,510.823l32.949-36.05,2.372-2.6,42.942-46.967a7.3,7.3,0,0,1,10.831.847,6.592,6.592,0,0,1,.425.713Z" transform="translate(1070.342 4240.45)" fill="#fff"/>
    <circle id="Ellipse_75" data-name="Ellipse 75" cx="24.477" cy="24.477" r="24.477" transform="translate(1981.599 4605.012)" fill="#fff"/>
    <rect id="Rectangle_1631" data-name="Rectangle 1631" width="29.915" height="29.915" transform="translate(1842.48 4536.117) rotate(7.893)" fill="#3f3d56"/>
    <path id="Path_604" data-name="Path 604" d="M948.489,560.925c4.729-21.177-10.387-42.576-33.763-47.795s-46.157,7.718-50.886,28.893,10.763,28.987,34.138,34.207S943.76,582.1,948.489,560.925Z" transform="translate(1063.028 4272.391)" fill="#f2f2f2"/>
    <ellipse id="Ellipse_76" data-name="Ellipse 76" cx="14.826" cy="5.559" rx="14.826" ry="5.559" transform="translate(1951.216 4963.705) rotate(-4.182)" fill="#2f2e41"/>
  </g>
</svg>
