<svg xmlns="http://www.w3.org/2000/svg" xmlns:xlink="http://www.w3.org/1999/xlink" width="1182.594" height="629.346" viewBox="0 0 1182.594 629.346">
  <defs>
    <linearGradient id="linear-gradient" x1="0.5" y1="1" x2="0.5" y2="-0.001" gradientUnits="objectBoundingBox">
      <stop offset="0" stop-color="gray" stop-opacity="0.251"/>
      <stop offset="0.54" stop-color="gray" stop-opacity="0.122"/>
      <stop offset="1" stop-color="gray" stop-opacity="0.102"/>
    </linearGradient>
  </defs>
  <g id="sup6" transform="translate(-0.012 -0.037)">
    <path id="Path_517" data-name="Path 517" d="M1171.309,670.587q-1.977,4.253-3.941,8.4-3.067,6.44-6.054,12.63c-.88,1.829-1.772,3.622-2.64,5.417-9.767,19.955-18.888,37.6-26.632,52.118a83.153,83.153,0,0,1-72.47,43.952l-172.227,1.879h-1.817l-14.764.158-12.63.136-38.729.421h-1.568l-19.716.216h-.6L676,797.24l-108.472,1.135-12.612.136-78.365.852h-.091l-50.823.546h-.547l-160.7,1.738-48.075.522a100.022,100.022,0,0,1-30.29-4.338,98.113,98.113,0,0,1-44.4-28.109,227.078,227.078,0,0,1-45.8-78.092q-2.193-6.236-4.089-12.63C56.739,560.714,99.4,408.107,176.172,305.983q4.826-6.406,9.813-12.494l.079-.091c23.611-28.983,50.086-53.2,78.285-70.415,49.971-30.563,105.338-39.172,159.8-13.516,46.076,21.715,89.1,31.925,130.8,34.7,4.213.273,8.427.477,12.612.6,95.662,3.009,185.315-31.459,290.6-53.708,4.191-.88,8.393-1.76,12.63-2.59,75.1-14.946,158.421-22.828,257.5-6.258a214.744,214.744,0,0,1,30.391,7.268q6.552,2.112,12.63,4.546c47.292,19.24,73.084,54.787,84.044,99.329q1.556,6.2,2.691,12.612C1277.477,413.109,1220.566,565.091,1171.309,670.587Z" transform="translate(-79.34 -172.91)" fill="#44bba4" opacity="0.1"/>
    <g id="Group_33" data-name="Group 33" transform="translate(12.388 15.519)" opacity="0.1">
      <path id="Path_518" data-name="Path 518" d="M251.605,217V795.786l-48.075.522a100.02,100.02,0,0,1-30.29-4.338V287.415h.079C196.931,258.4,223.4,234.184,251.605,217Z" transform="translate(-78.986 -182.451)" fill="#44bba4"/>
      <path id="Path_519" data-name="Path 519" d="M1246.531,291.584H164.6q4.826-6.406,9.813-12.494V279H1243.834Q1245.4,285.167,1246.531,291.584Z" transform="translate(-80.159 -174.038)" fill="#44bba4"/>
      <path id="Path_520" data-name="Path 520" d="M1042.329,192.06V677.01h-3.941q-3.066,6.44-6.054,12.629c-.88,1.829-1.771,3.622-2.64,5.417V187.47Q1036.258,189.582,1042.329,192.06Z" transform="translate(37.248 -186.46)" fill="#44bba4"/>
      <path id="Path_521" data-name="Path 521" d="M777.718,186.58V793.337l-12.629.136V189.17C769.282,188.284,773.484,187.409,777.718,186.58Z" transform="translate(1.337 -186.58)" fill="#44bba4"/>
      <path id="Path_522" data-name="Path 522" d="M510.726,236.221V789.976l-12.612.136V235.62C502.322,235.893,506.535,236.051,510.726,236.221Z" transform="translate(-34.894 -179.925)" fill="#44bba4"/>
      <path id="Path_523" data-name="Path 523" d="M1165.891,618.52q-3.067,6.44-6.054,12.63H94.339q-2.192-6.236-4.089-12.63Z" transform="translate(-90.25 -127.957)" fill="#44bba4"/>
    </g>
    <rect id="Rectangle_1614" data-name="Rectangle 1614" width="21.579" height="65.486" transform="translate(240.316 301.903)" fill="#3f3d56"/>
    <rect id="Rectangle_1615" data-name="Rectangle 1615" width="21.579" height="69.278" transform="translate(821.044 298.494)" fill="#3f3d56"/>
    <path id="Path_524" data-name="Path 524" d="M965.839,537.519v14.764L793.3,553.872l-1.841.034-65.577.6-1.568.023-19.932.17H703.8L582.289,555.82l-199.451,1.851h-.17l-50.71.477-.546.012L106.1,560.233V543.2l52.981-31.8,106.3-.88,2.272-.012.749-.012,2.272-.034,51.036-.421,2.283-.012.733-.012L327,510l16.365-.136.431-.012,40.374-.34h.33l315.049-2.657,7.711-.057h.773l5.884-.057,42.76-.352,2.272-.034,2.1-.022h1.09l13.3-.1,2.64-.034,3.531-.023,11.074-.1,17.569-.147,2.272-.022,3.96-.022h.733l84.85-.733Z" transform="translate(14.398 68.552)" fill="#65617d"/>
    <path id="Path_525" data-name="Path 525" d="M965.839,537.519v14.764L793.3,553.872l-1.841.034-65.577.6-1.568.023-19.932.17H703.8L582.289,555.82l-199.451,1.851h-.17l-50.71.477-.546.012L106.1,560.233V543.2l52.981-31.8,106.3-.88,2.272-.012.749-.012,2.272-.034,51.036-.421,2.283-.012.733-.012L327,510l16.365-.136.431-.012,40.374-.34h.33l315.049-2.657,7.711-.057h.773l5.884-.057,42.76-.352,2.272-.034,2.1-.022h1.09l13.3-.1,2.64-.034,3.531-.023,11.074-.1,17.569-.147,2.272-.022,3.96-.022h.733l84.85-.733Z" transform="translate(14.398 68.552)" opacity="0.2"/>
    <path id="Path_526" data-name="Path 526" d="M381.843,656.57v27.813a6.962,6.962,0,0,1-3.974,6.292,6.815,6.815,0,0,1-2.839.682l-39.636.84a6.816,6.816,0,0,1-3.067-.647,6.95,6.95,0,0,1-4.055-6.327V656.57Z" transform="translate(-45.557 -107.274)" fill="#3f3d56"/>
    <path id="Path_527" data-name="Path 527" d="M381.843,656.57v27.813a6.962,6.962,0,0,1-3.974,6.292,6.815,6.815,0,0,1-2.839.682l-39.636.84a6.816,6.816,0,0,1-3.067-.647,6.95,6.95,0,0,1-4.055-6.327V656.57Z" transform="translate(-45.557 -107.274)" opacity="0.1"/>
    <path id="Path_528" data-name="Path 528" d="M383.843,656.57v27.813a6.962,6.962,0,0,1-3.976,6.291,6.812,6.812,0,0,1-2.839.682l-39.637.84a6.816,6.816,0,0,1-3.066-.647,6.95,6.95,0,0,1-4.055-6.327V656.57Z" transform="translate(-45.287 -107.274)" fill="#3f3d56"/>
    <rect id="Rectangle_1616" data-name="Rectangle 1616" width="53.572" height="35.775" transform="translate(773.343 549.297)" fill="#3f3d56"/>
    <rect id="Rectangle_1617" data-name="Rectangle 1617" width="53.572" height="35.775" transform="translate(773.343 549.297)" opacity="0.1"/>
    <rect id="Rectangle_1618" data-name="Rectangle 1618" width="53.572" height="35.775" transform="translate(771.071 549.297)" fill="#3f3d56"/>
    <path id="Path_529" data-name="Path 529" d="M233.179,265.82v6.507l-21.579-.556V265.82Z" transform="translate(28.716 36.071)" opacity="0.1"/>
    <path id="Path_530" data-name="Path 530" d="M464.546,279.659,438.617,465.911a4.884,4.884,0,0,1-4.963,4.213l-207.614-5.376-3.941-.1a4.884,4.884,0,0,1-4.725-5.53l29.11-194.981a4.884,4.884,0,0,1,5.156-4.122L460,274.117a4.872,4.872,0,0,1,4.546,5.542Z" transform="translate(-60.614 -161.096)" fill="#65617d"/>
    <path id="Path_531" data-name="Path 531" d="M178.553,99.16,156.6,271.028l190.8,6.054,23.465-165.815Z" transform="translate(21.252 13.452)" fill="#44bba4"/>
    <rect id="Rectangle_1619" data-name="Rectangle 1619" width="232.448" height="196.854" rx="5.33" transform="translate(436.796 109.955)" fill="#65617d"/>
    <rect id="Rectangle_1620" data-name="Rectangle 1620" width="211.243" height="163.918" transform="translate(447.766 123.208)" fill="#44bba4"/>
    <path id="Path_532" data-name="Path 532" d="M744.509,262.82v4.3l-21.579.44V262.82Z" transform="translate(98.114 35.664)" opacity="0.1"/>
    <path id="Path_533" data-name="Path 533" d="M935.424,456.366a3.5,3.5,0,0,1-3.407,3.725l-212.607,4.4a3.5,3.5,0,0,1-3.555-3.169L697.582,271.339a3.5,3.5,0,0,1,3.316-3.828l210.994-10.495,2.272-.113a3.487,3.487,0,0,1,3.658,3.179Z" transform="translate(4.563 -161.516)" fill="#65617d"/>
    <path id="Path_534" data-name="Path 534" d="M628.93,104.292l192.7-9.472,16.279,172.629L646.738,272Z" transform="translate(85.355 12.863)" fill="#44bba4"/>
    <path id="Path_535" data-name="Path 535" d="M909.812,456.368a3.5,3.5,0,0,1-3.411,3.725L886.28,257.014l2.272-.113a3.488,3.488,0,0,1,3.658,3.18Z" transform="translate(30.175 -161.517)" opacity="0.1"/>
    <path id="Path_536" data-name="Path 536" d="M251.674,260,226.041,464.748l-3.941-.1a4.884,4.884,0,0,1-4.725-5.53l29.11-194.981a4.884,4.884,0,0,1,5.19-4.13Z" transform="translate(-60.614 -161.097)" opacity="0.1"/>
    <rect id="Rectangle_1621" data-name="Rectangle 1621" width="21.579" height="19.398" transform="translate(240.316 347.989)" opacity="0.1"/>
    <path id="Path_537" data-name="Path 537" d="M304.5,483.65V489.3l-53.572,1.431V483.65Z" transform="translate(34.053 65.635)" opacity="0.1"/>
    <path id="Path_538" data-name="Path 538" d="M487.767,485.806V676.835a4.546,4.546,0,0,1-4.373,4.486l-217.661,5.793h-.057a4.546,4.546,0,0,1-4.486-4.486V485.806a4.546,4.546,0,0,1,4.486-4.486H483.28A4.546,4.546,0,0,1,487.767,485.806Z" transform="translate(-54.662 -131.059)" fill="#65617d"/>
    <path id="Path_539" data-name="Path 539" d="M265.733,481.32V687.112h-.057a4.546,4.546,0,0,1-4.486-4.486V485.806a4.546,4.546,0,0,1,4.486-4.486Z" transform="translate(-54.661 -131.059)" opacity="0.1"/>
    <path id="Path_540" data-name="Path 540" d="M194.6,319.15h201.59V487.52L194.6,492.067Z" transform="translate(26.409 43.309)" fill="#d4dfec"/>
    <rect id="Rectangle_1622" data-name="Rectangle 1622" width="21.579" height="19.784" transform="translate(821.044 347.989)" opacity="0.1"/>
    <path id="Path_541" data-name="Path 541" d="M732.5,483.65v7.28L678.93,489.5V483.65Z" transform="translate(92.141 65.635)" opacity="0.1"/>
    <path id="Path_542" data-name="Path 542" d="M894.773,485.806v196.82a4.546,4.546,0,0,1-4.546,4.486h0L672.52,681.319a4.546,4.546,0,0,1-4.372-4.486V485.806a4.546,4.546,0,0,1,4.486-4.486H890.241a4.546,4.546,0,0,1,4.532,4.486Z" transform="translate(0.57 -131.059)" fill="#65617d"/>
    <path id="Path_543" data-name="Path 543" d="M868.234,485.806v196.82a4.546,4.546,0,0,1-4.546,4.486h0V481.32h0a4.546,4.546,0,0,1,4.546,4.487Z" transform="translate(27.108 -131.059)" opacity="0.1"/>
    <path id="Path_544" data-name="Path 544" d="M799.691,319.15H598.1V487.52l201.591,4.546Z" transform="translate(81.171 43.309)" fill="#d4dfec"/>
    <path id="Path_545" data-name="Path 545" d="M690.267,485.806V676.835a4.546,4.546,0,0,1-4.372,4.486l-217.661,5.793h0a4.546,4.546,0,0,1-4.546-4.487V485.806a4.546,4.546,0,0,1,4.486-4.486H685.781A4.546,4.546,0,0,1,690.267,485.806Z" transform="translate(-27.18 -131.059)" fill="#65617d"/>
    <path id="Path_546" data-name="Path 546" d="M397.1,319.15H598.691V487.52L397.1,492.067Z" transform="translate(53.892 43.309)" fill="#d4dfec"/>
    <path id="Path_547" data-name="Path 547" d="M965.839,533.65v14.764L793.3,550l-1.841.034-65.577.6-1.568.023-19.932.17H703.8l-121.5,1.125-199.451,1.851h-.17l-50.71.477-.546.012L106.1,556.364V539.328l229.995-1.511h.546l46.553-.318h.216l321.5-2.124h.33l.194-.012h.534l5.439-.034h1.659l84.6-.568,5-.023,1.113-.012Z" transform="translate(14.398 72.421)" opacity="0.1"/>
    <circle id="Ellipse_43" data-name="Ellipse 43" cx="58.297" cy="58.297" r="58.297" transform="translate(495.091 250.795)" fill="#fbbebe"/>
    <path id="Path_548" data-name="Path 548" d="M383.74,776.273a1.406,1.406,0,0,1,.113-.4c1.135-4.077,3.157-10.971,4.668-16.48.194-.682.375-1.352.546-1.987,1.669-6.212,4.917-20.76,6.724-29.836.636-3.191,1.135-5.678,1.238-6.928.227-1.92,3.646-10.131,7.519-19.568,2.715-6.633,5.679-13.878,7.848-19.989a69.711,69.711,0,0,0,3.328-11.187,5.792,5.792,0,0,0,0-2.418,16.682,16.682,0,0,1-.545-3.976h0c-.261-7.039,1.841-18.172,5.087-22.839,3.974-5.679,6.814-26.872,6.814-26.872s5.882.852,6.814-4.01A6.983,6.983,0,0,0,434,608.2a8.424,8.424,0,0,0-.1-1.261c-1.01-7.086,16.719-14.627,26.691-16.252a22.325,22.325,0,0,1,3.407-.318,30.948,30.948,0,0,0,7.1-1.635q1.59-.488,3.407-1.135c4.18-1.408,9.176-3.27,14.481-5.315,19.945-7.735,44.089-18.172,44.089-18.172.17-.807.364-1.578.579-2.346a31.471,31.471,0,0,1,18.569-21.5h0v-2.272c0-3.919-.17-7.95-.34-11.97,0-.783-.067-1.568-.113-2.346v-1.283c0-.795-.079-1.59-.125-2.374l-.2-.158a18.634,18.634,0,0,1-4.429-4.771,17.328,17.328,0,0,1-1.613-3.407c-1.42-3.85-1.75-8.144-2.7-12.209l-.2-.84a95.4,95.4,0,0,0-4.546-12.015c-2.511-6.16-4.441-12.494-6.36-18.91q-1.749-5.827-3.531-11.675l-1.8-5.951c-.34-1.135-.682-2.272-.943-3.407h0a15.052,15.052,0,0,1-.293-1.59h0a11.358,11.358,0,0,1,.273-5.236,36.463,36.463,0,0,1,1.5-3.407,8.93,8.93,0,0,0,.568-1.568h0a3.415,3.415,0,0,0,.091-.364,6.421,6.421,0,0,0,.125-1.226,20.974,20.974,0,0,0-.587-4.417.079.079,0,0,1,0-.057,2.917,2.917,0,0,0-.057-.307,28.93,28.93,0,0,1-.409-3.407,32.313,32.313,0,0,1,3.941-17.684l.216-.409a28.62,28.62,0,0,1,2.09-3.158h0a15.982,15.982,0,0,1,1.135-1.386c-1.59,1.522-4.2.852-5.678-.783a4.108,4.108,0,0,1-.625-.852,3.586,3.586,0,0,1-.408-.943c-.795-2.786.587-5.747,2.408-8.007a21,21,0,0,1,6.519-5.338h0a4.405,4.405,0,0,1,.455-.239,19.447,19.447,0,0,1,3-1.2h0a17.117,17.117,0,0,1,1.851-.5l-4.213-.386-1.7-.158a16.456,16.456,0,0,1,14.764-12.391H551.5a13.334,13.334,0,0,1,1.783.147,5.043,5.043,0,0,1-3.009-4.917,16.367,16.367,0,0,0,10.437,3.476h.431a34.1,34.1,0,0,1-.386-3.713h0a37.672,37.672,0,0,1,0-5.065,9.585,9.585,0,0,0,7.7,2.566l-2.363-3.294a10.778,10.778,0,0,0,7.45,2.329l.546-.057a7.963,7.963,0,0,0,1.352-.261h.1c-.216-.273-.409-.556-.6-.852l-.069-.136a10.986,10.986,0,0,1-1.135-2.374,7.5,7.5,0,0,1-.273-.988h0a9.937,9.937,0,0,1,.512-6.19c3.666,3.067,7.689,7.258,12.492,4.089s4.963-8.984,12.494-8.393a11.586,11.586,0,0,1,9.541,6.956,7.666,7.666,0,0,1,8.711-1.987,7.773,7.773,0,0,1,4.4,7.826c3.124-.783,6.485-1.556,9.483-.375s4.929,5.008,3.226,7.564a1.633,1.633,0,0,1-.158.227c-1.4,1.805-4.486,2.794-4.156,5.066l.477.34,1.483,1.063q8.688,6.269,16.922,13.174c2.817,2.363,5.815,5.2,6.013,8.893a9.816,9.816,0,0,1-.273,2.691h0c-.182.88-.431,1.772-.625,2.657a22.157,22.157,0,0,0-.386,6.871h0c.079.67.182,1.329.306,2,1.738,8.779,8.757,16.025,9.449,24.986v.637a20.194,20.194,0,0,1-.079,2.873c-.522,5.451-3.043,10.687-5.087,15.9-.125.318-.249.637-.364.955a158.214,158.214,0,0,0-7.95,31.983,113.889,113.889,0,0,1-2.272,11.46,30.356,30.356,0,0,1-5.781,11.845,18.423,18.423,0,0,1-3.813,3.407,21.206,21.206,0,0,1-3.009,1.6v.067c.125.692.227,1.386.352,2.078.067.364.125.733.194,1.135h0a.157.157,0,0,0,0,.069c.955,5.372,2.044,10.629,3.191,15.628l.579,2.493c14.311,5.168,16,15.752,16.1,19.807a10.953,10.953,0,0,1,0,1.623s21.579.568,30.1,6.815a23.088,23.088,0,0,0,5.123,2.612,94.234,94.234,0,0,0,10.505,3.282c1.829.477,3.737.943,5.678,1.4,3.407.783,7.019,1.544,10.5,2.272,9.3,1.874,18.058,3.407,22.5,4.546,10.6,2.681,34.832,25.917,34.832,25.917s2.839,23.441,5.678,26.86,7.95,15.434,7.95,15.434l18.785,33.4,7.95,14.048h5.111A8.688,8.688,0,0,1,823.8,698.5c1.352,1.2,2.851,2.7,4.168,4.065l2.181,2.329,1.363,1.511s8.257.2,10.495,6.734c6.724-.194,14.981.249,20.76,2.839a16.072,16.072,0,0,1,2.272,1.226,9.858,9.858,0,0,1,4.693,6.428,9.476,9.476,0,0,1,.2,1.635c0,.647,0,1.295,0,1.931-.409,8.6-6.013,15.752-11.146,20.568l.364.647s-.17.409-.5,1.135c-.091.216-.2.455-.33.733h0c-.67,1.431-1.738,3.577-3.134,6.088a71.911,71.911,0,0,1-10.869,14.959l-.328.34-65.577.6-.194-.227L765.5,756.873l-6.325-7.541-.194-.239L758.8,750.9l-.613,6.013L756.71,771.46l-.079.733v.194l-.17,1.681.125-1.681h-.33l-121.521,1.135-199.451,2.2v.955h-.158v-.955l-50.823.546Z" transform="translate(-38.03 -149.157)" fill="url(#linear-gradient)"/>
    <path id="Path_549" data-name="Path 549" d="M630.242,565s-113,13.629-102.219,0c3.907-4.929,4.986-19.534,4.771-36.172-.069-5.054-.249-10.289-.512-15.5-1.25-24.986-4.253-49.4-4.253-49.4s98.807-46.564,87.45-9.654c-4.546,14.912-3.055,35.854.4,55.513,1.011,5.736,2.181,11.357,3.407,16.7A391.408,391.408,0,0,0,630.243,565Z" transform="translate(-18.547 -136.661)" fill="#fbbebe"/>
    <path id="Path_550" data-name="Path 550" d="M630.242,555s-113,13.629-102.219,0c3.907-4.929,4.986-19.534,4.771-36.172,17.229-7.359,39.148-1.874,39.148-1.874,23.078-4.6,37.877-3.7,47.337-.477A391.416,391.416,0,0,0,630.24,555Z" transform="translate(-18.547 -126.654)" opacity="0.1"/>
    <path id="Path_551" data-name="Path 551" d="M435.184,753.9v-.955l199.451-2.169,121.521-1.135h.34l-.125,1.681.17-1.681h.216v-.192l1.556-15.276.587-5.781.182-1.805.158-1.511,7.019-23.408,7.019-23.372,5.906-19.683,9.018-30.073s-5.111-11.925-7.95-15.333-5.678-26.691-5.678-26.691-24.236-23.089-34.832-25.747c-4.441-1.135-13.208-2.64-22.522-4.546-3.486-.7-7.064-1.453-10.5-2.272-1.942-.44-3.85-.909-5.679-1.374a99.844,99.844,0,0,1-10.505-3.249,23.5,23.5,0,0,1-5.111-2.6c-8.348-6.121-29.268-6.814-30.075-6.814h0a.477.477,0,0,1,0-.079v-.1a11.594,11.594,0,0,0,0-1.431,9.11,9.11,0,0,0-.1-1.59,1.435,1.435,0,0,0-.079-.568c-.057-.409-.125-.84-.227-1.295a5.629,5.629,0,0,0-.136-.6,19.548,19.548,0,0,0-1.42-3.96c-.079-.182-.182-.375-.273-.557a20.735,20.735,0,0,0-1.932-2.987c-.147-.194-.306-.4-.477-.587a22.236,22.236,0,0,0-3.084-3c-.307-.239-.625-.488-.955-.716a5.3,5.3,0,0,0-.579-.409l-1.01-.659-.943-.546c-.829-.455-1.7-.9-2.657-1.32-.293-.136-.613-.261-.931-.386s-.818-.318-1.238-.477h-.067l-.852-.34c-.647-.216-1.307-.409-2-.6l-1.056-.273-1.135-.261-1.135-.239c-1.135-.227-2.346-.431-3.622-.587l-1.295-.158-1.329-.136-1.374-.113-1.953-.113-2.272-.079a141.663,141.663,0,0,0-29.829,3.174,82.076,82.076,0,0,0-20.711-1.91h-.988l-1.135.068h-.733l-1.467.136a10.923,10.923,0,0,0-1.477.17c-.488.067-1,.125-1.487.2l-.749.125c-.733.125-1.487.261-2.272.419q-.376.069-.749.17c-.988.216-1.975.477-2.952.773-.488.136-.977.293-1.467.466-.249.068-.488.158-.733.249l-.733.261-.716.284-.852.34c-.431.182-.852.375-1.271.579-.239.1-.477.216-.7.34s-.466.227-.682.352a31.516,31.516,0,0,0-7.053,4.975l-.579.556-.568.579c-.194.194-.375.4-.556.6a27.047,27.047,0,0,0-2.066,2.555c-.182.239-.352.477-.522.733a30.347,30.347,0,0,0-1.953,3.316c-.147.273-.285.556-.421.829a37.125,37.125,0,0,0-2.272,5.963q-.318,1.135-.579,2.272s-24.043,10.608-43.986,18.285c-5.3,2.044-10.3,3.9-14.481,5.293-1.216.409-2.347.783-3.407,1.135a30.334,30.334,0,0,1-7.1,1.635,22.339,22.339,0,0,0-3.407.318c-9.166,1.489-24.873,7.95-26.587,14.435a4.193,4.193,0,0,0-.113,1.59s0,.079,0,.125c1.135,7.95-6.814,6.814-6.814,6.814s-2.839,21.011-6.815,26.691c-2.873,4.089-4.84,13.208-5.087,20.092h0a22.273,22.273,0,0,0,.5,6.394v.158c.455,1.522-.636,5.679-2.493,11-2.011,5.849-4.941,13.118-7.757,19.977-4.253,10.358-8.245,19.762-8.5,21.828-.1.919-.4,2.566-.807,4.693-1.659,8.653-5.338,25.134-7.155,31.8-1.352,4.975-3.316,11.788-4.668,16.468a1.6,1.6,0,0,1-.113.4l50.914-.5v.955h.193Z" transform="translate(-37.98 -126.384)" fill="#44bba4"/>
    <path id="Path_552" data-name="Path 552" d="M445.44,607.57s64.736,33.5,88.018,29.529Z" transform="translate(-29.655 -113.925)" opacity="0.1"/>
    <path id="Path_553" data-name="Path 553" d="M561.44,595.57s63.032,20.444,84.044,23.283S561.44,595.57,561.44,595.57Z" transform="translate(-13.912 -115.553)" opacity="0.1"/>
    <path id="Path_554" data-name="Path 554" d="M637.549,540.348c-32.936,6.064-94.946,4.759-121.749,3.839,9.826-35.207,57.729-23.237,57.729-23.237C632.831,509.116,637.367,533.669,637.549,540.348Z" transform="translate(-20.106 -126.112)" opacity="0.1"/>
    <path id="Path_555" data-name="Path 555" d="M637.549,538.348c-32.936,6.064-94.946,4.759-121.749,3.839,9.826-35.207,57.729-23.237,57.729-23.237C632.831,507.116,637.367,531.669,637.549,538.348Z" transform="translate(-20.106 -126.383)" fill="#44bba4"/>
    <path id="Path_556" data-name="Path 556" d="M776.94,672.441s38.8-5.963,39.557,11.074-19.784,28.938-19.784,28.938Z" transform="translate(15.336 -105.258)" fill="#fbbebe"/>
    <path id="Path_557" data-name="Path 557" d="M615.794,509.787a53.4,53.4,0,0,1-5.111,1.975c-12.243,4.225-24.588,8.484-37.479,10.028s-26.417.182-37.661-6.246a32.7,32.7,0,0,1-3.407-2.215c-1.249-24.986-4.253-49.4-4.253-49.4s98.807-46.564,87.45-9.654C610.809,469.181,612.342,490.124,615.794,509.787Z" transform="translate(-18.465 -136.66)" opacity="0.1"/>
    <path id="Path_558" data-name="Path 558" d="M558.571,366.6a10.756,10.756,0,0,1-9.449-1.987l2.362,3.282a9.619,9.619,0,0,1-7.7-2.555,38.705,38.705,0,0,0,.364,8.8,16.49,16.49,0,0,1-10.852-3.407,5.02,5.02,0,0,0,3,4.9,16.286,16.286,0,0,0-17.717,12.164l5.928.546a20.972,20.972,0,0,0-11.857,7.235c-1.817,2.272-3.2,5.178-2.408,7.95s4.634,4.546,6.724,2.566a31.732,31.732,0,0,0-6.928,25.883,16.427,16.427,0,0,1,.522,5.973,50.672,50.672,0,0,1-2.147,5.326c-1.135,3.316-.057,6.916.955,10.222l5.326,17.514c1.932,6.325,3.85,12.664,6.371,18.785a93.235,93.235,0,0,1,4.546,11.936c1.432,5.5,1.487,11.517,4.546,16.32a22.634,22.634,0,0,0,8.154,7.186c11.232,6.428,24.8,7.792,37.661,6.246s25.191-5.8,37.422-10.028a35.213,35.213,0,0,0,7.773-3.407c8.461-5.542,10.347-16.877,11.924-26.86a152.529,152.529,0,0,1,8.28-32.7c2.475-6.236,5.678-12.561,5.133-19.24-.692-8.87-7.711-16.059-9.449-24.785a21.576,21.576,0,0,1,.079-8.824,20.059,20.059,0,0,0,.9-5.338c-.194-3.658-3.191-6.473-6.013-8.824Q622.852,383.817,613.1,377c-.33-2.272,2.76-3.248,4.156-5.042,1.975-2.533-.068-6.553-3.067-7.735s-6.36-.409-9.483.374a7.479,7.479,0,0,0-13.117-5.8,11.586,11.586,0,0,0-9.563-6.9c-7.529-.587-7.677,5.168-12.494,8.336s-8.79-1.01-12.493-4.055a10.539,10.539,0,0,0,1.534,10.429Z" transform="translate(-21.174 -148.631)" fill="#3f3d56"/>
    <path id="Path_559" data-name="Path 559" d="M815.48,715.178s-1.01,2.408-2.873,5.894a78.363,78.363,0,0,1-10.222,14.959l-.307.33h-1.84l-65.577.6h-1.568l-.194-.227-12.719-15.094-4.793-5.69-.194-.239-.409-.477-.227-.273-.293-.352L704.94,703.55l3.407-14.2,5.8-23.918.147-.579,1.135-4.546.807-3.407,2.7-11.108,9.267-38.217,16.468,8.518,17.368,30.67,9.324,16.468h5.111c.965,0,3.18,1.863,5.406,4.01.795.761,1.59,1.568,2.272,2.272,2.021,2.09,3.622,3.885,3.622,3.885s8.28.182,10.505,6.7a7.942,7.942,0,0,1,.284.965,45.788,45.788,0,0,0,2.873,7.45c1.467,3.191,3.306,6.814,5.168,10.438,3.464,6.643,6.985,12.97,8.279,15.264l.158.284Z" transform="translate(5.564 -113.923)" fill="#44bba4"/>
    <path id="Path_560" data-name="Path 560" d="M755.375,658.751l-.113,1.623v.113l-.194,2.612-1.511,21.022-1.829,25.326-.522,7.132-1.135,15.264v.194l-121.521,1.135-199.422,2.157v.955h-.158v-1.272l.512-16.309.977-31.868.84-27.018.079-2.691a11.96,11.96,0,0,1,12.97-11.55c5.36.455,12.319,1.01,20.648,1.6l3.407.249c48.075,3.339,136.922,7.655,226.582,2.272,1.886-.1,3.782-.216,5.679-.352,13.9-.88,27.791-2,41.544-3.407A11.959,11.959,0,0,1,755.382,658.7Z" transform="translate(-31.891 -108.772)" opacity="0.1"/>
    <path id="Path_561" data-name="Path 561" d="M429.08,735.739v-.955l199.451-2.169,121.521-1.135h.34v-.194l1.135-15.264.488-6.814,1.863-25.679,1.466-20.329v-.5a12.066,12.066,0,0,0-.125-2.806.34.34,0,0,0,0-.113,11.8,11.8,0,0,0-2.272-5.269,11.97,11.97,0,0,0-10.706-4.546c-13.753,1.408-27.643,2.533-41.544,3.407-1.9.136-3.794.249-5.678.352-89.653,5.327-178.5,1.01-226.582-2.272l-3.407-.249c-8.324-.587-15.287-1.135-20.648-1.6a11.97,11.97,0,0,0-12.759,9.688,12.492,12.492,0,0,0-.2,1.862l-.773,25.168-1.056,31.88-.5,16.31v1.272Z" transform="translate(-31.876 -108.227)" fill="#3f3d56"/>
    <path id="Path_562" data-name="Path 562" d="M755.7,665.146l-1.4,17.411-2.078,25.958-.522,6.5-1.135,14.548-.067.733v.194h0l-.17,1.681.125-1.681h-.327L628.6,731.621,429.11,733.765v-.318l.556-16.31L430.8,685.27l.733-21.181a7.223,7.223,0,0,1,3.476-5.963A7.1,7.1,0,0,1,439.3,657.1c2.385.194,5.315.419,8.733.67,5.554.409,12.4.88,20.375,1.386,14.764.931,33.291,1.931,54.515,2.748,59.058,2.272,138.786,3.033,214.515-3.6,3.407-.293,6.928-.625,10.369-.955a7.108,7.108,0,0,1,3.952.749,5.876,5.876,0,0,1,.977.613,6.974,6.974,0,0,1,2.272,2.794,4.05,4.05,0,0,1,.283.692A7.133,7.133,0,0,1,755.7,665.146Z" transform="translate(-31.871 -107.207)" opacity="0.1"/>
    <path id="Path_563" data-name="Path 563" d="M383.843,677.87v3.622a6.962,6.962,0,0,1-3.976,6.292l-45.542.88a6.95,6.95,0,0,1-4.055-6.325v-3.412Z" transform="translate(-45.287 -104.383)" opacity="0.1"/>
    <path id="Path_564" data-name="Path 564" d="M305.691,516.746l-59.341,1.135v-9.846l59.341-1.135Z" transform="translate(33.433 68.79)" fill="#3f3d56"/>
    <path id="Path_565" data-name="Path 565" d="M305.691,516.746l-59.341,1.135v-9.846l59.341-1.135Z" transform="translate(33.433 68.79)" opacity="0.1"/>
    <path id="Path_566" data-name="Path 566" d="M307.691,516.746l-59.341,1.135v-9.846l59.341-1.135Z" transform="translate(33.703 68.79)" fill="#3f3d56"/>
    <g id="Group_34" data-name="Group 34" transform="translate(487.263 209.318)" opacity="0.1">
      <path id="Path_567" data-name="Path 567" d="M553.2,362.149a11.072,11.072,0,0,1-2.147-4.929,10.776,10.776,0,0,0,.477,5.224,10.211,10.211,0,0,0,1.67-.295Z" transform="translate(-502.602 -357.22)"/>
      <path id="Path_568" data-name="Path 568" d="M540.279,368.7a39.95,39.95,0,0,1-.419-4.2v4.213Z" transform="translate(-504.102 -356.232)"/>
      <path id="Path_569" data-name="Path 569" d="M621.739,402.71a20.834,20.834,0,0,1,.409-3.009,20.445,20.445,0,0,0,.909-5.326,6.993,6.993,0,0,0-.182-1.2c-.194,1.044-.5,2.09-.733,3.124A21.74,21.74,0,0,0,621.739,402.71Z" transform="translate(-493.001 -352.341)"/>
      <path id="Path_570" data-name="Path 570" d="M600.933,371.358l1.238.9a22.376,22.376,0,0,0,2.918-2.521,4.168,4.168,0,0,0,.431-4.134,3.406,3.406,0,0,1-.431.733C603.693,368.121,600.6,369.11,600.933,371.358Z" transform="translate(-495.818 -356.082)"/>
      <path id="Path_571" data-name="Path 571" d="M518.879,380.29a13.984,13.984,0,0,0-.989,2.59,20.623,20.623,0,0,1,5.679-2.147Z" transform="translate(-507.084 -354.089)"/>
      <path id="Path_572" data-name="Path 572" d="M532.806,369.578a16.843,16.843,0,0,1-2.135-1.4,4.82,4.82,0,0,0,.1,1.341,13.468,13.468,0,0,1,2.033.057Z" transform="translate(-505.351 -355.732)"/>
      <path id="Path_573" data-name="Path 573" d="M646.859,428.33c-.466,5.508-3.033,10.811-5.111,16.037a152.443,152.443,0,0,0-8.279,32.72c-1.578,9.983-3.407,21.318-11.924,26.848a34.072,34.072,0,0,1-7.757,3.407c-12.243,4.237-24.588,8.484-37.479,10.028s-26.417.194-37.661-6.236a22.715,22.715,0,0,1-8.154-7.186c-3.033-4.8-3.089-10.823-4.546-16.32A93.394,93.394,0,0,0,521.4,475.68c-2.509-6.11-4.441-12.494-6.36-18.772q-2.669-8.757-5.326-17.524a32.719,32.719,0,0,1-1.295-5.394,20.356,20.356,0,0,0,1.295,8.8q2.658,8.779,5.327,17.524c1.92,6.325,3.85,12.664,6.36,18.772a93.383,93.383,0,0,1,4.546,11.948c1.431,5.5,1.487,11.517,4.546,16.32a22.713,22.713,0,0,0,8.154,7.186c11.244,6.428,24.8,7.773,37.661,6.234s25.191-5.793,37.479-10.028a34.066,34.066,0,0,0,7.757-3.407c8.46-5.53,10.346-16.865,11.924-26.848a152.439,152.439,0,0,1,8.279-32.72c2.476-6.224,5.679-12.549,5.133-19.24C646.881,428.466,646.859,428.4,646.859,428.33Z" transform="translate(-508.364 -347.569)"/>
      <path id="Path_574" data-name="Path 574" d="M510.75,425.636v-.125a15.9,15.9,0,0,0-.522-5.963,30.212,30.212,0,0,1-.44-3.771,31.062,31.062,0,0,0,.44,7.177C510.414,423.844,510.613,424.742,510.75,425.636Z" transform="translate(-508.191 -349.273)"/>
      <path id="Path_575" data-name="Path 575" d="M514.156,400.8a31.5,31.5,0,0,1,2.964-4.168c-2.078,1.987-5.918.216-6.724-2.544a6.622,6.622,0,0,0,0,3.407,4.986,4.986,0,0,0,3.759,3.306Z" transform="translate(-508.133 -352.216)"/>
    </g>
    <path id="Path_576" data-name="Path 576" d="M763.631,656.57s3.6,13.061,0,24.418S763.631,656.57,763.631,656.57Z" transform="translate(13.312 -107.274)" opacity="0.1"/>
    <path id="Path_577" data-name="Path 577" d="M777.3,668.3s1.511,16.581-1.9,19.523S777.3,668.3,777.3,668.3Z" transform="translate(14.972 -105.683)" opacity="0.1"/>
    <line id="Line_23" data-name="Line 23" y1="1.135" x2="115.4" transform="translate(225.994 388.252)" fill="none" stroke="#44bba4" stroke-miterlimit="10" stroke-width="2"/>
    <line id="Line_24" data-name="Line 24" y1="1.125" x2="115.4" transform="translate(225.994 402.424)" fill="none" stroke="#44bba4" stroke-miterlimit="10" stroke-width="2"/>
    <line id="Line_25" data-name="Line 25" y1="1.135" x2="115.4" transform="translate(225.994 416.587)" fill="none" stroke="#44bba4" stroke-miterlimit="10" stroke-width="2"/>
  </g>
</svg>
