<svg xmlns="http://www.w3.org/2000/svg" xmlns:xlink="http://www.w3.org/1999/xlink" width="1191" height="822.078" viewBox="0 0 1191 822.078">
  <defs>
    <linearGradient id="linear-gradient" x1="0.5" y1="1" x2="0.5" gradientUnits="objectBoundingBox">
      <stop offset="0" stop-color="gray" stop-opacity="0.251"/>
      <stop offset="0.54" stop-color="gray" stop-opacity="0.122"/>
      <stop offset="1" stop-color="gray" stop-opacity="0.102"/>
    </linearGradient>
  </defs>
  <g id="sup8" transform="translate(0.001)">
    <path id="Path_605" data-name="Path 605" d="M38.868,484.852c21.051-34.386,68.658-28.4,102.416-10.442s67.447,44.744,104.6,39.6c31.327-4.344,57.015-31.66,70.891-63.175s17.95-67.049,21.856-101.846q7.362-65.587,14.713-131.258c1.8-16.008,3.916-32.9,12.917-45.577,11.894-16.707,33.7-21.845,52.347-16.828s34.552,18.494,48.159,33.52C510.35,236.96,535.046,302.005,573.15,355.549c7.759,10.9,16.52,21.679,28.11,26.941,16.707,7.571,35.89,2.214,52.21-6.212C706.725,348.825,742.5,292.8,777.658,240.529c17.1-25.406,37.957-52.576,66.412-55.344,29.937-2.98,55.928,22.534,73.524,49.549,56.471,86.92,68.574,205.584,136.792,281.394,8.468,9.4,17.813,18.085,28.573,23.922a73.766,73.766,0,0,0,11.068,4.856c59.52,20.6,79.36,103.3,35.336,152.34-.95,1.052-1.928,2.088-2.9,3.133-6.537,6.9-13.939,13.429-22.774,15.486-8.218,1.9-16.708-.293-24.852-2.663-52.063-15.193-103.5-38.416-157.333-37.289-52.378,1.052-102.062,25.242-153.855,33.948-34.824,5.858-70.255,4.689-105.466,3.425q-175.909-6.328-351.744-14.725c-58.184-2.673-116.4-5.22-174.561-8.2-44.818-2.328-73.366-7.455-78.567-59.469C52.767,585.358,11.874,528.96,38.868,484.852Z" transform="translate(-29.72 -52.066)" fill="#666af6" opacity="0.1"/>
    <ellipse id="Ellipse_77" data-name="Ellipse 77" cx="281.927" cy="39.398" rx="281.927" ry="39.398" transform="translate(542.899 743.283)" fill="#30374e"/>
    <path id="Path_606" data-name="Path 606" d="M178.46,643.152s13.783-3.133,22.816,6.135c0,0-5.806,5.22-19.458-.564Z" transform="translate(-23.142 -30.437)" fill="#666af6"/>
    <path id="Path_607" data-name="Path 607" d="M177.2,643s-8.165,11.569-2.98,23.442c0,0,7.059-3.394,6.861-18.222Z" transform="translate(-23.406 -30.422)" fill="#666af6"/>
    <path id="Path_608" data-name="Path 608" d="M168.2,626.474s4.9-10.6,28.194,2.214c0,0-2.507,7.08-12.406,7.187S171.124,631.684,168.2,626.474Z" transform="translate(-23.597 -31.333)" fill="#666af6"/>
    <path id="Path_609" data-name="Path 609" d="M167.247,625.68s-11.664-.543-11.007,26.023c0,0,7.445,1.052,12.1-7.713S170.517,630.724,167.247,625.68Z" transform="translate(-24.127 -31.188)" fill="#666af6"/>
    <path id="Path_610" data-name="Path 610" d="M159,606.339s5.22-18.462,29.728-7.187c0,0-4.281,16.905-26.941,13.2Z" transform="translate(-24.004 -32.522)" fill="#666af6"/>
    <path id="Path_611" data-name="Path 611" d="M150.29,580.948s11.044-19.046,33.927-3.592c0,0-6.463,17.616-31.629,9.973Z" transform="translate(-24.389 -33.591)" fill="#666af6"/>
    <path id="Path_612" data-name="Path 612" d="M146.15,556.509s13.189-17.7,35.879-2.412c0,0-12.593,15.6-35.6,6.682Z" transform="translate(-24.572 -34.627)" fill="#666af6"/>
    <path id="Path_613" data-name="Path 613" d="M142.41,532.812s13.322-18.441,35.075-3.288c0,0-15.33,16.53-34.8,7.382Z" transform="translate(-24.737 -35.703)" fill="#666af6"/>
    <path id="Path_614" data-name="Path 614" d="M142.23,511.753s13.731-23.526,34.093-9.575c0,0-15.058,20.436-33.8,13.848Z" transform="translate(-24.745 -36.843)" fill="#666af6"/>
    <path id="Path_615" data-name="Path 615" d="M144,486.731s14.62-23.39,34.552-7.5c0,0-17.856,20.624-34.323,11.643Z" transform="translate(-24.667 -37.907)" fill="#666af6"/>
    <path id="Path_616" data-name="Path 616" d="M147.65,464.417s17.752-22.252,35.033-15.005c0,0-18.462,23.6-35.5,20.634Z" transform="translate(-24.527 -39.045)" fill="#666af6"/>
    <path id="Path_617" data-name="Path 617" d="M152.682,443.2s20.4-27.15,33.8-19.444c0,0-14.942,20.978-35.059,24.382Z" transform="translate(-24.337 -40.176)" fill="#666af6"/>
    <path id="Path_618" data-name="Path 618" d="M160.342,418.166s17.929-22.263,32.37-18c0,0-15.089,22.859-34.563,24.727Z" transform="translate(-24.042 -41.183)" fill="#666af6"/>
    <path id="Path_619" data-name="Path 619" d="M167.126,394.869s20.027-21.51,29.562-18.608c0,0-13.939,23.349-30.2,23.13Z" transform="translate(-23.673 -42.226)" fill="#666af6"/>
    <path id="Path_620" data-name="Path 620" d="M173.87,373.528s16.8-25.218,26.962-24.015c0,0-9.722,22.127-26.794,26.45Z" transform="translate(-23.347 -43.398)" fill="#666af6"/>
    <path id="Path_621" data-name="Path 621" d="M180.872,344.447s15.026-19.486,23.819-20.027c0,0-11.184,25.418-24.091,26.1Z" transform="translate(-23.049 -44.507)" fill="#666af6"/>
    <path id="Path_622" data-name="Path 622" d="M184.923,326.057,198.06,286.7s3.133,34.563-14.62,46.593Z" transform="translate(-22.923 -46.176)" fill="#666af6"/>
    <path id="Path_623" data-name="Path 623" d="M188.308,285s.459-32.151-1.388-34.637c0,0,13.021,25.833,2.235,48.776Z" transform="translate(-22.769 -47.782)" fill="#666af6"/>
    <path id="Path_624" data-name="Path 624" d="M159.455,605.575s-16.979-9-25.865,16.425c0,0,15.142,8.646,28.194-10.244Z" transform="translate(-25.127 -32.144)" fill="#666af6"/>
    <path id="Path_625" data-name="Path 625" d="M150.929,579.635s-20.592-7.779-28.559,18.671c0,0,16.153,9.555,30.815-12.279Z" transform="translate(-25.624 -33.27)" fill="#666af6"/>
    <path id="Path_626" data-name="Path 626" d="M146.879,557.938S131.436,542.162,111,560.372c0,0,14.55,13.773,36.162,1.869Z" transform="translate(-26.127 -34.463)" fill="#666af6"/>
    <path id="Path_627" data-name="Path 627" d="M143.431,532.753s-15.663-16.509-35.2,1.42c0,0,17.4,14.337,35.5,2.663Z" transform="translate(-26.249 -35.602)" fill="#666af6"/>
    <path id="Path_628" data-name="Path 628" d="M143.677,512.422s-11.862-24.508-33.238-12.186c0,0,13.429,21.542,32.621,16.436Z" transform="translate(-26.151 -36.887)" fill="#666af6"/>
    <path id="Path_629" data-name="Path 629" d="M146.589,486.657S134.759,461.7,113.108,475.1c0,0,15.309,22.566,32.726,15.591Z" transform="translate(-26.035 -38.02)" fill="#666af6"/>
    <path id="Path_630" data-name="Path 630" d="M150.741,464.931s-5.89-27.828-24.592-29.1c0,0,5.932,29.374,22.461,34.333Z" transform="translate(-25.457 -39.581)" fill="#666af6"/>
    <path id="Path_631" data-name="Path 631" d="M153.908,443.775s-3.832-33.739-19.282-33.9c0,0,2.246,25.656,17.866,38.793Z" transform="translate(-25.085 -40.729)" fill="#666af6"/>
    <path id="Path_632" data-name="Path 632" d="M162.626,417.632s-6.486-27.839-21.376-30.282c0,0,3.655,27.15,20.394,37.3Z" transform="translate(-24.788 -41.726)" fill="#666af6"/>
    <path id="Path_633" data-name="Path 633" d="M169.284,395.549S167.2,366.237,157.9,362.53c0,0-3.769,26.92,9.033,36.945Z" transform="translate(-24.074 -42.823)" fill="#666af6"/>
    <path id="Path_634" data-name="Path 634" d="M175.056,373.59s-3.289-30.126-12.854-33.75c0,0-1.567,24.11,11.591,35.816Z" transform="translate(-23.865 -43.826)" fill="#666af6"/>
    <path id="Path_635" data-name="Path 635" d="M182.676,347.086s-1.713-24.541-8.719-29.876c0,0-4.782,27.346,5.587,35.043Z" transform="translate(-23.392 -44.826)" fill="#666af6"/>
    <path id="Path_636" data-name="Path 636" d="M184.442,324.993l-9.189-40.453s-6.505,34.083,9.992,47.8Z" transform="translate(-23.342 -46.272)" fill="#666af6"/>
    <path id="Path_637" data-name="Path 637" d="M183.4,285.527S165,259.129,165.139,256.06c0,0,3.7,28.7,25.49,41.654Z" transform="translate(-23.733 -47.531)" fill="#666af6"/>
    <path id="Path_638" data-name="Path 638" d="M185.081,278.115s-18.231-38-25.511-40.725c0,0,23.067,9.846,26.743,39.471Z" transform="translate(-23.978 -48.355)" fill="#666af6"/>
    <path id="Path_639" data-name="Path 639" d="M180.588,352.954l-1.052-.261c10.286-43.857,11.745-71.508,4.072-77.857l.71-.855C192.408,280.7,191.134,308.022,180.588,352.954Z" transform="translate(-23.098 -46.738)" fill="#444053"/>
    <path id="Path_640" data-name="Path 640" d="M152.328,452.77l-1.618-.449c1.138-4.032,2.37-8.134,3.681-12.176,11.487-35.212,21.035-67.874,26.889-92.873l1.327-.784c-5.869,25.067-15.151,58.925-26.617,94.167C154.689,444.689,153.457,448.762,152.328,452.77Z" transform="translate(-24.371 -43.533)" fill="#444053"/>
    <path id="Path_641" data-name="Path 641" d="M201.9,682.747c-.23-.219-23.2-22.838-40.844-62.9a242.642,242.642,0,0,1-19.433-73.9c-3.133-31.879,1.148-68.014,10.442-101.184l1.336,1.378c-20.885,74.464-6.463,136.1,9.641,172.713,17.47,39.68,40.181,62.079,40.411,62.3Z" transform="translate(-24.815 -39.186)" fill="#444053"/>
    <path id="Path_642" data-name="Path 642" d="M223.53,558.474s8.355-1.911,13.8,3.708c0,0-3.518,3.132-11.768-.351Z" transform="translate(-21.151 -34.173)" fill="#666af6"/>
    <path id="Path_643" data-name="Path 643" d="M222.78,558.39s-4.929,7-1.8,14.169c0,0,4.26-2.088,4.177-11.016Z" transform="translate(-21.309 -34.163)" fill="#666af6"/>
    <path id="Path_644" data-name="Path 644" d="M217.34,548.385s2.955-6.4,17.021,1.346c0,0-1.515,4.27-7.5,4.333S219.126,551.539,217.34,548.385Z" transform="translate(-21.424 -34.714)" fill="#666af6"/>
    <path id="Path_645" data-name="Path 645" d="M216.762,547.91s-7.059-.324-6.661,15.726c0,0,4.5.626,7.31-4.658S218.736,550.959,216.762,547.91Z" transform="translate(-21.746 -34.627)" fill="#666af6"/>
    <path id="Path_646" data-name="Path 646" d="M211.75,536.218s3.206-11.163,17.992-4.365c0,0-2.579,10.223-16.28,7.978Z" transform="translate(-21.671 -35.432)" fill="#666af6"/>
    <path id="Path_647" data-name="Path 647" d="M206.51,520.867s6.672-11.487,20.51-2.172c0,0-3.916,10.651-19.119,6.025Z" transform="translate(-21.902 -36.079)" fill="#666af6"/>
    <path id="Path_648" data-name="Path 648" d="M204,506.091s7.978-10.7,21.688-1.462c0,0-7.6,9.4-21.51,4.041Z" transform="translate(-22.015 -36.707)" fill="#666af6"/>
    <path id="Path_649" data-name="Path 649" d="M201.74,491.767s8.064-11.152,21.211-1.984c0,0-9.263,9.992-21.035,4.46Z" transform="translate(-22.114 -37.356)" fill="#666af6"/>
    <path id="Path_650" data-name="Path 650" d="M201.64,479.032s8.355-14.211,20.6-5.785c0,0-9.1,12.353-20.436,8.355Z" transform="translate(-22.118 -38.043)" fill="#666af6"/>
    <path id="Path_651" data-name="Path 651" d="M202.68,463.915s8.865-14.15,20.885-4.573c0,0-10.8,12.467-20.758,7.038Z" transform="translate(-22.073 -38.689)" fill="#666af6"/>
    <path id="Path_652" data-name="Path 652" d="M204.912,450.421s10.725-13.449,21.177-9.065c0,0-11.163,14.264-21.439,12.469Z" transform="translate(-21.984 -39.376)" fill="#666af6"/>
    <path id="Path_653" data-name="Path 653" d="M207.952,437.593s12.332-16.4,20.436-11.757c0,0-9.033,12.688-21.2,14.744Z" transform="translate(-21.872 -40.059)" fill="#666af6"/>
    <path id="Path_654" data-name="Path 654" d="M212.585,422.475s10.839-13.459,19.589-10.881c0,0-9.115,13.815-20.885,14.942Z" transform="translate(-21.692 -40.668)" fill="#666af6"/>
    <path id="Path_655" data-name="Path 655" d="M216.686,408.374s12.1-13,17.866-11.247c0,0-8.414,14.108-18.253,13.982Z" transform="translate(-21.472 -41.3)" fill="#666af6"/>
    <path id="Path_656" data-name="Path 656" d="M220.76,395.477s10.167-15.251,16.3-14.535c0,0-5.869,13.377-16.2,16Z" transform="translate(-21.273 -42.01)" fill="#666af6"/>
    <path id="Path_657" data-name="Path 657" d="M225.007,377.893s9.084-11.778,14.4-12.113c0,0-6.766,15.372-14.567,15.757Z" transform="translate(-21.092 -42.679)" fill="#666af6"/>
    <path id="Path_658" data-name="Path 658" d="M227.45,366.767,235.375,343s1.879,20.885-8.865,28.194Z" transform="translate(-21.019 -43.687)" fill="#666af6"/>
    <path id="Path_659" data-name="Path 659" d="M229.5,341.947s.272-19.433-.847-20.937c0,0,7.874,15.612,1.346,29.488Z" transform="translate(-20.924 -44.659)" fill="#666af6"/>
    <path id="Path_660" data-name="Path 660" d="M212.043,535.76s-10.255-5.45-15.663,9.92c0,0,9.157,5.222,17.053-6.181Z" transform="translate(-22.351 -35.204)" fill="#666af6"/>
    <path id="Path_661" data-name="Path 661" d="M206.9,520.028s-12.458-4.7-17.272,11.287c0,0,9.764,5.774,18.629-7.413Z" transform="translate(-22.65 -35.887)" fill="#666af6"/>
    <path id="Path_662" data-name="Path 662" d="M204.438,506.952s-9.326-9.534-21.688,1.462c0,0,8.8,8.355,21.866,1.127Z" transform="translate(-22.954 -36.607)" fill="#666af6"/>
    <path id="Path_663" data-name="Path 663" d="M202.361,491.727s-9.466-9.973-21.281.866c0,0,10.518,8.656,21.447,1.607Z" transform="translate(-23.028 -37.295)" fill="#666af6"/>
    <path id="Path_664" data-name="Path 664" d="M202.511,479.4s-7.173-14.818-20.1-7.373c0,0,8.123,13.021,19.726,9.941Z" transform="translate(-22.968 -38.074)" fill="#666af6"/>
    <path id="Path_665" data-name="Path 665" d="M204.268,463.847s-7.152-15.089-20.268-6.986c0,0,9.252,13.649,19.787,9.4Z" transform="translate(-22.898 -38.758)" fill="#666af6"/>
    <path id="Path_666" data-name="Path 666" d="M206.78,450.744s-3.56-16.828-14.87-17.594c0,0,3.581,17.752,13.575,20.748Z" transform="translate(-22.548 -39.7)" fill="#666af6"/>
    <path id="Path_667" data-name="Path 667" d="M208.7,437.937s-2.3-20.392-11.7-20.5c0,0,1.357,15.517,10.8,23.463Z" transform="translate(-22.323 -40.394)" fill="#666af6"/>
    <path id="Path_668" data-name="Path 668" d="M213.957,422.135s-3.916-16.828-12.917-18.315c0,0,2.214,16.4,12.332,22.545Z" transform="translate(-22.145 -40.997)" fill="#666af6"/>
    <path id="Path_669" data-name="Path 669" d="M217.986,408.786s-1.285-17.752-6.872-19.966c0,0-2.279,16.28,5.45,22.336Z" transform="translate(-21.711 -41.66)" fill="#666af6"/>
    <path id="Path_670" data-name="Path 670" d="M221.477,395.5s-1.977-18.211-7.762-20.4c0,0-.95,14.62,7.012,21.658Z" transform="translate(-21.584 -42.267)" fill="#666af6"/>
    <path id="Path_671" data-name="Path 671" d="M226.079,379.484s-1.052-14.839-5.22-18.064c0,0-2.892,16.541,3.373,21.188Z" transform="translate(-21.298 -42.872)" fill="#666af6"/>
    <path id="Path_672" data-name="Path 672" d="M227.177,366.125l-5.555-24.455s-3.937,20.613,6.035,28.9Z" transform="translate(-21.27 -43.745)" fill="#666af6"/>
    <path id="Path_673" data-name="Path 673" d="M226.53,342.274s-11.121-15.952-11.044-17.813c0,0,2.225,17.344,15.4,25.176Z" transform="translate(-21.509 -44.507)" fill="#666af6"/>
    <path id="Path_674" data-name="Path 674" d="M227.514,337.782s-11.026-22.972-15.426-24.592a29.976,29.976,0,0,1,16.164,23.87Z" transform="translate(-21.657 -45.004)" fill="#666af6"/>
    <path id="Path_675" data-name="Path 675" d="M224.817,383.023l-.657-.156c6.265-26.513,7.1-43.231,2.465-47.063l.428-.526C231.971,339.348,231.2,355.873,224.817,383.023Z" transform="translate(-21.122 -44.028)" fill="#444053"/>
    <path id="Path_676" data-name="Path 676" d="M207.742,443.379l-.982-.282c.689-2.433,1.441-4.908,2.235-7.31,6.922-21.291,12.709-41.038,16.248-56.147l.8-.48c-3.55,15.142-9.157,35.629-16.092,56.941C209.162,438.513,208.42,440.946,207.742,443.379Z" transform="translate(-21.891 -42.087)" fill="#444053"/>
    <path id="Path_677" data-name="Path 677" d="M237.708,582.415c-.135-.135-14.024-13.8-24.7-38.039A146.941,146.941,0,0,1,201.267,499.7c-1.911-19.283.7-41.121,6.328-61.178l.8.836c-12.621,45.016-3.906,82.284,5.827,104.422,10.567,24.016,24.289,37.513,24.434,37.655Z" transform="translate(-22.161 -39.465)" fill="#444053"/>
    <path id="Path_678" data-name="Path 678" d="M270.924,632.729a39.92,39.92,0,0,0-7.832,2.235C206.766,657.457,207.7,804.691,207.7,804.691H191.115s-5.22-63.185-27.975-153.333c-20.5-81.1,63.573-153.792,80.645-167.582,1.928-1.536,2.98-2.349,2.98-2.349C331.456,512.551,270.924,632.729,270.924,632.729Z" transform="translate(-23.965 -37.567)" fill="#666af6"/>
    <path id="Path_679" data-name="Path 679" d="M252.933,483.99c-1.953-.9-3.969-1.753-6.109-2.538,0,0-1.052.815-2.98,2.349C226.77,497.584,142.7,570.272,163.2,651.383c22.753,90.147,27.923,153.311,27.923,153.311h9.326s-5.169-63.185-27.975-153.333C152.052,570.625,235.307,498.208,252.933,483.99Z" transform="translate(-23.958 -37.562)" fill="#fff" opacity="0.2"/>
    <path id="Path_680" data-name="Path 680" d="M539.211,651.379c-22.806,90.138-27.942,153.311-27.942,153.311H494.656s1.052-153.876-59.239-171.053a32.945,32.945,0,0,0-3.979-.929s-60.564-120.179,24.142-151.28c0,0,.855.636,2.4,1.879C473.677,495.872,559.94,569.333,539.211,651.379Z" transform="translate(-12.885 -37.567)" fill="#666af6"/>
    <path id="Path_681" data-name="Path 681" d="M267.369,632.725a39.911,39.911,0,0,0-7.832,2.235,1022.515,1022.515,0,0,1-19.3-151.16c1.928-1.536,2.98-2.349,2.98-2.349C327.9,512.547,267.369,632.725,267.369,632.725Z" transform="translate(-20.412 -37.563)" opacity="0.1"/>
    <path id="Path_682" data-name="Path 682" d="M458.011,483.33A940.824,940.824,0,0,1,435.445,633.7a32.932,32.932,0,0,0-3.979-.929S370.9,512.589,455.608,481.488C455.581,481.449,456.433,482.087,458.011,483.33Z" transform="translate(-12.885 -37.565)" opacity="0.1"/>
    <path id="Path_683" data-name="Path 683" d="M434.457,674.305q-8.765,34.605-20.56,71.007s-37.3,38.856-127.394,0c0,0-9-25.374-18.9-68.511-21.793-94.847-47.929-275.589,7.759-461.24a691.012,691.012,0,0,1,70.151-159.2s47.575,54.624,82.494,159.168S485.144,474.569,434.457,674.305Z" transform="translate(-20.332 -56.36)" fill="#44bba4"/>
    <circle id="Ellipse_78" data-name="Ellipse 78" cx="74.797" cy="74.797" r="74.797" transform="translate(257.953 231.784)" fill="#afc0e0"/>
    <path id="Path_684" data-name="Path 684" d="M403.672,352.249A53.046,53.046,0,0,1,317,393.268a53.6,53.6,0,0,1-9.941-10.786,52.2,52.2,0,0,1-3.425-5.629,52.938,52.938,0,0,1-6.046-24.611v-1.264a53.114,53.114,0,0,1,38.637-49.829,54.85,54.85,0,0,1,12.781-1.942h1.586a53.046,53.046,0,0,1,53.078,53.043Z" transform="translate(-17.876 -45.626)" fill="#666af6"/>
    <path id="Path_685" data-name="Path 685" d="M426.582,215.529c-84.864,40.63-152.682,0-152.682,0A691.019,691.019,0,0,1,344.1,56.361S391.677,110.983,426.582,215.529Z" transform="translate(-18.924 -56.359)" fill="#666af6"/>
    <path id="Path_686" data-name="Path 686" d="M433.377,648.14q-5.96,23.432-13.261,47.668-3.467,11.559-7.31,23.314s-37.3,38.856-127.394,0c0,0-2.924-8.239-7.31-23.314-3.278-11.382-7.362-26.645-11.622-45.2,0,0,33.541,14.316,81.146,14.316a223.577,223.577,0,0,0,85.751-16.781Z" transform="translate(-19.252 -30.195)" fill="#666af6"/>
    <path id="Path_687" data-name="Path 687" d="M419.624,693.79q-3.467,11.559-7.31,23.314s-37.3,38.856-127.394,0c0,0-2.924-8.239-7.31-23.314C277.593,693.79,369.428,720.209,419.624,693.79Z" transform="translate(-18.76 -28.177)" fill="#e3e8f4"/>
    <path id="Path_688" data-name="Path 688" d="M336.256,301.086l-.116.084-38.53,49.745v1.264a52.939,52.939,0,0,0,6.046,24.612l45.4-77.656Z" transform="translate(-17.875 -45.628)" fill="#fff" opacity="0.2"/>
    <path id="Path_689" data-name="Path 689" d="M348.156,344.172,316.6,391.422a53.593,53.593,0,0,1-9.941-10.786l37.58-40.356Z" transform="translate(-17.473 -43.807)" fill="#fff" opacity="0.2"/>
    <path id="Path_690" data-name="Path 690" d="M306.656,745.291s-9-25.376-18.9-68.511c-21.793-94.856-47.929-275.6,7.759-461.251a693.552,693.552,0,0,1,61.452-144.2c-7.07-9.909-11.487-14.963-11.487-14.963a690.938,690.938,0,0,0-70.169,159.159c-55.688,185.652-29.551,366.4-7.759,461.251,9.9,43.123,18.9,68.511,18.9,68.511,35.6,15.34,62.945,18.555,83.015,16.842C352.319,760.829,331.5,755.994,306.656,745.291Z" transform="translate(-20.332 -56.359)" fill="#fff" opacity="0.2"/>
    <path id="Path_691" data-name="Path 691" d="M966.7,794.687s48.807-60.731,45.577-121.557a118.049,118.049,0,0,1,19.353-72.12,198.588,198.588,0,0,1,22.973-28.194" transform="translate(11.709 -33.527)" fill="none" stroke="#535461" stroke-miterlimit="10" stroke-width="2"/>
    <path id="Path_692" data-name="Path 692" d="M1049.166,536.576c-3.488,8.469,1.734,39.347,1.734,39.347s25.448-18.253,28.936-26.722a16.586,16.586,0,1,0-30.677-12.621Z" transform="translate(15.306 -35.582)" fill="#666af6"/>
    <path id="Path_693" data-name="Path 693" d="M1006.34,571.91c1.681,9,22.848,32.079,22.848,32.079s11.487-29.145,9.764-38.155a16.585,16.585,0,1,0-32.608,6.078Z" transform="translate(13.451 -34.432)" fill="#666af6"/>
    <path id="Path_694" data-name="Path 694" d="M975.961,649.462c5.993,6.922,35.922,16.164,35.922,16.164s-4.845-30.94-10.839-37.874a16.581,16.581,0,0,0-25.067,21.712Z" transform="translate(11.94 -31.348)" fill="#666af6"/>
    <path id="Path_695" data-name="Path 695" d="M965.944,713c4.733,7.843,32.663,22,32.663,22s.459-31.327-4.27-39.157A16.589,16.589,0,1,0,965.939,713Z" transform="translate(11.568 -28.44)" fill="#666af6"/>
    <path id="Path_696" data-name="Path 696" d="M1060.062,617.424c-8.5,3.394-39.326-2.14-39.326-2.14s18.5-25.26,27.015-28.664a16.587,16.587,0,0,1,12.311,30.8Z" transform="translate(14.095 -32.967)" fill="#666af6"/>
    <path id="Path_697" data-name="Path 697" d="M1047.382,691.745c-9.126.7-36.882-13.8-36.882-13.8s25.207-18.581,34.344-19.283a16.591,16.591,0,1,1,2.538,33.085Z" transform="translate(13.645 -29.734)" fill="#666af6"/>
    <path id="Path_698" data-name="Path 698" d="M1025.328,762.224c-8.886,2.235-38.688-7.373-38.688-7.373s21.708-22.566,30.6-24.79a16.582,16.582,0,1,1,8.094,32.162Z" transform="translate(12.591 -26.595)" fill="#666af6"/>
    <path id="Path_699" data-name="Path 699" d="M1049.166,536.576c-3.488,8.469,1.734,39.347,1.734,39.347s25.448-18.253,28.936-26.722a16.586,16.586,0,1,0-30.677-12.621Z" transform="translate(15.306 -35.582)" opacity="0.25"/>
    <path id="Path_700" data-name="Path 700" d="M1006.34,571.91c1.681,9,22.848,32.079,22.848,32.079s11.487-29.145,9.764-38.155a16.585,16.585,0,1,0-32.608,6.078Z" transform="translate(13.451 -34.432)" opacity="0.25"/>
    <path id="Path_701" data-name="Path 701" d="M975.961,649.462c5.993,6.922,35.922,16.164,35.922,16.164s-4.845-30.94-10.839-37.874a16.581,16.581,0,0,0-25.067,21.712Z" transform="translate(11.94 -31.348)" opacity="0.25"/>
    <path id="Path_702" data-name="Path 702" d="M965.944,713c4.733,7.843,32.663,22,32.663,22s.459-31.327-4.27-39.157A16.589,16.589,0,1,0,965.939,713Z" transform="translate(11.568 -28.44)" opacity="0.25"/>
    <path id="Path_703" data-name="Path 703" d="M1060.062,617.424c-8.5,3.394-39.326-2.14-39.326-2.14s18.5-25.26,27.015-28.664a16.587,16.587,0,0,1,12.311,30.8Z" transform="translate(14.095 -32.967)" opacity="0.25"/>
    <path id="Path_704" data-name="Path 704" d="M1047.382,691.745c-9.126.7-36.882-13.8-36.882-13.8s25.207-18.581,34.344-19.283a16.591,16.591,0,1,1,2.538,33.085Z" transform="translate(13.645 -29.734)" opacity="0.25"/>
    <path id="Path_705" data-name="Path 705" d="M1025.328,762.224c-8.886,2.235-38.688-7.373-38.688-7.373s21.708-22.566,30.6-24.79a16.582,16.582,0,1,1,8.094,32.162Z" transform="translate(12.591 -26.595)" opacity="0.25"/>
    <path id="Path_706" data-name="Path 706" d="M967.12,789.94s69.231-35.76,90.92-92.664a118,118,0,0,1,46.926-58.089,198.322,198.322,0,0,1,32.37-16.457" transform="translate(11.727 -31.317)" fill="none" stroke="#535461" stroke-miterlimit="10" stroke-width="2"/>
    <path id="Path_707" data-name="Path 707" d="M1144.027,588.655c-6.621,6.339-14.358,36.684-14.358,36.684s30.657-6.381,37.278-12.709a16.6,16.6,0,0,0-22.92-24.016Z" transform="translate(18.913 -33.029)" fill="#666af6"/>
    <path id="Path_708" data-name="Path 708" d="M1090.174,603.61c-2.088,8.917,7.888,38.637,7.888,38.637s22.231-22,24.382-30.971a16.583,16.583,0,1,0-32.267-7.664Z" transform="translate(17.156 -32.726)" fill="#666af6"/>
    <path id="Path_709" data-name="Path 709" d="M1030.972,662.2c2.673,8.765,26.294,29.332,26.294,29.332s8.113-30.282,5.434-39a16.586,16.586,0,1,0-31.73,9.67Z" transform="translate(14.519 -30.519)" fill="#666af6"/>
    <path id="Path_710" data-name="Path 710" d="M996.065,716.221c1.148,9.094,20.948,33.352,20.948,33.352s13.116-28.435,11.957-37.529a16.584,16.584,0,0,0-32.9,4.177Z" transform="translate(13.002 -28.009)" fill="#666af6"/>
    <path id="Path_711" data-name="Path 711" d="M1121.01,666.7c-9.158-.335-35.085-17.88-35.085-17.88s27.15-15.591,36.307-15.251a16.583,16.583,0,1,1-1.227,33.143Z" transform="translate(16.977 -30.834)" fill="#666af6"/>
    <path id="Path_712" data-name="Path 712" d="M1079.123,729.457c-8.637-3.059-28.131-27.567-28.131-27.567s30.585-6.756,39.21-3.7a16.585,16.585,0,1,1-11.079,31.264Z" transform="translate(15.438 -28.015)" fill="#666af6"/>
    <path id="Path_713" data-name="Path 713" d="M1030.494,784.979c-9.022-1.557-32.37-22.418-32.37-22.418s29-11.82,38.02-10.265a16.583,16.583,0,1,1-5.639,32.684Z" transform="translate(13.102 -25.595)" fill="#666af6"/>
    <path id="Path_714" data-name="Path 714" d="M1079.872,768.95l-53.662-77.831s-1.052-19.265-4.51-23.766-.752-14.515-.752-14.515,3.76-5.5.5-6-.5-12.77-.5-12.77l-.251-19.516s3.008-18.8.5-23.265a7.384,7.384,0,0,1,.251-8.009s3.008-10.767,0-13.512-2.256-19.526-1.5-32.78-5.273-20.769-5.273-22.774-19.842-21.526-19.842-23.262-12.53-9.012-20.059-11.017-11.287-3.506-11.044-4.5-11.789-5-11.789-5-10.535-.752-14.55-6.014-16.28-6.766-16.634-6.819c-.074-.351-.156-.7-.23-1.052s-.156-.752-.23-1.127c.95-1.6,1.827-3.227,2.629-4.908.24-.512.47-1.052.689-1.525a21.419,21.419,0,0,0,12.353-3.832,16.828,16.828,0,0,0,6-12,26.294,26.294,0,0,0-2.934-13.335c-2.193-4.51-5.42-9.178-4.312-14.066.491-2.088,1.753-3.969,2.4-6.035a15.9,15.9,0,0,0-1.807-11.852c-1.9-3.634-4.542-6.837-6.653-10.342a40.412,40.412,0,0,1-5.294-14.62,22.86,22.86,0,0,0-1.963-7.967,14.837,14.837,0,0,0-4.4-4.438,43.931,43.931,0,0,0-26.962-8.176c-6.837.24-13.638,2.088-20.415,1.243a73.465,73.465,0,0,1-11.92-3.133c-8.414-2.486-18.117-3.506-25.448,1.306s-10.244,14.285-15.2,21.688c-4.382,6.558-10.818,12.05-14.16,18.984a1.487,1.487,0,0,1,.105-.4,22.721,22.721,0,0,0-1.869,5.054c-1.274,5.45-.209,11.152,1.117,16.593.678,2.8,1.618,5.858,4.051,7.413s5.879,1.211,8.765,1.723c-.105.47-.23.95-.335,1.43a57.321,57.321,0,0,0,39.774,66.829v1.525a37.9,37.9,0,0,1-.261,4.3h0s-25.218-5.22-31.995-1.671-20.069,6.265-22.075,8.249-7.012.5-11.487,12.271-5.012,23.767-10.788,29.238-8.765,9.263-9.022,13.272.752,5-1.515,6.265-5.513,6.505-4.51,8.511c0,0,1.253,5-2.757,7.5a8.383,8.383,0,0,0-3.52,7.508s-1.5,5.513-5.012,6.756-5.774,9.513-5.774,9.513L734.385,607.4l-22.557-24.966a9.5,9.5,0,0,0-13.419-.689l-11.068,9.983a21.868,21.868,0,0,0-11.079,6.6,28.558,28.558,0,0,0-5.732,8.542l-6.067,5.45a15.4,15.4,0,0,0-1.557,17l14.441,15.966.095.135a25.507,25.507,0,0,0-13.971,5.692c-21.561,19.016-21.824,36.547-18.555,44.536s30.6,38.793,30.6,38.793,15.882,20.644,38.814,31.629h0l-.175.175c-.449.48-.9,1.052-1.337,1.567l-.375.48-.351.48-.407.607c-.116.156-.219.324-.324.491s-.293.47-.428.72l-.282.48c-.175.314-.351.636-.512.971l-.175.324c-.209.438-.417.887-.615,1.357-.074.175-.137.351-.209.512-.126.324-.261.657-.386,1.052s-.156.428-.23.647-.219.647-.324.982-.146.47-.209.7-.209.731-.3,1.106-.116.438-.175.678c-.135.575-.272,1.169-.386,1.8a4.383,4.383,0,0,1-.126.71q-.124.626-.219,1.285c-.053.3-.084.607-.124.908s-.105.826-.156,1.243l-.095.961c0,.459-.084.94-.114,1.42a4.931,4.931,0,0,1-.052.876c0,.794-.084,1.588-.095,2.423-.5,29.237,1.211,33.53,1.211,33.53s3.539,9.324,13.322,9.992a17.026,17.026,0,0,0,4.291-.229c13.042-2.256,43.638-7.508,54.424-5.5,6.486,1.2,18.494-.575,27.044-2.193l2.246-.428,1.567,4.97,4.959-1.357,4.177,2.433,2.663,1.525c4.95,16.792,25.067,11.068,25.067,11.068l4.721,2.736,48.41,1.253s10.442,6.265,17.135,8.228a15.927,15.927,0,0,0,2.433.526,109.84,109.84,0,0,0,13.5.251c3.707-.095,6.579-.251,6.579-.251s-.491-13.147-1.2-27.86c18.5-.773,34.908-1.928,44.839-3.681,25.854-4.542,36.637-28.047,40.609-40.609a118.173,118.173,0,0,1,2.538,15.591,111.505,111.505,0,0,0,4.02,13.512,45.663,45.663,0,0,0,5.513,10c19.067-6.505,7.529-16.259,3.506-20.518s2.766-7.759,2.766-7.759,5.222-3.506,4.761-6.756-.752-6.756,16.3-6.505S1079.872,768.95,1079.872,768.95ZM815,609.184c.219,1.43,2.6,16.853,4.751,20.885a27.561,27.561,0,0,1,.565,8.239c-10.108-.8-20.634-1.227-20.634-1.227a2.422,2.422,0,0,1,.543,1.285l-1.588-.351-2.307-.564,18.618-28.319ZM778.119,667.87l17.491,2.779,1.473.23a57.541,57.541,0,0,0-.908,8.26c0,.261.4.575.961.94a22.523,22.523,0,0,0-.351,4.177c.282,1.388,8.458,4.382,17.835,6.861-.124.5-.251.982-.375,1.43h0c-8.281-4.354-21.333-6.391-22.837-9.627s-45.945-18.8-45.945-18.8-1.618-.855-4.417-2.214l11.7,2.214,3.217-.324a175.365,175.365,0,0,0,22.159,4.051Z" transform="translate(-2.586 -43.889)" fill="url(#linear-gradient)"/>
    <path id="Path_715" data-name="Path 715" d="M1020.092,765.13s-6.954,42.009-42.26,48.222-153.145,4.971-153.145,4.971-67.373-9.69-91.734-66.621-40.025-79.559-19.14-80.552,133.5,38.039,139.924,38.532S1026.311,623.169,1020.092,765.13Z" transform="translate(0.097 -29.178)" fill="#31446c"/>
    <path id="Path_716" data-name="Path 716" d="M1020.092,765.13s-6.954,42.009-42.26,48.222-153.145,4.971-153.145,4.971-67.373-9.69-91.734-66.621-40.025-79.559-19.14-80.552,133.5,38.039,139.924,38.532S1026.311,623.169,1020.092,765.13Z" transform="translate(0.097 -29.178)" fill="#31446c" opacity="0.05"/>
    <path id="Path_717" data-name="Path 717" d="M704.127,808.594s3.518,9.273,13.2,9.93a17.154,17.154,0,0,0,4.249-.23c12.928-2.235,43.261-7.455,53.944-5.471,6.432,1.2,18.325-.575,26.794-2.172,5.639-1.052,9.753-2.088,9.753-2.088s-9.941-33.061-11.194-34.051-44.744-27.1-44.744-27.1l-34.46-2.475h-.105a18.113,18.113,0,0,0-11.675,6.861c-3.644,4.4-6.766,11.622-6.975,23.463C702.43,804.366,704.127,808.594,704.127,808.594Z" transform="translate(0.04 -25.913)" fill="#565387"/>
    <path id="Path_718" data-name="Path 718" d="M704.125,808.594s3.518,9.273,13.2,9.93a141.46,141.46,0,0,1-9.4-13.659l.175-24.112a42.383,42.383,0,0,1,13.575-35.785h-.105s-18.148,1.227-18.65,30.282S704.125,808.594,704.125,808.594Z" transform="translate(0.041 -25.913)" opacity="0.05"/>
    <path id="Path_719" data-name="Path 719" d="M848.05,758.626l32.068-25.067,50.467-49.726s-5.45-.261-13.673-.617c-2.088,1.306-7.779,5.41-7.988,10.442-.251,6.077-13.649.417-20.6,3.9s-41.019,47.074-46.99,46.792-10.682-3.029-13.179,1.2c0,.095-.116.175-.175.272Z" transform="translate(5.575 -28.646)" opacity="0.1"/>
    <path id="Path_720" data-name="Path 720" d="M709.6,751.821c1.138.554,2.279,1.052,3.467,1.588,24.366,10.442,54.445,32.37,56.691,36.3,1.357,2.423,18.8,13.01,32.254,20.948,5.639-1.052,9.753-2.088,9.753-2.088s-9.941-33.061-11.194-34.051-44.744-27.1-44.744-27.1l-34.46-2.475h-.105a18.192,18.192,0,0,0-11.663,6.879Z" transform="translate(0.341 -25.913)" opacity="0.1"/>
    <path id="Path_721" data-name="Path 721" d="M644.906,685.413c3.227,7.957,30.282,38.542,30.282,38.542s17.146,22.368,41.519,32.81,54.445,32.37,56.68,36.3c1.441,2.558,20.885,14.253,34.542,22.294l3.059,1.786,6.787,3.937,3.592,2.088s8.355-6.682,16.613-13.408,16.322-13.314,16.457-13.689c.24-.741,3.467-9.2,2.726-9.69-.386-.261-2.088-3.707-5.222-7.7a35.312,35.312,0,0,0-12.667-10.443c-11.487-5.222-16.4-17.1-16.4-17.1s-1.052-.794-2.747-1.837c-2.945-1.858-7.674-4.531-11.173-4.98-5.482-.689-15.663-11.873-15.663-11.873s-6.964-4.48-9.7-10.192c-2.61-5.45-41.163-31.932-44.734-34.375L832.319,747.9l22.368,14.374,32.068-25.067,50.485-49.726s-6.787-.335-16.707-.752c-24.529-1.052-68.093-2.726-73.6-1.483a41.944,41.944,0,0,1-13.673.887s-12.406.564-20.613-3.769-21.146-6.36-22.639-9.564-45.5-18.639-45.5-18.639-59.919-31.8-81.306-12.91S641.666,677.467,644.906,685.413Z" transform="translate(-2.587 -30.763)" fill="#31446c"/>
    <path id="Path_722" data-name="Path 722" d="M829.82,511.673l7.713,25.6,9.941,57.672,36.547,2.486L894.6,579.891l10.6-17.512s6.579-23.314,11.308-45.852c4.177-19.945,6.912-39.3,2.36-41.4-4.032-1.869-6.682-8.589-8.355-15.81-.219-.887-.417-1.8-.607-2.7a140.591,140.591,0,0,1-2.422-18.534s-76.573-3.969-65.88,27.6a50.31,50.31,0,0,1,2.882,16.792,39.935,39.935,0,0,1-.261,4.27,35.816,35.816,0,0,1-14.4,24.936Z" transform="translate(5.657 -39.49)" fill="#ee8e9e"/>
    <path id="Path_723" data-name="Path 723" d="M814.58,505.378l2.736,43.5,6.212,37.038,6.965,17.156,6.212,93.855s59.951,6.933,74.525-.124a6.412,6.412,0,0,0,2.642-2.088C931.477,668.162,925.7,591.141,925.7,591.141l6.714-49.737-4.479-25.812-10.807-1.148-8.355-.887s-1.879,2.317-4.594,5.9c-7.373,9.732-20.885,28.873-20.017,36.861,1.227,10.944-1.493,22.128-5.722,23.87s-7.713,4.721-8.447,1.744-1.494-3.729-.752-7.957-3.238-17.156-3.238-17.156-6.7-15.161-6.265-21.626-.741-13.931-2.736-15.663-4.721-3.488-2.486-11.487-9.806-23.442-9.806-23.442Z" transform="translate(4.983 -37.424)" fill="#e3e8f4"/>
    <path id="Path_724" data-name="Path 724" d="M890.415,615.208l2.486,74.337,14.358,7.957a6.421,6.421,0,0,0,2.642-2.088c17.615-26.6,11.841-103.6,11.841-103.6l6.714-49.726-4.479-25.8-10.818-1.148c4.177-19.945,6.912-39.3,2.37-41.4-4.041-1.869-6.693-8.589-8.414-15.81h0l-7.727,52.629s.647,4.733.876,9.627a27.607,27.607,0,0,1-.626,9.263c-1.744,4.481-.5,12.437-.5,12.437-4.481,7.888-6.714,22.524-7.811,36.653C889.85,597.31,890.415,615.208,890.415,615.208Z" transform="translate(8.332 -38.602)" opacity="0.1"/>
    <path id="Path_725" data-name="Path 725" d="M907.29,456.82s12.53,1.557,16.5,6.777,14.422,5.941,14.422,5.941,11.936,3.979,11.685,4.971,3.478,2.5,10.944,4.479,19.84,9.2,19.84,10.944,19.633,21.125,19.633,23.12,5.972,9.4,5.22,22.613-1.493,29.833,1.494,32.57,0,13.429,0,13.429a7.31,7.31,0,0,0-.156,7.957c2.486,4.479-.491,23.13-.491,23.13l.24,19.391s-2.736,12.176.5,12.677-.5,5.96-.5,5.96-2.736,9.951.752,14.422,4.47,23.619,4.47,23.619l53.255,77.272s.752,14.169-16.153,13.92-16.707,3.238-16.164,6.463-4.721,6.714-4.721,6.714-6.714,3.478-2.736,7.713,15.412,13.92-3.478,20.383a45.062,45.062,0,0,1-5.471-9.941,112.454,112.454,0,0,1-3.977-13.419s-1.744-18.9-5.222-21.386-2.98-14.422-2.98-14.422,4.97-9.69-1.984-13.673-107.994-59.862-107.994-59.862l-2.486-74.337s-1.744-54.936,8.7-73.335c0,0-1.243-7.957.5-12.427s-.251-18.9-.251-18.9Z" transform="translate(8.393 -38.653)" fill="#31446c"/>
    <path id="Path_726" data-name="Path 726" d="M848.076,485.5s-24.988-5.148-31.7-1.671-19.84,6.265-21.928,8.207-6.964.5-11.435,12.186-4.98,23.61-10.693,29.081-8.7,9.2-8.949,13.179.741,4.97-1.493,6.265-5.471,6.463-4.479,8.458,51.8,45.684,51.8,45.684,2.5,16.707,4.733,20.885-2.486,62.4-7.455,66.381,33.562,3.613,33.562,3.613,1.734-38.165,3.227-40.16-1.052-42.812-1.052-42.812-.251-34.8,2.98-44,2.871-39.743,2.871-39.743,2.861-18.346,6.339-22.629S848.076,485.5,848.076,485.5Z" transform="translate(2.446 -37.512)" opacity="0.1"/>
    <path id="Path_727" data-name="Path 727" d="M847.368,484.792s-25-5.148-31.713-1.671-19.84,6.212-21.877,8.207-6.954.491-11.487,12.176-4.97,23.621-10.693,29.1-8.7,9.2-8.949,13.179.752,4.97-1.483,6.212-5.471,6.463-4.479,8.448S808.4,606.194,808.4,606.194s2.486,16.707,4.721,20.885-2.486,62.391-7.455,66.37,33.56,3.613,33.56,3.613,1.744-38.165,3.238-40.143-1.052-42.812-1.052-42.812-.24-34.8,2.98-44,2.871-39.792,2.871-39.792,2.861-18.346,6.328-22.613S847.368,484.792,847.368,484.792Z" transform="translate(2.414 -37.543)" fill="#31446c"/>
    <path id="Path_728" data-name="Path 728" d="M841.039,465.675a50.308,50.308,0,0,1,2.882,16.792,57.046,57.046,0,0,0,65.42-25.854,140.565,140.565,0,0,1-2.423-18.536S830.363,434.108,841.039,465.675Z" transform="translate(6.106 -39.489)" opacity="0.1"/>
    <path id="Path_729" data-name="Path 729" d="M804.82,429.3a56.931,56.931,0,1,0,1.227-11.831A56.931,56.931,0,0,0,804.82,429.3Z" transform="translate(4.552 -42.401)" fill="#ee8e9e"/>
    <path id="Path_730" data-name="Path 730" d="M771.939,553.06l-13.673,4.23s1.243,4.97-2.736,7.455a8.32,8.32,0,0,0-3.478,7.466s-1.493,5.46-4.971,6.7-5.722,9.4-5.722,9.4l-11.435,13.179s-4.23,3.478-3.478,5.22-4.481,2.235-4.481,2.235l2.736,44.3,23.619,4.481,14.62-1.494,11.936-4.481,10.442-6.265L790.08,633.4l20.885-31.818Z" transform="translate(0.885 -34.398)" fill="#31446c"/>
    <path id="Path_731" data-name="Path 731" d="M727.89,611.149S697.6,567.387,674.929,591s9.2,61.9,16.653,60.652,43.01-3.227,43.01-3.227Z" transform="translate(-1.546 -33.029)" fill="#ee8e9e"/>
    <rect id="Rectangle_1632" data-name="Rectangle 1632" width="64.135" height="72.886" rx="12.62" transform="translate(653.841 581.756) rotate(-42.05)" fill="#30374e"/>
    <rect id="Rectangle_1633" data-name="Rectangle 1633" width="64.135" height="72.886" rx="12.62" transform="translate(653.841 581.756) rotate(-42.05)" opacity="0.1"/>
    <rect id="Rectangle_1634" data-name="Rectangle 1634" width="64.135" height="72.886" rx="12.62" transform="translate(654.695 578.153) rotate(-42.05)" fill="#30374e"/>
    <circle id="Ellipse_79" data-name="Ellipse 79" cx="14.171" cy="14.171" r="14.171" transform="translate(687.95 571.364)" fill="#666af6"/>
    <circle id="Ellipse_80" data-name="Ellipse 80" cx="14.171" cy="14.171" r="14.171" transform="translate(687.95 571.364)" opacity="0.1"/>
    <circle id="Ellipse_81" data-name="Ellipse 81" cx="14.171" cy="14.171" r="14.171" transform="translate(688.744 569.567)" fill="#666af6"/>
    <path id="Path_732" data-name="Path 732" d="M706.5,619.422c-.251,32.82,67.624,39.774,67.624,39.774l17.333,2.757,7.769,1.227,3.238-32.037s-3.56-.526-8.009-1.565c-6.568-1.535-15.075-4.177-16.863-7.888C774.615,615.485,706.74,586.614,706.5,619.422Z" transform="translate(0.205 -32.144)" fill="#ee8e9e"/>
    <path id="Path_733" data-name="Path 733" d="M806,417.454a6.755,6.755,0,0,1,4.177,1.858c1.928,2.037,2.026,5.65,4.521,6.9a5.137,5.137,0,0,0,2.966.351c6.61-.94,10.442-8.354,16.781-10.442a16.92,16.92,0,0,1,11.121.95,8.283,8.283,0,0,1,3.681,2.37c2.088,2.747.636,6.787,1.618,10.118,1.367,4.616,6.882,6.453,11.654,7.059s10.15.94,13.335,4.542a12.1,12.1,0,0,1,2.37,9.617,7.614,7.614,0,0,0,0,3.56c1.314,3.729,7.769,3.132,9.45.23,1.227-2.14.855-3.916,3.758-4.51a12.381,12.381,0,0,1,6.088,1.052,44.6,44.6,0,0,0,15.747,2.422A56.941,56.941,0,1,0,806,417.454Z" transform="translate(4.604 -42.382)" opacity="0.1"/>
    <path id="Path_734" data-name="Path 734" d="M878.791,454.13a7.612,7.612,0,0,1,0-3.56,12.111,12.111,0,0,0-2.37-9.617c-3.133-3.6-8.563-3.948-13.335-4.542s-10.286-2.433-11.654-7.049c-.982-3.331.5-7.383-1.618-10.129a8.146,8.146,0,0,0-3.681-2.359A17.158,17.158,0,0,0,835,415.914c-6.339,2.088-10.167,9.524-16.781,10.442a5.138,5.138,0,0,1-2.966-.351c-2.5-1.253-2.6-4.866-4.521-6.893-3.019-3.2-8.751-1.138-12.446-3.506-2.412-1.557-3.341-4.573-4.009-7.362-1.316-5.41-2.37-11.079-1.106-16.488,2.161-9.252,10.442-15.591,15.663-23.49,4.919-7.362,7.674-16.707,15.075-21.561s16.884-3.769,25.218-1.3a77.836,77.836,0,0,0,11.81,3.132c6.724.826,13.47-1.052,20.236-1.227a43.458,43.458,0,0,1,26.722,8.113,14.787,14.787,0,0,1,4.365,4.417,22.6,22.6,0,0,1,1.928,7.915,40.46,40.46,0,0,0,5.222,14.549c2.088,3.506,4.71,6.672,6.6,10.286a15.777,15.777,0,0,1,1.786,11.768c-.636,2.088-1.9,3.9-2.37,5.993-1.106,4.856,2.088,9.492,4.27,13.971a26.208,26.208,0,0,1,2.9,13.251,16.708,16.708,0,0,1-5.96,11.92,21.386,21.386,0,0,1-12.6,3.821,44.67,44.67,0,0,1-16.06-2.412,12.5,12.5,0,0,0-6.088-1.052c-2.9.6-2.528,2.37-3.758,4.51C886.555,457.3,880.106,457.859,878.791,454.13Z" transform="translate(4.01 -43.68)" fill="#31446c"/>
    <path id="Path_735" data-name="Path 735" d="M846.715,760.061l32.069-25.067,50.485-49.726s-6.788-.335-16.707-.752a10.787,10.787,0,0,0-3.518,6.787c-.251,6.077-13.649.428-20.6,3.906s-41.019,47.063-46.99,46.781-10.682-3.029-13.179,1.2a2.6,2.6,0,0,1-.175.282,7.07,7.07,0,0,1-3.79,2.245Z" transform="translate(5.418 -28.589)" opacity="0.1"/>
    <path id="Path_736" data-name="Path 736" d="M783.87,759.043l16.113,51.439,2.528,8.083,7.674-2.088L827.1,811.83l75.351-20.7a65.646,65.646,0,0,0,27.141-7.238,82.136,82.136,0,0,1,46.823-10.213c9.962.929,21.035-3.362,30.282-20.334,0,0,20.885-61.609-31.828-79.359s-55.218,9.4-55.218,9.4-.272.146-.71.438c-2.088,1.306-7.78,5.41-7.988,10.442-.251,6.077-13.648.417-20.6,3.895s-41.019,47.074-46.99,46.792-10.683-3.027-13.179,1.2c0,.095-.116.175-.175.272-1.837,2.538-7.373,3.133-11.044,3.227-1.995.063-3.446,0-3.446,0l-.47.146-3.906,1.087Z" transform="translate(3.625 -29.316)" fill="#31446c"/>
    <path id="Path_737" data-name="Path 737" d="M787.86,660.873l7.769,1.227,3.238-32.037s-3.56-.526-8.009-1.567C792.037,632.942,789.364,650.24,787.86,660.873Z" transform="translate(3.802 -31.065)" opacity="0.1"/>
    <path id="Path_738" data-name="Path 738" d="M991.1,516.029s23.12-6.714,17.4,58.925S960.026,682.06,960.026,682.06s-49.225,21.626-71.345,18.148a379.251,379.251,0,0,0-38.291-4.172,56.17,56.17,0,0,0-22.378-5.96c-12.437-.5-38.532-8.207-39.033-10.693s6.463-39.033,3.478-41.769c0,0,34.8,1.43,38.291,3.948s8.447.71,12.176,0,15.172-10.661,37.79-1.953c0,0,7.713.742,10.693-1.243s7.769-.5,7.769-.5,4.689-1.744,5.41-2.789,6.7,0,6.7,0a2.652,2.652,0,0,0,3.739-1.744,16.255,16.255,0,0,1,3.478-5.46s6.714-37.79,19.391-51.961c0,0,3.729-3.238,2.736-7.215S961.3,508.067,991.1,516.029Z" transform="translate(3.847 -36.071)" opacity="0.1"/>
    <path id="Path_739" data-name="Path 739" d="M990.559,511.192s23.12-6.714,17.407,58.925S959.431,677.26,959.431,677.26s-49.225,21.626-71.345,18.148-38.281-4.23-38.281-4.23a56.1,56.1,0,0,0-22.378-5.96c-12.427-.5-38.532-8.207-39.033-10.693s6.463-39.033,3.488-41.769c0,0,34.8,1.43,38.281,3.948s8.458.71,12.187,0,15.161-10.651,37.79-1.953c0,0,7.713.741,10.682-1.243s7.78-.5,7.78-.5,4.658-1.744,5.4-2.736,6.714,0,6.714,0a2.642,2.642,0,0,0,3.729-1.734,16.221,16.221,0,0,1,3.478-5.471s6.714-37.79,19.391-51.959c0,0,3.729-3.238,2.736-7.2S960.674,503.236,990.559,511.192Z" transform="translate(3.827 -36.283)" fill="#31446c"/>
    <path id="Path_740" data-name="Path 740" d="M810,747.422l32.831,39.68c.124-.114.209-.2.209-.23.251-.752,3.478-9.2,2.736-9.7s-6.463-12.928-17.9-18.148a33.658,33.658,0,0,1-14.055-12.8Z" transform="translate(4.78 -25.86)" opacity="0.1"/>
    <path id="Path_741" data-name="Path 741" d="M810.46,815.068l3.592,2.088s8.355-6.682,16.613-13.408,16.322-13.322,16.457-13.689c.24-.742,3.467-9.2,2.726-9.69-.386-.261-2.088-3.708-5.22-7.7-22.263-6.265-8.093,9.221-6.2,9.93,0,0-27.15-6.265-28.591,23.3a34.84,34.84,0,0,0,.626,9.168Z" transform="translate(4.771 -24.755)" opacity="0.1"/>
    <path id="Path_742" data-name="Path 742" d="M837.81,827.579l4.733,2.736,48.031,1.243s10.3,6.265,16.979,8.165a14.556,14.556,0,0,0,2.412.526,107.855,107.855,0,0,0,13.366.251c3.681-.095,6.526-.251,6.526-.251s-2.279-60.564-3.99-66.83c-.815-3.048-4.835-2.38-8.8-.857a57.617,57.617,0,0,0-8.589,4.354s-20.383,1.974-23.619,3.728-12.427-1.052-18.148,0-15.9-6.735-15.9-6.735c-27.849-9.189-12.187,7.957-10.2,8.709,0,0-27.087-6.265-28.573,23.3S837.81,827.579,837.81,827.579Z" transform="translate(4.873 -24.755)" fill="#565387"/>
    <path id="Path_743" data-name="Path 743" d="M903.151,804.2c.526,12.53,10.285,28.079,16.1,36.3,3.681-.095,6.526-.251,6.526-.251s-2.279-60.564-3.99-66.83c-.815-3.048-4.835-2.38-8.8-.855C908.215,781.544,902.728,794.106,903.151,804.2Z" transform="translate(8.898 -24.749)" fill="#565387"/>
    <path id="Path_744" data-name="Path 744" d="M903.151,804.2c.526,12.53,10.285,28.079,16.1,36.3,3.681-.095,6.526-.251,6.526-.251s-2.279-60.564-3.99-66.83c-.815-3.048-4.835-2.38-8.8-.855C908.215,781.544,902.728,794.106,903.151,804.2Z" transform="translate(8.898 -24.749)" opacity="0.1"/>
    <path id="Path_745" data-name="Path 745" d="M895.324,805.867c3.3,12.1,3.269,25.656,8.532,33.853a14.525,14.525,0,0,0,2.412.526,107.8,107.8,0,0,0,13.366.251c3.681-.095,6.526-.251,6.526-.251s-2.279-60.564-3.99-66.83c-.815-3.048-4.835-2.38-8.8-.855a57.647,57.647,0,0,0-8.589,4.354S891.1,790.392,895.324,805.867Z" transform="translate(8.518 -24.752)" opacity="0.05"/>
    <path id="Path_746" data-name="Path 746" d="M736.77,686.94s23.83,7.737,44.024,35.222Z" transform="translate(1.542 -28.479)" opacity="0.1"/>
    <g id="Group_35" data-name="Group 35" transform="translate(796.569 343.067)" opacity="0.1">
      <path id="Path_747" data-name="Path 747" d="M922.271,401.26a4.876,4.876,0,0,1-.146.526,16.859,16.859,0,0,1-.826,2.088A15.571,15.571,0,0,1,922.271,401.26Z" transform="translate(-786.866 -384.176)"/>
      <path id="Path_748" data-name="Path 748" d="M793.135,389.922a22.4,22.4,0,0,1,1.848-5.022c-.124.428-.261.855-.365,1.3-1.264,5.41-.209,11.079,1.106,16.488.678,2.787,1.6,5.806,4.009,7.362,3.707,2.37,9.4.3,12.446,3.506,1.928,2.037,2.026,5.65,4.531,6.9a5.127,5.127,0,0,0,2.966.351c6.6-.94,10.442-8.355,16.781-10.442a16.861,16.861,0,0,1,11.121.961,8.144,8.144,0,0,1,3.681,2.359c2.088,2.747.636,6.8,1.618,10.118,1.367,4.616,6.882,6.453,11.654,7.049s10.15.94,13.335,4.558a12.1,12.1,0,0,1,2.37,9.617,7.748,7.748,0,0,0,0,3.56c1.316,3.729,7.769,3.132,9.4.23,1.227-2.14.866-3.916,3.769-4.51a12.362,12.362,0,0,1,6.078,1.052,44.672,44.672,0,0,0,16.06,2.412,21.29,21.29,0,0,0,12.6-3.821,14.62,14.62,0,0,0,3.857-4.7,15.809,15.809,0,0,1-5.326,8.437,21.341,21.341,0,0,1-12.6,3.821,44.574,44.574,0,0,1-16.05-2.412,12.505,12.505,0,0,0-6.088-1.052c-2.9.6-2.538,2.37-3.758,4.51-1.692,2.945-8.134,3.506-9.466-.23a7.749,7.749,0,0,1,0-3.56,12.066,12.066,0,0,0-2.36-9.617c-3.2-3.6-8.574-3.948-13.345-4.542s-10.285-2.433-11.643-7.049c-.992-3.331.5-7.383-1.618-10.129a8.228,8.228,0,0,0-3.681-2.359,17.128,17.128,0,0,0-11.121-.961c-6.349,2.088-10.181,9.524-16.781,10.442a5.126,5.126,0,0,1-2.966-.351c-2.507-1.253-2.61-4.866-4.532-6.893-3.018-3.2-8.74-1.138-12.437-3.506-2.423-1.557-3.341-4.573-4.02-7.362C792.916,401,791.86,395.332,793.135,389.922Z" transform="translate(-792.558 -384.9)"/>
    </g>
    <path id="Path_749" data-name="Path 749" d="M926.765,580.765c-4.558,6.151-9.753,11.841-13.783,18.346s-6.882,14.1-6.035,21.7c4.177-4.281,6.077-10.192,8.709-15.559,4.449-9.084,11.11-16.791,16.707-25.144,1.052-1.6,7.946-10.807,4.47-11.247C933.973,568.5,928.322,578.667,926.765,580.765Z" transform="translate(9.06 -33.7)" opacity="0.1"/>
  </g>
</svg>
