<svg xmlns="http://www.w3.org/2000/svg" xmlns:xlink="http://www.w3.org/1999/xlink" width="805.607" height="422.722" viewBox="0 0 805.607 422.722">
  <defs>
    <linearGradient id="linear-gradient" x1="0.5" y1="1" x2="0.5" gradientUnits="objectBoundingBox">
      <stop offset="0" stop-color="gray" stop-opacity="0.251"/>
      <stop offset="0.54" stop-color="gray" stop-opacity="0.122"/>
      <stop offset="1" stop-color="gray" stop-opacity="0.102"/>
    </linearGradient>
    <linearGradient id="linear-gradient-2" x1="0.5" y1="1" x2="0.5" y2="-0.001" xlink:href="#linear-gradient"/>
  </defs>
  <g id="undraw_contact_us_-15-o2" transform="translate(0 0.359)">
    <g id="Group_36" data-name="Group 36" transform="translate(312.503 29.043)" opacity="0.1">
      <ellipse id="Ellipse_86" data-name="Ellipse 86" cx="8.365" cy="10.952" rx="8.365" ry="10.952" transform="translate(31.527 226.084)" fill="#3f3d56"/>
      <path id="Path_796" data-name="Path 796" d="M535.017,454.638a13.232,13.232,0,0,0,1.749-6.7c0-6.049-3.749-10.952-8.372-10.952S520,441.907,520,447.957a13.231,13.231,0,0,0,1.749,6.7,13.679,13.679,0,0,0,0,13.385,13.679,13.679,0,0,0,0,13.385,13.187,13.187,0,0,0-1.749,6.7c0,6.042,3.749,10.952,8.365,10.952s8.372-4.91,8.372-10.952a13.187,13.187,0,0,0-1.749-6.7,13.679,13.679,0,0,0,0-13.385,13.679,13.679,0,0,0,0-13.385Z" transform="translate(-488.503 -264.461)" fill="#3f3d56"/>
      <ellipse id="Ellipse_87" data-name="Ellipse 87" cx="8.365" cy="10.952" rx="8.365" ry="10.952" transform="translate(31.527 159.158)" fill="#3f3d56"/>
      <ellipse id="Ellipse_88" data-name="Ellipse 88" cx="8.365" cy="10.952" rx="8.365" ry="10.952" transform="translate(31.527 145.773)" fill="#3f3d56"/>
      <path id="Path_797" data-name="Path 797" d="M485.728,267.388a39.02,39.02,0,0,1-3.117-4.587l21.978-3.609-23.771.176a40.148,40.148,0,0,1-.735-31.754l31.893,16.546-29.4-21.625a40.082,40.082,0,1,1,66.154,44.838,40.084,40.084,0,0,1,4.572,7.306l-28.542,14.863,30.423-10.21a40.082,40.082,0,0,1-6.461,37.634,40.075,40.075,0,1,1-62.993,0,40.075,40.075,0,0,1,0-49.557Z" transform="translate(-477.149 -202.271)" fill="#6c63ff"/>
      <path id="Path_798" data-name="Path 798" d="M557.3,324.357a39.89,39.89,0,0,1-8.578,24.778,40.075,40.075,0,1,1-62.993,0C480.355,342.314,557.3,319.859,557.3,324.357Z" transform="translate(-477.149 -234.462)" opacity="0.1"/>
    </g>
    <g id="Group_37" data-name="Group 37" transform="translate(420.239 65.672)" opacity="0.1">
      <ellipse id="Ellipse_89" data-name="Ellipse 89" cx="6.255" cy="8.181" rx="6.255" ry="8.181" transform="translate(23.558 168.808)" fill="#3f3d56"/>
      <path id="Path_799" data-name="Path 799" d="M666.962,440.507a9.87,9.87,0,0,0,1.3-5c0-4.521-2.8-8.188-6.248-8.188s-6.255,3.675-6.255,8.188a9.8,9.8,0,0,0,1.308,5,10.217,10.217,0,0,0,0,10,10.217,10.217,0,0,0,0,10,9.8,9.8,0,0,0-1.308,5c0,4.521,2.8,8.188,6.255,8.188s6.248-3.675,6.248-8.188a9.87,9.87,0,0,0-1.3-5,10.291,10.291,0,0,0,0-10,10.291,10.291,0,0,0,0-10Z" transform="translate(-632.209 -298.528)" fill="#3f3d56"/>
      <ellipse id="Ellipse_90" data-name="Ellipse 90" cx="6.255" cy="8.181" rx="6.255" ry="8.181" transform="translate(23.558 118.795)" fill="#3f3d56"/>
      <ellipse id="Ellipse_91" data-name="Ellipse 91" cx="6.255" cy="8.181" rx="6.255" ry="8.181" transform="translate(23.558 108.791)" fill="#3f3d56"/>
      <path id="Path_800" data-name="Path 800" d="M630.13,300.621a28.677,28.677,0,0,1-2.33-3.425l16.428-2.7-17.766.132a30.019,30.019,0,0,1-.573-23.735l23.837,12.371L627.741,267.1A29.953,29.953,0,1,1,677.2,300.614a30.284,30.284,0,0,1,3.418,5.461L659.3,317.152l22.735-7.63a29.961,29.961,0,0,1-4.829,28.123,29.946,29.946,0,1,1-47.043,0,29.946,29.946,0,0,1,0-37.031Z" transform="translate(-623.72 -252.103)" fill="#6c63ff"/>
      <path id="Path_801" data-name="Path 801" d="M683.616,343.141a29.821,29.821,0,0,1-6.41,18.516,29.946,29.946,0,1,1-47.043,0C626.136,356.563,683.616,339.782,683.616,343.141Z" transform="translate(-623.725 -276.107)" opacity="0.1"/>
    </g>
    <g id="Group_38" data-name="Group 38" transform="translate(722.945 -0.359)" opacity="0.1">
      <ellipse id="Ellipse_92" data-name="Ellipse 92" cx="8.365" cy="10.952" rx="8.365" ry="10.952" transform="translate(32.091 226.084)" fill="#3f3d56"/>
      <path id="Path_802" data-name="Path 802" d="M1080.939,414.638a13.23,13.23,0,0,1-1.749-6.7c0-6.049,3.749-10.952,8.372-10.952s8.365,4.9,8.365,10.952a13.231,13.231,0,0,1-1.75,6.7,13.679,13.679,0,0,1,0,13.385,13.679,13.679,0,0,1,0,13.385,13.187,13.187,0,0,1,1.75,6.7c0,6.042-3.749,10.952-8.365,10.952s-8.372-4.91-8.372-10.952a13.187,13.187,0,0,1,1.75-6.7,13.679,13.679,0,0,1,0-13.385A13.679,13.679,0,0,1,1080.939,414.638Z" transform="translate(-1047.106 -224.462)" fill="#3f3d56"/>
      <ellipse id="Ellipse_93" data-name="Ellipse 93" cx="8.365" cy="10.952" rx="8.365" ry="10.952" transform="translate(32.091 159.158)" fill="#3f3d56"/>
      <ellipse id="Ellipse_94" data-name="Ellipse 94" cx="8.365" cy="10.952" rx="8.365" ry="10.952" transform="translate(32.091 145.773)" fill="#3f3d56"/>
      <path id="Path_803" data-name="Path 803" d="M1107.31,227.388a39.036,39.036,0,0,0,3.117-4.587l-21.978-3.609,23.771.176a40.148,40.148,0,0,0,.735-31.754l-31.894,16.546,29.4-21.625a40.082,40.082,0,1,0-66.154,44.838,40.094,40.094,0,0,0-4.572,7.306l28.542,14.863-30.423-10.21a40.081,40.081,0,0,0,6.461,37.634,40.075,40.075,0,1,0,62.993,0,40.075,40.075,0,0,0,0-49.557Z" transform="translate(-1035.541 -162.271)" fill="#6c63ff"/>
      <path id="Path_804" data-name="Path 804" d="M1035.81,284.357a39.891,39.891,0,0,0,8.578,24.778,40.075,40.075,0,1,0,62.993,0C1112.754,302.314,1035.81,279.859,1035.81,284.357Z" transform="translate(-1035.612 -194.462)" opacity="0.1"/>
    </g>
    <g id="Group_39" data-name="Group 39" transform="translate(652.539 61.261)" opacity="0.1">
      <ellipse id="Ellipse_95" data-name="Ellipse 95" cx="6.255" cy="8.181" rx="6.255" ry="8.181" transform="translate(23.855 168.808)" fill="#3f3d56"/>
      <path id="Path_805" data-name="Path 805" d="M973.531,434.507a9.872,9.872,0,0,1-1.3-5c0-4.521,2.8-8.188,6.248-8.188s6.255,3.675,6.255,8.188a9.8,9.8,0,0,1-1.308,5,10.217,10.217,0,0,1,0,10,10.217,10.217,0,0,1,0,10,9.8,9.8,0,0,1,1.308,5c0,4.521-2.8,8.188-6.255,8.188s-6.248-3.675-6.248-8.188a9.872,9.872,0,0,1,1.3-5,10.291,10.291,0,0,1,0-10,10.291,10.291,0,0,1,0-10Z" transform="translate(-948.36 -292.528)" fill="#3f3d56"/>
      <ellipse id="Ellipse_96" data-name="Ellipse 96" cx="6.255" cy="8.181" rx="6.255" ry="8.181" transform="translate(23.855 118.795)" fill="#3f3d56"/>
      <ellipse id="Ellipse_97" data-name="Ellipse 97" cx="6.255" cy="8.181" rx="6.255" ry="8.181" transform="translate(23.855 108.792)" fill="#3f3d56"/>
      <path id="Path_806" data-name="Path 806" d="M993.27,294.621a28.666,28.666,0,0,0,2.33-3.425l-16.428-2.7,17.766.132a30.019,30.019,0,0,0,.573-23.735l-23.837,12.371L995.659,261.1A29.953,29.953,0,1,0,946.2,294.614a30.287,30.287,0,0,0-3.418,5.461L964.1,311.152l-22.691-7.622a29.96,29.96,0,0,0,4.829,28.123,29.946,29.946,0,1,0,47.043,0,29.946,29.946,0,0,0,0-37.032Z" transform="translate(-939.756 -246.103)" fill="#6c63ff"/>
      <path id="Path_807" data-name="Path 807" d="M939.795,337.141a29.821,29.821,0,0,0,6.41,18.516,29.946,29.946,0,1,0,47.043,0C997.275,350.563,939.795,333.782,939.795,337.141Z" transform="translate(-939.763 -270.107)" opacity="0.1"/>
    </g>
    <g id="Group_40" data-name="Group 40" transform="translate(5.373 -0.236)" opacity="0.1">
      <ellipse id="Ellipse_98" data-name="Ellipse 98" cx="8.365" cy="10.952" rx="8.365" ry="10.952" transform="translate(31.534 225.961)" fill="#3f3d56"/>
      <path id="Path_808" data-name="Path 808" d="M117.19,414.638a13.231,13.231,0,0,0,1.749-6.7c0-6.049-3.749-10.952-8.365-10.952s-8.365,4.9-8.365,10.952a13.231,13.231,0,0,0,1.742,6.7,13.723,13.723,0,0,0,0,13.385,13.723,13.723,0,0,0,0,13.385,13.179,13.179,0,0,0-1.742,6.7c0,6.042,3.741,10.952,8.365,10.952s8.387-4.9,8.387-10.937a13.187,13.187,0,0,0-1.749-6.7,13.679,13.679,0,0,0,0-13.385,13.679,13.679,0,0,0,0-13.385Z" transform="translate(-70.676 -224.585)" fill="#3f3d56"/>
      <ellipse id="Ellipse_99" data-name="Ellipse 99" cx="8.365" cy="10.952" rx="8.365" ry="10.952" transform="translate(31.534 159.035)" fill="#3f3d56"/>
      <ellipse id="Ellipse_100" data-name="Ellipse 100" cx="8.365" cy="10.952" rx="8.365" ry="10.952" transform="translate(31.534 145.65)" fill="#3f3d56"/>
      <path id="Path_809" data-name="Path 809" d="M67.9,227.432a39.933,39.933,0,0,1-3.117-4.587l21.985-3.609-23.793.213a40.148,40.148,0,0,1-.735-31.754l31.9,16.546-29.4-21.625A40.075,40.075,0,1,1,130.9,227.454a40.089,40.089,0,0,1,4.572,7.306l-28.549,14.826,30.431-10.21a40.126,40.126,0,0,1-6.468,37.634,40.075,40.075,0,1,1-62.993,0,40.075,40.075,0,0,1,0-49.557Z" transform="translate(-59.309 -162.439)" fill="#6c63ff"/>
      <path id="Path_810" data-name="Path 810" d="M139.459,284.357a39.891,39.891,0,0,1-8.578,24.778,40.075,40.075,0,1,1-62.993,0C62.515,302.314,139.459,279.859,139.459,284.357Z" transform="translate(-59.309 -194.585)" opacity="0.1"/>
    </g>
    <g id="Group_41" data-name="Group 41" transform="translate(96.203 61.261)" opacity="0.1">
      <ellipse id="Ellipse_101" data-name="Ellipse 101" cx="6.255" cy="8.181" rx="6.255" ry="8.181" transform="translate(23.558 168.808)" fill="#3f3d56"/>
      <path id="Path_811" data-name="Path 811" d="M226.132,434.507a9.872,9.872,0,0,0,1.3-5c0-4.521-2.793-8.188-6.248-8.188s-6.255,3.675-6.255,8.188a9.871,9.871,0,0,0,1.308,5,10.217,10.217,0,0,0,0,10,10.217,10.217,0,0,0,0,10,9.872,9.872,0,0,0-1.308,5c0,4.52,2.8,8.188,6.255,8.188s6.248-3.675,6.248-8.188a9.872,9.872,0,0,0-1.3-5,10.291,10.291,0,0,0,0-10,10.291,10.291,0,0,0,0-10Z" transform="translate(-191.372 -292.528)" fill="#3f3d56"/>
      <ellipse id="Ellipse_102" data-name="Ellipse 102" cx="6.255" cy="8.181" rx="6.255" ry="8.181" transform="translate(23.558 118.796)" fill="#3f3d56"/>
      <ellipse id="Ellipse_103" data-name="Ellipse 103" cx="6.255" cy="8.181" rx="6.255" ry="8.181" transform="translate(23.558 108.792)" fill="#3f3d56"/>
      <path id="Path_812" data-name="Path 812" d="M189.29,294.621a29.556,29.556,0,0,1-2.33-3.425l16.428-2.7-17.766.132a30.019,30.019,0,0,1-.573-23.735l23.837,12.371L186.9,261.1a29.953,29.953,0,1,1,49.461,33.518,29.489,29.489,0,0,1,3.418,5.461l-21.316,11.077,22.735-7.63a29.96,29.96,0,0,1-4.829,28.123,29.946,29.946,0,1,1-47.043,0,29.946,29.946,0,0,1,0-37.032Z" transform="translate(-182.88 -246.103)" fill="#6c63ff"/>
      <path id="Path_813" data-name="Path 813" d="M242.776,337.141a29.821,29.821,0,0,1-6.41,18.516,29.946,29.946,0,1,1-47.043,0C185.281,350.563,242.776,333.782,242.776,337.141Z" transform="translate(-182.885 -270.107)" opacity="0.1"/>
    </g>
    <ellipse id="Ellipse_104" data-name="Ellipse 104" cx="402.804" cy="6.512" rx="402.804" ry="6.512" transform="translate(0 355.864)" fill="#6c63ff" opacity="0.1"/>
    <ellipse id="Ellipse_105" data-name="Ellipse 105" cx="402.804" cy="6.512" rx="402.804" ry="6.512" transform="translate(0 409.339)" fill="#6c63ff" opacity="0.1"/>
    <ellipse id="Ellipse_106" data-name="Ellipse 106" cx="402.804" cy="6.512" rx="402.804" ry="6.512" transform="translate(0 244.263)" fill="#6c63ff" opacity="0.1"/>
    <ellipse id="Ellipse_107" data-name="Ellipse 107" cx="402.804" cy="6.512" rx="402.804" ry="6.512" transform="translate(0 300.06)" fill="#6c63ff" opacity="0.1"/>
    <path id="Path_814" data-name="Path 814" d="M846.262,266.546a13.451,13.451,0,0,0-7.791.853,11.5,11.5,0,0,1-9.365,0,13.143,13.143,0,0,0-11.026.213,6.792,6.792,0,0,1-3.168.794c-4.469,0-8.181-4.5-8.953-10.43a8.731,8.731,0,0,0,2.205-2.4c2.617-4.219,6.667-6.931,11.224-6.931s8.556,2.676,11.173,6.851a8.585,8.585,0,0,0,7.417,4.072h.118C841.69,259.526,844.77,262.378,846.262,266.546Z" transform="translate(-251.767 -185.514)" fill="#6c63ff" opacity="0.1"/>
    <path id="Path_815" data-name="Path 815" d="M859.863,241.93l-7.218,4.572,4.41-7.968a7.13,7.13,0,0,0-4.366-1.551h-.118a8.343,8.343,0,0,1-1.47-.11l-2.484,1.551,1.051-1.911a8.666,8.666,0,0,1-4.285-3.249l-4.41,2.778,2.764-5.028a12.808,12.808,0,0,0-9.806-4.954c-4.557,0-8.607,2.7-11.231,6.924a8.387,8.387,0,0,1-7.417,4h-.243c-5.028,0-9.1,5.7-9.1,12.724s4.072,12.731,9.1,12.731a6.9,6.9,0,0,0,3.168-.794,13.128,13.128,0,0,1,11.026-.221,11.43,11.43,0,0,0,9.364,0,13.172,13.172,0,0,1,10.923.213,6.835,6.835,0,0,0,3.131.779c5.028,0,9.1-5.7,9.1-12.731a16.119,16.119,0,0,0-1.889-7.755Z" transform="translate(-251.761 -179.531)" fill="#6c63ff" opacity="0.1"/>
    <path id="Path_816" data-name="Path 816" d="M433.1,263.072a9.438,9.438,0,0,0-5.461.6,8.027,8.027,0,0,1-6.549,0,9.173,9.173,0,0,0-7.711.154,4.866,4.866,0,0,1-2.205.551c-3.124,0-5.726-3.146-6.27-7.3a6.115,6.115,0,0,0,1.566-1.683c1.83-2.94,4.668-4.851,7.858-4.851a9.361,9.361,0,0,1,7.821,4.792,6.02,6.02,0,0,0,5.2,2.852h.081C429.891,258.17,432.045,260.169,433.1,263.072Z" transform="translate(-145.503 -186.017)" fill="#6c63ff" opacity="0.1"/>
    <path id="Path_817" data-name="Path 817" d="M442.61,245.854l-5.05,3.2,3.065-5.579a4.962,4.962,0,0,0-3.05-1.088h-.088a5.507,5.507,0,0,1-1.044-.081L434.73,243.4l.735-1.338a6.1,6.1,0,0,1-3-2.271L429.4,241.73l1.941-3.514a8.975,8.975,0,0,0-6.865-3.477,9.4,9.4,0,0,0-7.858,4.851,5.88,5.88,0,0,1-5.2,2.8h-.169c-3.521,0-6.373,3.984-6.373,8.909s2.852,8.909,6.373,8.909a4.778,4.778,0,0,0,2.205-.559,9.188,9.188,0,0,1,7.7-.147,7.895,7.895,0,0,0,6.557.044,9.217,9.217,0,0,1,7.644.147,4.764,4.764,0,0,0,2.205.544c3.513,0,6.365-3.991,6.365-8.909a11.268,11.268,0,0,0-1.323-5.476Z" transform="translate(-145.498 -181.831)" fill="#6c63ff" opacity="0.1"/>
    <path id="Path_818" data-name="Path 818" d="M321.59,341.482a9.423,9.423,0,0,1,5.454.6,8.041,8.041,0,0,0,6.557,0,9.2,9.2,0,0,1,7.711.147,4.756,4.756,0,0,0,2.205.559c3.124,0,5.726-3.153,6.263-7.306a5.991,5.991,0,0,1-1.558-1.683c-1.838-2.94-4.675-4.844-7.858-4.844a9.375,9.375,0,0,0-7.828,4.792,6.02,6.02,0,0,1-5.189,2.852h-.081C324.787,336.609,322.626,338.6,321.59,341.482Z" transform="translate(-123.43 -206.793)" fill="#6c63ff" opacity="0.1"/>
    <path id="Path_819" data-name="Path 819" d="M308.16,324.3l5.057,3.2-3.072-5.572a4.99,4.99,0,0,1,3.058-1.1h.081a6.259,6.259,0,0,0,1.051-.074l1.713,1.081-.735-1.33a6.094,6.094,0,0,0,2.992-2.271l3.065,1.941-1.911-3.521a8.967,8.967,0,0,1,6.865-3.469,9.411,9.411,0,0,1,7.858,4.851,5.88,5.88,0,0,0,5.189,2.8h.176c3.514,0,6.365,3.991,6.365,8.909s-2.852,8.909-6.365,8.909a4.77,4.77,0,0,1-2.205-.551,9.173,9.173,0,0,0-7.711-.154,7.983,7.983,0,0,1-3.293.735,8.086,8.086,0,0,1-3.264-.691,9.2,9.2,0,0,0-7.637.147,4.763,4.763,0,0,1-2.205.544c-3.521,0-6.373-3.984-6.373-8.909a11.349,11.349,0,0,1,1.3-5.483Z" transform="translate(-119.526 -202.617)" fill="#6c63ff" opacity="0.1"/>
    <path id="Path_820" data-name="Path 820" d="M713.337,624.677c1.918-3.558-.257-7.909-2.756-11.077s-5.557-6.468-5.491-10.5c.1-5.8,6.255-9.232,11.173-12.3a54.614,54.614,0,0,0,10.033-8.086,14.794,14.794,0,0,0,3.08-4.131c1.022-2.264.992-4.851.926-7.35q-.316-12.415-1.227-24.815" transform="translate(-225.04 -264.41)" fill="none" stroke="#3f3d56" stroke-miterlimit="10" stroke-width="4"/>
    <path id="Path_821" data-name="Path 821" d="M743.93,542.739a9.048,9.048,0,0,0-4.521-7.417l-2.029,4.006.066-4.851a9.048,9.048,0,1,0,6.483,8.262Z" transform="translate(-230.539 -261.151)" fill="#6c63ff"/>
    <path id="Path_822" data-name="Path 822" d="M722.328,624.444a9.048,9.048,0,0,1-17.082-3.675,8.82,8.82,0,0,1,.588-3.675,9.056,9.056,0,0,1,16.906.1l-5.652,4.6,6.218-1.47A9,9,0,0,1,722.328,624.444Z" transform="translate(-225.078 -281.612)" fill="#6c63ff"/>
    <path id="Path_823" data-name="Path 823" d="M718.995,598.748A9.048,9.048,0,0,1,716.128,581l-.051,3.727,2.051-4.057h0a9.051,9.051,0,1,1,.845,18.082Z" transform="translate(-226.214 -273.484)" fill="#6c63ff"/>
    <path id="Path_824" data-name="Path 824" d="M748.87,578.861a9.048,9.048,0,1,1,4-16.906l-1.6,4.41,3.256-3.219a9.048,9.048,0,0,1-5.689,15.708Z" transform="translate(-234.119 -268.217)" fill="#6c63ff"/>
    <path id="Path_825" data-name="Path 825" d="M742.705,546.939c-2.088.228-4.116.875-6.219,1.007s-4.41-.375-5.719-2a29.02,29.02,0,0,1-1.676-2.94,6.439,6.439,0,0,0-2.279-2.146,9.048,9.048,0,1,0,16.906,6.013C743.389,546.88,743.043,546.9,742.705,546.939Z" transform="translate(-230.534 -262.94)" opacity="0.1"/>
    <path id="Path_826" data-name="Path 826" d="M748.884,580.727a9.048,9.048,0,0,1-8.607-12.907,6.7,6.7,0,0,1,1.816,1.823,30.665,30.665,0,0,0,1.793,2.992c1.411,1.654,3.822,2.205,6.005,2.095s4.293-.735,6.468-.919c.3,0,.6-.044.911-.051A9.049,9.049,0,0,1,748.884,580.727Z" transform="translate(-234.133 -270.083)" opacity="0.1"/>
    <path id="Path_827" data-name="Path 827" d="M719,600.678a9.048,9.048,0,0,1-8.681-12.738,7.35,7.35,0,0,1,1.918,1.838,30.315,30.315,0,0,0,1.963,3.05c1.521,1.7,4.094,2.3,6.4,2.205s4.41-.6,6.615-.735A9.063,9.063,0,0,1,719,600.678Z" transform="translate(-226.215 -275.414)" opacity="0.1"/>
    <path id="Path_828" data-name="Path 828" d="M722.328,626.52a9.048,9.048,0,0,1-17.082-3.675,8.82,8.82,0,0,1,.588-3.675,9.035,9.035,0,0,1,1.985,1.771c.86,1.044,1.426,2.205,2.426,3.212,1.845,1.816,4.837,2.565,7.49,2.631A38.012,38.012,0,0,0,722.328,626.52Z" transform="translate(-225.078 -283.688)" opacity="0.1"/>
    <path id="Path_829" data-name="Path 829" d="M103.337,552.677c1.918-3.558-.257-7.909-2.756-11.077s-5.557-6.483-5.491-10.5c.1-5.8,6.255-9.232,11.173-12.3a54.616,54.616,0,0,0,10.033-8.086,14.8,14.8,0,0,0,3.08-4.131c1.022-2.264.992-4.851.926-7.35q-.323-12.415-1.228-24.815" transform="translate(-63.417 -245.333)" fill="none" stroke="#3f3d56" stroke-miterlimit="10" stroke-width="4"/>
    <path id="Path_830" data-name="Path 830" d="M133.93,470.739a9.048,9.048,0,0,0-4.521-7.417l-2.029,4.006.066-4.851a9.048,9.048,0,1,0,6.483,8.262Z" transform="translate(-68.916 -242.074)" fill="#6c63ff"/>
    <path id="Path_831" data-name="Path 831" d="M112.328,552.444a9.048,9.048,0,0,1-17.082-3.675,8.821,8.821,0,0,1,.588-3.675,9.056,9.056,0,0,1,16.906.1l-5.652,4.6,6.218-1.47a9,9,0,0,1-.978,4.124Z" transform="translate(-63.455 -262.535)" fill="#6c63ff"/>
    <path id="Path_832" data-name="Path 832" d="M108.995,526.748A9.048,9.048,0,0,1,106.128,509l-.051,3.727,2.051-4.057h0a9.051,9.051,0,0,1,.845,18.082Z" transform="translate(-64.591 -254.407)" fill="#6c63ff"/>
    <path id="Path_833" data-name="Path 833" d="M138.87,506.861a9.048,9.048,0,1,1,4-16.906l-1.6,4.41,3.256-3.219a9.048,9.048,0,0,1-5.689,15.708Z" transform="translate(-72.495 -249.14)" fill="#6c63ff"/>
    <path id="Path_834" data-name="Path 834" d="M132.7,474.939c-2.088.228-4.116.875-6.218,1.007s-4.41-.375-5.719-2a29.018,29.018,0,0,1-1.676-2.94,6.439,6.439,0,0,0-2.279-2.146,9.048,9.048,0,1,0,16.906,6.013C133.389,474.88,133.043,474.9,132.7,474.939Z" transform="translate(-68.911 -243.863)" opacity="0.1"/>
    <path id="Path_835" data-name="Path 835" d="M138.884,508.727a9.048,9.048,0,0,1-8.607-12.907,6.7,6.7,0,0,1,1.816,1.823,30.665,30.665,0,0,0,1.794,2.992c1.411,1.654,3.822,2.205,6.005,2.095s4.293-.735,6.468-.919c.3,0,.6-.044.911-.051A9.048,9.048,0,0,1,138.884,508.727Z" transform="translate(-72.51 -251.006)" opacity="0.1"/>
    <path id="Path_836" data-name="Path 836" d="M109,528.678a9.048,9.048,0,0,1-8.681-12.738,7.351,7.351,0,0,1,1.918,1.838,30.308,30.308,0,0,0,1.963,3.05c1.522,1.7,4.094,2.3,6.4,2.205s4.41-.6,6.615-.735A9.063,9.063,0,0,1,109,528.678Z" transform="translate(-64.592 -256.337)" opacity="0.1"/>
    <path id="Path_837" data-name="Path 837" d="M112.328,554.52a9.048,9.048,0,0,1-17.082-3.675,8.821,8.821,0,0,1,.588-3.675,9.036,9.036,0,0,1,1.985,1.771c.86,1.044,1.426,2.205,2.426,3.212,1.845,1.816,4.837,2.565,7.49,2.631a38.013,38.013,0,0,0,4.594-.265Z" transform="translate(-63.455 -264.612)" opacity="0.1"/>
    <path id="Path_838" data-name="Path 838" d="M506.4,470.313c-1.918-3.55.257-7.9,2.764-11.07s5.55-6.468,5.483-10.5c-.088-5.807-6.248-9.232-11.173-12.3a54.394,54.394,0,0,1-10.026-8.085,14.54,14.54,0,0,1-3.087-4.124c-1.014-2.271-.985-4.851-.926-7.35q.331-12.415,1.228-24.815" transform="translate(-167.894 -223.514)" fill="none" stroke="#3f3d56" stroke-miterlimit="10" stroke-width="4"/>
    <path id="Path_839" data-name="Path 839" d="M478.387,388.379a9.041,9.041,0,0,1,4.513-7.417l2.029,4.006-.059-4.851a9.277,9.277,0,0,1,2.977-.36,9.048,9.048,0,1,1-9.46,8.622Z" transform="translate(-164.971 -220.252)" fill="#6c63ff"/>
    <path id="Path_840" data-name="Path 840" d="M499.98,470.058a9.048,9.048,0,1,0-.434-7.284l5.652,4.6-6.218-1.47a9,9,0,0,0,1,4.153Z" transform="translate(-170.43 -240.687)" fill="#6c63ff"/>
    <path id="Path_841" data-name="Path 841" d="M503.311,444.388a9.048,9.048,0,0,0,2.874-17.751l.044,3.727-2.051-4.057h0A9.048,9.048,0,0,0,494.7,434.9a8.939,8.939,0,0,0,.39,3.087,9.041,9.041,0,0,0,8.225,6.4Z" transform="translate(-169.292 -232.585)" fill="#6c63ff"/>
    <path id="Path_842" data-name="Path 842" d="M473.422,424.481a9.048,9.048,0,1,0-4.006-16.906l1.6,4.41-3.293-3.153a8.975,8.975,0,0,0-2.94,6.248,8.754,8.754,0,0,0,.228,2.492,9.041,9.041,0,0,0,8.409,6.909Z" transform="translate(-161.367 -227.312)" fill="#6c63ff"/>
    <path id="Path_843" data-name="Path 843" d="M479.684,392.579c2.088.228,4.116.875,6.211,1.007s4.41-.375,5.726-2a28.95,28.95,0,0,0,1.669-2.94,6.462,6.462,0,0,1,2.286-2.146,9.048,9.048,0,1,1-16.906,6.005C479,392.513,479.339,392.542,479.684,392.579Z" transform="translate(-165.049 -222.041)" opacity="0.1"/>
    <path id="Path_844" data-name="Path 844" d="M473.517,426.347a9.056,9.056,0,0,0,8.607-12.907,6.726,6.726,0,0,0-1.823,1.823,30.664,30.664,0,0,1-1.794,2.992c-1.4,1.654-3.815,2.205-6,2.095s-4.293-.735-6.468-.919c-.3,0-.61-.044-.911-.051a9.041,9.041,0,0,0,8.387,6.968Z" transform="translate(-161.462 -229.179)" opacity="0.1"/>
    <path id="Path_845" data-name="Path 845" d="M503.458,446.318a9.041,9.041,0,0,0,8.681-12.738,7.226,7.226,0,0,0-1.911,1.838,30.3,30.3,0,0,1-1.963,3.05c-1.529,1.7-4.094,2.3-6.41,2.205s-4.41-.6-6.615-.735a9.041,9.041,0,0,0,8.218,6.38Z" transform="translate(-169.439 -234.515)" opacity="0.1"/>
    <path id="Path_846" data-name="Path 846" d="M500.34,472.16a9.048,9.048,0,0,0,16.5-7.35,8.69,8.69,0,0,0-1.985,1.771c-.86,1.044-1.47,2.205-2.426,3.212-1.852,1.816-4.837,2.565-7.5,2.631A39.66,39.66,0,0,1,500.34,472.16Z" transform="translate(-170.791 -242.79)" opacity="0.1"/>
    <circle id="Ellipse_108" data-name="Ellipse 108" cx="73.475" cy="73.475" r="73.475" transform="translate(499.66 101.503)" fill="#3f3d56"/>
    <path id="Path_847" data-name="Path 847" d="M851.2,407.688c-2.558-2.558-8.71-6.417-11.761-7.858-3.521-1.691-4.814-1.661-7.306.14-2.073,1.47-3.418,2.889-5.8,2.367s-7.1-4.079-11.665-8.629-8.108-9.24-8.615-11.658.889-3.734,2.374-5.807c1.793-2.492,1.845-3.786.14-7.306-1.47-3.05-5.285-9.188-7.865-11.761s-3.139-2.007-4.55-1.47a26.312,26.312,0,0,0-4.168,2.205c-2.558,1.713-3.991,3.139-5,5.285s-2.146,6.13,3.712,16.561a92.39,92.39,0,0,0,16.244,21.662h0a92.528,92.528,0,0,0,21.735,16.274c10.423,5.88,14.414,4.712,16.561,3.712s3.572-2.418,5.278-5a25.975,25.975,0,0,0,2.205-4.168C853.206,410.826,853.779,410.253,851.2,407.688Z" transform="translate(-246.523 -213.761)" fill="#6c63ff"/>
    <path id="Path_848" data-name="Path 848" d="M805.221,300.86a73.5,73.5,0,1,0,73.468,73.48A73.5,73.5,0,0,0,805.221,300.86Zm0,137.174a63.706,63.706,0,1,1,63.706-63.706,63.706,63.706,0,0,1-63.706,63.706Z" transform="translate(-232.086 -199.35)" opacity="0.1"/>
    <circle id="Ellipse_109" data-name="Ellipse 109" cx="73.475" cy="73.475" r="73.475" transform="translate(330.858 213.104)" fill="#3f3d56"/>
    <path id="Path_849" data-name="Path 849" d="M628.542,522.384l-22,22.382a.4.4,0,0,0,0,.573l15.436,16.414a2.656,2.656,0,1,1-3.756,3.756l-15.355-16.355a.419.419,0,0,0-.588,0l-3.741,3.778a16.443,16.443,0,0,1-11.761,4.947,16.8,16.8,0,0,1-11.966-5.086l-3.594-3.675a.419.419,0,0,0-.588,0L555.31,565.435a2.656,2.656,0,1,1-3.756-3.756L566.931,545.3a.441.441,0,0,0,0-.573l-22-22.382a.4.4,0,0,0-.691.287V567.42a6.557,6.557,0,0,0,6.535,6.535h71.939a6.557,6.557,0,0,0,6.534-6.535V522.67a.4.4,0,0,0-.706-.287Z" transform="translate(-182.422 -258.003)" fill="#6c63ff"/>
    <path id="Path_850" data-name="Path 850" d="M587.658,550.022a11.129,11.129,0,0,0,8.027-3.308L627.726,514.1a6.4,6.4,0,0,0-4.043-1.47h-71.99a6.351,6.351,0,0,0-4.043,1.47L579.7,546.714A11.085,11.085,0,0,0,587.658,550.022Z" transform="translate(-183.326 -255.46)" fill="#6c63ff"/>
    <path id="Path_851" data-name="Path 851" d="M574.311,452.69a73.5,73.5,0,1,0,73.468,73.48A73.5,73.5,0,0,0,574.311,452.69Zm0,137.174a63.706,63.706,0,1,1,63.706-63.706,63.706,63.706,0,0,1-63.706,63.706Z" transform="translate(-170.905 -239.578)" opacity="0.1"/>
    <circle id="Ellipse_110" data-name="Ellipse 110" cx="73.475" cy="73.475" r="73.475" transform="translate(156.483 158.233)" fill="#3f3d56"/>
    <path id="Path_852" data-name="Path 852" d="M354.291,430.16,325,497.74l2.734,2.734L354.3,488.758l26.564,11.717,2.734-2.734Z" transform="translate(-124.333 -233.609)" fill="#6c63ff"/>
    <path id="Path_853" data-name="Path 853" d="M338.341,378a73.461,73.461,0,1,0,.012,0Zm0,137.174a52.457,52.457,0,1,1,.007.029Z" transform="translate(-108.383 -219.789)" opacity="0.1"/>
    <path id="Path_854" data-name="Path 854" d="M828.283,592.376q-1-2.44-2.051-4.866a14.443,14.443,0,0,0-2.506-4.329,4.586,4.586,0,0,0-1.47-1.1,6.269,6.269,0,0,0-1.918-.382,15.31,15.31,0,0,0-3.014-.081c-.39-.118-.831-.272-1.264-.448a10.5,10.5,0,0,0,7.821-9.739v-.448a10.474,10.474,0,0,0-10.43-10.518,10.29,10.29,0,0,0-5.476,1.566,9.827,9.827,0,0,0-11.026,5.314,12.15,12.15,0,0,0-3.749,9.041c0,.154,0,.316,0,.463.191,5.711,3.881,10.291,8.541,10.754a4.9,4.9,0,0,0-1.353.9c-1.426,1.375-1.661,3.558-1.815,5.542l-.11,1.47-2.47.882a.456.456,0,0,0-.11.8l2.359,1.683v.419a1.838,1.838,0,0,0,.044.478,3.374,3.374,0,0,0-.911,1.3,6.011,6.011,0,0,0-.213,2.381l.088,2.051a16.1,16.1,0,0,0,.625,4.565c.309.911,1.647,3.109,2.609,3.124-.889,4.043-1.125,12.569-1.125,12.569-.11.11.2.213.735.3.529,4.057,2.257,15.436,5.322,20.442a43.109,43.109,0,0,1,1.154,4.969s.875,10.813,2.029,14.025c.985,2.734,1.764,9.482,1.977,11.437a1.125,1.125,0,0,0-.816.838c-.581,1.749-4.344,4.41-4.344,4.41a18.191,18.191,0,0,0-3.249,2.08c-1.183,1.066-1.139,2.029,4.116,1.426,10.144-1.169,11.878-4.41,11.878-4.41s-.162-.544-.4-1.25a13.567,13.567,0,0,0-1.33-3.139c-.147-.14-.294.1-.47.463a62.935,62.935,0,0,1-.691-14.194s.287-4.969-1.161-8.475a16.047,16.047,0,0,1,0-5.55c.581-2.337-2.315-13.738-2.315-13.738l-1.661-8.394a2.41,2.41,0,0,1,.463.978l.044.169.044.243a.456.456,0,0,0,.118.228c1.132,4.7,4.234,17.737,4.234,19.648,0,2.337,2.9,8.181,2.9,8.181s1.154,9.644,3.183,13.437c1.544,2.889,1.58,7.123,1.507,8.99h0s-.345,2.4-.926,2.984a7.1,7.1,0,0,0-1.1,1.9l-.066.14s-.867,1.757-.287,2.051a14.237,14.237,0,0,0,6.953.875s1.161-1.47,1.161-2.043a9.2,9.2,0,0,0-.132-1.044c-.213-1.382-.61-3.558-.617-3.58.243-.941-.735-3.558-.735-3.558l-.294-8.181a37.767,37.767,0,0,0-2.029-16.37s-1.47-5.256-1.154-6.718-.581-16.95-.581-16.95l-.088-.221a16.744,16.744,0,0,1,.088-3.286c.287-3.506-.867-10.812-1.161-11.1a9.627,9.627,0,0,1-.412-2.418c.066-.61.265-2.4.536-4.616a82.97,82.97,0,0,0,8.541-.735,1.066,1.066,0,0,0,.735-.294,1.03,1.03,0,0,0,.169-.6C831.561,600.726,829.951,596.448,828.283,592.376Zm-5.829,9.269c.3-2.095.625-4.124.948-5.63l.044.132a40.883,40.883,0,0,1,1.4,4.631A15.747,15.747,0,0,1,822.454,601.644Z" transform="translate(-248.385 -268.133)" fill="url(#linear-gradient)"/>
    <path id="Path_855" data-name="Path 855" d="M802.37,648.473s1.735,15.6,5.491,21.669a42.058,42.058,0,0,1,1.154,4.91s.867,10.688,2.021,13.863,2.021,11.849,2.021,11.849,4.043,4.616,5.491.867a60.877,60.877,0,0,1-.867-15.024s.287-4.91-1.154-8.38a15.671,15.671,0,0,1,0-5.483c.573-2.315-2.315-13.576-2.315-13.576L811.9,647.9Z" transform="translate(-250.816 -291.301)" fill="#be6f72"/>
    <path id="Path_856" data-name="Path 856" d="M821.156,723.351s-1.735,3.175-11.842,4.329c-5.248.6-5.285-.353-4.1-1.411a18.3,18.3,0,0,1,3.234-2.058s3.756-2.595,4.329-4.329,2.6-.287,2.6-.287c2.889,4.329,3.469-1.161,4.043-.581a13.035,13.035,0,0,1,1.33,3.095C820.994,722.807,821.156,723.351,821.156,723.351Z" transform="translate(-251.402 -310.131)" fill="#ff6f61"/>
    <path id="Path_857" data-name="Path 857" d="M821.156,724.482s-1.735,3.175-11.842,4.329c-5.248.6-5.285-.353-4.1-1.411.823.522,2.484.735,5.829-.61,4.815-1.97,8.306-3.109,9.71-3.55C820.994,723.938,821.156,724.482,821.156,724.482Z" transform="translate(-251.402 -311.262)" opacity="0.1"/>
    <path id="Path_858" data-name="Path 858" d="M820.4,686.607s.287-4.91-1.154-8.38a15.671,15.671,0,0,1,0-5.483c.573-2.315-2.315-13.576-2.315-13.576L814.619,647.9l-2,.118,2.286,11.151s2.889,11.261,2.315,13.576a15.671,15.671,0,0,0,0,5.483c1.47,3.469,1.154,8.38,1.154,8.38a60.874,60.874,0,0,0,.867,15.024,2.529,2.529,0,0,1-.838,1.191,1.888,1.888,0,0,0,2.859-1.191A60.877,60.877,0,0,1,820.4,686.607Z" transform="translate(-253.531 -291.301)" opacity="0.1"/>
    <path id="Path_859" data-name="Path 859" d="M813.35,562.42a10.291,10.291,0,0,0-5.454,1.551,9.813,9.813,0,0,0-11.026,5.256,11.967,11.967,0,0,0-3.741,8.938c0,6.145,4.138,11.121,9.24,11.121,3.675,0,6.895-2.617,8.372-6.4a10.144,10.144,0,0,0,2.6.338,10.4,10.4,0,0,0,0-20.8Z" transform="translate(-248.366 -268.652)" fill="#3f3d56"/>
    <path id="Path_860" data-name="Path 860" d="M828.059,650.65l.867,2.308s.867,15.311.573,16.759,1.161,6.615,1.161,6.615a36.98,36.98,0,0,1,2.021,16.171l.287,8.085s1.154,3.175.581,3.756-4.932-.515-4.932-.515.581-6.064-1.47-9.82-3.175-13.29-3.175-13.29-2.889-5.777-2.889-8.086-4.623-21.088-4.623-21.088Z" transform="translate(-254.549 -292.029)" fill="#be6f72"/>
    <path id="Path_861" data-name="Path 861" d="M801.572,643.705s.294-10.4,1.47-13.576a21.554,21.554,0,0,0,1.286-4.609s17.487,3.161,18.935,2.007c0,0,.287,4.043.581,4.329s1.47,7.512,1.154,10.982,0,3.462,0,3.462-11.849,1.735-12.136,0-1.154-1.727-1.154-1.727S801,644.249,801.572,643.705Z" transform="translate(-250.598 -285.371)" fill="#3f3d56"/>
    <g id="Group_42" data-name="Group 42" transform="translate(550.974 342.156)" opacity="0.1">
      <path id="Path_862" data-name="Path 862" d="M811.113,650.045s-7.306-.2-9.511-.6v.6c-.573.573,10.114.867,10.114.867a.734.734,0,0,1,.4.162C811.724,650.045,811.113,650.045,811.113,650.045Z" transform="translate(-801.58 -633.867)"/>
      <path id="Path_863" data-name="Path 863" d="M827.86,632.579c-.294-.287-.581-4.329-.581-4.329a1.242,1.242,0,0,1-.492.176,14.61,14.61,0,0,0,.492,3.286,45.878,45.878,0,0,1,1.154,10.982c-.316,3.469,0,3.462,0,3.462s-9.372,1.375-11.643.456a3.488,3.488,0,0,0,.088.412c.287,1.735,12.136,0,12.136,0s-.294,0,0-3.462A42.945,42.945,0,0,0,827.86,632.579Z" transform="translate(-805.61 -628.25)"/>
      <path id="Path_864" data-name="Path 864" d="M811.113,650.045s-7.306-.2-9.511-.6v.6c-.573.573,10.114.867,10.114.867a.734.734,0,0,1,.4.162C811.724,650.045,811.113,650.045,811.113,650.045Z" transform="translate(-801.58 -633.867)"/>
      <path id="Path_865" data-name="Path 865" d="M827.86,632.579c-.294-.287-.581-4.329-.581-4.329a1.242,1.242,0,0,1-.492.176,14.61,14.61,0,0,0,.492,3.286,45.878,45.878,0,0,1,1.154,10.982c-.316,3.469,0,3.462,0,3.462s-9.372,1.375-11.643.456a3.488,3.488,0,0,0,.088.412c.287,1.735,12.136,0,12.136,0s-.294,0,0-3.462A42.945,42.945,0,0,0,827.86,632.579Z" transform="translate(-805.61 -628.25)"/>
    </g>
    <path id="Path_866" data-name="Path 866" d="M816.658,586.109a3.829,3.829,0,0,0,1.1,1.426,2.469,2.469,0,0,0,1.036.448c-.647.375-1.352.654-2,1.029a35.537,35.537,0,0,0-2.94,2.205,5.982,5.982,0,0,1-3.374,1.308,4.131,4.131,0,0,0,.47-4.109,3.839,3.839,0,0,1-.514-1.426,2.562,2.562,0,0,1,1.419-1.911c.551-.375,1.117-.735,1.691-1.1.448-.279,1.125-.867,1.691-.845s.632.522.735,1.036A8.152,8.152,0,0,0,816.658,586.109Z" transform="translate(-252.954 -274.142)" fill="#be6f72"/>
    <path id="Path_867" data-name="Path 867" d="M816.658,586.109a3.829,3.829,0,0,0,1.1,1.426,2.469,2.469,0,0,0,1.036.448c-.647.375-1.352.654-2,1.029a35.537,35.537,0,0,0-2.94,2.205,5.982,5.982,0,0,1-3.374,1.308,4.131,4.131,0,0,0,.47-4.109,3.839,3.839,0,0,1-.514-1.426,2.562,2.562,0,0,1,1.419-1.911c.551-.375,1.117-.735,1.691-1.1.448-.279,1.125-.867,1.691-.845s.632.522.735,1.036A8.152,8.152,0,0,0,816.658,586.109Z" transform="translate(-252.954 -274.142)" opacity="0.1"/>
    <circle id="Ellipse_111" data-name="Ellipse 111" cx="6.645" cy="6.645" r="6.645" transform="translate(563.83 315.724)" fill="#be6f72"/>
    <path id="Path_868" data-name="Path 868" d="M837.893,727.163c0,.581-1.154,2.021-1.154,2.021a14.3,14.3,0,0,1-6.932-.867c-.581-.287.287-2.021.287-2.021l.066-.14a7.013,7.013,0,0,1,1.1-1.882c.573-.573.919-2.94.919-2.94,1.794-2.94,4.976,1.272,4.976,1.272s.4,2.205.617,3.543A10.076,10.076,0,0,1,837.893,727.163Z" transform="translate(-258.032 -310.481)" fill="#ff6f61"/>
    <path id="Path_869" data-name="Path 869" d="M837.893,729.269c0,.581-1.154,2.021-1.154,2.021a14.3,14.3,0,0,1-6.932-.867c-.581-.287.287-2.021.287-2.021l.066-.14a13.967,13.967,0,0,0,6.292,1.294l1.316-1.316C837.842,728.732,837.893,729.122,837.893,729.269Z" transform="translate(-258.032 -312.587)" opacity="0.1"/>
    <circle id="Ellipse_112" data-name="Ellipse 112" cx="6.498" cy="6.498" r="6.498" transform="translate(550.687 302)" fill="#be6f72"/>
    <path id="Path_870" data-name="Path 870" d="M802.141,599.513c-1.426,1.36-1.661,3.514-1.808,5.476l-.22,2.874a14.5,14.5,0,0,0-.051,2.33c0,.478.118.963.162,1.47s.059,1.147.066,1.727v4.249a5.013,5.013,0,0,0,.47,2.551,1.735,1.735,0,0,0,2.205.794,2.514,2.514,0,0,0,.911-1.411,21.941,21.941,0,0,0,1.47-5.381c.059-.639.066-1.279.125-1.918s.169-1.308.265-1.955c.412-2.7.6-5.439.779-8.166.051-.808.779-3.991-.279-4.344-.515-.169-1.58.36-2.073.537a5.835,5.835,0,0,0-2.021,1.169Z" transform="translate(-250.197 -278.02)" fill="#be6f72"/>
    <path id="Path_871" data-name="Path 871" d="M802.141,599.513c-1.426,1.36-1.661,3.514-1.808,5.476l-.22,2.874a14.5,14.5,0,0,0-.051,2.33c0,.478.118.963.162,1.47s.059,1.147.066,1.727v4.249a5.013,5.013,0,0,0,.47,2.551,1.735,1.735,0,0,0,2.205.794,2.514,2.514,0,0,0,.911-1.411,21.941,21.941,0,0,0,1.47-5.381c.059-.639.066-1.279.125-1.918s.169-1.308.265-1.955c.412-2.7.6-5.439.779-8.166.051-.808.779-3.991-.279-4.344-.515-.169-1.58.36-2.073.537a5.835,5.835,0,0,0-2.021,1.169Z" transform="translate(-250.197 -278.02)" opacity="0.1"/>
    <path id="Path_872" data-name="Path 872" d="M816.789,588.16s-4.91,3.756-7.8,4.623c0,0-1.713,1.955-2.007,2.426s-.882,5.66-1.47,6.821-2.021,3.756,0,6.351a11.012,11.012,0,0,1,.287,3.469c-.287.867-1.338,4.043-.382,4.19s3.852,2.161,6.446,1.588,12.283,2.205,12.283,2.205,1.6-14.885,2.764-17.516l-2.6-.867s-7.218-4.329-2.889-10.974C821.413,590.475,817.355,589.608,816.789,588.16Z" transform="translate(-251.372 -275.472)" fill="#ff6f61"/>
    <path id="Path_873" data-name="Path 873" d="M796.773,611.155l5.969,4.227a.441.441,0,0,0,.522,0l1.617-1.213a.456.456,0,0,0,0-.691l-4.594-4.08a.441.441,0,0,0-.448-.088l-2.948,1.058a.448.448,0,0,0-.118.786Z" transform="translate(-249.284 -281.069)" fill="#3f3d56"/>
    <path id="Path_874" data-name="Path 874" d="M799.3,625.05a16,16,0,0,1-.625-4.506l-.088-2.036a5.881,5.881,0,0,1,.213-2.352,3.844,3.844,0,0,1,2.477-2.168,8.555,8.555,0,0,1,3.374-.243.868.868,0,0,1,.434.118.808.808,0,0,1,.235.4,2.661,2.661,0,0,1,.132,2.124,2.2,2.2,0,0,1-.676.7c-.8.573-1.735.956-2.492,1.58a.9.9,0,0,0-.338.426.993.993,0,0,0,0,.463,7.413,7.413,0,0,0,.382,1.183,1.169,1.169,0,0,0,.331.5c.14.118.323.162.47.272.316.257.978.6.941,1-.11,1.47-.992,3.117-1.338,4.572C802.071,629.923,799.726,626.292,799.3,625.05Z" transform="translate(-249.803 -282.233)" fill="#be6f72"/>
    <g id="Group_43" data-name="Group 43" transform="translate(558.618 326.411)" opacity="0.1">
      <path id="Path_875" data-name="Path 875" d="M812.142,628.225h-.162a4.949,4.949,0,0,0,1.889,0h.184A6.614,6.614,0,0,0,812.142,628.225Z" transform="translate(-811.98 -612.48)"/>
      <path id="Path_876" data-name="Path 876" d="M831.807,606.83c-1.036,2.33-2.565,14.951-2.837,17.457,1.014.265,1.683.456,1.683.456s1.588-14.848,2.749-17.479Z" transform="translate(-816.482 -606.83)"/>
    </g>
    <path id="Path_877" data-name="Path 877" d="M824.045,598.754a2.205,2.205,0,0,0,.948,1.433,12.722,12.722,0,0,1,1.683,1.705,12.076,12.076,0,0,1,1.669,3.344,40.968,40.968,0,0,1,1.389,4.572c-3.675,1.705-7.85,1.624-11.761,2.749a9.387,9.387,0,0,0-4.41,2.609,6.078,6.078,0,0,0-1.625,4.785.624.624,0,0,0,.088.287.617.617,0,0,0,.515.206,4.41,4.41,0,0,0,2.7-.926,12.835,12.835,0,0,0,2.065-2.029,3.322,3.322,0,0,1,1.47-1.088,24.059,24.059,0,0,1,6.615-.647,83.383,83.383,0,0,0,9.857-.779.794.794,0,0,0,.882-.882c.323-4.337-1.286-8.571-2.94-12.591q-.992-2.418-2.043-4.814a14.261,14.261,0,0,0-2.5-4.278,4.411,4.411,0,0,0-1.47-1.088,6.219,6.219,0,0,0-1.97-.368,13.97,13.97,0,0,0-3.227-.059,6.874,6.874,0,0,0-.309,1.669,14.455,14.455,0,0,0,1.779,5.638C823.56,598.474,823.876,598.489,824.045,598.754Z" transform="translate(-253.343 -276.179)" fill="#be6f72"/>
    <path id="Path_878" data-name="Path 878" d="M812.145,606.67a5.387,5.387,0,0,0-.735,2.808,3.781,3.781,0,0,0,.184,1.147,3.719,3.719,0,0,0,2.345,2.205" transform="translate(-253.211 -280.376)" fill="none" stroke="#000" stroke-miterlimit="10" stroke-width="1" opacity="0.1"/>
    <path id="Path_879" data-name="Path 879" d="M812.7,572.985a3.375,3.375,0,0,0-1.066.169c-.963-1.47-3.227-2.484-5.88-2.484-3.514,0-6.358,1.816-6.358,4.05s2.845,4.043,6.358,4.043a8.944,8.944,0,0,0,3.815-.809,3.462,3.462,0,1,0,3.117-4.969Z" transform="translate(-250.029 -270.838)" fill="#3f3d56"/>
    <path id="Path_880" data-name="Path 880" d="M812.986,580.051a3.455,3.455,0,0,1-3.117-1.963,8.946,8.946,0,0,1-3.815.809c-3.506,0-6.351-1.808-6.351-4.043a2.423,2.423,0,0,1,0-.4,2.741,2.741,0,0,0-.323,1.272c0,2.205,2.845,4.043,6.358,4.043a8.944,8.944,0,0,0,3.815-.809,3.462,3.462,0,0,0,6.52-.86,3.447,3.447,0,0,1-3.087,1.955Z" transform="translate(-250.023 -271.84)" opacity="0.1"/>
    <path id="Path_881" data-name="Path 881" d="M796.867,570.932a9.813,9.813,0,0,1,11.026-5.256,10.394,10.394,0,0,1,15.818,7.983v-.867a10.394,10.394,0,0,0-15.855-8.82,9.813,9.813,0,0,0-11.026,5.256,11.967,11.967,0,0,0-3.741,8.938v.867A11.76,11.76,0,0,1,796.867,570.932Z" transform="translate(-248.356 -268.652)" opacity="0.1"/>
    <path id="Path_882" data-name="Path 882" d="M885.417,548.79c1.918-3.55-.257-7.909-2.764-11.077s-5.55-6.461-5.483-10.5c.088-5.8,6.248-9.225,11.173-12.3a54.325,54.325,0,0,0,10.026-8.085,14.651,14.651,0,0,0,3.087-4.124c1.014-2.271.985-4.851.926-7.35q-.323-12.422-1.227-24.815" transform="translate(-270.634 -244.305)" fill="none" stroke="#3f3d56" stroke-miterlimit="10" stroke-width="4"/>
    <path id="Path_883" data-name="Path 883" d="M916,466.821a9.034,9.034,0,0,0-4.513-7.409l-2.029,4.006.059-4.851a8.879,8.879,0,0,0-2.977-.36,9.048,9.048,0,1,0,9.46,8.615Z" transform="translate(-276.13 -241.037)" fill="#6c63ff"/>
    <path id="Path_884" data-name="Path 884" d="M894.408,548.507a9.048,9.048,0,1,1,.434-7.292l-5.653,4.6,6.219-1.47a9,9,0,0,1-1,4.16Z" transform="translate(-270.672 -261.472)" fill="#6c63ff"/>
    <path id="Path_885" data-name="Path 885" d="M891.071,522.831A9.048,9.048,0,0,1,888.2,505.08l-.044,3.727,2.051-4.05h0a9.051,9.051,0,1,1,.845,18.082Z" transform="translate(-271.805 -253.371)" fill="#6c63ff"/>
    <path id="Path_886" data-name="Path 886" d="M920.942,502.951a9.048,9.048,0,1,1,4.006-16.906l-1.6,4.41,3.293-3.161a9,9,0,0,1,2.94,6.248,8.734,8.734,0,0,1-.228,2.492A9.048,9.048,0,0,1,920.942,502.951Z" transform="translate(-279.713 -248.104)" fill="#6c63ff"/>
    <path id="Path_887" data-name="Path 887" d="M914.784,471.019c-2.088.235-4.124.882-6.219,1.014s-4.41-.375-5.726-2.007a28.08,28.08,0,0,1-1.669-2.94,6.505,6.505,0,0,0-2.279-2.146,9.048,9.048,0,1,0,16.906,6.005C915.46,470.96,915.122,470.982,914.784,471.019Z" transform="translate(-276.127 -242.824)" opacity="0.1"/>
    <path id="Path_888" data-name="Path 888" d="M920.956,504.817a9.056,9.056,0,0,1-8.607-12.907,6.7,6.7,0,0,1,1.823,1.816,29,29,0,0,0,1.794,2.992c1.4,1.661,3.815,2.205,6,2.1s4.293-.735,6.468-.919c.3,0,.61-.051.911-.059A9.048,9.048,0,0,1,920.956,504.817Z" transform="translate(-279.726 -249.97)" opacity="0.1"/>
    <path id="Path_889" data-name="Path 889" d="M891.072,524.753A9.041,9.041,0,0,1,882.391,512a7.459,7.459,0,0,1,1.911,1.838c.735.992,1.139,2.139,1.963,3.051,1.529,1.705,4.094,2.3,6.41,2.249s4.41-.6,6.615-.772A9.048,9.048,0,0,1,891.072,524.753Z" transform="translate(-271.805 -255.293)" opacity="0.1"/>
    <path id="Path_890" data-name="Path 890" d="M894.426,550.61a9.056,9.056,0,0,1-16.5-7.35,8.866,8.866,0,0,1,1.985,1.771c.867,1.051,1.433,2.205,2.426,3.219,1.852,1.816,4.837,2.558,7.5,2.631a39.671,39.671,0,0,0,4.594-.272Z" transform="translate(-270.691 -263.576)" opacity="0.1"/>
    <path id="Path_891" data-name="Path 891" d="M1044.417,700.79c1.918-3.55-.257-7.909-2.764-11.077s-5.55-6.461-5.483-10.5c.088-5.8,6.248-9.225,11.173-12.3a54.326,54.326,0,0,0,10.026-8.085,14.651,14.651,0,0,0,3.087-4.124c1.014-2.271.985-4.851.926-7.35q-.316-12.422-1.228-24.815" transform="translate(-312.762 -284.579)" fill="none" stroke="#3f3d56" stroke-miterlimit="10" stroke-width="4"/>
    <path id="Path_892" data-name="Path 892" d="M1075.014,618.821a9.034,9.034,0,0,0-4.513-7.409l-2.029,4.006.059-4.851a8.878,8.878,0,0,0-2.94-.36,9.048,9.048,0,1,0,9.46,8.615Z" transform="translate(-318.272 -281.311)" fill="#6c63ff"/>
    <path id="Path_893" data-name="Path 893" d="M1053.408,700.507a9.048,9.048,0,1,1,.434-7.292l-5.653,4.6,6.219-1.47a8.994,8.994,0,0,1-1,4.16Z" transform="translate(-312.8 -301.745)" fill="#6c63ff"/>
    <path id="Path_894" data-name="Path 894" d="M1050.071,674.831a9.048,9.048,0,0,1-2.874-17.751l-.044,3.727,2.051-4.05h0a9.051,9.051,0,1,1,.845,18.082Z" transform="translate(-313.933 -293.645)" fill="#6c63ff"/>
    <path id="Path_895" data-name="Path 895" d="M1079.942,654.951a9.048,9.048,0,1,1,4.006-16.906l-1.6,4.41,3.293-3.161a9,9,0,0,1,2.94,6.248,8.745,8.745,0,0,1-.228,2.492A9.048,9.048,0,0,1,1079.942,654.951Z" transform="translate(-321.841 -288.377)" fill="#6c63ff"/>
    <path id="Path_896" data-name="Path 896" d="M1073.784,623.019c-2.088.235-4.124.882-6.218,1.014s-4.41-.375-5.726-2.007a28.062,28.062,0,0,1-1.668-2.94,6.505,6.505,0,0,0-2.279-2.146,9.048,9.048,0,1,0,16.906,6.005C1074.46,622.96,1074.122,622.982,1073.784,623.019Z" transform="translate(-318.255 -283.098)" opacity="0.1"/>
    <path id="Path_897" data-name="Path 897" d="M1079.956,656.817a9.056,9.056,0,0,1-8.607-12.907,6.7,6.7,0,0,1,1.823,1.816,29.032,29.032,0,0,0,1.793,2.992c1.4,1.661,3.815,2.205,6,2.1s4.292-.735,6.468-.919c.3,0,.61-.051.911-.059A9.048,9.048,0,0,1,1079.956,656.817Z" transform="translate(-321.854 -290.243)" opacity="0.1"/>
    <path id="Path_898" data-name="Path 898" d="M1050.072,676.753A9.041,9.041,0,0,1,1041.391,664a7.461,7.461,0,0,1,1.911,1.838c.735.992,1.139,2.139,1.963,3.05,1.529,1.705,4.094,2.3,6.41,2.249s4.41-.6,6.615-.772A9.048,9.048,0,0,1,1050.072,676.753Z" transform="translate(-313.933 -295.566)" opacity="0.1"/>
    <path id="Path_899" data-name="Path 899" d="M1053.426,702.61a9.056,9.056,0,0,1-16.5-7.35,8.867,8.867,0,0,1,1.985,1.771c.867,1.051,1.47,2.205,2.426,3.219,1.852,1.816,4.837,2.558,7.5,2.631a39.645,39.645,0,0,0,4.594-.272Z" transform="translate(-312.819 -303.849)" opacity="0.1"/>
    <path id="Path_900" data-name="Path 900" d="M494.476,580.47a7.211,7.211,0,0,0-2.874-5.822,8.453,8.453,0,0,0-7.064-8.291,8.438,8.438,0,0,0-5.623-6.285h0a7.181,7.181,0,0,0-1.044-.243h-1.242a8.277,8.277,0,0,0-8,7.071c-2.58-.6-4.939.176-5.373,1.808a2.2,2.2,0,0,0,.073,1.308,5.688,5.688,0,0,0,3.793,3.072l.25.073.375.1h.081a6.5,6.5,0,0,0-.617,2.786,6.424,6.424,0,0,0,3.462,5.733l-.169.1a2.294,2.294,0,0,0-.559.779,11.661,11.661,0,0,0-1.081,2.6c-.184.779-.213,1.588-.441,2.36-.426,1.419-1.514,2.617-1.639,4.094-.059.661.051,1.47-.419,1.9a2.288,2.288,0,0,1-.375.265,3.034,3.034,0,0,0-.816.86,2.852,2.852,0,0,1-.573.823c-.426.316-1.125.287-1.33.779s.331,1.073.206,1.61-.581.639-.911.941a3.271,3.271,0,0,0-.786,1.47,4.821,4.821,0,0,1-3.969-1.014,7.421,7.421,0,0,1,.412,1.47,6.439,6.439,0,0,0-2.139-1.073,6.755,6.755,0,0,1-2.279-1.691l1.22-.169-5.388-8.225-1.6-.331,1.426,2.742a.874.874,0,0,0-.485.581,2.492,2.492,0,0,0-.051.934,16.709,16.709,0,0,0,.367,2.205l.412,1.926c.037.176.081.36.132.536a5.066,5.066,0,0,0-1.6.177,13.88,13.88,0,0,0-3.315-.787,1.837,1.837,0,0,0-.735,0,1.9,1.9,0,0,0-.7.566,22.61,22.61,0,0,0-2.462,3.469c-2.94,5.042-6.77,9.445-10.393,14-2.5,1.014-5.02,1.977-7.542,2.94l-5.425,2.073a8.225,8.225,0,0,1-3.367.735c-.515,0-1.154-.11-1.47.331a3.1,3.1,0,0,0-.331.735l-.559.059h0a6.424,6.424,0,0,0-1.3-2.4.823.823,0,0,0-.61.47c-.132.243-.213.507-.368.735-.287.426-.794.632-1.154.992s-.588.919-.985,1.286a3.9,3.9,0,0,1-1.845.735,11.642,11.642,0,0,0-2.889,1.1,4.65,4.65,0,0,1-1.066.492,4.005,4.005,0,0,1-1.257.044l-2.867-.213a2.263,2.263,0,0,0-.772.037,1.47,1.47,0,0,0-.911,1.47,2.316,2.316,0,0,0,.911,1.58,5.837,5.837,0,0,0,1.632.845,47.887,47.887,0,0,0,7.645,2.264v.581a13.047,13.047,0,0,0,5.88,1.4.912.912,0,0,0,.441-.081.97.97,0,0,0,.367-.573,23.646,23.646,0,0,0,1.147-5.63h0a2.939,2.939,0,0,0,1.036-.265c.985-.272,1.97.4,2.992.515,1.257.14,2.418-.6,3.609-1.044l.515-.169a5.645,5.645,0,0,1-1.191,1.139c-.492.353-1.044.617-1.522.985a10.472,10.472,0,0,1-1.294,1,8.108,8.108,0,0,1-.992.382,6.545,6.545,0,0,0-1.419.735,2.872,2.872,0,0,0-.963.941,1.411,1.411,0,0,0-.081,1.323,1.4,1.4,0,0,0,.948.662,3.891,3.891,0,0,0,1.169,0c1.558-.118,3.109-.257,4.66-.4a12.421,12.421,0,0,0,1.948-.279c.338-.081.676-.191,1.014-.287a9.048,9.048,0,0,1,1.771-.265,1.47,1.47,0,0,1,.515.051c.36.118.617.485.985.559a1.47,1.47,0,0,0,.735-.1,16.393,16.393,0,0,1,3.447-.367,1.423,1.423,0,0,0,1.338-.6c.235-.47-.191-1.228-.382-1.852a5.666,5.666,0,0,1-.162-1.22,7.639,7.639,0,0,0-.853-2.9,7.553,7.553,0,0,1-.64-1.323,33.426,33.426,0,0,0,6.343-3.219,11.341,11.341,0,0,1,3.616-1.742,9.835,9.835,0,0,1,4.542.529,103.357,103.357,0,0,1,10.416,3.631c1.624.669,3.242,1.375,4.917,1.882a7.664,7.664,0,0,0,1.749,1.7,8.085,8.085,0,0,0,3.785,1.036,49.623,49.623,0,0,0,5.329.2,8.989,8.989,0,0,0,3.969-.735,4.078,4.078,0,0,0,.831-.551,3.293,3.293,0,0,0,2.617-.963,6.344,6.344,0,0,0,1.992-3.146c.434-1.676.1-3.675,1.132-5.013.272-.368.632-.662.9-1.029a2.9,2.9,0,0,0,.47-1.7.343.343,0,0,1,.044-.066,6.225,6.225,0,0,0,.441-1.691,9.675,9.675,0,0,1,.478-1.338,41.288,41.288,0,0,0,1.367-3.962,23.139,23.139,0,0,0,.632-2.72c.11-.735.176-1.47.235-2.205a13.7,13.7,0,0,1,.669-3.4,27.7,27.7,0,0,0,1.544-8.144v-.162A5.461,5.461,0,0,0,494,586.549a5.8,5.8,0,0,0-.507-2.374,7.35,7.35,0,0,0,.985-3.7Zm-26.3,31.952c.081.287.176.566.272.845-.434-.419-.853-.853-1.286-1.279.169.059.345.11.507.176a2.746,2.746,0,0,1,.485.257Zm-2.08-1.411c-2.543-2.205-5.483-3.918-8.085-6.057,1.419.7,2.8,1.514,4.168,2.293q2.433,1.389,4.932,2.668a4.036,4.036,0,0,1-1.036,1.1Zm1.081-5.557.125-.125v.875l-.684-.235a6.093,6.093,0,0,0,.537-.515Zm-22.367,5.954a21.044,21.044,0,0,0,2.7-3.859c1.007,1.757,2.646,3.028,4.035,4.506C449.307,611.768,447.058,611.526,444.809,611.408Z" transform="translate(-143.125 -267.966)" fill="url(#linear-gradient-2)"/>
    <path id="Path_901" data-name="Path 901" d="M415.35,438.25l1.6.323,5.461,8.078-2.4.323Z" transform="translate(-110.05 -116.212)" fill="#2f2e41"/>
    <path id="Path_902" data-name="Path 902" d="M414.49,645.431a31.451,31.451,0,0,0,1.6,4.168,39.7,39.7,0,0,0,5.329-1.522,16.78,16.78,0,0,0-1.11-1.47,5.48,5.48,0,0,0-1.507-1.154,4.146,4.146,0,0,0-1.83,0C416.151,645.431,415.321,645.446,414.49,645.431Z" transform="translate(-148.044 -290.625)" fill="#fbbebe"/>
    <path id="Path_903" data-name="Path 903" d="M413.862,646.75a3.322,3.322,0,0,1-1.823-2.073,6.675,6.675,0,0,0-1.389-2.477.794.794,0,0,0-.617.463c-.132.235-.213.5-.36.735-.294.419-.809.625-1.176.978s-.588.9-.985,1.264a3.909,3.909,0,0,1-1.86.735,12.058,12.058,0,0,0-2.94,1.08,5.075,5.075,0,0,1-1.081.485,4.278,4.278,0,0,1-1.264,0l-2.9-.206a2.261,2.261,0,0,0-.735,0,1.4,1.4,0,0,0-.919,1.47,2.205,2.205,0,0,0,.919,1.558,6.1,6.1,0,0,0,1.646.838,48.433,48.433,0,0,0,7.762,2.205v.573a13.437,13.437,0,0,0,5.917,1.375,1,1,0,0,0,.441-.073.97.97,0,0,0,.367-.573,22.934,22.934,0,0,0,1.213-6.292,5.013,5.013,0,0,0-.125-1.624c-.162-.522.382-.3-.118-.507" transform="translate(-143.095 -289.79)" fill="#2f2e41"/>
    <path id="Path_904" data-name="Path 904" d="M475.381,632.714c-8.585.515-17.068-2-25.668-2.264a12.531,12.531,0,0,0-3.19.2,16.076,16.076,0,0,0-3.161,1.227c-4.609,2.146-9.379,3.925-14.142,5.7l-5.476,2.036a8.292,8.292,0,0,1-3.389.735c-.522,0-1.161-.11-1.47.323-.889,1.323-.47,3.256.118,4.741.191.478.515,1,1.029,1.051a2.99,2.99,0,0,0,1.044-.265c.992-.265,1.985.4,3.014.515,1.264.132,2.44-.588,3.638-1.029,1.985-.735,4.146-.735,6.233-1.058a27.927,27.927,0,0,0,9.761-4.05,11.394,11.394,0,0,1,3.638-1.72,10.071,10.071,0,0,1,4.579.522,105.112,105.112,0,0,1,10.5,3.572,48.954,48.954,0,0,0,5.483,2.007,19.846,19.846,0,0,0,12.3-.735c1.375-.544,2.867-1.47,2.94-2.984.051-.845-.61-1.588-1.044-2.315-.279-.463-.566-.926-.867-1.375C479.784,635.412,477.99,632.56,475.381,632.714Z" transform="translate(-149.073 -286.67)" fill="#2f2e41"/>
    <path id="Path_905" data-name="Path 905" d="M475.381,632.714c-8.585.515-17.068-2-25.668-2.264a12.531,12.531,0,0,0-3.19.2,16.076,16.076,0,0,0-3.161,1.227c-4.609,2.146-9.379,3.925-14.142,5.7l-5.476,2.036a8.292,8.292,0,0,1-3.389.735c-.522,0-1.161-.11-1.47.323-.889,1.323-.47,3.256.118,4.741.191.478.515,1,1.029,1.051a2.99,2.99,0,0,0,1.044-.265c.992-.265,1.985.4,3.014.515,1.264.132,2.44-.588,3.638-1.029,1.985-.735,4.146-.735,6.233-1.058a27.927,27.927,0,0,0,9.761-4.05,11.394,11.394,0,0,1,3.638-1.72,10.071,10.071,0,0,1,4.579.522,105.112,105.112,0,0,1,10.5,3.572,48.954,48.954,0,0,0,5.483,2.007,19.846,19.846,0,0,0,12.3-.735c1.375-.544,2.867-1.47,2.94-2.984.051-.845-.61-1.588-1.044-2.315-.279-.463-.566-.926-.867-1.375C479.784,635.412,477.99,632.56,475.381,632.714Z" transform="translate(-149.073 -286.67)" opacity="0.1"/>
    <path id="Path_906" data-name="Path 906" d="M436.92,644.712q2.014.684,4.065,1.264c.735-1.257,2.205-2.132,2.521-3.572a.338.338,0,0,0,0-.191.353.353,0,0,0-.154-.14,7.7,7.7,0,0,0-3.19-.934c-.882-.051-1.286.867-1.683,1.514C438.324,642.94,437.28,644.851,436.92,644.712Z" transform="translate(-153.987 -289.509)" fill="#fbbebe"/>
    <path id="Path_907" data-name="Path 907" d="M434.694,644.045a2.94,2.94,0,0,1-1.977-1.3c-.184-.331-.39-.779-.772-.735s-.507.441-.588.786a22.048,22.048,0,0,1-1.11,3.815,7.158,7.158,0,0,1-2.374,3.124c-.5.345-1.051.6-1.544.97a10.6,10.6,0,0,1-1.3.985,7.729,7.729,0,0,1-1,.368,6.929,6.929,0,0,0-1.426.735,2.829,2.829,0,0,0-.978.934,1.345,1.345,0,0,0-.073,1.3,1.389,1.389,0,0,0,.948.647,4,4,0,0,0,1.183,0c1.566-.11,3.131-.25,4.7-.39a13.562,13.562,0,0,0,1.963-.272l1.022-.279a8.135,8.135,0,0,1,1.786-.265,1.389,1.389,0,0,1,.522.051c.36.118.617.478.992.551a1.66,1.66,0,0,0,.735-.1,16.23,16.23,0,0,1,3.477-.36,1.467,1.467,0,0,0,1.352-.588c.294-.573-.191-1.213-.39-1.83a5.88,5.88,0,0,1-.162-1.2,7.306,7.306,0,0,0-.86-2.852c-.4-.735-.941-1.544-.662-2.323a2.206,2.206,0,0,0,.265-.8C438.311,643.758,435.415,644.207,434.694,644.045Z" transform="translate(-149.88 -289.739)" fill="#2f2e41"/>
    <path id="Path_908" data-name="Path 908" d="M475.813,612.079a6.7,6.7,0,0,1-3.425-3.4c-.14-.323-.257-.669-.4-.992a7.543,7.543,0,0,0-2.043-2.845,1.007,1.007,0,0,0-.735-.316.8.8,0,0,0-.551.6,2.271,2.271,0,0,0-.059.919,16.368,16.368,0,0,0,.368,2.146l.419,1.9a4.163,4.163,0,0,0,.257.845,2.94,2.94,0,0,0,.7.831c.382.353.772.691,1.161,1.029a3.989,3.989,0,0,0,.735.507,4.272,4.272,0,0,0,1.3.382,11.07,11.07,0,0,1,4.881,1.882s0-1.272,0-1.411a1.867,1.867,0,0,0-.367-1.022,6.518,6.518,0,0,0-2.242-1.051Z" transform="translate(-162.376 -279.809)" fill="#fbbebe"/>
    <path id="Path_909" data-name="Path 909" d="M475.813,612.079a6.7,6.7,0,0,1-3.425-3.4c-.14-.323-.257-.669-.4-.992a7.543,7.543,0,0,0-2.043-2.845,1.007,1.007,0,0,0-.735-.316.8.8,0,0,0-.551.6,2.271,2.271,0,0,0-.059.919,16.368,16.368,0,0,0,.368,2.146l.419,1.9a4.163,4.163,0,0,0,.257.845,2.94,2.94,0,0,0,.7.831c.382.353.772.691,1.161,1.029a3.989,3.989,0,0,0,.735.507,4.272,4.272,0,0,0,1.3.382,11.07,11.07,0,0,1,4.881,1.882s0-1.272,0-1.411a1.867,1.867,0,0,0-.367-1.022,6.518,6.518,0,0,0-2.242-1.051Z" transform="translate(-162.376 -279.809)" opacity="0.1"/>
    <ellipse id="Ellipse_113" data-name="Ellipse 113" cx="2.088" cy="2.102" rx="2.088" ry="2.102" transform="translate(328.829 313.555)" fill="#2f2e41"/>
    <path id="Path_910" data-name="Path 910" d="M495.234,590.458a2.256,2.256,0,0,0-1.646.235,2.286,2.286,0,0,0-.566.772,11.212,11.212,0,0,0-1.088,2.558c-.184.735-.213,1.566-.448,2.323-.426,1.4-1.522,2.58-1.646,4.035-.059.654.051,1.419-.426,1.86a2.7,2.7,0,0,1-.375.272,2.823,2.823,0,0,0-.823.845,2.773,2.773,0,0,1-.581.8c-.426.316-1.132.287-1.338.735s.331,1.058.206,1.588-.588.632-.919.926a3.212,3.212,0,0,0-.794,1.47,4.9,4.9,0,0,1-4-.992,12.732,12.732,0,0,1,.625,4.572,1.867,1.867,0,0,1-.368,1.411,25.45,25.45,0,0,1,4.9.853,3.382,3.382,0,0,0,2.139,0,3.573,3.573,0,0,0,.985-.779,6.28,6.28,0,0,0,2.021-3.117,18.319,18.319,0,0,0,.037-2.11,11.892,11.892,0,0,1,.537-2.565,30.521,30.521,0,0,0,.934-5.278c.1-1.1,1.051-1.985,1.551-2.94a14.4,14.4,0,0,0,1.977-5.88C496.16,591.376,495.925,590.531,495.234,590.458Z" transform="translate(-165.611 -276.064)" fill="#2f2e41"/>
    <path id="Path_911" data-name="Path 911" d="M495.234,590.458a2.256,2.256,0,0,0-1.646.235,2.286,2.286,0,0,0-.566.772,11.212,11.212,0,0,0-1.088,2.558c-.184.735-.213,1.566-.448,2.323-.426,1.4-1.522,2.58-1.646,4.035-.059.654.051,1.419-.426,1.86a2.7,2.7,0,0,1-.375.272,2.823,2.823,0,0,0-.823.845,2.773,2.773,0,0,1-.581.8c-.426.316-1.132.287-1.338.735s.331,1.058.206,1.588-.588.632-.919.926a3.212,3.212,0,0,0-.794,1.47,4.9,4.9,0,0,1-4-.992,12.732,12.732,0,0,1,.625,4.572,1.867,1.867,0,0,1-.368,1.411,25.45,25.45,0,0,1,4.9.853,3.382,3.382,0,0,0,2.139,0,3.573,3.573,0,0,0,.985-.779,6.28,6.28,0,0,0,2.021-3.117,18.319,18.319,0,0,0,.037-2.11,11.892,11.892,0,0,1,.537-2.565,30.521,30.521,0,0,0,.934-5.278c.1-1.1,1.051-1.985,1.551-2.94a14.4,14.4,0,0,0,1.977-5.88C496.16,591.376,495.925,590.531,495.234,590.458Z" transform="translate(-165.611 -276.064)" opacity="0.1"/>
    <path id="Path_912" data-name="Path 912" d="M482.327,629.626c-1.786-.853-3.095-2.433-4.543-3.793-2.756-2.595-6.13-4.41-9.034-6.858a63.658,63.658,0,0,0-5.755-4.837,14.383,14.383,0,0,0-6.167-2.154,1.639,1.639,0,0,0-.735,0,1.69,1.69,0,0,0-.7.551,22.212,22.212,0,0,0-2.492,3.418c-3.675,6.248-8.9,11.5-13.231,17.3a1.1,1.1,0,0,0-.213.412,1.022,1.022,0,0,0,.162.64l.882,1.72c.492.97,1.286,2.095,2.345,1.9a2.565,2.565,0,0,0,1.228-.786l3.955-3.785,4.146-3.962c2.426-2.315,4.9-4.69,6.483-7.659,1.235,2.146,3.433,3.55,4.932,5.513.573.735,1.044,1.566,1.558,2.359.816,1.264,1.749,2.455,2.676,3.675l4.756,6.064a9.1,9.1,0,0,0,2.205,2.205,8.416,8.416,0,0,0,3.815,1.022,50.41,50.41,0,0,0,5.373.191,9.262,9.262,0,0,0,4.006-.735,3.631,3.631,0,0,0,2.168-3.227,4.734,4.734,0,0,0-.684-2.007A16.382,16.382,0,0,0,482.327,629.626Z" transform="translate(-154.659 -281.774)" fill="#2f2e41"/>
    <ellipse id="Ellipse_114" data-name="Ellipse 114" cx="1.61" cy="1.617" rx="1.61" ry="1.617" transform="translate(330.593 315.496)" fill="#e8e8f0"/>
    <path id="Path_913" data-name="Path 913" d="M502.675,590.71a3.1,3.1,0,0,1,.176,2.323,9.425,9.425,0,0,1-1.036,2.139,10.184,10.184,0,0,1-1.345,1.911,13.847,13.847,0,0,0,7.071-2.029A10.268,10.268,0,0,0,512,591.165a2.058,2.058,0,0,1-1.646-.309,5.88,5.88,0,0,1-1.257-1.169l-1.242-1.4a5.6,5.6,0,0,1-.735-1.007,2.779,2.779,0,0,1-.331-1.625,9.458,9.458,0,0,1-1.646,1.367c-.889.581-1.867,1-2.764,1.573-.309.206-1.014.529-.831.941S502.425,590.269,502.675,590.71Z" transform="translate(-170.825 -274.81)" fill="#fbbebe"/>
    <path id="Path_914" data-name="Path 914" d="M502.675,590.71a3.1,3.1,0,0,1,.176,2.323,9.425,9.425,0,0,1-1.036,2.139,10.184,10.184,0,0,1-1.345,1.911,13.847,13.847,0,0,0,7.071-2.029A10.268,10.268,0,0,0,512,591.165a2.058,2.058,0,0,1-1.646-.309,5.88,5.88,0,0,1-1.257-1.169l-1.242-1.4a5.6,5.6,0,0,1-.735-1.007,2.779,2.779,0,0,1-.331-1.625,9.458,9.458,0,0,1-1.646,1.367c-.889.581-1.867,1-2.764,1.573-.309.206-1.014.529-.831.941S502.425,590.269,502.675,590.71Z" transform="translate(-170.825 -274.81)" opacity="0.1"/>
    <path id="Path_915" data-name="Path 915" d="M499.983,592.766a2.1,2.1,0,0,0,0,2.426c.074.088.338.639.448.647a.4.4,0,0,0,.279-.147,18.452,18.452,0,0,0,1.573-1.874,3.5,3.5,0,0,1,2-1.308,4.322,4.322,0,0,1,2.756.86,2.616,2.616,0,0,1,.948.735,2.565,2.565,0,0,1,.309,1.051,50.637,50.637,0,0,1,.279,6.682,26.329,26.329,0,0,1-.316,4.815c-.162.816-.4,1.617-.507,2.448a15.617,15.617,0,0,0-.1,2.205v3.072a8.088,8.088,0,0,0,.118,1.683c.147.669.463,1.294.676,1.948a12.744,12.744,0,0,1,.448,2.3l.419,3.175a4.015,4.015,0,0,1-.375,2.94c-.272.36-.632.654-.911,1.014-1.036,1.353-.735,3.286-1.139,4.939a6.159,6.159,0,0,1-2.014,3.087,3.33,3.33,0,0,1-2.654.948c-1.294-.243-2.065-1.588-2.418-2.859a11.431,11.431,0,0,0-1.242-3.727,9.884,9.884,0,0,0-2.455-2.051,4.241,4.241,0,0,1-1.918-2.492c-.081-.463,0-.941-.081-1.411a3.33,3.33,0,0,0-2.051-2.7c-.662-.257-1.47-.353-1.852-.956a4.461,4.461,0,0,0,1.933-2.595,13.326,13.326,0,0,0,.47-3.278l.221-3.675a12.276,12.276,0,0,1,.875-4.77c.323-.662.735-1.286,1.066-1.94a21.065,21.065,0,0,0,1.139-2.845c.529-1.514,1.058-3.028,1.529-4.557a8.586,8.586,0,0,1,.838-2.124C498.668,593.744,499.241,592.913,499.983,592.766Z" transform="translate(-168.104 -276.624)" fill="#e8e8f0"/>
    <path id="Path_916" data-name="Path 916" d="M492.322,616.518h.978l.206-1.47a3.064,3.064,0,0,1,.206-.86,5.146,5.146,0,0,1,.566-.823c.956-1.36.889-3.161,1.125-4.815a24.5,24.5,0,0,1,2.146-6.292l1.9-4.227a5.833,5.833,0,0,0,.412-1.081,6.479,6.479,0,0,0,.118-1.25c0-.654.206-3.036.228-3.675,0-.243-.537-.11-.647-.323-.235-.47-.559.8-1.007,1.08a2.47,2.47,0,0,0-.875,1.279c-.412,1.058-.662,2.205-1.044,3.256a6.652,6.652,0,0,1-1.771,2.881c-.39.338-.838.61-1.206.978-1.176,1.161-1.294,3.006-1.33,4.667C492.293,606.859,492.1,616.518,492.322,616.518Z" transform="translate(-168.639 -276.383)" fill="#2f2e41"/>
    <path id="Path_917" data-name="Path 917" d="M508.286,590.434a3.337,3.337,0,0,0-1.742,2.389,12.086,12.086,0,0,1-.882,2.94c-1.191,2.073-4.227,2.676-5.072,4.917a9.04,9.04,0,0,0-.338,2.315c-.147,1.61-.676,3.161-.838,4.763a21.223,21.223,0,0,0,.088,3.741l1.066,12.657a16.905,16.905,0,0,1-.316,5.572,5.366,5.366,0,0,0,3.19-.529c.992-.456,1.9-1.081,2.867-1.61a29.533,29.533,0,0,0,4.917-2.764,3.007,3.007,0,0,0,.662-.735,6.354,6.354,0,0,0,.441-1.661,8.972,8.972,0,0,1,.478-1.308,38.543,38.543,0,0,0,1.382-3.91,22.451,22.451,0,0,0,.632-2.676c.118-.735.184-1.47.243-2.205a12.935,12.935,0,0,1,.676-3.344,26.94,26.94,0,0,0,1.551-8.027,4.194,4.194,0,0,0-.081-1.176,6.293,6.293,0,0,0-.647-1.345c-.441-.831-.735-1.742-1.117-2.587a12.723,12.723,0,0,0-4.344-4.565C510.249,590.706,509.249,590.089,508.286,590.434Z" transform="translate(-170.534 -276.048)" fill="#2f2e41"/>
    <path id="Path_918" data-name="Path 918" d="M477.142,617.032a7.666,7.666,0,0,1-2.021-1.536c-.265-.309-.485-.654-.735-.963a5.005,5.005,0,0,0-2.543-1.47,12.425,12.425,0,0,0-2.94-.287,5.335,5.335,0,0,0-1.963.235,2,2,0,0,0-1.3,1.4,2.315,2.315,0,0,0,.992,2.058,4.675,4.675,0,0,0,1.977.956,15.822,15.822,0,0,0,1.786.213c3.513.368,6.652,2.279,9.732,4.021q4.057,2.308,8.277,4.293a17.2,17.2,0,0,0,.14-2.536c0-.632-.052-1.6-.647-1.977a12.978,12.978,0,0,0-2.631-.786,41.419,41.419,0,0,1-5.3-2.146A26.37,26.37,0,0,1,477.142,617.032Z" transform="translate(-161.595 -281.991)" fill="#fbbebe"/>
    <ellipse id="Ellipse_115" data-name="Ellipse 115" cx="6.263" cy="6.299" rx="6.263" ry="6.299" transform="translate(324.654 302.581)" fill="#fbbebe"/>
    <path id="Path_919" data-name="Path 919" d="M508.364,599.892a10.042,10.042,0,0,0-1.213,2.271c-.735,1.588-1.985,2.94-2.595,4.623s-.617,3.844-1.874,5.219a1.83,1.83,0,0,0-.551.794,3.79,3.79,0,0,1-.059.573c-.184.5-1,.522-1.154,1.036-.044.147,0,.309-.073.456-.125.331-.566.382-.853.581-.61.412-.485,1.367-.919,1.963a1.654,1.654,0,0,1-1.566.551,5.512,5.512,0,0,1-1.624-.61,1.568,1.568,0,0,0-.588-.184,1.213,1.213,0,0,0-.676.235,4.168,4.168,0,0,0-1.691,3.565,11.643,11.643,0,0,0,.97,3.991,1.6,1.6,0,0,0,.316.6,1.4,1.4,0,0,0,1.558.118,7.348,7.348,0,0,1,1.522-.684c.97-.176,1.918.492,2.9.434a4.035,4.035,0,0,0,1.955-.86,10.8,10.8,0,0,0,2.631-2.205c.426-.566.735-1.205,1.117-1.808a23.2,23.2,0,0,1,1.58-2.11l3.616-4.41a10.152,10.152,0,0,0,.97-1.338,9.426,9.426,0,0,0,.735-2.021,15.483,15.483,0,0,0,.735-3.594,13.811,13.811,0,0,0-.265-3.014,10.653,10.653,0,0,0-.735-2.874C511.753,599.525,509.841,598.172,508.364,599.892Z" transform="translate(-168.825 -278.369)" fill="#2f2e41"/>
    <path id="Path_920" data-name="Path 920" d="M519.684,581.633a7.056,7.056,0,0,0-2.9-5.733,8.387,8.387,0,0,0-7.123-8.166,8.137,8.137,0,0,0-16.031.434c-2.6-.588-4.984.176-5.417,1.779s1.4,3.675,4.146,4.41a7.724,7.724,0,0,0,2.661.265,8.144,8.144,0,0,0,5.6,3.491,8.357,8.357,0,0,0,6.116,6.307,7.019,7.019,0,0,0,1.889,2.609v.61a5.3,5.3,0,1,0,10.6,0,5.659,5.659,0,0,0-.507-2.345A7.086,7.086,0,0,0,519.684,581.633Z" transform="translate(-167.562 -268.328)" fill="#f86d70"/>
    <path id="Path_921" data-name="Path 921" d="M489.979,570.283c.434-1.6,2.815-2.367,5.417-1.779a8.277,8.277,0,0,1,8.085-6.968h.537a7.965,7.965,0,0,0-2.308-.345,8.277,8.277,0,0,0-8.085,6.968c-2.6-.588-4.984.176-5.417,1.779s1.4,3.675,4.146,4.41a8.083,8.083,0,0,0,1.573.272C491.3,573.833,489.545,571.922,489.979,570.283Z" transform="translate(-167.559 -268.326)" opacity="0.1"/>
    <path id="Path_922" data-name="Path 922" d="M512.9,592.884a5.53,5.53,0,0,1,0-.6,6.865,6.865,0,0,1-1.889-2.609,8.335,8.335,0,0,1-6.116-6.314,8.122,8.122,0,0,1-5.608-3.484,7.056,7.056,0,0,1-1.566-.044,8.166,8.166,0,0,0,5.4,3.212,8.357,8.357,0,0,0,6.116,6.307,7.02,7.02,0,0,0,1.889,2.609v.61a5.4,5.4,0,0,0,5.27,5.483A5.483,5.483,0,0,1,512.9,592.884Z" transform="translate(-170.097 -273.265)" opacity="0.1"/>
    <ellipse id="Ellipse_116" data-name="Ellipse 116" cx="0.963" cy="1.286" rx="0.963" ry="1.286" transform="translate(331.467 309.726) rotate(-37.22)" fill="#fbbebe"/>
  </g>
</svg>
