<svg xmlns="http://www.w3.org/2000/svg" xmlns:xlink="http://www.w3.org/1999/xlink" width="1147" height="562" viewBox="0 0 1147 562">
  <defs>
    <linearGradient id="linear-gradient" x1="0.001" y1="0.492" x2="1.004" y2="0.529" gradientUnits="objectBoundingBox">
      <stop offset="0" stop-color="#eca459"/>
      <stop offset="1" stop-color="#be3265"/>
    </linearGradient>
  </defs>
  <path id="Path_1199" data-name="Path 1199" d="M1674.425,559.5h-866v-5h866c152.187,0,276-123.813,276-276s-123.813-276-276-276v-5a283.063,283.063,0,0,1,56.629,5.709,279.48,279.48,0,0,1,100.483,42.283,281.812,281.812,0,0,1,101.805,123.629,279.607,279.607,0,0,1,16.375,52.75,283.717,283.717,0,0,1,0,113.257,279.475,279.475,0,0,1-42.283,100.483,281.811,281.811,0,0,1-123.63,101.8,279.6,279.6,0,0,1-52.75,16.375A283.062,283.062,0,0,1,1674.425,559.5Z" transform="translate(-808.425 2.5)" fill="url(#linear-gradient)"/>
</svg>
