<svg xmlns="http://www.w3.org/2000/svg" xmlns:xlink="http://www.w3.org/1999/xlink" width="665.47" height="432.125" viewBox="0 0 665.47 432.125">
  <defs>
    <linearGradient id="linear-gradient" x1="0.023" y1="0.04" x2="1" y2="0.688" gradientUnits="objectBoundingBox">
      <stop offset="0" stop-color="#aebaf8"/>
      <stop offset="1" stop-color="#9600ff"/>
    </linearGradient>
  </defs>
  <g id="undraw_newsletter_re_wrob" transform="translate(0 -0.002)">
    <path id="Path_1218" data-name="Path 1218" d="M963.28,425.183a68.246,68.246,0,0,1-63,68.048c-.574.043-1.16.087-1.746.113V428.569a4.339,4.339,0,0,0-1.61-3.377,1.09,1.09,0,0,0-.193-.157,1.623,1.623,0,0,0-.2-.14,4.375,4.375,0,0,0-4.174-.306L891.627,423a6.13,6.13,0,0,1,2.529-.551l-49.839-42.935c.385-.437.787-.866,1.19-1.295a68.255,68.255,0,0,1,117.773,46.969Z" transform="translate(-297.809 -222.301)" fill="#f2f2f2"/>
    <path id="Path_1219" data-name="Path 1219" d="M239.478,479.926a8.826,8.826,0,0,1,8.514-10.52l39.341-46.832,9.822,12.558L257.06,478.717a8.874,8.874,0,0,1-17.583,1.21Z" transform="translate(-222.172 -230.507)" fill="#ffb8b8"/>
    <path id="Path_1220" data-name="Path 1220" d="M443.867,421.684a9.213,9.213,0,0,0-.728,1.254l-42.957,6.14-6.523-8.281-13.785,8.211,12.958,20.2,52.39-15.444a9.184,9.184,0,1,0-1.355-12.083Z" transform="translate(-239.745 -229.907)" fill="#ffb8b8"/>
    <path id="Path_1221" data-name="Path 1221" d="M149.426,393.82l7.6,7.569,32.812-25.717L178.621,364.5Z" transform="translate(-18.681 -45.569)" fill="#ffb8b8"/>
    <path id="Path_1222" data-name="Path 1222" d="M0,0H33.714V13.026H13.026A13.026,13.026,0,0,1,0,0H0Z" transform="translate(145.98 377.471) rotate(-135.123)" fill="#2f2e41"/>
    <path id="Path_1223" data-name="Path 1223" d="M103.246,475.068h10.727l5.1-41.376H103.244Z" transform="translate(-12.907 -54.219)" fill="#ffb8b8"/>
    <path id="Path_1224" data-name="Path 1224" d="M0,0H33.714V13.026H13.026A13.026,13.026,0,0,1,0,0H0Z" transform="translate(121.751 430.809) rotate(179.997)" fill="#2f2e41"/>
    <path id="Path_1225" data-name="Path 1225" d="M318.4,624.877l-12.219-90.112a112.829,112.829,0,0,1,1.751-40.876c2.507-10.773,5.895-18.235,10.068-22.178a4.129,4.129,0,0,1,2.4-1.1l40.342-4.2a4.118,4.118,0,0,1,3.946,1.972l1.326,2.21a4.11,4.11,0,0,1,.387.852l8.529,26.442a3.165,3.165,0,0,0,1.582,1.861c13.429,6.856,57.052,30,54.555,39.987-2.346,9.383-24.306,24.6-30.981,29.034a4.078,4.078,0,0,1-4.585-.035l-11.08-7.58a4.107,4.107,0,0,1-.117-6.695l7.641-5.63a3.194,3.194,0,0,0-.837-5.586l-41.035-14.4a3.194,3.194,0,0,0-4.241,2.754l-7.566,92.475a4.117,4.117,0,0,1-3.887,3.766l-11.707.585c-.071,0-.142.005-.213.005a4.08,4.08,0,0,1-4.061-3.554Z" transform="translate(-230.395 -235.985)" fill="#2f2e41"/>
    <circle id="Ellipse_164" data-name="Ellipse 164" cx="21.49" cy="21.49" r="21.49" transform="translate(85.018 112.841)" fill="#ffb8b8"/>
    <path id="Path_1226" data-name="Path 1226" d="M316.217,458.326,300.4,400.608l.271-.183c.34-.229,34.436-22.744,74.356-4.6l.724.415-9.374,59.907a5.937,5.937,0,0,1-5.639,5.054l-38.572,1.483c-.078,0-.155,0-.232,0A5.907,5.907,0,0,1,316.217,458.326Z" transform="translate(-229.809 -226.28)" fill="#ccc"/>
    <path id="Path_1227" data-name="Path 1227" d="M297.683,439.894l-13.175-15.151a4.1,4.1,0,0,1-.093-5.278l13.773-17.014,10.573,2.884,5.605,19.619-10.22,14.6A4.082,4.082,0,0,1,301,441.3c-.074,0-.147.005-.22.005a4.078,4.078,0,0,1-3.093-1.412Z" transform="translate(-227.696 -227.992)" fill="#ccc"/>
    <path id="Path_1228" data-name="Path 1228" d="M381.065,435.971a4.082,4.082,0,0,1-3.149-1.746l-10.22-14.6,4.916-20.652,9.735-2.655,1.816.867,13.484,16.952a4.1,4.1,0,0,1-.093,5.278l-13.175,15.151a4.077,4.077,0,0,1-3.093,1.412Q381.175,435.976,381.065,435.971Z" transform="translate(-238.222 -227.225)" fill="#ccc"/>
    <path id="Path_1229" data-name="Path 1229" d="M850.394,409.9a.858.858,0,0,1-.21.6.875.875,0,0,1-1.233.1l-2.931-2.529L796.18,365.126,656.393,244.685a4.392,4.392,0,0,0-5.722.009L462.427,408.236l-1.7,1.47a.843.843,0,0,1-.219.14.875.875,0,0,1-.446.07.9.9,0,0,1-.569-.289.873.873,0,0,1,.079-1.234l.236-.21L649.524,243.372a6.166,6.166,0,0,1,8.014-.017L797.37,363.831l52.718,45.429a.889.889,0,0,1,.307.639Z" transform="translate(-249.672 -207.918)" fill="#3f3d56"/>
    <path id="Path_1230" data-name="Path 1230" d="M742.753,430.884l-2.3-6.335-7.927-21.875-17.08-47.1-19.092-52.648-34.431-94.962a7.451,7.451,0,0,0-9.529-4.454L453.327,275.689a7.448,7.448,0,0,0-4.453,9.529l48.815,134.625.831,2.3,51.239,23.222,14.4,6.527,2.336,1.059,60.978,27.641,2.362-.857,40-14.5,60.33-21.875,8.129-2.949a7.453,7.453,0,0,0,4.463-9.529Z" transform="translate(-248.315 -203.065)" fill="#e6e6e6"/>
    <path id="Path_1231" data-name="Path 1231" d="M669.685,334.245a10.956,10.956,0,0,0-14.017-6.554L576.9,356.26l-38.035,13.79a10.936,10.936,0,1,0,7.455,20.562l30.58-11.086,86.23-31.263A10.956,10.956,0,0,0,669.685,334.245Z" transform="translate(-258.72 -218.563)" fill="#fff"/>
    <path id="Path_1232" data-name="Path 1232" d="M685.535,377.965a10.956,10.956,0,0,0-14.017-6.554l-13.344,4.839L578.883,405l-24.167,8.759a10.94,10.94,0,0,0,7.455,20.571l16.712-6.064,100.1-36.294c.227-.079.446-.175.665-.271A10.936,10.936,0,0,0,685.535,377.965Z" transform="translate(-260.701 -224.029)" fill="#fff"/>
    <path id="Path_1233" data-name="Path 1233" d="M701.555,422.145a10.947,10.947,0,0,0-14.008-6.554l-37.423,13.571-28.971,10.509-40.267,14.595-10.149,3.684a10.961,10.961,0,0,0-7.114,11.742,10.818,10.818,0,0,0,.525,2.161l14.4,6.527,2.336-.849h.018l73.07-26.494L695,436.162a10.947,10.947,0,0,0,6.554-14.017Z" transform="translate(-262.705 -229.552)" fill="#fff"/>
    <path id="Path_1234" data-name="Path 1234" d="M618.05,291.265a10.956,10.956,0,0,0-14.017-6.554l-45.237,16.4a10.94,10.94,0,0,0,7.455,20.571l14.315-5.189,9.476-3.439,21.455-7.779A10.947,10.947,0,0,0,618.05,291.265Z" transform="translate(-261.211 -213.19)" fill="#fff"/>
    <path id="Path_1235" data-name="Path 1235" d="M802.55,317.2H590.8a7.439,7.439,0,0,0-6.265,3.439,7.362,7.362,0,0,0-1.173,4V467.219l60.978,27.641,8.592,3.894,13.571,6.151a6.143,6.143,0,0,0,5.058,0l13.571-6.151,42.472-19.25,39.584-17.946,42.8-19.39V324.632A7.442,7.442,0,0,0,802.55,317.2Z" transform="translate(-265.185 -217.333)" fill="url(#linear-gradient)"/>
    <path id="Path_1236" data-name="Path 1236" d="M764.552,431.2H640.3a10.934,10.934,0,0,0-10.92,10.509,3.5,3.5,0,0,0-.017.429A10.953,10.953,0,0,0,640.3,453.07H764.552a10.937,10.937,0,0,0,0-21.875Z" transform="translate(-270.936 -231.585)" fill="#fff"/>
    <path id="Path_1237" data-name="Path 1237" d="M771.63,480.3a10.859,10.859,0,0,0-7.079-2.607H640.3a10.937,10.937,0,0,0,0,21.875h93.055l39.584-17.946A11.008,11.008,0,0,0,771.63,480.3Z" transform="translate(-270.936 -237.398)" fill="#fff"/>
    <path id="Path_1238" data-name="Path 1238" d="M662.877,524.7l13.571,6.151a6.143,6.143,0,0,0,5.058,0l13.571-6.151Z" transform="translate(-275.125 -243.274)" fill="#fff"/>
    <path id="Path_1239" data-name="Path 1239" d="M742.2,376.879a10.943,10.943,0,0,0-10.272-7.184H683.8a10.945,10.945,0,0,0-9.957,6.422,10.814,10.814,0,0,0-.98,4.515A10.953,10.953,0,0,0,683.8,391.57h48.124A10.936,10.936,0,0,0,742.2,376.879Z" transform="translate(-276.374 -223.896)" fill="#fff"/>
    <path id="Path_1240" data-name="Path 1240" d="M707.225,493.832l-42.472,19.25L654.7,517.641a4.389,4.389,0,0,1-3.605,0l-10.053-4.559H636.8l13.571,6.151a6.143,6.143,0,0,0,5.058,0L669,513.082l42.472-19.25Zm0,0-42.472,19.25L654.7,517.641a4.389,4.389,0,0,1-3.605,0l-10.053-4.559H636.8l13.571,6.151a6.143,6.143,0,0,0,5.058,0L669,513.082l42.472-19.25Zm0,0-42.472,19.25L654.7,517.641a4.389,4.389,0,0,1-3.605,0l-10.053-4.559H636.8l13.571,6.151a6.143,6.143,0,0,0,5.058,0L669,513.082l42.472-19.25Zm142.543-60.19a6.684,6.684,0,0,0-1.059-.858,6.09,6.09,0,0,0-5.845-.429l-93.124,42.209-42.516,19.267-42.472,19.25L654.7,517.641a4.389,4.389,0,0,1-3.605,0l-10.053-4.559-10.474-4.751L567.246,479.64l-.018-.009L549.965,471.8,498.42,448.438,462.93,432.356a5.342,5.342,0,0,0-1.129-.376,5.87,5.87,0,0,0-2.616-.052,6.14,6.14,0,0,0-4.909,6V657.664a6.132,6.132,0,0,0,6.125,6.125H845.394a6.132,6.132,0,0,0,6.125-6.125V437.93A6.1,6.1,0,0,0,849.769,433.642Zm0,224.022a4.377,4.377,0,0,1-4.375,4.375H460.4a4.377,4.377,0,0,1-4.375-4.375V437.93a4.376,4.376,0,0,1,2-3.675,4.522,4.522,0,0,1,1.409-.6,3.931,3.931,0,0,1,.446-.07,3.412,3.412,0,0,1,.516-.035,4.349,4.349,0,0,1,1.8.394l37.047,16.791,51.239,23.222,14.4,6.527,2.336,1.059,60.978,27.641,8.592,3.894,13.571,6.151a6.143,6.143,0,0,0,5.058,0L669,513.082l42.472-19.25,39.584-17.946,92.538-41.938a4.376,4.376,0,0,1,4.174.306,1.616,1.616,0,0,1,.2.14,1.093,1.093,0,0,1,.193.157,4.339,4.339,0,0,1,1.61,3.377ZM707.225,493.832l-42.472,19.25L654.7,517.641a4.389,4.389,0,0,1-3.605,0l-10.053-4.559H636.8l13.571,6.151a6.143,6.143,0,0,0,5.058,0L669,513.082l42.472-19.25Zm0,0-42.472,19.25L654.7,517.641a4.389,4.389,0,0,1-3.605,0l-10.053-4.559H636.8l13.571,6.151a6.143,6.143,0,0,0,5.058,0L669,513.082l42.472-19.25ZM564.892,480.489l2.336,1.059V479.64Zm142.333,13.343-42.472,19.25L654.7,517.641a4.389,4.389,0,0,1-3.605,0l-10.053-4.559H636.8l13.571,6.151a6.143,6.143,0,0,0,5.058,0L669,513.082l42.472-19.25Z" transform="translate(-249.047 -231.661)" fill="#3f3d56"/>
    <path id="Path_1241" data-name="Path 1241" d="M381,696.685H282.124a.875.875,0,0,1,0-1.75H381a.875.875,0,0,1,0,1.75Z" transform="translate(-227.415 -264.557)" fill="#3f3d56"/>
    <path id="Path_1242" data-name="Path 1242" d="M328.882,367.642a9.364,9.364,0,0,1,.866-17.086c6.485-2.5,13.755,2.6,20.553,1.153,6.775-1.447,10.695-9.547,9.077-16.284s-7.5-11.811-13.994-14.234a30.169,30.169,0,0,0-26.023,2.385A27.782,27.782,0,0,0,306.285,346a25.757,25.757,0,0,0,12.463,22.566c1.728,1,3.739,1.8,5.682,1.347a15.838,15.838,0,0,0,4.452-2.276Z" transform="translate(-230.544 -217.595)" fill="#2f2e41"/>
    <path id="Path_1243" data-name="Path 1243" d="M311.1,320.877c-5.718-7.585-13.438-13.816-22.42-16.9s-19.247-2.841-27.683,1.524-14.728,13.036-15.384,22.512c-1.093,15.771,12.383,29.177,13.766,44.926a30.21,30.21,0,0,1-39.651,31.3,31.805,31.805,0,0,0,24.514,6.957,29.562,29.562,0,0,0,21.041-14.158c3.033-5.27,4.278-11.391,4.762-17.452a77.54,77.54,0,0,0-3.034-28.431c-1.512-5.023-3.562-10.193-2.6-15.35a13.97,13.97,0,0,1,10.881-10.9c4.334-.812,8.765.511,12.9,2.033s8.311,3.284,12.719,3.385,9.21-1.917,10.914-5.984Z" transform="translate(-219.723 -215.421)" fill="#2f2e41"/>
  </g>
</svg>
