<svg xmlns="http://www.w3.org/2000/svg" xmlns:xlink="http://www.w3.org/1999/xlink" width="643.3" height="446.237" viewBox="0 0 643.3 446.237">
  <defs>
    <linearGradient id="linear-gradient" x1="-2.109" y1="2.977" x2="-2.071" y2="2.977" gradientUnits="objectBoundingBox">
      <stop offset="0" stop-color="#2d6dd0"/>
      <stop offset="0.99" stop-color="#6c139c"/>
    </linearGradient>
    <linearGradient id="linear-gradient-2" x1="-1.851" y1="2.136" x2="-1.78" y2="2.136" xlink:href="#linear-gradient"/>
  </defs>
  <g id="undraw_hey_email_liaa" transform="translate(0.016 -0.001)">
    <path id="Path_1244" data-name="Path 1244" d="M152.964,589.454c-8.606-2.325-19.081-11.993-16.838-25.281,1.112-6.591,5.381-10.857,9.806-13.615,6.122-3.816,13.094-5.254,19.813-5.617,7.75-.419,15.491.638,23.183,1.755,7.594,1.1,15.188,2.091,22.815,2.694a294.109,294.109,0,0,0,89.049-6.612q10.8-2.492,21.471-5.848a147.508,147.508,0,0,0,19.722-7.371c8.458-4.06,22.212-11.962,21.091-26.6-.595-7.759-5.164-13.956-9.773-18.274-5.573-5.22-12.021-8.655-18.337-11.99-29.378-15.515-58.814-30.845-88.22-46.266-6.863-3.6-13.772-7.1-20.433-11.32-6.236-3.949-12.443-8.536-17.462-14.878-4.383-5.54-8.3-12.976-8.162-21.29a26.748,26.748,0,0,1,7.094-17.117c9.513-10.825,22.971-15.214,35.134-17.513,15.111-2.856,30.441-2.842,45.562-5.6,12.209-2.227,25.255-6.526,35.184-16.6a31.469,31.469,0,0,0,8.577-14.986,29.453,29.453,0,0,0-1.764-17.783,45.861,45.861,0,0,0-11.492-15.733,68.952,68.952,0,0,0-17.429-11.644c-13.411-6.391-27.513-9.718-41.25-14.622-6.737-2.405-13.542-5.043-19.8-9.174-5.3-3.5-11.073-8.218-14.022-15.233-6.084-14.475,8.43-23.1,16.654-26.369a107.072,107.072,0,0,1,17.212-4.927c1.24-.266.714-2.741-.52-2.477a102.977,102.977,0,0,0-18.074,5.278c-4.959,2.06-10.076,4.768-13.971,9.428a19.625,19.625,0,0,0-4.434,15.344c1.032,6.945,5.517,12.3,9.729,16.173,5.57,5.126,11.921,8.473,18.361,11.2,6.782,2.874,13.707,5.114,20.631,7.311,13.834,4.39,28.29,8.3,40.778,17.643,8.736,6.535,20.6,18.787,17.7,33.973-1.29,6.741-5.207,12.012-9.435,15.889a54.936,54.936,0,0,1-16.9,10.274c-27.675,11.138-58.133,3.173-85.1,18.3-9.167,5.143-20.3,14.508-20.392,29.242-.047,7.654,3.022,14.674,6.815,20.223,4.543,6.646,10.426,11.56,16.412,15.667a191.032,191.032,0,0,0,19.6,11.347q11.063,5.811,22.131,11.606l44.777,23.481,22.248,11.667c6.79,3.561,13.755,6.976,19.928,12.2,5.055,4.28,11.027,11.3,10.511,20.02-.41,6.924-5.009,11.921-9.212,15.261-5.443,4.326-11.557,7.124-17.64,9.449-7.017,2.682-14.148,4.906-21.294,6.906a287.5,287.5,0,0,1-44.675,8.744,293.773,293.773,0,0,1-45.385,1.692q-11.482-.462-22.927-1.837c-7.866-.947-15.7-2.407-23.583-3.054a62.309,62.309,0,0,0-21.359,1.432c-5.865,1.572-12.062,4.373-16.514,9.84a21.768,21.768,0,0,0-4.621,14.7,26.4,26.4,0,0,0,5.412,14.569,24.491,24.491,0,0,0,13.093,8.789c1.229.332,1.755-2.143.52-2.477Z" transform="translate(-133.919 -146.043)" fill="#e6e6e6"/>
    <rect id="Rectangle_1755" data-name="Rectangle 1755" width="223.617" height="1.546" transform="translate(16.646 444.583)" fill="#3f3d56"/>
    <circle id="Ellipse_165" data-name="Ellipse 165" cx="14.608" cy="14.608" r="14.608" transform="translate(208.429 342.523)" fill="#e6e6e6"/>
    <circle id="Ellipse_166" data-name="Ellipse 166" cx="14.608" cy="14.608" r="14.608" transform="translate(56.869 210.469)" fill="#e6e6e6"/>
    <path id="Path_1245" data-name="Path 1245" d="M259.34,683.9s-12.628,17.108-15.479,19.96-3.666,13.442-3.666,13.442l4.888,11.406-2.851,5.7-22-22,23.626-35.031Z" transform="translate(-160.673 -297.345)" fill="#ffb8b8"/>
    <path id="Path_1246" data-name="Path 1246" d="M315.727,528.363S270.02,667.636,265.132,670.895s-28.961-17.2-35.885-22.083,52.264-97.879,52.264-97.879c-9.369-30.55-4.889-37.641-4.889-37.641Z" transform="translate(-163.291 -246.494)" fill="#2f2e41"/>
    <path id="Path_1247" data-name="Path 1247" d="M238.526,744.048s0-4.888,1.573-7.327,4.537,8.549,4.537,8.549,17.923,4.888,9.776,10.183-32.18-11.406-39.1-15.886-4.481-9.776-.815-13.442L221.621,719Z" transform="translate(-157.782 -310.241)" fill="#2f2e41"/>
    <path id="Path_1248" data-name="Path 1248" d="M368.381,699.813s3.666,10.591,6.925,20.774,18.738,15.479,18.738,15.479l2.851,7.332-8.554,4.073-24.848-6.11s.815-8.147.815-11-13.035-26.884-13.035-26.884Z" transform="translate(-201.281 -304.296)" fill="#ffb8b8"/>
    <circle id="Ellipse_167" data-name="Ellipse 167" cx="17.108" cy="17.108" r="17.108" transform="translate(117.812 125.858)" fill="#ffb8b8"/>
    <path id="Path_1249" data-name="Path 1249" d="M310.369,346.839c0,2.444-12.22,21.182-12.22,21.182l17.9,7.99,8.168-23.469Z" transform="translate(-184.818 -194.912)" fill="#ffb8b8"/>
    <path id="Path_1250" data-name="Path 1250" d="M325.592,476.106a12.843,12.843,0,0,1,12.9,12.517l.539,21.292,2.851,4.888S359.43,645.636,359.43,649.709s-17.421,15.307-27.6,14.492c-5.038-.4-16.333-46.685-20.814-72.024-3.191-18.039-6.3-37.67-9.431-52.162a128.8,128.8,0,0,0-4.094-15.437C288.525,499.731,304,476.105,304,476.105h21.589Z" transform="translate(-183.748 -234.971)" fill="#2f2e41"/>
    <path id="Path_1251" data-name="Path 1251" d="M394.879,755.192s2.24.611-.2-.2-1.629-5.3-1.529-7.573,23.933,5.129,23.933,10.831-30.55,5.7-39.512,4.888-11,0-12.22-5.7,3.462-13.646,3.462-13.646Z" transform="translate(-205.58 -317.924)" fill="#2f2e41"/>
    <path id="Path_1252" data-name="Path 1252" d="M303.309,451.86c3.186,0,10.037-8.183,13.623-4.6,2.608,2.608,4.821,5.113,6.773,7.323,5.6,6.345,10.5,12.159,13.909,7.987.515-.631-1.216.826.227-.156a3.491,3.491,0,0,0,1.407-3.788c-4.94-15.477-8.017-30.3-4.088-42.689a10.047,10.047,0,0,0,.413-3.031q0-.225.021-.45c.208-2.286.156-10.471-9.223-19.85-8.572-8.572-10.216-13.839-10.433-16.216-.051-.554-13.868-14.889-13.868-14.889a3.474,3.474,0,0,0-4.16,1.168l-4.426,6.086a58.209,58.209,0,0,0-6.07,30.83c1.2,13.809,3.279,41.117,4.987,50.968a3.6,3.6,0,0,0,1.333,2.27,3.431,3.431,0,0,0,3.512.416A14.791,14.791,0,0,1,303.309,451.86Z" transform="translate(-181.435 -199.373)" fill="#6c63ff"/>
    <path id="Path_1253" data-name="Path 1253" d="M320.18,323.683l-3.071-3.246c.256,17.09,16.38,26.626,16.38,26.626l-36-3.589-.91-4.534-1.881,3.733-4.4-1.113-1.265-2.764-2.712,1.476L291.89,318.3c5.5-20.965,22.258-17.89,22.258-17.89,23.468-7.34,20.592,15.044,20.592,15.044Z" transform="translate(-181.154 -180.064)" fill="#2f2e41"/>
    <path id="Path_1254" data-name="Path 1254" d="M178.663,499.711l-6.529-57.745,8.028,53.491Z" transform="translate(-53.348 -136.962)" opacity="0.2"/>
    <circle id="Ellipse_168" data-name="Ellipse 168" cx="9.052" cy="9.052" r="9.052" transform="translate(104.642 111.509)" fill="#2f2e41"/>
    <path id="Path_1255" data-name="Path 1255" d="M300.238,303.889c.188,0,.376,0,.566-.008h.019a9.052,9.052,0,0,0-1.181-18.066c-.191.012-.376.041-.563.065a9.041,9.041,0,0,1,1.158,18.011Z" transform="translate(-185.107 -175.994)" fill="#2f2e41"/>
    <ellipse id="Ellipse_169" data-name="Ellipse 169" cx="2.829" cy="3.96" rx="2.829" ry="3.96" transform="translate(133.496 140.363)" fill="#ffb8b8"/>
    <path id="Path_1256" data-name="Path 1256" d="M366.862,510.59l11.629,8.23a8.213,8.213,0,0,1,.679,12.871h0a8.213,8.213,0,0,1-12.409-1.847l-6.73-10.881L336.35,483.174l9.813-7.22Z" transform="translate(-196.657 -234.924)" fill="#feb8b8"/>
    <path id="Path_1257" data-name="Path 1257" d="M336.482,453.372c.047,6.343-6.222,11.85-15.076,12.647L301.1,422.864a26.371,26.371,0,0,1,3.547-28.047h0l20.5,24.917C325.783,430.565,330.4,441.792,336.482,453.372Z" transform="translate(-184.953 -209.78)" opacity="0.2"/>
    <path id="Path_1258" data-name="Path 1258" d="M337.721,448.753c.047,6.343-3.461,10.47-12.315,11.267L305.1,416.864a26.371,26.371,0,0,1,3.547-28.047h0l20.5,24.917C329.782,424.565,331.644,437.173,337.721,448.753Z" transform="translate(-186.193 -207.92)" fill="#6c63ff"/>
    <path id="Path_1" data-name="Path 1" d="M956.822,356.506H934.8a8.889,8.889,0,0,0-7.84,5.543l-4.994,14.382-3.995,11.136-5.593,16.13a28.465,28.465,0,0,1-2.347,5.543,26.416,26.416,0,0,1-2.4-5.593l-5.344-16.03c-1.049-3.1-2.8-8.09-3.9-11.186L893.4,362.049a8.889,8.889,0,0,0-7.89-5.543H800.816a5.893,5.893,0,0,0-5.893,5.893h0v33.608a5.943,5.943,0,0,1-5.943,5.943H764.412a5.992,5.992,0,0,1-5.943-5.943V362.4a5.893,5.893,0,0,0-5.643-5.893H732.352a5.943,5.943,0,0,0-5.943,5.893v15.531c10.886,13.883,10.886,39.151,0,76.8v17.928a5.942,5.942,0,0,0,5.943,5.893h20.474a5.893,5.893,0,0,0,5.893-5.893h0V436.007a5.942,5.942,0,0,1,5.693-5.943h24.569a5.893,5.893,0,0,1,5.942,5.842v36.7a5.893,5.893,0,0,0,5.893,5.893H869.88a5.893,5.893,0,0,0,5.893-5.893V457.43a5.893,5.893,0,0,0-5.893-5.893H833.226a5.943,5.943,0,0,1-5.893-5.943v-9.987a5.943,5.943,0,0,1,5.893-5.943h22.122a5.893,5.893,0,0,0,5.893-5.893h0V408.591a5.893,5.893,0,0,0-5.893-5.893H833.226a5.943,5.943,0,0,1-5.893-5.943v-7.291a5.893,5.893,0,0,1,5.842-5.942h30.013a9.988,9.988,0,0,1,8.34,5.393l19.426,42.2a31.412,31.412,0,0,1,2.5,11.286v30.262a5.893,5.893,0,0,0,5.893,5.893h20.474a5.893,5.893,0,0,0,5.942-5.842V442.4a32.459,32.459,0,0,1,2.447-11.286l32.059-69.263a3.5,3.5,0,0,0-3.446-5.343Z" transform="translate(-317.534 -197.896)" fill="url(#linear-gradient)"/>
    <path id="Path_2" data-name="Path 2" d="M620.055,363.222a44.545,44.545,0,0,0-20.574,12.235c-6.542-22.971-20.624-57.728-34.357-63.421a9.988,9.988,0,0,0-9.189.4c-8.589,4.994-14.182,21.074-9.288,51.536-18.876-34.557-25.468-34.507-28.514-34.557a7.441,7.441,0,0,0-6.792,4.644c-2.047,4.544-6.142,18.727,3.845,49.238-12.035-16.479-15.73-18.577-19.975-18.377a7.541,7.541,0,0,0-6.392,4.345c-3.6,6.792-3.2,23.87,7.99,49.338a22.921,22.921,0,0,0-13.783-5.693,8.24,8.24,0,0,0-6.642,4.245c-4.544,8.34,4.994,31.76,16.779,47.641,9.538,13.034,28.664,33.059,56.43,33.059a62.624,62.624,0,0,0,11.586-1.1,5.089,5.089,0,1,0-1.768-10.023q-.09.016-.18.035c-23.071,4.494-40.449-8.19-50.986-19.576-15.73-17.029-22.622-37.5-23.021-43.745,3.3,1.348,12.784,6.941,31.261,30.612a5.065,5.065,0,1,0,8.24-5.893h0c-25.968-39.4-28.514-63.271-27.665-71.311,7.64,7.79,26.717,36.355,41.1,57.928a5.079,5.079,0,0,0,8.689-5.243c-29.962-54.931-28.914-79.9-27.166-88.29,4.494,4.544,16.43,20.375,41.548,74.906a5.089,5.089,0,0,0,9.388-3.9c-24.37-66.167-13.783-88.59-9.738-91.136,5.243,0,19.975,25.268,29.164,58.377.549,2.047,1.1,4.045,1.6,5.993a31.859,31.859,0,0,0-3,7.191c-4.994,18.327-9.988,59.925-.35,71.361a9.288,9.288,0,0,0,8.09,3.446,13.133,13.133,0,0,0,9.588-5.893c8.939-13.034,3.7-45.743-3.446-74.357A37.6,37.6,0,0,1,622.5,372.91a9.988,9.988,0,0,1,9.988,2.4c4.095,4.594,11.236,21.773-10.437,82.347a5.086,5.086,0,1,0,9.588,3.4c17.278-48.29,19.975-79.4,8.439-92.485A19.675,19.675,0,0,0,620.055,363.222Zm-22.472,92.734a3.2,3.2,0,0,1-1.7,1.448c-3.745-4.444-3.745-30.762.35-52.335C603.976,442.373,599.481,453.31,597.584,455.956Z" transform="translate(-239.695 -183.838)" fill="url(#linear-gradient-2)"/>
    <path id="Path_1259" data-name="Path 1259" d="M350.436,127.3l-40.562,17.633a7.38,7.38,0,0,0-3.822,9.7l12.6,28.973a7.38,7.38,0,0,0,9.7,3.822l40.562-17.633a7.38,7.38,0,0,0,3.821-9.7l-12.6-28.973a7.38,7.38,0,0,0-9.7-3.821Zm1.679,3.863a3.145,3.145,0,0,1,.758-.218L339.16,156.818l-28.166-7.708a3.16,3.16,0,0,1,.559-.314Zm15.114,34.768-40.562,17.634a3.163,3.163,0,0,1-4.157-1.638l-12.482-28.713,29.647,8.113a2.106,2.106,0,0,0,2.417-1.045L356.446,133.2l12.422,28.574a3.163,3.163,0,0,1-1.638,4.157Z" transform="translate(-187.078 -126.689)" fill="#e6e6e6"/>
  </g>
</svg>
