<svg xmlns="http://www.w3.org/2000/svg" width="356.953" height="293.569" viewBox="0 0 356.953 293.569">
  <g id="undraw_real_time_sync_re_nky7_1_" data-name="undraw_real_time_sync_re_nky7 (1)" transform="translate(0 -0.004)" opacity="0.28">
    <path id="Path_1061" data-name="Path 1061" d="M803.5,183.4c2.281-9.3.112-20.151-7.256-26.27a44.129,44.129,0,0,1-10.793,28.31c-2.643,3.024-5.9,6.113-6.027,10.128a9.865,9.865,0,0,0,2.82,6.748,29.3,29.3,0,0,0,5.9,4.6l.308.543C795.191,200.655,801.221,192.7,803.5,183.4Z" transform="translate(-513.002 -153.892)" fill="#f0f0f0"/>
    <path id="Path_1062" data-name="Path 1062" d="M802.54,157.081a37.718,37.718,0,0,1,1.2,23.175,16.241,16.241,0,0,1-1.984,4.686,9.316,9.316,0,0,1-3.7,3.212,19.283,19.283,0,0,0-4.072,2.281,5.7,5.7,0,0,0-1.919,4.252,14.818,14.818,0,0,0,1.324,5.747c.795,2.043,1.652,4.151,1.469,6.388-.022.271.4.29.422.019.32-3.891-2.323-7.177-2.742-10.951a5.777,5.777,0,0,1,1.44-4.875,14.958,14.958,0,0,1,4.09-2.394,9.941,9.941,0,0,0,3.739-3.006,15.018,15.018,0,0,0,2.157-4.593,36.594,36.594,0,0,0,1.463-11.343,38.388,38.388,0,0,0-2.51-12.795c-.1-.253-.47-.055-.374.2Z" transform="translate(-519.445 -153.707)" fill="#fff"/>
    <path id="Path_1063" data-name="Path 1063" d="M817.333,195.287a5.659,5.659,0,0,0,6.136-4c.076-.261-.325-.392-.4-.131a5.24,5.24,0,0,1-5.716,3.714C817.083,194.83,817.065,195.252,817.333,195.287Z" transform="translate(-532.233 -171.166)" fill="#fff"/>
    <path id="Path_1064" data-name="Path 1064" d="M802.937,212.137a10.907,10.907,0,0,1-2.314-7.6c.021-.271-.4-.29-.422-.019a11.345,11.345,0,0,0,2.424,7.908c.169.213.48-.073.312-.285Z" transform="translate(-523.58 -177.952)" fill="#fff"/>
    <path id="Path_1065" data-name="Path 1065" d="M814.816,173.3a3.2,3.2,0,0,1-2.782-1.225c-.166-.215-.477.071-.312.285a3.59,3.59,0,0,0,3.074,1.362.218.218,0,0,0,.22-.2A.212.212,0,0,0,814.816,173.3Z" transform="translate(-529.447 -161.475)" fill="#fff"/>
    <path id="Path_1066" data-name="Path 1066" d="M748.735,169.416c.1.137.2.275.3.415a42.183,42.183,0,0,1,3.54,5.856c.081.157.161.317.238.476a44.471,44.471,0,0,1,4.316,15.794,43.188,43.188,0,0,1,.031,6.562c-.216,3.017-.69,6.272.081,9.1a7.414,7.414,0,0,0,.286.871l14.591,5.562c.039,0,.078,0,.118-.009l.572.249c.016-.112.03-.229.046-.341.009-.065.016-.131.025-.2.005-.044.01-.088.018-.127,0-.015,0-.029,0-.04.007-.039.01-.076.016-.112q.121-.978.229-1.96s0,0,0-.008a63.5,63.5,0,0,0,0-15.013c-.02-.149-.038-.3-.064-.452a41.209,41.209,0,0,0-1.459-6.565,36.445,36.445,0,0,0-1.279-3.458,30.3,30.3,0,0,0-5.061-8.007c-4.18-4.758-9.835-8.126-16.072-8.57C749.052,169.434,748.9,169.424,748.735,169.416Z" transform="translate(-497.356 -160.156)" fill="#f0f0f0"/>
    <path id="Path_1067" data-name="Path 1067" d="M748.548,169.389A37.719,37.719,0,0,1,763.46,187.17a16.243,16.243,0,0,1,1.237,4.936,9.316,9.316,0,0,1-1.023,4.795,19.28,19.28,0,0,0-1.878,4.273,5.7,5.7,0,0,0,1.028,4.55,14.819,14.819,0,0,0,4.517,3.792c1.864,1.152,3.819,2.32,5.018,4.216.145.23.493-.009.348-.239-2.087-3.3-6.176-4.332-8.783-7.093a5.777,5.777,0,0,1-1.785-4.76,14.959,14.959,0,0,1,1.824-4.374,9.942,9.942,0,0,0,1.175-4.651,15.014,15.014,0,0,0-1.043-4.966,36.592,36.592,0,0,0-5.661-9.938,38.388,38.388,0,0,0-9.707-8.7c-.23-.144-.408.239-.18.382Z" transform="translate(-497.207 -159.931)" fill="#fff"/>
    <path id="Path_1068" data-name="Path 1068" d="M777.06,193.845a5.659,5.659,0,0,0,2.488-6.892c-.1-.254-.5-.117-.4.138a5.24,5.24,0,0,1-2.328,6.407c-.236.134,0,.481.239.348Z" transform="translate(-511.626 -169.028)" fill="#fff"/>
    <path id="Path_1069" data-name="Path 1069" d="M773.332,219.64a10.907,10.907,0,0,1-6.426-4.679c-.146-.229-.494.01-.348.239a11.345,11.345,0,0,0,6.7,4.855C773.518,220.123,773.594,219.707,773.332,219.64Z" transform="translate(-506.425 -183.33)" fill="#fff"/>
    <path id="Path_1070" data-name="Path 1070" d="M759.423,180.762a3.2,3.2,0,0,1-2.959.7c-.263-.072-.338.344-.078.415a3.59,3.59,0,0,0,3.275-.763.218.218,0,0,0,.055-.293A.212.212,0,0,0,759.423,180.762Z" transform="translate(-501.175 -165.922)" fill="#fff"/>
    <path id="Path_1071" data-name="Path 1071" d="M617.091,413.549a88.717,88.717,0,1,1,15.439-176.1.49.49,0,0,1-.18.964,87.745,87.745,0,1,0,72.478,86.415,87.515,87.515,0,0,0-22.888-59.1.49.49,0,1,1,.724-.661,88.718,88.718,0,0,1-65.574,148.475Z" transform="translate(-385.005 -194.163)" fill="#e4e4e4"/>
    <circle id="Ellipse_140" data-name="Ellipse 140" cx="17.553" cy="17.553" r="17.553" transform="translate(253.651 37.274)" fill="#6c63ff"/>
    <path id="Path_1072" data-name="Path 1072" d="M777.284,262.013a1.952,1.952,0,0,1-1.562-.781l-4.789-6.385a1.952,1.952,0,0,1,3.124-2.343l3.133,4.177,8.046-12.07a1.953,1.953,0,0,1,3.249,2.166l-9.577,14.366a1.953,1.953,0,0,1-1.57.869Z" transform="translate(-508.475 -198.051)" fill="#fff"/>
    <path id="Path_1073" data-name="Path 1073" d="M597.729,267.43l-27.068-75.3.686-.247-4.978-13.85-.686.247-8.311-23.12a6.987,6.987,0,0,0-8.939-4.212L499.5,168.536a6.987,6.987,0,0,0-4.212,8.939l5.795,16.121-1.085.418,3.7,9.606.868-.334.768,2.137-.924.356,3.7,9.606.708-.273,26.829,74.637a6.975,6.975,0,0,0,8.939,4.212l48.933-17.589a7,7,0,0,0,4.212-8.94Z" transform="translate(-367.925 -150.529)" fill="#3f3d56"/>
    <path id="Path_1074" data-name="Path 1074" d="M545.138,294.234a3.355,3.355,0,0,1-3.149-2.218L501.206,178.559a3.348,3.348,0,0,1,2.018-4.283l10.411-3.742-.016.364a3.859,3.859,0,0,0,5.161,3.795l23.106-8.305a3.909,3.909,0,0,0,2.2-2.763,3.827,3.827,0,0,0-.912-3.35l-.244-.271,10.754-3.866a3.353,3.353,0,0,1,4.283,2.019L596.879,266.4a8.9,8.9,0,0,1-5.356,11.366l-45.251,16.266A3.354,3.354,0,0,1,545.138,294.234Z" transform="translate(-371.052 -153.286)" fill="#fff"/>
    <circle id="Ellipse_141" data-name="Ellipse 141" cx="13.234" cy="13.234" r="13.234" transform="translate(156.864 34.007)" fill="#6c63ff"/>
    <path id="Path_1075" data-name="Path 1075" d="M600.529,283.832,554.7,300.306a1.158,1.158,0,1,1-.783-2.179l45.83-16.474a1.158,1.158,0,0,1,.783,2.179Z" transform="translate(-397.637 -217.346)" fill="#e6e6e6"/>
    <path id="Path_1076" data-name="Path 1076" d="M604.753,305.142l-15.075,5.419a1.158,1.158,0,1,1-.783-2.179l15.075-5.419a1.158,1.158,0,1,1,.783,2.179Z" transform="translate(-415.471 -228.211)" fill="#e6e6e6"/>
    <path id="Path_1077" data-name="Path 1077" d="M612.068,325.493l-15.075,5.419a1.158,1.158,0,0,1-.783-2.179l15.075-5.419a1.158,1.158,0,0,1,.783,2.179Z" transform="translate(-419.201 -238.587)" fill="#e6e6e6"/>
    <path id="Path_1078" data-name="Path 1078" d="M615.815,335.917l-15.075,5.419a1.158,1.158,0,1,1-.783-2.179l15.075-5.419a1.158,1.158,0,0,1,.783,2.179Z" transform="translate(-421.111 -243.901)" fill="#e6e6e6"/>
    <path id="Path_1079" data-name="Path 1079" d="M608.02,308.975l-31.984,11.5a1.158,1.158,0,0,1-.783-2.179l31.984-11.5a1.158,1.158,0,1,1,.783,2.179Z" transform="translate(-408.516 -230.165)" fill="#e6e6e6"/>
    <path id="Path_1080" data-name="Path 1080" d="M621.324,359.583l-5.474,1.968a1.968,1.968,0,0,1-1.332-3.7l5.474-1.967a1.968,1.968,0,1,1,1.332,3.7Z" transform="translate(-428.261 -255.165)" fill="#6c63ff"/>
    <circle id="Ellipse_142" data-name="Ellipse 142" cx="0.761" cy="0.761" r="0.761" transform="translate(149.167 16.092)" fill="#fff"/>
    <path id="Path_1081" data-name="Path 1081" d="M347.885,257.729c8.531-10.042,22.374-16.371,35.136-13.09a60.711,60.711,0,0,0-22.858,34.856c-1.24,5.385-2.059,11.5-6.432,14.884a13.571,13.571,0,0,1-9.8,2.3,40.305,40.305,0,0,1-9.879-2.865l-.853.095C335.349,280.9,339.354,267.771,347.885,257.729Z" transform="translate(-285.497 -198.064)" fill="#f0f0f0"/>
    <path id="Path_1082" data-name="Path 1082" d="M383.057,245.5a51.892,51.892,0,0,0-26.8,17.346,22.347,22.347,0,0,0-3.625,5.99,12.816,12.816,0,0,0-.595,6.719,26.532,26.532,0,0,1,.74,6.378,7.848,7.848,0,0,1-3.193,5.567,20.389,20.389,0,0,1-7.474,3.157c-2.918.761-5.96,1.5-8.305,3.513-.284.243-.645-.212-.361-.455,4.08-3.493,9.874-3.2,14.419-5.772a7.948,7.948,0,0,0,4.274-5.536c.334-2.174-.27-4.358-.629-6.49a13.676,13.676,0,0,1,.337-6.592,20.659,20.659,0,0,1,3.381-6.107,50.345,50.345,0,0,1,11.465-10.777,52.812,52.812,0,0,1,16.287-7.518c.36-.1.44.479.082.575Z" transform="translate(-285.565 -198.647)" fill="#fff"/>
    <path id="Path_1083" data-name="Path 1083" d="M382.1,265.082a7.785,7.785,0,0,1-.483-10.07c.229-.3.7.047.469.342a7.209,7.209,0,0,0,.468,9.366C382.816,264.992,382.359,265.352,382.1,265.082Z" transform="translate(-309.359 -203.74)" fill="#fff"/>
    <path id="Path_1084" data-name="Path 1084" d="M370.518,301.524a15.006,15.006,0,0,0,10.343-3.552c.285-.242.646.213.361.455a15.608,15.608,0,0,1-10.77,3.674c-.374-.017-.306-.594.066-.577Z" transform="translate(-304.362 -225.666)" fill="#fff"/>
    <path id="Path_1085" data-name="Path 1085" d="M411.267,254.728a4.407,4.407,0,0,0,3.608,2.113c.374.012.306.589-.066.577a4.938,4.938,0,0,1-4-2.329.3.3,0,0,1,.047-.408A.292.292,0,0,1,411.267,254.728Z" transform="translate(-325.036 -203.597)" fill="#fff"/>
    <path id="Path_1086" data-name="Path 1086" d="M401.329,315.752c-.234,0-.468,0-.7,0a58.032,58.032,0,0,0-9.383.775c-.24.036-.484.076-.722.118a61.184,61.184,0,0,0-21.087,7.922,59.416,59.416,0,0,0-7.34,5.256c-3.19,2.673-6.435,5.826-10.211,7.248a10.193,10.193,0,0,1-1.2.384l-17.964-11.782c-.027-.047-.058-.091-.085-.138l-.739-.438c.112-.108.231-.218.343-.326.065-.063.134-.123.2-.186.044-.041.089-.082.127-.122.015-.014.03-.027.042-.037.038-.04.077-.073.112-.108q.992-.923,2-1.835s0,0,.009-.006a87.366,87.366,0,0,1,16.734-12.108c.182-.1.366-.2.555-.292a56.7,56.7,0,0,1,8.5-3.666,50.124,50.124,0,0,1,4.885-1.362,41.68,41.68,0,0,1,13.007-.813c8.674.824,16.988,4.413,22.511,11.007C401.053,315.414,401.19,315.58,401.329,315.752Z" transform="translate(-284.829 -228.8)" fill="#f0f0f0"/>
    <path id="Path_1087" data-name="Path 1087" d="M401.481,323.788a51.892,51.892,0,0,0-31.845-2.288,22.347,22.347,0,0,0-6.5,2.6,12.817,12.817,0,0,0-4.52,5.007,26.527,26.527,0,0,1-3.249,5.538,7.848,7.848,0,0,1-5.9,2.523,20.39,20.39,0,0,1-7.869-1.979c-2.788-1.149-5.665-2.387-8.746-2.2-.373.023-.387-.557-.015-.581,5.361-.333,9.808,3.392,14.988,4.072a7.948,7.948,0,0,0,6.746-1.847c1.576-1.535,2.408-3.643,3.405-5.56a13.676,13.676,0,0,1,4.237-5.06,20.658,20.658,0,0,1,6.377-2.841,50.345,50.345,0,0,1,15.643-1.7,52.811,52.811,0,0,1,17.53,3.8c.346.14.063.648-.28.509Z" transform="translate(-285.171 -236.634)" fill="#fff"/>
    <path id="Path_1088" data-name="Path 1088" d="M415.011,312.869a7.786,7.786,0,0,1,5.677-8.331c.361-.1.53.458.169.556a7.209,7.209,0,0,0-5.265,7.76c.041.371-.539.384-.581.015Z" transform="translate(-327.185 -229.043)" fill="#fff"/>
    <path id="Path_1089" data-name="Path 1089" d="M385.973,337.027a15.006,15.006,0,0,0,10.4,3.392c.373-.022.388.559.015.581a15.608,15.608,0,0,1-10.811-3.551c-.289-.239.113-.658.4-.421Z" transform="translate(-312.147 -245.577)" fill="#fff"/>
    <path id="Path_1090" data-name="Path 1090" d="M448.942,321.185a4.407,4.407,0,0,0,1.609,3.86c.291.235-.111.654-.4.421a4.938,4.938,0,0,1-1.789-4.266.3.3,0,0,1,.283-.3A.292.292,0,0,1,448.942,321.185Z" transform="translate(-344.201 -237.391)" fill="#fff"/>
    <path id="Path_1091" data-name="Path 1091" d="M860.5,641c9.3,2.281,20.151.112,26.27-7.256a44.129,44.129,0,0,1-28.31-10.793c-3.024-2.643-6.113-5.9-10.128-6.027a9.865,9.865,0,0,0-6.748,2.82,29.294,29.294,0,0,0-4.6,5.9l-.543.308C843.245,632.685,851.2,638.714,860.5,641Z" transform="translate(-542.074 -388.314)" fill="#f0f0f0"/>
    <path id="Path_1092" data-name="Path 1092" d="M886.88,640.033a37.718,37.718,0,0,1-23.175,1.2,16.245,16.245,0,0,1-4.687-1.984,9.317,9.317,0,0,1-3.212-3.7,19.285,19.285,0,0,0-2.281-4.072,5.7,5.7,0,0,0-4.252-1.919,14.82,14.82,0,0,0-5.747,1.324c-2.042.795-4.151,1.652-6.388,1.469-.271-.022-.29.4-.019.422,3.891.32,7.177-2.323,10.951-2.742a5.776,5.776,0,0,1,4.875,1.44,14.959,14.959,0,0,1,2.394,4.09,9.94,9.94,0,0,0,3.006,3.739,15.015,15.015,0,0,0,4.593,2.157,36.594,36.594,0,0,0,11.343,1.464,38.386,38.386,0,0,0,12.795-2.51c.253-.1.055-.47-.2-.374Z" transform="translate(-542.32 -394.756)" fill="#fff"/>
    <path id="Path_1093" data-name="Path 1093" d="M896.465,654.826a5.659,5.659,0,0,0,4,6.136c.261.076.392-.325.131-.4a5.24,5.24,0,0,1-3.714-5.716C896.922,654.576,896.5,654.558,896.465,654.826Z" transform="translate(-572.653 -407.545)" fill="#fff"/>
    <path id="Path_1094" data-name="Path 1094" d="M875.606,640.43a10.907,10.907,0,0,1,7.6-2.314c.271.021.29-.4.019-.422a11.344,11.344,0,0,0-7.908,2.424C875.108,640.287,875.394,640.6,875.606,640.43Z" transform="translate(-561.858 -398.891)" fill="#fff"/>
    <path id="Path_1095" data-name="Path 1095" d="M921.143,652.31a3.2,3.2,0,0,1,1.225-2.782c.215-.167-.071-.477-.285-.312a3.59,3.59,0,0,0-1.362,3.074.218.218,0,0,0,.2.22.212.212,0,0,0,.22-.2Z" transform="translate(-585.039 -404.759)" fill="#fff"/>
    <path id="Path_1096" data-name="Path 1096" d="M880.151,586.228c-.137.1-.275.2-.415.3a42.183,42.183,0,0,1-5.856,3.54c-.157.081-.317.161-.476.238a44.474,44.474,0,0,1-15.794,4.316,43.2,43.2,0,0,1-6.562.031c-3.017-.216-6.272-.69-9.1.081a7.406,7.406,0,0,0-.871.286l-5.562,14.591c0,.04,0,.078.009.118l-.249.572.341.046c.065.009.131.016.2.025.044.005.088.01.127.018l.04,0c.039.007.076.01.112.016q.978.121,1.96.229s0,0,.008,0a63.5,63.5,0,0,0,15.013,0c.148-.02.3-.038.452-.064a41.219,41.219,0,0,0,6.565-1.459,36.4,36.4,0,0,0,3.457-1.279,30.294,30.294,0,0,0,8.007-5.062c4.758-4.18,8.126-9.835,8.57-16.072C880.133,586.546,880.143,586.389,880.151,586.228Z" transform="translate(-541.478 -372.668)" fill="#f0f0f0"/>
    <path id="Path_1097" data-name="Path 1097" d="M880.208,586.041a37.718,37.718,0,0,1-17.781,14.912,16.242,16.242,0,0,1-4.936,1.237,9.316,9.316,0,0,1-4.795-1.023,19.276,19.276,0,0,0-4.273-1.878,5.7,5.7,0,0,0-4.55,1.028,14.819,14.819,0,0,0-3.792,4.517c-1.152,1.864-2.32,3.819-4.216,5.018-.23.145.009.493.239.348,3.3-2.087,4.332-6.176,7.093-8.783a5.777,5.777,0,0,1,4.76-1.785,14.96,14.96,0,0,1,4.374,1.824,9.943,9.943,0,0,0,4.651,1.175,15.014,15.014,0,0,0,4.966-1.043,36.6,36.6,0,0,0,9.938-5.661,38.388,38.388,0,0,0,8.7-9.707c.144-.23-.239-.408-.382-.18Z" transform="translate(-541.732 -372.519)" fill="#fff"/>
    <path id="Path_1098" data-name="Path 1098" d="M895.063,614.553a5.659,5.659,0,0,0,6.892,2.488c.254-.1.117-.5-.138-.4a5.24,5.24,0,0,1-6.407-2.328C895.277,614.078,894.93,614.318,895.063,614.553Z" transform="translate(-571.946 -386.938)" fill="#fff"/>
    <path id="Path_1099" data-name="Path 1099" d="M871.207,610.826a10.907,10.907,0,0,1,4.679-6.426c.229-.146-.01-.494-.239-.348a11.345,11.345,0,0,0-4.855,6.7c-.068.263.347.339.415.077Z" transform="translate(-559.583 -381.738)" fill="#fff"/>
    <path id="Path_1100" data-name="Path 1100" d="M914.169,596.917a3.2,3.2,0,0,1-.7-2.959c.072-.262-.344-.338-.415-.077a3.589,3.589,0,0,0,.763,3.275.218.218,0,0,0,.293.055A.212.212,0,0,0,914.169,596.917Z" transform="translate(-581.075 -376.487)" fill="#fff"/>
    <path id="Path_1101" data-name="Path 1101" d="M777.633,416.387l-14.185,23.87.539.284-4.8,9.107-1-.529-3.157,5.308.784.451-5.147,8.911-.892-.515L703.488,541.17a8.957,8.957,0,0,1-12.264,3.122l-86.046-51.128a8.956,8.956,0,0,1-3.122-12.264L676.2,356.118A8.957,8.957,0,0,1,688.465,353l86.046,51.128A8.96,8.96,0,0,1,777.633,416.387Z" transform="translate(-421.933 -253.115)" fill="#3f3d56"/>
    <path id="Path_1102" data-name="Path 1102" d="M700.315,545.387,613.966,494.08A2.761,2.761,0,0,1,613,490.3l74.637-125.612a2.761,2.761,0,0,1,3.78-.962l86.349,51.308a2.761,2.761,0,0,1,.962,3.78L704.1,544.425a2.762,2.762,0,0,1-3.781.962Z" transform="translate(-427.957 -259.028)" fill="#fff"/>
    <circle id="Ellipse_143" data-name="Ellipse 143" cx="0.761" cy="0.761" r="0.761" transform="translate(307.067 126.843)" fill="#fff"/>
    <path id="Path_1103" data-name="Path 1103" d="M778.3,547.588l-72.08-42.829a1.993,1.993,0,0,1,2.036-3.427l72.08,42.829a1.993,1.993,0,1,1-2.036,3.427Z" transform="translate(-475.182 -329.241)" fill="#e6e6e6"/>
    <path id="Path_1104" data-name="Path 1104" d="M769.9,563.945l-23.709-14.088a1.993,1.993,0,0,1,2.036-3.427l23.709,14.088a1.993,1.993,0,1,1-2.036,3.427Z" transform="translate(-495.56 -352.234)" fill="#e6e6e6"/>
    <path id="Path_1105" data-name="Path 1105" d="M750.878,595.952l-23.709-14.088a1.993,1.993,0,1,1,2.036-3.427l23.709,14.088a1.993,1.993,0,1,1-2.036,3.427Z" transform="translate(-485.863 -368.553)" fill="#e6e6e6"/>
    <path id="Path_1106" data-name="Path 1106" d="M741.137,612.346l-23.709-14.088a1.993,1.993,0,0,1,2.036-3.427l23.709,14.088a1.993,1.993,0,1,1-2.036,3.427Z" transform="translate(-480.897 -376.912)" fill="#e6e6e6"/>
    <path id="Path_1107" data-name="Path 1107" d="M759.986,579.406l-50.3-29.889a1.993,1.993,0,0,1,2.036-3.427l50.3,29.889a1.993,1.993,0,1,1-2.036,3.427Z" transform="translate(-476.949 -352.061)" fill="#e6e6e6"/>
    <path id="Path_1108" data-name="Path 1108" d="M783.084,680.407l-8.609-5.115a3.389,3.389,0,1,1,3.462-5.827l8.609,5.115a3.389,3.389,0,0,1-3.462,5.827Z" transform="translate(-509.635 -414.864)" fill="#6c63ff"/>
    <circle id="Ellipse_144" data-name="Ellipse 144" cx="17.645" cy="17.645" r="17.645" transform="translate(271.866 147.201)" fill="#6c63ff"/>
    <path id="Path_1109" data-name="Path 1109" d="M236.3,485.268H475.09V347.022a3.911,3.911,0,0,0-3.907-3.907H240.2a3.911,3.911,0,0,0-3.907,3.907Z" transform="translate(-236.09 -248.717)" fill="#cacaca"/>
    <rect id="Rectangle_1739" data-name="Rectangle 1739" width="224.036" height="127.189" transform="translate(7.586 99.802)" fill="#fff"/>
    <path id="Path_1110" data-name="Path 1110" d="M235.874,625.5v17.06a5.385,5.385,0,0,0,5.385,5.385H329.4v33.668h-1.171a.7.7,0,0,0-.7.7v2.342a.7.7,0,0,0,.7.7h54.714a.7.7,0,0,0,.7-.7v-2.342a.7.7,0,0,0-.7-.7h-1.171V647.948H469.9a5.385,5.385,0,0,0,5.385-5.386V625.5Z" transform="translate(-235.874 -392.692)" fill="#3f3d56"/>
    <path id="Path_1111" data-name="Path 1111" d="M529.3,435.677H423.21a2.522,2.522,0,0,1,0-5.044H529.3a2.522,2.522,0,0,1,0,5.044Z" transform="translate(-330.101 -293.338)" fill="#e6e6e6"/>
    <path id="Path_1112" data-name="Path 1112" d="M530.735,458.9h-34.9a2.522,2.522,0,1,1,0-5.044h34.9a2.522,2.522,0,1,1,0,5.044Z" transform="translate(-367.131 -305.179)" fill="#e6e6e6"/>
    <path id="Path_1113" data-name="Path 1113" d="M530.735,506.013h-34.9a2.522,2.522,0,1,1,0-5.044h34.9a2.522,2.522,0,1,1,0,5.044Z" transform="translate(-367.131 -329.199)" fill="#e6e6e6"/>
    <path id="Path_1114" data-name="Path 1114" d="M530.736,530.144h-34.9a2.522,2.522,0,0,1,0-5.044h34.9a2.522,2.522,0,0,1,0,5.044Z" transform="translate(-367.131 -341.502)" fill="#e6e6e6"/>
    <path id="Path_1115" data-name="Path 1115" d="M529.949,482.128H455.908a2.522,2.522,0,1,1,0-5.044h74.041a2.522,2.522,0,0,1,0,5.044Z" transform="translate(-346.772 -317.021)" fill="#e6e6e6"/>
    <path id="Path_1116" data-name="Path 1116" d="M621.043,575.874H608.371a4.288,4.288,0,0,1,0-8.577h12.671a4.288,4.288,0,0,1,0,8.577Z" transform="translate(-423.605 -363.016)" fill="#6c63ff"/>
    <circle id="Ellipse_145" data-name="Ellipse 145" cx="22.057" cy="22.057" r="22.057" transform="translate(37.69 137.62)" fill="#6c63ff"/>
    <path id="Path_1117" data-name="Path 1117" d="M553.729,748.257H236.458a.584.584,0,1,1,0-1.167H553.729a.584.584,0,1,1,0,1.167Z" transform="translate(-235.874 -454.683)" fill="#cacaca"/>
    <circle id="Ellipse_146" data-name="Ellipse 146" cx="0.831" cy="0.831" r="0.831" transform="translate(118.668 95.438)" fill="#fff"/>
  </g>
</svg>
