<svg xmlns="http://www.w3.org/2000/svg" width="376.71" height="281.531" viewBox="0 0 376.71 281.531">
  <g id="Group_52" data-name="Group 52" transform="translate(-5866.846 5696.622)" opacity="0.28">
    <path id="Path_1131" data-name="Path 1131" d="M270.257,246.475c-9.806-21.691-9.445-49.186,5.774-67.49a109.678,109.678,0,0,0,39.256,64.26c7.835,6.187,17.195,12.252,19.335,22,1.332,6.068-.556,12.485-3.82,17.771s-7.814,9.633-12.312,13.918l-.5,1.466C298.415,284.853,280.063,268.166,270.257,246.475Z" transform="translate(5629.697 -5875.195)" fill="#f0f0f0"/>
    <path id="Path_1132" data-name="Path 1132" d="M286.034,178.866a93.744,93.744,0,0,0,7.613,57.173,40.369,40.369,0,0,0,6.981,10.548,23.154,23.154,0,0,0,10.512,6.163c3.7,1.081,7.613,1.758,10.987,3.719a14.177,14.177,0,0,1,6.624,9.516c1.052,4.868.292,9.824-.619,14.644-1.012,5.352-2.148,10.9-.681,16.276.178.652-.844.89-1.022.239-2.552-9.361,2.409-18.594,1.716-28.005-.324-4.392-1.973-8.712-5.738-11.257-3.293-2.225-7.326-2.926-11.083-3.988a24.707,24.707,0,0,1-10.5-5.643,37.323,37.323,0,0,1-7.361-10.241,90.949,90.949,0,0,1-8.738-27.049,95.408,95.408,0,0,1,.31-32.4c.121-.663,1.123-.349,1,.31Z" transform="translate(5620.118 -5874.811)" fill="#fff"/>
    <path id="Path_1133" data-name="Path 1133" d="M281.469,271.918a14.065,14.065,0,0,1-16.816-6.993c-.305-.6.616-1.1.922-.5A13.024,13.024,0,0,0,281.23,270.9c.642-.209.877.814.239,1.022Z" transform="translate(5629.228 -5916.255)" fill="#fff"/>
    <path id="Path_1134" data-name="Path 1134" d="M333.059,302.723a27.109,27.109,0,0,0,2.193-19.634c-.175-.652.846-.89,1.022-.239a28.2,28.2,0,0,1-2.323,20.426c-.317.6-1.206.041-.891-.554Z" transform="translate(5596.25 -5925.084)" fill="#fff"/>
    <path id="Path_1135" data-name="Path 1135" d="M284.729,217.183a7.961,7.961,0,0,0,6.239-4.26c.309-.6,1.2-.044.891.554a8.921,8.921,0,0,1-6.892,4.727.542.542,0,0,1-.63-.392.527.527,0,0,1,.392-.63Z" transform="translate(5619.714 -5891.433)" fill="#fff"/>
    <path id="Path_1136" data-name="Path 1136" d="M399.012,179.4c-.182.381-.364.762-.542,1.151a104.856,104.856,0,0,0-5.985,15.92c-.127.42-.25.848-.365,1.271a110.532,110.532,0,0,0-3.358,40.556,107.341,107.341,0,0,0,2.912,16.047c1.9,7.275,4.541,15.011,3.945,22.274a18.4,18.4,0,0,1-.3,2.259L362.2,299.1c-.1.008-.193.024-.291.033l-1.285.868c-.09-.267-.178-.545-.267-.812-.053-.155-.1-.314-.151-.468-.033-.1-.065-.209-.1-.3-.011-.035-.022-.07-.028-.1-.036-.092-.059-.182-.09-.267q-.741-2.333-1.451-4.686c0-.008,0-.008,0-.02a157.828,157.828,0,0,1-6.841-36.682c-.02-.372-.044-.751-.048-1.133a102.426,102.426,0,0,1,.577-16.705,90.549,90.549,0,0,1,1.551-9.03,75.3,75.3,0,0,1,8.723-21.867c8.048-13.528,20.333-24.331,35.369-28.254C398.245,179.584,398.623,179.488,399.012,179.4Z" transform="translate(5587.314 -5875.393)" fill="#f0f0f0"/>
    <path id="Path_1137" data-name="Path 1137" d="M407.264,179.382a93.745,93.745,0,0,0-28.344,50.233,40.371,40.371,0,0,0-.777,12.625,23.154,23.154,0,0,0,4.683,11.25c2.3,3.091,5.02,5.987,6.534,9.585a14.177,14.177,0,0,1-.44,11.586c-2.091,4.52-5.681,8.02-9.311,11.32-4.031,3.664-8.275,7.406-10.343,12.585-.251.627-1.21.2-.959-.425,3.6-9.01,13.118-13.4,18.231-21.328,2.386-3.7,3.67-8.144,2.2-12.443-1.289-3.759-4.087-6.747-6.448-9.857a24.707,24.707,0,0,1-4.989-10.83,37.321,37.321,0,0,1,.289-12.608,90.948,90.948,0,0,1,9.309-26.858,95.408,95.408,0,0,1,19.757-25.687c.5-.456,1.106.4.614.851Z" transform="translate(5579.245 -5874.913)" fill="#fff"/>
    <path id="Path_1138" data-name="Path 1138" d="M381.8,250.122a14.065,14.065,0,0,1-9.217-15.708c.119-.664,1.157-.511,1.038.154a13.024,13.024,0,0,0,8.6,14.594c.638.219.21,1.178-.425.959Z" transform="translate(5577.265 -5901.712)" fill="#fff"/>
    <path id="Path_1139" data-name="Path 1139" d="M393.439,307.012a27.109,27.109,0,0,0,13.572-14.356c.253-.627,1.212-.2.959.425a28.2,28.2,0,0,1-14.153,14.91C393.2,308.278,392.83,307.3,393.439,307.012Z" transform="translate(5567.257 -5929.85)" fill="#fff"/>
    <path id="Path_1140" data-name="Path 1140" d="M415.033,211.716a7.961,7.961,0,0,0,7.546.355c.609-.294.983.686.378.979a8.921,8.921,0,0,1-8.349-.375.542.542,0,0,1-.267-.692.527.527,0,0,1,.692-.267Z" transform="translate(5557.049 -5890.954)" fill="#fff"/>
    <path id="Path_1141" data-name="Path 1141" d="M682.257,268.475c-9.806-21.691-9.445-49.186,5.774-67.49a109.679,109.679,0,0,0,39.256,64.26c7.835,6.187,17.195,12.252,19.335,22,1.332,6.068-.556,12.485-3.82,17.771s-7.814,9.633-12.312,13.918l-.5,1.466C710.415,306.853,692.063,290.166,682.257,268.475Z" transform="translate(5431.064 -5885.801)" fill="#f0f0f0"/>
    <path id="Path_1142" data-name="Path 1142" d="M698.034,200.866a93.745,93.745,0,0,0,7.613,57.173,40.369,40.369,0,0,0,6.981,10.548,23.154,23.154,0,0,0,10.512,6.163c3.7,1.081,7.613,1.758,10.987,3.719a14.177,14.177,0,0,1,6.624,9.516c1.052,4.868.292,9.824-.619,14.645-1.012,5.352-2.148,10.9-.682,16.276.178.652-.844.89-1.022.239-2.551-9.361,2.409-18.594,1.716-28.005-.324-4.392-1.973-8.712-5.738-11.257-3.293-2.225-7.326-2.926-11.083-3.988a24.707,24.707,0,0,1-10.5-5.643,37.324,37.324,0,0,1-7.36-10.241,90.95,90.95,0,0,1-8.738-27.049,95.408,95.408,0,0,1,.31-32.4c.121-.663,1.123-.349,1,.31Z" transform="translate(5421.484 -5885.417)" fill="#fff"/>
    <path id="Path_1143" data-name="Path 1143" d="M693.469,293.918a14.065,14.065,0,0,1-16.816-6.993c-.305-.6.616-1.1.922-.5A13.024,13.024,0,0,0,693.23,292.9c.642-.209.877.814.239,1.022Z" transform="translate(5430.594 -5926.861)" fill="#fff"/>
    <path id="Path_1144" data-name="Path 1144" d="M745.059,324.723a27.108,27.108,0,0,0,2.193-19.634c-.175-.652.847-.89,1.022-.239a28.2,28.2,0,0,1-2.323,20.426c-.316.6-1.206.041-.891-.554Z" transform="translate(5397.617 -5935.691)" fill="#fff"/>
    <path id="Path_1145" data-name="Path 1145" d="M696.729,239.183a7.961,7.961,0,0,0,6.239-4.26c.309-.6,1.2-.044.891.554a8.921,8.921,0,0,1-6.892,4.727.542.542,0,0,1-.63-.392A.527.527,0,0,1,696.729,239.183Z" transform="translate(5421.081 -5902.039)" fill="#fff"/>
    <path id="Path_1146" data-name="Path 1146" d="M811.012,201.4c-.182.381-.364.762-.542,1.151a104.843,104.843,0,0,0-5.985,15.92c-.127.42-.25.848-.365,1.271a110.53,110.53,0,0,0-3.358,40.556,107.34,107.34,0,0,0,2.912,16.047c1.9,7.275,4.541,15.011,3.945,22.274a18.409,18.409,0,0,1-.3,2.259L774.2,321.1c-.1.008-.192.024-.291.033l-1.286.868c-.09-.267-.178-.545-.268-.812-.053-.154-.1-.314-.151-.468-.033-.1-.065-.209-.1-.3-.011-.035-.022-.07-.028-.1-.036-.092-.059-.182-.09-.267q-.741-2.334-1.451-4.686c0-.008,0-.008,0-.02a157.832,157.832,0,0,1-6.841-36.682c-.02-.372-.044-.751-.048-1.133a102.434,102.434,0,0,1,.577-16.705,90.548,90.548,0,0,1,1.551-9.03,75.3,75.3,0,0,1,8.723-21.867c8.048-13.528,20.334-24.331,35.369-28.254C810.245,201.584,810.623,201.488,811.012,201.4Z" transform="translate(5388.681 -5885.999)" fill="#f0f0f0"/>
    <path id="Path_1147" data-name="Path 1147" d="M819.264,201.382a93.745,93.745,0,0,0-28.344,50.233,40.37,40.37,0,0,0-.777,12.625,23.154,23.154,0,0,0,4.683,11.25c2.3,3.091,5.02,5.987,6.534,9.585a14.177,14.177,0,0,1-.44,11.586c-2.091,4.52-5.681,8.02-9.311,11.32-4.031,3.664-8.275,7.406-10.344,12.585-.251.627-1.21.2-.959-.425,3.6-9.011,13.118-13.4,18.231-21.328,2.386-3.7,3.67-8.144,2.2-12.443-1.289-3.759-4.087-6.747-6.448-9.857a24.708,24.708,0,0,1-4.989-10.83,37.323,37.323,0,0,1,.289-12.608,90.95,90.95,0,0,1,9.309-26.858,95.406,95.406,0,0,1,19.757-25.687C819.145,200.075,819.756,200.928,819.264,201.382Z" transform="translate(5380.612 -5885.52)" fill="#fff"/>
    <path id="Path_1148" data-name="Path 1148" d="M793.8,272.122a14.065,14.065,0,0,1-9.217-15.708c.119-.664,1.157-.511,1.038.154a13.024,13.024,0,0,0,8.6,14.594c.638.22.21,1.178-.425.959Z" transform="translate(5378.631 -5912.318)" fill="#fff"/>
    <path id="Path_1149" data-name="Path 1149" d="M805.439,329.012a27.108,27.108,0,0,0,13.572-14.356c.253-.627,1.212-.2.959.425a28.2,28.2,0,0,1-14.153,14.91C805.2,330.278,804.83,329.3,805.439,329.012Z" transform="translate(5368.624 -5940.456)" fill="#fff"/>
    <path id="Path_1150" data-name="Path 1150" d="M827.033,233.716a7.961,7.961,0,0,0,7.546.355c.609-.294.983.686.378.979a8.921,8.921,0,0,1-8.349-.375.542.542,0,0,1-.267-.692A.527.527,0,0,1,827.033,233.716Z" transform="translate(5358.417 -5901.561)" fill="#fff"/>
    <path id="Path_1151" data-name="Path 1151" d="M305.468,466.705h252.3V320.638a4.133,4.133,0,0,0-4.128-4.128H309.6a4.133,4.133,0,0,0-4.128,4.128Z" transform="translate(5609.52 -5941.499)" fill="#cacaca"/>
    <rect id="Rectangle_1740" data-name="Rectangle 1740" width="236.711" height="134.385" transform="translate(5922.783 -5619.279)" fill="#fff"/>
    <path id="Path_1152" data-name="Path 1152" d="M305.044,598.9v18.025a5.69,5.69,0,0,0,5.69,5.69h93.122v35.573H402.62a.739.739,0,0,0-.739.739V661.4a.739.739,0,0,0,.739.739h57.809a.739.739,0,0,0,.739-.739v-2.474a.739.739,0,0,0-.739-.739h-1.237V622.612h93.123a5.69,5.69,0,0,0,5.69-5.69V598.9Z" transform="translate(5609.725 -6077.643)" fill="#3f3d56"/>
    <path id="Path_1153" data-name="Path 1153" d="M407.536,431.249H349.85a1.518,1.518,0,0,1-1.516-1.516V406.328a1.518,1.518,0,0,1,1.516-1.516h57.685a1.518,1.518,0,0,1,1.516,1.516v23.406a1.518,1.518,0,0,1-1.516,1.516Z" transform="translate(5588.854 -5984.07)" fill="#6c63ff"/>
    <path id="Path_1154" data-name="Path 1154" d="M406.874,474.155h-46.7a1.819,1.819,0,1,1,0-3.639h46.7C409.22,470.483,409.244,474.188,406.874,474.155Z" transform="translate(5584.022 -6015.748)" fill="#e4e4e4"/>
    <path id="Path_1155" data-name="Path 1155" d="M406.874,490.257h-46.7a1.819,1.819,0,1,1,0-3.639h46.7C409.22,486.586,409.244,490.29,406.874,490.257Z" transform="translate(5584.022 -6023.511)" fill="#e4e4e4"/>
    <path id="Path_1156" data-name="Path 1156" d="M406.874,506.36h-46.7a1.819,1.819,0,1,1,0-3.639h46.7C409.22,502.688,409.244,506.393,406.874,506.36Z" transform="translate(5584.022 -6031.274)" fill="#e4e4e4"/>
    <path id="Path_1157" data-name="Path 1157" d="M549.639,431.249H491.953a1.518,1.518,0,0,1-1.516-1.516V406.328a1.518,1.518,0,0,1,1.516-1.516h57.685a1.518,1.518,0,0,1,1.516,1.516v23.406A1.518,1.518,0,0,1,549.639,431.249Z" transform="translate(5520.343 -5984.07)" fill="#6c63ff"/>
    <path id="Path_1158" data-name="Path 1158" d="M548.977,474.155h-46.7a1.819,1.819,0,0,1,0-3.639h46.7C551.323,470.483,551.347,474.188,548.977,474.155Z" transform="translate(5515.512 -6015.748)" fill="#e4e4e4"/>
    <path id="Path_1159" data-name="Path 1159" d="M548.977,490.257h-46.7a1.819,1.819,0,1,1,0-3.639h46.7C551.323,486.586,551.347,490.29,548.977,490.257Z" transform="translate(5515.512 -6023.511)" fill="#e4e4e4"/>
    <path id="Path_1160" data-name="Path 1160" d="M548.977,506.36h-46.7a1.819,1.819,0,0,1,0-3.639h46.7C551.323,502.688,551.347,506.393,548.977,506.36Z" transform="translate(5515.512 -6031.274)" fill="#e4e4e4"/>
    <path id="Path_1161" data-name="Path 1161" d="M691.741,431.249H634.056a1.518,1.518,0,0,1-1.516-1.516V406.328a1.518,1.518,0,0,1,1.516-1.516h57.685a1.518,1.518,0,0,1,1.516,1.516v23.406A1.518,1.518,0,0,1,691.741,431.249Z" transform="translate(5451.833 -5984.07)" fill="#6c63ff"/>
    <path id="Path_1162" data-name="Path 1162" d="M691.079,474.155h-46.7a1.819,1.819,0,1,1,0-3.639h46.7C693.426,470.483,693.45,474.188,691.079,474.155Z" transform="translate(5447.001 -6015.748)" fill="#e4e4e4"/>
    <path id="Path_1163" data-name="Path 1163" d="M691.079,490.257h-46.7a1.819,1.819,0,0,1,0-3.639h46.7C693.426,486.586,693.45,490.29,691.079,490.257Z" transform="translate(5447.001 -6023.511)" fill="#e4e4e4"/>
    <path id="Path_1164" data-name="Path 1164" d="M691.079,506.36h-46.7a1.819,1.819,0,1,1,0-3.639h46.7C693.426,502.688,693.45,506.393,691.079,506.36Z" transform="translate(5447.001 -6031.274)" fill="#e4e4e4"/>
    <path id="Path_1165" data-name="Path 1165" d="M821.137,396.668l.158,29.337.643-.036.611,10.861-1.194.065.033,6.525.956-.019.194,10.871-1.088.02.518,95.733a9.464,9.464,0,0,1-9.4,9.506l-105.751.573a9.463,9.463,0,0,1-9.506-9.4l-.83-153.358a9.464,9.464,0,0,1,9.4-9.506l105.751-.573A9.467,9.467,0,0,1,821.137,396.668Z" transform="translate(5421.006 -5975.611)" fill="#3f3d56"/>
    <path id="Path_1166" data-name="Path 1166" d="M818.63,559.114l-106.123.575a2.918,2.918,0,0,1-2.93-2.9l-.837-154.378a2.918,2.918,0,0,1,2.9-2.93l106.123-.575a2.918,2.918,0,0,1,2.93,2.9l.837,154.378A2.918,2.918,0,0,1,818.63,559.114Z" transform="translate(5415.095 -5981.224)" fill="#fff"/>
    <circle id="Ellipse_148" data-name="Ellipse 148" cx="0.804" cy="0.804" r="0.804" transform="translate(6178.571 -5585.967)" fill="#fff"/>
    <path id="Path_1167" data-name="Path 1167" d="M818.252,456.6H756.831a1.616,1.616,0,0,1-1.614-1.614V430.068a1.616,1.616,0,0,1,1.614-1.614h61.421a1.616,1.616,0,0,1,1.614,1.614V454.99a1.616,1.616,0,0,1-1.614,1.614Z" transform="translate(5392.688 -5995.469)" fill="#6c63ff"/>
    <path id="Path_1168" data-name="Path 1168" d="M817.547,502.289H767.823a1.937,1.937,0,0,1,0-3.875h49.724C820.046,498.379,820.071,502.324,817.547,502.289Z" transform="translate(5387.543 -6029.198)" fill="#e4e4e4"/>
    <path id="Path_1169" data-name="Path 1169" d="M817.547,519.435H767.823a1.937,1.937,0,0,1,0-3.875h49.724C820.046,515.525,820.071,519.47,817.547,519.435Z" transform="translate(5387.543 -6037.464)" fill="#e4e4e4"/>
    <path id="Path_1170" data-name="Path 1170" d="M817.547,536.58H767.823a1.937,1.937,0,0,1,0-3.875h49.724C820.046,532.67,820.071,536.615,817.547,536.58Z" transform="translate(5387.543 -6045.73)" fill="#e4e4e4"/>
    <path id="Path_1171" data-name="Path 1171" d="M818.252,596.239H756.831a1.616,1.616,0,0,1-1.614-1.614V569.7a1.616,1.616,0,0,1,1.614-1.614h61.421a1.616,1.616,0,0,1,1.614,1.614v24.922a1.616,1.616,0,0,1-1.614,1.614Z" transform="translate(5392.688 -6062.79)" fill="#6c63ff"/>
    <path id="Path_1172" data-name="Path 1172" d="M817.547,641.924H767.823a1.937,1.937,0,0,1,0-3.875h49.724C820.046,638.014,820.071,641.959,817.547,641.924Z" transform="translate(5387.543 -6096.519)" fill="#e4e4e4"/>
    <path id="Path_1173" data-name="Path 1173" d="M817.547,659.069H767.823a1.937,1.937,0,0,1,0-3.875h49.724C820.046,655.159,820.071,659.1,817.547,659.069Z" transform="translate(5387.543 -6104.785)" fill="#e4e4e4"/>
    <path id="Path_1174" data-name="Path 1174" d="M817.547,676.215H767.823a1.937,1.937,0,0,1,0-3.875h49.724C820.046,672.305,820.071,676.25,817.547,676.215Z" transform="translate(5387.543 -6113.051)" fill="#e4e4e4"/>
    <path id="Path_1175" data-name="Path 1175" d="M283.7,582.257l-.2-84.546.771,0-.037-15.55-.771,0L283.4,456.2a7.383,7.383,0,0,0-7.4-7.365l-54.94.133a7.383,7.383,0,0,0-7.365,7.4l.044,18.1-1.228.031.271,10.872.983-.025.006,2.4-1.046.026.271,10.872.8-.02.2,83.8a7.369,7.369,0,0,0,7.4,7.365l54.939-.133A7.392,7.392,0,0,0,283.7,582.257Z" transform="translate(5654.338 -6005.296)" fill="#3f3d56"/>
    <path id="Path_1176" data-name="Path 1176" d="M223.958,589.365a3.545,3.545,0,0,1-2.346-3.325L221.3,458.655a3.538,3.538,0,0,1,3.529-3.546l11.689-.028-.145.357a4.078,4.078,0,0,0,3.789,5.609l25.942-.063a4.13,4.13,0,0,0,3.17-1.968,4.044,4.044,0,0,0,.282-3.658l-.146-.356,12.075-.029a3.543,3.543,0,0,1,3.546,3.529l.294,121.536a9.4,9.4,0,0,1-9.365,9.409l-50.806.123A3.544,3.544,0,0,1,223.958,589.365Z" transform="translate(5650.097 -6008.253)" fill="#fff"/>
    <circle id="Ellipse_149" data-name="Ellipse 149" cx="0.804" cy="0.804" r="0.804" transform="translate(5893.265 -5551.762)" fill="#fff"/>
    <path id="Path_1177" data-name="Path 1177" d="M285.229,518.8h-41.74a1.1,1.1,0,0,1-1.1-1.1V500.765a1.1,1.1,0,0,1,1.1-1.1h41.74a1.1,1.1,0,0,1,1.1,1.1V517.7A1.1,1.1,0,0,1,285.229,518.8Z" transform="translate(5639.931 -6029.802)" fill="#6c63ff"/>
    <path id="Path_1178" data-name="Path 1178" d="M284.75,549.844H250.958a1.317,1.317,0,1,1,0-2.633H284.75A1.317,1.317,0,0,1,284.75,549.844Z" transform="translate(5636.435 -6052.724)" fill="#e4e4e4"/>
    <path id="Path_1179" data-name="Path 1179" d="M284.75,561.5H250.958a1.317,1.317,0,1,1,0-2.633H284.75A1.317,1.317,0,0,1,284.75,561.5Z" transform="translate(5636.435 -6058.341)" fill="#e4e4e4"/>
    <path id="Path_1180" data-name="Path 1180" d="M284.75,573.147H250.958a1.317,1.317,0,1,1,0-2.633H284.75A1.317,1.317,0,0,1,284.75,573.147Z" transform="translate(5636.435 -6063.958)" fill="#e4e4e4"/>
    <path id="Path_1181" data-name="Path 1181" d="M285.229,616.8h-41.74a1.1,1.1,0,0,1-1.1-1.1V598.765a1.1,1.1,0,0,1,1.1-1.1h41.74a1.1,1.1,0,0,1,1.1,1.1V615.7A1.1,1.1,0,0,1,285.229,616.8Z" transform="translate(5639.931 -6077.05)" fill="#6c63ff"/>
    <path id="Path_1182" data-name="Path 1182" d="M284.75,647.844H250.958a1.317,1.317,0,1,1,0-2.633H284.75A1.317,1.317,0,0,1,284.75,647.844Z" transform="translate(5636.435 -6099.971)" fill="#e4e4e4"/>
    <path id="Path_1183" data-name="Path 1183" d="M284.75,659.5H250.958a1.317,1.317,0,1,1,0-2.633H284.75A1.317,1.317,0,0,1,284.75,659.5Z" transform="translate(5636.435 -6105.589)" fill="#e4e4e4"/>
    <path id="Path_1184" data-name="Path 1184" d="M284.75,671.147H250.958a1.317,1.317,0,1,1,0-2.633H284.75A1.317,1.317,0,0,1,284.75,671.147Z" transform="translate(5636.435 -6111.206)" fill="#e4e4e4"/>
    <path id="Path_1194" data-name="Path 1194" d="M494.907,720.663H119.128a.641.641,0,0,1,0-1.233H494.906a.641.641,0,0,1,0,1.233Z" transform="translate(5748.184 -6135.754)" fill="#ccc"/>
  </g>
</svg>
