<svg xmlns="http://www.w3.org/2000/svg" width="92.037" height="80.531" viewBox="0 0 92.037 80.531">
  <path id="react" d="M75.171,58.114q-1.456-.485-2.912-.92c.162-.665.306-1.33.45-1.995,2.211-10.713.755-19.328-4.152-22.164-4.727-2.714-12.439.108-20.24,6.9-.773.665-1.528,1.366-2.247,2.071-.485-.467-.988-.934-1.5-1.381C36.4,33.366,28.2,30.31,23.291,33.168c-4.71,2.732-6.111,10.838-4.135,20.976.2,1.007.413,1.995.665,3-1.15.323-2.283.683-3.343,1.061C6.884,61.525,0,66.774,0,72.2c0,5.608,7.334,11.234,17.31,14.65.805.269,1.618.54,2.445.773-.269,1.078-.5,2.139-.719,3.235-1.888,9.976-.413,17.885,4.3,20.6,4.854,2.8,13.014-.071,20.959-7.028.629-.557,1.259-1.132,1.888-1.744.79.773,1.618,1.509,2.445,2.228,7.693,6.615,15.3,9.293,19.988,6.578,4.854-2.8,6.435-11.307,4.386-21.66q-.243-1.186-.54-2.426c.575-.162,1.132-.345,1.69-.521C84.519,83.455,92.037,77.9,92.037,72.2,92.037,66.756,84.95,61.472,75.171,58.114ZM50.85,42.849c6.686-5.824,12.924-8.106,15.761-6.471,3.037,1.744,4.206,8.79,2.3,18.047-.125.611-.252,1.2-.413,1.8a92.018,92.018,0,0,0-12.094-1.905,90.815,90.815,0,0,0-7.657-9.549C49.449,44.108,50.132,43.479,50.85,42.849Zm-20.8,38.682c.92,1.563,1.851,3.128,2.84,4.656a81.394,81.394,0,0,1-8.341-1.348,83.964,83.964,0,0,1,2.93-8c.827,1.582,1.672,3.145,2.57,4.692ZM24.608,59.9c2.589-.575,5.338-1.042,8.2-1.4-.953,1.5-1.888,3.02-2.768,4.566-.881,1.528-1.744,3.091-2.553,4.673C26.352,65.061,25.4,62.437,24.608,59.9Zm4.925,12.385c1.186-2.48,2.48-4.907,3.847-7.3s2.84-4.71,4.386-6.992c2.7-.2,5.446-.306,8.25-.306s5.572.108,8.25.306q2.292,3.4,4.372,6.957t3.9,7.262q-1.806,3.721-3.883,7.334c-1.366,2.391-2.822,4.71-4.35,7.01-2.678.2-5.465.288-8.283.288s-5.554-.09-8.2-.252q-2.346-3.424-4.422-7.01c-1.381-2.391-2.66-4.817-3.864-7.3ZM62,81.491c.92-1.582,1.78-3.181,2.624-4.8a83.439,83.439,0,0,1,3.037,7.963,78.951,78.951,0,0,1-8.448,1.438C60.181,84.583,61.1,83.037,62,81.491Zm2.589-13.75c-.844-1.582-1.707-3.164-2.607-4.71q-1.321-2.292-2.75-4.529a82.721,82.721,0,0,1,8.25,1.438,79.552,79.552,0,0,1-2.893,7.8ZM46.052,47.522a78.932,78.932,0,0,1,5.321,6.435c-3.56-.162-7.133-.162-10.7,0C42.439,51.639,44.255,49.485,46.052,47.522ZM25.2,36.5c3.02-1.761,9.725.755,16.789,7.01.45.4.9.827,1.366,1.259a91.321,91.321,0,0,0-7.708,9.549,94.751,94.751,0,0,0-12.08,1.87c-.23-.92-.431-1.851-.629-2.786-1.69-8.7-.575-15.261,2.265-16.9ZM20.8,83.884c-.755-.215-1.5-.45-2.228-.7A36.66,36.66,0,0,1,7.248,77.577,8.066,8.066,0,0,1,3.869,72.2c0-3.289,5.68-7.5,13.877-10.354,1.025-.359,2.071-.683,3.106-.988a95.583,95.583,0,0,0,4.4,11.432A98.248,98.248,0,0,0,20.8,83.884ZM41.756,101.5a32.9,32.9,0,0,1-10.138,6.345,7.955,7.955,0,0,1-6.345.23c-2.858-1.653-4.044-8-2.426-16.537.2-1.007.413-2.013.665-3a89.922,89.922,0,0,0,12.2,1.765,94.856,94.856,0,0,0,7.766,9.6C42.906,100.459,42.331,101,41.756,101.5Zm4.4-4.372c-1.834-1.978-3.667-4.17-5.446-6.525,1.726.071,3.505.108,5.3.108,1.851,0,3.667-.036,5.465-.125a77.52,77.52,0,0,1-5.321,6.546Zm23.494,5.391a7.989,7.989,0,0,1-2.966,5.626c-2.858,1.653-8.952-.5-15.531-6.147-.755-.647-1.509-1.348-2.283-2.071a88.918,88.918,0,0,0,7.585-9.635,88.608,88.608,0,0,0,12.259-1.888c.179.737.345,1.474.485,2.193A32.768,32.768,0,0,1,69.653,102.521Zm3.272-19.328c-.5.162-1.007.323-1.528.467a91.315,91.315,0,0,0-4.583-11.468,90.856,90.856,0,0,0,4.4-11.3c.934.269,1.834.557,2.7.844,8.376,2.876,14.254,7.154,14.254,10.425,0,3.523-6.27,8.07-15.24,11.036ZM46.018,80.507a8.233,8.233,0,1,0-8.233-8.233,8.233,8.233,0,0,0,8.233,8.233Z" transform="translate(0 -32.012)" fill="#333"/>
</svg>
