<svg xmlns="http://www.w3.org/2000/svg" width="79.53" height="79.53" viewBox="0 0 79.53 79.53">
  <g id="g12" transform="translate(-16.631 -79.368)">
    <path id="path4" d="M52.214,96.87a18.124,18.124,0,1,0,18.124,18.124A18.125,18.125,0,0,0,52.214,96.87Z" transform="translate(4.237 4.247)" fill="#333"/>
    <g id="g8" transform="translate(74.142 86.185)">
      <circle id="circle6" cx="8.278" cy="8.278" r="8.278" fill="#333"/>
    </g>
    <path id="path10" d="M92.591,102.74l-.325-.757-.541.649a12.621,12.621,0,0,1-4.977,3.408l-.541.216.216.541a31.743,31.743,0,0,1,2.489,12.444A32.487,32.487,0,1,1,70.355,89.864l.487.216.216-.541a12.353,12.353,0,0,1,3.679-4.815l.649-.541-.757-.379A39.934,39.934,0,1,0,92.591,102.74Z" transform="translate(0)" fill="#333"/>
  </g>
</svg>
