<svg xmlns="http://www.w3.org/2000/svg" width="80.531" height="80.531" viewBox="0 0 80.531 80.531">
  <path id="js" d="M0,32v80.531H80.531V32ZM43.825,94.807c0,7.838-4.6,11.415-11.307,11.415-6.058,0-9.564-3.128-11.361-6.921l6.165-3.721c1.186,2.1,2.265,3.883,4.871,3.883,2.48,0,4.062-.971,4.062-4.764V68.976h7.568V94.807Zm17.9,11.415c-7.028,0-11.576-3.343-13.787-7.73l6.164-3.563c1.618,2.646,3.739,4.6,7.459,4.6,3.128,0,5.141-1.563,5.141-3.739,0-2.589-2.049-3.505-5.522-5.033L59.3,89.954c-5.465-2.319-9.078-5.249-9.078-11.415,0-5.68,4.333-10,11.073-10,4.817,0,8.269,1.672,10.75,6.058l-5.891,3.776c-1.294-2.316-2.7-3.236-4.871-3.236a3.285,3.285,0,0,0-3.614,3.236c0,2.265,1.4,3.182,4.656,4.6l1.888.805c6.436,2.751,10.048,5.573,10.048,11.9,0,6.795-5.356,10.533-12.53,10.533Z" transform="translate(0 -32)" fill="#333"/>
</svg>
