<svg id="ts" xmlns="http://www.w3.org/2000/svg" width="80.531" height="80.531" viewBox="0 0 80.531 80.531">
  <path id="Path_101" data-name="Path 101" d="M0-215.734v40.266H80.531V-256H0Z" transform="translate(0 256)" fill="#333"/>
  <path id="Path_102" data-name="Path 102" d="M29.874,34.845,29.9,31.37H18.856V0h-7.8V31.372H.011v3.406a33.385,33.385,0,0,0,.094,3.5c.04.054,6.759.081,14.905.067l14.824-.036Z" transform="translate(47.168 73.245) rotate(180)" fill="#fff"/>
  <path id="Path_103" data-name="Path 103" d="M170.91-234.977a10.558,10.558,0,0,1,5.3,3.057,13.971,13.971,0,0,1,2.033,2.721c.026.108-3.662,2.585-5.9,3.972-.081.054-.4-.3-.767-.835a4.808,4.808,0,0,0-3.985-2.4c-2.571-.175-4.228,1.171-4.214,3.42a3.106,3.106,0,0,0,.364,1.589c.566,1.171,1.611,1.872,4.915,3.3,6.072,2.612,8.671,4.335,10.286,6.788a12.31,12.31,0,0,1,.983,10.34c-1.346,3.527-4.686,5.924-9.384,6.719a25.993,25.993,0,0,1-6.462-.067,15.585,15.585,0,0,1-8.628-4.5,14.986,14.986,0,0,1-2.208-3.272,6.323,6.323,0,0,1,.781-.5c.377-.215,1.805-1.035,3.151-1.818l2.437-1.414.512.754a11.39,11.39,0,0,0,3.221,3.083c2.706,1.427,6.423,1.225,8.253-.418a3.121,3.121,0,0,0,1.1-2.545,3.106,3.106,0,0,0-.633-2.154c-.659-.942-2.006-1.737-5.83-3.393-4.372-1.884-6.261-3.057-7.984-4.915a11.183,11.183,0,0,1-2.33-4.242,16.986,16.986,0,0,1-.148-5.407,10.338,10.338,0,0,1,8.7-8.053,21.492,21.492,0,0,1,6.43.182Z" transform="translate(-106.757 269.82)" fill="#fff"/>
</svg>
