<svg xmlns="http://www.w3.org/2000/svg" width="56.89" height="77.168" viewBox="0 0 56.89 77.168">
  <path id="java" d="M44.37,47.16A24.364,24.364,0,0,1,47.9,45.276s-5.833,1.055-11.636,1.538c-7.1.588-14.725.709-18.553.2-9.058-1.206,4.974-4.536,4.974-4.536A26.694,26.694,0,0,0,10.535,45.34C2.622,49.167,30.124,50.912,44.37,47.16ZM31.5,42.321c-2.866-6.436-12.524-12.088,0-21.974C47.123,8.018,39.11,0,39.11,0c3.24,12.736-11.394,16.594-16.685,24.506C18.824,29.917,24.189,35.718,31.5,42.321ZM48.771,15.764c.015,0-26.406,6.6-13.791,21.131C38.7,41.176,34,45.034,34,45.034s9.45-4.884,5.11-10.988C35.056,28.349,31.951,25.516,48.771,15.764Zm-.919,40.769a1.838,1.838,0,0,1-.3.391C66.887,51.846,59.774,39,50.534,42.263a2.612,2.612,0,0,0-1.236.949,10.618,10.618,0,0,1,1.654-.452c4.672-.98,11.379,6.255-3.1,13.78Zm7.108,9.39s2.185,1.794-2.4,3.2c-8.727,2.638-36.292,3.436-43.949.11-2.756-1.191,2.411-2.866,4.039-3.21a10.935,10.935,0,0,1,2.668-.3c-3.056-2.162-19.788,4.228-8.5,6.047C37.6,76.776,62.947,69.526,54.959,65.924Zm-33.694-6.24C9.4,63,28.485,69.843,43.587,63.377a28.018,28.018,0,0,1-4.251-2.084,44.107,44.107,0,0,1-15.976.678C18.311,61.4,21.266,59.684,21.266,59.684Zm27.1,14.65a114.241,114.241,0,0,1-35.167.542c0-.015,1.778,1.462,10.914,2.049,13.9.89,35.237-.5,35.735-7.069C59.849,69.857,58.884,72.344,48.364,74.334ZM41.792,53.2a62.262,62.262,0,0,1-20.615.992c-5.055-.525-1.747-2.967-1.747-2.967-13.082,4.34,7.265,9.254,25.547,3.9A9.1,9.1,0,0,1,41.8,53.2Z" transform="translate(-2.956)" fill="#333"/>
</svg>
