<svg xmlns="http://www.w3.org/2000/svg" xmlns:xlink="http://www.w3.org/1999/xlink" width="494.713" height="562.726" viewBox="0 0 494.713 562.726">
  <defs>
    <filter id="Line_14" x="130.063" y="125.416" width="20" height="200.084" filterUnits="userSpaceOnUse">
      <feOffset dy="3" input="SourceAlpha"/>
      <feGaussianBlur stdDeviation="3" result="blur"/>
      <feFlood flood-opacity="0.161"/>
      <feComposite operator="in" in2="blur"/>
      <feComposite in="SourceGraphic"/>
    </filter>
    <filter id="Line_18" x="180.063" y="46.605" width="20" height="278.894" filterUnits="userSpaceOnUse">
      <feOffset dy="3" input="SourceAlpha"/>
      <feGaussianBlur stdDeviation="3" result="blur-2"/>
      <feFlood flood-opacity="0.161"/>
      <feComposite operator="in" in2="blur-2"/>
      <feComposite in="SourceGraphic"/>
    </filter>
    <filter id="Line_19" x="282.063" y="46.605" width="20" height="278.894" filterUnits="userSpaceOnUse">
      <feOffset dy="3" input="SourceAlpha"/>
      <feGaussianBlur stdDeviation="3" result="blur-3"/>
      <feFlood flood-opacity="0.161"/>
      <feComposite operator="in" in2="blur-3"/>
      <feComposite in="SourceGraphic"/>
    </filter>
    <filter id="Line_15" x="232.063" y="125.416" width="20" height="200.084" filterUnits="userSpaceOnUse">
      <feOffset dy="3" input="SourceAlpha"/>
      <feGaussianBlur stdDeviation="3" result="blur-4"/>
      <feFlood flood-opacity="0.161"/>
      <feComposite operator="in" in2="blur-4"/>
      <feComposite in="SourceGraphic"/>
    </filter>
    <filter id="Line_16" x="332.063" y="125.416" width="20" height="200.084" filterUnits="userSpaceOnUse">
      <feOffset dy="3" input="SourceAlpha"/>
      <feGaussianBlur stdDeviation="3" result="blur-5"/>
      <feFlood flood-opacity="0.161"/>
      <feComposite operator="in" in2="blur-5"/>
      <feComposite in="SourceGraphic"/>
    </filter>
    <linearGradient id="linear-gradient" x1="0.5" y1="1" x2="0.5" y2="-0.001" gradientUnits="objectBoundingBox">
      <stop offset="0" stop-color="gray" stop-opacity="0.251"/>
      <stop offset="0.54" stop-color="gray" stop-opacity="0.122"/>
      <stop offset="1" stop-color="gray" stop-opacity="0.102"/>
    </linearGradient>
    <filter id="Ellipse_12" x="93.563" y="78" width="93" height="93" filterUnits="userSpaceOnUse">
      <feOffset dy="3" input="SourceAlpha"/>
      <feGaussianBlur stdDeviation="3" result="blur-6"/>
      <feFlood flood-opacity="0.161"/>
      <feComposite operator="in" in2="blur-6"/>
      <feComposite in="SourceGraphic"/>
    </filter>
    <filter id="Ellipse_16" x="143.563" y="0" width="93" height="93" filterUnits="userSpaceOnUse">
      <feOffset dy="3" input="SourceAlpha"/>
      <feGaussianBlur stdDeviation="3" result="blur-7"/>
      <feFlood flood-opacity="0.161"/>
      <feComposite operator="in" in2="blur-7"/>
      <feComposite in="SourceGraphic"/>
    </filter>
    <filter id="Ellipse_17" x="245.563" y="0" width="93" height="93" filterUnits="userSpaceOnUse">
      <feOffset dy="3" input="SourceAlpha"/>
      <feGaussianBlur stdDeviation="3" result="blur-8"/>
      <feFlood flood-opacity="0.161"/>
      <feComposite operator="in" in2="blur-8"/>
      <feComposite in="SourceGraphic"/>
    </filter>
    <filter id="Ellipse_13" x="195.563" y="78" width="93" height="93" filterUnits="userSpaceOnUse">
      <feOffset dy="3" input="SourceAlpha"/>
      <feGaussianBlur stdDeviation="3" result="blur-9"/>
      <feFlood flood-opacity="0.161"/>
      <feComposite operator="in" in2="blur-9"/>
      <feComposite in="SourceGraphic"/>
    </filter>
    <filter id="Ellipse_14" x="295.564" y="78" width="93" height="93" filterUnits="userSpaceOnUse">
      <feOffset dy="3" input="SourceAlpha"/>
      <feGaussianBlur stdDeviation="3" result="blur-10"/>
      <feFlood flood-opacity="0.161"/>
      <feComposite operator="in" in2="blur-10"/>
      <feComposite in="SourceGraphic"/>
    </filter>
  </defs>
  <g id="Group_69" data-name="Group 69" transform="translate(-1159.437 -386)">
    <g transform="matrix(1, 0, 0, 1, 1159.44, 386)" filter="url(#Line_14)">
      <line id="Line_14-2" data-name="Line 14" y2="182.084" transform="translate(140.06 131.42)" fill="none" stroke="#fff" stroke-width="2" stroke-dasharray="14"/>
    </g>
    <g transform="matrix(1, 0, 0, 1, 1159.44, 386)" filter="url(#Line_18)">
      <line id="Line_18-2" data-name="Line 18" y2="260.894" transform="translate(190.06 52.61)" fill="none" stroke="#fff" stroke-width="2" stroke-dasharray="14"/>
    </g>
    <g transform="matrix(1, 0, 0, 1, 1159.44, 386)" filter="url(#Line_19)">
      <line id="Line_19-2" data-name="Line 19" y2="260.894" transform="translate(292.06 52.61)" fill="none" stroke="#fff" stroke-width="2" stroke-dasharray="14"/>
    </g>
    <g transform="matrix(1, 0, 0, 1, 1159.44, 386)" filter="url(#Line_15)">
      <line id="Line_15-2" data-name="Line 15" y2="182.084" transform="translate(242.06 131.42)" fill="none" stroke="#fff" stroke-width="2" stroke-dasharray="14"/>
    </g>
    <g transform="matrix(1, 0, 0, 1, 1159.44, 386)" filter="url(#Line_16)">
      <line id="Line_16-2" data-name="Line 16" y2="182.084" transform="translate(342.06 131.42)" fill="none" stroke="#fff" stroke-width="2" stroke-dasharray="14"/>
    </g>
    <g id="undraw_programming_2svr_2_" data-name="undraw_programming_2svr (2)" transform="translate(1090.095 586.895)">
      <rect id="Rectangle_1473" data-name="Rectangle 1473" width="12.417" height="37.682" transform="translate(138.288 173.737)" fill="#3f3d56"/>
      <rect id="Rectangle_1474" data-name="Rectangle 1474" width="12.417" height="39.865" transform="translate(472.451 171.776)" fill="#3f3d56"/>
      <path id="Path_44" data-name="Path 44" d="M600.813,523.775v8.5l-99.282.915-1.059.02-37.734.346-.9.013-11.469.1h-.34l-69.913.647-114.764,1.065h-.1l-29.18.274-.314.007L106.1,536.846v-9.8l30.487-18.3,61.169-.51,1.307-.007.431-.007,1.307-.02,29.369-.242,1.314-.007.418-.007,1.307-.007,9.417-.078.248-.007,23.233-.2h.19l181.286-1.529,4.437-.033h.444l3.385-.033,24.6-.2,1.307-.02,1.209-.013h.627l7.653-.059,1.516-.02,2.032-.013,6.372-.059,10.11-.085,1.307-.013,2.274-.013h.425l48.824-.418Z" transform="translate(-36.758 -175.014)" fill="#65617d"/>
      <path id="Path_45" data-name="Path 45" d="M600.813,523.775v8.5l-99.282.915-1.059.02-37.734.346-.9.013-11.469.1h-.34l-69.913.647-114.764,1.065h-.1l-29.18.274-.314.007L106.1,536.846v-9.8l30.487-18.3,61.169-.51,1.307-.007.431-.007,1.307-.02,29.369-.242,1.314-.007.418-.007,1.307-.007,9.417-.078.248-.007,23.233-.2h.19l181.286-1.529,4.437-.033h.444l3.385-.033,24.6-.2,1.307-.02,1.209-.013h.627l7.653-.059,1.516-.02,2.032-.013,6.372-.059,10.11-.085,1.307-.013,2.274-.013h.425l48.824-.418Z" transform="translate(-36.758 -175.014)" opacity="0.2"/>
      <path id="Path_46" data-name="Path 46" d="M359.1,656.57v16a4.006,4.006,0,0,1-2.287,3.62,3.921,3.921,0,0,1-1.634.392l-22.808.484a3.92,3.92,0,0,1-1.764-.372,4,4,0,0,1-2.333-3.64V656.57Z" transform="translate(-165.586 -340.478)" fill="#3f3d56"/>
      <path id="Path_47" data-name="Path 47" d="M359.1,656.57v16a4.006,4.006,0,0,1-2.287,3.62,3.921,3.921,0,0,1-1.634.392l-22.808.484a3.92,3.92,0,0,1-1.764-.372,4,4,0,0,1-2.333-3.64V656.57Z" transform="translate(-165.586 -340.478)" opacity="0.1"/>
      <path id="Path_48" data-name="Path 48" d="M361.1,656.57v16a4.006,4.006,0,0,1-2.287,3.62,3.921,3.921,0,0,1-1.634.392l-22.808.484a3.92,3.92,0,0,1-1.764-.372,4,4,0,0,1-2.333-3.64V656.57Z" transform="translate(-166.279 -340.478)" fill="#3f3d56"/>
      <rect id="Rectangle_1475" data-name="Rectangle 1475" width="30.826" height="20.586" transform="translate(445.003 316.092)" fill="#3f3d56"/>
      <rect id="Rectangle_1476" data-name="Rectangle 1476" width="30.826" height="20.586" transform="translate(445.003 316.092)" opacity="0.1"/>
      <rect id="Rectangle_1477" data-name="Rectangle 1477" width="30.826" height="20.586" transform="translate(443.696 316.092)" fill="#3f3d56"/>
      <path id="Path_49" data-name="Path 49" d="M224.017,265.82v3.745l-12.417-.32V265.82Z" transform="translate(-73.312 -92.09)" opacity="0.1"/>
      <path id="Path_50" data-name="Path 50" d="M359.582,271.312l-14.92,107.177a2.81,2.81,0,0,1-2.856,2.425l-119.463-3.1-2.268-.059a2.81,2.81,0,0,1-2.719-3.183l16.75-112.2a2.81,2.81,0,0,1,2.967-2.372l119.894,8.117a2.8,2.8,0,0,1,2.614,3.189Z" transform="translate(-127.148 -203.073)" fill="#65617d"/>
      <path id="Path_51" data-name="Path 51" d="M169.232,99.16l-12.632,98.9,109.791,3.483,13.5-95.414Z" transform="translate(-50.795 -34.345)" fill="#aebaf8"/>
      <rect id="Rectangle_1478" data-name="Rectangle 1478" width="133.755" height="113.274" rx="5.33" transform="translate(251.346 63.286)" fill="#65617d"/>
      <path id="Path_98" data-name="Path 98" d="M0,0H121.554V94.322H0Z" transform="translate(261.12 70.912)" fill="#aebaf8"/>
      <path id="Path_52" data-name="Path 52" d="M735.347,262.82V265.3l-12.417.255V262.82Z" transform="translate(-250.479 -91.051)" opacity="0.1"/>
      <path id="Path_53" data-name="Path 53" d="M834.435,371.676a2.013,2.013,0,0,1-1.961,2.144l-122.338,2.529a2.013,2.013,0,0,1-2.046-1.823L697.575,265.2a2.013,2.013,0,0,1,1.908-2.2l121.41-6.038,1.307-.065a2.006,2.006,0,0,1,2.1,1.83Z" transform="translate(-293.541 -201.997)" fill="#65617d"/>
      <path id="Path_54" data-name="Path 54" d="M628.93,100.27l110.882-5.45,9.365,99.335-110.007,2.614Z" transform="translate(-214.449 -32.841)" fill="#aebaf8"/>
      <path id="Path_55" data-name="Path 55" d="M899.821,371.676a2.013,2.013,0,0,1-1.961,2.144L886.28,256.964l1.307-.065a2.006,2.006,0,0,1,2.1,1.83Z" transform="translate(-358.927 -201.997)" opacity="0.1"/>
      <path id="Path_56" data-name="Path 56" d="M237.093,260l-14.75,117.816-2.268-.059a2.81,2.81,0,0,1-2.719-3.183l16.75-112.2A2.81,2.81,0,0,1,237.093,260Z" transform="translate(-127.148 -203.069)" opacity="0.1"/>
      <rect id="Rectangle_1480" data-name="Rectangle 1480" width="12.417" height="11.162" transform="translate(138.288 200.256)" opacity="0.1"/>
      <path id="Path_57" data-name="Path 57" d="M281.756,483.65V486.9l-30.826.823V483.65Z" transform="translate(-86.939 -167.564)" opacity="0.1"/>
      <path id="Path_58" data-name="Path 58" d="M391.567,483.9V593.823a2.614,2.614,0,0,1-2.516,2.581L263.8,599.737h-.033a2.614,2.614,0,0,1-2.581-2.581V483.9a2.614,2.614,0,0,1,2.581-2.581H388.985A2.614,2.614,0,0,1,391.567,483.9Z" transform="translate(-142.344 -279.757)" fill="#65617d"/>
      <path id="Path_59" data-name="Path 59" d="M263.8,481.32V599.737h-.033a2.614,2.614,0,0,1-2.581-2.581V483.9a2.614,2.614,0,0,1,2.581-2.581Z" transform="translate(-142.344 -279.757)" opacity="0.1"/>
      <path id="Path_60" data-name="Path 60" d="M194.6,319.15h116v96.884l-116,2.614Z" transform="translate(-67.422 -110.568)" fill="#d4dfec"/>
      <rect id="Rectangle_1481" data-name="Rectangle 1481" width="12.417" height="11.384" transform="translate(472.451 200.256)" opacity="0.1"/>
      <path id="Path_61" data-name="Path 61" d="M709.756,483.65v4.189l-30.826-.823V483.65Z" transform="translate(-235.234 -167.564)" opacity="0.1"/>
      <path id="Path_62" data-name="Path 62" d="M798.553,483.9V597.156a2.614,2.614,0,0,1-2.614,2.581h0L670.666,596.4a2.614,2.614,0,0,1-2.516-2.581V483.9a2.614,2.614,0,0,1,2.581-2.581H795.945A2.614,2.614,0,0,1,798.553,483.9Z" transform="translate(-283.349 -279.757)" fill="#65617d"/>
      <path id="Path_63" data-name="Path 63" d="M866.3,483.9V597.156a2.614,2.614,0,0,1-2.614,2.581h0V481.32h0A2.614,2.614,0,0,1,866.3,483.9Z" transform="translate(-351.1 -279.757)" opacity="0.1"/>
      <path id="Path_64" data-name="Path 64" d="M714.1,319.15h-116v96.884l116,2.614Z" transform="translate(-207.228 -110.568)" fill="#d4dfec"/>
      <path id="Path_65" data-name="Path 65" d="M594.067,483.9V593.823a2.614,2.614,0,0,1-2.516,2.581L466.3,599.737h0a2.614,2.614,0,0,1-2.614-2.582V483.9a2.614,2.614,0,0,1,2.581-2.581H591.485A2.614,2.614,0,0,1,594.067,483.9Z" transform="translate(-212.507 -279.757)" fill="#65617d"/>
      <path id="Path_66" data-name="Path 66" d="M397.1,319.15h116v96.884l-116,2.614Z" transform="translate(-137.585 -110.568)" fill="#d4dfec"/>
      <path id="Path_67" data-name="Path 67" d="M600.813,533.65v8.5l-99.282.915-1.059.02-37.734.346-.9.013-11.469.1h-.34l-69.913.647L265.349,545.25h-.1l-29.18.274-.314.007L106.1,546.72v-9.8l132.344-.869h.314l26.788-.183h.124l185-1.222h.19l.111-.007h.307l3.13-.02h.954l48.68-.327,2.875-.013.64-.007Z" transform="translate(-36.758 -184.888)" opacity="0.1"/>
      <circle id="Ellipse_11" data-name="Ellipse 11" cx="33.545" cy="33.545" r="33.545" transform="translate(284.891 144.328)" fill="#fbbebe"/>
      <path id="Path_68" data-name="Path 68" d="M383.74,594.429a.81.81,0,0,1,.065-.229c.654-2.346,1.817-6.313,2.686-9.482.111-.392.216-.778.314-1.144.961-3.575,2.83-11.946,3.869-17.168.366-1.836.654-3.268.712-3.986.131-1.1,2.1-5.829,4.326-11.26,1.562-3.817,3.268-7.986,4.516-11.5a40.1,40.1,0,0,0,1.915-6.437,3.332,3.332,0,0,0,0-1.392,9.6,9.6,0,0,1-.314-2.287h0c-.15-4.052,1.059-10.456,2.928-13.142,2.287-3.268,3.921-15.462,3.921-15.462s3.385.49,3.921-2.307a4.02,4.02,0,0,0,.065-.915,4.837,4.837,0,0,0-.059-.725c-.582-4.078,9.62-8.417,15.358-9.352a12.843,12.843,0,0,1,1.961-.183,17.8,17.8,0,0,0,4.084-.941q.915-.281,1.961-.654c2.4-.81,5.28-1.882,8.332-3.058,11.476-4.45,25.37-10.456,25.37-10.456.1-.464.209-.908.333-1.346a18.109,18.109,0,0,1,10.685-12.371h0v-1.307c0-2.255-.1-4.575-.2-6.888,0-.451-.039-.9-.065-1.353v-.738c0-.457-.046-.915-.072-1.366l-.118-.091a10.723,10.723,0,0,1-2.549-2.745,9.977,9.977,0,0,1-.928-1.961c-.817-2.215-1.006-4.686-1.555-7.025l-.118-.484a54.9,54.9,0,0,0-2.614-6.914c-1.444-3.542-2.555-7.189-3.66-10.881q-1.006-3.353-2.032-6.718l-1.033-3.424c-.2-.654-.392-1.307-.542-1.961h0a8.664,8.664,0,0,1-.17-.915h0a6.534,6.534,0,0,1,.157-3.013,20.98,20.98,0,0,1,.863-1.961,5.147,5.147,0,0,0,.327-.9h0a1.986,1.986,0,0,0,.052-.209,3.694,3.694,0,0,0,.072-.706,12.069,12.069,0,0,0-.34-2.542.046.046,0,0,1,0-.033,1.663,1.663,0,0,0-.033-.176,16.65,16.65,0,0,1-.235-1.961,18.593,18.593,0,0,1,2.268-10.175l.124-.235a16.482,16.482,0,0,1,1.2-1.817h0a9.187,9.187,0,0,1,.654-.8,2.609,2.609,0,0,1-3.627-.941,2.5,2.5,0,0,1-.15-.294c-.033-.078-.059-.163-.085-.248-.458-1.6.34-3.307,1.385-4.607a12.083,12.083,0,0,1,3.751-3.072h0a2.525,2.525,0,0,1,.261-.137,11.187,11.187,0,0,1,1.725-.693h0a9.842,9.842,0,0,1,1.065-.288l-2.425-.222-.98-.092a9.469,9.469,0,0,1,8.5-7.13h.706a7.67,7.67,0,0,1,1.026.085,2.9,2.9,0,0,1-1.732-2.83,9.417,9.417,0,0,0,6.006,2h.248a19.6,19.6,0,0,1-.222-2.137h0a21.664,21.664,0,0,1,0-2.915,5.516,5.516,0,0,0,4.431,1.477l-1.359-1.9a6.2,6.2,0,0,0,4.287,1.34l.314-.033a4.573,4.573,0,0,0,.778-.15h.059c-.124-.157-.235-.32-.346-.49l-.039-.078a6.325,6.325,0,0,1-.654-1.366,4.315,4.315,0,0,1-.157-.569h0a5.718,5.718,0,0,1,.294-3.562c2.111,1.765,4.424,4.176,7.189,2.353s2.856-5.169,7.189-4.829a6.666,6.666,0,0,1,5.5,4,4.411,4.411,0,0,1,5.013-1.144,4.477,4.477,0,0,1,2.536,4.5c1.8-.451,3.732-.9,5.457-.216s2.836,2.882,1.856,4.352a.937.937,0,0,1-.092.131c-.8,1.039-2.581,1.608-2.392,2.915l.274.2.85.614q5,3.607,9.737,7.581c1.621,1.359,3.346,2.993,3.457,5.117a5.649,5.649,0,0,1-.157,1.549h0c-.1.51-.248,1.019-.359,1.529a12.753,12.753,0,0,0-.222,3.954h0c.046.386.1.765.176,1.15,1,5.052,5.039,9.221,5.437,14.377v.366a11.611,11.611,0,0,1-.046,1.653c-.3,3.137-1.751,6.15-2.928,9.149-.072.183-.144.366-.209.549a91.042,91.042,0,0,0-4.575,18.4,65.506,65.506,0,0,1-1.307,6.594,17.469,17.469,0,0,1-3.326,6.816,10.6,10.6,0,0,1-2.2,1.961,12.213,12.213,0,0,1-1.732.921v.039c.072.4.131.8.2,1.2.039.209.072.418.111.654h0a.091.091,0,0,0,0,.039c.549,3.091,1.176,6.117,1.836,8.992l.333,1.431c8.234,2.974,9.208,9.064,9.267,11.4a6.3,6.3,0,0,1,0,.935s12.417.327,17.318,3.921a13.29,13.29,0,0,0,2.947,1.5,54.234,54.234,0,0,0,6.045,1.889c1.052.274,2.15.542,3.268.8,1.961.451,4.039.889,6.045,1.307,5.352,1.078,10.391,1.961,12.946,2.614,6.1,1.542,20.043,14.913,20.043,14.913s1.634,13.489,3.268,15.456S616.536,521,616.536,521l10.809,19.22,4.575,8.084h2.941a5,5,0,0,1,2.1,1.372c.778.693,1.64,1.555,2.4,2.34l1.255,1.34.784.869s4.751.118,6.039,3.875c3.869-.111,8.62.144,11.946,1.634a9.238,9.238,0,0,1,1.307.706,5.672,5.672,0,0,1,2.7,3.7,5.457,5.457,0,0,1,.118.941c0,.372,0,.745,0,1.111-.235,4.947-3.457,9.064-6.418,11.835l.209.372s-.1.235-.288.654c-.052.124-.118.261-.19.418h0c-.386.823-1,2.059-1.8,3.5a41.378,41.378,0,0,1-6.254,8.607l-.189.2-37.734.346-.111-.131-7.319-8.731-3.64-4.339-.111-.137-.1,1.039-.353,3.464-.85,8.372-.046.418v.111l-.1.967.072-.967h-.19l-69.926.654L413.39,594.109v.549H413.3v-.549l-29.245.314Z" transform="translate(-184.806 -233.558)" fill="url(#linear-gradient)"/>
      <path id="Path_69" data-name="Path 69" d="M586.535,511.947s-65.025,7.842-58.817,0c2.248-2.836,2.869-11.24,2.745-20.814-.039-2.908-.144-5.921-.294-8.921-.719-14.377-2.451-28.428-2.451-28.428s56.856-26.794,50.321-5.555c-2.614,8.581-1.758,20.632.229,31.944.582,3.3,1.255,6.535,1.961,9.607a225.242,225.242,0,0,0,6.307,22.167Z" transform="translate(-234.547 -265.454)" fill="#fbbebe"/>
      <path id="Path_70" data-name="Path 70" d="M586.535,537.494s-65.025,7.842-58.817,0c2.248-2.836,2.869-11.241,2.745-20.815,9.914-4.235,22.527-1.078,22.527-1.078,13.279-2.647,21.795-2.13,27.239-.274a225.242,225.242,0,0,0,6.307,22.167Z" transform="translate(-234.547 -291.002)" opacity="0.1"/>
      <path id="Path_71" data-name="Path 71" d="M413.519,652.783v-.549l114.771-1.248,69.926-.654h.2l-.072.967.1-.967h.124v-.111l.9-8.79.34-3.326.1-1.039.091-.869,4.039-13.469,4.039-13.449,3.4-11.325,5.189-17.305s-2.941-6.862-4.575-8.822-3.268-15.358-3.268-15.358-13.946-13.286-20.043-14.815c-2.555-.654-7.6-1.523-12.959-2.614-2.006-.405-4.065-.837-6.045-1.307-1.118-.255-2.215-.523-3.268-.791a57.453,57.453,0,0,1-6.045-1.869,13.524,13.524,0,0,1-2.941-1.5c-4.8-3.522-16.841-3.921-17.305-3.921h0a.287.287,0,0,1,0-.046v-.059a6.678,6.678,0,0,0,0-.823,5.249,5.249,0,0,0-.059-.915.825.825,0,0,0-.046-.327c-.033-.235-.072-.484-.131-.745a3.247,3.247,0,0,0-.078-.346,11.241,11.241,0,0,0-.817-2.281c-.046-.1-.1-.216-.157-.32a11.918,11.918,0,0,0-1.111-1.719c-.085-.111-.176-.229-.274-.34a12.8,12.8,0,0,0-1.778-1.725c-.176-.137-.359-.281-.549-.412a3.042,3.042,0,0,0-.333-.235l-.582-.379-.542-.314c-.477-.261-.98-.516-1.529-.758-.17-.078-.353-.15-.536-.222s-.471-.183-.712-.274h-.039l-.49-.2c-.373-.124-.752-.235-1.15-.346l-.608-.157-.654-.15-.654-.137c-.653-.131-1.353-.248-2.085-.34l-.745-.091-.765-.078-.791-.065-1.124-.065-1.307-.046a81.5,81.5,0,0,0-17.156,1.825,47.231,47.231,0,0,0-11.926-1.1h-.569l-.654.039h-.418l-.843.078a6.27,6.27,0,0,0-.85.1c-.281.039-.575.072-.856.118l-.431.072c-.425.072-.856.15-1.307.242q-.216.039-.431.1c-.569.124-1.137.274-1.7.444-.281.078-.562.17-.843.268-.144.039-.281.091-.418.144l-.418.15-.412.163-.49.2c-.248.1-.49.216-.732.333-.137.059-.274.124-.405.2s-.268.131-.392.2a18.137,18.137,0,0,0-4.058,2.862l-.333.32-.327.333c-.111.111-.216.229-.32.346a15.567,15.567,0,0,0-1.189,1.47c-.1.137-.2.274-.3.418a17.445,17.445,0,0,0-1.124,1.908c-.085.157-.163.32-.242.477a21.362,21.362,0,0,0-1.307,3.431q-.183.654-.333,1.307s-13.835,6.1-25.311,10.522c-3.052,1.176-5.927,2.242-8.332,3.045-.7.235-1.353.451-1.961.654a17.449,17.449,0,0,1-4.085.941,12.859,12.859,0,0,0-1.961.183c-5.274.856-14.312,4.575-15.3,8.306a2.411,2.411,0,0,0-.065.915s0,.046,0,.072c.654,4.575-3.921,3.921-3.921,3.921s-1.634,12.09-3.921,15.358c-1.653,2.353-2.784,7.6-2.928,11.561h0a12.815,12.815,0,0,0,.288,3.679v.092c.261.876-.366,3.268-1.431,6.333-1.157,3.366-2.843,7.548-4.464,11.5-2.444,5.96-4.745,11.371-4.888,12.561-.059.529-.229,1.477-.464,2.7-.954,4.98-3.072,14.462-4.117,18.3-.778,2.862-1.908,6.784-2.686,9.476a.917.917,0,0,1-.065.229l29.3-.288v.549h.091Z" transform="translate(-181.494 -291.683)" fill="#9600ff"/>
      <path id="Path_72" data-name="Path 72" d="M445.44,607.57s37.25,19.279,50.648,16.991Z" transform="translate(-206.184 -323.5)" opacity="0.1"/>
      <path id="Path_73" data-name="Path 73" d="M561.44,595.57s36.27,11.763,48.36,13.4S561.44,595.57,561.44,595.57Z" transform="translate(-246.376 -319.342)" opacity="0.1"/>
      <path id="Path_74" data-name="Path 74" d="M585.857,530.763c-18.952,3.49-54.634,2.738-70.057,2.209,5.653-20.259,33.218-13.371,33.218-13.371C583.138,512.791,585.753,526.92,585.857,530.763Z" transform="translate(-230.562 -292.387)" opacity="0.1"/>
      <path id="Path_75" data-name="Path 75" d="M585.857,528.763c-18.952,3.49-54.634,2.738-70.057,2.209,5.653-20.259,33.218-13.371,33.218-13.371C583.138,510.791,585.753,524.92,585.857,528.763Z" transform="translate(-230.562 -291.694)" fill="#9600ff"/>
      <path id="Path_76" data-name="Path 76" d="M776.94,672.012s22.324-3.431,22.762,6.372-11.384,16.652-11.384,16.652Z" transform="translate(-321.043 -345.626)" fill="#fbbebe"/>
      <path id="Path_77" data-name="Path 77" d="M578.469,480.173a30.733,30.733,0,0,1-2.941,1.137c-7.045,2.431-14.149,4.882-21.566,5.771s-15.2.1-21.671-3.594a18.792,18.792,0,0,1-1.961-1.274c-.719-14.377-2.451-28.428-2.451-28.428s56.856-26.794,50.321-5.555C575.6,456.81,576.482,468.861,578.469,480.173Z" transform="translate(-234.748 -265.455)" opacity="0.1"/>
      <path id="Path_78" data-name="Path 78" d="M537.068,360.34a6.189,6.189,0,0,1-5.437-1.144l1.359,1.889a5.535,5.535,0,0,1-4.431-1.47,22.272,22.272,0,0,0,.209,5.065,9.489,9.489,0,0,1-6.248-1.961,2.889,2.889,0,0,0,1.725,2.817,9.371,9.371,0,0,0-10.195,7l3.411.314a12.07,12.07,0,0,0-6.823,4.163c-1.046,1.307-1.843,2.98-1.385,4.575s2.666,2.614,3.869,1.477a18.259,18.259,0,0,0-3.986,14.894,9.456,9.456,0,0,1,.3,3.438,29.156,29.156,0,0,1-1.235,3.065c-.654,1.908-.033,3.98.549,5.882l3.065,10.077c1.111,3.64,2.215,7.287,3.666,10.809A53.635,53.635,0,0,1,518.1,438.1c.823,3.163.856,6.627,2.614,9.391a13.025,13.025,0,0,0,4.692,4.137c6.463,3.7,14.273,4.483,21.671,3.594s14.495-3.339,21.533-5.771a20.26,20.26,0,0,0,4.47-1.961c4.869-3.189,5.953-9.711,6.862-15.456A87.761,87.761,0,0,1,584.7,413.21c1.425-3.588,3.268-7.228,2.954-11.071-.4-5.1-4.437-9.241-5.437-14.26a12.417,12.417,0,0,1,.046-5.078,11.54,11.54,0,0,0,.516-3.072c-.111-2.1-1.836-3.725-3.457-5.078q-5.274-4.4-10.888-8.326c-.19-1.307,1.588-1.869,2.392-2.9,1.137-1.457-.039-3.771-1.764-4.45s-3.66-.235-5.457.216a4.307,4.307,0,0,0-7.548-3.339,6.666,6.666,0,0,0-5.5-3.973c-4.333-.34-4.418,2.974-7.189,4.8s-5.058-.582-7.189-2.333A6.065,6.065,0,0,0,537.068,360.34Z" transform="translate(-227.833 -234.899)" fill="#3f3d56"/>
      <path id="Path_79" data-name="Path 79" d="M768.547,669.494s-.582,1.385-1.653,3.392a45.091,45.091,0,0,1-5.882,8.607l-.176.19h-1.059l-37.734.346h-.9l-.111-.131-7.319-8.685-2.758-3.274-.111-.137-.235-.274-.131-.157-.17-.2L704.94,662.8l1.961-8.169,3.339-13.763.085-.333.654-2.614.464-1.961L713,629.571l5.333-21.991,9.476,4.9,9.992,17.645,5.365,9.476h2.941c.555,0,1.83,1.072,3.111,2.307.458.438.915.9,1.307,1.307,1.163,1.2,2.085,2.235,2.085,2.235s4.764.1,6.045,3.856a4.568,4.568,0,0,1,.163.555,26.335,26.335,0,0,0,1.653,4.287c.843,1.836,1.9,3.921,2.974,6.006,1.993,3.823,4.019,7.463,4.764,8.783l.091.163Z" transform="translate(-296.096 -323.504)" fill="#9600ff"/>
      <path id="Path_80" data-name="Path 80" d="M616.791,653.138l-.065.935v.065l-.111,1.5-.869,12.1-1.052,14.573-.3,4.1-.654,8.783v.111l-69.926.654L429.061,697.2v.549h-.091v-.732l.294-9.385.562-18.338.484-15.547.046-1.549a6.881,6.881,0,0,1,7.463-6.646c3.085.261,7.091.582,11.881.921l1.961.144c27.663,1.921,78.788,4.4,130.377,1.307,1.085-.059,2.176-.124,3.268-.2,8-.5,15.992-1.15,23.906-1.961a6.882,6.882,0,0,1,7.581,7.339Z" transform="translate(-200.477 -336.653)" opacity="0.1"/>
      <path id="Path_81" data-name="Path 81" d="M429.08,699.15V698.6l114.771-1.248,69.926-.654h.2v-.111l.654-8.783.281-3.921,1.072-14.776.843-11.7v-.288a6.938,6.938,0,0,0-.072-1.614.2.2,0,0,0,0-.065,6.79,6.79,0,0,0-1.307-3.032,6.888,6.888,0,0,0-6.156-2.614c-7.914.81-15.907,1.457-23.906,1.961-1.091.078-2.183.144-3.268.2-51.589,3.065-102.713.582-130.377-1.307l-1.961-.144c-4.79-.34-8.8-.654-11.881-.921a6.888,6.888,0,0,0-7.346,5.574,7.19,7.19,0,0,0-.118,1.072l-.444,14.482-.608,18.344-.288,9.385v.732Z" transform="translate(-200.515 -338.05)" fill="#3f3d56"/>
      <path id="Path_82" data-name="Path 82" d="M617.035,661.72l-.8,10.018-1.2,14.933-.3,3.738-.654,8.372-.039.418v.111h0l-.1.967.072-.967h-.19l-69.926.654-114.79,1.242v-.183l.32-9.384.654-18.338.418-12.188a4.156,4.156,0,0,1,2-3.431,4.085,4.085,0,0,1,2.47-.588c1.372.111,3.058.242,5.026.386,3.2.235,7.136.51,11.724.8,8.5.536,19.155,1.111,31.369,1.581,33.983,1.307,79.86,1.745,123.436-2.072,1.961-.17,3.986-.359,5.967-.549a4.091,4.091,0,0,1,2.274.431,3.369,3.369,0,0,1,.562.353,4.012,4.012,0,0,1,1.307,1.608,2.325,2.325,0,0,1,.163.4A4.1,4.1,0,0,1,617.035,661.72Z" transform="translate(-200.526 -340.654)" opacity="0.1"/>
      <path id="Path_83" data-name="Path 83" d="M361.1,677.87v2.085a4.006,4.006,0,0,1-2.287,3.62l-26.206.5a4,4,0,0,1-2.333-3.64v-1.961Z" transform="translate(-166.279 -347.858)" opacity="0.1"/>
      <path id="Path_84" data-name="Path 84" d="M280.5,512.566l-34.146.653v-5.666L280.5,506.9Z" transform="translate(-85.352 -175.62)" fill="#3f3d56"/>
      <path id="Path_85" data-name="Path 85" d="M280.5,512.566l-34.146.653v-5.666L280.5,506.9Z" transform="translate(-85.352 -175.62)" opacity="0.1"/>
      <path id="Path_86" data-name="Path 86" d="M282.5,512.566l-34.146.653v-5.666L282.5,506.9Z" transform="translate(-86.045 -175.62)" fill="#3f3d56"/>
      <g id="Group_19" data-name="Group 19" transform="translate(280.352 120.462)" opacity="0.1">
        <path id="Path_87" data-name="Path 87" d="M552.236,360.056A6.373,6.373,0,0,1,551,357.22a6.2,6.2,0,0,0,.274,3.006A5.883,5.883,0,0,0,552.236,360.056Z" transform="translate(-523.085 -357.22)"/>
        <path id="Path_88" data-name="Path 88" d="M540.1,366.918a22.956,22.956,0,0,1-.242-2.418c0,.8,0,1.614,0,2.425Z" transform="translate(-519.251 -359.742)"/>
        <path id="Path_89" data-name="Path 89" d="M621.706,398.66a11.986,11.986,0,0,1,.235-1.732,11.76,11.76,0,0,0,.523-3.065,4.024,4.024,0,0,0-.1-.693c-.111.6-.288,1.2-.418,1.8a12.508,12.508,0,0,0-.235,3.692Z" transform="translate(-547.594 -369.676)"/>
        <path id="Path_90" data-name="Path 90" d="M600.923,368.913l.712.516a12.879,12.879,0,0,0,1.68-1.451,2.4,2.4,0,0,0,.248-2.379,1.957,1.957,0,0,1-.248.418C602.511,367.051,600.733,367.619,600.923,368.913Z" transform="translate(-540.403 -360.124)"/>
        <path id="Path_91" data-name="Path 91" d="M518.459,380.29a8.05,8.05,0,0,0-.569,1.49,11.869,11.869,0,0,1,3.268-1.235Z" transform="translate(-511.639 -365.213)"/>
        <path id="Path_92" data-name="Path 92" d="M531.9,368.984a9.7,9.7,0,0,1-1.229-.8,2.776,2.776,0,0,0,.059.771A7.751,7.751,0,0,1,531.9,368.984Z" transform="translate(-516.064 -361.017)"/>
        <path id="Path_93" data-name="Path 93" d="M588.051,428.33c-.268,3.17-1.745,6.221-2.941,9.228a87.72,87.72,0,0,0-4.764,18.828c-.908,5.744-1.961,12.266-6.862,15.449a19.606,19.606,0,0,1-4.464,1.961c-7.045,2.438-14.149,4.882-21.566,5.771s-15.2.111-21.671-3.588a13.071,13.071,0,0,1-4.692-4.137c-1.745-2.764-1.778-6.228-2.614-9.391a53.728,53.728,0,0,0-2.614-6.875c-1.444-3.516-2.555-7.189-3.66-10.8q-1.536-5.039-3.065-10.084a18.824,18.824,0,0,1-.745-3.1,11.714,11.714,0,0,0,.745,5.065q1.529,5.052,3.065,10.084c1.1,3.64,2.215,7.287,3.66,10.8a53.723,53.723,0,0,1,2.614,6.875c.823,3.163.856,6.627,2.614,9.391a13.07,13.07,0,0,0,4.692,4.137c6.47,3.7,14.273,4.477,21.671,3.588s14.495-3.333,21.566-5.771a19.605,19.605,0,0,0,4.464-1.961c4.869-3.183,5.953-9.7,6.862-15.449a87.72,87.72,0,0,1,4.764-18.828c1.425-3.581,3.268-7.221,2.954-11.071C588.064,428.408,588.051,428.369,588.051,428.33Z" transform="translate(-508.324 -381.858)"/>
        <path id="Path_94" data-name="Path 94" d="M510.321,421.453v-.072a9.148,9.148,0,0,0-.3-3.431,17.378,17.378,0,0,1-.255-2.17,17.877,17.877,0,0,0,.255,4.13C510.125,420.42,510.243,420.936,510.321,421.453Z" transform="translate(-508.815 -377.51)"/>
        <path id="Path_95" data-name="Path 95" d="M512.465,397.952a18.13,18.13,0,0,1,1.706-2.4c-1.2,1.144-3.4.124-3.869-1.464a3.81,3.81,0,0,0,0,1.961A2.869,2.869,0,0,0,512.465,397.952Z" transform="translate(-508.965 -369.995)"/>
      </g>
      <path id="Path_96" data-name="Path 96" d="M762.952,656.57s2.072,7.515,0,14.051S762.952,656.57,762.952,656.57Z" transform="translate(-315.877 -340.478)" opacity="0.1"/>
      <path id="Path_97" data-name="Path 97" d="M776.013,668.3s.869,9.541-1.091,11.234S776.013,668.3,776.013,668.3Z" transform="translate(-320.116 -344.542)" opacity="0.1"/>
      <line id="Line_11" data-name="Line 11" y1="0.654" x2="66.404" transform="translate(130.047 223.423)" fill="none" stroke="#6c63ff" stroke-miterlimit="10" stroke-width="2"/>
      <line id="Line_12" data-name="Line 12" y1="0.647" x2="66.404" transform="translate(130.047 231.579)" fill="none" stroke="#6c63ff" stroke-miterlimit="10" stroke-width="2"/>
      <line id="Line_13" data-name="Line 13" y1="0.654" x2="66.404" transform="translate(130.047 239.729)" fill="none" stroke="#6c63ff" stroke-miterlimit="10" stroke-width="2"/>
    </g>
    <g transform="matrix(1, 0, 0, 1, 1159.44, 386)" filter="url(#Ellipse_12)">
      <circle id="Ellipse_12-2" data-name="Ellipse 12" cx="37.5" cy="37.5" r="37.5" transform="translate(102.56 84)" fill="#fff"/>
    </g>
    <g transform="matrix(1, 0, 0, 1, 1159.44, 386)" filter="url(#Ellipse_16)">
      <circle id="Ellipse_16-2" data-name="Ellipse 16" cx="37.5" cy="37.5" r="37.5" transform="translate(152.56 6)" fill="#fff"/>
    </g>
    <g transform="matrix(1, 0, 0, 1, 1159.44, 386)" filter="url(#Ellipse_17)">
      <circle id="Ellipse_17-2" data-name="Ellipse 17" cx="37.5" cy="37.5" r="37.5" transform="translate(254.56 6)" fill="#fff"/>
    </g>
    <g transform="matrix(1, 0, 0, 1, 1159.44, 386)" filter="url(#Ellipse_13)">
      <circle id="Ellipse_13-2" data-name="Ellipse 13" cx="37.5" cy="37.5" r="37.5" transform="translate(204.56 84)" fill="#fff"/>
    </g>
    <g transform="matrix(1, 0, 0, 1, 1159.44, 386)" filter="url(#Ellipse_14)">
      <circle id="Ellipse_14-2" data-name="Ellipse 14" cx="37.5" cy="37.5" r="37.5" transform="translate(304.56 84)" fill="#fff"/>
    </g>
    <path id="code-solid_1_" data-name="code-solid (1)" d="M16.622,30.563l-3.641-1.056a.717.717,0,0,1-.489-.889L20.639.554a.717.717,0,0,1,.889-.489l3.641,1.056a.717.717,0,0,1,.489.889L17.511,30.073A.715.715,0,0,1,16.622,30.563Zm-6.8-6.7,2.6-2.769a.716.716,0,0,0-.048-1.027L6.959,15.314l5.407-4.757a.711.711,0,0,0,.048-1.027l-2.6-2.769A.717.717,0,0,0,8.8,6.731L.2,14.788a.711.711,0,0,0,0,1.044L8.8,23.9a.712.712,0,0,0,1.015-.03Zm19.528.036,8.6-8.063a.711.711,0,0,0,0-1.044l-8.6-8.069a.723.723,0,0,0-1.015.03l-2.6,2.769a.716.716,0,0,0,.048,1.027l5.407,4.763L25.783,20.07a.711.711,0,0,0-.048,1.027l2.6,2.769A.717.717,0,0,0,29.346,23.9Z" transform="translate(1330.425 414.186)" fill="#11001c"/>
    <path id="desktop-solid" d="M37.642,0H3.422A3.423,3.423,0,0,0,0,3.422V26.235a3.423,3.423,0,0,0,3.422,3.422H17.11l-1.141,3.422H10.836a1.711,1.711,0,0,0,0,3.422H30.227a1.711,1.711,0,1,0,0-3.422H25.094l-1.141-3.422H37.642a3.423,3.423,0,0,0,3.422-3.422V3.422A3.423,3.423,0,0,0,37.642,0ZM36.5,25.094H4.563V4.563H36.5Z" transform="translate(1380.967 489.25)" fill="#11001c"/>
    <path id="mobile-alt-solid" d="M21.25,0H3.75A3.751,3.751,0,0,0,0,3.75v32.5A3.751,3.751,0,0,0,3.75,40h17.5A3.751,3.751,0,0,0,25,36.25V3.75A3.751,3.751,0,0,0,21.25,0ZM12.5,37.5A2.5,2.5,0,1,1,15,35,2.5,2.5,0,0,1,12.5,37.5Zm8.75-8.437a.94.94,0,0,1-.937.938H4.688a.94.94,0,0,1-.937-.937V4.688a.94.94,0,0,1,.938-.937H20.313a.94.94,0,0,1,.938.938Z" transform="translate(1287 487.5)" fill="#11001c"/>
    <path id="users-solid" d="M6.548,45.1A4.365,4.365,0,1,0,2.183,40.73,4.369,4.369,0,0,0,6.548,45.1Zm30.557,0a4.365,4.365,0,1,0-4.365-4.365A4.369,4.369,0,0,0,37.1,45.1Zm2.183,2.183H34.922a4.352,4.352,0,0,0-3.076,1.269,9.977,9.977,0,0,1,5.122,7.462h4.5a2.18,2.18,0,0,0,2.183-2.183V51.644A4.369,4.369,0,0,0,39.287,47.278Zm-17.461,0a7.639,7.639,0,1,0-7.639-7.639A7.635,7.635,0,0,0,21.826,47.278Zm5.238,2.183H26.5a10.547,10.547,0,0,1-9.344,0h-.566A7.859,7.859,0,0,0,8.73,57.318v1.964A3.275,3.275,0,0,0,12,62.557H31.648a3.275,3.275,0,0,0,3.274-3.274V57.318A7.859,7.859,0,0,0,27.064,49.461Zm-15.258-.914A4.352,4.352,0,0,0,8.73,47.278H4.365A4.369,4.369,0,0,0,0,51.644v2.183a2.18,2.18,0,0,0,2.183,2.183H6.677a10,10,0,0,1,5.129-7.462Z" transform="translate(1429.675 382.223)" fill="#11001c"/>
    <path id="comments-regular_1_" data-name="comments-regular (1)" d="M41.556,59.672A10.758,10.758,0,0,0,44.994,52c0-6.25-5.977-11.414-13.766-12.336C28.767,35.164,22.986,32,16.244,32,7.267,32-.006,37.594-.006,44.5a10.785,10.785,0,0,0,3.438,7.672A20.456,20.456,0,0,1,.486,56.461,1.808,1.808,0,0,0,1.8,59.508a17.958,17.958,0,0,0,9.781-3.031,22.267,22.267,0,0,0,2.219.383c2.453,4.484,8.211,7.641,14.945,7.641a20.68,20.68,0,0,0,4.672-.531A18,18,0,0,0,43.2,67a1.808,1.808,0,0,0,1.313-3.047A19.911,19.911,0,0,1,41.556,59.672ZM10.869,52.461l-1.336.867A15.9,15.9,0,0,1,6.166,55c.211-.367.422-.758.625-1.156L8,51.414,6.064,49.5a7.163,7.163,0,0,1-2.32-5c0-4.742,5.727-8.75,12.5-8.75s12.5,4.008,12.5,8.75-5.727,8.75-12.5,8.75a17.024,17.024,0,0,1-3.828-.437l-1.547-.352ZM38.924,57l-1.93,1.906,1.211,2.43c.2.4.414.789.625,1.156a15.9,15.9,0,0,1-3.367-1.672l-1.336-.867-1.555.359a17.023,17.023,0,0,1-3.828.438,14.537,14.537,0,0,1-10.258-3.883C26.4,56.024,32.494,50.82,32.494,44.5c0-.266-.031-.523-.055-.781,5.031,1.133,8.8,4.438,8.8,8.281A7.163,7.163,0,0,1,38.924,57Z" transform="translate(1479.004 458)" fill="#11001c"/>
  </g>
</svg>
