<svg xmlns="http://www.w3.org/2000/svg" width="80.532" height="80.535" viewBox="0 0 80.532 80.535">
  <g id="ts" transform="translate(-0.001 0.002)">
    <path id="Exclusion_1" data-name="Exclusion 1" d="M7289.8-17504.2v0h-80.532v-80.533H7289.8v80.535Zm-27.675-18.582-2.436,1.412c-1.252.727-2.557,1.479-3.049,1.76l-.1.059a6.17,6.17,0,0,0-.781.5,15.026,15.026,0,0,0,2.207,3.271,15.477,15.477,0,0,0,8.632,4.5,25.958,25.958,0,0,0,3.5.236,26.216,26.216,0,0,0,2.964-.17c4.7-.8,8.033-3.182,9.383-6.717a12.286,12.286,0,0,0-.98-10.34c-1.622-2.463-4.218-4.176-10.287-6.787-3.3-1.422-4.353-2.129-4.917-3.3a3.14,3.14,0,0,1-.362-1.594,3.288,3.288,0,0,1,.9-2.4,3.952,3.952,0,0,1,2.881-1.033c.132,0,.278.006.433.016a4.8,4.8,0,0,1,3.985,2.4c.33.5.638.842.748.842a.034.034,0,0,0,.02,0c2.158-1.344,5.923-3.861,5.9-3.971a14.025,14.025,0,0,0-2.035-2.725,10.5,10.5,0,0,0-5.3-3.053,21.579,21.579,0,0,0-3.825-.342,21.573,21.573,0,0,0-2.605.156,10.378,10.378,0,0,0-8.7,8.055,16.928,16.928,0,0,0,.15,5.406,11.289,11.289,0,0,0,2.33,4.24c1.722,1.857,3.662,3.053,7.983,4.916,3.8,1.646,5.166,2.439,5.83,3.395a3.111,3.111,0,0,1,.635,2.152,3.138,3.138,0,0,1-1.107,2.543,6.405,6.405,0,0,1-4.25,1.373,8.732,8.732,0,0,1-4-.953,11.39,11.39,0,0,1-3.222-3.086Zm-20.7-27.053-14.824.035-.04,3.469-.026,3.473h11.046v31.369h7.8v-31.369h11.046v-3.406a33.227,33.227,0,0,0-.092-3.5c-.034-.041-4.843-.07-11.187-.07-1.119,0-2.287,0-3.488,0l-.124,0Z" transform="translate(-7209.266 17584.734)" fill="#fff"/>
  </g>
</svg>
