<svg xmlns="http://www.w3.org/2000/svg" width="68.946" height="77.764" viewBox="0 0 68.946 77.764">
  <path id="node" d="M35.158,81.815a6.045,6.045,0,0,1-2.994-.8L22.643,75.38c-1.42-.8-.725-1.08-.262-1.234a18.755,18.755,0,0,0,4.3-1.96.7.7,0,0,1,.71.062l7.314,4.333a.889.889,0,0,0,.88,0l28.5-16.447a.913.913,0,0,0,.432-.772v-32.9a.92.92,0,0,0-.444-.787L35.59,9.242a.889.889,0,0,0-.88,0L6.24,25.692a.9.9,0,0,0-.444.787V59.362a.852.852,0,0,0,.444.757l7.808,4.506c4.244,2.111,6.836-.37,6.836-2.888V29.272a.817.817,0,0,1,.833-.818h3.611a.827.827,0,0,1,.833.818V61.755c0,5.648-3.086,8.887-8.443,8.887-1.651,0-2.947,0-6.554-1.79l-7.469-4.3A6,6,0,0,1,.7,59.347V26.464a6.019,6.019,0,0,1,2.994-5.2L32.164,4.814a6.248,6.248,0,0,1,5.987,0l28.5,16.464a6,6,0,0,1,2.994,5.2V59.362a6.038,6.038,0,0,1-2.994,5.2l-28.5,16.451a6,6,0,0,1-2.994.8Zm23.007-32.42c0-6.157-4.166-7.793-12.916-8.95C36.392,39.272,35.5,38.668,35.5,36.6c0-1.713.757-4,7.314-4,5.848,0,8.009,1.265,8.9,5.216a.827.827,0,0,0,.8.648h3.7a.805.805,0,0,0,.6-.262.859.859,0,0,0,.216-.633c-.57-6.8-5.091-9.966-14.227-9.966-8.132,0-12.978,3.426-12.978,9.182,0,6.235,4.83,7.962,12.622,8.734,9.332.911,10.061,2.284,10.061,4.12,0,3.178-2.562,4.537-8.564,4.537-7.545,0-9.2-1.9-9.753-5.648a.817.817,0,0,0-.818-.694H29.7a.813.813,0,0,0-.818.818c0,4.8,2.607,10.524,15.092,10.524,9.012-.016,14.2-3.581,14.2-9.783Z" transform="translate(-0.7 -4.051)" fill="#fff"/>
</svg>
