<svg xmlns="http://www.w3.org/2000/svg" width="90" height="69.993" viewBox="0 0 90 69.993">
  <path id="aws" d="M25.368,89.134c-.1,4.124,1.491,5.951,1.53,7.111a1.563,1.563,0,0,1-.577,1.142l-1.8,1.632a1.293,1.293,0,0,1-.792.35c-.06,0-1.152.333-2.88-4.663-2.137,3.454-5.387,5.434-8.8,5.363-2.289.162-8.494-1.683-8.174-10.235-.224-6.971,4.79-11.3,9.974-10.935a22.183,22.183,0,0,1,6.608,1.142V77.194c.378-4.818-2.067-8.557-6.3-8a13.509,13.509,0,0,0-6.446,1.841c-1.035.615-1.167.513-1.512.513-1.042,0-.613-3.911-.413-4.407.733-1.165,5.043-3.341,9.273-3.31a9.26,9.26,0,0,1,7.831,3.147,15.328,15.328,0,0,1,2.485,9.534V89.134Zm-12.153,5.9a7.159,7.159,0,0,0,6.931-5.548,23.492,23.492,0,0,0,.288-4.989,19.011,19.011,0,0,0-5.563-.887A5.315,5.315,0,0,0,9,89.481c-.172,3.058,1.566,5.719,4.215,5.551Zm24.035,4.2c-1.1.131-1.62-.885-1.783-1.888l-7-29.982A8.737,8.737,0,0,1,28.2,65.8a.836.836,0,0,1,.543-.956c.034-.007-.3,0,3.129,0,1.235-.16,1.637,1.1,1.765,1.888l5.023,25.644L43.32,66.734c.075-.586.413-2.016,1.8-1.865h2.41c.305-.033,1.562-.091,1.783,1.888l4.7,25.972L59.2,66.753c.067-.4.382-2.07,1.783-1.888h2.773c.12-.024.865-.147.738,1.562-.06.337.48-1.941-7.418,30.938-.162,1-.678,2.019-1.783,1.888h-2.63c-1.538.209-1.759-1.759-1.783-1.958l-4.663-24.97L41.607,97.27c-.023.2-.243,2.167-1.783,1.957H37.251Zm38.457,1.025a15.331,15.331,0,0,1-8.066-2.238,2.43,2.43,0,0,1-1.1-2.169V93.89c0-1.539.872-1.256,1.242-1.073a16.485,16.485,0,0,0,4.051,1.748c5.154,1.371,7.421-.419,7.976-.816,1.849-1.422,2-4.676.738-6.364-1.474-1.6-2.177-1.661-7.471-3.824a9.854,9.854,0,0,1-6.158-9.534c-.086-5.142,3.523-10.23,9.776-10.188,1.782,0,6.529.752,7.814,2.844a2.706,2.706,0,0,1,.27,1.282v1.841q0,1.213-.685,1.213c-1.084-.157-3.008-2.034-6.913-1.957-.969-.066-5.609.166-5.4,4.547-.06,3.452,3.742,4.747,4.176,4.9,5.127,2,6.841,2.329,8.876,5.386,2.41,4.052,1.111,8.8.612,10.1a9.855,9.855,0,0,1-9.74,6.268Zm5.653,19.094c-9.848,9.418-24.144,14.431-36.35,14.431-16.47.141-32.384-7.7-44.615-21.984-.918-1.073-.108-2.542,1.008-1.724,13.568,10.05,28.93,15.331,44.561,15.318a71.658,71.658,0,0,0,33.973-9.023c1.657-.91,3.061,1.42,1.423,2.983Zm4.1-6.062c-1.26-2.1-8.336-.98-11.5-.49-.955.14-1.117-.932-.252-1.724,5.635-5.13,14.889-3.66,15.952-1.936s-.286,13.727-5.56,19.459c-.81.887-1.585.419-1.225-.747,1.186-3.865,3.851-12.467,2.591-14.567Z" transform="translate(0.003 -63.792)" fill="#fff"/>
</svg>
