<svg xmlns="http://www.w3.org/2000/svg" width="77.167" height="77.167" viewBox="0 0 77.167 77.167">
  <path id="python-brands" d="M75.752,61.022c-1.326-5.322-3.841-9.336-9.2-9.336H59.647v8.164A11.814,11.814,0,0,1,48.141,71.529h-18.4a9.386,9.386,0,0,0-9.2,9.353V98.416c0,5,4.341,7.923,9.2,9.353a30.952,30.952,0,0,0,18.4,0c4.633-1.344,9.2-4.048,9.2-9.353v-7.01H38.961V89.063H66.554c5.357,0,7.338-3.738,9.2-9.336,1.929-5.77,1.843-11.316,0-18.706ZM49.3,96.073a3.505,3.505,0,1,1-3.462,3.5A3.481,3.481,0,0,1,49.3,96.073ZM28.9,69.221H47.3a9.274,9.274,0,0,0,9.2-9.353V42.316c0-5-4.2-8.733-9.2-9.577a56.776,56.776,0,0,0-18.4.017c-7.785,1.378-9.2,4.254-9.2,9.577v7.01H38.117v2.343H12.8c-5.357,0-10.042,3.221-11.506,9.336-1.688,7.01-1.757,11.385,0,18.706,1.309,5.443,4.427,9.336,9.783,9.336H17.4V80.658A11.7,11.7,0,0,1,28.9,69.221ZM27.748,44.659a3.505,3.505,0,1,1,3.462-3.5A3.481,3.481,0,0,1,27.748,44.659Z" transform="translate(0.001 -31.999)" fill="#fff"/>
</svg>
