<svg xmlns="http://www.w3.org/2000/svg" width="1297.334" height="691.625" viewBox="0 0 1297.334 691.625">
  <g id="sup1" transform="translate(-976.384 -687.876)">
    <path id="Path_127" data-name="Path 127" d="M428.341,246.129c23.835-10.095,53.713-8.984,73.213,8.037a119.259,119.259,0,0,0-70.877,40.992c-6.929,8.356-13.768,18.372-24.424,20.443-6.631,1.289-13.557-.93-19.219-4.61s-10.268-8.745-14.816-13.746l-1.58-.586C385.886,275.742,404.507,256.229,428.341,246.129Z" transform="translate(912.171 448.189)" fill="#f0f0f0"/>
    <path id="Path_128" data-name="Path 128" d="M501.036,250.031a101.933,101.933,0,0,0-62.347,6.784,43.9,43.9,0,0,0-11.647,7.313,25.177,25.177,0,0,0-6.974,11.267c-1.271,4-2.109,8.231-4.33,11.853a15.416,15.416,0,0,1-10.516,6.952c-5.319,1.017-10.686.061-15.9-1.055-5.792-1.24-11.787-2.619-17.674-1.166-.713.176-.945-.942-.232-1.116,10.243-2.529,20.149,3.1,30.4,2.6,4.774-.237,9.522-1.916,12.386-5.945,2.5-3.521,3.372-7.887,4.624-11.944a26.865,26.865,0,0,1,6.409-11.27,40.578,40.578,0,0,1,11.325-7.737,98.891,98.891,0,0,1,29.633-8.793,103.74,103.74,0,0,1,35.217,1.182c.718.148.349,1.23-.362,1.082Z" transform="translate(912.334 452.784)" fill="#fff"/>
    <path id="Path_129" data-name="Path 129" d="M416.076,258.072a15.294,15.294,0,0,1,8.04-18.1c.659-.316,1.185.7.522,1.016a14.158,14.158,0,0,0-7.444,16.85c.211.7-.907.932-1.116.232Z" transform="translate(937.247 448.336)" fill="#fff"/>
    <path id="Path_130" data-name="Path 130" d="M401.377,262.917a29.469,29.469,0,0,0,21.286,2.9c.714-.173.945.943.232,1.116a30.66,30.66,0,0,1-22.144-3.059C400.111,263.511,400.738,262.56,401.377,262.917Z" transform="translate(929.669 463.151)" fill="#fff"/>
    <path id="Path_131" data-name="Path 131" d="M436.125,247.468a8.656,8.656,0,0,0,4.468,6.893c.645.351.017,1.3-.626.955A9.7,9.7,0,0,1,435,247.7a.589.589,0,0,1,.443-.675.573.573,0,0,1,.678.443Z" transform="translate(946.723 452.923)" fill="#fff"/>
    <path id="Path_132" data-name="Path 132" d="M499.819,322.7c-.41-.207-.823-.417-1.236-.619a114.013,114.013,0,0,0-17.149-6.914c-.453-.15-.915-.295-1.371-.43a120.184,120.184,0,0,0-44-4.713,116.728,116.728,0,0,0-17.52,2.746c-7.956,1.877-16.436,4.545-24.315,3.707a20,20,0,0,1-2.448-.387L370.651,279.57c0-.107-.021-.209-.028-.318l-.91-1.421c.293-.091.6-.179.889-.27.165-.053.344-.1.512-.151.114-.033.229-.066.329-.1l.105-.028c.1-.036.2-.059.293-.091q2.557-.744,5.131-1.455h.021a171.612,171.612,0,0,1,40.052-6.48c.405-.011.823-.028,1.233-.023a111.372,111.372,0,0,1,18.143,1.063,98.483,98.483,0,0,1,9.776,1.921,81.878,81.878,0,0,1,23.542,10.052c14.487,9.1,25.919,22.738,29.8,39.181C499.635,321.866,499.729,322.279,499.819,322.7Z" transform="translate(911.767 467.264)" fill="#f0f0f0"/>
    <path id="Path_133" data-name="Path 133" d="M499.029,319.675a101.934,101.934,0,0,0-53.866-32.12,43.9,43.9,0,0,0-13.7-1.174,25.176,25.176,0,0,0-12.347,4.8c-3.421,2.425-6.639,5.3-10.589,6.852a15.416,15.416,0,0,1-12.582-.78c-4.86-2.39-8.57-6.384-12.062-10.418-3.879-4.476-7.835-9.188-13.41-11.572-.675-.288-.188-1.317.494-1.032,9.7,4.147,14.219,14.609,22.709,20.374,3.961,2.69,8.756,4.2,13.468,2.711,4.116-1.3,7.441-4.267,10.883-6.75a26.865,26.865,0,0,1,11.9-5.14,40.579,40.579,0,0,1,13.7.642,98.891,98.891,0,0,1,28.953,10.819,103.74,103.74,0,0,1,27.407,22.147c.482.55-.461,1.192-.942.645Z" transform="translate(911.974 470.48)" fill="#fff"/>
    <path id="Path_134" data-name="Path 134" d="M419.87,286.89a15.294,15.294,0,0,1,17.315-9.609c.719.147.525,1.271-.194,1.124a14.158,14.158,0,0,0-16.089,8.972c-.255.688-1.286.2-1.032-.494Z" transform="translate(939.067 472.291)" fill="#fff"/>
    <path id="Path_135" data-name="Path 135" d="M401.286,283.756a29.477,29.477,0,0,0,15.253,15.128c.675.291.188,1.317-.494,1.032a30.661,30.661,0,0,1-15.839-15.775c-.3-.673.78-1.055,1.073-.385Z" transform="translate(929.702 476.443)" fill="#fff"/>
    <path id="Path_136" data-name="Path 136" d="M438.879,292.348a8.658,8.658,0,0,0-.583,8.193c.3.67-.772,1.05-1.073.385a9.7,9.7,0,0,1,.626-9.066.589.589,0,0,1,.759-.273.573.573,0,0,1,.273.759Z" transform="translate(947.501 481.699)" fill="#fff"/>
    <path id="Path_137" data-name="Path 137" d="M862.282,437.422h-18.7l-8.89-72.146h27.6Z" transform="translate(1258.366 920.661)" fill="#a0616a"/>
    <path id="Path_138" data-name="Path 138" d="M979.524,669.314H919.213v-.762a23.476,23.476,0,0,1,23.471-23.474h36.84Z" transform="translate(1145.895 706.891)" fill="#2f2e41"/>
    <path id="Path_139" data-name="Path 139" d="M954.867,432.18l-18.494,2.8-19.591-70,24.245-4.126Z" transform="translate(1311.42 917.8)" fill="#a0616a"/>
    <path id="Path_140" data-name="Path 140" d="M1069.489,663.733l-59.633,9.013-.114-.754a23.476,23.476,0,0,1,19.7-26.719h0l36.422-5.505Z" transform="translate(1204.229 703.459)" fill="#2f2e41"/>
    <path id="Path_141" data-name="Path 141" d="M936.742,879.2H377.849V320.309H936.742Z" transform="translate(895.729 500.292)" fill="#fff"/>
    <path id="Path_142" data-name="Path 142" d="M936.742,879.2H377.849V320.309H936.742Zm-550.635-8.258H928.484V328.567H386.107Z" transform="translate(895.729 500.292)" fill="#f0f0f0"/>
    <rect id="Rectangle_1522" data-name="Rectangle 1522" width="358.435" height="12.653" transform="translate(1384.798 1060.863)" fill="#44bba4"/>
    <rect id="Rectangle_1523" data-name="Rectangle 1523" width="358.435" height="12.653" transform="translate(1384.798 1093.763)" fill="#44bba4"/>
    <rect id="Rectangle_1524" data-name="Rectangle 1524" width="358.435" height="12.653" transform="translate(1384.798 1126.659)" fill="#44bba4"/>
    <circle id="Ellipse_21" data-name="Ellipse 21" cx="8.258" cy="8.258" r="8.258" transform="translate(1373.401 1060.787)" fill="#44bba4"/>
    <rect id="Rectangle_1525" data-name="Rectangle 1525" width="358.435" height="12.653" transform="translate(1384.798 919.107)" fill="#f0f0f0"/>
    <rect id="Rectangle_1526" data-name="Rectangle 1526" width="358.435" height="12.653" transform="translate(1384.798 952.006)" fill="#f0f0f0"/>
    <rect id="Rectangle_1527" data-name="Rectangle 1527" width="358.435" height="12.653" transform="translate(1384.798 984.907)" fill="#f0f0f0"/>
    <circle id="Ellipse_22" data-name="Ellipse 22" cx="8.258" cy="8.258" r="8.258" transform="translate(1373.401 917.654)" fill="#f0f0f0"/>
    <rect id="Rectangle_1528" data-name="Rectangle 1528" width="358.435" height="12.653" transform="translate(1384.798 1203.999)" fill="#f0f0f0"/>
    <rect id="Rectangle_1529" data-name="Rectangle 1529" width="358.435" height="12.653" transform="translate(1384.798 1236.895)" fill="#f0f0f0"/>
    <rect id="Rectangle_1530" data-name="Rectangle 1530" width="358.435" height="12.653" transform="translate(1384.798 1269.792)" fill="#f0f0f0"/>
    <circle id="Ellipse_23" data-name="Ellipse 23" cx="8.258" cy="8.258" r="8.258" transform="translate(1373.401 1202.545)" fill="#e5e5e5"/>
    <path id="Path_143" data-name="Path 143" d="M1030.7,634.842H705.509c-4.871-.013-8.821-8.088-8.827-18.06V374.856c0-9.97,3.951-18.043,8.827-18.06H1030.7c4.871.013,8.821,8.088,8.827,18.06V616.779C1039.524,626.749,1035.568,634.829,1030.7,634.842Z" transform="translate(1046.209 523.873)" fill="#fff"/>
    <path id="Path_144" data-name="Path 144" d="M1030.7,634.842H705.509c-4.871-.013-8.821-8.088-8.827-18.06V374.856c0-9.97,3.951-18.043,8.827-18.06H1030.7c4.871.013,8.821,8.088,8.827,18.06V616.779C1039.524,626.749,1035.568,634.829,1030.7,634.842ZM705.509,364.02c-2.924,0-5.293,4.855-5.3,10.836V616.779c0,5.981,2.372,10.831,5.3,10.836H1030.7c2.924,0,5.293-4.853,5.3-10.836V374.856c0-5.981-2.372-10.831-5.3-10.836Z" transform="translate(1046.209 523.873)" fill="#e6e6e6"/>
    <rect id="Rectangle_1531" data-name="Rectangle 1531" width="87.534" height="6.578" transform="translate(1877.737 1077.931)" fill="#44bba4"/>
    <rect id="Rectangle_1532" data-name="Rectangle 1532" width="110.162" height="6.578" transform="translate(1865.544 1095.026)" fill="#44bba4"/>
    <path id="Path_145" data-name="Path 145" d="M880.409,448.64a57.176,57.176,0,0,1-84.256,50.335l-.011-.011a57.158,57.158,0,1,1,84.267-50.325Z" transform="translate(1097.396 546.287)" fill="#cacaca"/>
    <circle id="Ellipse_24" data-name="Ellipse 24" cx="15.537" cy="15.537" r="15.537" transform="translate(1907.233 961.087)" fill="#fff"/>
    <path id="Path_146" data-name="Path 146" d="M838.158,453.072a80.083,80.083,0,0,1-53.63-.207h-.011l11.575-22.849h31.075Z" transform="translate(1110.682 571.192)" fill="#fff"/>
    <path id="Path_147" data-name="Path 147" d="M560.144,380.547h244V273.559h-3.755V376.791H560.144Z" transform="translate(1140.8 864.676)" fill="#3f3d56"/>
    <circle id="Ellipse_25" data-name="Ellipse 25" cx="20.646" cy="20.646" r="20.646" transform="translate(1913.313 1134.923)" fill="#3f3d56"/>
    <path id="Path_148" data-name="Path 148" d="M518.7,544.842H193.509c-4.871-.013-8.821-8.088-8.827-18.06V284.856c0-9.97,3.951-18.043,8.827-18.06H518.7c4.871.013,8.821,8.088,8.827,18.06V526.779C527.524,536.749,523.568,544.829,518.7,544.842Z" transform="translate(840.757 465.709)" fill="#fff"/>
    <path id="Path_149" data-name="Path 149" d="M518.7,544.842H193.509c-4.871-.013-8.821-8.088-8.827-18.06V284.856c0-9.97,3.951-18.043,8.827-18.06H518.7c4.871.013,8.821,8.088,8.827,18.06V526.779C527.524,536.749,523.568,544.829,518.7,544.842ZM193.509,274.02c-2.924,0-5.293,4.855-5.3,10.836V526.779c0,5.981,2.372,10.831,5.3,10.836H518.7c2.924,0,5.293-4.853,5.3-10.836V284.856c0-5.981-2.372-10.831-5.3-10.836Z" transform="translate(840.757 465.709)" fill="#e6e6e6"/>
    <path id="Path_150" data-name="Path 150" d="M354.443,322.62a80.583,80.583,0,0,0-55.479-25.27V378.1Z" transform="translate(880.54 485.455)" fill="#3f3d56"/>
    <path id="Path_151" data-name="Path 151" d="M354.443,318.813l-55.479,55.479H376.5a80.54,80.54,0,0,0-22.06-55.479Z" transform="translate(880.059 499.326)" fill="#e4e4e4"/>
    <path id="Path_152" data-name="Path 152" d="M376.582,356.038a81.035,81.035,0,0,1-1.391,15q-.109.588-.227,1.167a80.173,80.173,0,0,1-9.354,24.511c-.235.408-.479.823-.724,1.215h0a81.071,81.071,0,0,1-16.229,19.2c-.316.277-.632.548-.952.823a80.47,80.47,0,0,1-48.743,18.835V356.038Z" transform="translate(880.056 523.383)" fill="#f0f0f0"/>
    <path id="Path_153" data-name="Path 153" d="M316,436.859c1.073,0,2.14-.028,3.2-.069V356.037l-58.731,58.727A80.541,80.541,0,0,0,316,436.859Z" transform="translate(889.737 523.382)" fill="#cacaca"/>
    <path id="Path_154" data-name="Path 154" d="M325.993,303.419a80.822,80.822,0,0,0-80.822,80.822H329.28V303.491C328.191,303.449,327.094,303.419,325.993,303.419Z" transform="translate(879.849 489.377)" fill="#44bba4"/>
    <path id="Path_155" data-name="Path 155" d="M315.54,356.039l-16.993,16.993-.556.556-.012.011-14.816,14.816-.563.563-16.01,16.01-.563.563h0l-9.219,9.209a80.59,80.59,0,0,1-25.3-58.724Z" transform="translate(871.02 523.382)" fill="#44bba4"/>
    <path id="Path_156" data-name="Path 156" d="M442.7,292.547h-244V185.559h3.753V288.792H442.7Z" transform="translate(977.998 807.805)" fill="#3f3d56"/>
    <circle id="Ellipse_26" data-name="Ellipse 26" cx="20.646" cy="20.646" r="20.646" transform="translate(1196.841 990.052)" fill="#3f3d56"/>
    <path id="Path_157" data-name="Path 157" d="M1016.016,431.608l-20.768,5.441,1.381,33.671.165,61.3a12.286,12.286,0,1,0,16.26,2.043l6.383-61.527Z" transform="translate(1192.609 568.932)" fill="#a0616a"/>
    <path id="Path_158" data-name="Path 158" d="M1023.6,473.453l-30.355-10.217-.071-.458c-.044-.288-4.5-29.039-4.445-48.762a15.112,15.112,0,0,1,5.037-11.689,15.851,15.851,0,0,1,17.158-2.759,16.956,16.956,0,0,1,10.48,15.077Z" transform="translate(1190.818 547.333)" fill="#e4e4e4"/>
    <path id="Path_159" data-name="Path 159" d="M1002.562,446.91l-46.425-12.018L934.67,507.176l-.762,269.278,35.505-.222,14.841-217.948,94.591,201.386,38.141-4.577-83.148-215.882s4.577-38.141-9.917-57.213l3.051-19.834Z" transform="translate(1155.392 571.054)" fill="#2f2e41"/>
    <path id="Path_160" data-name="Path 160" d="M1020.662,502.674l-3.513-.054L945.8,474.1l34.135-76.026,16.206,2.945-2.95-11.8,35.81-8.753,6.231,24.921,9.195,8.356a16.165,16.165,0,0,1,4.458,17.06L1027.7,494.342a7.14,7.14,0,0,1-7.04,8.337Z" transform="translate(1163.078 535.882)" fill="#e4e4e4"/>
    <path id="Path_161" data-name="Path 161" d="M996.952,424.213l-18.768-10.419-22.269,25.292-42.24,44.428a12.286,12.286,0,1,0,10.34,12.712l47.124-40.06Z" transform="translate(1133.128 557.419)" fill="#a0616a"/>
    <path id="Path_162" data-name="Path 162" d="M958.572,459.73,943.7,431.365l.265-.38c.165-.239,16.817-24.1,30.486-38.317a15.113,15.113,0,0,1,11.717-4.967,15.858,15.858,0,0,1,14.308,9.861,16.957,16.957,0,0,1-2.843,18.139Z" transform="translate(1161.717 540.551)" fill="#e4e4e4"/>
    <circle id="Ellipse_27" data-name="Ellipse 27" cx="28.452" cy="28.452" r="28.452" transform="translate(2137.127 854.809)" fill="#a0616a"/>
    <path id="Path_163" data-name="Path 163" d="M959.446,358.742c4.784-8.561,6.615-12.143,12.785-17.352,5.456-4.61,12.166-5.96,17.577-1.6a32.6,32.6,0,1,1-19.335,26.087C965.768,365.222,964.144,359.4,959.446,358.742Z" transform="translate(1171.896 507.836)" fill="#2f2e41"/>
    <path id="Path_164" data-name="Path 164" d="M201.512,562.395a10.689,10.689,0,0,0,2.545-16.191l13.89-139.383-23.193,1.539-6.42,137.249A10.747,10.747,0,0,0,201.517,562.4Z" transform="translate(841.065 556.202)" fill="#ffb8b8"/>
    <path id="Path_165" data-name="Path 165" d="M185.279,414.876l6.081,46.214-.845,28.324,25.509,2.336,5.112-23.558,2.817-62.367A18.611,18.611,0,0,0,207.51,386.5h0a18.611,18.611,0,0,0-20.6,16.054Z" transform="translate(841.143 542.986)" fill="#2f2e41"/>
    <path id="Path_166" data-name="Path 166" d="M143.12,434.43H158.6l7.36-59.684H143.117Z" transform="translate(980.991 930.07)" fill="#ffb7b7"/>
    <path id="Path_167" data-name="Path 167" d="M242.221,647.62H272.7a19.426,19.426,0,0,1,19.426,19.426v.632h-49.9Z" transform="translate(877.943 711.823)" fill="#2f2e41"/>
    <path id="Path_168" data-name="Path 168" d="M65.509,434.43H80.984l7.36-59.684H65.506Z" transform="translate(930.834 930.07)" fill="#ffb7b7"/>
    <path id="Path_169" data-name="Path 169" d="M164.61,647.62h30.474a19.426,19.426,0,0,1,19.426,19.426v.632h-49.9Z" transform="translate(827.786 711.823)" fill="#2f2e41"/>
    <circle id="Ellipse_28" data-name="Ellipse 28" cx="33.548" cy="33.548" r="33.548" transform="translate(1022.967 840.424)" fill="#ffb8b8"/>
    <path id="Path_170" data-name="Path 170" d="M239.349,381.378l-23.282,2.66h0a61.954,61.954,0,0,0-7.922,55.943l17.567,50.82s-24.386,48.894-24.386,94.278-46.443,207.407-46.443,207.407l65.372,6.819,28.523-172.6,39.314,171.907,44.874-7.3L308.252,565.936l-16.331-74.182-.7-36.177s6.944-27.145-10.436-44.525L259.57,381.485Z" transform="translate(821.5 539.759)" fill="#2f2e41"/>
    <path id="Path_171" data-name="Path 171" d="M365.381,492.337a11.712,11.712,0,0,0-14.216-10.972l-126.6-86.758L213.831,417.7l128.481,78.471a11.774,11.774,0,0,0,23.069-3.826Z" transform="translate(859.595 548.308)" fill="#ffb8b8"/>
    <path id="Path_172" data-name="Path 172" d="M214.5,429.6,262.1,448.1l26.768,15.728,15.679-23.278-19.941-17.319-58.442-35.559a20.392,20.392,0,0,0-27.229,5.62h0a20.392,20.392,0,0,0,4.568,28.243Z" transform="translate(847.538 541.907)" fill="#2f2e41"/>
    <path id="Path_173" data-name="Path 173" d="M246.666,355.725h-49.3V334.242c10.821-4.3,21.4-7.955,27.809,0a21.489,21.489,0,0,1,21.489,21.489Z" transform="translate(848.955 506.264)" fill="#2f2e41"/>
    <path id="Path_174" data-name="Path 174" d="M217.517,331.092c-29.468.13-37.721,36.941-37.721,57.784,0,11.623,5.257,15.779,13.516,17.185l2.917-15.557,6.832,16.226c2.32.011,4.758-.033,7.285-.081l2.316-4.774,5.166,4.684c20.689.031,50.753-1.811,37.41-17.689C237.363,367.61,243.205,330.979,217.517,331.092Z" transform="translate(837.6 507.261)" fill="#2f2e41"/>
    <path id="Path_175" data-name="Path 175" d="M1038.409,445.241a34.561,34.561,0,0,1-.57-15.109c1.375-9.69,4.468-19.036,7.3-28.4s5.421-18.922,5.749-28.7-1.794-19.92-7.625-27.779-15.776-13.005-25.45-11.524c-9.244,1.412-17.315,9.749-17.363,19-1.654,2.995.482,7.079,3.526,8.859,3.192,1.862,7.041,2.111,10.582,3.169a26.53,26.53,0,0,1,15.9,14.071,34.3,34.3,0,0,1,2.3,21.364c-1.395,6.962-4.61,13.4-7.007,20.084s-4.012,14.015-2.081,20.847a21.955,21.955,0,0,0,24.605,14.993,16.209,16.209,0,0,1-9.865-10.865Z" transform="translate(1198.021 505.507)" fill="#2f2e41"/>
    <path id="Path_176" data-name="Path 176" d="M890.192,634.995C887,609.313,871.079,584,846.582,575.64a119.26,119.26,0,0,1,0,81.879c-3.765,10.182-9.011,21.115-5.47,31.378,2.2,6.386,7.593,11.27,13.616,14.323s12.711,4.511,19.314,5.938l1.3,1.075C885.816,686.567,893.379,660.686,890.192,634.995Z" transform="translate(1137.159 665.304)" fill="#f0f0f0"/>
    <path id="Path_177" data-name="Path 177" d="M843.883,576.342a101.935,101.935,0,0,1,25.341,57.367,43.9,43.9,0,0,1-.494,13.745,25.176,25.176,0,0,1-6.256,11.677c-2.822,3.1-6.068,5.946-8.088,9.678a15.415,15.415,0,0,0-.752,12.584c1.783,5.113,5.3,9.282,8.875,13.238,3.972,4.392,8.169,8.89,9.858,14.718.2.706,1.287.347,1.083-.357-2.938-10.133-12.775-15.888-17.465-25.015-2.19-4.259-3.108-9.2-1.055-13.7,1.795-3.931,5.14-6.868,8.024-9.983A26.865,26.865,0,0,0,869.5,649.1a40.587,40.587,0,0,0,1.025-13.674,98.892,98.892,0,0,0-7.222-30.052A103.739,103.739,0,0,0,844.65,575.48c-.494-.547-1.24.313-.755.856Z" transform="translate(1140.647 665.088)" fill="#fff"/>
    <path id="Path_178" data-name="Path 178" d="M859.327,613.082a15.294,15.294,0,0,0,11.641-16.02c-.057-.731-1.2-.675-1.139.057A14.158,14.158,0,0,1,858.963,612c-.714.165-.352,1.251.357,1.083Z" transform="translate(1149.08 678.813)" fill="#fff"/>
    <path id="Path_179" data-name="Path 179" d="M861.713,632.2a29.476,29.476,0,0,1-13.17-16.976c-.207-.7-1.291-.346-1.083.357a30.662,30.662,0,0,0,13.748,17.633c.632.375,1.142-.645.514-1.019Z" transform="translate(1143.588 690.638)" fill="#fff"/>
    <path id="Path_180" data-name="Path 180" d="M855.792,587.773a8.656,8.656,0,0,1-8.2-.417c-.627-.384-1.136.639-.513,1.019a9.7,9.7,0,0,0,9.074.481.589.589,0,0,0,.362-.721.573.573,0,0,0-.721-.362Z" transform="translate(1143.651 672.822)" fill="#fff"/>
    <path id="Path_181" data-name="Path 181" d="M798.616,604.58c.385.25.771.494,1.152.76a114.019,114.019,0,0,1,14.576,11.381c.356.318.713.645,1.059.973a120.189,120.189,0,0,1,26.1,35.724A116.726,116.726,0,0,1,847.9,669.96c2.359,7.828,4.293,16.5,8.964,22.906a20.02,20.02,0,0,0,1.561,1.926h42.2c.1-.048.193-.087.288-.135l1.684.077c-.068-.3-.145-.606-.212-.906-.038-.173-.087-.347-.125-.52-.028-.115-.057-.23-.077-.329-.01-.038-.02-.077-.028-.105-.02-.105-.048-.2-.068-.3q-.636-2.585-1.317-5.171c0-.01,0-.01-.01-.02a171.621,171.621,0,0,0-14.443-37.915c-.193-.356-.385-.723-.6-1.078a111.413,111.413,0,0,0-10-15.173,98.448,98.448,0,0,0-6.557-7.5,81.879,81.879,0,0,0-20.489-15.348c-15.136-7.991-32.659-11.053-48.835-6.172C799.434,604.32,799.029,604.445,798.616,604.58Z" transform="translate(1113.431 682.244)" fill="#f0f0f0"/>
    <path id="Path_182" data-name="Path 182" d="M798.866,604.286a101.935,101.935,0,0,1,54.773,30.548,43.894,43.894,0,0,1,7.876,11.275,25.189,25.189,0,0,1,2.031,13.093c-.387,4.175-1.266,8.4-.63,12.6a15.415,15.415,0,0,0,6.975,10.5c4.5,3.009,9.817,4.223,15.057,5.227,5.816,1.116,11.876,2.183,16.731,5.816.588.44,1.236-.494.65-.938-8.447-6.322-19.765-4.995-29.006-9.458-4.312-2.083-8.022-5.477-9.091-10.3-.933-4.219-.031-8.577.4-12.8a26.861,26.861,0,0,0-1.508-12.877,40.58,40.58,0,0,0-7.408-11.535,98.9,98.9,0,0,0-23.861-19.647,103.74,103.74,0,0,0-32.892-12.638c-.718-.143-.8,1-.087,1.138Z" transform="translate(1113.302 683.073)" fill="#fff"/>
    <path id="Path_183" data-name="Path 183" d="M829.809,627a15.294,15.294,0,0,0-.351-19.8c-.494-.55-1.363.181-.876.731a14.158,14.158,0,0,1,.288,18.418C828.4,626.914,829.343,627.573,829.809,627Z" transform="translate(1135.234 685.577)" fill="#fff"/>
    <path id="Path_184" data-name="Path 184" d="M846.735,638.177A29.477,29.477,0,0,1,826,632.547c-.589-.438-1.238.494-.65.938a30.66,30.66,0,0,0,21.584,5.815C847.671,639.218,847.463,638.1,846.735,638.177Z" transform="translate(1132.344 702.008)" fill="#fff"/>
    <path id="Path_185" data-name="Path 185" d="M815.264,608.145a8.656,8.656,0,0,1-6.8,4.609c-.731.072-.523,1.194.2,1.123A9.7,9.7,0,0,0,816.2,608.8a.589.589,0,0,0-.145-.793.573.573,0,0,0-.794.145Z" transform="translate(1125.198 686.156)" fill="#fff"/>
    <path id="Path_186" data-name="Path 186" d="M293.884,634.995C297.078,609.313,313,584,337.494,575.64a119.259,119.259,0,0,0,0,81.879c3.765,10.182,9.012,21.115,5.471,31.378-2.2,6.386-7.593,11.27-13.616,14.323s-12.711,4.511-19.314,5.938l-1.3,1.075C298.26,686.567,290.689,660.686,293.884,634.995Z" transform="translate(877.875 665.304)" fill="#f0f0f0"/>
    <path id="Path_187" data-name="Path 187" d="M331.849,576.342a101.934,101.934,0,0,0-25.341,57.369A43.9,43.9,0,0,0,307,647.456a25.175,25.175,0,0,0,6.256,11.677c2.822,3.1,6.068,5.946,8.088,9.678A15.415,15.415,0,0,1,322.1,681.4c-1.783,5.113-5.3,9.282-8.875,13.238-3.972,4.392-8.169,8.89-9.858,14.718-.2.706-1.287.347-1.083-.357,2.939-10.133,12.775-15.888,17.465-25.015,2.19-4.259,3.108-9.2,1.055-13.7-1.794-3.931-5.14-6.868-8.024-9.983a26.864,26.864,0,0,1-6.547-11.195,40.578,40.578,0,0,1-1.026-13.674,98.894,98.894,0,0,1,7.222-30.052,103.741,103.741,0,0,1,18.654-29.895c.494-.547,1.24.313.756.856Z" transform="translate(916.742 665.088)" fill="#fff"/>
    <path id="Path_188" data-name="Path 188" d="M309.613,613.082a15.294,15.294,0,0,1-11.641-16.02c.058-.731,1.2-.675,1.139.057A14.158,14.158,0,0,0,309.977,612C310.685,612.169,310.323,613.252,309.613,613.082Z" transform="translate(913.945 678.813)" fill="#fff"/>
    <path id="Path_189" data-name="Path 189" d="M308.064,632.2a29.477,29.477,0,0,0,13.17-16.976c.207-.7,1.291-.346,1.083.357a30.661,30.661,0,0,1-13.74,17.633c-.632.375-1.143-.645-.514-1.019Z" transform="translate(920.309 690.638)" fill="#fff"/>
    <path id="Path_190" data-name="Path 190" d="M312.092,587.773a8.656,8.656,0,0,0,8.2-.417c.627-.384,1.136.639.514,1.019a9.7,9.7,0,0,1-9.074.481.589.589,0,0,1-.362-.721.573.573,0,0,1,.721-.362Z" transform="translate(922.618 672.822)" fill="#fff"/>
    <path id="Path_191" data-name="Path 191" d="M406.261,604.583c-.385.25-.77.494-1.152.76a114.014,114.014,0,0,0-14.576,11.381c-.356.318-.713.645-1.059.973a120.189,120.189,0,0,0-26.1,35.724,116.712,116.712,0,0,0-6.394,16.542c-2.359,7.828-4.293,16.5-8.964,22.906a20.009,20.009,0,0,1-1.561,1.926h-42.2c-.1-.048-.193-.087-.288-.135l-1.684.077c.067-.3.145-.606.212-.906.038-.173.087-.347.125-.52.028-.115.058-.23.077-.329.01-.038.02-.077.028-.105.02-.105.048-.2.067-.3q.635-2.585,1.317-5.171c0-.01,0-.01.01-.02a171.616,171.616,0,0,1,14.443-37.917c.193-.356.385-.723.6-1.078a111.372,111.372,0,0,1,9.993-15.18,98.463,98.463,0,0,1,6.557-7.5,81.876,81.876,0,0,1,20.488-15.348c15.136-7.991,32.659-11.053,48.835-6.172C405.443,604.323,405.848,604.448,406.261,604.583Z" transform="translate(881.015 682.241)" fill="#f0f0f0"/>
    <path id="Path_192" data-name="Path 192" d="M406.09,604.286a101.932,101.932,0,0,0-54.773,30.548,43.9,43.9,0,0,0-7.876,11.275A25.176,25.176,0,0,0,341.41,659.2c.387,4.175,1.266,8.4.63,12.6a15.415,15.415,0,0,1-6.975,10.5c-4.5,3.01-9.817,4.223-15.057,5.227-5.816,1.116-11.876,2.183-16.731,5.816-.588.44-1.236-.494-.65-.938,8.447-6.322,19.765-4.995,29.006-9.458,4.312-2.083,8.022-5.477,9.091-10.3.933-4.219.031-8.577-.4-12.8a26.864,26.864,0,0,1,1.508-12.877,40.583,40.583,0,0,1,7.408-11.535A98.9,98.9,0,0,1,373.1,615.785,103.742,103.742,0,0,1,406,603.147c.718-.142.8,1,.087,1.137Z" transform="translate(881.066 683.073)" fill="#fff"/>
    <path id="Path_193" data-name="Path 193" d="M336.147,627a15.294,15.294,0,0,1,.351-19.8c.494-.55,1.363.181.876.731a14.158,14.158,0,0,0-.288,18.418C337.553,626.914,336.613,627.573,336.147,627Z" transform="translate(897.746 685.577)" fill="#fff"/>
    <path id="Path_194" data-name="Path 194" d="M326.064,638.178a29.477,29.477,0,0,0,20.733-5.633c.589-.438,1.238.494.65.938a30.66,30.66,0,0,1-21.584,5.814c-.731-.08-.523-1.2.2-1.123Z" transform="translate(893.858 702.006)" fill="#fff"/>
    <path id="Path_195" data-name="Path 195" d="M352.048,608.146a8.656,8.656,0,0,0,6.8,4.609c.731.072.523,1.193-.2,1.123a9.7,9.7,0,0,1-7.535-5.081.589.589,0,0,1,.143-.793.573.573,0,0,1,.793.145Z" transform="translate(906.439 686.156)" fill="#fff"/>
  </g>
</svg>
