<svg xmlns="http://www.w3.org/2000/svg" xmlns:xlink="http://www.w3.org/1999/xlink" width="1284.617" height="683.639" viewBox="0 0 1284.617 683.639">
  <defs>
    <linearGradient id="linear-gradient" x1="0.5" y1="1" x2="0.5" y2="-0.001" gradientUnits="objectBoundingBox">
      <stop offset="0" stop-color="gray" stop-opacity="0.251"/>
      <stop offset="0.54" stop-color="gray" stop-opacity="0.122"/>
      <stop offset="1" stop-color="gray" stop-opacity="0.102"/>
    </linearGradient>
  </defs>
  <g id="sup6" transform="translate(-0.012 -0.037)">
    <path id="Path_517" data-name="Path 517" d="M1265.513,713.519q-2.147,4.62-4.281,9.13-3.331,7-6.576,13.72c-.956,1.987-1.924,3.935-2.868,5.885-10.61,21.677-20.517,40.848-28.93,56.615a90.327,90.327,0,0,1-78.722,47.744l-187.086,2.041h-1.974l-16.037.172-13.72.148-42.07.457h-1.7l-21.417.234h-.653L727.472,851.1l-117.83,1.233-13.7.148-85.126.926h-.1L455.509,854h-.594l-174.569,1.888-52.222.567a108.65,108.65,0,0,1-32.9-4.712A106.578,106.578,0,0,1,147,821.206,246.668,246.668,0,0,1,97.24,736.376q-2.382-6.774-4.441-13.72c-38.011-128.489,8.327-294.263,91.726-405.2q5.243-6.959,10.659-13.571l.086-.1c25.648-31.484,54.407-57.787,85.038-76.49,54.282-33.2,114.426-42.551,173.581-14.682,50.051,23.589,96.784,34.68,142.084,37.689,4.577.3,9.154.518,13.7.653,103.914,3.269,201.3-34.173,315.667-58.341,4.553-.956,9.117-1.912,13.72-2.813,81.584-16.235,172.088-24.8,279.716-6.8a233.269,233.269,0,0,1,33.013,7.9q7.118,2.294,13.719,4.939c51.372,20.9,79.389,59.514,91.294,107.9q1.69,6.735,2.923,13.7C1380.84,433.828,1319.019,598.921,1265.513,713.519Z" transform="translate(-79.34 -172.91)" fill="#44bba4" opacity="0.1"/>
    <g id="Group_33" data-name="Group 33" transform="translate(13.456 16.855)" opacity="0.1">
      <path id="Path_518" data-name="Path 518" d="M258.366,217V845.718l-52.222.567a108.649,108.649,0,0,1-32.9-4.712V293.49h.086C198.974,261.968,227.733,235.666,258.366,217Z" transform="translate(-70.855 -179.47)" fill="#44bba4"/>
      <path id="Path_519" data-name="Path 519" d="M1339.871,292.67H164.6q5.243-6.959,10.659-13.571V279H1336.941Q1338.638,285.7,1339.871,292.67Z" transform="translate(-72.874 -164.982)" fill="#44bba4"/>
      <path id="Path_520" data-name="Path 520" d="M1043.419,192.456V719.243h-4.281q-3.331,7-6.576,13.718c-.956,1.987-1.924,3.935-2.867,5.885V187.47Q1036.824,189.764,1043.419,192.456Z" transform="translate(129.294 -186.372)" fill="#44bba4"/>
      <path id="Path_521" data-name="Path 521" d="M778.807,186.58v659.1l-13.718.148V189.393C769.644,188.431,774.208,187.48,778.807,186.58Z" transform="translate(67.458 -186.58)" fill="#44bba4"/>
      <path id="Path_522" data-name="Path 522" d="M511.814,236.273V837.8l-13.7.148V235.62C502.685,235.916,507.261,236.088,511.814,236.273Z" transform="translate(5.069 -175.12)" fill="#44bba4"/>
      <path id="Path_523" data-name="Path 523" d="M1258.688,618.52q-3.331,7-6.576,13.719H94.691q-2.382-6.774-4.441-13.719Z" transform="translate(-90.25 -85.636)" fill="#44bba4"/>
    </g>
    <rect id="Rectangle_1614" data-name="Rectangle 1614" width="23.44" height="71.135" transform="translate(261.048 327.945)" fill="#3f3d56"/>
    <rect id="Rectangle_1615" data-name="Rectangle 1615" width="23.44" height="75.255" transform="translate(891.875 324.243)" fill="#3f3d56"/>
    <path id="Path_524" data-name="Path 524" d="M1040.009,540.311v16.037l-187.423,1.727-2,.037-71.234.653-1.7.026L756,558.976h-.637L623.37,560.191,406.712,562.2h-.185l-55.085.518-.593.013L106.1,564.985V546.48l57.551-34.544,115.474-.956,2.468-.013.814-.013,2.468-.037,55.439-.457,2.48-.013.8-.013,2.468-.013,17.777-.148.468-.013,43.857-.37h.358l342.228-2.887,8.376-.062h.84l6.391-.062L812.8,506.5l2.468-.037,2.283-.024h1.184l14.446-.112,2.867-.037,3.836-.026,12.029-.112L871,505.993l2.468-.024,4.3-.024h.8l92.17-.8Z" transform="translate(24.792 118.043)" fill="#65617d"/>
    <path id="Path_525" data-name="Path 525" d="M1040.009,540.311v16.037l-187.423,1.727-2,.037-71.234.653-1.7.026L756,558.976h-.637L623.37,560.191,406.712,562.2h-.185l-55.085.518-.593.013L106.1,564.985V546.48l57.551-34.544,115.474-.956,2.468-.013.814-.013,2.468-.037,55.439-.457,2.48-.013.8-.013,2.468-.013,17.777-.148.468-.013,43.857-.37h.358l342.228-2.887,8.376-.062h.84l6.391-.062L812.8,506.5l2.468-.037,2.283-.024h1.184l14.446-.112,2.867-.037,3.836-.026,12.029-.112L871,505.993l2.468-.024,4.3-.024h.8l92.17-.8Z" transform="translate(24.792 118.043)" opacity="0.2"/>
    <path id="Path_526" data-name="Path 526" d="M386.464,656.57v30.213a7.562,7.562,0,0,1-4.317,6.834,7.4,7.4,0,0,1-3.084.741l-43.056.913a7.4,7.4,0,0,1-3.331-.7,7.55,7.55,0,0,1-4.4-6.873V656.57Z" transform="translate(-21.168 -59.888)" fill="#3f3d56"/>
    <path id="Path_527" data-name="Path 527" d="M386.464,656.57v30.213a7.562,7.562,0,0,1-4.317,6.834,7.4,7.4,0,0,1-3.084.741l-43.056.913a7.4,7.4,0,0,1-3.331-.7,7.55,7.55,0,0,1-4.4-6.873V656.57Z" transform="translate(-21.168 -59.888)" opacity="0.1"/>
    <path id="Path_528" data-name="Path 528" d="M388.465,656.57v30.213a7.562,7.562,0,0,1-4.319,6.834,7.4,7.4,0,0,1-3.084.741l-43.056.913a7.4,7.4,0,0,1-3.331-.7,7.55,7.55,0,0,1-4.4-6.873V656.57Z" transform="translate(-20.702 -59.888)" fill="#3f3d56"/>
    <rect id="Rectangle_1616" data-name="Rectangle 1616" width="58.193" height="38.861" transform="translate(840.059 596.682)" fill="#3f3d56"/>
    <rect id="Rectangle_1617" data-name="Rectangle 1617" width="58.193" height="38.861" transform="translate(840.059 596.682)" opacity="0.1"/>
    <rect id="Rectangle_1618" data-name="Rectangle 1618" width="58.193" height="38.861" transform="translate(837.591 596.682)" fill="#3f3d56"/>
    <path id="Path_529" data-name="Path 529" d="M235.04,265.82v7.068l-23.44-.6V265.82Z" transform="translate(49.448 62.112)" opacity="0.1"/>
    <path id="Path_530" data-name="Path 530" d="M485.873,281.355l-28.166,202.32a5.3,5.3,0,0,1-5.391,4.577l-225.525-5.84-4.281-.112a5.305,5.305,0,0,1-5.133-6.008L249,264.491a5.305,5.305,0,0,1,5.6-4.478l226.334,15.322a5.292,5.292,0,0,1,4.939,6.02Z" transform="translate(-47.094 -152.566)" fill="#65617d"/>
    <path id="Path_531" data-name="Path 531" d="M180.447,99.16,156.6,285.855l207.259,6.576,25.489-180.121Z" transform="translate(36.594 23.164)" fill="#44bba4"/>
    <rect id="Rectangle_1619" data-name="Rectangle 1619" width="252.502" height="213.836" rx="5.33" transform="translate(474.478 119.437)" fill="#65617d"/>
    <rect id="Rectangle_1620" data-name="Rectangle 1620" width="229.468" height="178.059" transform="translate(486.394 133.834)" fill="#44bba4"/>
    <path id="Path_532" data-name="Path 532" d="M746.37,262.82V267.5l-23.44.478V262.82Z" transform="translate(168.945 61.411)" opacity="0.1"/>
    <path id="Path_533" data-name="Path 533" d="M955.945,473.574a3.8,3.8,0,0,1-3.7,4.046L721.295,482.4a3.8,3.8,0,0,1-3.862-3.443l-19.85-206.373a3.8,3.8,0,0,1,3.6-4.158l229.2-11.4,2.468-.123a3.788,3.788,0,0,1,3.973,3.454Z" transform="translate(65.135 -153.291)" fill="#65617d"/>
    <path id="Path_534" data-name="Path 534" d="M628.93,105.11,838.26,94.82l17.683,187.522-207.668,4.939Z" transform="translate(146.976 22.15)" fill="#44bba4"/>
    <path id="Path_535" data-name="Path 535" d="M911.842,473.576a3.8,3.8,0,0,1-3.705,4.046l-21.857-220.6,2.468-.123a3.788,3.788,0,0,1,3.973,3.454Z" transform="translate(109.237 -153.292)" opacity="0.1"/>
    <path id="Path_536" data-name="Path 536" d="M254.637,260.006,226.792,482.413l-4.281-.112a5.305,5.305,0,0,1-5.133-6.008L249,264.492a5.3,5.3,0,0,1,5.638-4.486Z" transform="translate(-47.094 -152.569)" opacity="0.1"/>
    <rect id="Rectangle_1621" data-name="Rectangle 1621" width="23.44" height="21.072" transform="translate(261.048 378.007)" opacity="0.1"/>
    <path id="Path_537" data-name="Path 537" d="M309.123,483.65v6.133l-58.193,1.555V483.65Z" transform="translate(58.638 113.019)" opacity="0.1"/>
    <path id="Path_538" data-name="Path 538" d="M507.314,486.193V693.7a4.938,4.938,0,0,1-4.75,4.873l-236.439,6.293h-.062a4.938,4.938,0,0,1-4.873-4.873v-213.8a4.938,4.938,0,0,1,4.873-4.873H502.44A4.938,4.938,0,0,1,507.314,486.193Z" transform="translate(-36.846 -100.845)" fill="#65617d"/>
    <path id="Path_539" data-name="Path 539" d="M266.125,481.32V704.866h-.062a4.938,4.938,0,0,1-4.873-4.873v-213.8a4.939,4.939,0,0,1,4.873-4.873Z" transform="translate(-36.845 -100.845)" opacity="0.1"/>
    <path id="Path_540" data-name="Path 540" d="M194.6,319.15H413.582v182.9L194.6,506.984Z" transform="translate(45.475 74.576)" fill="#d4dfec"/>
    <rect id="Rectangle_1622" data-name="Rectangle 1622" width="23.44" height="21.491" transform="translate(891.875 378.007)" opacity="0.1"/>
    <path id="Path_541" data-name="Path 541" d="M737.123,483.65v7.908L678.93,490V483.65Z" transform="translate(158.661 113.019)" opacity="0.1"/>
    <path id="Path_542" data-name="Path 542" d="M914.324,486.193v213.8a4.938,4.938,0,0,1-4.938,4.873h0L672.9,698.574a4.938,4.938,0,0,1-4.749-4.873V486.193a4.939,4.939,0,0,1,4.873-4.873H909.4a4.939,4.939,0,0,1,4.922,4.873Z" transform="translate(58.259 -100.845)" fill="#65617d"/>
    <path id="Path_543" data-name="Path 543" d="M868.627,486.193v213.8a4.938,4.938,0,0,1-4.938,4.873h0V481.32h0a4.939,4.939,0,0,1,4.939,4.874Z" transform="translate(103.957 -100.845)" opacity="0.1"/>
    <path id="Path_544" data-name="Path 544" d="M817.082,319.15H598.1v182.9l218.982,4.939Z" transform="translate(139.771 74.576)" fill="#d4dfec"/>
    <path id="Path_545" data-name="Path 545" d="M709.814,486.193V693.7a4.938,4.938,0,0,1-4.749,4.873l-236.439,6.293h0a4.939,4.939,0,0,1-4.939-4.874v-213.8a4.939,4.939,0,0,1,4.873-4.873h236.38A4.939,4.939,0,0,1,709.814,486.193Z" transform="translate(10.477 -100.845)" fill="#65617d"/>
    <path id="Path_546" data-name="Path 546" d="M397.1,319.15H616.082v182.9L397.1,506.984Z" transform="translate(92.799 74.576)" fill="#d4dfec"/>
    <path id="Path_547" data-name="Path 547" d="M1040.009,533.65v16.037l-187.423,1.725-2,.037-71.234.653-1.7.025L756,552.313h-.637L623.38,553.535l-216.658,2.01h-.185l-55.085.518-.593.013L106.1,558.323V539.818l249.837-1.641h.593l50.569-.346h.234l349.235-2.307h.358l.21-.013h.58l5.909-.037h1.8l91.9-.617,5.428-.026,1.209-.013Z" transform="translate(24.792 124.704)" opacity="0.1"/>
    <circle id="Ellipse_43" data-name="Ellipse 43" cx="63.326" cy="63.326" r="63.326" transform="translate(537.802 272.428)" fill="#fbbebe"/>
    <path id="Path_548" data-name="Path 548" d="M383.74,813.222a1.528,1.528,0,0,1,.123-.432c1.233-4.429,3.43-11.918,5.071-17.9.21-.741.408-1.469.593-2.159,1.813-6.748,5.342-22.552,7.3-32.409.691-3.467,1.233-6.168,1.345-7.526.247-2.085,3.96-11.005,8.168-21.256,2.949-7.205,6.168-15.075,8.525-21.714a75.725,75.725,0,0,0,3.615-12.152,6.292,6.292,0,0,0,0-2.627,18.122,18.122,0,0,1-.593-4.319h0c-.284-7.647,2-19.74,5.526-24.809,4.317-6.168,7.4-29.19,7.4-29.19s6.39.926,7.4-4.355a7.588,7.588,0,0,0,.123-1.727,9.154,9.154,0,0,0-.112-1.37c-1.1-7.7,18.161-15.889,28.994-17.654a24.253,24.253,0,0,1,3.7-.346,33.617,33.617,0,0,0,7.71-1.776q1.727-.531,3.7-1.233c4.54-1.529,9.968-3.553,15.73-5.773,21.666-8.4,47.892-19.74,47.892-19.74.185-.876.4-1.714.629-2.549a34.186,34.186,0,0,1,20.171-23.354h0v-2.468c0-4.257-.185-8.636-.37-13,0-.851-.073-1.7-.123-2.549v-1.394c0-.863-.086-1.727-.135-2.579l-.221-.172A20.241,20.241,0,0,1,561.1,529.5a18.827,18.827,0,0,1-1.752-3.7c-1.542-4.182-1.9-8.846-2.936-13.262l-.221-.913a103.648,103.648,0,0,0-4.939-13.052c-2.727-6.691-4.824-13.571-6.909-20.541q-1.9-6.329-3.836-12.682l-1.95-6.465c-.37-1.233-.741-2.468-1.024-3.7h0a16.358,16.358,0,0,1-.319-1.727h0a12.337,12.337,0,0,1,.3-5.687,39.609,39.609,0,0,1,1.628-3.7,9.7,9.7,0,0,0,.616-1.7h0a3.722,3.722,0,0,0,.1-.4,6.976,6.976,0,0,0,.135-1.332,22.785,22.785,0,0,0-.637-4.8.086.086,0,0,1,0-.062,3.159,3.159,0,0,0-.062-.333,31.421,31.421,0,0,1-.444-3.7,35.1,35.1,0,0,1,4.281-19.209l.234-.444a31.089,31.089,0,0,1,2.27-3.43h0a17.367,17.367,0,0,1,1.233-1.505c-1.727,1.654-4.564.926-6.168-.851a4.462,4.462,0,0,1-.679-.925,3.895,3.895,0,0,1-.443-1.024c-.863-3.027.637-6.243,2.616-8.7a22.81,22.81,0,0,1,7.081-5.8h0a4.785,4.785,0,0,1,.494-.26,21.123,21.123,0,0,1,3.256-1.308h0a18.592,18.592,0,0,1,2.01-.543l-4.577-.419-1.851-.172a17.876,17.876,0,0,1,16.037-13.46h1.332a14.479,14.479,0,0,1,1.937.159,5.478,5.478,0,0,1-3.269-5.342,17.779,17.779,0,0,0,11.338,3.776h.468a37.02,37.02,0,0,1-.419-4.034h0a40.915,40.915,0,0,1,0-5.5,10.412,10.412,0,0,0,8.365,2.788l-2.566-3.578a11.708,11.708,0,0,0,8.093,2.53l.593-.062a8.65,8.65,0,0,0,1.469-.284h.112c-.234-.3-.444-.6-.653-.926l-.075-.148a11.933,11.933,0,0,1-1.233-2.579,8.145,8.145,0,0,1-.3-1.074h0a10.8,10.8,0,0,1,.556-6.724c3.983,3.331,8.352,7.884,13.57,4.441s5.391-9.759,13.571-9.117a12.585,12.585,0,0,1,10.364,7.556,8.327,8.327,0,0,1,9.463-2.159,8.443,8.443,0,0,1,4.779,8.5c3.393-.851,7.045-1.69,10.3-.408s5.354,5.44,3.5,8.217a1.768,1.768,0,0,1-.172.247c-1.518,1.961-4.873,3.035-4.515,5.5l.518.37,1.61,1.155q9.437,6.81,18.382,14.311c3.06,2.566,6.317,5.651,6.532,9.66a10.663,10.663,0,0,1-.3,2.923h0c-.2.956-.468,1.924-.679,2.887a24.066,24.066,0,0,0-.419,7.464h0c.086.728.2,1.443.333,2.171,1.888,9.536,9.512,17.407,10.264,27.141v.691a21.944,21.944,0,0,1-.086,3.121c-.567,5.921-3.306,11.609-5.526,17.272-.135.346-.271.691-.4,1.037a171.865,171.865,0,0,0-8.636,34.742,123.7,123.7,0,0,1-2.468,12.448,32.974,32.974,0,0,1-6.28,12.867,20.011,20.011,0,0,1-4.142,3.7,23.029,23.029,0,0,1-3.269,1.74v.073c.135.752.247,1.505.382,2.257.073.4.135.8.21,1.233h0a.17.17,0,0,0,0,.075c1.037,5.835,2.221,11.547,3.467,16.976l.629,2.708c15.545,5.614,17.384,17.111,17.494,21.516a11.894,11.894,0,0,1,0,1.764s23.44.616,32.693,7.4a25.082,25.082,0,0,0,5.565,2.837,102.371,102.371,0,0,0,11.411,3.565c1.986.518,4.059,1.024,6.168,1.518,3.7.851,7.624,1.678,11.411,2.468,10.1,2.036,19.615,3.7,24.439,4.939,11.51,2.912,37.837,28.153,37.837,28.153s3.084,25.464,6.168,29.177,8.636,16.765,8.636,16.765l20.406,36.284,8.636,15.26H857.8a9.437,9.437,0,0,1,3.96,2.59c1.469,1.308,3.1,2.936,4.527,4.416l2.369,2.53,1.48,1.641s8.969.221,11.4,7.315c7.3-.21,16.273.271,22.552,3.084a17.46,17.46,0,0,1,2.468,1.332,10.709,10.709,0,0,1,5.1,6.982,10.3,10.3,0,0,1,.221,1.776c0,.7,0,1.407,0,2.1-.444,9.339-6.531,17.111-12.107,22.343l.4.7s-.185.444-.543,1.233c-.1.234-.221.494-.358.8h0c-.728,1.555-1.888,3.885-3.4,6.613a78.113,78.113,0,0,1-11.806,16.249l-.357.37-71.234.653-.21-.247-13.817-16.482-6.871-8.192-.21-.26-.2,1.961-.666,6.532-1.6,15.8-.086.8V809l-.185,1.826.135-1.826h-.358l-132.005,1.233-216.658,2.39v1.037h-.172v-1.037l-55.208.593Z" transform="translate(-8.206 -132.008)" fill="url(#linear-gradient)"/>
    <path id="Path_549" data-name="Path 549" d="M639.124,575.783s-122.753,14.8-111.037,0c4.244-5.354,5.417-21.22,5.182-39.293-.075-5.49-.271-11.177-.556-16.84-1.357-27.141-4.62-53.666-4.62-53.666S635.424,415.4,623.088,455.5c-4.938,16.2-3.318,38.947.432,60.3,1.1,6.23,2.369,12.337,3.7,18.135a425.185,425.185,0,0,0,11.9,41.849Z" transform="translate(25.342 -110.492)" fill="#fbbebe"/>
    <path id="Path_550" data-name="Path 550" d="M639.124,558.552s-122.753,14.8-111.037,0c4.244-5.354,5.417-21.22,5.182-39.293,18.715-7.994,42.526-2.036,42.526-2.036,25.069-5,41.144-4.023,51.421-.518a425.207,425.207,0,0,0,11.905,41.847Z" transform="translate(25.342 -93.26)" opacity="0.1"/>
    <path id="Path_551" data-name="Path 551" d="M439.587,774.443v-1.037l216.658-2.356,132.005-1.233h.37l-.135,1.826.185-1.826h.234v-.209l1.69-16.594.637-6.28.2-1.961.172-1.641,7.624-25.427,7.625-25.389,6.415-21.381,9.8-32.667s-5.552-12.953-8.636-16.656-6.168-28.994-6.168-28.994-26.327-25.081-37.837-27.968c-4.824-1.233-14.347-2.867-24.465-4.938-3.787-.765-7.674-1.579-11.411-2.468-2.109-.478-4.182-.988-6.168-1.493a108.448,108.448,0,0,1-11.411-3.529,25.526,25.526,0,0,1-5.552-2.825c-9.068-6.649-31.793-7.4-32.669-7.4h0a.519.519,0,0,1,0-.086V541.8a12.587,12.587,0,0,0,0-1.555,9.892,9.892,0,0,0-.112-1.727,1.559,1.559,0,0,0-.086-.617c-.062-.444-.135-.913-.247-1.407a6.116,6.116,0,0,0-.148-.653,21.232,21.232,0,0,0-1.542-4.3c-.086-.2-.2-.408-.3-.605a22.522,22.522,0,0,0-2.1-3.245c-.159-.21-.333-.432-.518-.637a24.149,24.149,0,0,0-3.35-3.256c-.333-.26-.679-.53-1.037-.777a5.75,5.75,0,0,0-.629-.444l-1.1-.715-1.024-.593c-.9-.494-1.851-.975-2.887-1.434-.319-.148-.666-.284-1.012-.419s-.889-.346-1.345-.518h-.073l-.926-.37c-.7-.234-1.419-.444-2.171-.653l-1.147-.3-1.233-.284-1.233-.26c-1.233-.247-2.549-.468-3.935-.637l-1.407-.172-1.443-.148-1.493-.123-2.122-.123-2.468-.086a153.885,153.885,0,0,0-32.4,3.448,89.154,89.154,0,0,0-22.5-2.074h-1.074l-1.233.073h-.8l-1.593.148a11.854,11.854,0,0,0-1.6.185c-.531.073-1.085.135-1.615.221l-.814.135c-.8.135-1.615.284-2.468.456q-.408.075-.814.185c-1.074.234-2.146.518-3.207.839-.531.148-1.061.319-1.593.507-.271.073-.531.172-.8.271l-.8.284-.777.309-.926.37c-.468.2-.926.408-1.381.629-.26.112-.518.234-.765.37s-.507.247-.741.382a34.238,34.238,0,0,0-7.661,5.4l-.629.6-.617.629c-.21.21-.408.432-.6.653a29.37,29.37,0,0,0-2.245,2.775c-.2.26-.382.518-.567.8a32.957,32.957,0,0,0-2.122,3.6c-.159.3-.309.6-.457.9a40.33,40.33,0,0,0-2.468,6.477q-.346,1.233-.629,2.468s-26.117,11.523-47.781,19.862c-5.762,2.221-11.19,4.231-15.73,5.749-1.321.444-2.549.851-3.7,1.233a32.951,32.951,0,0,1-7.71,1.776,24.26,24.26,0,0,0-3.7.346c-9.957,1.617-27.019,8.636-28.881,15.681a4.555,4.555,0,0,0-.123,1.727s0,.086,0,.135c1.233,8.636-7.4,7.4-7.4,7.4s-3.084,22.824-7.4,28.994c-3.121,4.442-5.257,14.347-5.526,21.825h0a24.2,24.2,0,0,0,.543,6.946v.172c.494,1.654-.691,6.168-2.708,11.948-2.184,6.353-5.367,14.25-8.426,21.7-4.62,11.252-8.956,21.467-9.229,23.711-.112,1-.432,2.788-.876,5.1-1.8,9.4-5.8,27.3-7.773,34.544-1.469,5.4-3.6,12.805-5.071,17.889a1.734,1.734,0,0,1-.123.432l55.307-.543v1.037h.21Z" transform="translate(-8.117 -92.797)" fill="#44bba4"/>
    <path id="Path_552" data-name="Path 552" d="M445.44,607.57s70.321,36.394,95.611,32.076Z" transform="translate(6.214 -71.341)" opacity="0.1"/>
    <path id="Path_553" data-name="Path 553" d="M561.44,595.57s68.47,22.207,91.294,25.292S561.44,595.57,561.44,595.57Z" transform="translate(33.323 -74.145)" opacity="0.1"/>
    <path id="Path_554" data-name="Path 554" d="M648.052,542.3c-35.777,6.587-103.137,5.169-132.252,4.171,10.674-38.245,62.71-25.242,62.71-25.242C642.927,508.369,647.854,535.04,648.052,542.3Z" transform="translate(22.657 -92.326)" opacity="0.1"/>
    <path id="Path_555" data-name="Path 555" d="M648.052,540.3c-35.777,6.587-103.137,5.169-132.252,4.171,10.674-38.245,62.71-25.242,62.71-25.242C642.927,506.369,647.854,533.04,648.052,540.3Z" transform="translate(22.657 -92.794)" fill="#44bba4"/>
    <path id="Path_556" data-name="Path 556" d="M776.94,672.528s42.143-6.477,42.97,12.029-21.491,31.435-21.491,31.435Z" transform="translate(83.685 -56.417)" fill="#fbbebe"/>
    <path id="Path_557" data-name="Path 557" d="M623.378,515.8a57.989,57.989,0,0,1-5.552,2.146c-13.3,4.59-26.709,9.216-40.713,10.893s-28.7.2-40.91-6.785a35.521,35.521,0,0,1-3.7-2.406c-1.357-27.141-4.62-53.666-4.62-53.666s107.332-50.582,94.995-10.487C617.963,471.695,619.628,494.444,623.378,515.8Z" transform="translate(25.482 -110.49)" opacity="0.1"/>
    <path id="Path_558" data-name="Path 558" d="M562.941,367.875a11.683,11.683,0,0,1-10.264-2.159l2.566,3.565a10.449,10.449,0,0,1-8.365-2.775,42.046,42.046,0,0,0,.4,9.558,17.913,17.913,0,0,1-11.789-3.7,5.453,5.453,0,0,0,3.256,5.318A17.691,17.691,0,0,0,519.495,390.9l6.439.593a22.781,22.781,0,0,0-12.88,7.859c-1.974,2.468-3.479,5.625-2.616,8.636s5.034,4.939,7.3,2.788a34.469,34.469,0,0,0-7.526,28.116,17.844,17.844,0,0,1,.567,6.489,55.051,55.051,0,0,1-2.332,5.786c-1.233,3.6-.062,7.513,1.037,11.1l5.786,19.024c2.1,6.871,4.182,13.756,6.92,20.406a101.281,101.281,0,0,1,4.938,12.966c1.555,5.971,1.615,12.51,4.939,17.728a24.587,24.587,0,0,0,8.858,7.806c12.2,6.982,26.944,8.464,40.91,6.785s27.364-6.3,40.65-10.893a38.254,38.254,0,0,0,8.443-3.7c9.19-6.02,11.239-18.333,12.953-29.177a165.686,165.686,0,0,1,8.995-35.525c2.689-6.774,6.168-13.645,5.576-20.9-.752-9.635-8.376-17.444-10.264-26.923a23.437,23.437,0,0,1,.086-9.586,21.789,21.789,0,0,0,.975-5.8c-.21-3.973-3.467-7.032-6.532-9.586q-9.955-8.316-20.551-15.717c-.358-2.468,3-3.529,4.515-5.477,2.146-2.751-.073-7.118-3.331-8.4s-6.909-.444-10.3.406a8.125,8.125,0,0,0-14.248-6.3,12.585,12.585,0,0,0-10.388-7.5c-8.179-.637-8.34,5.614-13.571,9.055s-9.549-1.1-13.571-4.4a11.448,11.448,0,0,0,1.666,11.328Z" transform="translate(20.817 -131.102)" fill="#3f3d56"/>
    <path id="Path_559" data-name="Path 559" d="M825.016,724.461s-1.1,2.616-3.121,6.4a85.124,85.124,0,0,1-11.1,16.249l-.333.358h-2l-71.234.655h-1.7l-.21-.247-13.817-16.4-5.206-6.181-.21-.26-.444-.518-.247-.3-.319-.382L704.94,711.829l3.7-15.421,6.3-25.981.159-.629,1.233-4.938.876-3.7,2.936-12.066,10.067-41.514,17.889,9.253,18.867,33.316L777.1,668.036h5.552c1.048,0,3.454,2.023,5.872,4.355.863.827,1.727,1.7,2.468,2.468,2.2,2.27,3.935,4.22,3.935,4.22s8.995.2,11.411,7.279a8.623,8.623,0,0,1,.309,1.048,49.736,49.736,0,0,0,3.121,8.093c1.593,3.467,3.591,7.4,5.614,11.338,3.763,7.217,7.588,14.089,8.993,16.581l.172.309Z" transform="translate(66.859 -71.339)" fill="#44bba4"/>
    <path id="Path_560" data-name="Path 560" d="M783.535,659.891l-.123,1.764v.123l-.21,2.837-1.641,22.835-1.987,27.511-.567,7.747-1.233,16.581v.21l-132.005,1.233-216.626,2.343v1.037h-.172v-1.381l.556-17.716,1.061-34.617.913-29.349.086-2.923a12.991,12.991,0,0,1,14.089-12.547c5.823.494,13.382,1.1,22.429,1.74l3.7.271c52.222,3.627,148.734,8.316,246.129,2.468,2.049-.112,4.109-.234,6.168-.382,15.1-.956,30.189-2.171,45.129-3.7a12.991,12.991,0,0,1,14.31,13.86Z" transform="translate(2.365 -62.469)" opacity="0.1"/>
    <path id="Path_561" data-name="Path 561" d="M429.08,743.174v-1.037l216.658-2.356,132.005-1.233h.37v-.21l1.233-16.581.531-7.4L781.9,686.46l1.593-22.083v-.543a13.11,13.11,0,0,0-.135-3.048.37.37,0,0,0,0-.123,12.817,12.817,0,0,0-2.468-5.724A13,13,0,0,0,769.26,650c-14.94,1.529-30.028,2.751-45.129,3.7-2.06.148-4.121.271-6.168.382-97.388,5.786-193.9,1.1-246.129-2.468l-3.7-.271c-9.042-.637-16.606-1.233-22.429-1.74a13,13,0,0,0-13.86,10.524,13.568,13.568,0,0,0-.221,2.023l-.84,27.339-1.147,34.63-.543,17.717v1.381Z" transform="translate(2.39 -61.529)" fill="#3f3d56"/>
    <path id="Path_562" data-name="Path 562" d="M783.871,665.842l-1.518,18.913-2.257,28.2-.567,7.057-1.233,15.8-.073.8v.21h0l-.185,1.826.135-1.826h-.355l-132.005,1.233-216.7,2.329v-.346l.6-17.717,1.233-34.617.8-23.009a7.846,7.846,0,0,1,3.776-6.477,7.711,7.711,0,0,1,4.663-1.115c2.59.21,5.773.456,9.487.728,6.033.444,13.473.956,22.133,1.505,16.037,1.012,36.163,2.1,59.218,2.985,64.153,2.468,150.759,3.294,233.022-3.911,3.7-.319,7.526-.679,11.263-1.037a7.721,7.721,0,0,1,4.293.814,6.387,6.387,0,0,1,1.061.666,7.576,7.576,0,0,1,2.468,3.035,4.4,4.4,0,0,1,.308.752A7.748,7.748,0,0,1,783.871,665.842Z" transform="translate(2.398 -59.772)" opacity="0.1"/>
    <path id="Path_563" data-name="Path 563" d="M388.465,677.87V681.8a7.562,7.562,0,0,1-4.319,6.834l-49.471.956a7.549,7.549,0,0,1-4.4-6.871v-3.707Z" transform="translate(-20.702 -54.911)" opacity="0.1"/>
    <path id="Path_564" data-name="Path 564" d="M310.81,517.6l-64.46,1.233v-10.7l64.46-1.233Z" transform="translate(57.569 118.452)" fill="#3f3d56"/>
    <path id="Path_565" data-name="Path 565" d="M310.81,517.6l-64.46,1.233v-10.7l64.46-1.233Z" transform="translate(57.569 118.452)" opacity="0.1"/>
    <path id="Path_566" data-name="Path 566" d="M312.81,517.6l-64.46,1.233v-10.7l64.46-1.233Z" transform="translate(58.035 118.452)" fill="#3f3d56"/>
    <g id="Group_34" data-name="Group 34" transform="translate(529.298 227.373)" opacity="0.1">
      <path id="Path_567" data-name="Path 567" d="M553.4,362.574a12.028,12.028,0,0,1-2.332-5.354,11.705,11.705,0,0,0,.518,5.674,11.091,11.091,0,0,0,1.814-.32Z" transform="translate(-498.433 -357.22)"/>
      <path id="Path_568" data-name="Path 568" d="M540.316,369.064a43.4,43.4,0,0,1-.456-4.564v4.577Z" transform="translate(-501.018 -355.518)"/>
      <path id="Path_569" data-name="Path 569" d="M621.746,403.533a22.63,22.63,0,0,1,.445-3.269,22.207,22.207,0,0,0,.988-5.786,7.6,7.6,0,0,0-.2-1.308c-.21,1.134-.543,2.27-.8,3.393A23.614,23.614,0,0,0,621.746,403.533Z" transform="translate(-481.902 -348.819)"/>
      <path id="Path_570" data-name="Path 570" d="M600.935,371.854l1.345.975a24.307,24.307,0,0,0,3.17-2.739,4.528,4.528,0,0,0,.468-4.491,3.7,3.7,0,0,1-.468.8C603.933,368.339,600.576,369.412,600.935,371.854Z" transform="translate(-486.751 -355.261)"/>
      <path id="Path_571" data-name="Path 571" d="M518.964,380.29a15.189,15.189,0,0,0-1.074,2.813,22.4,22.4,0,0,1,6.168-2.332Z" transform="translate(-506.152 -351.828)"/>
      <path id="Path_572" data-name="Path 572" d="M532.991,369.7a18.3,18.3,0,0,1-2.319-1.518,5.238,5.238,0,0,0,.111,1.456,14.625,14.625,0,0,1,2.208.062Z" transform="translate(-503.167 -354.658)"/>
      <path id="Path_573" data-name="Path 573" d="M658.807,428.33c-.507,5.984-3.294,11.744-5.552,17.42a165.6,165.6,0,0,0-8.993,35.543c-1.714,10.844-3.7,23.157-12.953,29.164a37.012,37.012,0,0,1-8.426,3.7c-13.3,4.6-26.709,9.216-40.713,10.893s-28.7.21-40.91-6.774a24.675,24.675,0,0,1-8.857-7.806c-3.295-5.219-3.355-11.757-4.939-17.728a101.436,101.436,0,0,0-4.938-12.979c-2.726-6.637-4.824-13.571-6.909-20.391q-2.9-9.512-5.786-19.036a35.542,35.542,0,0,1-1.407-5.859,22.111,22.111,0,0,0,1.407,9.558q2.887,9.536,5.786,19.036c2.085,6.871,4.182,13.756,6.909,20.391a101.426,101.426,0,0,1,4.939,12.979c1.555,5.971,1.615,12.51,4.938,17.728a24.673,24.673,0,0,0,8.857,7.806c12.214,6.982,26.944,8.443,40.91,6.772s27.364-6.293,40.713-10.893a37,37,0,0,0,8.426-3.7c9.19-6.008,11.239-18.32,12.953-29.164a165.593,165.593,0,0,1,8.993-35.543c2.689-6.761,6.168-13.632,5.576-20.9C658.831,428.478,658.807,428.4,658.807,428.33Z" transform="translate(-508.364 -340.601)"/>
      <path id="Path_574" data-name="Path 574" d="M510.837,426.487v-.135a17.268,17.268,0,0,0-.567-6.477,32.825,32.825,0,0,1-.478-4.1,33.743,33.743,0,0,0,.478,7.8C510.472,424.54,510.689,425.515,510.837,426.487Z" transform="translate(-508.057 -343.535)"/>
      <path id="Path_575" data-name="Path 575" d="M514.5,401.381a34.207,34.207,0,0,1,3.22-4.528c-2.257,2.159-6.428.234-7.3-2.764a7.193,7.193,0,0,0,0,3.7,5.417,5.417,0,0,0,4.083,3.591Z" transform="translate(-507.957 -348.603)"/>
    </g>
    <path id="Path_576" data-name="Path 576" d="M763.769,656.57s3.911,14.188,0,26.525S763.769,656.57,763.769,656.57Z" transform="translate(80.201 -59.888)" opacity="0.1"/>
    <path id="Path_577" data-name="Path 577" d="M777.565,668.3s1.641,18.011-2.06,21.207S777.565,668.3,777.565,668.3Z" transform="translate(83.059 -57.149)" opacity="0.1"/>
    <line id="Line_23" data-name="Line 23" y1="1.233" x2="125.356" transform="translate(245.49 421.743)" fill="none" stroke="#44bba4" stroke-miterlimit="10" stroke-width="2"/>
    <line id="Line_24" data-name="Line 24" y1="1.222" x2="125.356" transform="translate(245.49 437.139)" fill="none" stroke="#44bba4" stroke-miterlimit="10" stroke-width="2"/>
    <line id="Line_25" data-name="Line 25" y1="1.233" x2="125.356" transform="translate(245.49 452.523)" fill="none" stroke="#44bba4" stroke-miterlimit="10" stroke-width="2"/>
  </g>
</svg>
