<svg xmlns="http://www.w3.org/2000/svg" xmlns:xlink="http://www.w3.org/1999/xlink" width="1288.914" height="615.623" viewBox="0 0 1288.914 615.623">
  <defs>
    <linearGradient id="linear-gradient" y1="0.5" x2="1" y2="0.5" gradientUnits="objectBoundingBox">
      <stop offset="0" stop-color="gray" stop-opacity="0.251"/>
      <stop offset="0.54" stop-color="gray" stop-opacity="0.122"/>
      <stop offset="1" stop-color="gray" stop-opacity="0.102"/>
    </linearGradient>
    <linearGradient id="linear-gradient-2" x1="-8.171" y1="1" x2="-8.171" y2="0" xlink:href="#linear-gradient"/>
  </defs>
  <g id="sup5" transform="translate(-0.006 0.03)">
    <path id="Path_321" data-name="Path 321" d="M1297.05,678.532a92.6,92.6,0,0,1-25.467,30.559q-2.258,1.812-4.606,3.511-3.155,2.219-6.466,4.352c-17.151,10.885-37.244,18.324-56.845,23.751q-8.016,2.219-16.088,4.163-6.815,1.65-13.63,3.078c-1.728.377-3.455.731-5.182,1.109s-3.709.742-5.536,1.109l-2.625.5c-50.733,9.351-102.131,11.138-153.905,8.791l-2.458-.122-3.93-.2q-15.766-.819-31.567-2.092l-3.986-.317L963,756.578q-8.858-.742-17.715-1.628-11.671-1.109-23.373-2.447l-1.008-.111-.819-.1h0c-27.847-3.133-55.76-6.9-83.707-10.763l-3.953-.553-7.1-.986-5.98-.83h0l-1.772-.244q-14.149-1.983-28.3-3.919l-1.528-.211c-17.716-2.425-35.531-4.755-53.291-6.888l-2.314-.277h0q-10.907-1.295-21.8-2.469l-5.536-.586-7.363-.742c-20.407-2.025-40.8-3.645-61.153-4.65q-14.682-.731-29.431-1.109-12.18-.277-24.359-.317-16.521-.078-33.106.189h-2.5c-15.579.255-31.192.7-46.813,1.228l-2.813.089h-.93c-33.217,1.174-66.434,2.735-99.562,3.853l-8.094.266H387.5q-17.275.553-34.513.853h-6.843l-5.138.067q-8.005.078-15.977.089h-6.518c-19.51-.055-38.941-.487-58.251-1.495l-2.147-.122a737.27,737.27,0,0,1-111.067-13.818q-5.658-1.186-11.294-2.48a518.612,518.612,0,0,1-73.963-22.487c-11.338-4.43-22.743-9.544-31.367-18.2-21.882-22.157-13.666-65.534,14.8-78.138,22.267-9.866,48.352-1.838,72.3-6.289a36.932,36.932,0,0,0,4.352-1.109,60.477,60.477,0,0,0,8.858-3.653c.975-.487,1.949-1.008,2.934-1.55a74.733,74.733,0,0,0,6.555-4.008,100.612,100.612,0,0,0,9.966-7.563q2.1-1.794,4.1-3.72a78.354,78.354,0,0,0,12.091-14.471,51.145,51.145,0,0,0,3.328-6.244,32.967,32.967,0,0,0,1.372-3.455,32.174,32.174,0,0,0,1.317-5.116c1.395-8.216-.864-16.232-8.725-23.009a23.176,23.176,0,0,0-2.219-1.672,33.836,33.836,0,0,0-4.805-2.78c-.675-.317-1.372-.634-2.081-.93-10.121-4.263-23.174-5.9-34.181-8.858h0a60.349,60.349,0,0,1-9.788-3.4c-2-.93-4-1.9-5.957-2.923h0l-.52-.288h0a133.3,133.3,0,0,1-43.184-35.429A115.424,115.424,0,0,1,52.887,439.5c-.742-1.217-1.461-2.469-2.147-3.72-19.454-35.1-21.459-80.075-1.217-114.585a108.44,108.44,0,0,1,8.194-12.024q1.461-1.894,3.022-3.72c19.265-22.732,46.947-38.133,74.894-49.538,37.513-15.3,76.786-24.968,116.813-31.334q12.18-1.938,24.359-3.477c33.992-4.341,68.383-6.644,102.531-8.4q47.91-2.425,96.24-3.133,16.376-.222,32.786-.189,36.97,0,73.941,1.426,12.18.464,24.359,1.109,31.236,1.617,62.348,4.43,14.948,1.35,29.829,2.978c75.558,8.26,150.019,22.267,221.913,44.046q12.235,3.7,24.359,7.75a940.74,940.74,0,0,1,89.01,34.4q4.12,1.849,8.216,3.72,27.228,12.49,53.679,26.917a596.969,596.969,0,0,1,67.1,42.075q12.534,9.192,24.359,19.177a350.353,350.353,0,0,1,38.875,38.354q1.594,1.849,3.155,3.72,8.105,9.733,15.391,20.162c23.7,34.059,39.594,73.011,51.332,112.805C1306.582,607.179,1313.469,646.164,1297.05,678.532Z" transform="translate(-17.96 -168.023)" fill="#44bba4" opacity="0.1"/>
    <path id="Path_322" data-name="Path 322" d="M1278.987,559.75H1184.4V439.428h42.075q-1.561-1.872-3.156-3.72h-38.875V397.355q-11.8-9.966-24.359-19.177v57.576H942V309.172h97.232q-4.108-1.872-8.216-3.72H942.01v-34.4q-12.18-4.019-24.359-7.75v42.075H606.429l-.742-.708,90.029-85.457q-14.882-1.639-29.829-2.978L603.54,275.4V211.849q-12.18-.642-24.359-1.109v68.748L505.239,209.31q-16.4,0-32.786.189l100.271,95.167-.742.708H273.66V221.146q-12.18,1.539-24.359,3.477V305.45H57.573q-1.561,1.827-3.022,3.72H249.279V435.7H47.53c.686,1.25,1.406,2.5,2.147,3.72h199.6V559.748H151.1q-1.994,1.927-4.1,3.72H249.279V686.592q12.18,1.743,24.359,3.632V563.468h305.52V717.739q12.18,0,24.359.317V563.471H917.635V752.332l1.008.111q11.693,1.306,23.373,2.447V563.471h218V750.107c1.861-.344,3.72-.708,5.536-1.109s3.455-.7,5.182-1.109q6.815-1.45,13.63-3.078V563.471h95.356Zm-699.829,0H273.66V439.428h305.5Zm0-124.01H273.66V309.172H574.828l4.3,3.388ZM917.629,559.75H603.54V439.428h314.09Zm0-124.01H603.54V309.172h314.09Zm242.384,124.01h-218V439.428h218Z" transform="translate(-14.79 -168.029)" fill="#44bba4" opacity="0.1"/>
    <path id="Path_323" data-name="Path 323" d="M315.162,679.24a1.577,1.577,0,0,1-.122.366h0a.979.979,0,0,1,.133-.366Z" transform="translate(13.896 -117.636)" fill="#eaecf0"/>
    <path id="Path_324" data-name="Path 324" d="M321.942,679.163H315.1l-5.138.067-.564-5.835-.52-5.536L306.463,642.6l-.078-.775v-.344l-.675-7.108,10.341-3.875,1.268,10.3.089.764v.089l2.558,20.92.792,6.422.453,3.731.388,3.2v.111Z" transform="translate(12.896 -122.863)" fill="#eaecf0"/>
    <path id="Path_325" data-name="Path 325" d="M336.019,507.2l.122.366h-.819l-.122-.366Z" transform="translate(35.944 54.393)" fill="#3a3768"/>
    <path id="Path_326" data-name="Path 326" d="M439.4,679.55Z" transform="translate(27.233 -117.602)" fill="#3a3768"/>
    <path id="Path_327" data-name="Path 327" d="M518.165,548.686v.475s-9.655,26.385-12.8,48.907q-.317,2.219-.531,4.428c-.158,1.561-.277,3.089-.344,4.572q-.133,2.615-.067,5.027v1.109c0,.742.078,1.506.122,2.292s.111,1.572.178,2.391.133,1.539.211,2.325c2.377,24.359,11.427,60.023,11.427,60.023s.3.964.686,2.6h-2.5c-15.579.255-31.191.7-46.813,1.228l-2.813.089h-.93c-33.217,1.174-66.434,2.735-99.562,3.853l-8.094.266h-1.171q-17.275.553-34.512.853H317.6a18.647,18.647,0,0,1,2.68-3.022,19.494,19.494,0,0,1,2.709-2.1,61.052,61.052,0,0,1,17-7.29,13.555,13.555,0,0,1,3.886-.475l7.75.158h1.2l11.886.233,102,2.027h.255l.72-.144a19.075,19.075,0,0,0,3.444-1.217,12.091,12.091,0,0,0,7.263-9.389c0-.344.089-.708.111-1.109a13.035,13.035,0,0,0,0-1.617,5.5,5.5,0,0,0-.089-1.185c-.089-.409-.111-.819-.188-1.239-2.458-13.741-6.644-56.037-6.644-56.037v.133s0-1.805.1-4.839v-1.395c0-.675.078-1.406.122-2.219,0-.475.067-.964.1-1.472.055-.742.122-1.506.189-2.3a.648.648,0,0,1,0-.144q.066-.753.133-1.528v-.158c1.65-16.324,6.843-42.186,23.251-51.763,7.7-4.506,12.788-5.414,16.143-4.528,4.894,1.284,6.122,6.377,6.389,9.688v.642a16.166,16.166,0,0,1,.159,1.872Z" transform="translate(14.172 -132.97)" fill="#3a3768"/>
    <path id="Path_328" data-name="Path 328" d="M315.162,679.24a1.577,1.577,0,0,1-.122.366h0a.979.979,0,0,1,.133-.366Z" transform="translate(13.896 -117.636)" opacity="0.1"/>
    <path id="Path_329" data-name="Path 329" d="M336.019,507.2l.122.366h-.819l-.122-.366Z" transform="translate(35.944 54.393)" opacity="0.1"/>
    <path id="Path_330" data-name="Path 330" d="M439.4,679.55Z" transform="translate(27.233 -117.602)" opacity="0.1"/>
    <path id="Path_331" data-name="Path 331" d="M518.173,548.724v.344a301.34,301.34,0,0,0-11.76,42.618h0q-.4,2.219-.731,4.279c-.111.708-.211,1.417-.317,2.125q-.317,2.219-.531,4.43c-.159,1.561-.277,3.089-.344,4.572q-.133,2.615-.067,5.027v1.109c0,.742.078,1.506.122,2.292s.111,1.585.178,2.391.133,1.539.211,2.325.159,1.539.244,2.314c.355,3.133.792,6.422,1.306,9.766,3.466,22.554,9.877,47.821,9.877,47.821s.317,1.019.708,2.724h-2.5c-15.579.255-31.191.7-46.813,1.23l-2.813.089h-.93c-33.217,1.174-66.434,2.735-99.562,3.853l-8.094.266H355.18q-17.275.553-34.512.853H317.53a19.013,19.013,0,0,1,2.769-3.133,18.337,18.337,0,0,1,2.731-2.125,61.718,61.718,0,0,1,17-7.291,13.949,13.949,0,0,1,3.886-.464l7.75.158h1.2l11.924.233,102.076,2.016h.177a2.8,2.8,0,0,0,.792-.158,17.9,17.9,0,0,0,3.466-1.251,12.08,12.08,0,0,0,7.164-9.2c0-.344.089-.708.111-1.109a13.058,13.058,0,0,0,0-1.617,5.5,5.5,0,0,0-.089-1.184c-.089-.409-.111-.9-.189-1.362-2.458-13.741-6.644-56.037-6.644-56.037s0-1.805.1-4.839V600.4c0-.675.078-1.406.122-2.219,0-.475.067-.964.1-1.472.055-.742.122-1.506.189-2.3a.655.655,0,0,1,0-.144q.067-.753.133-1.528v-.158c.2-2.038.464-4.23.792-6.522,2.3-16.032,8.061-36.971,22.41-45.4,7.5-4.43,12.512-5.358,15.877-4.6,5.182,1.185,6.411,6.522,6.644,9.888v.642a16.19,16.19,0,0,1,.159,2.138Z" transform="translate(14.164 -133.009)" opacity="0.1"/>
    <path id="Path_332" data-name="Path 332" d="M315.162,679.24a1.577,1.577,0,0,1-.122.366h0a.979.979,0,0,1,.133-.366Z" transform="translate(13.896 -117.636)" fill="#3a3768"/>
    <path id="Path_333" data-name="Path 333" d="M336.019,507.2l.122.366h-.819l-.122-.366Z" transform="translate(35.944 54.393)" fill="#3a3768"/>
    <path id="Path_334" data-name="Path 334" d="M439.4,679.55Z" transform="translate(27.233 -117.602)" fill="#3a3768"/>
    <path id="Path_335" data-name="Path 335" d="M515.7,547.878s-14.449,39.484-13.752,63.112,11.98,68.028,11.98,68.028.487,1.561,1.008,4.052c-15.579.255-31.191.7-46.813,1.228l-2.813.089h-.93c-33.217,1.174-66.434,2.735-99.562,3.853l-8.094.266h-1.174q-17.275.553-34.512.853H314.19a19.932,19.932,0,0,1,6.079-6.389l.3-.211a61.631,61.631,0,0,1,16.985-7.141,13.931,13.931,0,0,1,3.886-.464l10.23.2h1.2l12.324.244,99.37,1.983a16.715,16.715,0,0,0,4.108-1.339,11.793,11.793,0,0,0,1.268-.675h0a13.28,13.28,0,0,0,3.328-2.713,12.543,12.543,0,0,0,2.558-11.072c-2.469-13.741-6.644-56.037-6.644-56.037s-.708-51.465,23.96-65.914c9.966-5.835,15.568-5.636,18.7-3.328a2.094,2.094,0,0,1,.266.2C516.416,540.182,515.7,547.878,515.7,547.878Z" transform="translate(13.806 -133.104)" fill="#3a3768"/>
    <path id="Path_336" data-name="Path 336" d="M138.447,634.505l-.4,4.13-2.414,25.345q-5.658-1.185-11.294-2.48l2.824-23.042.951-7.828Z" transform="translate(-6.552 -122.849)" fill="#eaecf0"/>
    <path id="Path_337" data-name="Path 337" d="M55.12,467.13l60.3-128.34,242.895,18.945L380.7,467.13Z" transform="translate(5.909 36.334)" fill="#efc6cd"/>
    <path id="Path_338" data-name="Path 338" d="M55.12,465.894V454.7H380.7v16.365Z" transform="translate(5.909 48.764)" fill="#d48a9b"/>
    <path id="Path_339" data-name="Path 339" d="M156.233,615.884,301.9,618.85a2.016,2.016,0,0,0,1.96-2.647l-22.709-61.253-98.112-1.872-29.02,59.415a2.414,2.414,0,0,0,2.219,3.388Z" transform="translate(-3.392 -131.165)" fill="#dfe6f5"/>
    <path id="Path_340" data-name="Path 340" d="M156.233,615.884,301.9,618.85a2.016,2.016,0,0,0,1.96-2.647l-22.709-61.253-98.112-1.872-29.02,59.415a2.414,2.414,0,0,0,2.219,3.388Z" transform="translate(-3.392 -131.165)" opacity="0.15"/>
    <path id="Path_341" data-name="Path 341" d="M154.94,613.565l147.174,3.1-20.007-60.6a4.994,4.994,0,0,0-4.639-3.433l-94.579-1.794Z" transform="translate(-3.271 -131.405)" fill="#dfe6f5"/>
    <path id="Path_342" data-name="Path 342" d="M165.96,599.127,183.6,560.314a4.706,4.706,0,0,1,4.279-2.747h43.835a4.683,4.683,0,0,1,4.683,4.683v41.93a4.694,4.694,0,0,1-4.913,4.683l-61.492-3.133a4.683,4.683,0,0,1-4.03-6.61Z" transform="translate(-2.135 -130.685)" fill="#4c4c56"/>
    <path id="Path_343" data-name="Path 343" d="M244,593.129l.753-22.145a3.4,3.4,0,0,1,3.388-3.328H261.1a3.388,3.388,0,0,1,3.328,2.812l3.8,22.03a3.4,3.4,0,0,1-3.328,3.975l-17.527.158a3.388,3.388,0,0,1-3.373-3.5Z" transform="translate(6.279 -129.604)" fill="#d1d9ec"/>
    <path id="Path_344" data-name="Path 344" d="M89.51,460.977l48.84-4.075a3.328,3.328,0,0,1,3.477,1.96L188.01,563.4l-25.776,57.868c.808-1.816,1.406,12.313-4.43.067L84.4,468.207C83.421,466.16,87.218,461.266,89.51,460.977Z" transform="translate(-10.852 -141.482)" fill="#4c4c56"/>
    <path id="Path_345" data-name="Path 345" d="M89.51,460.977l48.84-4.075a3.328,3.328,0,0,1,3.477,1.96L188.01,563.4l-25.776,57.868c.808-1.816,1.406,12.313-4.43.067L84.4,468.207C83.421,466.16,87.218,461.266,89.51,460.977Z" transform="translate(-10.852 -141.482)" opacity="0.15"/>
    <path id="Path_346" data-name="Path 346" d="M89.293,461.217l51.321-6.555a3.328,3.328,0,0,1,3.477,1.96l46.194,104.534-27.947,62.725L86.662,465.967a3.328,3.328,0,0,1,2.625-4.755Z" transform="translate(-10.629 -141.722)" fill="#4c4c56"/>
    <path id="Path_347" data-name="Path 347" d="M100.847,467.784l37.1-5.78a3.328,3.328,0,0,1,3.6,2.038l38.857,95.066a3.011,3.011,0,0,1-.067,2.436l-17.793,37.181a3,3,0,0,1-5.436,0L98.33,472.5a3.328,3.328,0,0,1,2.514-4.717Z" transform="translate(-9.376 -140.935)" fill="#44bba4"/>
    <path id="Path_348" data-name="Path 348" d="M439.4,679.55Z" transform="translate(27.233 -117.602)" fill="#fff"/>
    <path id="Path_349" data-name="Path 349" d="M487.208,689.443s-.764,1.268-1.883,3.328l-.1.189c-1,1.772-2.219,4.1-3.455,6.644l-2.813.089h-.93c-33.217,1.174-66.434,2.735-99.562,3.853l-8.094.266H369.2q-17.275.553-34.512.853h-6.843l-5.138.067q-8.005.078-15.977.089h-6.339c-19.51-.055-38.941-.487-58.251-1.495l-2.147-.122c3.8-8.26,10.585-21.8,16.1-26.131,4.263-3.328,34.878-7.008,63.034-9.71l2.967-.288h.067l7.861-.731c10.777-.986,20.551-1.783,27.526-2.325l.642-.055-3.632-12.18-5.26-17.715,1.495-14.882.122-1.2h-.159a9.778,9.778,0,0,1-4.43-.553l-52.586-1.821h-.951l-20.2-.72h0c-10.829-.388-18.524-.675-18.823-.731a4.779,4.779,0,0,1-.93-.255,4.186,4.186,0,0,1-1.284-.775,5.14,5.14,0,0,1-1.109-1.328h-.708l-2.853.189-1.45.1c-.055-.158-.1-.317-.158-.453-.133-.431-.266-.842-.388-1.268h-.754l-9.966-.211h-.177s-25.71,1.96-39.146-2.934h0c-4.927-1.794-8.2-4.506-7.95-8.569a9.263,9.263,0,0,1,.575-2.694c-4.319-8.072,16.774-22.8,32.852-18.735a28.455,28.455,0,0,0,13.354.553,17.186,17.186,0,0,0,6.644-3.022c.2-.144.377-.288.542-.433-.266-.159-.542-.317-.792-.442a12.379,12.379,0,0,0-3.51-1.217l4.363-1.268h.067s15.5-1.417,25.587-1.983h.067c3-.158,5.536-.255,7.042-.211,6.644.189,19.587-4.561,20.14-6.022s6.466,0,6.466,0l5.171-2.016c5.171-2,8.127-4.739,8.127-6.755s4.615-4.208,4.615-4.208c2.081-3.5,6.167-7.252,10.46-10.574,3.709-2.867,7.563-5.425,10.419-7.208a210.055,210.055,0,0,1,4.428-21.3c1.96-6.544,8.038-11.393,10.219-12.966l.792-.531a57.409,57.409,0,0,0-2.436-8.1,6.223,6.223,0,0,0-.266-.664c-.222-.52-.453-1.03-.686-1.506l-.344-.664c-.564.111-1.109.211-1.705.288a38.737,38.737,0,0,1-5.536.409A37.989,37.989,0,0,1,306.839,459.7v-.066a37.489,37.489,0,0,1-1.328-9.966,36.454,36.454,0,0,1,1.268-9.566h0c.158-.664.366-1.317.575-1.971a1.76,1.76,0,0,1,.078-.222c.1-.3.2-.609.317-.908a38.943,38.943,0,0,1-4.949.431H301.69a23.429,23.429,0,0,1-9.268-1.539h0a12.578,12.578,0,0,1-2.049-1.109.267.267,0,0,1-.089-.067A10.386,10.386,0,0,1,288,432.914a11.737,11.737,0,0,0,4.506-7.839c.3-2.392-.1-5.06,1.328-7.008a10.054,10.054,0,0,1,2.591-2.219c5.891-4.019,10.563-9.533,15.888-14.283s11.771-8.858,18.934-9.08c9.611-.3,18.067,6.389,27.592,7.652a74.718,74.718,0,0,1,8.78.986,30.231,30.231,0,0,1,8.913,4.517,22.377,22.377,0,0,1,6.355,5.4,19.055,19.055,0,0,1,2.591,6.189,68.446,68.446,0,0,1,2.219,14.184c.255,5.016,0,10.065.531,15.047a25.808,25.808,0,0,0,4.252,12.1h.144A16.627,16.627,0,0,0,394,460.248c-.941.3-1.883.564-2.853.792a44.9,44.9,0,0,1-4.861.964,14.164,14.164,0,0,1-2.27.189,6.765,6.765,0,0,1-1.572-.144l.975.653,2.694,1.816h0l1.019.675,2.048,1.361c.464-1.361,1.109-1.727,1.849-1.639,1.506-1.417,3.753,1.65,3.753,1.65,1.317,2.525,4.861,5.038,7.994,6.9a63.16,63.16,0,0,0,5.68,2.967c41.377,24.659,38.753,61.551,41.189,64.475s2.591,13.508,2.591,13.508,6.1,35.976,8.858,39.086.177,4.2,2.58,7.674,1.849,12.777,1.849,12.777,1.661,21.912,7.574,26.662c5.3,4.263,12.39,40.127,13.788,47.457Z" transform="translate(0.152 -148.39)" fill="url(#linear-gradient)"/>
    <path id="Path_350" data-name="Path 350" d="M244.4,556.44s-5.747,9.046-22.029,4.883-37.811,11.582-31.667,19.354,45.774-2.219,45.774-2.219l15.2-3.078-1-12.655Z" transform="translate(0.446 -130.804)" fill="#d38884"/>
    <path id="Path_351" data-name="Path 351" d="M244.4,556.44s-5.747,9.046-22.029,4.883-37.811,11.582-31.667,19.354,45.774-2.219,45.774-2.219l15.2-3.078-1-12.655Z" transform="translate(0.446 -130.804)" opacity="0.1"/>
    <path id="Path_352" data-name="Path 352" d="M244.974,556.035l-7.053-.366-4.341,1.268s13.752,1.994,9.966,20.628l14.826-.9Z" transform="translate(5.161 -130.887)" fill="#a36468"/>
    <path id="Path_353" data-name="Path 353" d="M244.974,556.035l-7.053-.366-4.341,1.268s13.752,1.994,9.966,20.628l14.826-.9Z" transform="translate(5.161 -130.887)" opacity="0.1"/>
    <path id="Path_354" data-name="Path 354" d="M337.914,518.36s-19.354,11.072-24.79,20.273c0,0-4.517,2.219-4.517,4.163s-2.9,4.694-7.961,6.644l-5.072,1.994s-5.791-1.45-6.339,0-13.2,6.145-19.72,5.969-32.014,2.219-32.014,2.219a22.663,22.663,0,0,1,12.837,25.145l60.256-2.525,22.787-5.072,13.4-13.386Z" transform="translate(5.582 -134.887)" fill="#444053"/>
    <path id="Path_355" data-name="Path 355" d="M337.914,518.36s-19.354,11.072-24.79,20.273c0,0-4.517,2.219-4.517,4.163s-2.9,4.694-7.961,6.644l-5.072,1.994s-5.791-1.45-6.339,0-13.2,6.145-19.72,5.969-32.014,2.219-32.014,2.219a22.663,22.663,0,0,1,12.837,25.145l60.256-2.525,22.787-5.072,13.4-13.386Z" transform="translate(5.582 -134.887)" opacity="0.1"/>
    <path id="Path_356" data-name="Path 356" d="M254.261,593.492l-8.527-.158-9.966-.211s-47.057,3.621-46.138-11.427,37.114-20.329,42.157-16.007c3.819,3.266,12.655,5.9,16.685,6.973,1.284.344,2.07.531,2.07.531Z" transform="translate(0.447 -129.966)" fill="#d38884"/>
    <path id="Path_357" data-name="Path 357" d="M248.954,592.675l-8.525-.158c-3.4-11.682.542-18.115,2.78-20.64,1.284.344,2.07.531,2.07.531Z" transform="translate(5.754 -129.145)" opacity="0.1"/>
    <path id="Path_358" data-name="Path 358" d="M254.638,593.448l-8.858.62-4.208.288c-5.791-17.007,3.566-23.706,3.566-23.706h2.769l4.528.542Z" transform="translate(5.816 -129.281)" fill="#a36468"/>
    <path id="Path_359" data-name="Path 359" d="M352.173,493.518l-10.5,19.93s-1.605-20.185-6.278-29.7c-1.2-2.436-2.591-4.163-4.219-4.683-4.43-1.395,21.037-29.309,21.037-29.309a101.314,101.314,0,0,1,11.693,7.385c6.566,4.43,14.471,9.826,19.787,13.287C393.783,476.866,352.173,493.518,352.173,493.518Z" transform="translate(15.572 -142.244)" fill="#d38884"/>
    <path id="Path_360" data-name="Path 360" d="M339.413,489.62s-8.438,5.414-10.777,13.375a223.375,223.375,0,0,0-4.536,22.253s3.8,34.192,5.791,35.818,9.522,35.818,9.522,35.818L346.721,592l-9.588-43.06S343.51,493.617,339.413,489.62Z" transform="translate(14.868 -137.969)" fill="#444053"/>
    <path id="Path_361" data-name="Path 361" d="M339.413,489.62s-8.438,5.414-10.777,13.375a223.375,223.375,0,0,0-4.536,22.253s3.8,34.192,5.791,35.818,9.522,35.818,9.522,35.818L346.721,592l-9.588-43.06S343.51,493.617,339.413,489.62Z" transform="translate(14.868 -137.969)" opacity="0.1"/>
    <path id="Path_362" data-name="Path 362" d="M357.215,392.924H315.04l6.832-66.534h35.342Z" transform="translate(33.783 35.004)" fill="#a36468"/>
    <path id="Path_363" data-name="Path 363" d="M282.882,679.24h.509l-.951.366Z" transform="translate(10.401 -117.636)" fill="#67647e"/>
    <path id="Path_364" data-name="Path 364" d="M367.12,653.465l-8.241,3.17-1.109.409-29.7,11.411-11.327,4.352-15.413,5.924h-6.289c-19.51-.055-38.941-.487-58.251-1.495,3.742-8.2,10.286-21.337,15.624-25.576,4.163-3.328,33.948-6.908,61.44-9.611,3.433-.333,6.815-.653,10.121-.951l.792-.078c10.918-1,20.793-1.805,27.681-2.358l1.109-.089,8.658-.664.9-.91,1.109,4.739.919,3.786Z" transform="translate(5.508 -122.165)" fill="#67647e"/>
    <path id="Path_365" data-name="Path 365" d="M282.882,679.24h.509l-.951.366Z" transform="translate(10.401 -117.636)" opacity="0.1"/>
    <path id="Path_366" data-name="Path 366" d="M367.12,653.465l-8.241,3.17-1.109.409-29.7,11.411-11.327,4.352-15.413,5.924h-6.289c-19.51-.055-38.941-.487-58.251-1.495,3.742-8.2,10.286-21.337,15.624-25.576,4.163-3.328,33.948-6.908,61.44-9.611,3.433-.333,6.815-.653,10.121-.951l.792-.078c10.918-1,20.793-1.805,27.681-2.358l1.109-.089,8.658-.664.9-.91,1.109,4.739.919,3.786Z" transform="translate(5.508 -122.165)" opacity="0.1"/>
    <path id="Path_367" data-name="Path 367" d="M282.882,679.24h.509l-.951.366Z" transform="translate(10.401 -117.636)" fill="#67647e"/>
    <path id="Path_368" data-name="Path 368" d="M315.162,679.24a1.577,1.577,0,0,1-.122.366h0a.979.979,0,0,1,.133-.366Z" transform="translate(13.896 -117.636)" fill="#67647e"/>
    <path id="Path_369" data-name="Path 369" d="M336.141,507.566h-.819l-.122-.366h.819Z" transform="translate(35.944 54.393)" fill="#67647e"/>
    <path id="Path_370" data-name="Path 370" d="M368.533,641.435l-.686,22.787v1.35l-.344,11.283-8.094.266h-1.174q-17.275.553-34.513.853h-6.84l-5.138.067q-8.005.078-15.977.089H289.4c5.758-3.566,13.21-7.5,21.226-11.427,3.6-1.772,7.33-3.533,11.072-5.271,9.966-4.628,20.052-9,28.279-12.49l1.052-.442c3.189-1.35,6.08-2.558,8.547-3.577,5.336-2.219,8.725-3.544,8.958-3.632Z" transform="translate(11.147 -121.706)" fill="#67647e"/>
    <path id="Path_371" data-name="Path 371" d="M294.212,557.294c2.07,4.319,4.208,8.725,7.629,12.091.542.531,1.483,1.019,1.972.433a1.394,1.394,0,0,0,.211-.819,10.561,10.561,0,0,0-1.994-5.647c-1.109-1.705-2.414-3.255-3.4-5.027s-2.114-5.182-4.33-5.647C291.454,552.078,293.581,555.986,294.212,557.294Z" transform="translate(11.518 -131.213)" opacity="0.1"/>
    <path id="Path_372" data-name="Path 372" d="M363.866,457.115c-.159.553-.317,1.109-.5,1.639A37.3,37.3,0,0,1,335.4,483.722c-1.2-2.436-2.591-4.164-4.219-4.683-4.43-1.395,21.037-29.309,21.037-29.309a117.942,117.942,0,0,1,11.649,7.385Z" transform="translate(15.572 -142.248)" opacity="0.1"/>
    <path id="Path_373" data-name="Path 373" d="M369.013,450.4A37.192,37.192,0,1,1,358.12,424.02,37.192,37.192,0,0,1,369.013,450.4Z" transform="translate(11.753 -146.175)" fill="#d38884"/>
    <path id="Path_374" data-name="Path 374" d="M341.743,496.79s-7.75,9.411-6.511,15.568h9.4l6.877-7.75Z" transform="translate(16.047 -137.201)" fill="#67647e"/>
    <path id="Path_375" data-name="Path 375" d="M368.864,460.9,339.3,501.547s7.6,10.863,11.216,11.411,24.27-48.077,24.27-48.077Z" transform="translate(16.498 -141.049)" opacity="0.1"/>
    <path id="Path_376" data-name="Path 376" d="M369.2,460.24l-29.575,40.7s7.6,10.852,11.216,11.393,24.27-48.065,24.27-48.065Z" transform="translate(16.534 -141.12)" fill="#a36468"/>
    <path id="Path_377" data-name="Path 377" d="M336.543,507.26s-1.45,22.787-2.9,27.315,0,46.127,0,46.127l13.574-5.6-2.358-63.87Z" transform="translate(15.824 -136.078)" fill="#67647e"/>
    <path id="Path_378" data-name="Path 378" d="M336.019,507.2l.122.366h-.819l-.122-.366Z" transform="translate(35.944 54.393)" opacity="0.1"/>
    <path id="Path_379" data-name="Path 379" d="M439.4,679.55Z" transform="translate(27.233 -117.602)" opacity="0.1"/>
    <path id="Path_380" data-name="Path 380" d="M467.318,683.085l-.675,1.109c-.42.689-.875,1.539-1.461,2.625a.844.844,0,0,0-.078.133c-.819,1.517-1.794,3.377-2.78,5.4-33.217,1.174-66.434,2.735-99.562,3.853l-8.094.266h-1.174l-3.477-11.737v-.122l-.366-1.239L347.431,676l-2.219-7.5-2.292-7.994-.842-2.9-.222-.731-3.61-12.291L333.353,627.9l1.585-15.921h0l.111-1.208,1.426-14.264.2-4.23h0l.111-2.219v-.634h0l.244-5.138.731-15.28.377-7.817h0l.067-1.185h0l.753-15.69,2.136-6.411,1.109-3.189,2.458-7.408.531-1.827h0c.775-2.78,2.336-8.271,3.8-13.552h0l.133-.453h0l.1-.344,1.041-3.753,1.295-4.816c.487-1.849.808-3.17.886-3.621a70.99,70.99,0,0,1,4.961-8.858h0c5.536-9.157,13.863-22.632,14.815-27.149a.5.5,0,0,0,0-.111,5.542,5.542,0,0,1,.233-.808c.453-1.35,1.109-1.716,1.794-1.628a2.218,2.218,0,0,1,.875.344,6.967,6.967,0,0,1,1.728,1.661c1.295,2.491,4.755,4.983,7.828,6.832l.6.344.355.211c2.547,1.45,4.606,2.377,4.606,2.377,40.525,24.426,38,60.976,40.347,63.87s2.536,13.4,2.536,13.4,5.969,35.642,8.68,38.753.189,4.163,2.536,7.607,1.805,12.546,1.805,12.546,1.628,21.7,7.419,26.407S467.318,683.085,467.318,683.085Z" transform="translate(15.857 -141.106)" opacity="0.1"/>
    <path id="Path_381" data-name="Path 381" d="M468.293,682.763l-.487.842h0c-.388.686-1.008,1.772-1.743,3.133l-.078.158c-.842,1.561-1.838,3.455-2.823,5.536h-.93c-33.217,1.174-66.434,2.735-99.562,3.853l-8.094.266L351.11,684.77v-.122l-.366-1.239-2.292-7.751-2.219-7.53-2.219-7.519-.875-3.011h0l-3.786-12.932-5-17.04,1.384-13.852.189-1.85,1.528-15.734h0l.586-12.268.72-14.826.189-3.886.211-4.5.089-1.894L339.962,544l2.136-6.4.919-2.758,2.147-6.477.453-1.372s2.07-7.274,4.075-14.482c.078-.266.158-.531.222-.792.178-.62.344-1.239.52-1.849h0c.178-.62.344-1.228.5-1.838.564-2.016,1.109-3.9,1.483-5.447.542-2.027.908-3.5.986-3.975a65.226,65.226,0,0,1,5.06-9.013c5.23-8.658,12.877-21.037,14.493-26.176a8.276,8.276,0,0,0,.222-.808h0a4.219,4.219,0,0,1,.964-2.219c1.483-1.426,3.686,1.639,3.686,1.639,1.295,2.491,4.755,4.994,7.828,6.832a58.7,58.7,0,0,0,5.536,2.934c40.525,24.426,38,60.976,40.347,63.87s2.536,13.387,2.536,13.387,5.969,35.642,8.68,38.753.189,4.163,2.536,7.6,1.805,12.666,1.805,12.666,1.628,21.713,7.419,26.418S468.293,682.763,468.293,682.763Z" transform="translate(15.967 -141.144)" fill="#444053"/>
    <path id="Path_382" data-name="Path 382" d="M384.905,469.5c-3.975,5.78-10.46,15.944-12.18,23.251,0,0-6.339,6.522-8.691,6.156s2.219,4.883,2.219,4.883l-24.882,34.48,3.533-10.6s7.419-26.053,7.75-28.4S371,470.033,372.429,463.267c1.109-5.414,4.65-.542,4.65-.542C378.362,465.161,381.831,467.667,384.905,469.5Z" transform="translate(16.72 -141.069)" opacity="0.1"/>
    <path id="Path_383" data-name="Path 383" d="M384.905,468.858c-3.975,5.769-10.46,15.944-12.18,23.2,0,0-6.339,6.511-8.691,6.156s2.219,4.883,2.219,4.883l-24.882,34.478,3.533-10.6s7.419-26.053,7.75-28.412,18.346-29.231,19.776-36c1.109-5.425,4.65-.542,4.65-.542C378.362,464.518,381.831,467.01,384.905,468.858Z" transform="translate(16.72 -141.146)" fill="#444053"/>
    <path id="Path_384" data-name="Path 384" d="M418.945,537.108c.189,7.905-11.393,18.7-11.936,19.335S371,586.339,371,586.339L345.535,605.87a21.638,21.638,0,0,1-9.966,4.606L337.312,593l1.716-35.431c3.975-4.428,7.828-9.08,7.924-10.563.177-3.067,6.644-6.339,6.644-6.339s4.528-3.8,3.8-5.969,2.4-12.568,2.4-12.568c1.628-29.5,32.014-32.387,32.014-32.387a208.341,208.341,0,0,1,24.968,11.936C427.083,507.833,418.768,529.212,418.945,537.108Z" transform="translate(16.097 -137.956)" opacity="0.1"/>
    <path id="Path_385" data-name="Path 385" d="M254.18,593.448l-8.858.62c-3.742-6.366,1.406-23.418,1.406-23.418h.72l4.528.542Z" transform="translate(6.275 -129.281)" opacity="0.1"/>
    <path id="Path_386" data-name="Path 386" d="M401.547,488.13s-30.394,2.9-32.014,32.386c0,0-3.078,10.319-2.358,12.49s-3.8,5.969-3.8,5.969-6.511,3.255-6.644,6.339-16.609,19.865-16.609,19.865-6.866,7.817-22.787,8.636-23.34,5.691-23.34,5.691-7.75-5.425-13.4-3.8-33.106,3.8-33.106,3.8-7.29,24.182,1.805,25.7c1.109.177,90.682,3.255,90.682,3.255s6.122,2.889,15.346-4.163,25.467-19.543,25.467-19.543,35.429-29.315,36.013-29.9,12.18-11.438,11.936-19.335,8.149-29.253-2.219-35.431a208.717,208.717,0,0,0-24.971-11.956Z" transform="translate(6.358 -138.129)" fill="#444053"/>
    <path id="Path_387" data-name="Path 387" d="M368.9,450.409a37.193,37.193,0,0,1-1.827,11.549,15.573,15.573,0,0,1-1.372-1.894q-2.591-3.986-5.194-7.972a21.554,21.554,0,0,0-5.281-6.222,7.374,7.374,0,0,0-7.75-.819,7.766,7.766,0,0,0-3.328,6.211,70.539,70.539,0,0,0,.189,7.33,4.041,4.041,0,0,1-.675,2.647,4.339,4.339,0,0,1-2.853,1.109l-3.328.453a2.377,2.377,0,0,1-3.056-1.517c-2.758-4.994-4.661-11.194-9.826-13.6-3.189-1.483-7.4-1.384-9.444-4.241-1.395-1.949-1.206-4.6-.792-6.964A54.975,54.975,0,0,1,316.3,428.6c.586-1.816,1.894-5.436-1.008-5.8-1.972-.255-4.694,1.838-5.691,3.328a29.573,29.573,0,0,0-1.949,5.16,12.324,12.324,0,0,1-6.815,6.322,19.512,19.512,0,0,1-4.694,1.268,37.269,37.269,0,0,1,72.745,11.449Z" transform="translate(11.869 -146.182)" opacity="0.1"/>
    <path id="Path_388" data-name="Path 388" d="M311.427,427.046a30.259,30.259,0,0,0-1.949,5.149,12.335,12.335,0,0,1-6.8,6.322,26.16,26.16,0,0,1-9.333,1.661c-5.16.158-10.918-.634-14.238-4.583a11.658,11.658,0,0,0,4.43-7.75c.288-2.377-.1-5.016,1.306-6.953a9.963,9.963,0,0,1,2.525-2.136c5.78-3.986,10.341-9.455,15.568-14.151s11.527-8.78,18.543-9c9.4-.289,17.716,6.339,27.017,7.585a73.911,73.911,0,0,1,8.592.975,29.3,29.3,0,0,1,8.736,4.43,22.357,22.357,0,0,1,6.233,5.358,19.281,19.281,0,0,1,2.536,6.133,68.5,68.5,0,0,1,2.219,14.051c.255,4.961,0,9.966.531,14.9a23.614,23.614,0,0,0,5.48,13.619,48.725,48.725,0,0,1-7.541,1.743,7.85,7.85,0,0,1-4.794-.376,8.447,8.447,0,0,1-2.922-3.155l-5.194-7.972a21.556,21.556,0,0,0-5.281-6.222,7.374,7.374,0,0,0-7.75-.819,7.791,7.791,0,0,0-3.328,6.211,70.478,70.478,0,0,0,.188,7.33,4.042,4.042,0,0,1-.675,2.647,4.351,4.351,0,0,1-2.869,1.109l-3.328.453a2.377,2.377,0,0,1-3.056-1.517c-2.758-5-4.661-11.194-9.826-13.6-3.189-1.483-7.4-1.384-9.444-4.241-1.395-1.949-1.208-4.6-.792-6.964a54.964,54.964,0,0,1,1.938-7.883c.586-1.816,1.894-5.436-1.008-5.813C315.153,423.369,312.429,425.463,311.427,427.046Z" transform="translate(10.042 -148.053)" fill="#444053"/>
    <path id="Path_389" data-name="Path 389" d="M385.97,503.181a16.22,16.22,0,0,1,8.371.431c-6.832-2.8-17.948-1.728-24.171,2.125C370.734,507.034,383.8,503.481,385.97,503.181Z" transform="translate(19.809 -136.639)" opacity="0.1"/>
    <path id="Path_390" data-name="Path 390" d="M389.186,511.594c6.815.453,13.841,1.406,20.3-.808-5.4-1.861-11.349-.686-17.04-1.25-4.539-.453-9.157-2.027-13.585-.875-1.849.475-8.658,3.61-8.194,5.9a36.794,36.794,0,0,1,18.524-2.968Z" transform="translate(19.86 -135.973)" opacity="0.1"/>
    <path id="Path_391" data-name="Path 391" d="M371.1,524.826a10.234,10.234,0,0,1,4.23.442,64.689,64.689,0,0,0,15.59,1.716c4.008,0,8.327-.609,11.253-3.328Z" transform="translate(19.909 -134.322)" opacity="0.1"/>
    <path id="Path_392" data-name="Path 392" d="M351.29,556.346a31.2,31.2,0,0,0,15.224,2.769,67.191,67.191,0,0,0,15.324-2.945c2.219-.653,4.628-1.472,5.924-3.4Z" transform="translate(17.784 -131.197)" opacity="0.1"/>
    <path id="Path_393" data-name="Path 393" d="M395.894,560.549a81.338,81.338,0,0,0,33.792,10.46q-9-3.61-18.137-6.832a131.328,131.328,0,0,0-19.1-5.116,9.71,9.71,0,0,1,3.444,1.483Z" transform="translate(22.198 -130.523)" opacity="0.1"/>
    <path id="Path_394" data-name="Path 394" d="M411.589,555a28.548,28.548,0,0,0,6.3.342,3.593,3.593,0,0,0,3.078-1.109,54.025,54.025,0,0,1-14.074-2.07c-1.317-.317-3.686-1.041-4.794-.255C404.2,553.421,408.933,554.477,411.589,555Z" transform="translate(23.233 -131.329)" opacity="0.1"/>
    <path id="Path_395" data-name="Path 395" d="M437.178,645.8a45.759,45.759,0,0,0,14.8,17.627c-4.108-10.474-8.282-21.037-14.86-30.195-1.661-2.3-4.141-5.6-7.164-6.022-.864,2.558,1.317,7.086,2.377,9.489A91.307,91.307,0,0,0,437.178,645.8Z" transform="translate(26.198 -123.215)" opacity="0.1"/>
    <path id="Path_396" data-name="Path 396" d="M327.162,573.708a7.522,7.522,0,0,0,.7,5.182,3.742,3.742,0,0,0,2.1,1.45c-.531-.133-1.109-5.336-1.239-6.046-.244-1.45,0-4.163-1.03-5.23C327.426,570.585,327.33,572.158,327.162,573.708Z" transform="translate(15.162 -129.449)" opacity="0.1"/>
    <path id="Path_397" data-name="Path 397" d="M332.422,571.7a11.8,11.8,0,0,0,5.536,7.5c-1.938-2.391-2.569-5.536-4.252-8.16-.542-.842-1.174-2.048-2.219-2.219q.393,1.461.93,2.878Z" transform="translate(15.659 -129.478)" opacity="0.1"/>
    <path id="Path_398" data-name="Path 398" d="M329.221,542.774a13.829,13.829,0,0,1-10.961,1.384c-.83-.244-2.769-1.109-2.3-2.325s2.713-.377,3.632-.266l4.816.609C325.291,542.287,328.5,543.2,329.221,542.774Z" transform="translate(13.987 -132.441)" opacity="0.1"/>
    <path id="Path_399" data-name="Path 399" d="M313.21,549.76c2.269-.288,4.308,1.284,6.433,2.136a19.6,19.6,0,0,0,7.308.975,4.081,4.081,0,0,0,3.411-1.109C324.592,550.448,319.2,549,313.21,549.76Z" transform="translate(13.701 -131.544)" opacity="0.1"/>
    <path id="Path_400" data-name="Path 400" d="M319.97,317.58h.366l2.713,9.755-3.079,3.273Z" transform="translate(34.311 34.06)" fill="#a36468"/>
    <g id="Group_29" data-name="Group 29" transform="translate(289.309 273.331)" opacity="0.1">
      <path id="Path_401" data-name="Path 401" d="M283.8,419.76a22.852,22.852,0,0,0-.5,4.816,10.637,10.637,0,0,0,.3-1.55C283.731,421.963,283.72,420.846,283.8,419.76Z" transform="translate(-278.815 -418.793)"/>
      <path id="Path_402" data-name="Path 402" d="M317.261,421.115a1.949,1.949,0,0,1,1.816,2.219c.52-1.839.808-4.1-1.45-4.43-1.972-.244-4.694,1.849-5.691,3.377a30.979,30.979,0,0,0-1.949,5.16,12.3,12.3,0,0,1-6.8,6.322,26.16,26.16,0,0,1-9.333,1.661c-4.694.144-9.888-.509-13.287-3.61a11.274,11.274,0,0,1-1.317,1.2c3.328,3.953,9.08,4.739,14.249,4.583a26.151,26.151,0,0,0,9.324-1.661,12.362,12.362,0,0,0,6.815-6.322,30.235,30.235,0,0,1,1.938-5.149C312.578,422.92,315.291,420.871,317.261,421.115Z" transform="translate(-279.25 -418.885)"/>
      <path id="Path_403" data-name="Path 403" d="M369.239,457.618a7.85,7.85,0,0,1-4.794-.377,8.548,8.548,0,0,1-2.922-3.155q-2.591-3.986-5.194-7.972a21.372,21.372,0,0,0-5.271-6.222,7.354,7.354,0,0,0-7.75-.819,7.935,7.935,0,0,0-3.377,6.211v.3a7,7,0,0,1,3.022-4.341,7.381,7.381,0,0,1,7.75.819,21.72,21.72,0,0,1,5.281,6.222q2.591,3.986,5.194,7.972a8.36,8.36,0,0,0,2.922,3.155,7.817,7.817,0,0,0,4.783.377,49.1,49.1,0,0,0,7.552-1.743,16.207,16.207,0,0,1-1.35-1.672,47.53,47.53,0,0,1-5.847,1.241Z" transform="translate(-272.743 -416.793)"/>
      <path id="Path_404" data-name="Path 404" d="M342.411,455.915a4.437,4.437,0,0,1-2.853,1.109l-3.328.453a2.377,2.377,0,0,1-3.056-1.517c-2.758-5-4.661-11.194-9.826-13.6-3.189-1.483-7.385-1.384-9.433-4.241a8.149,8.149,0,0,1-.986-5.8c-.055.344-.133.675-.189,1.008-.4,2.377-.6,5.016.808,6.964,2.049,2.853,6.255,2.758,9.433,4.241,5.182,2.4,7.086,8.591,9.844,13.6a3.17,3.17,0,0,0,1.268,1.517,3.244,3.244,0,0,0,1.783.078l3.328-.453a4.341,4.341,0,0,0,2.853-1.109,3.974,3.974,0,0,0,.675-2.647h0A3.332,3.332,0,0,1,342.411,455.915Z" transform="translate(-275.689 -417.445)"/>
    </g>
    <path id="Path_405" data-name="Path 405" d="M754.087,699.674l-7.1-.986V593.91l1.45.442,4.43,1.361V605.8l.055,4.55.1,9.366v12.777l.531,47.18v1.268l.189,16.609v.255Z" transform="translate(60.217 -126.787)" fill="#eaecf0"/>
    <path id="Path_406" data-name="Path 406" d="M757.468,700.054l-3.953-.553v-2.147l-.189-16.609v-1.268L752.8,632.3V619.52l-.1-9.366-.055-4.55V595.52H756.9v13.541l.089,10.121v10.707h0l.41,49.516v1.268l.133,16.465v.266Z" transform="translate(60.823 -126.614)" fill="#d3dae1"/>
    <path id="Path_407" data-name="Path 407" d="M757,695.27Z" transform="translate(61.29 -115.917)" fill="#d3dae1"/>
    <path id="Path_408" data-name="Path 408" d="M1146.639,582.18v90.44q-3.155,2.219-6.466,4.352l-.089-75.292v-7.994Z" transform="translate(102.373 -128.043)" fill="#eaecf0"/>
    <path id="Path_409" data-name="Path 409" d="M1150.61,581v88.246q-2.258,1.811-4.606,3.51V582.306Z" transform="translate(103.008 -128.171)" fill="#d3dae1"/>
    <path id="Path_410" data-name="Path 410" d="M1058.1,705.19c-2.724.553-5.458,1.109-8.194,1.585l-.1-81.836V621.4l7.894-3.328v7.508Z" transform="translate(92.689 -124.198)" fill="#eaecf0"/>
    <path id="Path_411" data-name="Path 411" d="M1062.538,615.73v88.579c-1.727.377-3.455.731-5.182,1.109l-.366-79.577v-7.507l.52-.244h0Z" transform="translate(93.46 -124.446)" fill="#d3dae1"/>
    <path id="Path_412" data-name="Path 412" d="M638.955,684.051l-7.363-.742-.941-92.289v-4.39h7.23v5.016Z" transform="translate(47.742 -127.567)" fill="#eaecf0"/>
    <path id="Path_413" data-name="Path 413" d="M643.744,684.631l-5.536-.586-1.109-92.4V586.63h5.591v5.5Z" transform="translate(48.433 -127.567)" fill="#d3dae1"/>
    <path id="Path_414" data-name="Path 414" d="M1039.45,446.069l5.061-2.377v11.172l-4.927,1.65Z" transform="translate(111.466 47.584)" opacity="0.1"/>
    <path id="Path_415" data-name="Path 415" d="M1133.273,408.95v17.1l-4.6,1.539-6.566,2.181-.011-7.994,6.577-11.5Z" transform="translate(120.329 43.857)" opacity="0.1"/>
    <path id="Path_416" data-name="Path 416" d="M1142.191,379.27V426.6l-102.556,34.174-.664-50.623Z" transform="translate(111.414 40.675)" fill="#d48a9b"/>
    <path id="Path_417" data-name="Path 417" d="M611.46,378.783,746.236,353.14l441.8,28.939-103.217,30.892Z" transform="translate(65.569 37.872)" fill="#efc6cd"/>
    <path id="Path_418" data-name="Path 418" d="M625.471,414.6l.044,5.492-5.58-.487-7.252-.62-.033-4.385Z" transform="translate(65.697 44.463)" opacity="0.1"/>
    <path id="Path_419" data-name="Path 419" d="M739.272,430.162l-4.263-.377-5.98-.509v-7.4l5.913,1.794h4.279Z" transform="translate(78.177 45.243)" opacity="0.1"/>
    <path id="Path_420" data-name="Path 420" d="M611.46,376.3v44.046L1085.479,461.1l-.664-50.623Z" transform="translate(65.569 40.357)" fill="#d48a9b"/>
    <path id="Path_421" data-name="Path 421" d="M956.9,425.775H894.98V403.31l61.917,4.363Z" transform="translate(95.974 43.253)" fill="#d48a9b"/>
    <path id="Path_422" data-name="Path 422" d="M956.9,425.775H894.98V403.31l61.917,4.363Z" transform="translate(95.974 43.253)" opacity="0.1"/>
    <path id="Path_423" data-name="Path 423" d="M819.87,398.86v35.5l237.668,18.082v-37.8l-92.7-5.26-9.213,8.216-37.8-2.625L904.355,405.1Z" transform="translate(87.918 42.776)" opacity="0.1"/>
    <path id="Path_424" data-name="Path 424" d="M818.68,397.67v35.509l237.668,18.067v-37.8l-92.7-5.26-9.2,8.227-37.811-2.636-13.471-9.866Z" transform="translate(87.791 42.647)" fill="#fff"/>
    <path id="Path_425" data-name="Path 425" d="M686.821,389.06l56.215,3.953-.653,17.86H705.678l-24.548-9.644Z" transform="translate(73.04 41.724)" fill="#d48a9b"/>
    <path id="Path_426" data-name="Path 426" d="M686.821,389.06l56.215,3.953-.653,17.86H705.678l-24.548-9.644Z" transform="translate(73.04 41.724)" opacity="0.1"/>
    <path id="Path_427" data-name="Path 427" d="M618.59,384.61V416.5l215.634,17.1v-33.86L751.059,394.8l-8.875,6.577L708.656,399.4l-13.807-8.547Z" transform="translate(66.335 41.247)" opacity="0.1"/>
    <path id="Path_428" data-name="Path 428" d="M617.4,383.42v31.889l215.634,17.1v-33.86l-83.164-4.927-8.875,6.566-33.539-1.972-13.807-8.547Z" transform="translate(66.206 41.12)" fill="#fff"/>
    <path id="Path_429" data-name="Path 429" d="M1038.933,383.53l30.228,1.983-50.081,14.993-25.516-1.838Z" transform="translate(106.541 41.132)" opacity="0.1"/>
    <path id="Path_430" data-name="Path 430" d="M1038.933,382.35l30.228,1.972-50.081,14.993-25.516-1.838Z" transform="translate(106.541 41.004)" fill="#fff"/>
    <path id="Path_431" data-name="Path 431" d="M1049.24,557.465c1.2-.52,2.469.442,3.742.686.719.144,1.472,0,2.219.144,1.483.2,2.945,1.185,4.363.686Z" transform="translate(92.63 -130.71)" fill="#d3dae1"/>
    <path id="Path_432" data-name="Path 432" d="M1047.83,558.274c1.184-.509,2.458.453,3.731.7.731.133,1.483,0,2.219.133,1.472.2,2.945,1.2,4.363.7Z" transform="translate(92.479 -130.623)" fill="#d3dae1"/>
    <path id="Path_433" data-name="Path 433" d="M1044.59,559.914c1.184-.509,2.458.442,3.731.686.731.144,1.472,0,2.219.144,1.484.2,2.956,1.2,4.363.686Z" transform="translate(92.131 -130.448)" fill="#d3dae1"/>
    <path id="Path_434" data-name="Path 434" d="M852.39,368.55l67.4,4.419L905.427,393.6l-74.1-7.924Z" transform="translate(89.148 39.525)" opacity="0.1"/>
    <path id="Path_435" data-name="Path 435" d="M851.2,367.36l67.4,4.407-14.36,20.64-74.108-7.924Z" transform="translate(89.019 39.398)" fill="#3a3768"/>
    <path id="Path_436" data-name="Path 436" d="M853.617,368.73l58.784,3.6-12.52,16.807-64.629-6.455Z" transform="translate(89.569 39.544)" fill="#d5e1f4"/>
    <path id="Path_437" data-name="Path 437" d="M757,695.27Z" transform="translate(61.29 -115.917)" fill="#3a3768"/>
    <path id="Path_438" data-name="Path 438" d="M757,695.27Z" transform="translate(61.29 -115.917)" opacity="0.1"/>
    <path id="Path_439" data-name="Path 439" d="M756.54,695.27Z" transform="translate(61.241 -115.917)" fill="#3a3768"/>
    <path id="Path_440" data-name="Path 440" d="M852.661,707.98a5.349,5.349,0,0,1-.055.941,6.338,6.338,0,0,1-.089.83,18.707,18.707,0,0,1-1.606,5.636h0c-27.847-3.133-55.76-6.9-83.707-10.763l-3.953-.553-7.1-.986-5.98-.83h0a144.044,144.044,0,0,1-19.532-1.827,101.031,101.031,0,0,1-12.068-2.547c-17.715-2.425-35.531-4.755-53.291-6.888l-2.314-.277c.422-1.883.775-3.022.775-3.022s3.8-14.971,6.973-31.7c.7-3.632,1.361-7.33,1.938-10.994.464-2.934.886-5.835,1.239-8.625.2-1.539.366-3.044.509-4.517.078-.731.144-1.461.2-2.219s.122-1.572.177-2.336.078-1.439.111-2.136v-1.046c0-1.495,0-3.056-.055-4.661a137.312,137.312,0,0,0-3.762-23.708c-.317-1.328-.634-2.658-.964-3.953-.1-.422-.211-.83-.317-1.239-3.577-13.852-7.751-25.167-7.751-25.167a1.28,1.28,0,0,1,0-.189.638.638,0,0,0,0-.133,2.731,2.731,0,0,0,0-.277v-1.971a16.961,16.961,0,0,1,.6-3.433,12.437,12.437,0,0,1,.422-1.174,7.29,7.29,0,0,1,4.983-4.605h0c3.133-.808,7.872,0,15.024,4.241a25.864,25.864,0,0,1,3.328,2.281,14.064,14.064,0,0,1,1.55,1.339c8.194,7.63,12.557,20.218,14.882,31.711.089.41.158.819.244,1.228.277,1.417.509,2.8.719,4.163.376,2.391.675,4.694.9,6.832,0,.575.122,1.109.177,1.694s.111,1.109.144,1.639c.144,1.728.244,3.328.317,4.672.189,3.588.158,5.791.158,5.791v.111a3.022,3.022,0,0,1-.055.475.209.209,0,0,0,0,.089v1q-.067.7-.158,1.628c-.1.951-.211,2.07-.342,3.328-.089.93-.2,1.938-.317,3-.244,2.219-.509,4.783-.792,7.485-.067.509-.122,1.019-.177,1.528-.255,2.314-.52,4.728-.792,7.164h0c-.3,2.769-.634,5.536-.951,8.271-.078.6-.158,1.2-.222,1.783-.819,6.644-1.639,12.679-2.3,16.432a15.555,15.555,0,0,0-.222,1.683,5.17,5.17,0,0,0,0,.575,11.306,11.306,0,0,0,0,1.505c.542,9.455,10.763,11.072,10.763,11.072l46.4-.919,6.886-.133,4.008-.078,36.173-.719h0l3.328-.067,17.993-.355a12.865,12.865,0,0,1,3.621.431,57.482,57.482,0,0,1,15.723,6.877,18.48,18.48,0,0,1,4.064,3.544,1.16,1.16,0,0,1,.158.177,19.154,19.154,0,0,1,4.352,10.364q0,.382,0,.764a9.934,9.934,0,0,1,.033,1.766Z" transform="translate(51.109 -131.141)" fill="#3a3768"/>
    <path id="Path_441" data-name="Path 441" d="M756.54,695.27Z" transform="translate(61.241 -115.917)" opacity="0.1"/>
    <path id="Path_442" data-name="Path 442" d="M852.662,707.989a5.373,5.373,0,0,1-.055.941,6.428,6.428,0,0,1-.089.83,19.377,19.377,0,0,1-1.661,5.636c-27.847-3.133-55.76-6.9-83.707-10.763l-3.953-.553-7.1-.986-5.98-.83h0a144.025,144.025,0,0,1-19.532-1.828,101.011,101.011,0,0,1-12.068-2.547c-17.716-2.425-35.531-4.755-53.291-6.886l-2.314-.277h0c.422-1.949.792-3.133.792-3.133s3.111-12.18,6.067-26.943h0c.211-1.019.409-2.038.609-3.067l.3-1.561c.686-3.621,1.35-7.341,1.938-10.994.464-2.934.886-5.835,1.239-8.625.2-1.539.366-3.045.509-4.518.078-.731.144-1.461.2-2.219s.122-1.572.177-2.336.078-1.439.111-2.136v-1.041c0-1.495,0-3.056-.055-4.661a136.179,136.179,0,0,0-3.731-23.706q-.465-2.014-.964-3.953c-.111-.422-.211-.83-.317-1.239-3.588-13.9-7.75-25.278-7.75-25.278a.345.345,0,0,0,0-.078.622.622,0,0,0,0-.133,2.626,2.626,0,0,0,0-.277v-1.972a16.984,16.984,0,0,1,.564-3.433c.122-.388.255-.792.409-1.174a7.319,7.319,0,0,1,5.248-4.772c3.133-.731,7.816.177,14.815,4.279a26.84,26.84,0,0,1,3.455,2.414h0c.52.431,1.019.864,1.506,1.328,8.127,7.674,12.457,20.24,14.76,31.7.089.409.158.83.244,1.239.277,1.406.509,2.8.72,4.152.377,2.391.664,4.683.886,6.815.055.586.122,1.163.158,1.716s.111,1.109.144,1.639c.144,1.728.244,3.328.317,4.672.189,3.588.158,5.791.158,5.791v.586a.21.21,0,0,0,0,.089v1q-.067.7-.158,1.628c-.1.951-.211,2.07-.344,3.328-.111.919-.211,1.927-.317,3-.244,2.219-.509,4.783-.792,7.485-.067.509-.122,1.019-.177,1.528-.255,2.314-.531,4.755-.792,7.186h0c-.317,2.769-.642,5.536-.975,8.26-.078.6-.144,1.2-.222,1.783-.808,6.644-1.617,12.589-2.281,16.324a15.389,15.389,0,0,0-.222,1.805,5.136,5.136,0,0,0,0,.575,11.353,11.353,0,0,0,0,1.506c.634,9.351,10.763,10.907,10.763,10.907l46.4-.908,6.877-.144,4.019-.078,36.239-.708,3.388-.067,17.926-.355a12.112,12.112,0,0,1,3.621.431,56.831,56.831,0,0,1,15.849,6.815,18.249,18.249,0,0,1,4.121,3.61,1.171,1.171,0,0,1,.158.178,18.968,18.968,0,0,1,4.3,10.408q0,.382,0,.764a12.891,12.891,0,0,0-.144,1.837Z" transform="translate(51.108 -131.149)" opacity="0.1"/>
    <path id="Path_443" data-name="Path 443" d="M756.54,695.27Z" transform="translate(61.241 -115.917)" fill="#3a3768"/>
    <path id="Path_444" data-name="Path 444" d="M852.49,715.687l-1.827-.211h0c-27.847-3.133-55.76-6.9-83.707-10.763L763,704.16l-7.1-.986-5.98-.83h0a144.044,144.044,0,0,1-19.532-1.827,101.031,101.031,0,0,1-12.068-2.547c-17.715-2.425-35.531-4.755-53.291-6.888a45.371,45.371,0,0,1,1.109-4.606s10.519-41.422,11.172-63.445c.233-7.872-1.328-17.616-3.444-26.906h0c-.317-1.339-.62-2.669-.951-3.975l-.3-1.239c-3.753-14.56-8.216-26.74-8.216-26.74a17.99,17.99,0,0,1,.255-4.507,12,12,0,0,1,.266-1.184,9.034,9.034,0,0,1,2.853-4.783h0a1.437,1.437,0,0,1,.211-.159c2.911-2.219,8.138-2.377,17.433,3.078a27.272,27.272,0,0,1,5.193,3.975c.444.42.886.864,1.306,1.317C699.4,570,703.362,582.4,705.443,593.5l.233,1.228c.244,1.384.453,2.747.653,4.064v.111h0c.255,1.743.464,3.422.642,5.016h0a132.085,132.085,0,0,1,.792,14.14s-.431,4.374-1.109,10.674c-.255,2.469-.553,5.23-.875,8.16v.442l-.158,1.55c-.564,5.1-1.185,10.552-1.816,15.6-.067.62-.144,1.228-.222,1.827-.708,5.68-1.417,10.729-2,14.018-2.3,12.822,10.519,14.793,10.519,14.793l43.78-.864,6.865-.133,4.019-.089h2.219l34.723-.686h3.328l19.93-.4a12.441,12.441,0,0,1,3.62.442,57.112,57.112,0,0,1,15.849,6.8,18.832,18.832,0,0,1,3.731,3.17,1.813,1.813,0,0,1,.188.222,19.177,19.177,0,0,1,2.141,22.1Z" transform="translate(51.358 -131.273)" fill="#3a3768"/>
    <path id="Path_445" data-name="Path 445" d="M958.116,347.05l13.541,29h-2.27L953.51,347.394Z" transform="translate(102.25 37.22)" fill="#4c4c56"/>
    <path id="Path_446" data-name="Path 446" d="M958.116,347.05l13.541,29h-2.27L953.51,347.394Z" transform="translate(102.25 37.22)" opacity="0.1"/>
    <path id="Path_447" data-name="Path 447" d="M957.67,373.25h13.541v3.033l-13.541.344Z" transform="translate(102.695 40.029)" fill="#4c4c56"/>
    <path id="Path_448" data-name="Path 448" d="M957.67,373.25h13.541v3.033l-13.541.344Z" transform="translate(102.695 40.029)" opacity="0.1"/>
    <path id="Path_449" data-name="Path 449" d="M880.5,423.4V524.7a7.518,7.518,0,0,0,7.519,7.519h168.853a7.474,7.474,0,0,0,7.474-7.618l-1.916-101.4a7.474,7.474,0,0,0-7.474-7.33H888.019A7.519,7.519,0,0,0,880.5,423.4Z" transform="translate(74.534 -145.881)" fill="#4c4c56"/>
    <path id="Path_450" data-name="Path 450" d="M880.5,423.4V524.7a7.518,7.518,0,0,0,7.519,7.519h168.853a7.474,7.474,0,0,0,7.474-7.618l-1.916-101.4a7.474,7.474,0,0,0-7.474-7.33H888.019A7.519,7.519,0,0,0,880.5,423.4Z" transform="translate(74.534 -145.881)" opacity="0.1"/>
    <path id="Path_451" data-name="Path 451" d="M875,423.4V524.7a7.518,7.518,0,0,0,7.519,7.519h168.854a7.463,7.463,0,0,0,7.463-7.618l-1.916-101.4a7.474,7.474,0,0,0-7.463-7.33H882.563A7.519,7.519,0,0,0,875,423.4Z" transform="translate(73.944 -145.881)" fill="#4c4c56"/>
    <path id="Path_452" data-name="Path 452" d="M881,429.119v89.188a7.519,7.519,0,0,0,7.519,7.519h156.355a7.474,7.474,0,0,0,7.474-7.474V429.063a7.474,7.474,0,0,0-7.474-7.463H888.519A7.519,7.519,0,0,0,881,429.119Z" transform="translate(74.588 -145.265)" fill="#44bba4"/>
    <path id="Path_453" data-name="Path 453" d="M924.14,347.821l14.849,28.6h33.55L955.763,343.7Z" transform="translate(99.1 36.86)" fill="#4c4c56"/>
    <path id="Path_454" data-name="Path 454" d="M913.7,373.25l-2.48,3.033h51.432V373.25Z" transform="translate(97.715 40.029)" fill="#4c4c56"/>
    <path id="Path_455" data-name="Path 455" d="M740.609,457.613c-3.686-10.363-3.664-21.871-8.138-31.911a38.862,38.862,0,0,1-1.872-4.43,12.979,12.979,0,0,1-.509-2.889l-.277.067-.277.078-.277.111h0L729,418.8a9.692,9.692,0,0,0,.255.975,37.255,37.255,0,0,0,1.894,4.43c4.561,10.1,4.528,21.646,8.283,32.109a3.013,3.013,0,0,0,.7,1.228,1.652,1.652,0,0,0,.564.344C740.664,457.755,740.628,457.689,740.609,457.613Zm0,0c-3.686-10.363-3.664-21.871-8.138-31.911a38.862,38.862,0,0,1-1.872-4.43,12.979,12.979,0,0,1-.509-2.889l-.277.067-.277.078-.277.111h0L729,418.8a9.692,9.692,0,0,0,.255.975,37.255,37.255,0,0,0,1.894,4.43c4.561,10.1,4.528,21.646,8.283,32.109a3.013,3.013,0,0,0,.7,1.228,1.652,1.652,0,0,0,.564.344C740.664,457.755,740.628,457.689,740.609,457.613Zm0,0c-3.686-10.363-3.664-21.871-8.138-31.911a38.862,38.862,0,0,1-1.872-4.43,12.979,12.979,0,0,1-.509-2.889l-.277.067-.277.078-.277.111h0L729,418.8a9.692,9.692,0,0,0,.255.975,37.255,37.255,0,0,0,1.894,4.43c4.561,10.1,4.528,21.646,8.283,32.109a3.013,3.013,0,0,0,.7,1.228,1.652,1.652,0,0,0,.564.344C740.664,457.755,740.628,457.689,740.609,457.613Zm0,0c-3.686-10.363-3.664-21.871-8.138-31.911a38.862,38.862,0,0,1-1.872-4.43,12.979,12.979,0,0,1-.509-2.889l-.277.067-.277.078-.277.111h0L729,418.8a9.692,9.692,0,0,0,.255.975,37.255,37.255,0,0,0,1.894,4.43c4.561,10.1,4.528,21.646,8.283,32.109a3.013,3.013,0,0,0,.7,1.228,1.652,1.652,0,0,0,.564.344C740.664,457.755,740.628,457.689,740.609,457.613Zm0,0c-3.686-10.363-3.664-21.871-8.138-31.911a38.862,38.862,0,0,1-1.872-4.43,12.979,12.979,0,0,1-.509-2.889l-.277.067-.277.078-.277.111h0L729,418.8a9.692,9.692,0,0,0,.255.975,37.255,37.255,0,0,0,1.894,4.43c4.561,10.1,4.528,21.646,8.283,32.109a3.013,3.013,0,0,0,.7,1.228,1.652,1.652,0,0,0,.564.344C740.664,457.755,740.628,457.689,740.609,457.613Zm0,0c-3.686-10.363-3.664-21.871-8.138-31.911a38.862,38.862,0,0,1-1.872-4.43,12.979,12.979,0,0,1-.509-2.889l-.277.067-.277.078-.277.111h0L729,418.8a9.692,9.692,0,0,0,.255.975,37.255,37.255,0,0,0,1.894,4.43c4.561,10.1,4.528,21.646,8.283,32.109a3.013,3.013,0,0,0,.7,1.228,1.652,1.652,0,0,0,.564.344C740.664,457.755,740.628,457.689,740.609,457.613Zm0,0c-3.686-10.363-3.664-21.871-8.138-31.911a38.862,38.862,0,0,1-1.872-4.43,12.979,12.979,0,0,1-.509-2.889l-.277.067-.277.078-.277.111h0L729,418.8a9.692,9.692,0,0,0,.255.975,37.255,37.255,0,0,0,1.894,4.43c4.561,10.1,4.528,21.646,8.283,32.109a3.013,3.013,0,0,0,.7,1.228,1.652,1.652,0,0,0,.564.344C740.664,457.755,740.628,457.689,740.609,457.613ZM932.991,560.807h0l-.853-.159,1.109-.244h0a1.685,1.685,0,0,0,.317-.078h0c1.23-.266,2.447-.564,3.645-.886h0l1.25-.355h0l.177-.055c10.319-3.045-1.716-5.847-17.018-7.924h-.044c-16.521-2.219-36.783-3.664-36.783-3.664l-6.339.842H878.4c-7.75,1.019-19.985,2.694-21.934,3.328-2.377.792-22.476,1.743-29.478,2.06a3.057,3.057,0,0,0-1.041-1.109l-20.673-.951v2.853h0l-.158-.067a28.361,28.361,0,0,0-2.8-11.072l-.158-.317c-5.336-10.121-6.411-12.655-6.411-12.655h0a2.08,2.08,0,0,0-.144-.542c-1.794-6.222-8.4-17.04-19.609-32.564l-.388-.542-1.406-6.888-.244-1.208H766.9a92.219,92.219,0,0,1,4.894-17.5c.144-.355.288-.708.442-1.052l.089-.2c.158-.366.333-.731.5-1.109h1.228a33.694,33.694,0,0,0,32.375-31.334.211.211,0,0,0,0-.089q.067-1.03.067-2.06a32.962,32.962,0,0,0-4.428-16.609c-.089-.159-.177-.317-.277-.464l-.178-.3-.4-.62c2.525-.6,5.536.553,7.75-.864a5.671,5.671,0,0,0,1.894-2.281,11.859,11.859,0,0,0,1.109-3.328h0a1.081,1.081,0,0,0,0-.189.143.143,0,0,0,0-.067,13.1,13.1,0,0,0,.158-2.281,12.293,12.293,0,0,0-.775-4.606,12.688,12.688,0,0,0-7.132-7.152,48.314,48.314,0,0,0-5.182-1.406c-7.086-1.894-13.077-6.566-19.93-9.168a36.15,36.15,0,0,0-14.937-2.3,21.369,21.369,0,0,0-8.858,2.219,37.919,37.919,0,0,0-5.913,4.279c-4.927,3.886-10.519,7.208-14.8,11.847a26.47,26.47,0,0,0-2.147,2.658c-.377.542-.719,1.109-1.109,1.661a2.967,2.967,0,0,0-2.669-1.109h0a4.352,4.352,0,0,0-.542,0,10.744,10.744,0,0,0-1.373.144c-1.109.189-9.351,2.377-9.351,3.5a38.953,38.953,0,0,0-9.477,5.824c-6.644,6.08-8.127,15.712-8.969,24.592a227.87,227.87,0,0,0-1.109,31c.158,3.764.453,7.53.277,11.294a84,84,0,0,1-1.96,13.154q-1.427,6.755-3.089,13.471c-.531,2.219-1.384,4.683-3.555,5.388l.808.111a3.893,3.893,0,0,1-.808.388,24.2,24.2,0,0,0,2.813.277h.653a7.643,7.643,0,0,0,1.585-.189,5.914,5.914,0,0,0,2-.93c.089-.222.158-.442.244-.675a3.743,3.743,0,0,0,1.328-2.06,14.651,14.651,0,0,1-.222,3.742,2.363,2.363,0,0,1-.111.542,15.283,15.283,0,0,1-3.8,7.219l1.109-.842a16.273,16.273,0,0,1-1.109,1.339q2.392-1.794,4.783-3.664h0a2.323,2.323,0,0,0,.277-.211h0l2.724-2.148V518.6h0v.5c-.222,7.641-.542,26.407,1.195,30.892.1.266.211.531.3.792,1.981,5.1,2.835,7.308,2.58,9.966-.177,1.849,1.208,7.141,1.972,11.349a14.083,14.083,0,0,1,.355,5.127,7.311,7.311,0,0,0,.2,3.056c.1.487.222,1.008.355,1.55a2.4,2.4,0,0,0,.144.586c1.008,4.03,2.436,9.013.941,10.994a8.774,8.774,0,0,0-1.109,2.219c-1.228,3.328-1.426,7.861-2.853,9.7-1.661,2.136-1.109,5.935-.975,6.422a.2.2,0,0,1,0,.055s-.078.431-.233,1.109c-.189.93-.487,2.358-.864,3.942v.111a56.371,56.371,0,0,1-1.916,6.566h0c-.564,1.506-1.109,2.591-1.743,2.8-2.219.808-3.328,11.2-3.328,11.2s-5.072,8.227-4.108,10.252a13.574,13.574,0,0,0,.719,1.361l-.486.753c-2.713,4.352-6.644,12.257-2.835,16.509a18.826,18.826,0,0,0,4.539,3.466c-.2.442-.409.919-.634,1.439-4.186,9.81-10.63,32.6,14.162,42.208A78.6,78.6,0,0,0,715.689,716a101.011,101.011,0,0,0,12.069,2.547,147.919,147.919,0,0,0,17.715,1.585c2.636.089,5.23.111,7.75.089s4.794-.078,7.075-.177q2.027-.078,3.953-.2a206.774,206.774,0,0,0,22.732-2.491l35.431-6.339s14.882.531,20.362,3.675l.158.1s.9-.52,2.4-1.539h0c.653-.444,1.426-.975,2.281-1.605a74.8,74.8,0,0,0,21.115-23.5l.122-.211,1.208-.158h.277l.864-.122L873,687.4h.317c4.484-.653,8.725-1.373,8.725-1.373s.158,4.949.366,10.685c.067,1.743.122,3.577.189,5.349.211,6.067.4,11.582.4,11.769s4.561,12.18,9.668,24.271l3.986.317q15.79,1.268,31.567,2.092l3.93.2,2.458.122c-1.772-10.729-3.17-20.96-3.17-20.96l-6.577-30.637s-.686-6.339-5.614-34.55c-3.986-22.854-27.459-20.827-36.25-19.221-.9.158-1.628.317-2.219.442v-1.716s-16.863,1.417-32.109,2.1l-3.709.158c-3.533.133-6.888.211-9.826.211a71.984,71.984,0,0,1-7.75-.317c-11.771-1.35-25.19,2.694-25.19,2.694s-17.151,2.78-19.443,1.761a5.9,5.9,0,0,0-1.938-.4H779.7a1.772,1.772,0,0,0,1.109-1.972c-.686-2.835-.964-6.755.964-9.455.842-1.2,2.219-3.078,3.444-4.794l2.989-4.108v-.317l.078-1.208L789,607.784l1.728-9.966.111-.634L791,596.3l.111-.642.333.111h0c4.905,1.705,10.46,2.9,14.394,1.528h.078a6.6,6.6,0,0,0,.908-.387H807v.742l.067,1.295,18.479-1.008h.277s.719-3.566,1.495-8.482c.055-.4.122-.808.189-1.228s.158-1.109.244-1.616a6.766,6.766,0,0,1,.111-.792h1.109c8.569-.317,20.529-1.041,25.4-2.813h0a5.533,5.533,0,0,0,1.672-.9c2.07-1.794,9.5-4.363,16.8-6.577h0l2.911-.864c2.114-.62,4.152-1.2,5.958-1.705,4.186-1.109,7.175-1.927,7.175-1.927s28.789,2.669,50.291-3.544h0l.355-.1C947.64,564.8,942.613,562.633,932.991,560.807ZM728.716,416.866a6.006,6.006,0,0,0,.122.986h0a2.774,2.774,0,0,0,.067.42.761.761,0,0,0,.089.431,9.714,9.714,0,0,0,.255.975,37.3,37.3,0,0,0,1.894,4.43c4.561,10.1,4.528,21.646,8.282,32.109a3.012,3.012,0,0,0,.7,1.228,1.647,1.647,0,0,0,.564.344l.266.089h.317l-.122.211a1.1,1.1,0,0,1-.089.158l-.078.122c-1.483,2.5-3.067,4.961-4.661,7.132a10.407,10.407,0,0,0-3.842,1.572l-.62.409-.266.2c-.388-1.9-.919-3.786-1.406-5.669a130.853,130.853,0,0,1-4.279-30.714v-2.092c0-2.68.067-5.347.233-8.027a6.642,6.642,0,0,1,.941-3.522h0a2.425,2.425,0,0,1,1.639-.792ZM740.6,457.624c-3.686-10.363-3.664-21.871-8.138-31.911a38.819,38.819,0,0,1-1.872-4.43,12.978,12.978,0,0,1-.509-2.889l-.277.066-.277.078-.277.111h0l-.255.158a9.716,9.716,0,0,0,.255.975,37.25,37.25,0,0,0,1.894,4.43c4.561,10.1,4.528,21.646,8.283,32.109a3.012,3.012,0,0,0,.7,1.228,1.649,1.649,0,0,0,.564.344c-.033-.133-.067-.2-.089-.277Zm0,0c-3.686-10.363-3.664-21.871-8.138-31.911a38.819,38.819,0,0,1-1.872-4.43,12.978,12.978,0,0,1-.509-2.889l-.277.066-.277.078-.277.111h0l-.255.158a9.716,9.716,0,0,0,.255.975,37.25,37.25,0,0,0,1.894,4.43c4.561,10.1,4.528,21.646,8.283,32.109a3.012,3.012,0,0,0,.7,1.228,1.649,1.649,0,0,0,.564.344c-.033-.133-.067-.2-.089-.277Zm0,0c-3.686-10.363-3.664-21.871-8.138-31.911a38.819,38.819,0,0,1-1.872-4.43,12.978,12.978,0,0,1-.509-2.889l-.277.066-.277.078-.277.111h0l-.255.158a9.716,9.716,0,0,0,.255.975,37.25,37.25,0,0,0,1.894,4.43c4.561,10.1,4.528,21.646,8.283,32.109a3.012,3.012,0,0,0,.7,1.228,1.649,1.649,0,0,0,.564.344c-.033-.133-.067-.2-.089-.277Zm0,0c-3.686-10.363-3.664-21.871-8.138-31.911a38.819,38.819,0,0,1-1.872-4.43,12.978,12.978,0,0,1-.509-2.889l-.277.066-.277.078-.277.111h0l-.255.158a9.716,9.716,0,0,0,.255.975,37.25,37.25,0,0,0,1.894,4.43c4.561,10.1,4.528,21.646,8.283,32.109a3.012,3.012,0,0,0,.7,1.228,1.649,1.649,0,0,0,.564.344c-.033-.133-.067-.2-.089-.277Zm0,0c-3.686-10.363-3.664-21.871-8.138-31.911a38.819,38.819,0,0,1-1.872-4.43,12.978,12.978,0,0,1-.509-2.889l-.277.066-.277.078-.277.111h0l-.255.158a9.716,9.716,0,0,0,.255.975,37.25,37.25,0,0,0,1.894,4.43c4.561,10.1,4.528,21.646,8.283,32.109a3.012,3.012,0,0,0,.7,1.228,1.649,1.649,0,0,0,.564.344c-.033-.133-.067-.2-.089-.277Zm0,0c-3.686-10.363-3.664-21.871-8.138-31.911a38.819,38.819,0,0,1-1.872-4.43,12.978,12.978,0,0,1-.509-2.889l-.277.066-.277.078-.277.111h0l-.255.158a9.716,9.716,0,0,0,.255.975,37.25,37.25,0,0,0,1.894,4.43c4.561,10.1,4.528,21.646,8.283,32.109a3.012,3.012,0,0,0,.7,1.228,1.649,1.649,0,0,0,.564.344c-.033-.133-.067-.2-.089-.277Z" transform="translate(53.943 -149.342)" fill="url(#linear-gradient-2)"/>
    <path id="Path_456" data-name="Path 456" d="M773.473,457.68a25.825,25.825,0,0,0-4.252,6.577c-.158.366-.333.72-.487,1.109-4.894,11.072-6.555,26.74-6.555,26.74s-3.033-1.361-7.33-3.487c-8.005-3.962-20.362-10.563-25.358-15.823-2.219-2.377-3.011-4.484-1.173-5.957a13.658,13.658,0,0,0,1.217-1.109,35.211,35.211,0,0,0,3.864-4.583c1.594-2.219,3.17-4.683,4.65-7.219.875-1.483,1.705-2.978,2.48-4.43l.317-.575c3.328-6.3,5.747-11.682,5.747-11.682s1.109.355,2.9.986C757.761,441.182,780.537,450.161,773.473,457.68Z" transform="translate(58.104 -143.587)" fill="#efb7b9"/>
    <path id="Path_457" data-name="Path 457" d="M912.146,695.612s1.35,10.032,3.067,20.617l-3.93-.2q-15.766-.819-31.567-2.092c-5.98-13.852-12.18-30.294-12.18-30.548s-.189-5.669-.4-11.715c-.067-2.125-.144-4.319-.211-6.378h0c-.111-3.122-.211-5.935-.266-7.685,0-1.2-.067-1.9-.067-1.9s-5.691,1-10.807,1.694l-2.27.3c-1.173.144-2.219.255-3.156.317a8.126,8.126,0,0,1-2.447,0c-1.743-.675,1.883-17.715,1.883-17.715l9.034-21.871,2.525-6.089,1.109-.277c.542-.133,1.268-.288,2.147-.453,8.625-1.585,31.667-3.6,35.575,19.143,4.839,28.09,5.536,34.4,5.536,34.4Z" transform="translate(70.99 -124.983)" fill="#efb7b9"/>
    <path id="Path_458" data-name="Path 458" d="M913.041,728H913Z" transform="translate(78.832 -112.408)" fill="#efb7b9"/>
    <path id="Path_459" data-name="Path 459" d="M912.146,695.612s1.35,10.032,3.067,20.617l-3.93-.2q-15.766-.819-31.567-2.092c-5.98-13.852-12.18-30.294-12.18-30.548s-.189-5.669-.4-11.715c-.067-2.125-.144-4.319-.211-6.378h0c-.111-3.122-.211-5.935-.266-7.685,0-1.2-.067-1.9-.067-1.9s-5.691,1-10.807,1.694l-2.27.3c-1.173.144-2.219.255-3.156.317a8.126,8.126,0,0,1-2.447,0c-1.743-.675,1.883-17.715,1.883-17.715l9.034-21.871,2.525-6.089,1.109-.277c.542-.133,1.268-.288,2.147-.453,8.625-1.585,31.667-3.6,35.575,19.143,4.839,28.09,5.536,34.4,5.536,34.4Z" transform="translate(70.99 -124.983)" opacity="0.05"/>
    <path id="Path_460" data-name="Path 460" d="M913.041,728H913Z" transform="translate(78.832 -112.408)" opacity="0.05"/>
    <path id="Path_461" data-name="Path 461" d="M911.572,715.428q-15.768-.819-31.567-2.092l-3.986-.317-1.761-.144c-4.961-11.969-9.366-23.673-9.366-23.884s-.189-5.669-.4-11.715c-.255-7.552-.542-15.966-.542-15.966l-.742.122-.317.055h-.4l-1.783.3-.975.158c-1.761.288-3.886.609-5.969.908l-.464.067-1.217.158-1.109.133h0c-.853.111-1.661.2-2.391.266l-.9.078a7.753,7.753,0,0,1-2.447,0c-1.743-.675,1.883-17.715,1.883-17.715l11.56-27.958.4-.111c.609-.158,1.894-.453,3.632-.753.653-.111,1.373-.222,2.147-.317,10.032-1.284,29.12-.919,32.648,19.6,4.839,28.09,5.536,34.4,5.536,34.4l6.455,30.537S910.354,707.534,911.572,715.428Z" transform="translate(70.701 -124.384)" fill="#efb7b9"/>
    <path id="Path_462" data-name="Path 462" d="M864.2,673.342c-.255-7.552-.542-15.977-.542-15.977s-11.072,1.938-16.232,2.314l1.041-3.521s18.957-5.23,19.354-2.281C868.114,655.947,865.676,666.953,864.2,673.342Z" transform="translate(70.988 -120.451)" opacity="0.1"/>
    <path id="Path_463" data-name="Path 463" d="M864.886,611.48v8.005s-.941,14.394-8.338,36.417c-.158.475-.317.941-.5,1.406a50.231,50.231,0,0,1-2.747,6.181c-2.081.289-4.1.531-5.591.642a8.093,8.093,0,0,1-2.447,0c-1.743-.675,1.872-17.715,1.872-17.715l11.56-27.947.409-.111,2.514-6.1a29.185,29.185,0,0,1,3.266-.777Z" transform="translate(70.705 -124.903)" opacity="0.1"/>
    <path id="Path_464" data-name="Path 464" d="M879.144,610.34v9.268S878.2,634,870.807,656.036c-.189.575-.4,1.109-.609,1.694s-.487,1.284-.764,1.9c-.609,1.472-1.295,2.9-2.014,4.279h0A73.954,73.954,0,0,1,847.2,687.05c-.819.634-1.585,1.184-2.219,1.65h-.055c-1.109.753-1.9,1.295-2.414,1.617s-.553.344-.553.344c-5.249-3.222-20.162-3.764-20.162-3.764l-34.811,6.322a201.768,201.768,0,0,1-23,2.613l-3.953.189c-2.281.089-4.65.144-7.075.158-1.96,0-3.953,0-5.98-.078h0a144,144,0,0,1-19.532-1.827,97.52,97.52,0,0,1-10.541-2.336,74.174,74.174,0,0,1-7.29-2.436c-24.359-9.566-18.015-32.253-13.907-42.075.222-.52.431-1,.634-1.439.908-2,1.585-3.178,1.585-3.178l1.617-3.908h0l2.647-6.411.586-1.406.158-.41,1.96-4.755,27.681-3.588,20.34-2.636,6.189-.792,4.2-.542,8.005-1.041,3.011-.388a37.47,37.47,0,0,1,5.614-.442,7.845,7.845,0,0,1,2.989.442c2.219,1.008,19.088-1.743,19.088-1.743s13.165-4.03,24.724-2.694a137.522,137.522,0,0,0,17.173.111h0l1.417-.067,1.838-.078h.4C862.535,611.757,879.144,610.34,879.144,610.34Z" transform="translate(54.299 -125.024)" fill="#444053"/>
    <path id="Path_465" data-name="Path 465" d="M772.43,635.578s-13.287,30.239-13.84,30.77-.531,9.966,0,9.411,18.956-41.388,18.956-41.388Z" transform="translate(61.417 -122.448)" opacity="0.1"/>
    <path id="Path_466" data-name="Path 466" d="M833.471,612.374s-6.721,4.341-8.736,7.839-20.429,38.3-24.99,43.4a111.506,111.506,0,0,0-10.219,14.538c-.531.919-.531,6.7,2.694,1.185s2.425-6.444,8.736-13.287,13.287-22.312,15.988-25.4,6.455-12.362,11.161-17.882l9.013-10.53Z" transform="translate(64.752 -124.822)" opacity="0.1"/>
    <path id="Path_467" data-name="Path 467" d="M831.621,666.381s-4.705-3.222-9.135,2.281S831.621,666.381,831.621,666.381Z" transform="translate(68.218 -119.115)" opacity="0.1"/>
    <path id="Path_468" data-name="Path 468" d="M836.459,667.79s-3.9,6.8-5.78,7.341S836.459,667.79,836.459,667.79Z" transform="translate(69.16 -118.863)" opacity="0.1"/>
    <path id="Path_469" data-name="Path 469" d="M831.21,669.32s-3.089,5.389-5.78,4.839Z" transform="translate(68.629 -118.699)" opacity="0.1"/>
    <path id="Path_470" data-name="Path 470" d="M811.573,538.721s28.489-1.206,31.312-2.147S870.7,532.41,870.7,532.41s74.052,5.23,52.959,11.56-49.726,3.621-49.726,3.621-27.958,7.263-32.253,11.072-36.019,3.9-36.019,3.9Z" transform="translate(66.509 -133.382)" fill="#efb7b9"/>
    <path id="Path_471" data-name="Path 471" d="M811.573,538.721s28.489-1.206,31.312-2.147S870.7,532.41,870.7,532.41s74.052,5.23,52.959,11.56-49.726,3.621-49.726,3.621-27.958,7.263-32.253,11.072-36.019,3.9-36.019,3.9Z" transform="translate(66.509 -133.382)" opacity="0.05"/>
    <path id="Path_472" data-name="Path 472" d="M721.106,479.55s-26.076,8.858-13.441,31.445,28.9,33.217,28.9,33.217l41.93,29.031s17.6,10.076,25.665,5.913l13.165-1.109,2.219-34.55s-11.072,8.6-23.12-3.328-26.884-20.029-28.09-26.467S736.286,474.036,721.106,479.55Z" transform="translate(55.63 -139.115)" fill="#a36468"/>
    <path id="Path_473" data-name="Path 473" d="M793.87,546.521s13.574,4.839,13.043,5.1S793.87,556.6,793.87,556.6l.941,18.413L813.224,574s6.721-33.528.941-36.894l-20.3-.941Z" transform="translate(65.244 -132.98)" fill="#67647e"/>
    <path id="Path_474" data-name="Path 474" d="M793.87,546.521s13.574,4.839,13.043,5.1S793.87,556.6,793.87,556.6l.941,18.413L813.224,574s6.721-33.528.941-36.894l-20.3-.941Z" transform="translate(65.244 -132.98)" opacity="0.1"/>
    <path id="Path_475" data-name="Path 475" d="M772.193,457.675a25.819,25.819,0,0,0-4.252,6.577c-.158.366-.333.72-.487,1.109-9.888,0-17-7.685-23.064-14.56-1.109-1.268-3.908.653-4.828-.775-.1-.159-.2-.333-.317-.5l.317-.575c3.328-6.3,5.747-11.682,5.747-11.682s1.109.355,2.9.986C756.482,441.177,779.258,450.154,772.193,457.675Z" transform="translate(59.385 -143.583)" opacity="0.1"/>
    <path id="Path_476" data-name="Path 476" d="M801.456,434.782A33.328,33.328,0,0,1,768.439,468.1h-.317a33.272,33.272,0,0,1-25-11.294,33.952,33.952,0,0,1-3.056-4.041,33.339,33.339,0,1,1,61.4-17.982Z" transform="translate(58.91 -147.428)" fill="#efb7b9"/>
    <path id="Path_477" data-name="Path 477" d="M771.791,618.22s-2.536,3.1-5.336,5.991a20.809,20.809,0,0,1-5.824,4.755c-3.328,1.217-18.543,12.766-18.543,12.766s-12.091,8.2-15.18,10.619-14.25.941-14.25.941-10.74-2.347-17.4-6.644a43.208,43.208,0,0,1,2.219-4.606l6.986-16.941,27.681-3.577Z" transform="translate(54.672 -124.18)" opacity="0.1"/>
    <path id="Path_478" data-name="Path 478" d="M771.771,616.28s-2.525,3.1-5.325,5.991a21.62,21.62,0,0,1-5.824,4.754c-3.328,1.208-18.543,12.766-18.543,12.766s-12.1,8.2-15.191,10.619-14.238.941-14.238.941-15.324-3.328-20.706-9.411c-3.764-4.241.133-12.1,2.791-16.432a33.233,33.233,0,0,1,2.048-3.055Z" transform="translate(54.148 -124.387)" fill="#67647e"/>
    <path id="Path_479" data-name="Path 479" d="M785.662,526.794c-9.146-.808-39.252-37.647-39.252-37.647l.686-.941,6.311-8.736h14.76l1.628,8.061c11.227,15.746,17.838,26.7,19.632,32.965C790.721,525.055,789.493,527.136,785.662,526.794Z" transform="translate(60.155 -139.058)" fill="#67647e"/>
    <path id="Path_480" data-name="Path 480" d="M785.662,525.947c-9.146-.808-39.252-37.647-39.252-37.647l.686-.941a170.013,170.013,0,0,1,15.18,15.849c22.03,25.931,26.4,18.69,27.149,16.432C790.721,524.21,789.493,526.291,785.662,525.947Z" transform="translate(60.155 -138.212)" opacity="0.1"/>
    <path id="Path_481" data-name="Path 481" d="M771.351,616.28s-2.525,3.1-5.325,5.991a15.1,15.1,0,0,1-4.617,1c-3.5-.133-11.56,5.389-11.56,5.389s-14.238-.808-16.929.664-13.043,1.743-13.043,1.743c-18.945,5.4-24.182-2.8-25.567-5.536a33.239,33.239,0,0,1,2.047-3.055Z" transform="translate(54.568 -124.387)" opacity="0.1"/>
    <path id="Path_482" data-name="Path 482" d="M804.291,551.428a11.706,11.706,0,0,1-.158,1.539c-.067.5-.133,1.008-.211,1.483a24.354,24.354,0,0,1-2.425,7.85c-2.414,4.03-9.81,19.754-9.81,19.754l-.5,2.9-.255,1.517-.266,1.495-1.805,10.6-.808,12.235s-4.43,6.181-6.311,8.858-1.617,6.588-.941,9.411-6.181,3.222-6.181,3.222-9.677,4.705-13.177,4.572-11.56,5.358-11.56,5.358-14.238-.808-16.929.675-13.043,1.743-13.043,1.743c-20.286,5.769-24.857-4.041-25.8-6.057s4.03-10.208,4.03-10.208,1.109-10.352,3.222-11.161,4.705-14.5,4.705-14.5-.808-4.174.941-6.455,1.617-8.736,3.9-11.825-2.414-13.441-1.605-16.132-2.558-13.574-2.292-16.4-.664-5.1-2.824-10.752c-1.838-4.816-1.317-26.22-1.109-32.353,0-1.041.056-1.639.056-1.639s1.883-6.057,6.854-18.148c3.764-9.157,12.235-12.622,16.121-13.752a20.231,20.231,0,0,1,2.027-.5,14.216,14.216,0,0,1,2.853.72c3.919,1.317,11.758,5.049,22.942,15.5a171.937,171.937,0,0,1,13.985,14.749c25.212,29.637,27.271,15.8,27.271,15.8s1.109,2.525,6.3,12.6A32.062,32.062,0,0,1,804.291,551.428Z" transform="translate(54.536 -139.567)" fill="#a36468"/>
    <path id="Path_483" data-name="Path 483" d="M759.816,479.954,734.527,459.78s-9.113,1.109-12.877,16.41l26.031,22.8Z" transform="translate(57.5 -141.17)" opacity="0.1"/>
    <path id="Path_484" data-name="Path 484" d="M759.865,480.053l-4.427,6.189-4.495,6.339-3.388,4.972-20.782-17.5-3.577-3.1-2.006-1.705c2.027-8.271,5.625-12.4,8.493-14.394a10.552,10.552,0,0,1,4.43-1.983Z" transform="translate(57.45 -141.268)" fill="#67647e"/>
    <path id="Path_485" data-name="Path 485" d="M924.613,551.252c-21.1,6.311-49.726,3.632-49.726,3.632s-27.958,7.252-32.253,11.072c-2.769,2.425-16.907,3.328-26.573,3.686-5.37.2-9.389.211-9.389.211l5.9-23.839,3.411-.158c7.652-.355,25.687-1.268,27.9-2,2.823-.941,27.814-4.163,27.814-4.163S945.709,544.93,924.613,551.252Z" transform="translate(66.618 -132.603)" fill="#efb7b9"/>
    <path id="Path_486" data-name="Path 486" d="M802.717,553.01a24.349,24.349,0,0,1-2.425,7.85c-2.414,4.03-9.81,19.754-9.81,19.754l-1.019,5.969A72.819,72.819,0,0,1,779.5,582l-41.964-29.065s-16.265-10.619-28.9-33.217,13.441-31.445,13.441-31.445c15.18-5.536,45.961,27.681,47.168,34.136s16.007,14.516,28.09,26.467A24.581,24.581,0,0,0,802.717,553.01Z" transform="translate(55.733 -138.18)" opacity="0.1"/>
    <path id="Path_487" data-name="Path 487" d="M803.092,550.356c-.1,1.052-.222,2.06-.377,3.022a24.356,24.356,0,0,1-2.425,7.85c-2.414,4.03-9.81,19.754-9.81,19.754l-.5,2.9a71.848,71.848,0,0,1-10.519-4.783l-41.93-29.076s-16.265-10.619-28.9-33.217,13.441-31.456,13.441-31.456c15.18-5.536,45.961,27.681,47.168,34.136S785.252,534,797.335,545.97a24.243,24.243,0,0,0,5.758,4.385Z" transform="translate(55.734 -138.495)" opacity="0.1"/>
    <path id="Path_488" data-name="Path 488" d="M820.454,550.808l-2.147,34.534-13.177,1.109a6.45,6.45,0,0,1-.9.387c-8.4,3.078-24.768-6.3-24.768-6.3l-41.931-29.065s-16.265-10.619-28.9-33.217,13.441-31.445,13.441-31.445c15.18-5.536,45.961,27.681,47.168,34.136s16.007,14.516,28.09,26.467a24.135,24.135,0,0,0,6.046,4.43,16.509,16.509,0,0,0,17.072-1.036Z" transform="translate(55.734 -138.337)" fill="#a36468"/>
    <path id="Path_489" data-name="Path 489" d="M810.944,544.55,808.8,579.084l-13.177,1.109a6.429,6.429,0,0,1-.9.388L793.87,563.8s12.5-4.705,13.043-4.972-13.043-5.1-13.043-5.1v-8.029a16.508,16.508,0,0,0,17.074-1.141Z" transform="translate(65.244 -132.079)" opacity="0.1"/>
    <path id="Path_490" data-name="Path 490" d="M816.009,568.99c-5.37.2-9.389.211-9.389.211l5.958-23.784,3.411-.158C818.18,549.036,817.239,560.132,816.009,568.99Z" transform="translate(66.612 -132.004)" opacity="0.1"/>
    <path id="Path_491" data-name="Path 491" d="M794.84,553.8s13.574,4.839,13.043,5.1-13.043,4.972-13.043,4.972l.941,18.413,18.413-1.008s6.721-33.528.941-36.894l-20.3-.941Z" transform="translate(65.349 -132.198)" fill="#67647e"/>
    <path id="Path_492" data-name="Path 492" d="M722.948,572.71s-4.572,4.3-8.338,5.436Z" transform="translate(56.745 -129.06)" opacity="0.1"/>
    <path id="Path_493" data-name="Path 493" d="M712.31,584.56s11.149-.41,12.49-2.694S712.31,584.56,712.31,584.56Z" transform="translate(56.498 -128.143)" opacity="0.1"/>
    <path id="Path_494" data-name="Path 494" d="M707.33,599.031c.675,0,14.105-1.883,14.649-3.632Z" transform="translate(55.964 -126.628)" opacity="0.1"/>
    <path id="Path_495" data-name="Path 495" d="M703.57,608.433c4.839-.144,13.032-5.388,13.032-5.388Z" transform="translate(55.561 -125.809)" opacity="0.1"/>
    <path id="Path_496" data-name="Path 496" d="M731.85,611s29.161,0,30.5-5.37S731.85,611,731.85,611Z" transform="translate(58.594 -125.691)" opacity="0.1"/>
    <path id="Path_497" data-name="Path 497" d="M751.63,542.859c.542,0,22.98,0,25.134-3.089S751.63,542.859,751.63,542.859Z" transform="translate(60.715 -132.686)" opacity="0.1"/>
    <path id="Path_498" data-name="Path 498" d="M732.219,463.25a21.489,21.489,0,0,1,.288,3.328,20.57,20.57,0,0,1-.333,3.687,31.923,31.923,0,0,1-2.081,6.721l-.233.542c-.333.775-.686,1.528-1.052,2.281a62.72,62.72,0,0,1-5.8,9.566,104.6,104.6,0,0,1-17.4,18.1q-1.694,1.426-3.422,2.824c0-1.041.055-1.639.055-1.639s1.883-6.057,6.854-18.148c3.764-9.157,12.235-12.622,16.121-13.752l-2-1.705c2.027-8.271,5.625-12.4,8.493-14.394C731.875,461.478,732.086,462.342,732.219,463.25Z" transform="translate(55.412 -141.074)" opacity="0.1"/>
    <path id="Path_499" data-name="Path 499" d="M796.571,417.438a3.9,3.9,0,0,0-.975.387c-2.1,1.163-2.713,3.919-4.43,5.658-1.983,2.048-5.083,2.358-7.905,2.713s-5.98,1.052-7.474,3.477c-1.109,1.805-1.008,4.075-1.406,6.156a1.96,1.96,0,0,1-.431,1.019,1.993,1.993,0,0,1-1.35.442c-5.536.388-9.566-1.517-14.749-2.853a7.878,7.878,0,0,0-7.132,1.109,8.111,8.111,0,0,0-2.1,6.267v.2a42.793,42.793,0,0,1,.2,6.644,10.962,10.962,0,0,1-5.791,8.116,10.242,10.242,0,0,1-4.186,1.2,3.388,3.388,0,0,1-1.661-.244c.986-1.683,1.927-3.328,2.791-4.994a33.337,33.337,0,1,1,56.562-35.3Z" transform="translate(58.923 -147.392)" opacity="0.1"/>
    <path id="Path_500" data-name="Path 500" d="M810.367,415a5.624,5.624,0,0,1-1.849,2.27c-2.525,1.639-6.145-.159-8.78,1.295-2.114,1.163-2.713,3.919-4.43,5.658-1.972,2.048-5.072,2.358-7.905,2.713s-5.969,1.052-7.474,3.477c-1.109,1.805-1,4.064-1.406,6.156a1.871,1.871,0,0,1-.433,1.019,2.027,2.027,0,0,1-1.35.442c-5.536.388-9.566-1.528-14.749-2.853a7.861,7.861,0,0,0-7.119,1.109,7.715,7.715,0,0,0-2.113,6.265,48.524,48.524,0,0,1,.211,6.815A11.072,11.072,0,0,1,743,458.674a2.724,2.724,0,0,1-2.049-.52,2.934,2.934,0,0,1-.675-1.219c-3.686-10.363-3.653-21.871-8.127-31.922a36.088,36.088,0,0,1-1.872-4.43c-.089-.317-.178-.634-.244-.951a14.539,14.539,0,0,1-.266-1.938,2.768,2.768,0,0,0-1.268.52,2.337,2.337,0,0,0-.355.377,6.565,6.565,0,0,0-.93,3.51,132.872,132.872,0,0,0,3.986,41.155,43.019,43.019,0,0,1,1.916,10.33,27.6,27.6,0,0,1-2.658,10.951c-6.942,16.007-20.893,27.735-34.767,38.333a15.424,15.424,0,0,0,4.121-11.438,4.516,4.516,0,0,1-3.51,3.144,13.531,13.531,0,0,1-4.949-.078c2.125-.7,2.956-3.2,3.487-5.369q1.627-6.644,3.022-13.408a84.452,84.452,0,0,0,1.949-13.088c.158-3.742-.122-7.5-.277-11.253a227.739,227.739,0,0,1,1.109-30.836c.819-8.858,2.3-18.435,8.8-24.481a38.243,38.243,0,0,1,9.3-5.8c0-1.109,8.116-3.328,9.192-3.477a8.726,8.726,0,0,1,1.35-.159,2.78,2.78,0,0,1,2.889,1.517c.4-.72.841-1.426,1.306-2.1a24.527,24.527,0,0,1,2.1-2.647c4.219-4.65,9.688-7.924,14.571-11.869a37.49,37.49,0,0,1,5.8-4.279,20.883,20.883,0,0,1,8.691-2.219,35.266,35.266,0,0,1,14.671,2.3c6.732,2.591,12.61,7.241,19.576,9.124a46.567,46.567,0,0,1,5.083,1.406,12.312,12.312,0,0,1,6.422,17.074Z" transform="translate(54.249 -149.2)" fill="#444053"/>
    <g id="Group_30" data-name="Group 30" transform="translate(745.567 256.97)" opacity="0.1">
      <path id="Path_501" data-name="Path 501" d="M698.239,502.283a15.3,15.3,0,0,0,1.008-6.533,4.539,4.539,0,0,1-3.521,3.144,7.2,7.2,0,0,1-1.284.188,5.562,5.562,0,0,1-3.122,4.03,13.543,13.543,0,0,0,4.95.089,5.538,5.538,0,0,0,1.972-.919Z" transform="translate(-691.32 -394.283)"/>
      <path id="Path_502" data-name="Path 502" d="M807.768,404.11a12.38,12.38,0,0,1-1.33,5.027,5.7,5.7,0,0,1-1.86,2.219c-2.514,1.639-6.145-.159-8.78,1.295-2.1,1.163-2.713,3.93-4.43,5.658-1.983,2.048-5.083,2.377-7.905,2.713s-5.98,1.109-7.474,3.477c-1.109,1.805-1.008,4.075-1.406,6.156a1.55,1.55,0,0,1-1.783,1.472c-5.536.388-9.566-1.528-14.749-2.867a7.878,7.878,0,0,0-7.132,1.109,8.136,8.136,0,0,0-2.1,6.277,46.708,46.708,0,0,1,.2,6.815,11.005,11.005,0,0,1-9.966,9.324,2.756,2.756,0,0,1-2.047-.52,2.977,2.977,0,0,1-.675-1.228c-3.686-10.363-3.664-21.871-8.138-31.911a38.733,38.733,0,0,1-1.861-4.43,12.988,12.988,0,0,1-.52-2.889,2.436,2.436,0,0,0-1.617.9,6.8,6.8,0,0,0-.93,3.51,133.622,133.622,0,0,0,1.109,26.573,133.921,133.921,0,0,1-.542-22.3,6.565,6.565,0,0,1,.93-3.51,2.325,2.325,0,0,1,1.617-.9,13.1,13.1,0,0,0,.509,2.889,37.862,37.862,0,0,0,1.872,4.43c4.43,10.054,4.43,21.554,8.127,31.911a3.054,3.054,0,0,0,.686,1.228,2.68,2.68,0,0,0,2.036.609,11.072,11.072,0,0,0,9.966-9.313,48.506,48.506,0,0,0-.211-6.815,8.313,8.313,0,0,1,2.114-6.278,7.7,7.7,0,0,1,7.119-1.109c5.182,1.328,9.192,3.244,14.749,2.853a2.028,2.028,0,0,0,1.35-.442,1.916,1.916,0,0,0,.432-1.03c.409-2.081.288-4.352,1.406-6.144,1.506-2.425,4.65-3.133,7.474-3.487s5.935-.653,7.924-2.694c1.672-1.743,2.27-4.495,4.43-5.669,2.625-1.45,6.255.355,8.78-1.284a5.624,5.624,0,0,0,1.835-2.29A12.557,12.557,0,0,0,807.768,404.11Z" transform="translate(-687.918 -404.11)"/>
      <path id="Path_503" data-name="Path 503" d="M732.172,461.646a27.68,27.68,0,0,1-2.647,10.95c-6.211,14.316-18.037,25.212-30.383,34.922a15.5,15.5,0,0,1-3.853,7.75c13.863-10.585,27.836-22.31,34.767-38.322a27.6,27.6,0,0,0,2.658-10.951,24.247,24.247,0,0,0-.564-4.816A4.56,4.56,0,0,1,732.172,461.646Z" transform="translate(-690.894 -397.991)"/>
    </g>
    <path id="Path_504" data-name="Path 504" d="M730.326,404c-1,4.583-2.377,10.541-3.4,13.608a16.61,16.61,0,0,1-.266-1.938,2.736,2.736,0,0,0-1.25.52c0-3.222.388-8.016.719-11.6a2.791,2.791,0,0,1,2.9,1.517A19.2,19.2,0,0,1,730.326,404Z" transform="translate(57.904 -147.152)" opacity="0.1"/>
    <path id="Path_505" data-name="Path 505" d="M729.85,404c-1,4.583-2.377,10.541-3.4,13.608a14.52,14.52,0,0,1-.266-1.938,2.769,2.769,0,0,0-1.268.52c0-3.222.388-8.016.731-11.6a2.78,2.78,0,0,1,2.889,1.517C728.942,405.395,729.439,404.686,729.85,404Z" transform="translate(57.848 -147.152)" fill="#67647e"/>
    <g id="Group_31" data-name="Group 31" transform="translate(1004.872 -0.03)" opacity="0.7">
      <path id="Path_506" data-name="Path 506" d="M933,179.57h183.436V357.99H933Z" transform="translate(-924.707 -171.188)" fill="#2e001e"/>
      <path id="Path_507" data-name="Path 507" d="M925.51,172V367.14h200.11V172Zm8.338,8.349h183.436V358.8H933.8Z" transform="translate(-925.51 -172)" fill="#ff2bc2"/>
      <path id="Path_508" data-name="Path 508" d="M1067.172,249.516a11.392,11.392,0,0,0-4.838-.842c-10.5,0-17.5,8.094-17.5,21.514,0,15.346,7.175,21.513,16.509,21.513a15.565,15.565,0,0,0,5.758-.919V249.516Zm-37.38,21.348c0-19.432,12.5-34.612,33.017-34.612a34.667,34.667,0,0,1,4.33.178V214.748a.842.842,0,0,1,.842-.842H1081.4c.664,0,.831.255.831.675v76.206a58.759,58.759,0,0,0,.42,8.172c0,.586,0,.675-.5.919a49.749,49.749,0,0,1-21.348,4.839c-18.093,0-31-11.172-31-33.848Zm-28.426-13.517,23.373,45.241c.42.664.158,1.328-.5,1.328h-14.5a1.628,1.628,0,0,1-1.743-1.109q-8.005-16.509-16.343-34.269h-.158c-5.005,11.172-10.508,23.351-15.849,34.325a1.606,1.606,0,0,1-1.506.919H960.3c-.83,0-.908-.675-.5-1.174l22.843-43.935-22.09-43.558a.742.742,0,0,1,.586-1.25h14.333c.83,0,1.25.158,1.495.919,5.26,11.072,10.6,22.012,15.6,33.217h.158c4.827-11.005,10.164-22.145,15.257-33.017.409-.675.664-1.109,1.495-1.109h13.43c.664,0,.908.5.5,1.25L1001.4,257.411Z" transform="translate(-921.856 -167.515)" fill="#ff2bc2"/>
    </g>
    <g id="Group_32" data-name="Group 32" transform="translate(210.164 12.205)" opacity="0.7">
      <path id="Path_509" data-name="Path 509" d="M250.45,244.46l62.692,122.693L207.77,244.46Z" transform="translate(-207.77 -176.465)" fill="#ea6c00"/>
      <path id="Path_510" data-name="Path 510" d="M365.637,244.46l-62.7,122.693L408.3,244.46Z" transform="translate(-197.565 -176.465)" fill="#ea6c00"/>
      <path id="Path_511" data-name="Path 511" d="M246.31,244.46H371.683L309,367.153Z" transform="translate(-203.638 -176.465)" fill="#fdad00"/>
      <path id="Path_512" data-name="Path 512" d="M309.007,183.05l-59.392,6.278-3.328,61.717Z" transform="translate(-203.642 -183.05)" fill="#fdd231"/>
      <path id="Path_513" data-name="Path 513" d="M302.93,183.05l59.381,6.278,3.328,61.717Z" transform="translate(-197.566 -183.05)" fill="#fdd231"/>
      <path id="Path_514" data-name="Path 514" d="M402.552,250.437,356.58,188.72l3.328,61.717Z" transform="translate(-191.812 -182.442)" fill="#fdad00"/>
      <path id="Path_515" data-name="Path 515" d="M207.77,250.437l45.972-61.717-3.328,61.717Z" transform="translate(-207.77 -182.442)" fill="#fdad00"/>
      <path id="Path_516" data-name="Path 516" d="M309,183.05,246.31,251.04H371.683Z" transform="translate(-203.638 -183.05)" fill="#feeeb7"/>
    </g>
  </g>
</svg>
