<svg xmlns="http://www.w3.org/2000/svg" width="1247.072" height="996.744" viewBox="0 0 1247.072 996.744">
  <g id="sup2" transform="translate(0.005)">
    <rect id="Rectangle_1533" data-name="Rectangle 1533" width="113.088" height="34.189" rx="7.43" transform="translate(254.938 170.946)" fill="#44bba4" opacity="0.1"/>
    <rect id="Rectangle_1534" data-name="Rectangle 1534" width="113.088" height="34.189" rx="7.43" transform="translate(373.284 205.135)" fill="#44bba4" opacity="0.1"/>
    <rect id="Rectangle_1535" data-name="Rectangle 1535" width="113.088" height="34.189" rx="7.43" transform="translate(491.631 239.325)" fill="#44bba4" opacity="0.1"/>
    <rect id="Rectangle_1536" data-name="Rectangle 1536" width="113.088" height="34.189" rx="7.43" transform="translate(254.938 119.662)" fill="#44bba4" opacity="0.1"/>
    <rect id="Rectangle_1537" data-name="Rectangle 1537" width="113.088" height="34.189" rx="7.43" transform="translate(373.284 153.852)" fill="#44bba4" opacity="0.1"/>
    <rect id="Rectangle_1538" data-name="Rectangle 1538" width="113.088" height="34.189" rx="7.43" transform="translate(491.631 188.041)" fill="#44bba4" opacity="0.1"/>
    <rect id="Rectangle_1539" data-name="Rectangle 1539" width="113.088" height="34.189" rx="7.43" transform="translate(623.127 170.946)" fill="#44bba4" opacity="0.1"/>
    <rect id="Rectangle_1540" data-name="Rectangle 1540" width="113.088" height="34.189" rx="7.43" transform="translate(741.475 205.135)" fill="#44bba4" opacity="0.1"/>
    <rect id="Rectangle_1541" data-name="Rectangle 1541" width="113.088" height="34.189" rx="7.43" transform="translate(859.822 239.325)" fill="#44bba4" opacity="0.1"/>
    <rect id="Rectangle_1542" data-name="Rectangle 1542" width="113.088" height="34.189" rx="7.43" transform="translate(623.127 119.662)" fill="#44bba4" opacity="0.1"/>
    <rect id="Rectangle_1543" data-name="Rectangle 1543" width="113.088" height="34.189" rx="7.43" transform="translate(741.475 153.852)" fill="#44bba4" opacity="0.1"/>
    <rect id="Rectangle_1544" data-name="Rectangle 1544" width="113.088" height="34.189" rx="7.43" transform="translate(859.822 188.041)" fill="#44bba4" opacity="0.1"/>
    <rect id="Rectangle_1545" data-name="Rectangle 1545" width="113.088" height="34.189" rx="7.43" transform="translate(254.938 51.284)" fill="#44bba4" opacity="0.1"/>
    <rect id="Rectangle_1546" data-name="Rectangle 1546" width="113.088" height="34.189" rx="7.43" transform="translate(373.284 85.473)" fill="#44bba4" opacity="0.1"/>
    <rect id="Rectangle_1547" data-name="Rectangle 1547" width="113.088" height="34.189" rx="7.43" transform="translate(491.631 119.662)" fill="#44bba4" opacity="0.1"/>
    <rect id="Rectangle_1548" data-name="Rectangle 1548" width="113.088" height="34.189" rx="7.43" transform="translate(254.938)" fill="#44bba4" opacity="0.1"/>
    <rect id="Rectangle_1549" data-name="Rectangle 1549" width="113.088" height="34.189" rx="7.43" transform="translate(373.284 34.189)" fill="#44bba4" opacity="0.1"/>
    <rect id="Rectangle_1550" data-name="Rectangle 1550" width="113.088" height="34.189" rx="7.43" transform="translate(491.631 68.378)" fill="#44bba4" opacity="0.1"/>
    <rect id="Rectangle_1551" data-name="Rectangle 1551" width="113.088" height="34.189" rx="7.43" transform="translate(623.127 51.284)" fill="#44bba4" opacity="0.1"/>
    <rect id="Rectangle_1552" data-name="Rectangle 1552" width="113.088" height="34.189" rx="7.43" transform="translate(741.475 85.473)" fill="#44bba4" opacity="0.1"/>
    <rect id="Rectangle_1553" data-name="Rectangle 1553" width="113.088" height="34.189" rx="7.43" transform="translate(859.822 119.662)" fill="#44bba4" opacity="0.1"/>
    <rect id="Rectangle_1554" data-name="Rectangle 1554" width="113.088" height="34.189" rx="7.43" transform="translate(623.127)" fill="#44bba4" opacity="0.1"/>
    <rect id="Rectangle_1555" data-name="Rectangle 1555" width="113.088" height="34.189" rx="7.43" transform="translate(741.475 34.189)" fill="#44bba4" opacity="0.1"/>
    <rect id="Rectangle_1556" data-name="Rectangle 1556" width="113.088" height="34.189" rx="7.43" transform="translate(859.822 68.378)" fill="#44bba4" opacity="0.1"/>
    <rect id="Rectangle_1557" data-name="Rectangle 1557" width="113.088" height="34.189" rx="7.43" transform="translate(254.938 779.776)" fill="#44bba4" opacity="0.1"/>
    <rect id="Rectangle_1558" data-name="Rectangle 1558" width="113.088" height="34.189" rx="7.43" transform="translate(373.284 813.965)" fill="#44bba4" opacity="0.1"/>
    <rect id="Rectangle_1559" data-name="Rectangle 1559" width="113.088" height="34.189" rx="7.43" transform="translate(491.631 848.154)" fill="#44bba4" opacity="0.1"/>
    <rect id="Rectangle_1560" data-name="Rectangle 1560" width="113.088" height="34.189" rx="7.43" transform="translate(254.938 728.492)" fill="#44bba4" opacity="0.1"/>
    <rect id="Rectangle_1561" data-name="Rectangle 1561" width="113.088" height="34.189" rx="7.43" transform="translate(373.284 762.681)" fill="#44bba4" opacity="0.1"/>
    <rect id="Rectangle_1562" data-name="Rectangle 1562" width="113.088" height="34.189" rx="7.43" transform="translate(491.631 796.87)" fill="#44bba4" opacity="0.1"/>
    <rect id="Rectangle_1563" data-name="Rectangle 1563" width="113.088" height="34.189" rx="7.43" transform="translate(623.127 779.776)" fill="#44bba4" opacity="0.1"/>
    <rect id="Rectangle_1564" data-name="Rectangle 1564" width="113.088" height="34.189" rx="7.43" transform="translate(741.475 813.965)" fill="#44bba4" opacity="0.1"/>
    <rect id="Rectangle_1565" data-name="Rectangle 1565" width="113.088" height="34.189" rx="7.43" transform="translate(859.822 848.154)" fill="#44bba4" opacity="0.1"/>
    <rect id="Rectangle_1566" data-name="Rectangle 1566" width="113.088" height="34.189" rx="7.43" transform="translate(623.127 728.492)" fill="#44bba4" opacity="0.1"/>
    <rect id="Rectangle_1567" data-name="Rectangle 1567" width="113.088" height="34.189" rx="7.43" transform="translate(741.475 762.681)" fill="#44bba4" opacity="0.1"/>
    <rect id="Rectangle_1568" data-name="Rectangle 1568" width="113.088" height="34.189" rx="7.43" transform="translate(859.822 796.87)" fill="#44bba4" opacity="0.1"/>
    <rect id="Rectangle_1569" data-name="Rectangle 1569" width="113.088" height="34.189" rx="7.43" transform="translate(254.938 660.113)" fill="#44bba4" opacity="0.1"/>
    <rect id="Rectangle_1570" data-name="Rectangle 1570" width="113.088" height="34.189" rx="7.43" transform="translate(373.284 694.302)" fill="#44bba4" opacity="0.1"/>
    <rect id="Rectangle_1571" data-name="Rectangle 1571" width="113.088" height="34.189" rx="7.43" transform="translate(491.631 728.492)" fill="#44bba4" opacity="0.1"/>
    <rect id="Rectangle_1572" data-name="Rectangle 1572" width="113.088" height="34.189" rx="7.43" transform="translate(254.938 608.829)" fill="#44bba4" opacity="0.1"/>
    <rect id="Rectangle_1573" data-name="Rectangle 1573" width="113.088" height="34.189" rx="7.43" transform="translate(373.284 643.019)" fill="#44bba4" opacity="0.1"/>
    <rect id="Rectangle_1574" data-name="Rectangle 1574" width="113.088" height="34.189" rx="7.43" transform="translate(491.631 677.208)" fill="#44bba4" opacity="0.1"/>
    <rect id="Rectangle_1575" data-name="Rectangle 1575" width="113.088" height="34.189" rx="7.43" transform="translate(623.127 660.113)" fill="#44bba4" opacity="0.1"/>
    <rect id="Rectangle_1576" data-name="Rectangle 1576" width="113.088" height="34.189" rx="7.43" transform="translate(741.475 694.302)" fill="#44bba4" opacity="0.1"/>
    <rect id="Rectangle_1577" data-name="Rectangle 1577" width="113.088" height="34.189" rx="7.43" transform="translate(859.822 728.492)" fill="#44bba4" opacity="0.1"/>
    <rect id="Rectangle_1578" data-name="Rectangle 1578" width="113.088" height="34.189" rx="7.43" transform="translate(623.127 608.829)" fill="#44bba4" opacity="0.1"/>
    <rect id="Rectangle_1579" data-name="Rectangle 1579" width="113.088" height="34.189" rx="7.43" transform="translate(741.475 643.019)" fill="#44bba4" opacity="0.1"/>
    <rect id="Rectangle_1580" data-name="Rectangle 1580" width="113.088" height="34.189" rx="7.43" transform="translate(859.822 677.208)" fill="#44bba4" opacity="0.1"/>
    <ellipse id="Ellipse_29" data-name="Ellipse 29" cx="576.613" cy="47.339" rx="576.613" ry="47.339" transform="translate(57.693 902.067)" fill="#44bba4" opacity="0.1"/>
    <path id="Path_196" data-name="Path 196" d="M237.137,261.484c54.375,23.565,85.618,72.324,85.618,72.324s-56.926,10.518-111.322-13.033-85.618-72.324-85.618-72.324S182.755,237.92,237.137,261.484Z" transform="translate(-125.82 -15.849)" fill="#44bba4"/>
    <path id="Path_197" data-name="Path 197" d="M341.08,198.764C357.9,171.149,386.539,158,386.539,158s1.316,31.48-15.451,59.015-45.471,40.673-45.471,40.673S324.253,226.22,341.08,198.764Z" transform="translate(-62.893 -43.599)" fill="#44bba4"/>
    <path id="Path_198" data-name="Path 198" d="M244.539,231.671c12.031,42.948,45.2,71.219,45.2,71.219s13.663-41.382,1.63-84.341-45.209-71.219-45.209-71.219S232.494,188.712,244.539,231.671Z" transform="translate(-89.986 -46.958)" fill="#46455b"/>
    <rect id="Rectangle_1581" data-name="Rectangle 1581" width="958.61" height="479.963" rx="7.21" transform="translate(156.315 182.78)" fill="#3f3d56"/>
    <path id="Path_199" data-name="Path 199" d="M118.87,482h958.61v19.449A9.481,9.481,0,0,1,1068,510.93H128.351a9.481,9.481,0,0,1-9.481-9.481Z" transform="translate(37.445 151.814)" opacity="0.1"/>
    <rect id="Rectangle_1582" data-name="Rectangle 1582" width="71.008" height="35.505" rx="2.5" transform="translate(249.677 598.309)" fill="#44bba4"/>
    <rect id="Rectangle_1583" data-name="Rectangle 1583" width="48.654" height="5.259" rx="1.357" transform="translate(340.411 628.554)" fill="#44bba4"/>
    <path id="Path_200" data-name="Path 200" d="M370.509,286.78c34.7,6.394,70.1,0,104.659-4.339l105.025-13.149c4.247-.539,10.427-3.077,12.927,2.118,1.407,2.907.459,9.2.566,12.545.277,9.2.25,18.408,0,27.615-.473,17.595-1.761,35.148-3.407,52.664-3.2,34.28-7.718,68.378-9.981,102.791-1.163,17.515-1.744,35.082-1.223,52.6.118,4.182.289,8.363.539,12.531.275,4.668,2.366,11.6-2.713,14.715-2.907,1.789-8.627,1.7-11.954,2.223-5.259.829-10.52,1.486-15.889,2.025-35.36,3.536-71.178,2.064-106.67,1.854l-107.17-.552-26.142-.145c-2.366,0-10.9,1.42-12.361-1.393-.618-1.2,1.025-6.8,1.316-8.3q.6-3.709,1.316-7.4c3.05-17.292,6.654-34.478,10.284-51.652,7.8-36.817,15.779-73.827,18.99-111.431,1.591-18.87.539-37.91,2.486-56.741.907-8.745,1.986-28.258,13.622-29.035,9.863-.657,20.013,0,29.9,0a1.973,1.973,0,1,0,0-3.945c-9.336,0-18.685-.25-28.021-.066-6.2.118-10.52,1.591-13.479,7.3-7.557,14.649-6.782,34.189-7.022,50.187-.566,38.278-6.443,75.742-14.1,113.179-3.852,18.844-8.009,37.621-11.836,56.477-1.8,9.008-3.525,18.042-5.1,27.1-.736,4.313-4.457,13.82-1.184,17.779s13.347,1.827,17.858,1.854l31.376.194,60.12.341c38.844.223,77.819,1.316,116.651.171,18.54-.552,38.134-1.316,56.194-5.747,5.379-1.316,7.968-3.786,8.179-9.52.316-8.888-1.132-18.054-1.316-26.983-1.316-76.4,16.633-151.734,14.793-228.159-.118-5.2,1.841-18.292-3.841-21.433-2.55-1.42-5.865-.643-8.547-.329-5.129.591-10.243,1.316-15.372,1.92l-66.6,8.311c-21.29,2.629-42.566,5.47-63.895,7.89-22.578,2.629-45.38,4.2-67.879,0-2.486-.461-3.55,3.341-1.052,3.8Z" transform="translate(-73.296 -10.137)" fill="#44bba4"/>
    <path id="Path_201" data-name="Path 201" d="M320.455,320.762,583.21,307.876c2.538-.132,2.552-4.069,0-3.945L320.455,316.816C317.93,316.936,317.916,320.882,320.455,320.762Z" transform="translate(-65.11 2.364)" fill="#44bba4"/>
    <path id="Path_202" data-name="Path 202" d="M381.99,295.046a6.575,6.575,0,0,0,2.325,10.611c3.536,1.618,7.693.264,11.2-.618,5.259-1.316,10.52-2.486,15.924-3.445a217.178,217.178,0,0,1,35.623-3.314c5.445-.066,10.851.194,16.292.42,3.945.157,8.193.473,11.531-1.973,3.813-2.788,5.05-8.231,1.316-11.626-5.259-4.8-16.595-2.011-22.671-1.511a508.352,508.352,0,0,0-65.565,9.783c-2.473.525-1.434,4.339,1.052,3.8q21.395-4.616,43.118-7.416,10.677-1.316,21.395-2.223c3.366-.277,6.734-.525,10.1-.723,1.316-.079,2.713-.223,4.05-.194,4.168.091,4.651-.657,2.157,4.379-2.223,4.457-1.511,3.945-5.366,3.8-1.63,0-3.261-.194-4.891-.264q-5.009-.211-10.02-.223-10.658,0-21.276,1.025c-6,.581-11.979,1.393-17.91,2.445-3.709.657-7.391,1.42-11.059,2.261-1.618.388-3.248.775-4.866,1.184-.775.211-1.566.388-2.341.591q-4.313,1.5-7.35-3.945c1.761-1.827-1.013-4.629-2.788-2.788Z" transform="translate(-45.695 -4.439)" fill="#44bba4"/>
    <path id="Path_203" data-name="Path 203" d="M432.795,335.408c-19.028-.736-39.58,4.4-52.111,19.724-9.809,11.979-15.4,32.532-5.011,46.023,11.163,14.465,35.654,11.913,50.416,5.747,15.622-6.575,32.717-20.133,37.412-37.1,5.852-21.183-13.149-37.2-32.941-37.437a1.975,1.975,0,0,0,0,3.945c11.283.132,22.354,4.97,27.615,15.477,5.509,11.072.763,22.7-6.575,31.56-11.756,14.111-30.139,24.749-48.864,24.444-11.239-.171-23.669-4.025-27.153-15.889-2.866-9.613-.684-20.119,4.313-28.64,10.809-18.408,32.808-24.642,52.979-23.853,2.538.093,2.538-3.852,0-3.945Z" transform="translate(-48.872 11.322)" fill="#44bba4"/>
    <path id="Path_204" data-name="Path 204" d="M405.065,360.058a5.129,5.129,0,0,0-6.891,5.259c.388,5.129,6.05,6.575,10.3,6.272,3.668-.316,7.956-1.67,6.668-6.259a5.89,5.89,0,0,0-3.209-3.709,7.429,7.429,0,0,0-3.709-.461c-.486,0-4.945,1.632-3.05-.329l-3.1-.407a3.234,3.234,0,0,1,.948,2.629,1.986,1.986,0,0,0,2.959,1.7,2.63,2.63,0,0,1,3.563,3.077,1.986,1.986,0,0,0,3.6,1.525c1.316-2.366,2.906-7.075.934-9.547-1.316-1.67-3.852-1.163-5.426-.194a19.035,19.035,0,0,0-2.713,2.325c-1.591,1.407-2.629,2.064-2.038-.632.986-4.9,5.668-8.811,9.94-10.77l-2.893-2.223a41.576,41.576,0,0,1-7.956,15.583l3.366,1.393a8.784,8.784,0,0,1,5.366-8.561h-1.938l1.025,1.684c-.388,2.486,3.418,3.55,3.8,1.039.5-3.248-1.55-7.468-5.352-5.877-4.536,1.893-6.891,7.088-6.8,11.715,0,1.577,2.236,2.8,3.379,1.407a46.366,46.366,0,0,0,8.954-17.345,2,2,0,0,0-2.907-2.223,22.054,22.054,0,0,0-9.572,8.332c-1.6,2.63-3.616,6.734-1.986,9.756a4.181,4.181,0,0,0,5.72,1.618,15.4,15.4,0,0,0,3.294-2.63c.486-.434,1.025-1.184,1.67-1.316.581-.388.552-.171-.093.7a7.17,7.17,0,0,1-1.143,3.84l3.6,1.512a6.575,6.575,0,0,0-9.349-7.534L407,363.114a7.17,7.17,0,0,0-1.486-4.651,2,2,0,0,0-3.091-.407,5.158,5.158,0,0,0,.132,7.64c1.88,1.434,2.8,0,4.866-.33,7.009-.907,2.92,2.248.448,2.354a9.322,9.322,0,0,1-3.294-.236q-4.116-1.393-.514-3.591c2.354.969,3.366-2.854,1.052-3.8Z" transform="translate(-40.04 15.89)" fill="#44bba4"/>
    <path id="Path_205" data-name="Path 205" d="M405.7,362.961c1.618,5.259-5.063,7-8.231,8.811a18.331,18.331,0,0,0-5.693,4.984c-3.313,4.445-4.55,10.1-5.641,15.424-.5,2.486,3.294,3.536,3.813,1.052a44.709,44.709,0,0,1,3.327-11.347c2.366-4.707,5.759-6.286,10.177-8.7s7.613-6.168,6.05-11.27c-.736-2.42-4.55-1.382-3.8,1.052Z" transform="translate(-43.84 20.195)" fill="#44bba4"/>
    <path id="Path_206" data-name="Path 206" d="M411.04,360.37a3.813,3.813,0,0,0-3.294,3.945c0,1.566,1.039,2.564,1.744,3.813a30.112,30.112,0,0,1,3.813,8.3c.632,2.827,1.25,7.89-.223,10.52-2.713,4.879-7.64,3.945-11.836,3.945-3.945,0-7,1.316-6.863-4.182.079-3.091,2.236-6.22,3.945-8.652l-3.6-.473a68.722,68.722,0,0,1,1.2,12.177c0,1.827,2.8,2.841,3.668.986a76.171,76.171,0,0,0,5.011-13.861l-3.875-.525.684,9.993a1.986,1.986,0,0,0,3.668,1,4.47,4.47,0,0,0,.986-1.775c.132-.618-1.077-4.786-1.566-3.294l3.875.525.277-9.495-3.945.525a19.645,19.645,0,0,1,.736,8.284c-.25,2.2,3.445,2.7,3.945.525l2.473-12.756-3.6.461a8.719,8.719,0,0,1,.671,5.681c-.289,2.519,3.656,2.5,3.945,0a13.859,13.859,0,0,0-1.209-7.666,1.986,1.986,0,0,0-3.6.473L405.576,381.6l3.875.525a21.511,21.511,0,0,0-.882-9.322,1.973,1.973,0,0,0-3.875.514l-.275,9.495a1.982,1.982,0,0,0,3.875.525l.211-.643a2,2,0,0,0-.5-1.92c-4.089-4.445-4.918,2.629-6.338,4.589l3.682,1-.684-9.993a1.984,1.984,0,0,0-3.875-.525,70.7,70.7,0,0,1-4.6,12.927l3.682,1a74.341,74.341,0,0,0-1.316-13.229c-.341-1.814-2.713-1.744-3.6-.473-2.629,3.786-7.179,12.058-3.668,16.595,3.064,3.945,12.7,2.42,16.819,2.17,6.5-.368,8.85-4.484,9.559-10.611a25.984,25.984,0,0,0-.486-8.784c-.355-1.55-3.945-11.388-5.023-11.19,2.5-.459,1.434-4.273-1.052-3.813Z" transform="translate(-42.608 20.141)" fill="#44bba4"/>
    <path id="Path_207" data-name="Path 207" d="M402.973,368.427,392.2,382.642l3.406,1.986,7.89-11.413-3.6-1.525-3.932,15a1.986,1.986,0,0,0,3.6,1.531,69.308,69.308,0,0,1,6.007-8.454l-3.294-1.92a21.472,21.472,0,0,1-4.957,9.107l3.294,1.92a17.634,17.634,0,0,1,1.434-5.259c1.013-2.275-2.2-4.286-3.407-2a46.311,46.311,0,0,1-3.8,5.97l3.6.473.8-3.748-3.6-.473.581,3.294a1.986,1.986,0,0,0,3.294.868,39.266,39.266,0,0,0,7.89-11.9h-3.393a17.712,17.712,0,0,1,1.854,5.259c.473,2.368,3.616,1.486,3.875-.525a106.947,106.947,0,0,0,.868-13.281h-3.945v8.264c0,2.143,3.511,2.775,3.875.525a15.07,15.07,0,0,1,1.938-5.654h-3.459a8.77,8.77,0,0,1,1.316,4.47,1.973,1.973,0,0,0,3.945,0l.5-2.629H411c.388,2.325,1.827,15.438-3.314,13.9-.868-.211-1.118-.157-.75.145l1.163-2.5,2.748-5.825-3.682-1c.236,2.713.486,6.575-1.143,8.888a6.811,6.811,0,0,1-7.429,1.525,13.151,13.151,0,0,1-3.432-3.6l-2.7,2.629c2.182,1.591,5.72,5.5,8.526,5.72,2.143.171,3.945-1.6,5.352-3.025a22.92,22.92,0,0,0,6.429-16.872,1.973,1.973,0,1,0-3.945,0v4.5a1.973,1.973,0,0,0,3.945,0V365.98a1.973,1.973,0,1,0-3.945,0,47.337,47.337,0,0,1-.684,7.89l3.875.525a90.87,90.87,0,0,1-.434-9.454,1.973,1.973,0,0,0-3.876-.525c-.591,2.519-1.316,4.984-2.011,7.443l3.6-.473-.277-1.052c-.194-2.519-4.129-2.519-3.945,0a7.218,7.218,0,0,0,.816,3.05,1.994,1.994,0,0,0,3.6-.473c.75-2.473,1.42-4.945,2.011-7.443l-3.875-.525a90.856,90.856,0,0,0,.434,9.454c.194,2.025,3.459,2.893,3.875.525a54.351,54.351,0,0,0,.829-8.995h-3.945v11.033h3.945v-4.5h-3.945a18.963,18.963,0,0,1-4.8,13.518,16.133,16.133,0,0,1-1.657,1.63c-.934.893-1.789.763-2.538-.407a32.85,32.85,0,0,1-5.426-3.945c-1.63-1.163-3.875,1.143-2.713,2.7,3.025,4.025,7.534,8.509,13.149,6.575,5.9-2.091,6.706-10.076,6.259-15.345-.145-1.744-2.761-2.932-3.668-.986-1.316,2.775-2.629,5.536-3.945,8.332A7.364,7.364,0,0,0,402.3,388c.434,2.959,4.025,2.473,6.234,2.3,8.561-.643,7.206-12.789,6.22-18.883-.329-2.025-3.275-1.709-3.8,0a11.626,11.626,0,0,0-.645,3.734h3.945A15.633,15.633,0,0,0,412.4,368.7a1.986,1.986,0,0,0-3.406,0,19.184,19.184,0,0,0-2.341,6.575l3.945.525v-8.27a1.973,1.973,0,1,0-3.945,0,106.929,106.929,0,0,1-.868,13.281l3.875-.525a22.579,22.579,0,0,0-2.248-6.154,1.986,1.986,0,0,0-3.407,0,35.979,35.979,0,0,1-7.272,11.1l3.294.868-.581-3.294c-.3-1.744-2.775-1.8-3.6-.473a8.652,8.652,0,0,0-1.2,6.782c.329,1.868,2.7,1.67,3.6.473a46.153,46.153,0,0,0,3.8-5.957l-3.406-2a22.433,22.433,0,0,0-1.841,6.2c-.237,1.744,1.827,3.55,3.294,1.92a26.3,26.3,0,0,0,5.97-10.861c.486-1.789-1.986-3.488-3.294-1.92a75.327,75.327,0,0,0-6.575,9.2l3.6,1.525,4.011-14.952a1.986,1.986,0,0,0-3.6-1.525l-7.89,11.433c-1.473,2.118,1.907,3.945,3.406,1.986l10.729-14.2c1.525-2.025-1.893-3.945-3.406-2Z" transform="translate(-42.179 20.949)" fill="#44bba4"/>
    <path id="Path_208" data-name="Path 208" d="M528.486,436.444c15.779-9.652,28.324-24.051,42.264-36.1,15.114-13.058,30.994-25.221,47.339-36.739,31.744-22.354,65.079-42.355,98.386-62.3a1.973,1.973,0,0,0-1.986-3.406c-33.308,19.949-66.658,39.917-98.4,62.3-14.977,10.52-29.6,21.671-43.618,33.505-15.254,12.886-28.837,28.93-46.025,39.336-2.17,1.316-.194,4.734,1.986,3.407Z" transform="translate(0.071 0.389)" fill="#44bba4"/>
    <path id="Path_209" data-name="Path 209" d="M722.108,253.853c-17.095,1.744-35.5,6.088-46.023,21.04-9.086,12.861-8.888,35.294-.355,48.5,9.689,15,29.494,15.542,44.88,10.69s31.31-13.361,31.164-31.744c-.079-9.863-3.643-20.133-7.575-29.066-3.393-7.718-9.4-14.465-18.5-13.611-2.519.236-2.538,4.182,0,3.945,12.19-1.132,16.108,13.347,19,22.478,2.63,8.526,5.063,18.633.934,27.115S731.551,326,723.042,329.107c-9.2,3.341-19.317,5.379-28.93,2.629-19.04-5.325-24.3-29.453-18.817-46.575,6.311-19.724,28.667-25.524,46.879-27.365,2.5-.25,2.519-4.2,0-3.945Z" transform="translate(45.363 -13.413)" fill="#44bba4"/>
    <path id="Path_210" data-name="Path 210" d="M742.108,369.853c-17.095,1.744-35.505,6.088-46.023,21.04-9.086,12.861-8.888,35.294-.355,48.5,9.689,15,29.494,15.542,44.88,10.69s31.31-13.361,31.164-31.744c-.08-9.863-3.643-20.133-7.575-29.066-3.393-7.718-9.4-14.465-18.5-13.611-2.519.236-2.538,4.182,0,3.945,12.19-1.132,16.108,13.347,19,22.478,2.63,8.526,5.063,18.633.934,27.115S751.551,442,743.042,445.107c-9.2,3.341-19.317,5.379-28.928,2.629-19.04-5.325-24.3-29.453-18.817-46.575,6.311-19.724,28.667-25.524,46.879-27.365,2.5-.25,2.519-4.2,0-3.945Z" transform="translate(51.662 23.123)" fill="#44bba4"/>
    <path id="Path_211" data-name="Path 211" d="M689.966,299.171l12.452,14.2a1.986,1.986,0,0,0,3.294-.882c2.629-6.918,2.131-14.083,2.748-21.356a70.311,70.311,0,0,1,5.588-21.79,73.544,73.544,0,0,1,29.428-33.728c2.17-1.316.194-4.734-1.986-3.407A77.212,77.212,0,0,0,711.733,264.9a75.578,75.578,0,0,0-6.575,20.869c-1.316,8.526-.118,17.476-3.275,25.669l3.294-.882L692.79,296.382c-1.684-1.907-4.457.893-2.788,2.788Z" transform="translate(51.72 -20.32)" fill="#44bba4"/>
    <path id="Path_212" data-name="Path 212" d="M533.058,416.31q101.731-3.1,203.531-1.316a1.975,1.975,0,0,0,0-3.945q-101.766-1.816-203.531,1.316C530.519,412.445,530.506,416.388,533.058,416.31Z" transform="translate(1.85 35.895)" fill="#44bba4"/>
    <path id="Path_213" data-name="Path 213" d="M698.462,386.256a407.529,407.529,0,0,1,66.629,33.48c2.157,1.314,4.143-2.064,1.986-3.406a411.875,411.875,0,0,0-67.51-33.873c-2.355-.934-3.38,2.879-1.039,3.8Z" transform="translate(54.151 27.052)" fill="#44bba4"/>
    <path id="Path_214" data-name="Path 214" d="M739.443,371.876a161.082,161.082,0,0,0-38.673,98c-.1,2.538,3.839,2.538,3.945,0a156.665,156.665,0,0,1,37.516-95.216C743.875,372.744,741.1,369.944,739.443,371.876Z" transform="translate(55.273 23.561)" fill="#44bba4"/>
    <path id="Path_215" data-name="Path 215" d="M330.7,405.513l146.975-1.92,16.9-.223c3.038,0,6.075-.1,9.107-.118a7.247,7.247,0,0,1,7.075,7.89c-.194,9.2-5.984,8.877-13.564,9.2l-18.265.829-74.374,3.275c-13.32.591-26.653,1.316-39.975,1.775-12.014.368-34.879-3.55-29.535-21.04.736-2.432-3.064-3.472-3.813-1.052-2.629,8.6,2.025,17.331,9.52,21.842,10.638,6.394,24.656,4.22,36.4,3.7l91.311-4.143,22.169-.986c5.681-.263,13.583.893,18.8-1.744,6.127-3.091,7.206-15.358,3.341-20.526-1.986-2.63-4.773-2.866-7.89-2.984-8.179-.316-16.5.223-24.694.329l-45.525.6-104.027,1.316a1.975,1.975,0,0,0,0,3.945Z" transform="translate(-61.905 32.372)" fill="#44bba4"/>
    <g id="Group_28" data-name="Group 28" transform="translate(844.146 295.372)">
      <path id="Path_216" data-name="Path 216" d="M786.239,778.174c-3.314,2.077-7.1,3.248-10.52,5.075s-6.745,4.577-7.718,8.363a5.26,5.26,0,0,0,.17,3.577,6.943,6.943,0,0,0,3.682,2.92,55.874,55.874,0,0,0,44.2.5,58.166,58.166,0,0,1,7.627-3.025,49.549,49.549,0,0,1,9.77-1,75.115,75.115,0,0,0,10.27-1.316,9.036,9.036,0,0,0,4.651-1.938,8.64,8.64,0,0,0,2.091-5.022,41.355,41.355,0,0,0-6.575-29.3,9.9,9.9,0,0,0-2.866-3.038,11.06,11.06,0,0,0-4.563-1.223c-6.575-.8-13.465-2.275-20.106-2.432-4.761-.1-7.154,2.157-10.52,5.426C798.868,762.711,794.8,772.822,786.239,778.174Z" transform="translate(-767.767 -152.412)" fill="#323444"/>
      <path id="Path_217" data-name="Path 217" d="M855.685,777.35c0,6.443.775,13.268,4.682,18.408a24.323,24.323,0,0,0,6.394,5.588c8.259,5.259,19.2,7.193,27.9,2.734a8.282,8.282,0,0,0,3.473-2.918c1.316-2.289.618-5.141-.118-7.666l-12.6-43.657c-8.138,1.25-20.106,2.131-27.337,6.259C852.831,759.085,855.685,771.589,855.685,777.35Z" transform="translate(-740.321 -152.56)" fill="#323444"/>
      <path id="Path_218" data-name="Path 218" d="M777.759,569.189c-.763,2.407-3.525,3.525-5.038,5.55a10.533,10.533,0,0,0-.948,8.574,22.67,22.67,0,0,0,5.773,11.374,13.637,13.637,0,0,0,11.834,4.025,9.861,9.861,0,0,0,8.034-8.85,16.75,16.75,0,0,0-1.236-5.693l-8.954-25.934a.98.98,0,0,0-1.618-.709c-2.118,1-6.365,2.052-7.6,4.248S778.652,566.805,777.759,569.189Z" transform="translate(-766.684 -213.217)" fill="#fbb3b2"/>
      <path id="Path_219" data-name="Path 219" d="M773,570.484c3.275-.514,6.141-2.432,9.2-3.7s6.9-1.744,9.481.355c.736.6,1.445,1.434,2.407,1.42a94.149,94.149,0,0,0-5.891-18.724,1.459,1.459,0,0,0-.513-.723,1.486,1.486,0,0,0-1.118,0l-8.849,2.314c-3.275.854-3.656.591-3.407,3.814C774.382,556.676,775.118,570.484,773,570.484Z" transform="translate(-766.121 -215.815)" fill="#323444"/>
      <path id="Path_220" data-name="Path 220" d="M773.523,423.064a12.463,12.463,0,0,0-1.316,6.929,235.591,235.591,0,0,0,1.841,34.86c.407,2.761.92,5.523,1.184,8.311a95.875,95.875,0,0,1,.194,11.663l-1.316,50.627c-.159,6.2-.473,12.847-4.3,17.713a8.469,8.469,0,0,0-1.538,5.619c1,12.7,3.1,25.3,5.2,37.857a23.394,23.394,0,0,1,21.224,1.013,233.622,233.622,0,0,0,10.9-64.433c.3-10.77-.157-21.605,1.5-32.244,2.775-17.91,1.643-36.28-.388-54.3-.645-5.707-2.011-11.586-5.668-16a24.26,24.26,0,0,0-13.15-7.575C783,421.828,778.652,423.144,773.523,423.064Z" transform="translate(-767.618 -255.647)" fill="#5b5583"/>
      <path id="Path_221" data-name="Path 221" d="M773.523,423.064a12.463,12.463,0,0,0-1.316,6.929,235.591,235.591,0,0,0,1.841,34.86c.407,2.761.92,5.523,1.184,8.311a95.875,95.875,0,0,1,.194,11.663l-1.316,50.627c-.159,6.2-.473,12.847-4.3,17.713a8.469,8.469,0,0,0-1.538,5.619c1,12.7,3.1,25.3,5.2,37.857a23.394,23.394,0,0,1,21.224,1.013,233.622,233.622,0,0,0,10.9-64.433c.3-10.77-.157-21.605,1.5-32.244,2.775-17.91,1.643-36.28-.388-54.3-.645-5.707-2.011-11.586-5.668-16a24.26,24.26,0,0,0-13.15-7.575C783,421.828,778.652,423.144,773.523,423.064Z" transform="translate(-767.618 -255.647)" opacity="0.1"/>
      <path id="Path_222" data-name="Path 222" d="M785.51,538.833a232.237,232.237,0,0,0,13.833,134.441,36.457,36.457,0,0,1,3.209,9.941c.722,6.443-2.248,12.636-3.945,18.869-3.945,14.174-1.67,29.271.854,43.775q1.577,9.072,3.248,18.133c1.091,5.891,2.143,12.295-.591,17.633,2.354,9.811,3.748,19.526,6.1,29.337a5.578,5.578,0,0,1,.223,2.407,7.089,7.089,0,0,1-2.407,3.222,14.386,14.386,0,0,0-3.668,13.768c6.007-4.313,14.386-2.8,21.249,0s13.622,6.575,21.04,6.575c-1.077-8.7-2.118-17.844,1.091-26.01,1.868-4.734,5.154-9.2,5.063-14.267-.093-4.536-2.866-8.586-3.536-13.07a33.075,33.075,0,0,1,.316-8.363c1.761-16.095-.236-32.349-2.236-48.418a28.933,28.933,0,0,0-2.209-9.2,13.59,13.59,0,0,1-2.3-5.825c0-2.459,1.986-4.457,2.713-6.8,1.316-4.313-1.1-10.179,2.538-12.847,9.6-7.048,5.918-23.88,5.707-35.78q-.25-15.4-1.316-30.771a131.066,131.066,0,0,1,7.259,53.045c-.421,5.891-1.2,12.084,1.1,17.529,1.761,4.182,5.259,7.627,6.2,12.058a50.45,50.45,0,0,1,.3,8.35,8.6,8.6,0,0,0,3.488,7.232c.194,12.676,1.316,26.233,1.512,38.909a95.963,95.963,0,0,0,1.577,19.331,24.647,24.647,0,0,1,.969,6.234,26.043,26.043,0,0,1-2.077,7.666,43.96,43.96,0,0,0,6.575,40.566c3.1-5.509,9.572-8.429,15.889-8.888s12.545,1.132,18.66,2.734a36.544,36.544,0,0,1,4.366-22.224,18.18,18.18,0,0,0,2.3-4.945c.709-3.341-.947-6.668-1.841-9.968-1.459-5.259-.948-10.927-.6-16.424a259.891,259.891,0,0,0-2.432-55.123,46.71,46.71,0,0,0-2.519-10.52c-.473-1.209-1.052-2.366-1.445-3.59a28.291,28.291,0,0,1-1.052-6.732l-1.494-21.04c-1.066-14.74,3.775-29.3,7.154-43.684,1.511-6.443,3.156-12.874,4.168-19.422,1.382-8.914,1.6-18.021,3.629-26.826,1.814-7.891,5.088-15.583,5.772-23.669,1.052-12.531-4.154-24.642-9.2-36.135-2.1-4.734-10.059-4.263-15.174-5.1-36.28-5.956-74.492-6-108.706,7.429a27.05,27.05,0,0,0-9.354,6.461Z" transform="translate(-763.536 -224.601)" fill="#3c354c"/>
      <path id="Path_223" data-name="Path 223" d="M805.651,359.7l4.025,15.649a41.82,41.82,0,0,1,1.8,11.059,8.168,8.168,0,0,1-.882,3.945,9.4,9.4,0,0,1-2.5,2.55c-2.748,2.091-4.651,6.976-7.8,8.415,1.618,2.814,3.852.986,6.772,2.393,5.141,2.5,9.849,6.088,15.424,7.325,5.259,1.163,10.783.066,16-1.316a55.262,55.262,0,0,0,20.724-9.638c5.956-4.844,9.349-9.138,9.322-16.806-6.575.775-12.427-5.866-15.333-11.836a32.156,32.156,0,0,1-2.209-7.088l-3.525-15.5c-3.841.841-6.976,3.591-10.638,5.023a38.621,38.621,0,0,1-12.084,1.744A130.192,130.192,0,0,0,803.25,358.4c-.969.194-2.2.816-1.959,1.761" transform="translate(-757.522 -278.858)" fill="#fbb3b2"/>
      <path id="Path_224" data-name="Path 224" d="M805.651,359.7l4.025,15.649a41.82,41.82,0,0,1,1.8,11.059,8.168,8.168,0,0,1-.882,3.945,9.4,9.4,0,0,1-2.5,2.55c-2.748,2.091-4.651,6.976-7.8,8.415,1.618,2.814,3.852.986,6.772,2.393,5.141,2.5,9.849,6.088,15.424,7.325,5.259,1.163,10.783.066,16-1.316a55.262,55.262,0,0,0,20.724-9.638c5.956-4.844,9.349-9.138,9.322-16.806-6.575.775-12.427-5.866-15.333-11.836a32.156,32.156,0,0,1-2.209-7.088l-3.525-15.5c-3.841.841-6.976,3.591-10.638,5.023a38.621,38.621,0,0,1-12.084,1.744A130.192,130.192,0,0,0,803.25,358.4c-.969.194-2.2.816-1.959,1.761" transform="translate(-757.522 -278.858)" opacity="0.1"/>
      <circle id="Ellipse_30" data-name="Ellipse 30" cx="34.821" cy="34.821" r="34.821" transform="translate(30.587 19.826)" fill="#fbb3b2"/>
      <path id="Path_225" data-name="Path 225" d="M834.485,386.751a31.563,31.563,0,0,1,7.891-10.52c4.9-4.3,11.611-7.784,12.768-14.2L865.768,374.4a5.726,5.726,0,0,1,1.316,2.025,5.1,5.1,0,0,1-1,4.089c-2.63,4.2-6.772,7.193-10.691,10.231a324.631,324.631,0,0,0-25.76,22.722,2.632,2.632,0,0,1-1.382.841,2.484,2.484,0,0,1-1.434-.407,59.815,59.815,0,0,1-18.37-14.938c-.388-.461-.854-.986-1.473-.948a1.893,1.893,0,0,0-.986.513c-3.538,2.893-7.4,6.352-11.94,5.9,5.877-4.22,9.2-11.27,10.44-18.408a34.8,34.8,0,0,1,1.5-7.193,7.509,7.509,0,0,1,5.129-4.866c-2.866,4.379-.907,10.586,2.945,14.122a29.036,29.036,0,0,0,13.045,6.325C831.581,395.26,832.9,390.2,834.485,386.751Z" transform="translate(-759.493 -274.707)" fill="#323444"/>
      <path id="Path_226" data-name="Path 226" d="M794.271,543.384c4.957,1.223,9.652,3.294,14.465,4.844a69.128,69.128,0,0,0,27.153,2.854,14.662,14.662,0,0,0,7.89-2.519c.618-.5,1.184-1.091,1.841-1.55a12.87,12.87,0,0,1,3.536-1.459c12.059-3.775,22.158-11.913,31.953-19.883.316-.263.67-.591.643-1.013a1.315,1.315,0,0,0-.387-.75L876.207,518c-13.518,2.3-27.365,1.434-41.08,1.091a59.636,59.636,0,0,0-8.443.223c-2.713.316-5.377,1-8.047,1.577-10.138,2.209-20.5,3.05-30.771,4.5a4.747,4.747,0,0,0-2.038.632,4.592,4.592,0,0,0-1.091,1.209l-3.6,5.063a15.929,15.929,0,0,0-3.025,5.8c-.841,3.945.92,5.259,4.275,4.747a31.219,31.219,0,0,1,11.886.545Z" transform="translate(-764.579 -225.582)" fill="#323444"/>
      <path id="Path_227" data-name="Path 227" d="M836.812,404.472a64.057,64.057,0,0,0-13.564-10.586,19.209,19.209,0,0,0-6.575-2.629,8.206,8.206,0,0,0-6.732,1.657c-1.163,1.039-1.907,2.486-3.038,3.577a15.113,15.113,0,0,1-4.813,2.713,85.363,85.363,0,0,0-16.91,9.638,38.788,38.788,0,0,0-7.666,7.075c-5.956,7.627-6.852,18-6.693,27.68.118,6.732,6.575,11.729,11.02,16.765a123.518,123.518,0,0,1,11.284,15.779c2.393,3.786,4.891,7.89,4.588,12.4-.25,3.7-2.407,7.17-2.064,10.851.118,1.316.539,2.519.657,3.8.236,2.63-.8,5.259-1.066,7.89-.355,3.72.854,7.416.92,11.163a35.518,35.518,0,0,1-.969,7.613c-2.519,12.014-5.693,24.1-5.05,36.371l-7.286,1.316a6.154,6.154,0,0,1-1.407,9.822c11.375,3.8,23.669,1.88,35.728,1.868,9.981,0,19.922,1.316,29.889,1.132s20.251-1.986,28.469-7.627c2.236-1.525,4.286-3.314,6.641-4.651a32.757,32.757,0,0,1,10.059-3.294,99.823,99.823,0,0,1,19.724-1.761c3.234,0,6.759.132,9.336-1.814,2.841-2.157,3.563-6.061,3.945-9.6q.581-5.6.684-11.239a48.422,48.422,0,0,0-.461-8.731,57.142,57.142,0,0,0-1.539-6.259l-4.957-17.463c-2.052-7.206.8-15.114,1.407-22.578a5.662,5.662,0,0,0-1.184-4.945c-.486-.407-1.163-.684-1.316-1.316a2.248,2.248,0,0,1,.316-1.761,97.35,97.35,0,0,1,10.177-14.649A299.34,299.34,0,0,0,945.2,436.816,83.225,83.225,0,0,0,922.915,387a24.1,24.1,0,0,0-9.322-6.877,27.615,27.615,0,0,0-7.416-1.2c-10.309-.7-21.04-1.316-30.021-6.5a5.709,5.709,0,0,0-2.143-.907c-1.986-.223-3.432,1.744-4.72,3.294-3.314,3.945-8.193,6.2-12.479,9.107C848.83,389.39,842.585,396.858,836.812,404.472Z" transform="translate(-766.816 -271.73)" fill="#5b5583"/>
      <path id="Path_228" data-name="Path 228" d="M916.385,428.87c2.052,6.5,1.854,13.438,2.519,20.21a78.687,78.687,0,0,0,2.143,12.111,19.332,19.332,0,0,0,2.5,6.168,27.143,27.143,0,0,1,3.629,5.1,12.314,12.314,0,0,1,.539,4.1l.157,9.072a32.628,32.628,0,0,1-2.137,14.124l-5.668,17.246c-3.063,9.336-6.2,18.817-11.729,26.934a7.769,7.769,0,0,1-3.379,3.168,16.4,16.4,0,0,1-3.407.527,8.759,8.759,0,0,0-7.208,8.512,19.978,19.978,0,0,0-4.844-4.957l-11.531-9.2a49.291,49.291,0,0,0-12.847-8.332,34.832,34.832,0,0,0,24.221-29.271,13.153,13.153,0,0,1,1.316-5.759c.969-1.55,2.736-2.736,2.866-4.563.157-2.3-2.445-4.036-2.445-6.338,0-1.525,1.132-2.788,1.632-4.22a10.6,10.6,0,0,0,0-5.4l-1.591-8.836a6.753,6.753,0,0,0-.789-2.519,16.335,16.335,0,0,0-1.973-2.077c-2.734-3.064-1.525-7.89,0-11.663a111.479,111.479,0,0,1,13.438-23.578,80.628,80.628,0,0,0,5.352-7.654c1.393-2.42,1.709-5.772,3.182-7.89C912.2,418.85,914.767,423.755,916.385,428.87Z" transform="translate(-737.101 -258.376)" fill="#5b5583"/>
      <path id="Path_229" data-name="Path 229" d="M866.586,505.669a6.331,6.331,0,0,0-1.5,1.577,13.3,13.3,0,0,1-5.956,4.247c1.316.948,2.519,1.88,3.748,2.841a164.229,164.229,0,0,1,24.985,23.892c.829-2.959,5.786-2.748,7-5.575a5.46,5.46,0,0,0,.263-2.519,77.008,77.008,0,0,0-1.893-13.149,14.885,14.885,0,0,0-2.629-6.154,15.781,15.781,0,0,0-7.443-4.209C879.013,505.169,870.793,503.131,866.586,505.669Z" transform="translate(-738.993 -229.844)" fill="#323444"/>
      <path id="Path_230" data-name="Path 230" d="M857.39,514.249c-3.945,2.918-7.4,6.575-11.834,8.572-3.129,1.42-6.693,2.039-9.429,4.154a9.369,9.369,0,0,0,8.943,4.844,21.251,21.251,0,0,0,10.006-3.668c2.354-1.445,5.116-3.129,7.679-2.118.388,2-1.316,3.875-1.316,5.9a5.952,5.952,0,0,0,3.341,4.563c7.89,5.088,18.042,4.668,27.444,4.069a2.471,2.471,0,0,0,1.511-.448,2.379,2.379,0,0,0,.566-1.744c.118-2.077.17-4.143.194-6.22a8.913,8.913,0,0,0-3.813-8.784,107.289,107.289,0,0,0-16.438-11.638C868.454,508.4,862.591,510.383,857.39,514.249Z" transform="translate(-746.24 -228.09)" fill="#fbb3b2"/>
      <path id="Path_231" data-name="Path 231" d="M829.1,326.132c-5.838.7-10.076,5.259-9.495,10.218s5.8,8.377,11.638,7.666,10.076-5.259,9.495-10.2S834.935,325.434,829.1,326.132Zm1.986,16.515c-4.945.591-9.35-2.314-9.863-6.5s3.1-8.047,8.034-8.64,9.349,2.314,9.863,6.5S836.016,342.054,831.083,342.647Z" transform="translate(-751.46 -286.043)" fill="#3c354c"/>
      <path id="Path_232" data-name="Path 232" d="M807.457,328.732c-5.839.7-10.076,5.259-9.495,10.2s5.8,8.377,11.638,7.679,10.076-5.259,9.495-10.218S813.3,328.034,807.457,328.732Zm1.986,16.5c-4.945.591-9.35-2.314-9.849-6.484s3.091-8.047,8.034-8.652,9.349,2.314,9.849,6.5-3.1,8.049-8.034,8.631Z" transform="translate(-758.277 -285.223)" fill="#3c354c"/>
      <path id="Path_233" data-name="Path 233" d="M663.405,259.64l12.69,2.713-1.25,3.341-11.965-3.511Z" transform="translate(-635.356 -213.594)" fill="#3c354c"/>
      <path id="Path_234" data-name="Path 234" d="M719.874,253.18l-11.7,5.641,2.011,2.945,10.8-6.245Z" transform="translate(-621.092 -215.629)" fill="#3c354c"/>
      <path id="Path_235" data-name="Path 235" d="M687.31,261.316l8.9-1.066-.459,2.209-7.641.514Z" transform="translate(-627.663 -213.402)" fill="#3c354c"/>
      <path id="Path_236" data-name="Path 236" d="M805.165,340.552a14.12,14.12,0,0,0,1.316-5.747,12.264,12.264,0,0,1,.6-3.5,9.789,9.789,0,0,1,2.866-3.668,26.521,26.521,0,0,1,15.779-5.509,36.477,36.477,0,0,1,18.252,3.945,14.2,14.2,0,0,1,4.536,3.366c1.841,2.248,2.236,5.154,4.089,7.377a10.743,10.743,0,0,0,10.076,3.157c.645-2.288-.194-4.707.132-7.047a34.071,34.071,0,0,1,2.091-5.838,14.351,14.351,0,0,0-7.061-16.569,27.258,27.258,0,0,1-6.286-3.945,29.768,29.768,0,0,1-3.09-5.391c-2.932-4.7-10.52-6.891-16.292-4.72-1.816.684-3.418,1.723-5.259,2.459a43.357,43.357,0,0,1-11.072,2.132,33.913,33.913,0,0,0-10.729,2.814,12.014,12.014,0,0,0-6.72,7.259c-.355,1.42-.277,2.893-.632,4.3-1.816,7.141-13.531,10.611-14.188,17.9a10.442,10.442,0,0,0,2.986,7.3c1.236,1.459,4.2,5.366,6.286,5.931s3.682-1.42,5.681-2.1C801.679,343.456,803.582,343.247,805.165,340.552Z" transform="translate(-762.781 -295.622)" fill="#cbceda"/>
    </g>
    <path id="Path_237" data-name="Path 237" d="M912.81,682c0,66.065,41.448,119.531,92.666,119.531" transform="translate(122.06 121.445)" fill="#46455b"/>
    <path id="Path_238" data-name="Path 238" d="M983.28,801.861c0-66.813,46.261-120.871,103.422-120.871" transform="translate(144.256 121.126)" fill="#44bba4"/>
    <path id="Path_239" data-name="Path 239" d="M938.35,686.56c0,62.763,26.431,113.551,59.081,113.551" transform="translate(130.105 122.88)" fill="#44bba4"/>
    <path id="Path_240" data-name="Path 240" d="M983.28,809.906c0-85.368,53.468-154.456,119.531-154.456" transform="translate(144.256 113.083)" fill="#46455b"/>
    <ellipse id="Ellipse_31" data-name="Ellipse 31" cx="23.038" cy="3.893" rx="23.038" ry="3.893" transform="translate(1100.487 938.031)" fill="#44bba4" opacity="0.1"/>
    <path id="Path_241" data-name="Path 241" d="M968.46,775.253s13.149-.407,17.095-3.223,20.21-6.2,21.2-1.67,19.724,22.5,4.9,22.617-34.478-2.314-38.423-4.72S968.46,775.253,968.46,775.253Z" transform="translate(139.588 148.577)" fill="#a8a8a8"/>
    <path id="Path_242" data-name="Path 242" d="M1011.933,789.7c-14.833.118-34.465-2.314-38.423-4.72-3.011-1.827-4.209-8.416-4.616-11.433h-.434s.827,10.6,4.786,13,23.59,4.844,38.423,4.72c4.286,0,5.759-1.566,5.681-3.814C1016.758,788.815,1015.194,789.672,1011.933,789.7Z" transform="translate(139.588 150.28)" opacity="0.2"/>
    <path id="Path_243" data-name="Path 243" d="M148.31,711.36c0,52.6,32.967,95.1,73.717,95.1" transform="translate(-118.732 130.692)" fill="#46455b"/>
    <path id="Path_244" data-name="Path 244" d="M204.37,806.714c0-53.152,36.817-96.164,82.278-96.164" transform="translate(-101.075 130.436)" fill="#44bba4"/>
    <path id="Path_245" data-name="Path 245" d="M168.62,715c0,49.968,21.04,90.339,47.009,90.339" transform="translate(-112.334 131.838)" fill="#44bba4"/>
    <path id="Path_246" data-name="Path 246" d="M204.37,813.113c0-67.917,42.539-122.883,95.1-122.883" transform="translate(-101.075 124.037)" fill="#46455b"/>
    <ellipse id="Ellipse_32" data-name="Ellipse 32" cx="18.331" cy="3.104" rx="18.331" ry="3.104" transform="translate(81.769 949.117)" fill="#44bba4" opacity="0.1"/>
    <path id="Path_247" data-name="Path 247" d="M192.58,785.562s10.454-.329,13.6-2.629,16.095-4.932,16.872-1.316,15.713,17.9,3.945,17.988-27.43-1.841-30.573-3.748S192.58,785.562,192.58,785.562Z" transform="translate(-104.789 152.258)" fill="#a8a8a8"/>
    <path id="Path_248" data-name="Path 248" d="M227.164,797.084c-11.836.091-27.43-1.841-30.573-3.761-2.393-1.445-3.341-6.693-3.668-9.107h-.341s.657,8.429,3.8,10.349,18.779,3.841,30.573,3.748c3.406,0,4.589-1.236,4.523-3.038C231,796.335,229.7,797.005,227.164,797.084Z" transform="translate(-104.788 153.637)" opacity="0.2"/>
  </g>
</svg>
