<svg xmlns="http://www.w3.org/2000/svg" width="1272.955" height="795.115" viewBox="0 0 1272.955 795.115">
  <g id="sup4" transform="translate(-134.54 -2530.811)">
    <ellipse id="Ellipse_38" data-name="Ellipse 38" cx="141.752" cy="34.574" rx="141.752" ry="34.574" transform="translate(1123.991 3256.778)" fill="#3f3d56"/>
    <path id="Path_297" data-name="Path 297" d="M613.833,172.439V629.974a20.559,20.559,0,0,1-20.557,20.548H407.525a20.522,20.522,0,0,1-20.558-20.55V172.439a20.558,20.558,0,0,1,20.561-20.559h27.8v3.567a16.927,16.927,0,0,0,16.927,16.927h94.476a16.927,16.927,0,0,0,16.927-16.927V151.88h29.626A20.552,20.552,0,0,1,613.833,172.439Z" transform="translate(121.533 2486.667)" fill="#44bba4"/>
    <rect id="Rectangle_1593" data-name="Rectangle 1593" width="210.576" height="102.564" transform="translate(516.658 2715.014)" fill="#3f3d56"/>
    <path id="Path_298" data-name="Path 298" d="M467.833,284.739c5.513,20.377,24.393,33,24.393,33s9.944-20.418,4.431-40.794-24.393-33-24.393-33S462.32,264.363,467.833,284.739Z" transform="translate(133.607 2500.699)" fill="#fff"/>
    <path id="Path_299" data-name="Path 299" d="M479.64,277.654c15.127,14.724,16.977,37.36,16.977,37.36s-22.677-1.239-37.8-15.962-16.977-37.36-16.977-37.36S464.519,262.929,479.64,277.654Z" transform="translate(129.898 2503.407)" fill="#44bba4"/>
    <path id="Path_300" data-name="Path 300" d="M515.16,284.739c-5.513,20.377-24.393,33-24.393,33s-9.944-20.418-4.431-40.794,24.393-33,24.393-33S520.671,264.363,515.16,284.739Z" transform="translate(136.427 2500.699)" fill="#fff"/>
    <path id="Path_301" data-name="Path 301" d="M506.344,277.654c-15.127,14.724-16.977,37.36-16.977,37.36s22.677-1.239,37.8-15.962,16.977-37.36,16.977-37.36S521.471,262.929,506.344,277.654Z" transform="translate(137.142 2503.407)" fill="#44bba4"/>
    <rect id="Rectangle_1594" data-name="Rectangle 1594" width="172.906" height="9.491" transform="translate(535.492 2875.015)" fill="#f0f0f0"/>
    <rect id="Rectangle_1595" data-name="Rectangle 1595" width="172.906" height="9.491" transform="translate(535.492 2890.305)" fill="#f0f0f0"/>
    <rect id="Rectangle_1596" data-name="Rectangle 1596" width="172.906" height="9.491" transform="translate(535.492 2905.597)" fill="#f0f0f0"/>
    <rect id="Rectangle_1597" data-name="Rectangle 1597" width="172.906" height="9.491" transform="translate(535.492 2920.89)" fill="#f0f0f0"/>
    <rect id="Rectangle_1598" data-name="Rectangle 1598" width="47.197" height="47.197" transform="translate(616.349 2975.363) rotate(35.391)" fill="#f0f0f0"/>
    <path id="Path_302" data-name="Path 302" d="M491.377,512.732a10.892,10.892,0,1,1,10.892-10.892A10.892,10.892,0,0,1,491.377,512.732Zm0-19.962a9.076,9.076,0,1,0,9.076,9.076,9.076,9.076,0,0,0-9.076-9.076Z" transform="translate(135.789 2538.361)" fill="#3f3d56"/>
    <path id="Path_303" data-name="Path 303" d="M289.355,87.38V544.916A20.559,20.559,0,0,1,268.8,565.468H83.039A20.522,20.522,0,0,1,62.481,544.92V87.38A20.558,20.558,0,0,1,83.039,66.822h27.8v3.567a16.927,16.927,0,0,0,16.927,16.927h94.469a16.927,16.927,0,0,0,16.929-16.929V66.822h29.626A20.552,20.552,0,0,1,289.346,87.38Z" transform="translate(72.059 2473.698)" fill="#f2f2f2"/>
    <path id="Path_304" data-name="Path 304" d="M262.907,305.1H81.38V142.627H262.907ZM83.193,303.282h177.9V144.442H83.193Z" transform="translate(74.943 2485.256)" fill="#3f3d56"/>
    <rect id="Rectangle_1599" data-name="Rectangle 1599" width="1.815" height="241.055" transform="translate(156.624 2629.463) rotate(-48.206)" fill="#3f3d56"/>
    <rect id="Rectangle_1600" data-name="Rectangle 1600" width="241.055" height="1.815" transform="translate(156.622 2788.765) rotate(-41.794)" fill="#3f3d56"/>
    <rect id="Rectangle_1601" data-name="Rectangle 1601" width="179.714" height="1.815" transform="translate(157.23 2837.55)" fill="#3f3d56"/>
    <rect id="Rectangle_1602" data-name="Rectangle 1602" width="179.714" height="1.815" transform="translate(157.23 2853.884)" fill="#3f3d56"/>
    <rect id="Rectangle_1603" data-name="Rectangle 1603" width="179.714" height="1.815" transform="translate(157.23 2870.223)" fill="#3f3d56"/>
    <rect id="Rectangle_1604" data-name="Rectangle 1604" width="89.857" height="1.815" transform="translate(157.23 2886.558)" fill="#3f3d56"/>
    <rect id="Rectangle_1605" data-name="Rectangle 1605" width="89.857" height="1.815" transform="translate(157.23 2902.898)" fill="#3f3d56"/>
    <path id="Path_305" data-name="Path 305" d="M937.527,87.38V544.916a20.559,20.559,0,0,1-20.559,20.552H731.219a20.522,20.522,0,0,1-20.558-20.548V87.38a20.558,20.558,0,0,1,20.56-20.558h27.8v3.567a16.927,16.927,0,0,0,16.927,16.927h94.469a16.927,16.927,0,0,0,16.927-16.927V66.822h29.626A20.552,20.552,0,0,1,937.525,87.38Z" transform="translate(170.882 2473.698)" fill="#f2f2f2"/>
    <rect id="Rectangle_1606" data-name="Rectangle 1606" width="179.714" height="1.815" transform="translate(906.041 2774.918)" fill="#3f3d56"/>
    <rect id="Rectangle_1607" data-name="Rectangle 1607" width="179.714" height="1.815" transform="translate(906.041 2822.117)" fill="#3f3d56"/>
    <rect id="Rectangle_1608" data-name="Rectangle 1608" width="179.714" height="1.815" transform="translate(906.041 2869.316)" fill="#3f3d56"/>
    <circle id="Ellipse_39" data-name="Ellipse 39" cx="29.505" cy="29.505" r="29.505" transform="translate(961.598 2646.998)" fill="#44bba4"/>
    <rect id="Rectangle_1609" data-name="Rectangle 1609" width="12.707" height="29.044" transform="translate(1040.371 2766.748)" fill="#44bba4"/>
    <rect id="Rectangle_1610" data-name="Rectangle 1610" width="12.707" height="29.044" transform="translate(928.731 2813.041)" fill="#44bba4"/>
    <rect id="Rectangle_1611" data-name="Rectangle 1611" width="12.707" height="29.044" transform="translate(1003.159 2859.331)" fill="#44bba4"/>
    <path id="Path_306" data-name="Path 306" d="M813.89,223.113A36.305,36.305,0,1,1,850.2,186.807a36.306,36.306,0,0,1-36.306,36.306Zm0-70.8a34.49,34.49,0,1,0,34.49,34.49,34.49,34.49,0,0,0-34.49-34.49Z" transform="translate(181.086 2486.453)" fill="#3f3d56"/>
    <rect id="Rectangle_1612" data-name="Rectangle 1612" width="2.304" height="114.388" transform="translate(384.16 2782.006) rotate(-39.546)" fill="#3f3d56"/>
    <path id="Path_307" data-name="Path 307" d="M353.507,364.5a69.658,69.658,0,0,0-21-8.209l10.977-3.918,5.927-10.035a69.575,69.575,0,0,0,4.091,22.162Z" transform="translate(113.23 2515.706)" fill="#3f3d56"/>
    <rect id="Rectangle_1613" data-name="Rectangle 1613" width="114.39" height="2.306" transform="translate(783.317 2868.758) rotate(-50.466)" fill="#3f3d56"/>
    <path id="Path_308" data-name="Path 308" d="M618.506,364.506a69.656,69.656,0,0,0,4.091-22.171l5.929,10.037L639.5,356.29a69.586,69.586,0,0,0-21,8.216Z" transform="translate(156.833 2515.702)" fill="#3f3d56"/>
    <path id="Path_309" data-name="Path 309" d="M1096.09,446.053s0,168.259-26.507,229.338L1008.5,812.534s-39.179-2.3-41.488-18.44l46.1-142.908,27.658-84.129,6.914-131.381Z" transform="translate(243.982 2432.138)" fill="#2f2e41"/>
    <path id="Path_310" data-name="Path 310" d="M1059.757,449.29l-10.373,70.3,6.914,154.429,3.457,85.282s13.83,38.031,9.22,41.488l-9.22,6.914s-36.878-4.61-38.031-6.914-23.05-176.326-23.05-176.326-44.945-140.6-42.641-142.909,12.686-36.878,12.686-36.878Z" transform="translate(242.299 2433.513)" fill="#2f2e41"/>
    <path id="Path_311" data-name="Path 311" d="M1057.321,749.678l4.61,26.507s12.687,54.165,0,54.165-35.727-14.981-36.878-24.2,2.3-50.708,2.3-50.708Z" transform="translate(252.8 2480.014)" fill="#2f2e41"/>
    <path id="Path_312" data-name="Path 312" d="M1009.032,759.236s9.22,18.44,14.981,20.744,32,17.382,16.578,27.13-31.559.528-31.559.528L956.02,778.829s6.914-28.811,17.287-31.117S1009.032,759.236,1009.032,759.236Z" transform="translate(242.31 2479.673)" fill="#2f2e41"/>
    <circle id="Ellipse_40" data-name="Ellipse 40" cx="41.488" cy="41.488" r="41.488" transform="translate(1198.324 2540.522)" fill="#ffb8b8"/>
    <path id="Path_313" data-name="Path 313" d="M1027.267,190.678s8.067,53.012,16.134,59.928-17.287,31.117-28.811,29.964-24.2-26.507-24.2-26.507,3.457-33.421-2.3-42.641S1027.267,190.678,1027.267,190.678Z" transform="translate(247.118 2394.791)" fill="#ffb8b8"/>
    <path id="Path_314" data-name="Path 314" d="M1021.487,252.069,1041.064,234a74.09,74.09,0,0,0,23.067,19.216c14.981,8.067-28.811,91.044-28.811,91.044l-70.3-87.586s22.36-14.864,29.619-20.684Z" transform="translate(243.685 2401.396)" fill="#3f3d56"/>
    <path id="Path_315" data-name="Path 315" d="M1036.8,320.112s30.886-53.843,27.544-71.29c0,0,45.061,11.364,47.365,26.345s-21.906,69.141-21.906,69.141,19.589,137.142,8.067,138.295-126.771,2.3-129.075-3.457,2.3-23.048-4.61-28.811-14.981-2.3-11.524-11.524,18.44-20.744,13.83-27.658-5.763-4.61-4.61-9.22-2.3-65.689-2.3-65.689-24.2-66.842-18.44-71.454,35.988-15.972,35.988-15.972Z" transform="translate(239.904 2403.65)" fill="#3f3d56"/>
    <path id="Path_316" data-name="Path 316" d="M1108.116,467.745s-3.457,46.1-23.048,43.794,3.457-51.865,3.457-51.865Z" transform="translate(260.784 2435.798)" fill="#ffb8b8"/>
    <path id="Path_317" data-name="Path 317" d="M955.015,467.358s6.914,27.658,14.981,25.354V460.437l-3.457-5.763Z" transform="translate(242.156 2435.037)" fill="#ffb8b8"/>
    <path id="Path_318" data-name="Path 318" d="M1033.109,200.424a7.171,7.171,0,0,0-1.183-3.336,5.409,5.409,0,0,0-2.522-1.6,11.332,11.332,0,0,0-13.5,5.783c-1.063,2.321-1.574,5.31-3.918,6.343-2.713,1.2-5.722-1.356-6.789-4.125s-1.095-5.909-2.515-8.513a12.423,12.423,0,0,0-8.533-5.638c-2.853-.6-6.343-.922-7.63-3.545a7,7,0,0,1-.521-3.172,33.384,33.384,0,0,1,2.052-11.283c-11.291-2.256-21.334,8.769-32.847,8.942a8.672,8.672,0,0,1-4.235-.83c-2.554-1.364-3.664-4.39-4.435-7.181q-1.226-4.448-2.019-9l3.683,1.69a14.465,14.465,0,0,1-1.644-6.353,15.2,15.2,0,0,1,5.668.478l.269-6.608c2.849,3.612,8.528,2.343,12.813.67,8.27-3.228,16.5-6.716,25.186-8.582s17.985-2,26.194,1.384c8.627,3.556,15.278,10.634,21.136,17.888a46.749,46.749,0,0,1,8.14,13.121,31.8,31.8,0,0,1-.069,20.283c-1.89,5.916-5.41,13.074-10.133,17.173C1034.107,210.25,1033.888,204.9,1033.109,200.424Z" transform="translate(240.55 2387.551)" fill="#2f2e41"/>
    <path id="Path_319" data-name="Path 319" d="M957.59,259.678l-14.983,3.457s-17.287,18.44-18.44,35.727-1.153,103.73-1.153,103.73l21.9,71.454s-2.3,16.134,0,16.134,3.457-3.457,3.457,1.153-5.763,0,0,4.61l11.524,9.22,19.261-25.537s1.492-10.19-1.974-12.5-3.457-3.457-2.3-6.914,3.457-4.61,2.3-6.914-4.61-5.763-4.61-8.067,0-4.61-1.153-5.763-9.22-28.811-9.22-28.811l4.61-89.892Z" transform="translate(237.277 2405.311)" fill="#3f3d56"/>
    <path id="Path_320" data-name="Path 320" d="M1081.609,264.678l11.524,5.763s18.44,55.318,18.44,103.73,3.457,80.672,3.457,80.672,5.763,13.83,3.457,13.83-4.61,0-2.3,3.457,3.457,2.3,2.3,5.763-2.3-2.3-1.153,3.457,0,8.067-2.3,8.067-2.3,14.981-2.3,14.981l-27.658-10.373s4.61-5.763,3.457-8.067a11.487,11.487,0,0,1-1.153-4.61s5.763-1.153,0-3.457-3.457-2.3-2.3-9.22,4.61-5.763,1.153-6.914-24.2-108.331-24.2-108.331Z" transform="translate(258.471 2406.072)" fill="#3f3d56"/>
    <circle id="Ellipse_41" data-name="Ellipse 41" cx="3.457" cy="3.457" r="3.457" transform="translate(1261.693 2650.375)" fill="#2f2e41"/>
    <circle id="Ellipse_42" data-name="Ellipse 42" cx="3.457" cy="3.457" r="3.457" transform="translate(1261.693 2661.901)" fill="#2f2e41"/>
  </g>
</svg>
