<svg xmlns="http://www.w3.org/2000/svg" width="1286.59" height="605.615" viewBox="0 0 1286.59 605.615">
  <g id="sup3" transform="translate(-64.8)">
    <path id="Path_249" data-name="Path 249" d="M751.555,393.117a17.642,17.642,0,0,1,23.882,11.09,17.026,17.026,0,0,1,.513,2.3l70.468,34.943,16.307-10.808L883.017,454l-24.9,20.224a17.879,17.879,0,0,1-21.331.823l-71.5-49.442a16.825,16.825,0,0,1-1.628.593,17.642,17.642,0,0,1-22.469-13.73,17.163,17.163,0,0,1-.261-2.149,17.7,17.7,0,0,1,10.627-17.207Z" transform="translate(186.903 -182.411)" fill="#ffb8b8"/>
    <path id="Path_250" data-name="Path 250" d="M202.8,464.151a10.425,10.425,0,0,0,10.425,10.425h17l3.033,5.5V723.965a10.425,10.425,0,0,0,20.849,0V474.575h570.8l.16,249.39a10.425,10.425,0,0,0,20.849,0V474.575h18.444a10.425,10.425,0,1,0,0-20.849H213.225A10.425,10.425,0,0,0,202.8,464.151Z" transform="translate(-138 -144.943)" fill="#e5e5e5"/>
    <path id="Path_251" data-name="Path 251" d="M411.476,569.033V530.542a6.415,6.415,0,0,0-6.415-6.415H259.115a6.415,6.415,0,0,0-6.415,6.415v38.491Z" transform="translate(-107.871 -102.435)" fill="#e5e5e5"/>
    <rect id="Rectangle_1584" data-name="Rectangle 1584" width="158.775" height="49.718" transform="translate(144.824 481.032)" fill="#e5e5e5"/>
    <path id="Path_252" data-name="Path 252" d="M252.7,601.127v38.491a6.415,6.415,0,0,0,6.415,6.415H405.06a6.415,6.415,0,0,0,6.415-6.415V601.127Z" transform="translate(-107.871 -55.943)" fill="#e5e5e5"/>
    <circle id="Ellipse_33" data-name="Ellipse 33" cx="4.811" cy="4.811" r="4.811" transform="translate(220.203 440.937)" fill="#fff"/>
    <circle id="Ellipse_34" data-name="Ellipse 34" cx="4.811" cy="4.811" r="4.811" transform="translate(220.203 505.089)" fill="#fff"/>
    <circle id="Ellipse_35" data-name="Ellipse 35" cx="4.811" cy="4.811" r="4.811" transform="translate(219.944 567.882)" fill="#fff"/>
    <path id="Path_253" data-name="Path 253" d="M234,446.186V458.92a2.645,2.645,0,0,0,2.791,2.454h50.391a3.112,3.112,0,0,0,1.379-.321l12.718-6.367a2.317,2.317,0,0,0,0-4.266l-12.718-6.367a3.114,3.114,0,0,0-1.379-.321H236.791A2.645,2.645,0,0,0,234,446.186Z" transform="translate(-119.162 -150.98)" fill="#3f3d56"/>
    <path id="Path_254" data-name="Path 254" d="M236.791,443.732h10.04v17.642h-10.04A2.645,2.645,0,0,1,234,458.92V446.186a2.645,2.645,0,0,1,2.791-2.454Z" transform="translate(-119.162 -150.98)" fill="#44bba4"/>
    <path id="Path_255" data-name="Path 255" d="M1015.614,581.329a39.686,39.686,0,0,1-38.331-6.75c-13.422-11.267-17.63-29.831-21.055-47.013L946.1,476.725l21.2,14.594c15.249,10.5,30.841,21.33,41.4,36.544s15.167,35.97,6.683,52.426" transform="translate(310.799 -131.056)" fill="#e6e6e6"/>
    <path id="Path_256" data-name="Path 256" d="M999.748,618.556c2.146-15.632,4.353-31.466,2.848-47.267-1.337-14.033-5.613-27.746-14.333-38.972a64.832,64.832,0,0,0-16.634-15.076c-1.663-1.051-3.195,1.586-1.538,2.632a61.64,61.64,0,0,1,24.378,29.418c5.309,13.5,6.16,28.227,5.246,42.562-.553,8.673-1.726,17.291-2.908,25.895a1.58,1.58,0,0,0,1.065,1.875,1.533,1.533,0,0,0,1.875-1.065Z" transform="translate(324.854 -106.739)" fill="#f2f2f2"/>
    <path id="Path_257" data-name="Path 257" d="M1008.312,574.981a29.213,29.213,0,0,1-25.454,13.138c-12.885-.611-23.627-9.605-33.3-18.142l-28.6-25.253,18.925-.906c13.613-.651,27.585-1.259,40.544,2.938s24.925,14.3,27.295,27.723" transform="translate(295.618 -90.827)" fill="#e6e6e6"/>
    <path id="Path_258" data-name="Path 258" d="M1015.951,603.685c-10.33-18.283-22.312-38.592-43.721-45.084a48.79,48.79,0,0,0-18.389-1.9c-1.952.16-1.464,3.179.481,3.01a45.325,45.325,0,0,1,29.349,7.764c8.274,5.633,14.718,13.462,20.171,21.767,3.341,5.087,6.332,10.388,9.324,15.684.962,1.692,3.751.472,2.784-1.241Z" transform="translate(314.722 -82.88)" fill="#f2f2f2"/>
    <path id="Path_259" data-name="Path 259" d="M1020.591,608.875a22.121,22.121,0,0,0-13.555-18.527V579.781H989.312v10.906a22.11,22.11,0,0,0-12.817,18.195l-4.17,48.444h52.431Z" transform="translate(326.633 -68.832)" fill="#f2f2f2"/>
    <path id="Path_260" data-name="Path 260" d="M377.534,463.421l5.265-2.216,3.612-26.392H434.5l3.915,26.285,4.71,2.354a1.123,1.123,0,0,1-.5,2.119H377.967a1.123,1.123,0,0,1-.433-2.149Z" transform="translate(-32.901 -156.363)" fill="#e6e6e6"/>
    <path id="Path_261" data-name="Path 261" d="M321.079,446.627V413.311H566.673v33.314A4.68,4.68,0,0,1,562,451.3H325.749a4.681,4.681,0,0,1-4.67-4.68Z" transform="translate(-66.584 -169.345)" fill="#ccc"/>
    <path id="Path_262" data-name="Path 262" d="M320.925,336.372a5.649,5.649,0,0,1,5.642-5.642H561.338a5.649,5.649,0,0,1,5.642,5.642V478.919H320.925Z" transform="translate(-66.677 -219.207)" fill="#3f3d56"/>
    <path id="Path_263" data-name="Path 263" d="M327.376,460.328V341.53a4.354,4.354,0,0,1,4.349-4.349H548.39a4.354,4.354,0,0,1,4.349,4.349v118.8a4.354,4.354,0,0,1-4.349,4.349H331.727a4.354,4.354,0,0,1-4.351-4.349Z" transform="translate(-62.782 -215.312)" fill="#fff"/>
    <path id="Path_264" data-name="Path 264" d="M612.1,261.193H829.239V520.462H612.1Z" transform="translate(109.132 -261.193)" fill="#fff"/>
    <path id="Path_265" data-name="Path 265" d="M612.1,261.193H829.239V520.462H612.1Zm213.3,3.83H615.93V516.631H825.4Z" transform="translate(109.132 -261.193)" fill="#e5e5e5"/>
    <rect id="Rectangle_1585" data-name="Rectangle 1585" width="151.894" height="5.87" transform="translate(753.855 125.553)" fill="#f1f1f1"/>
    <path id="Path_266" data-name="Path 266" d="M600.31,78.763h1.66V19.379H543.614v1.657h56.7Z" transform="translate(289.104 11.701)" fill="#cbcbcb"/>
    <path id="Path_267" data-name="Path 267" d="M506.2,82.154h58.351V80.5h-56.7V22.777H506.2Z" transform="translate(266.514 13.753)" fill="#cbcbcb"/>
    <rect id="Rectangle_1586" data-name="Rectangle 1586" width="151.894" height="5.87" transform="translate(753.855 140.856)" fill="#f1f1f1"/>
    <rect id="Rectangle_1587" data-name="Rectangle 1587" width="151.894" height="5.87" transform="translate(753.855 156.16)" fill="#f1f1f1"/>
    <rect id="Rectangle_1588" data-name="Rectangle 1588" width="151.894" height="5.87" transform="translate(753.855 183.095)" fill="#f1f1f1"/>
    <rect id="Rectangle_1589" data-name="Rectangle 1589" width="151.894" height="5.87" transform="translate(753.855 198.4)" fill="#f1f1f1"/>
    <rect id="Rectangle_1590" data-name="Rectangle 1590" width="151.894" height="5.87" transform="translate(753.855 213.704)" fill="#f1f1f1"/>
    <path id="Path_268" data-name="Path 268" d="M681.619,293.681l1.532-1.875-2.308-2.627-2.056,1.283a11.466,11.466,0,0,0-4.009-2.021l-.266-2.635-3.487-.231-.587,2.507a11.467,11.467,0,0,0-4.651,1.551l-1.734-1.416-2.627,2.306,1.18,1.9a11.465,11.465,0,0,0-2.136,4.407l-2.566.258-.226,3.488,2.579.6a11.457,11.457,0,0,0,1.5,4.26l-1.416,1.734,2.306,2.627,1.9-1.18a11.467,11.467,0,0,0,4.134,2.069l.276,2.736,3.488.226L673.07,311a11.467,11.467,0,0,0,4.47-1.519l1.875,1.531,2.643-2.3-1.283-2.056a11.472,11.472,0,0,0,2.085-4.237l2.71-.273.226-3.488-2.677-.627a11.47,11.47,0,0,0-1.5-4.341Zm-3.655,12.88a9.323,9.323,0,1,1,.852-13.151,9.323,9.323,0,0,1-.852,13.151Z" transform="translate(136.652 -246.471)" fill="#44bba4"/>
    <path id="Path_269" data-name="Path 269" d="M694.992,310.787l2.112-1.18-1.182-3.291-2.382.431a11.468,11.468,0,0,0-2.985-3.35l.72-2.548-3.161-1.492-1.466,2.115a11.469,11.469,0,0,0-4.892-.265l-1.092-1.953-3.291,1.18.4,2.2a11.467,11.467,0,0,0-3.607,3.315l-2.478-.7-1.492,3.161,2.176,1.508a11.461,11.461,0,0,0-.16,4.513l-1.953,1.092,1.18,3.291,2.2-.4a11.469,11.469,0,0,0,3.086,3.443l-.752,2.648L679.137,326l1.553-2.245a11.471,11.471,0,0,0,4.715.229l1.18,2.112,3.291-1.18-.431-2.382a11.472,11.472,0,0,0,3.495-3.176l2.622.741,1.492-3.161-2.26-1.565a11.473,11.473,0,0,0,.2-4.588Zm-8.131,10.638a9.323,9.323,0,1,1,5.625-11.926A9.323,9.323,0,0,1,686.86,321.425Z" transform="translate(144.211 -238.212)" fill="#44bba4"/>
    <path id="Path_270" data-name="Path 270" d="M710.674,299.924l1.455-1.934-2.406-2.532-2,1.358a11.468,11.468,0,0,0-4.083-1.859l-.371-2.622-3.495-.087-.481,2.528a11.469,11.469,0,0,0-4.581,1.735l-1.788-1.346-2.532,2.406,1.256,1.852a11.468,11.468,0,0,0-1.958,4.491l-2.548.361-.087,3.495,2.6.5a11.465,11.465,0,0,0,1.671,4.2l-1.346,1.788,2.406,2.532,1.852-1.256a11.47,11.47,0,0,0,4.215,1.9l.385,2.726,3.495.087.515-2.675a11.468,11.468,0,0,0,4.406-1.7l1.934,1.455,2.532-2.406-1.357-2a11.471,11.471,0,0,0,1.912-4.317l2.7-.382.087-3.495-2.7-.518a11.468,11.468,0,0,0-1.676-4.277Zm-3.137,13.016a9.323,9.323,0,1,1,.321-13.181,9.323,9.323,0,0,1-.321,13.181Z" transform="translate(154.388 -242.442)" fill="#44bba4"/>
    <path id="Path_271" data-name="Path 271" d="M439.35,399.643l6.221-.494.773-8.981-6.045-1.549a29.568,29.568,0,0,0-3.389-11.066l4.431-5.2-5.8-6.9-5.713,3.381a29.577,29.577,0,0,0-11.178-5.883l-.457-5.753-8.981-.773-1.432,5.589a29.567,29.567,0,0,0-12.019,3.888l-5.052-4.308-6.9,5.8,3.479,5.876a29.559,29.559,0,0,0-5.248,10.4l-5.753.457-.773,8.981,5.591,1.432a29.571,29.571,0,0,0,3.528,11.387l-4.6,5.4,5.8,6.9,6.046-3.58a29.575,29.575,0,0,0,10.806,5.613l.5,6.221,8.981.773,1.551-6.046a29.583,29.583,0,0,0,11.605-3.689l5.347,4.56,6.9-5.8-3.612-6.094A29.576,29.576,0,0,0,439.35,399.643Zm-30.5,16.181a24.044,24.044,0,1,1,26.015-21.893,24.044,24.044,0,0,1-26.015,21.893Z" transform="translate(-33.717 -203.688)" fill="#44bba4"/>
    <path id="Path_272" data-name="Path 272" d="M900.949,526.722h-77c0,2.213-79.356,4.01-79.356,4.01a20.614,20.614,0,0,0-3.384,3.208,19.9,19.9,0,0,0-4.651,12.83v3.208a20.047,20.047,0,0,0,20.047,20.047H900.949A20.065,20.065,0,0,0,921,549.977v-3.208a20.075,20.075,0,0,0-20.048-20.047Z" transform="translate(184.28 -100.869)" fill="#3f3d56"/>
    <rect id="Rectangle_1591" data-name="Rectangle 1591" width="20.849" height="134.719" transform="translate(1001.472 468.359)" fill="#3f3d56"/>
    <path id="Path_273" data-name="Path 273" d="M749.836,644.341c0,2.245,31.595.871,70.567.871s70.567,1.381,70.567-.871-31.595-20.116-70.567-20.116S749.836,642.09,749.836,644.341Z" transform="translate(192.296 -41.997)" fill="#3f3d56"/>
    <path id="Path_274" data-name="Path 274" d="M634.495,384.931H614.834l-9.355-51H634.5Z" transform="translate(326.458 201.624)" fill="#ffb8b8"/>
    <path id="Path_275" data-name="Path 275" d="M788.57,648.4h-63.4v-.8a24.676,24.676,0,0,1,24.676-24.676H788.57Z" transform="translate(177.401 -42.784)" fill="#2f2e41"/>
    <path id="Path_276" data-name="Path 276" d="M759.029,675.5l-39.2-87.9a32.214,32.214,0,0,1,14.144-41.352L819,500.655l38.8-3.3,35.789-3.253.258.436c.33.558,8.019,13.849,2.823,28.422-3.945,11.055-14.208,19.688-30.5,25.661-38.032,13.953-81.968,25.864-99.092,30.341a5.535,5.535,0,0,0-3.546,2.823,5.613,5.613,0,0,0-.321,4.491l36.416,81.817a7.217,7.217,0,0,1-6.109,9.669L766.3,679.743q-.346.034-.69.034a7.217,7.217,0,0,1-6.579-4.28Z" transform="translate(172.517 -120.564)" fill="#2f2e41"/>
    <path id="Path_277" data-name="Path 277" d="M642.495,384.931H622.834l-9.355-51H642.5Z" transform="translate(331.288 201.624)" fill="#ffb8b8"/>
    <path id="Path_278" data-name="Path 278" d="M796.57,648.4h-63.4v-.8a24.676,24.676,0,0,1,24.676-24.676H796.57Z" transform="translate(182.232 -42.784)" fill="#2f2e41"/>
    <path id="Path_279" data-name="Path 279" d="M768.028,678.332l-39.2-87.9a32.214,32.214,0,0,1,14.144-41.352L828,503.491l38.8-3.3,28.031-2.431v-.385c.33.558,8.019,13.849,2.823,28.422-3.945,11.055-6.189,19.688-22.484,25.661C837.131,565.41,793.2,577.322,776.072,581.8a5.535,5.535,0,0,0-3.546,2.823,5.614,5.614,0,0,0-.321,4.491l36.416,81.818a7.217,7.217,0,0,1-6.109,9.669L775.3,682.578q-.346.034-.69.034a7.217,7.217,0,0,1-6.585-4.277Z" transform="translate(177.951 -118.589)" fill="#2f2e41"/>
    <path id="Path_280" data-name="Path 280" d="M810.975,549.625c-1.88-1.33-28.868,12.83-33.68,1.6,22.453-56.133,6.981-80.372,20.734-112.562a40.082,40.082,0,0,1,26.57-22.742l35.683-1.8.184.09a41.706,41.706,0,0,1,22.8,44.245c-.127,35.032-21.087,61.746-13.759,87.16a8.214,8.214,0,0,1-.776,6.388,7.833,7.833,0,0,1-5,3.7l-47.116-6.285a7.961,7.961,0,0,1-6.443-1.246Z" transform="translate(208.876 -168.854)" fill="#44bba4"/>
    <circle id="Ellipse_36" data-name="Ellipse 36" cx="39.391" cy="39.391" r="39.391" transform="translate(1017.86 153.161)" fill="#ffb8b8"/>
    <path id="Path_281" data-name="Path 281" d="M809.782,497.735l-68.44-53.993a16.886,16.886,0,0,1-1.662.491,17.646,17.646,0,1,1,13.129-21.207,16.942,16.942,0,0,1,.367,2.329l68.131,39.3,16.955-9.761,18.793,24.581L830.73,498.244a17.548,17.548,0,0,1-20.944-.51Z" transform="translate(173.068 -171.7)" fill="#ffb8b8"/>
    <path id="Path_282" data-name="Path 282" d="M824.6,480.514,785.555,453.96l18.355-25.993a17.912,17.912,0,0,1,22.339-5.838h0a17.911,17.911,0,0,1,9.453,21.3Z" transform="translate(213.863 -165.074)" fill="#44bba4"/>
    <path id="Path_283" data-name="Path 283" d="M850.632,436.815c-2.085.916-6.378-15.76-4.459-19.1,2.855-4.961,2.686-4.925,4.582-8.207s2.319-7.774-.135-10.662-8.134-2.505-9.254,1.123c.72-6.877-6.082-12.405-12.819-13.953s-13.844-.589-20.62-1.971c-7.859-1.6-16.038-8.2-12.906-16.84a12.175,12.175,0,0,1,2.375-3.9c3.625-4.075,8.694-5.815,13.651-7.5,10.312-3.5,20.907-7.044,31.79-6.657a46.189,46.189,0,0,1,40.81,29.845,41.961,41.961,0,0,1,1.737,6.455c3.735,20.086-7.929,39.9-26.873,47.548Z" transform="translate(219.165 -208.103)" fill="#2f2e41"/>
    <path id="Path_284" data-name="Path 284" d="M480.619,546.68v3.208a20.065,20.065,0,0,0,20.047,20.047H645.008a20.047,20.047,0,0,0,20.047-20.047V546.68a19.9,19.9,0,0,0-4.651-12.83,20.63,20.63,0,0,0-3.384-3.208s-79.356-1.8-79.356-4.01h-77A20.075,20.075,0,0,0,480.619,546.68Z" transform="translate(29.745 -100.922)" fill="#3f3d56"/>
    <rect id="Rectangle_1592" data-name="Rectangle 1592" width="20.849" height="134.719" transform="translate(593.317 468.216)" fill="#3f3d56"/>
    <path id="Path_285" data-name="Path 285" d="M564.91,624.136c-38.972,0-70.567,17.865-70.567,20.116s31.595.871,70.567.871,70.567,1.381,70.567-.871S603.882,624.136,564.91,624.136Z" transform="translate(38.031 -42.051)" fill="#3f3d56"/>
    <path id="Path_286" data-name="Path 286" d="M443.761,332.185H472.78l-9.355,51H443.764Z" transform="translate(228.814 200.571)" fill="#ffb8b8"/>
    <path id="Path_287" data-name="Path 287" d="M578.636,621.172H617.36a24.676,24.676,0,0,1,24.676,24.676v.8h-63.4Z" transform="translate(88.927 -43.84)" fill="#2f2e41"/>
    <path id="Path_288" data-name="Path 288" d="M646.007,678.026q-.343,0-.69-.034l-27.205-1.981A7.217,7.217,0,0,1,612,666.343l36.417-81.817a5.614,5.614,0,0,0-.321-4.491,5.534,5.534,0,0,0-3.546-2.823c-17.124-4.476-61.06-16.4-99.092-30.341-16.295-5.976-26.557-14.609-30.5-25.661-5.2-14.574,2.494-27.864,2.823-28.422l.258-.436,35.789,3.253,38.8,3.3L677.648,544.5a32.214,32.214,0,0,1,14.144,41.352l-39.2,87.9A7.217,7.217,0,0,1,646.007,678.026Z" transform="translate(49.393 -121.621)" fill="#2f2e41"/>
    <path id="Path_289" data-name="Path 289" d="M437.761,332.185H466.78l-9.355,51H437.764Z" transform="translate(225.191 200.571)" fill="#ffb8b8"/>
    <path id="Path_290" data-name="Path 290" d="M572.636,621.172H611.36a24.676,24.676,0,0,1,24.676,24.676v.8h-63.4Z" transform="translate(85.304 -43.84)" fill="#2f2e41"/>
    <path id="Path_291" data-name="Path 291" d="M639.008,681.026q-.343,0-.69-.034l-27.205-1.981A7.217,7.217,0,0,1,605,669.343l36.416-81.818a5.613,5.613,0,0,0-.321-4.49,5.535,5.535,0,0,0-3.546-2.823c-17.124-4.476-61.06-16.4-99.092-30.341-16.294-5.976-26.557-14.609-30.5-25.661-5.2-14.574,2.494-27.864,2.823-28.422l.258-.436,35.789,3.253,38.8,3.3L670.647,547.5a32.214,32.214,0,0,1,14.144,41.352l-39.2,87.9A7.217,7.217,0,0,1,639.008,681.026Z" transform="translate(45.166 -119.81)" fill="#2f2e41"/>
    <path id="Path_292" data-name="Path 292" d="M512.542,419.638a17.911,17.911,0,0,1,22.873-4.465h0a17.911,17.911,0,0,1,8.019,21.651l-10.777,29.938-44.133-16.78Z" transform="translate(34.518 -169.628)" fill="#44bba4"/>
    <path id="Path_293" data-name="Path 293" d="M594.111,568.885a7.961,7.961,0,0,1-6.442,1.246L519.7,553.963a7.832,7.832,0,0,1-5-3.7,8.214,8.214,0,0,1-.776-6.388c7.329-25.409-2.281-56.907-13.759-87.16a41.707,41.707,0,0,1,22.8-44.245l.184-.09,35.684,1.8a40.082,40.082,0,0,1,26.57,22.742c13.754,32.19,17.691,73.494,12.038,126.275a8.019,8.019,0,0,1-3.341,5.692Z" transform="translate(41.212 -169.909)" fill="#44bba4"/>
    <circle id="Ellipse_37" data-name="Ellipse 37" cx="39.391" cy="39.391" r="39.391" transform="translate(531.09 222.316) rotate(-80.783)" fill="#ffb8b8"/>
    <path id="Path_294" data-name="Path 294" d="M564.963,496.5l-26.325-18.764,18.782-24.589,16.955,9.761L642.5,423.6a16.99,16.99,0,0,1,.367-2.329,17.642,17.642,0,1,1,13.137,21.212,16.881,16.881,0,0,1-1.662-.491L585.9,495.985a17.549,17.549,0,0,1-20.942.513Z" transform="translate(64.776 -172.755)" fill="#ffb8b8"/>
    <path id="Path_295" data-name="Path 295" d="M526.8,441.684a17.911,17.911,0,0,1,9.453-21.3h0a17.911,17.911,0,0,1,22.339,5.838l18.352,25.993L537.89,478.767Z" transform="translate(57.171 -166.13)" fill="#44bba4"/>
    <path id="Path_296" data-name="Path 296" d="M584.191,394.312a7.116,7.116,0,0,1-.953,8.317c-5.6,6.329-7.087,16.125-5.071,24.562,2.42,10.125,8.846,18.753,15.191,27.006s12.912,16.729,15.7,26.759c6.6,23.744-11.127,49.066-33.906,58.474s-48.72,6.428-72.7.76c-18.1-4.277-36.783-10.571-49.163-24.455s-15.664-37.386-2.508-50.536c10.312-10.308,26.371-11.138,40.722-13.72s30.605-10.191,32.527-24.646c1.91-14.362-11.547-26.23-14.08-40.5C506.8,368.6,522.224,351.7,539.682,347.25s35.872.492,52.783,6.705c13.008,4.778,26.612,11.012,31.563,25.172,2.754,7.873.614,16.84-6.176,21.691-10.34,7.377-23.634.257-33.758-6.673Z" transform="translate(6.629 -210.264)" fill="#2f2e41"/>
  </g>
</svg>
