<svg xmlns="http://www.w3.org/2000/svg" xmlns:xlink="http://www.w3.org/1999/xlink" width="1289.865" height="890.319" viewBox="0 0 1289.865 890.319">
  <defs>
    <linearGradient id="linear-gradient" x1="0.5" y1="1" x2="0.5" gradientUnits="objectBoundingBox">
      <stop offset="0" stop-color="gray" stop-opacity="0.251"/>
      <stop offset="0.54" stop-color="gray" stop-opacity="0.122"/>
      <stop offset="1" stop-color="gray" stop-opacity="0.102"/>
    </linearGradient>
  </defs>
  <g id="sup8" transform="translate(0.001)">
    <path id="Path_605" data-name="Path 605" d="M39.627,512.359c22.8-37.24,74.357-30.755,110.918-11.309s73.045,48.458,113.281,42.884c33.927-4.7,61.748-34.288,76.776-68.419s19.44-72.614,23.67-110.3q7.974-71.031,15.934-142.153c1.946-17.337,4.241-35.634,13.99-49.36,12.881-18.094,36.494-23.659,56.692-18.225s37.421,20.029,52.157,36.3c47.2,52.111,73.949,122.555,115.216,180.544,8.4,11.807,17.891,23.478,30.444,29.177,18.094,8.2,38.869,2.4,56.544-6.728,57.675-29.732,96.421-90.4,134.5-147.017,18.523-27.514,41.107-56.941,71.925-59.938,32.422-3.227,60.571,24.4,79.627,53.662,61.159,94.135,74.266,222.65,148.147,304.753,9.171,10.178,19.292,19.586,30.945,25.908a79.885,79.885,0,0,0,11.987,5.259c64.46,22.313,85.947,111.88,38.269,164.986-1.029,1.139-2.088,2.261-3.144,3.393-7.079,7.476-15.1,14.544-24.665,16.771-8.9,2.058-18.094-.317-26.915-2.884-56.384-16.454-112.095-41.6-170.393-40.384C938.8,720.419,884.994,746.618,828.9,756.046c-37.715,6.345-76.087,5.078-114.221,3.71Q524.17,752.9,333.739,743.808c-63.014-2.9-126.058-5.654-189.051-8.877C96.15,732.41,65.232,726.857,59.6,670.526,54.68,621.208,10.393,560.128,39.627,512.359Z" transform="translate(-29.72 -43.647)" fill="#666af6" opacity="0.1"/>
    <ellipse id="Ellipse_77" data-name="Ellipse 77" cx="305.33" cy="42.668" rx="305.33" ry="42.668" transform="translate(587.965 804.983)" fill="#30374e"/>
    <path id="Path_606" data-name="Path 606" d="M178.46,643.194s14.928-3.393,24.71,6.645c0,0-6.288,5.654-21.073-.611Z" transform="translate(-10.249 20.382)" fill="#666af6"/>
    <path id="Path_607" data-name="Path 607" d="M177.589,643s-8.843,12.53-3.227,25.388c0,0,7.645-3.675,7.431-19.734Z" transform="translate(-11.03 20.428)" fill="#666af6"/>
    <path id="Path_608" data-name="Path 608" d="M168.2,626.816s5.3-11.478,30.535,2.4c0,0-2.715,7.668-13.435,7.784S171.367,632.458,168.2,626.816Z" transform="translate(-11.593 17.728)" fill="#666af6"/>
    <path id="Path_609" data-name="Path 609" d="M168.163,625.68s-12.632-.589-11.92,28.183c0,0,8.063,1.139,13.1-8.353S171.7,631.142,168.163,625.68Z" transform="translate(-13.162 18.161)" fill="#666af6"/>
    <path id="Path_610" data-name="Path 610" d="M159,607.238s5.654-19.995,32.2-7.784c0,0-4.636,18.309-29.178,14.293Z" transform="translate(-12.798 14.211)" fill="#666af6"/>
    <path id="Path_611" data-name="Path 611" d="M150.29,581.748s11.96-20.627,36.743-3.89c0,0-7,19.078-34.254,10.8Z" transform="translate(-13.938 11.046)" fill="#666af6"/>
    <path id="Path_612" data-name="Path 612" d="M146.15,557.226s14.284-19.174,38.858-2.612c0,0-13.639,16.9-38.552,7.237Z" transform="translate(-14.479 7.977)" fill="#666af6"/>
    <path id="Path_613" data-name="Path 613" d="M142.41,533.582s14.428-19.972,37.986-3.561c0,0-16.6,17.9-37.692,7.994Z" transform="translate(-14.969 4.793)" fill="#666af6"/>
    <path id="Path_614" data-name="Path 614" d="M142.23,512.915s14.871-25.479,36.923-10.369c0,0-16.308,22.132-36.606,15Z" transform="translate(-14.992 1.418)" fill="#666af6"/>
    <path id="Path_615" data-name="Path 615" d="M144,487.813s15.833-25.331,37.421-8.12c0,0-19.338,22.336-37.172,12.61Z" transform="translate(-14.761 -1.732)" fill="#666af6"/>
    <path id="Path_616" data-name="Path 616" d="M147.689,465.783s19.226-24.1,37.941-16.251c0,0-19.995,25.559-38.45,22.347Z" transform="translate(-14.345 -5.101)" fill="#666af6"/>
    <path id="Path_617" data-name="Path 617" d="M152.786,444.931s22.1-29.4,36.606-21.058c0,0-16.183,22.719-37.969,26.406Z" transform="translate(-13.787 -8.449)" fill="#666af6"/>
    <path id="Path_618" data-name="Path 618" d="M160.524,419.7s19.418-24.111,35.057-19.5c0,0-16.342,24.756-37.432,26.78Z" transform="translate(-12.91 -11.429)" fill="#666af6"/>
    <path id="Path_619" data-name="Path 619" d="M167.179,396.436s21.69-23.3,32.016-20.152c0,0-15.1,25.288-32.7,25.05Z" transform="translate(-11.817 -14.52)" fill="#666af6"/>
    <path id="Path_620" data-name="Path 620" d="M173.87,375.525s18.2-27.311,29.2-26.009c0,0-10.529,23.964-29.018,28.646Z" transform="translate(-10.852 -17.991)" fill="#666af6"/>
    <path id="Path_621" data-name="Path 621" d="M180.894,346.11s16.274-21.1,25.8-21.69c0,0-12.112,27.528-26.091,28.272Z" transform="translate(-9.971 -21.271)" fill="#666af6"/>
    <path id="Path_622" data-name="Path 622" d="M185.046,329.324,199.273,286.7s3.393,37.432-15.833,50.461Z" transform="translate(-9.599 -26.21)" fill="#666af6"/>
    <path id="Path_623" data-name="Path 623" d="M188.424,287.872s.5-34.82-1.5-37.512c0,0,14.1,27.978,2.421,52.825Z" transform="translate(-9.143 -30.966)" fill="#666af6"/>
    <path id="Path_624" data-name="Path 624" d="M161.6,605.7s-18.389-9.749-28.012,17.789c0,0,16.4,9.363,30.535-11.095Z" transform="translate(-16.124 15.328)" fill="#666af6"/>
    <path id="Path_625" data-name="Path 625" d="M153.3,579.724S131,571.3,122.37,599.945c0,0,17.494,10.349,33.373-13.3Z" transform="translate(-17.593 11.995)" fill="#666af6"/>
    <path id="Path_626" data-name="Path 626" d="M149.858,558.465S133.132,541.379,111,561.1c0,0,15.757,14.916,39.163,2.024Z" transform="translate(-19.081 8.464)" fill="#666af6"/>
    <path id="Path_627" data-name="Path 627" d="M146.353,533.329s-16.963-17.88-38.123,1.538c0,0,18.84,15.528,38.45,2.884Z" transform="translate(-19.444 5.091)" fill="#666af6"/>
    <path id="Path_628" data-name="Path 628" d="M146.436,513.722s-12.847-26.542-36-13.2c0,0,14.544,23.33,35.329,17.8Z" transform="translate(-19.154 1.288)" fill="#666af6"/>
    <path id="Path_629" data-name="Path 629" d="M149.369,487.945s-12.813-27.028-36.261-12.518c0,0,16.579,24.439,35.442,16.885Z" transform="translate(-18.807 -2.067)" fill="#666af6"/>
    <path id="Path_630" data-name="Path 630" d="M152.783,467.347s-6.379-30.138-26.634-31.515c0,0,6.424,31.813,24.325,37.183Z" transform="translate(-17.098 -6.688)" fill="#666af6"/>
    <path id="Path_631" data-name="Path 631" d="M155.509,446.589s-4.15-36.54-20.883-36.709c0,0,2.432,27.786,19.349,42.013Z" transform="translate(-15.992 -10.086)" fill="#666af6"/>
    <path id="Path_632" data-name="Path 632" d="M164.4,420.146s-7.024-30.15-23.15-32.8c0,0,3.958,29.4,22.087,40.4Z" transform="translate(-15.121 -13.035)" fill="#666af6"/>
    <path id="Path_633" data-name="Path 633" d="M170.272,398.29s-2.261-31.744-12.327-35.76c0,0-4.082,29.155,9.783,40.012Z" transform="translate(-13.008 -16.284)" fill="#666af6"/>
    <path id="Path_634" data-name="Path 634" d="M176.128,376.391s-3.562-32.627-13.921-36.551c0,0-1.7,26.112,12.553,38.789Z" transform="translate(-12.387 -19.254)" fill="#666af6"/>
    <path id="Path_635" data-name="Path 635" d="M183.491,349.566s-1.855-26.579-9.443-32.356c0,0-5.179,29.616,6.05,37.952Z" transform="translate(-10.984 -22.215)" fill="#666af6"/>
    <path id="Path_636" data-name="Path 636" d="M185.31,328.351l-9.952-43.811s-7.045,36.912,10.821,51.773Z" transform="translate(-10.836 -26.493)" fill="#666af6"/>
    <path id="Path_637" data-name="Path 637" d="M184.92,287.973s-19.934-28.589-19.78-31.913c0,0,4,31.078,27.606,45.111Z" transform="translate(-11.995 -30.22)" fill="#666af6"/>
    <path id="Path_638" data-name="Path 638" d="M187.2,281.5s-19.744-41.153-27.628-44.105c0,0,24.982,10.664,28.963,42.748Z" transform="translate(-12.723 -32.663)" fill="#666af6"/>
    <path id="Path_639" data-name="Path 639" d="M180.675,359.51l-1.139-.283c11.14-47.5,12.72-77.444,4.41-84.32l.769-.926C193.476,281.263,192.1,310.848,180.675,359.51Z" transform="translate(-10.112 -27.874)" fill="#444053"/>
    <path id="Path_640" data-name="Path 640" d="M152.462,461.593l-1.752-.486c1.232-4.366,2.567-8.809,3.987-13.187,12.441-38.134,22.782-73.509,29.121-100.583l1.437-.849c-6.356,27.148-16.408,63.817-28.826,101.984C155.02,452.841,153.685,457.251,152.462,461.593Z" transform="translate(-13.883 -18.385)" fill="#444053"/>
    <path id="Path_641" data-name="Path 641" d="M206.992,702.5c-.249-.237-25.128-24.733-44.234-68.125a262.785,262.785,0,0,1-21.046-80.034c-3.393-34.526,1.243-73.66,11.309-109.583l1.447,1.492c-22.618,80.645-7,147.4,10.442,187.05,18.92,42.974,43.517,67.232,43.765,67.47Z" transform="translate(-15.202 -5.519)" fill="#444053"/>
    <path id="Path_642" data-name="Path 642" d="M223.53,558.5s9.048-2.069,14.95,4.015c0,0-3.81,3.392-12.744-.38Z" transform="translate(-4.351 9.324)" fill="#666af6"/>
    <path id="Path_643" data-name="Path 643" d="M223.016,558.39s-5.338,7.577-1.946,15.345c0,0,4.613-2.261,4.524-11.93Z" transform="translate(-4.821 9.354)" fill="#666af6"/>
    <path id="Path_644" data-name="Path 644" d="M217.34,548.592s3.2-6.933,18.434,1.458c0,0-1.64,4.625-8.12,4.693S219.275,552.007,217.34,548.592Z" transform="translate(-5.161 7.72)" fill="#666af6"/>
    <path id="Path_645" data-name="Path 645" d="M217.316,547.91s-7.645-.351-7.214,17.031c0,0,4.873.678,7.917-5.044S219.454,551.212,217.316,547.91Z" transform="translate(-6.111 7.981)" fill="#666af6"/>
    <path id="Path_646" data-name="Path 646" d="M211.75,536.762s3.472-12.089,19.486-4.727c0,0-2.793,11.072-17.631,8.64Z" transform="translate(-5.893 5.593)" fill="#666af6"/>
    <path id="Path_647" data-name="Path 647" d="M206.51,521.35s7.226-12.441,22.212-2.352c0,0-4.241,11.535-20.707,6.525Z" transform="translate(-6.578 3.681)" fill="#666af6"/>
    <path id="Path_648" data-name="Path 648" d="M204,506.524s8.64-11.592,23.488-1.583c0,0-8.234,10.178-23.3,4.376Z" transform="translate(-6.908 1.824)" fill="#666af6"/>
    <path id="Path_649" data-name="Path 649" d="M201.74,492.232s8.733-12.078,22.971-2.149c0,0-10.031,10.821-22.782,4.83Z" transform="translate(-7.203 -0.1)" fill="#666af6"/>
    <path id="Path_650" data-name="Path 650" d="M201.64,479.733s9.048-15.391,22.313-6.265c0,0-9.861,13.378-22.132,9.048Z" transform="translate(-7.215 -2.139)" fill="#666af6"/>
    <path id="Path_651" data-name="Path 651" d="M202.68,464.571s9.6-15.324,22.618-4.953c0,0-11.693,13.5-22.482,7.622Z" transform="translate(-7.08 -4.047)" fill="#666af6"/>
    <path id="Path_652" data-name="Path 652" d="M204.934,451.246s11.615-14.565,22.935-9.817c0,0-12.089,15.448-23.218,13.5Z" transform="translate(-6.821 -6.081)" fill="#666af6"/>
    <path id="Path_653" data-name="Path 653" d="M208.015,438.638s13.356-17.766,22.132-12.733c0,0-9.783,13.741-22.956,15.968Z" transform="translate(-6.488 -8.104)" fill="#666af6"/>
    <path id="Path_654" data-name="Path 654" d="M212.693,423.405s11.738-14.576,21.215-11.784c0,0-9.872,14.962-22.618,16.182Z" transform="translate(-5.953 -9.904)" fill="#666af6"/>
    <path id="Path_655" data-name="Path 655" d="M216.719,409.321s13.1-14.079,19.349-12.18c0,0-9.113,15.279-19.769,15.142Z" transform="translate(-5.299 -11.777)" fill="#666af6"/>
    <path id="Path_656" data-name="Path 656" d="M220.76,396.686s11.011-16.517,17.656-15.742c0,0-6.356,14.487-17.54,17.325Z" transform="translate(-4.714 -13.877)" fill="#666af6"/>
    <path id="Path_657" data-name="Path 657" d="M225.02,378.9s9.838-12.756,15.6-13.118c0,0-7.328,16.648-15.776,17.065Z" transform="translate(-4.179 -15.859)" fill="#666af6"/>
    <path id="Path_658" data-name="Path 658" d="M227.528,368.739,236.111,343s2.035,22.618-9.6,30.535Z" transform="translate(-3.962 -18.841)" fill="#666af6"/>
    <path id="Path_659" data-name="Path 659" d="M229.567,343.685s.294-21.046-.917-22.675c0,0,8.528,16.908,1.458,31.936Z" transform="translate(-3.681 -21.719)" fill="#666af6"/>
    <path id="Path_660" data-name="Path 660" d="M213.343,535.838s-11.106-5.9-16.963,10.743c0,0,9.918,5.656,18.468-6.694Z" transform="translate(-7.905 6.269)" fill="#666af6"/>
    <path id="Path_661" data-name="Path 661" d="M208.336,520.081s-13.492-5.09-18.706,12.224c0,0,10.574,6.254,20.175-8.029Z" transform="translate(-8.789 4.248)" fill="#666af6"/>
    <path id="Path_662" data-name="Path 662" d="M206.238,507.271s-10.1-10.326-23.488,1.583c0,0,9.534,9.048,23.681,1.221Z" transform="translate(-9.689 2.118)" fill="#666af6"/>
    <path id="Path_663" data-name="Path 663" d="M204.127,492.075s-10.252-10.8-23.047.938c0,0,11.391,9.375,23.228,1.741Z" transform="translate(-9.908 0.08)" fill="#666af6"/>
    <path id="Path_664" data-name="Path 664" d="M204.18,480.186s-7.769-16.048-21.77-7.985c0,0,8.8,14.1,21.363,10.766Z" transform="translate(-9.732 -2.225)" fill="#666af6"/>
    <path id="Path_665" data-name="Path 665" d="M205.95,464.625S198.2,448.283,184,457.06c0,0,10.02,14.781,21.43,10.178Z" transform="translate(-9.525 -4.249)" fill="#666af6"/>
    <path id="Path_666" data-name="Path 666" d="M208.015,452.2s-3.856-18.225-16.1-19.055c0,0,3.879,19.226,14.7,22.47Z" transform="translate(-8.489 -7.039)" fill="#666af6"/>
    <path id="Path_667" data-name="Path 667" d="M209.667,439.639s-2.489-22.085-12.667-22.2c0,0,1.469,16.805,11.693,25.411Z" transform="translate(-7.823 -9.095)" fill="#666af6"/>
    <path id="Path_668" data-name="Path 668" d="M215.03,423.655s-4.241-18.225-13.99-19.835c0,0,2.4,17.766,13.356,24.416Z" transform="translate(-7.295 -10.879)" fill="#666af6"/>
    <path id="Path_669" data-name="Path 669" d="M218.583,410.444s-1.392-19.226-7.442-21.624c0,0-2.468,17.631,5.9,24.19Z" transform="translate(-6.015 -12.842)" fill="#666af6"/>
    <path id="Path_670" data-name="Path 670" d="M222.124,397.2s-2.141-19.723-8.406-22.1c0,0-1.029,15.833,7.594,23.456Z" transform="translate(-5.638 -14.638)" fill="#666af6"/>
    <path id="Path_671" data-name="Path 671" d="M226.567,380.984s-1.139-16.07-5.654-19.564c0,0-3.132,17.914,3.653,22.947Z" transform="translate(-4.788 -16.429)" fill="#666af6"/>
    <path id="Path_672" data-name="Path 672" d="M227.7,368.156l-6.016-26.485s-4.264,22.324,6.536,31.3Z" transform="translate(-4.702 -19.014)" fill="#666af6"/>
    <path id="Path_673" data-name="Path 673" d="M227.447,343.752s-12.044-17.276-11.96-19.292c0,0,2.409,18.783,16.68,27.266Z" transform="translate(-5.407 -21.267)" fill="#666af6"/>
    <path id="Path_674" data-name="Path 674" d="M228.794,339.824s-11.941-24.879-16.706-26.634a32.464,32.464,0,0,1,17.506,25.851Z" transform="translate(-5.849 -22.742)" fill="#666af6"/>
    <path id="Path_675" data-name="Path 675" d="M224.872,386.986l-.712-.169c6.785-28.714,7.691-46.82,2.669-50.97l.463-.57C232.62,339.686,231.782,357.583,224.872,386.986Z" transform="translate(-4.268 -19.852)" fill="#444053"/>
    <path id="Path_676" data-name="Path 676" d="M207.823,448.71l-1.063-.306c.746-2.635,1.561-5.316,2.421-7.917,7.5-23.059,13.764-44.445,17.6-60.808l.871-.52c-3.844,16.4-9.918,38.586-17.428,61.668C209.361,443.44,208.558,446.075,207.823,448.71Z" transform="translate(-6.545 -14.106)" fill="#444053"/>
    <path id="Path_677" data-name="Path 677" d="M240.784,594.36c-.146-.146-15.188-14.95-26.746-41.2a159.139,159.139,0,0,1-12.72-48.38c-2.069-20.883.759-44.534,6.853-66.256l.871.906c-13.669,48.753-4.23,89.114,6.311,113.09C226.8,578.53,241.66,593.148,241.817,593.3Z" transform="translate(-7.344 -6.339)" fill="#444053"/>
    <path id="Path_678" data-name="Path 678" d="M280.136,645.289a43.236,43.236,0,0,0-8.482,2.421c-61,24.359-59.992,183.815-59.992,183.815H193.7s-5.654-68.43-30.3-166.061c-22.2-87.836,68.85-166.558,87.339-181.493,2.088-1.663,3.227-2.544,3.227-2.544C345.694,515.134,280.136,645.289,280.136,645.289Z" transform="translate(-12.678 -0.722)" fill="#666af6"/>
    <path id="Path_679" data-name="Path 679" d="M260.647,484.2c-2.115-.972-4.3-1.9-6.616-2.749,0,0-1.139.883-3.227,2.544-18.491,14.928-109.541,93.649-87.339,181.493,24.642,97.63,30.241,166.038,30.241,166.038h10.1s-5.6-68.43-30.3-166.061C151.392,578.027,241.558,499.6,260.647,484.2Z" transform="translate(-12.665 -0.715)" fill="#fff" opacity="0.2"/>
    <path id="Path_680" data-name="Path 680" d="M549.9,665.486c-24.7,97.621-30.262,166.038-30.262,166.038H501.645s1.139-166.649-64.157-185.252a35.68,35.68,0,0,0-4.31-1.006s-65.592-130.155,26.146-163.837c0,0,.926.689,2.6,2.035C478.924,497.071,572.348,576.63,549.9,665.486Z" transform="translate(20.118 -0.721)" fill="#666af6"/>
    <path id="Path_681" data-name="Path 681" d="M269.621,645.283a43.227,43.227,0,0,0-8.482,2.421A1107.393,1107.393,0,0,1,240.24,484c2.088-1.663,3.227-2.544,3.227-2.544C335.178,515.128,269.621,645.283,269.621,645.283Z" transform="translate(-2.164 -0.716)" opacity="0.1"/>
    <path id="Path_682" data-name="Path 682" d="M461.955,483.483a1018.921,1018.921,0,0,1-24.439,162.848,35.653,35.653,0,0,0-4.309-1.006S367.615,515.17,459.353,481.488C459.324,481.446,460.247,482.137,461.955,483.483Z" transform="translate(20.121 -0.715)" opacity="0.1"/>
    <path id="Path_683" data-name="Path 683" d="M450.43,725.6q-9.492,37.478-22.267,76.9s-40.4,42.081-137.969,0c0,0-9.749-27.48-20.469-74.2-23.6-102.72-51.908-298.465,8.4-499.528A748.374,748.374,0,0,1,354.1,56.36s51.524,59.158,89.342,172.381S505.324,509.284,450.43,725.6Z" transform="translate(-1.928 -56.36)" fill="#44bba4"/>
    <circle id="Ellipse_78" data-name="Ellipse 78" cx="81.006" cy="81.006" r="81.006" transform="translate(279.366 251.025)" fill="#afc0e0"/>
    <path id="Path_684" data-name="Path 684" d="M412.478,356.652a57.449,57.449,0,0,1-93.864,44.424,58.053,58.053,0,0,1-10.766-11.681,56.537,56.537,0,0,1-3.71-6.1,57.333,57.333,0,0,1-6.548-26.654v-1.369a57.523,57.523,0,0,1,41.844-53.966,59.4,59.4,0,0,1,13.842-2.1h1.718a57.449,57.449,0,0,1,57.484,57.446Z" transform="translate(5.343 -24.576)" fill="#666af6"/>
    <path id="Path_685" data-name="Path 685" d="M439.256,228.742c-91.908,44-165.356,0-165.356,0A748.381,748.381,0,0,1,349.93,56.361S401.454,115.517,439.256,228.742Z" transform="translate(2.242 -56.359)" fill="#666af6"/>
    <path id="Path_686" data-name="Path 686" d="M447.231,648.14q-6.455,25.377-14.362,51.625-3.755,12.518-7.917,25.25s-40.4,42.081-137.969,0c0,0-3.167-8.923-7.917-25.25-3.55-12.327-7.974-28.857-12.587-48.956,0,0,36.325,15.5,87.882,15.5a242.136,242.136,0,0,0,92.869-18.174Z" transform="translate(1.271 21.101)" fill="#666af6"/>
    <path id="Path_687" data-name="Path 687" d="M431.412,693.79q-3.755,12.518-7.917,25.25s-40.4,42.081-137.969,0c0,0-3.167-8.923-7.917-25.25C277.591,693.79,377.05,722.4,431.412,693.79Z" transform="translate(2.728 27.076)" fill="#e3e8f4"/>
    <path id="Path_688" data-name="Path 688" d="M339.464,301.248l-.125.091L297.61,355.214v1.369a57.334,57.334,0,0,0,6.548,26.655l49.17-84.1Z" transform="translate(5.346 -24.585)" fill="#fff" opacity="0.2"/>
    <path id="Path_689" data-name="Path 689" d="M351.6,344.495l-34.172,51.173a58.042,58.042,0,0,1-10.766-11.681l40.7-43.706Z" transform="translate(6.532 -19.196)" fill="#fff" opacity="0.2"/>
    <path id="Path_690" data-name="Path 690" d="M312.024,802.478s-9.749-27.482-20.464-74.2c-23.6-102.73-51.908-298.477,8.4-499.539A751.123,751.123,0,0,1,366.516,72.575c-7.657-10.732-12.441-16.205-12.441-16.205a748.291,748.291,0,0,0-75.994,172.371c-60.311,201.063-32,396.81-8.4,499.539,10.721,46.7,20.469,74.2,20.469,74.2,38.552,16.614,68.17,20.1,89.906,18.24C361.477,819.306,338.927,814.07,312.024,802.478Z" transform="translate(-1.932 -56.359)" fill="#fff" opacity="0.2"/>
    <path id="Path_691" data-name="Path 691" d="M966.7,813.1s52.859-65.772,49.36-131.647a127.848,127.848,0,0,1,20.959-78.107,215.072,215.072,0,0,1,24.879-30.535" transform="translate(92.927 11.239)" fill="none" stroke="#535461" stroke-miterlimit="10" stroke-width="2"/>
    <path id="Path_692" data-name="Path 692" d="M1049.266,537.429c-3.778,9.172,1.878,42.613,1.878,42.613s27.56-19.769,31.338-28.94a17.963,17.963,0,0,0-33.223-13.669Z" transform="translate(103.569 5.152)" fill="#666af6"/>
    <path id="Path_693" data-name="Path 693" d="M1006.363,573.539c1.821,9.749,24.745,34.742,24.745,34.742s12.441-31.564,10.574-41.322a17.962,17.962,0,1,0-35.315,6.583Z" transform="translate(98.081 8.555)" fill="#666af6"/>
    <path id="Path_694" data-name="Path 694" d="M976.3,651.739c6.491,7.5,38.9,17.506,38.9,17.506s-5.247-33.508-11.738-41.018a17.958,17.958,0,0,0-27.148,23.514Z" transform="translate(93.611 17.684)" fill="#666af6"/>
    <path id="Path_695" data-name="Path 695" d="M966.143,715.086c5.126,8.494,35.374,23.828,35.374,23.828s.5-33.927-4.625-42.408a17.966,17.966,0,1,0-30.755,18.58Z" transform="translate(92.512 26.296)" fill="#666af6"/>
    <path id="Path_696" data-name="Path 696" d="M1063.326,620.08c-9.206,3.675-42.59-2.318-42.59-2.318s20.04-27.357,29.257-31.044a17.964,17.964,0,0,1,13.333,33.362Z" transform="translate(99.997 12.893)" fill="#666af6"/>
    <path id="Path_697" data-name="Path 697" d="M1050.444,694.5c-9.883.759-39.944-14.95-39.944-14.95s27.3-20.124,37.195-20.883a17.968,17.968,0,0,1,2.749,35.832Z" transform="translate(98.66 22.469)" fill="#666af6"/>
    <path id="Path_698" data-name="Path 698" d="M1028.539,764.936c-9.623,2.421-41.9-7.985-41.9-7.985s23.51-24.439,33.136-26.848a17.959,17.959,0,1,1,8.765,34.832Z" transform="translate(95.537 31.758)" fill="#666af6"/>
    <path id="Path_699" data-name="Path 699" d="M1049.266,537.429c-3.778,9.172,1.878,42.613,1.878,42.613s27.56-19.769,31.338-28.94a17.963,17.963,0,0,0-33.223-13.669Z" transform="translate(103.569 5.152)" opacity="0.25"/>
    <path id="Path_700" data-name="Path 700" d="M1006.363,573.539c1.821,9.749,24.745,34.742,24.745,34.742s12.441-31.564,10.574-41.322a17.962,17.962,0,1,0-35.315,6.583Z" transform="translate(98.081 8.555)" opacity="0.25"/>
    <path id="Path_701" data-name="Path 701" d="M976.3,651.739c6.491,7.5,38.9,17.506,38.9,17.506s-5.247-33.508-11.738-41.018a17.958,17.958,0,0,0-27.148,23.514Z" transform="translate(93.611 17.684)" opacity="0.25"/>
    <path id="Path_702" data-name="Path 702" d="M966.143,715.086c5.126,8.494,35.374,23.828,35.374,23.828s.5-33.927-4.625-42.408a17.966,17.966,0,1,0-30.755,18.58Z" transform="translate(92.512 26.296)" opacity="0.25"/>
    <path id="Path_703" data-name="Path 703" d="M1063.326,620.08c-9.206,3.675-42.59-2.318-42.59-2.318s20.04-27.357,29.257-31.044a17.964,17.964,0,0,1,13.333,33.362Z" transform="translate(99.997 12.893)" opacity="0.25"/>
    <path id="Path_704" data-name="Path 704" d="M1050.444,694.5c-9.883.759-39.944-14.95-39.944-14.95s27.3-20.124,37.195-20.883a17.968,17.968,0,0,1,2.749,35.832Z" transform="translate(98.66 22.469)" opacity="0.25"/>
    <path id="Path_705" data-name="Path 705" d="M1028.539,764.936c-9.623,2.421-41.9-7.985-41.9-7.985s23.51-24.439,33.136-26.848a17.959,17.959,0,1,1,8.765,34.832Z" transform="translate(95.537 31.758)" opacity="0.25"/>
    <path id="Path_706" data-name="Path 706" d="M967.12,803.821s74.978-38.729,98.468-100.357a127.791,127.791,0,0,1,50.822-62.911,214.785,214.785,0,0,1,35.057-17.823" transform="translate(92.982 17.776)" fill="none" stroke="#535461" stroke-miterlimit="10" stroke-width="2"/>
    <path id="Path_707" data-name="Path 707" d="M1145.219,589.04c-7.17,6.865-15.55,39.729-15.55,39.729s33.2-6.91,40.373-13.764A17.977,17.977,0,0,0,1145.219,589Z" transform="translate(114.257 12.709)" fill="#666af6"/>
    <path id="Path_708" data-name="Path 708" d="M1090.2,604.669c-2.261,9.657,8.543,41.844,8.543,41.844s24.076-23.828,26.406-33.542a17.959,17.959,0,1,0-34.946-8.3Z" transform="translate(109.052 13.605)" fill="#666af6"/>
    <path id="Path_709" data-name="Path 709" d="M1031.032,663.976c2.9,9.492,28.477,31.767,28.477,31.767s8.786-32.8,5.885-42.239a17.962,17.962,0,1,0-34.364,10.473Z" transform="translate(101.245 20.138)" fill="#666af6"/>
    <path id="Path_710" data-name="Path 710" d="M996.076,717.771c1.244,9.849,22.687,36.12,22.687,36.12s14.2-30.8,12.95-40.644a17.96,17.96,0,0,0-35.634,4.524Z" transform="translate(96.754 27.57)" fill="#666af6"/>
    <path id="Path_711" data-name="Path 711" d="M1123.923,669.449c-9.918-.363-38-19.364-38-19.364s29.4-16.885,39.321-16.517a17.959,17.959,0,1,1-1.329,35.894Z" transform="translate(108.529 19.198)" fill="#666af6"/>
    <path id="Path_712" data-name="Path 712" d="M1081.458,732.119c-9.354-3.313-30.466-29.855-30.466-29.855s33.124-7.317,42.465-4a17.961,17.961,0,1,1-12,33.859Z" transform="translate(103.963 27.55)" fill="#666af6"/>
    <path id="Path_713" data-name="Path 713" d="M1033.181,787.7c-9.771-1.686-35.057-24.279-35.057-24.279s31.4-12.8,41.176-11.117a17.96,17.96,0,0,1-6.107,35.4Z" transform="translate(97.044 34.716)" fill="#666af6"/>
    <path id="Path_714" data-name="Path 714" d="M1116.1,804.695,1057.989,720.4s-1.139-20.864-4.885-25.739-.814-15.719-.814-15.719,4.072-5.959.543-6.5-.543-13.83-.543-13.83l-.271-21.136s3.258-20.355.543-25.2a8,8,0,0,1,.271-8.674s3.258-11.66,0-14.633-2.443-21.147-1.629-35.5-5.711-22.493-5.711-24.665S1024,505.493,1024,503.613s-13.57-9.76-21.724-11.932-12.224-3.8-11.96-4.873-12.767-5.416-12.767-5.416-11.41-.814-15.757-6.514-17.631-7.328-18.015-7.385c-.08-.38-.169-.759-.249-1.139s-.169-.814-.249-1.221c1.029-1.729,1.978-3.5,2.848-5.316.26-.554.509-1.139.746-1.652a23.2,23.2,0,0,0,13.378-4.15,18.225,18.225,0,0,0,6.5-12.993,28.477,28.477,0,0,0-3.178-14.442c-2.375-4.885-5.87-9.94-4.67-15.233.532-2.261,1.9-4.3,2.6-6.536a17.217,17.217,0,0,0-1.957-12.835c-2.058-3.936-4.919-7.4-7.2-11.2a43.765,43.765,0,0,1-5.733-15.833,24.757,24.757,0,0,0-2.126-8.629,16.068,16.068,0,0,0-4.761-4.807,47.578,47.578,0,0,0-29.2-8.854c-7.4.26-14.77,2.261-22.109,1.346a79.564,79.564,0,0,1-12.909-3.393c-9.113-2.692-19.621-3.8-27.56,1.414s-11.095,15.471-16.465,23.488c-4.746,7.1-11.715,13.05-15.336,20.56a1.612,1.612,0,0,1,.114-.429,24.605,24.605,0,0,0-2.024,5.473c-1.38,5.9-.226,12.078,1.209,17.971.735,3.038,1.752,6.345,4.387,8.029s6.367,1.312,9.492,1.866c-.114.509-.249,1.029-.363,1.549A62.08,62.08,0,0,0,872.04,492.9v1.652a41.041,41.041,0,0,1-.283,4.659h0s-27.311-5.654-34.651-1.809-21.735,6.785-23.907,8.934-7.594.543-12.441,13.289-5.428,25.739-11.683,31.664-9.492,10.031-9.771,14.373.814,5.416-1.64,6.785-5.971,7.045-4.885,9.217c0,0,1.358,5.416-2.986,8.12a9.079,9.079,0,0,0-3.812,8.131s-1.629,5.971-5.428,7.317-6.254,10.3-6.254,10.3l-12.361,14.193-24.43-27.038a10.292,10.292,0,0,0-14.533-.746L690.989,612.76a23.682,23.682,0,0,0-12,7.148,30.928,30.928,0,0,0-6.208,9.251l-6.571,5.9a16.682,16.682,0,0,0-1.686,18.415l15.64,17.291.1.146a27.624,27.624,0,0,0-15.131,6.164c-23.351,20.595-23.636,39.581-20.1,48.232s33.136,42.013,33.136,42.013,17.2,22.358,42.036,34.254h0l-.19.19c-.486.52-.972,1.139-1.448,1.7l-.406.52-.38.52-.44.657c-.125.169-.237.351-.351.532s-.317.509-.463.78l-.306.52c-.19.34-.38.689-.554,1.052l-.19.351c-.226.475-.452.961-.666,1.469-.08.19-.148.38-.226.554-.137.351-.283.712-.418,1.139s-.169.463-.249.7-.237.7-.351,1.063-.158.509-.226.759-.226.792-.328,1.2-.125.475-.19.735c-.146.623-.294,1.266-.418,1.946a4.748,4.748,0,0,1-.137.769q-.135.678-.237,1.391c-.057.328-.091.657-.135.983s-.114.894-.169,1.346l-.1,1.04c0,.5-.091,1.018-.123,1.538a5.345,5.345,0,0,1-.057.949c0,.86-.091,1.72-.1,2.624-.543,31.664,1.312,36.314,1.312,36.314s3.833,10.1,14.428,10.821a18.44,18.44,0,0,0,4.647-.249c14.125-2.443,47.26-8.131,58.942-5.959,7.024,1.3,20.029-.623,29.289-2.375l2.432-.463,1.7,5.382,5.371-1.469,4.524,2.635,2.884,1.652c5.361,18.185,27.148,11.987,27.148,11.987l5.113,2.964,52.428,1.357s11.309,6.785,18.557,8.911a17.24,17.24,0,0,0,2.635.569,118.956,118.956,0,0,0,14.618.271c4.015-.1,7.125-.271,7.125-.271s-.532-14.238-1.3-30.172c20.04-.837,37.806-2.088,48.561-3.987,28-4.919,39.678-30.375,43.98-43.98a127.981,127.981,0,0,1,2.749,16.885,120.77,120.77,0,0,0,4.353,14.633,49.449,49.449,0,0,0,5.971,10.834c20.65-7.045,8.154-17.608,3.8-22.222s3-8.4,3-8.4,5.656-3.8,5.156-7.317-.814-7.317,17.656-7.045S1116.1,804.695,1116.1,804.695ZM829.247,631.667c.237,1.549,2.815,18.252,5.145,22.618a29.849,29.849,0,0,1,.611,8.923c-10.947-.871-22.347-1.329-22.347-1.329a2.624,2.624,0,0,1,.588,1.392l-1.72-.38-2.5-.611,20.164-30.67ZM789.3,695.224l18.943,3.009,1.595.249a62.321,62.321,0,0,0-.984,8.946c0,.283.429.623,1.04,1.018a24.394,24.394,0,0,0-.38,4.524c.306,1.5,9.16,4.746,19.315,7.431-.135.543-.271,1.063-.406,1.549h0c-8.968-4.716-23.1-6.922-24.733-10.426s-49.759-20.355-49.759-20.355-1.752-.926-4.784-2.4l12.667,2.4,3.484-.351a189.919,189.919,0,0,0,24,4.387Z" transform="translate(50.607 -19.446)" fill="url(#linear-gradient)"/>
    <path id="Path_715" data-name="Path 715" d="M1046.324,772.933s-7.531,45.5-45.768,52.225S834.7,830.542,834.7,830.542s-72.966-10.495-99.349-72.151S692,672.227,714.621,671.152s144.585,41.2,151.539,41.73S1053.06,619.188,1046.324,772.933Z" transform="translate(58.551 24.111)" fill="#31446c"/>
    <path id="Path_716" data-name="Path 716" d="M1046.324,772.933s-7.531,45.5-45.768,52.225S834.7,830.542,834.7,830.542s-72.966-10.495-99.349-72.151S692,672.227,714.621,671.152s144.585,41.2,151.539,41.73S1053.06,619.188,1046.324,772.933Z" transform="translate(58.551 24.111)" fill="#31446c" opacity="0.05"/>
    <path id="Path_717" data-name="Path 717" d="M704.235,813.878s3.81,10.043,14.293,10.755a18.574,18.574,0,0,0,4.6-.249c14-2.421,46.852-8.074,58.422-5.925,6.965,1.3,19.846-.623,29.018-2.352,6.107-1.139,10.563-2.261,10.563-2.261s-10.766-35.8-12.124-36.878-48.458-29.347-48.458-29.347l-37.32-2.681h-.114a19.616,19.616,0,0,0-12.644,7.431c-3.947,4.761-7.328,12.587-7.554,25.411C702.4,809.3,704.235,813.878,704.235,813.878Z" transform="translate(58.385 33.773)" fill="#565387"/>
    <path id="Path_718" data-name="Path 718" d="M704.233,813.876s3.81,10.043,14.3,10.755a153.216,153.216,0,0,1-10.178-14.793l.19-26.113a45.9,45.9,0,0,1,14.7-38.755h-.114s-19.655,1.329-20.2,32.8S704.233,813.876,704.233,813.876Z" transform="translate(58.387 33.776)" opacity="0.05"/>
    <path id="Path_719" data-name="Path 719" d="M849.716,764.886l34.73-27.148L939.1,683.884s-5.9-.283-14.808-.668c-2.261,1.414-8.425,5.859-8.651,11.309-.271,6.582-14.781.452-22.313,4.218s-44.424,50.981-50.89,50.676-11.569-3.281-14.273,1.3c0,.1-.125.19-.19.294Z" transform="translate(74.768 25.69)" opacity="0.1"/>
    <path id="Path_720" data-name="Path 720" d="M709.6,752.392c1.232.6,2.468,1.139,3.755,1.72,26.389,11.309,58.964,35.057,61.4,39.31,1.469,2.624,20.355,14.09,34.932,22.687,6.107-1.139,10.563-2.261,10.563-2.261s-10.766-35.8-12.124-36.878-48.458-29.347-48.458-29.347l-37.32-2.681h-.114a19.7,19.7,0,0,0-12.631,7.45Z" transform="translate(59.273 33.774)" opacity="0.1"/>
    <path id="Path_721" data-name="Path 721" d="M645.033,689.577c3.495,8.617,32.8,41.741,32.8,41.741s18.569,24.224,44.965,35.534,58.964,35.057,61.385,39.31c1.561,2.77,22.618,15.436,37.409,24.145l3.313,1.934,7.351,4.264,3.89,2.261s9.048-7.237,17.992-14.521,17.677-14.419,17.823-14.825c.26-.8,3.755-9.963,2.952-10.495-.418-.283-2.261-4.015-5.656-8.334a38.244,38.244,0,0,0-13.719-11.309c-12.44-5.655-17.766-18.523-17.766-18.523s-1.139-.86-2.975-1.99c-3.189-2.012-8.312-4.908-12.1-5.394-5.937-.746-16.963-12.858-16.963-12.858s-7.543-4.852-10.506-11.038c-2.827-5.9-44.58-34.582-48.447-37.229l101.226,65,24.224,15.567,34.73-27.148,54.676-53.854s-7.351-.363-18.094-.814c-26.565-1.139-73.746-2.952-79.705-1.606a45.427,45.427,0,0,1-14.808.961s-13.436.611-22.324-4.082-22.9-6.888-24.519-10.358-49.273-20.186-49.273-20.186-64.893-34.443-88.055-13.982S641.524,680.971,645.033,689.577Z" transform="translate(50.606 19.416)" fill="#31446c"/>
    <path id="Path_722" data-name="Path 722" d="M829.82,517.8l8.353,27.729,10.766,62.459,39.581,2.692,11.455-19,11.478-18.966s7.125-25.25,12.247-49.658c4.524-21.6,7.486-42.567,2.555-44.84-4.366-2.024-7.237-9.3-9.048-17.122-.237-.961-.452-1.946-.657-2.929a152.265,152.265,0,0,1-2.624-20.072s-82.929-4.3-71.348,29.889a54.486,54.486,0,0,1,3.121,18.185,43.243,43.243,0,0,1-.283,4.625,38.789,38.789,0,0,1-15.6,27.006Z" transform="translate(75.01 -6.416)" fill="#ee8e9e"/>
    <path id="Path_723" data-name="Path 723" d="M814.58,507.1l2.963,47.112,6.728,40.113,7.543,18.58,6.728,101.646s64.927,7.508,80.711-.135a6.944,6.944,0,0,0,2.861-2.261c19.066-28.758,12.813-112.172,12.813-112.172L942.2,546.12l-4.851-27.955-11.7-1.243-9.048-.961s-2.035,2.51-4.976,6.39c-7.985,10.54-22.618,31.27-21.679,39.921,1.329,11.852-1.617,23.964-6.2,25.851s-8.353,5.113-9.149,1.889-1.618-4.038-.815-8.617-3.506-18.58-3.506-18.58-7.26-16.42-6.785-23.421-.8-15.087-2.963-16.963-5.113-3.778-2.692-12.441-10.62-25.388-10.62-25.388Z" transform="translate(73.016 -0.303)" fill="#e3e8f4"/>
    <path id="Path_724" data-name="Path 724" d="M890.423,628.264l2.692,80.508,15.55,8.617a6.954,6.954,0,0,0,2.861-2.261c19.078-28.8,12.824-112.2,12.824-112.2l7.271-53.854-4.851-27.945-11.715-1.244c4.524-21.6,7.486-42.567,2.567-44.84-4.376-2.024-7.248-9.3-9.113-17.122h0l-8.369,57s.7,5.126.949,10.426a29.9,29.9,0,0,1-.678,10.031c-1.889,4.852-.543,13.47-.543,13.47-4.853,8.543-7.271,24.393-8.459,39.7C889.812,608.88,890.423,628.264,890.423,628.264Z" transform="translate(82.928 -3.794)" opacity="0.1"/>
    <path id="Path_725" data-name="Path 725" d="M908.591,456.82s13.57,1.686,17.868,7.339,15.619,6.434,15.619,6.434S955,474.9,954.733,475.977s3.767,2.7,11.852,4.851,21.487,9.963,21.487,11.852,21.263,22.878,21.263,25.039,6.468,10.178,5.654,24.49-1.617,32.31,1.618,35.273,0,14.544,0,14.544a7.916,7.916,0,0,0-.169,8.617c2.692,4.851-.532,25.05-.532,25.05l.26,21s-2.964,13.187.543,13.73-.543,6.455-.543,6.455-2.964,10.778.814,15.619,4.841,25.58,4.841,25.58l57.675,83.686s.814,15.345-17.494,15.076-18.094,3.506-17.506,7-5.113,7.271-5.113,7.271-7.271,3.767-2.964,8.353,16.691,15.076-3.766,22.075a48.8,48.8,0,0,1-5.925-10.766,121.8,121.8,0,0,1-4.307-14.533s-1.889-20.469-5.656-23.161-3.227-15.619-3.227-15.619,5.382-10.495-2.149-14.808S894.43,707.822,894.43,707.822l-2.692-80.508s-1.889-59.5,9.42-79.422c0,0-1.346-8.617.543-13.458s-.271-20.469-.271-20.469Z" transform="translate(83.104 -3.941)" fill="#31446c"/>
    <path id="Path_726" data-name="Path 726" d="M855.619,485.741s-27.063-5.576-34.334-1.809-21.487,6.785-23.748,8.889-7.543.543-12.384,13.2-5.394,25.57-11.581,31.5-9.42,9.963-9.692,14.273.8,5.382-1.617,6.785-5.925,7-4.851,9.16,56.1,49.476,56.1,49.476,2.7,18.094,5.126,22.618-2.692,67.585-8.074,71.891,36.348,3.913,36.348,3.913,1.878-41.333,3.5-43.494-1.139-46.366-1.139-46.366S849,588.077,852.5,578.118s3.11-43.042,3.11-43.042,3.1-19.869,6.865-24.507S855.619,485.741,855.619,485.741Z" transform="translate(65.506 -0.563)" opacity="0.1"/>
    <path id="Path_727" data-name="Path 727" d="M854.911,485.031s-27.074-5.576-34.345-1.809-21.487,6.728-23.693,8.889-7.531.532-12.441,13.187-5.382,25.582-11.581,31.515-9.42,9.963-9.692,14.273.814,5.382-1.606,6.728-5.925,7-4.851,9.149,56,49.55,56,49.55,2.692,18.094,5.113,22.618-2.692,67.57-8.074,71.88,36.346,3.913,36.346,3.913,1.889-41.333,3.506-43.475-1.139-46.366-1.139-46.366-.26-37.692,3.227-47.651,3.11-43.1,3.11-43.1,3.1-19.869,6.853-24.49S854.911,485.031,854.911,485.031Z" transform="translate(65.413 -0.656)" fill="#31446c"/>
    <path id="Path_728" data-name="Path 728" d="M841.123,467.98a54.485,54.485,0,0,1,3.121,18.185,61.782,61.782,0,0,0,70.851-28,152.23,152.23,0,0,1-2.624-20.074S829.562,433.792,841.123,467.98Z" transform="translate(76.343 -6.415)" opacity="0.1"/>
    <path id="Path_729" data-name="Path 729" d="M804.82,434.036a61.656,61.656,0,1,0,1.329-12.813A61.656,61.656,0,0,0,804.82,434.036Z" transform="translate(71.738 -15.016)" fill="#ee8e9e"/>
    <path id="Path_730" data-name="Path 730" d="M776.087,553.06l-14.808,4.581s1.346,5.382-2.963,8.074a9.01,9.01,0,0,0-3.767,8.086s-1.617,5.914-5.384,7.26-6.2,10.178-6.2,10.178l-12.384,14.273s-4.581,3.767-3.766,5.654-4.853,2.421-4.853,2.421l2.963,47.972,25.58,4.853,15.833-1.618,12.927-4.853,11.309-6.785,5.156-13.084,22.618-34.459Z" transform="translate(60.89 8.656)" fill="#31446c"/>
    <path id="Path_731" data-name="Path 731" d="M732.951,613.4s-32.806-47.4-57.357-21.817,9.963,67.041,18.035,65.687,46.581-3.5,46.581-3.5Z" transform="translate(53.686 12.708)" fill="#ee8e9e"/>
    <rect id="Rectangle_1632" data-name="Rectangle 1632" width="69.459" height="78.936" rx="12.62" transform="translate(708.117 630.047) rotate(-42.05)" fill="#30374e"/>
    <rect id="Rectangle_1633" data-name="Rectangle 1633" width="69.459" height="78.936" rx="12.62" transform="translate(708.117 630.047) rotate(-42.05)" opacity="0.1"/>
    <rect id="Rectangle_1634" data-name="Rectangle 1634" width="69.459" height="78.936" rx="12.62" transform="translate(709.041 626.146) rotate(-42.05)" fill="#30374e"/>
    <circle id="Ellipse_79" data-name="Ellipse 79" cx="15.347" cy="15.347" r="15.347" transform="translate(745.057 618.793)" fill="#666af6"/>
    <circle id="Ellipse_80" data-name="Ellipse 80" cx="15.347" cy="15.347" r="15.347" transform="translate(745.057 618.793)" opacity="0.1"/>
    <circle id="Ellipse_81" data-name="Ellipse 81" cx="15.347" cy="15.347" r="15.347" transform="translate(745.917 616.847)" fill="#666af6"/>
    <path id="Path_732" data-name="Path 732" d="M706.5,620.7c-.271,35.545,73.237,43.076,73.237,43.076l18.772,2.986,8.414,1.329,3.506-34.7s-3.856-.57-8.674-1.7c-7.114-1.663-16.327-4.524-18.263-8.543C780.269,616.436,706.76,585.168,706.5,620.7Z" transform="translate(58.869 15.327)" fill="#ee8e9e"/>
    <path id="Path_733" data-name="Path 733" d="M806,421.184a7.316,7.316,0,0,1,4.524,2.012c2.088,2.206,2.195,6.119,4.9,7.474a5.564,5.564,0,0,0,3.212.38c7.159-1.018,11.309-9.048,18.174-11.309a18.324,18.324,0,0,1,12.044,1.029,8.97,8.97,0,0,1,3.987,2.567c2.261,2.975.689,7.351,1.752,10.958,1.481,5,7.453,6.988,12.621,7.645s10.992,1.018,14.442,4.919a13.1,13.1,0,0,1,2.567,10.415,8.245,8.245,0,0,0,0,3.856c1.424,4.038,8.414,3.392,10.234.249,1.329-2.318.926-4.241,4.07-4.885a13.409,13.409,0,0,1,6.593,1.139,48.3,48.3,0,0,0,17.054,2.624A61.668,61.668,0,1,0,806,421.184Z" transform="translate(71.893 -14.977)" opacity="0.1"/>
    <path id="Path_734" data-name="Path 734" d="M885.945,463.329a8.244,8.244,0,0,1,0-3.856,13.116,13.116,0,0,0-2.567-10.415c-3.393-3.9-9.274-4.275-14.442-4.919s-11.14-2.635-12.621-7.634c-1.063-3.607.543-8-1.752-10.969a8.822,8.822,0,0,0-3.987-2.555,18.582,18.582,0,0,0-12.055-1.04c-6.865,2.261-11.011,10.314-18.174,11.309a5.564,5.564,0,0,1-3.212-.38c-2.7-1.357-2.815-5.27-4.9-7.465-3.269-3.461-9.477-1.232-13.479-3.8-2.612-1.686-3.618-4.953-4.342-7.974-1.426-5.859-2.567-12-1.2-17.857,2.341-10.02,11.309-16.885,16.963-25.439,5.327-7.974,8.312-18.094,16.327-23.351s18.286-4.082,27.311-1.4a84.3,84.3,0,0,0,12.79,3.393c7.282.894,14.588-1.139,21.916-1.329a47.066,47.066,0,0,1,28.94,8.786,16.014,16.014,0,0,1,4.727,4.784,24.473,24.473,0,0,1,2.088,8.572,43.82,43.82,0,0,0,5.656,15.757c2.261,3.8,5.1,7.226,7.148,11.14a17.087,17.087,0,0,1,1.935,12.744c-.689,2.261-2.058,4.218-2.567,6.491-1.2,5.259,2.261,10.28,4.625,15.131a28.384,28.384,0,0,1,3.144,14.35,18.1,18.1,0,0,1-6.455,12.909,23.161,23.161,0,0,1-13.65,4.139,48.379,48.379,0,0,1-17.394-2.612,13.541,13.541,0,0,0-6.593-1.139c-3.144.645-2.738,2.567-4.07,4.885C894.354,466.767,887.369,467.367,885.945,463.329Z" transform="translate(70.138 -18.808)" fill="#31446c"/>
    <path id="Path_735" data-name="Path 735" d="M848.575,766.332l34.731-27.148,54.676-53.854s-7.351-.363-18.094-.814a11.683,11.683,0,0,0-3.81,7.351c-.272,6.582-14.782.463-22.313,4.23s-44.424,50.97-50.89,50.664-11.569-3.281-14.273,1.3a2.815,2.815,0,0,1-.19.306,7.657,7.657,0,0,1-4.1,2.432Z" transform="translate(74.294 25.859)" opacity="0.1"/>
    <path id="Path_736" data-name="Path 736" d="M783.87,766.6l17.451,55.708,2.738,8.754,8.312-2.261,18.32-5.033L912.3,801.357a71.1,71.1,0,0,0,29.394-7.839,88.953,88.953,0,0,1,50.71-11.06c10.789,1.006,22.782-3.641,32.8-22.022,0,0,22.618-66.723-34.47-85.947s-59.8,10.178-59.8,10.178-.294.158-.769.475c-2.261,1.414-8.425,5.859-8.651,11.309-.271,6.582-14.781.452-22.313,4.218s-44.424,50.981-50.89,50.676-11.569-3.279-14.273,1.3c0,.1-.125.19-.19.294-1.99,2.749-7.985,3.393-11.96,3.5-2.16.068-3.732,0-3.732,0l-.509.158-4.23,1.177Z" transform="translate(68.995 23.699)" fill="#31446c"/>
    <path id="Path_737" data-name="Path 737" d="M787.86,663.561l8.414,1.329,3.506-34.7s-3.856-.569-8.674-1.7C792.384,633.311,789.489,652.045,787.86,663.561Z" transform="translate(69.518 18.527)" opacity="0.1"/>
    <path id="Path_738" data-name="Path 738" d="M1007.883,516.093s25.039-7.271,18.84,63.817-52.5,116-52.5,116-53.311,23.421-77.268,19.655a410.719,410.719,0,0,0-41.47-4.518,60.832,60.832,0,0,0-24.236-6.455c-13.47-.543-41.73-8.889-42.273-11.581s7-42.273,3.767-45.237c0,0,37.692,1.549,41.47,4.275s9.149.769,13.187,0,16.431-11.546,40.927-2.115c0,0,8.353.8,11.581-1.346s8.414-.543,8.414-.543,5.078-1.889,5.859-3.021,7.26,0,7.26,0a2.872,2.872,0,0,0,4.049-1.889,17.6,17.6,0,0,1,3.767-5.914s7.271-40.927,21-56.275c0,0,4.038-3.506,2.964-7.814S975.607,507.47,1007.883,516.093Z" transform="translate(69.658 3.707)" opacity="0.1"/>
    <path id="Path_739" data-name="Path 739" d="M1007.343,511.256s25.039-7.271,18.852,63.817-52.563,116.036-52.563,116.036-53.311,23.421-77.267,19.655-41.459-4.581-41.459-4.581a60.75,60.75,0,0,0-24.236-6.455c-13.458-.543-41.73-8.889-42.273-11.581s7-42.273,3.778-45.237c0,0,37.692,1.549,41.459,4.275s9.16.769,13.2,0,16.42-11.535,40.927-2.115c0,0,8.353.8,11.569-1.346s8.425-.543,8.425-.543,5.044-1.889,5.847-2.963,7.271,0,7.271,0a2.861,2.861,0,0,0,4.038-1.878,17.567,17.567,0,0,1,3.766-5.925s7.271-40.927,21-56.272c0,0,4.038-3.506,2.963-7.8S974.978,502.639,1007.343,511.256Z" transform="translate(69.587 3.076)" fill="#31446c"/>
    <path id="Path_740" data-name="Path 740" d="M810,747.522,845.556,790.5c.135-.123.226-.214.226-.249.271-.815,3.767-9.963,2.963-10.506s-7-14-19.383-19.655a36.452,36.452,0,0,1-15.222-13.859Z" transform="translate(72.415 33.938)" opacity="0.1"/>
    <path id="Path_741" data-name="Path 741" d="M810.517,818.711l3.89,2.261s9.048-7.237,17.992-14.521,17.677-14.428,17.823-14.825c.26-.8,3.755-9.963,2.952-10.495-.418-.283-2.261-4.015-5.654-8.334-24.11-6.785-8.765,9.986-6.717,10.755,0,0-29.4-6.785-30.964,25.231a37.732,37.732,0,0,0,.678,9.929Z" transform="translate(72.385 37.207)" opacity="0.1"/>
    <path id="Path_742" data-name="Path 742" d="M839.955,832.259l5.126,2.964,52.018,1.346s11.15,6.785,18.388,8.843a15.764,15.764,0,0,0,2.612.569,116.818,116.818,0,0,0,14.476.271c3.987-.1,7.068-.271,7.068-.271s-2.468-65.592-4.321-72.377c-.883-3.3-5.236-2.578-9.534-.928a62.407,62.407,0,0,0-9.3,4.716s-22.075,2.138-25.58,4.038-13.458-1.139-19.655,0-17.223-7.294-17.223-7.294c-30.161-9.952-13.2,8.617-11.049,9.432,0,0-29.335-6.785-30.945,25.23S839.955,832.259,839.955,832.259Z" transform="translate(72.68 37.208)" fill="#565387"/>
    <path id="Path_743" data-name="Path 743" d="M903.153,806.938c.569,13.57,11.138,30.41,17.437,39.31,3.987-.1,7.068-.271,7.068-.271s-2.468-65.592-4.321-72.377c-.883-3.3-5.236-2.578-9.534-.926C908.638,782.4,902.7,796,903.153,806.938Z" transform="translate(84.606 37.221)" fill="#565387"/>
    <path id="Path_744" data-name="Path 744" d="M903.153,806.938c.569,13.57,11.138,30.41,17.437,39.31,3.987-.1,7.068-.271,7.068-.271s-2.468-65.592-4.321-72.377c-.883-3.3-5.236-2.578-9.534-.926C908.638,782.4,902.7,796,903.153,806.938Z" transform="translate(84.606 37.221)" opacity="0.1"/>
    <path id="Path_745" data-name="Path 745" d="M895.391,808.739c3.573,13.1,3.541,27.786,9.24,36.663a15.732,15.732,0,0,0,2.612.569,116.764,116.764,0,0,0,14.476.271c3.987-.1,7.068-.271,7.068-.271s-2.468-65.592-4.321-72.377c-.883-3.3-5.236-2.578-9.534-.926a62.437,62.437,0,0,0-9.3,4.716S890.822,791.979,895.391,808.739Z" transform="translate(83.479 37.217)" opacity="0.05"/>
    <path id="Path_746" data-name="Path 746" d="M736.77,686.94s25.808,8.38,47.678,38.146Z" transform="translate(62.83 26.18)" opacity="0.1"/>
    <g id="Group_35" data-name="Group 35" transform="translate(862.692 371.545)" opacity="0.1">
      <path id="Path_747" data-name="Path 747" d="M922.352,401.26a5.29,5.29,0,0,1-.158.569,18.258,18.258,0,0,1-.894,2.261A16.861,16.861,0,0,1,922.352,401.26Z" transform="translate(-775.707 -382.758)"/>
      <path id="Path_748" data-name="Path 748" d="M793.182,390.339a24.265,24.265,0,0,1,2-5.439c-.135.463-.283.926-.395,1.4-1.369,5.859-.226,12,1.2,17.857.735,3.019,1.729,6.288,4.342,7.974,4.015,2.567,10.178.328,13.479,3.8,2.088,2.206,2.195,6.119,4.908,7.476a5.553,5.553,0,0,0,3.212.38c7.148-1.018,11.309-9.048,18.174-11.309a18.261,18.261,0,0,1,12.044,1.04,8.82,8.82,0,0,1,3.987,2.555c2.261,2.975.689,7.362,1.752,10.958,1.481,5,7.453,6.988,12.621,7.634s10.992,1.018,14.442,4.936a13.1,13.1,0,0,1,2.567,10.415,8.392,8.392,0,0,0,0,3.856c1.426,4.038,8.414,3.393,10.178.249,1.329-2.318.938-4.241,4.082-4.885a13.387,13.387,0,0,1,6.582,1.139,48.381,48.381,0,0,0,17.393,2.612,23.056,23.056,0,0,0,13.65-4.139,15.834,15.834,0,0,0,4.177-5.09,17.121,17.121,0,0,1-5.768,9.137,23.112,23.112,0,0,1-13.65,4.138,48.274,48.274,0,0,1-17.382-2.612,13.544,13.544,0,0,0-6.594-1.139c-3.144.646-2.749,2.567-4.07,4.885-1.832,3.189-8.809,3.8-10.252-.249a8.392,8.392,0,0,1,0-3.856,13.068,13.068,0,0,0-2.556-10.415c-3.461-3.9-9.285-4.275-14.453-4.919s-11.138-2.635-12.61-7.634c-1.074-3.607.543-8-1.752-10.969a8.911,8.911,0,0,0-3.987-2.555,18.549,18.549,0,0,0-12.044-1.04c-6.876,2.261-11.026,10.314-18.174,11.309a5.551,5.551,0,0,1-3.212-.38c-2.715-1.357-2.827-5.27-4.908-7.465-3.269-3.461-9.466-1.232-13.469-3.8-2.624-1.686-3.619-4.953-4.353-7.974C792.945,402.339,791.8,396.2,793.182,390.339Z" transform="translate(-792.558 -384.9)"/>
    </g>
    <path id="Path_749" data-name="Path 749" d="M928.423,581.754c-4.936,6.662-10.563,12.824-14.928,19.869s-7.453,15.267-6.536,23.5c4.524-4.636,6.582-11.038,9.432-16.851,4.818-9.838,12.032-18.185,18.094-27.232,1.139-1.729,8.606-11.7,4.841-12.181C936.229,568.467,930.108,579.482,928.423,581.754Z" transform="translate(85.085 10.722)" opacity="0.1"/>
  </g>
</svg>
