<svg xmlns="http://www.w3.org/2000/svg" width="1248.663" height="801.897" viewBox="0 0 1248.663 801.897">
  <g id="sup7" transform="translate(-996.543 -4324.646)">
    <path id="Path_578" data-name="Path 578" d="M1345.586,747.976H267.167a36.159,36.159,0,0,1-36.159-36.159h0q586.389-68.149,1150.736,0h0A36.159,36.159,0,0,1,1345.586,747.976Z" transform="translate(840.404 4378.568)" fill="#ccc"/>
    <path id="Path_579" data-name="Path 579" d="M1381.74,941.759,231.008,939.632l133.366-224.4.639-1.063V219.6a45.708,45.708,0,0,1,45.717-45.71H1195.65a45.708,45.708,0,0,1,45.71,45.717v497.96Z" transform="translate(840.404 4150.754)" fill="#e6e6e6"/>
    <path id="Path_580" data-name="Path 580" d="M358.684,195.864a14.906,14.906,0,0,0-14.89,14.89V661.689a14.907,14.907,0,0,0,14.89,14.89h793.393a14.907,14.907,0,0,0,14.889-14.89V210.754a14.906,14.906,0,0,0-14.89-14.89Z" transform="translate(891.399 4160.686)" fill="#fff"/>
    <path id="Path_581" data-name="Path 581" d="M372.418,567.913a6.4,6.4,0,0,0-5.8,3.714l-41.088,89.336a6.388,6.388,0,0,0,5.8,9.048h864.183a6.388,6.388,0,0,0,5.706-9.235L1156.55,571.44a6.348,6.348,0,0,0-5.706-3.527Z" transform="translate(882.883 4328.91)" fill="#ccc"/>
    <circle id="Ellipse_44" data-name="Ellipse 44" cx="9.571" cy="9.571" r="9.571" transform="translate(1634.018 4329.964)" fill="#fff"/>
    <path id="Path_582" data-name="Path 582" d="M571.73,649.94a6.388,6.388,0,0,0-6.162,4.722L555.26,692.948a6.388,6.388,0,0,0,6.161,8.042H757.459a6.388,6.388,0,0,0,6.029-8.468l-13.252-38.286a6.388,6.388,0,0,0-6.03-4.294Z" transform="translate(986.916 4365.997)" fill="#ccc"/>
    <path id="Path_583" data-name="Path 583" d="M1039.154,366.923v8.509H162.169l.659-1.065v-7.446Z" transform="translate(1042.608 4490.548)" fill="#ccc"/>
    <path id="Path_584" data-name="Path 584" d="M853.492,554.238a1.554,1.554,0,0,0-1.5,1.15l-2.51,9.323a1.554,1.554,0,0,0,1.5,1.958H898.72a1.554,1.554,0,0,0,1.468-2.063l-3.227-9.323a1.554,1.554,0,0,0-1.469-1.046Z" transform="translate(1120.023 4322.725)" fill="#ccc"/>
    <path id="Path_585" data-name="Path 585" d="M805.492,554.238a1.554,1.554,0,0,0-1.5,1.15l-2.51,9.323a1.554,1.554,0,0,0,1.5,1.958H850.72a1.554,1.554,0,0,0,1.468-2.063l-3.227-9.323a1.554,1.554,0,0,0-1.469-1.046Z" transform="translate(1098.32 4322.725)" fill="#ccc"/>
    <path id="Path_586" data-name="Path 586" d="M697,750.748h3.741l-7.482-500.1h-3.741l.148,9.977H605.812l.149-9.977h-3.741l-7.482,500.1h3.734l.485-32.425H696.51ZM691.61,390.323H603.873l.915-61.114H690.7Zm.055,3.741.915,61.114H602.9l.915-61.114Zm.97,64.852.915,61.114H601.924l.915-61.114Zm.97,64.852.915,61.114h-93.56l.915-61.114Zm.97,64.852.915,61.114h-95.5l.915-61.114Zm-4.851-324.257.915,61.114h-85.8l.915-61.114ZM599.02,714.58l.915-61.114h95.613l.915,61.114Z" transform="translate(1004.863 4185.456)" fill="#3f3d56"/>
    <circle id="Ellipse_45" data-name="Ellipse 45" cx="61.009" cy="61.009" r="61.009" transform="translate(1573.062 4486.338)" fill="#2f2e41"/>
    <rect id="Rectangle_1623" data-name="Rectangle 1623" width="18.535" height="33.207" transform="translate(1651.72 4592.812) rotate(-10.261)" fill="#2f2e41"/>
    <rect id="Rectangle_1624" data-name="Rectangle 1624" width="18.535" height="33.207" transform="translate(1615.245 4599.417) rotate(-10.261)" fill="#2f2e41"/>
    <ellipse id="Ellipse_46" data-name="Ellipse 46" cx="15.444" cy="5.792" rx="15.444" ry="5.792" transform="matrix(0.763, -0.646, 0.646, 0.763, 1611.569, 4640.104)" fill="#2f2e41"/>
    <ellipse id="Ellipse_47" data-name="Ellipse 47" cx="15.446" cy="5.792" rx="15.446" ry="5.792" transform="matrix(0.763, -0.646, 0.646, 0.763, 1647.285, 4633.641)" fill="#2f2e41"/>
    <circle id="Ellipse_48" data-name="Ellipse 48" cx="20.851" cy="20.851" r="20.851" transform="translate(1608.949 4511.569)" fill="#fff"/>
    <circle id="Ellipse_49" data-name="Ellipse 49" cx="6.95" cy="6.95" r="6.95" transform="translate(1614.28 4517.997)" fill="#3f3d56"/>
    <path id="Path_587" data-name="Path 587" d="M679.737,294.863c.917-22.586-18.548-41.717-43.479-42.73s-45.884,16.477-46.8,39.063,16.413,27.717,41.342,28.731S678.811,317.449,679.737,294.863Z" transform="translate(1002.461 4186.108)" fill="#6c63ff"/>
    <ellipse id="Ellipse_50" data-name="Ellipse 50" cx="9.576" cy="30.504" rx="9.576" ry="30.504" transform="translate(1545.863 4538.746) rotate(-77.117)" fill="#2f2e41"/>
    <ellipse id="Ellipse_51" data-name="Ellipse 51" cx="9.576" cy="30.504" rx="9.576" ry="30.504" transform="translate(1665.619 4558.664) rotate(-77.117)" fill="#2f2e41"/>
    <path id="Path_588" data-name="Path 588" d="M638.592,346.064a13.9,13.9,0,1,1-27.352,4.979v-.028c-1.367-7.555,4.473-10.227,12.028-11.594S637.221,338.509,638.592,346.064Z" transform="translate(1012.237 4225.323)" fill="#fff"/>
    <ellipse id="Ellipse_52" data-name="Ellipse 52" cx="31.27" cy="9.816" rx="31.27" ry="9.816" transform="translate(1397.933 4776.752) rotate(-69.082)" fill="#2f2e41"/>
    <circle id="Ellipse_53" data-name="Ellipse 53" cx="62.54" cy="62.54" r="62.54" transform="translate(1288.713 4849.982) rotate(-80.783)" fill="#2f2e41"/>
    <rect id="Rectangle_1625" data-name="Rectangle 1625" width="18.999" height="34.041" transform="translate(1331.964 4847.353)" fill="#2f2e41"/>
    <rect id="Rectangle_1626" data-name="Rectangle 1626" width="18.999" height="34.041" transform="translate(1369.964 4847.353)" fill="#2f2e41"/>
    <ellipse id="Ellipse_54" data-name="Ellipse 54" cx="15.833" cy="5.937" rx="15.833" ry="5.937" transform="translate(1331.963 4875.856)" fill="#2f2e41"/>
    <ellipse id="Ellipse_55" data-name="Ellipse 55" cx="15.833" cy="5.937" rx="15.833" ry="5.937" transform="translate(1369.964 4875.063)" fill="#2f2e41"/>
    <path id="Path_589" data-name="Path 589" d="M388.57,476.273c-5.05-22.616,11.092-45.468,36.056-51.041s49.292,8.242,54.342,30.856-11.494,30.956-36.456,36.531S393.62,498.889,388.57,476.273Z" transform="translate(911.228 4263.837)" fill="#6c63ff"/>
    <ellipse id="Ellipse_56" data-name="Ellipse 56" cx="9.816" cy="31.27" rx="9.816" ry="31.27" transform="translate(1257.564 4764.723) rotate(-64.626)" fill="#2f2e41"/>
    <circle id="Ellipse_57" data-name="Ellipse 57" cx="62.54" cy="62.54" r="62.54" transform="translate(1027.128 4799.057)" fill="#2f2e41"/>
    <rect id="Rectangle_1627" data-name="Rectangle 1627" width="18.999" height="34.041" transform="translate(1061.169 4910.681)" fill="#2f2e41"/>
    <rect id="Rectangle_1628" data-name="Rectangle 1628" width="18.999" height="34.041" transform="translate(1099.169 4910.681)" fill="#2f2e41"/>
    <ellipse id="Ellipse_58" data-name="Ellipse 58" cx="15.833" cy="5.937" rx="15.833" ry="5.937" transform="translate(1061.169 4939.178)" fill="#2f2e41"/>
    <ellipse id="Ellipse_59" data-name="Ellipse 59" cx="15.833" cy="5.937" rx="15.833" ry="5.937" transform="translate(1099.169 4938.385)" fill="#2f2e41"/>
    <circle id="Ellipse_60" data-name="Ellipse 60" cx="21.374" cy="21.374" r="21.374" transform="translate(1069.877 4824.39)" fill="#fff"/>
    <circle id="Ellipse_61" data-name="Ellipse 61" cx="7.125" cy="7.125" r="7.125" transform="translate(1084.126 4838.64)" fill="#3f3d56"/>
    <path id="Path_590" data-name="Path 590" d="M202.089,519.88c-5.05-22.616,11.092-45.468,36.056-51.041s49.292,8.242,54.342,30.856-11.494,30.956-36.456,36.531S207.144,542.5,202.089,519.88Z" transform="translate(826.908 4283.555)" fill="#e6e6e6"/>
    <ellipse id="Ellipse_62" data-name="Ellipse 62" cx="31.27" cy="9.816" rx="31.27" ry="9.816" transform="translate(1105.763 4660.372) rotate(-69.082)" fill="#2f2e41"/>
    <circle id="Ellipse_63" data-name="Ellipse 63" cx="62.54" cy="62.54" r="62.54" transform="translate(996.543 4733.606) rotate(-80.783)" fill="#2f2e41"/>
    <rect id="Rectangle_1629" data-name="Rectangle 1629" width="18.999" height="34.041" transform="translate(1039.794 4730.973)" fill="#2f2e41"/>
    <rect id="Rectangle_1630" data-name="Rectangle 1630" width="18.999" height="34.041" transform="translate(1077.794 4730.973)" fill="#2f2e41"/>
    <ellipse id="Ellipse_64" data-name="Ellipse 64" cx="15.833" cy="5.937" rx="15.833" ry="5.937" transform="translate(1039.794 4759.476)" fill="#2f2e41"/>
    <ellipse id="Ellipse_65" data-name="Ellipse 65" cx="15.833" cy="5.937" rx="15.833" ry="5.937" transform="translate(1077.794 4758.684)" fill="#2f2e41"/>
    <circle id="Ellipse_66" data-name="Ellipse 66" cx="21.374" cy="21.374" r="21.374" transform="translate(1048.502 4644.686)" fill="#fff"/>
    <circle id="Ellipse_67" data-name="Ellipse 67" cx="7.125" cy="7.125" r="7.125" transform="translate(1062.752 4658.936)" fill="#3f3d56"/>
    <path id="Path_591" data-name="Path 591" d="M187.373,396.13c-5.05-22.616,11.092-45.468,36.056-51.041s49.292,8.242,54.342,30.856-11.494,30.956-36.456,36.531S192.423,418.746,187.373,396.13Z" transform="translate(820.255 4227.601)" fill="#6c63ff"/>
    <path id="Path_592" data-name="Path 592" d="M207.707,437.8c0,6.122,15.76,18.208,33.249,18.208s33.886-17.233,33.886-23.353-16.4,1.188-33.886,1.188S207.707,431.683,207.707,437.8Z" transform="translate(829.867 4266.65)" fill="#fff"/>
    <path id="Path_593" data-name="Path 593" d="M272.56,255.461a4.361,4.361,0,0,0-4.356,4.356V439.88a4.361,4.361,0,0,0,4.356,4.356H689.329a4.361,4.361,0,0,0,4.356-4.356V259.817a4.361,4.361,0,0,0-4.356-4.356Z" transform="translate(857.221 4187.632)" fill="#44bba4"/>
    <circle id="Ellipse_68" data-name="Ellipse 68" cx="42.288" cy="42.288" r="42.288" transform="translate(1200.026 4495.199)" fill="#fff"/>
    <path id="Path_594" data-name="Path 594" d="M415.962,316.587a4.944,4.944,0,0,0,0,9.889H549.482a4.945,4.945,0,1,0,.162-9.889Z" transform="translate(921.796 4215.272)" fill="#fff"/>
    <path id="Path_595" data-name="Path 595" d="M415.962,296.86a4.944,4.944,0,0,0,0,9.889h66.67a4.945,4.945,0,1,0,.162-9.889Z" transform="translate(921.796 4206.352)" fill="#fff"/>
    <path id="Path_596" data-name="Path 596" d="M415.962,337.253a4.944,4.944,0,1,0,0,9.889H549.482a4.945,4.945,0,1,0,.162-9.889Z" transform="translate(921.796 4224.617)" fill="#fff"/>
    <ellipse id="Ellipse_69" data-name="Ellipse 69" cx="9.816" cy="31.27" rx="9.816" ry="31.27" transform="translate(1954.711 4840.022) rotate(-20.918)" fill="#2f2e41"/>
    <circle id="Ellipse_70" data-name="Ellipse 70" cx="62.54" cy="62.54" r="62.54" transform="translate(1948.037 4874.317) rotate(-9.217)" fill="#2f2e41"/>
    <path id="Path_597" data-name="Path 597" d="M748.947,447.932h-18.99l3.717,40.765,15.315-4.161Z" transform="translate(1299.336 4527.178)" fill="#2f2e41"/>
    <path id="Path_598" data-name="Path 598" d="M720.429,448.005h-19l3.717,40.765,14.623-4.266Z" transform="translate(1286.437 4527.211)" fill="#2f2e41"/>
    <ellipse id="Ellipse_71" data-name="Ellipse 71" cx="15.833" cy="5.937" rx="15.833" ry="5.937" transform="translate(1974.389 5007.21) rotate(-4.182)" fill="#2f2e41"/>
    <circle id="Ellipse_72" data-name="Ellipse 72" cx="21.374" cy="21.374" r="21.374" transform="translate(1996.828 4888.819)" fill="#fff"/>
    <circle id="Ellipse_73" data-name="Ellipse 73" cx="7.125" cy="7.125" r="7.125" transform="translate(2011.078 4903.068)" fill="#3f3d56"/>
    <ellipse id="Ellipse_74" data-name="Ellipse 74" cx="31.27" cy="9.816" rx="31.27" ry="9.816" transform="translate(2059.388 4901.812) rotate(-53.55)" fill="#2f2e41"/>
    <path id="Path_599" data-name="Path 599" d="M863.077,614.9c0-5.044,12.989-15.006,27.4-15.006s27.928,14.2,27.928,19.248-13.514-.979-27.928-.979S863.077,619.949,863.077,614.9Z" transform="translate(1126.195 4343.369)" fill="#fff"/>
    <path id="Path_600" data-name="Path 600" d="M1114.185,659.947,771.84,612.489a10.186,10.186,0,0,1-8.673-11.465l38.485-277.6a10.186,10.186,0,0,1,11.465-8.673L1155.461,362.2a10.186,10.186,0,0,1,8.673,11.465l-38.488,277.6a10.186,10.186,0,0,1-11.458,8.672Z" transform="translate(1080.977 4214.399)" fill="#44bba4"/>
    <path id="Path_601" data-name="Path 601" d="M975.022,542.089,800.249,517.861a3.578,3.578,0,0,1-.646-.142L902.111,386a5.844,5.844,0,0,1,10.075,1.4l42.155,103.774,2.02,4.967Z" transform="translate(1097.495 4245.616)" fill="#fff"/>
    <path id="Path_602" data-name="Path 602" d="M778.3,334.731,718.63,326.46l35.191-38.488,2.534-2.773,1.265-1.381,2.02,4.967Z" transform="translate(1294.214 4452.975)" opacity="0.2"/>
    <path id="Path_603" data-name="Path 603" d="M1034.483,537.722,883.318,516.774l35.187-38.5,2.533-2.773L966.9,425.346a7.8,7.8,0,0,1,11.567.9,7.039,7.039,0,0,1,.454.761Z" transform="translate(1135.347 4263.474)" fill="#fff"/>
    <circle id="Ellipse_75" data-name="Ellipse 75" cx="26.139" cy="26.139" r="26.139" transform="translate(2048.503 4624.054)" fill="#fff"/>
    <rect id="Rectangle_1631" data-name="Rectangle 1631" width="31.947" height="31.947" transform="translate(1899.934 4550.48) rotate(7.893)" fill="#3f3d56"/>
    <path id="Path_604" data-name="Path 604" d="M954.3,564.25c5.05-22.616-11.092-45.468-36.056-51.041s-49.292,8.242-54.342,30.856,11.494,30.956,36.456,36.531S949.246,586.865,954.3,564.25Z" transform="translate(1126.156 4303.614)" fill="#f2f2f2"/>
    <ellipse id="Ellipse_76" data-name="Ellipse 76" cx="15.833" cy="5.937" rx="15.833" ry="5.937" transform="translate(2016.055 5007.108) rotate(-4.182)" fill="#2f2e41"/>
  </g>
</svg>
