<svg xmlns="http://www.w3.org/2000/svg" xmlns:xlink="http://www.w3.org/1999/xlink" width="1526.778" height="729.233" viewBox="0 0 1526.778 729.233">
  <defs>
    <linearGradient id="linear-gradient" y1="0.5" x2="1" y2="0.5" gradientUnits="objectBoundingBox">
      <stop offset="0" stop-color="gray" stop-opacity="0.251"/>
      <stop offset="0.54" stop-color="gray" stop-opacity="0.122"/>
      <stop offset="1" stop-color="gray" stop-opacity="0.102"/>
    </linearGradient>
    <linearGradient id="linear-gradient-2" x1="-8.171" y1="1" x2="-8.171" y2="0" xlink:href="#linear-gradient"/>
  </defs>
  <g id="sup5" transform="translate(-0.006 0.03)">
    <path id="Path_321" data-name="Path 321" d="M1533.1,765.113a109.685,109.685,0,0,1-30.167,36.2q-2.675,2.146-5.456,4.158-3.738,2.628-7.66,5.155c-20.316,12.893-44.117,21.706-67.336,28.134q-9.5,2.628-19.057,4.932-8.072,1.954-16.145,3.646c-2.046.447-4.093.865-6.139,1.314s-4.393.879-6.557,1.314l-3.109.589c-60.1,11.076-120.979,13.194-182.308,10.414l-2.912-.145-4.656-.236q-18.676-.971-37.393-2.478l-4.722-.375-2.086-.171q-10.492-.879-20.985-1.928-13.825-1.314-27.687-2.9l-1.194-.131-.971-.118h0c-32.987-3.711-66.05-8.17-99.155-12.749l-4.682-.655-8.407-1.168-7.083-.984h0l-2.1-.289q-16.761-2.348-33.523-4.643l-1.81-.25c-20.985-2.872-42.088-5.632-63.125-8.159l-2.741-.328h0q-12.92-1.534-25.825-2.925l-6.557-.695-8.722-.879c-24.173-2.4-48.332-4.318-72.439-5.508q-17.392-.865-34.862-1.314-14.427-.328-28.855-.375-19.569-.092-39.216.223H644.5c-18.454.3-36.948.826-55.453,1.455l-3.332.105h-1.1c-39.347,1.391-78.694,3.24-117.936,4.564l-9.588.315h-1.391q-20.463.655-40.883,1.01h-8.106l-6.086.079q-9.482.092-18.925.105h-7.721c-23.11-.066-46.128-.576-69-1.77l-2.544-.145a873.328,873.328,0,0,1-131.563-16.368q-6.7-1.4-13.378-2.938a614.317,614.317,0,0,1-87.613-26.638c-13.43-5.247-26.94-11.305-37.156-21.563C6.8,723.755,16.528,672.373,50.249,657.442c26.377-11.686,57.276-2.178,85.646-7.449a43.758,43.758,0,0,0,5.155-1.314,71.641,71.641,0,0,0,10.492-4.327c1.155-.576,2.309-1.194,3.475-1.836a88.518,88.518,0,0,0,7.765-4.748,119.18,119.18,0,0,0,11.8-8.959q2.491-2.125,4.853-4.406a92.812,92.812,0,0,0,14.322-17.142,60.587,60.587,0,0,0,3.942-7.4,39.057,39.057,0,0,0,1.626-4.093,38.112,38.112,0,0,0,1.56-6.06c1.652-9.732-1.023-19.228-10.335-27.255a27.445,27.445,0,0,0-2.628-1.981,40.08,40.08,0,0,0-5.692-3.293c-.8-.375-1.626-.751-2.465-1.1-11.989-5.05-27.45-6.991-40.488-10.492h0a71.485,71.485,0,0,1-11.594-4.027c-2.375-1.1-4.735-2.253-7.057-3.462h0l-.616-.342h0a157.9,157.9,0,0,1-51.154-41.968,136.737,136.737,0,0,1-9.529-13.825c-.879-1.442-1.731-2.925-2.544-4.406-23.044-41.577-25.419-94.852-1.442-135.731a128.454,128.454,0,0,1,9.706-14.243q1.731-2.243,3.58-4.406c22.821-26.927,55.61-45.171,88.715-58.68,44.436-18.126,90.957-29.575,138.371-37.117q14.427-2.3,28.855-4.119c40.265-5.142,81-7.87,121.452-9.95q56.752-2.872,114-3.712,19.4-.263,38.836-.223,43.793,0,87.587,1.69,14.427.55,28.855,1.314,37,1.915,73.854,5.247,17.707,1.6,35.333,3.527c89.5,9.785,177.7,26.376,262.866,52.175q14.493,4.38,28.855,9.18a1114.361,1114.361,0,0,1,105.437,40.751q4.881,2.191,9.732,4.406,32.252,14.8,63.585,31.885a707.14,707.14,0,0,1,79.481,49.84q14.847,10.888,28.854,22.716a415.011,415.011,0,0,1,46.049,45.432q1.889,2.191,3.738,4.406,9.6,11.529,18.231,23.883c28.068,40.344,46.9,86.485,60.8,133.623C1544.391,680.592,1552.548,726.772,1533.1,765.113Z" transform="translate(-17.96 -160.387)" fill="#44bba4" opacity="0.1"/>
    <path id="Path_322" data-name="Path 322" d="M1506.247,624.422H1394.2V481.895h49.839q-1.849-2.217-3.738-4.406h-46.049V432.057q-13.982-11.8-28.854-22.716v68.2H1107.075V327.6h115.176q-4.866-2.217-9.732-4.406H1107.083V282.443q-14.427-4.761-28.854-9.18V323.1H709.571l-.879-.839L815.336,221.036q-17.628-1.941-35.333-3.527L706.149,287.6V212.318q-14.427-.76-28.855-1.314v81.435L589.707,209.31q-19.425,0-38.836.223l118.775,112.73-.879.839H315.392V223.33q-14.427,1.823-28.855,4.119v95.744H59.427q-1.849,2.165-3.58,4.406H286.511V477.485H47.53c.813,1.481,1.665,2.964,2.544,4.406H286.511V624.42h-116.3q-2.362,2.283-4.853,4.406h121.15V774.672q14.427,2.065,28.855,4.3V628.826h361.9V811.567q14.427,0,28.855.375V628.83H1078.21V852.544l1.194.131q13.851,1.547,27.687,2.9V628.83h258.227V849.908c2.2-.407,4.406-.839,6.557-1.314s4.093-.826,6.139-1.314q8.073-1.718,16.145-3.646V628.83h112.953Zm-828.979,0H315.392V481.895H677.268Zm0-146.9H315.392V327.6H672.139l5.089,4.014Zm400.934,146.9H706.149V481.895H1078.2Zm0-146.9H706.149V327.6H1078.2Zm287.115,146.9H1107.083V481.895h258.235Z" transform="translate(-8.749 -160.405)" fill="#44bba4" opacity="0.1"/>
    <path id="Path_323" data-name="Path 323" d="M315.185,679.24a1.867,1.867,0,0,1-.145.434h0a1.16,1.16,0,0,1,.158-.434Z" transform="translate(74.599 -13.989)" fill="#eaecf0"/>
    <path id="Path_324" data-name="Path 324" d="M324.938,688.143h-8.106l-6.086.079-.668-6.912-.616-6.558L306.6,644.835l-.092-.918v-.407l-.8-8.42,12.25-4.59,1.5,12.2.105.9v.105l3.03,24.781.939,7.607.537,4.419.46,3.79v.131Z" transform="translate(71.693 -29.175)" fill="#eaecf0"/>
    <path id="Path_325" data-name="Path 325" d="M336.171,507.2l.145.434h-.971l-.145-.434Z" transform="translate(104.436 158.038)" fill="#3a3768"/>
    <path id="Path_326" data-name="Path 326" d="M439.4,679.55Z" transform="translate(113.347 -13.891)" fill="#3a3768"/>
    <path id="Path_327" data-name="Path 327" d="M555.178,550.991v.563s-11.437,31.254-15.161,57.933q-.375,2.628-.629,5.245c-.188,1.849-.328,3.659-.407,5.416q-.158,3.1-.079,5.955v1.314c0,.879.092,1.784.145,2.715s.131,1.862.21,2.833.158,1.823.25,2.754c2.816,28.855,13.536,71.1,13.536,71.1s.355,1.141.813,3.083H550.89c-18.454.3-36.948.826-55.453,1.455l-3.332.105H491c-39.347,1.391-78.694,3.24-117.936,4.564l-9.587.315h-1.387q-20.463.655-40.881,1.01H317.6a22.091,22.091,0,0,1,3.175-3.58,23.093,23.093,0,0,1,3.208-2.493,72.318,72.318,0,0,1,20.132-8.636,16.057,16.057,0,0,1,4.6-.563l9.18.188h1.417l14.08.276,120.821,2.4h.3l.852-.171a22.6,22.6,0,0,0,4.08-1.442,14.323,14.323,0,0,0,8.6-11.121c0-.407.105-.839.131-1.314a15.443,15.443,0,0,0,0-1.915,6.513,6.513,0,0,0-.105-1.4c-.105-.484-.131-.971-.223-1.468-2.912-16.276-7.87-66.379-7.87-66.379v.158s0-2.138.118-5.731V612.5c0-.8.092-1.665.145-2.628,0-.563.079-1.141.118-1.744.066-.879.145-1.784.223-2.728a.769.769,0,0,1,0-.171q.079-.892.158-1.81v-.188c1.954-19.336,8.106-49.971,27.542-61.316,9.116-5.337,15.148-6.413,19.122-5.364,5.8,1.521,7.252,7.554,7.568,11.476v.76a19.153,19.153,0,0,1,.188,2.217Z" transform="translate(75.398 -58.552)" fill="#3a3768"/>
    <path id="Path_328" data-name="Path 328" d="M315.185,679.24a1.867,1.867,0,0,1-.145.434h0a1.16,1.16,0,0,1,.158-.434Z" transform="translate(74.599 -13.989)" opacity="0.1"/>
    <path id="Path_329" data-name="Path 329" d="M336.171,507.2l.145.434h-.971l-.145-.434Z" transform="translate(104.436 158.038)" opacity="0.1"/>
    <path id="Path_330" data-name="Path 330" d="M439.4,679.55Z" transform="translate(113.347 -13.891)" opacity="0.1"/>
    <path id="Path_331" data-name="Path 331" d="M555.2,551.107v.407A356.956,356.956,0,0,0,541.27,602h0q-.471,2.628-.865,5.069c-.131.839-.25,1.678-.376,2.518q-.375,2.628-.629,5.247c-.188,1.849-.328,3.659-.407,5.416q-.158,3.1-.079,5.955v1.314c0,.879.092,1.784.145,2.715s.131,1.877.21,2.833.158,1.823.25,2.754.188,1.823.289,2.741c.42,3.711.939,7.607,1.547,11.568,4.106,26.716,11.7,56.647,11.7,56.647s.375,1.207.839,3.227h-2.964c-18.454.3-36.948.826-55.453,1.457l-3.332.105h-1.1c-39.347,1.391-78.694,3.24-117.936,4.564l-9.588.315h-1.391q-20.463.655-40.881,1.01H317.53a22.521,22.521,0,0,1,3.28-3.711,21.717,21.717,0,0,1,3.234-2.517,73.108,73.108,0,0,1,20.133-8.636,16.527,16.527,0,0,1,4.6-.55l9.18.188h1.417l14.125.276,120.913,2.388h.21a3.322,3.322,0,0,0,.939-.188,21.2,21.2,0,0,0,4.106-1.481,14.309,14.309,0,0,0,8.485-10.9c0-.407.105-.839.132-1.314a15.467,15.467,0,0,0,0-1.915,6.517,6.517,0,0,0-.105-1.4c-.105-.485-.131-1.063-.223-1.613-2.912-16.276-7.87-66.379-7.87-66.379s0-2.138.118-5.732v-1.652c0-.8.092-1.665.145-2.628,0-.563.079-1.141.118-1.744.066-.879.145-1.784.223-2.728a.769.769,0,0,1,0-.171q.079-.891.158-1.81v-.188c.237-2.414.55-5.011.939-7.725,2.728-18.991,9.548-43.794,26.546-53.774,8.88-5.247,14.821-6.347,18.807-5.444,6.139,1.4,7.594,7.725,7.87,11.713v.76a19.165,19.165,0,0,1,.188,2.533Z" transform="translate(75.376 -58.667)" opacity="0.1"/>
    <path id="Path_332" data-name="Path 332" d="M315.185,679.24a1.867,1.867,0,0,1-.145.434h0a1.16,1.16,0,0,1,.158-.434Z" transform="translate(74.599 -13.989)" fill="#3a3768"/>
    <path id="Path_333" data-name="Path 333" d="M336.171,507.2l.145.434h-.971l-.145-.434Z" transform="translate(104.436 158.038)" fill="#3a3768"/>
    <path id="Path_334" data-name="Path 334" d="M439.4,679.55Z" transform="translate(113.347 -13.891)" fill="#3a3768"/>
    <path id="Path_335" data-name="Path 335" d="M552.883,550.255s-17.116,46.77-16.29,74.759S550.784,705.6,550.784,705.6s.576,1.849,1.194,4.8c-18.454.3-36.948.826-55.453,1.455l-3.332.105h-1.1c-39.347,1.391-78.694,3.24-117.936,4.564l-9.587.315h-1.391q-20.463.655-40.881,1.01H314.19a23.612,23.612,0,0,1,7.2-7.568l.355-.25a73,73,0,0,1,20.119-8.459,16.5,16.5,0,0,1,4.6-.55l12.118.237H360l14.6.289,117.709,2.349a19.8,19.8,0,0,0,4.866-1.586,13.966,13.966,0,0,0,1.5-.8h0a15.732,15.732,0,0,0,3.943-3.214,14.858,14.858,0,0,0,3.03-13.115c-2.925-16.276-7.87-66.379-7.87-66.379s-.839-60.963,28.382-78.078c11.8-6.912,18.441-6.676,22.152-3.942a2.477,2.477,0,0,1,.315.236C553.736,541.139,552.883,550.255,552.883,550.255Z" transform="translate(74.336 -58.931)" fill="#3a3768"/>
    <path id="Path_336" data-name="Path 336" d="M141.05,635.22l-.473,4.892-2.859,30.022q-6.7-1.4-13.378-2.938l3.345-27.294,1.126-9.272Z" transform="translate(15.184 -29.135)" fill="#eaecf0"/>
    <path id="Path_337" data-name="Path 337" d="M55.12,490.814,126.549,338.79l287.72,22.442,26.519,129.583Z" transform="translate(17.171 105.567)" fill="#efc6cd"/>
    <path id="Path_338" data-name="Path 338" d="M55.12,467.96V454.7H440.788v19.385Z" transform="translate(17.171 141.682)" fill="#d48a9b"/>
    <path id="Path_339" data-name="Path 339" d="M156.68,627.474l172.551,3.514a2.388,2.388,0,0,0,2.322-3.135l-26.9-72.557-116.218-2.217-34.376,70.379a2.859,2.859,0,0,0,2.628,4.014Z" transform="translate(24.367 -53.298)" fill="#dfe6f5"/>
    <path id="Path_340" data-name="Path 340" d="M156.68,627.474l172.551,3.514a2.388,2.388,0,0,0,2.322-3.135l-26.9-72.557-116.218-2.217-34.376,70.379a2.859,2.859,0,0,0,2.628,4.014Z" transform="translate(24.367 -53.298)" opacity="0.15"/>
    <path id="Path_341" data-name="Path 341" d="M154.94,625.141l174.335,3.672-23.7-71.782a5.915,5.915,0,0,0-5.495-4.066L188.047,550.84Z" transform="translate(24.718 -53.995)" fill="#dfe6f5"/>
    <path id="Path_342" data-name="Path 342" d="M166.036,606.8l20.895-45.976A5.574,5.574,0,0,1,192,557.567h51.925a5.548,5.548,0,0,1,5.548,5.548v49.668a5.561,5.561,0,0,1-5.82,5.548l-72.84-3.711a5.548,5.548,0,0,1-4.774-7.83Z" transform="translate(28.02 -51.9)" fill="#4c4c56"/>
    <path id="Path_343" data-name="Path 343" d="M244,597.83l.892-26.232a4.027,4.027,0,0,1,4.014-3.942h15.345a4.014,4.014,0,0,1,3.942,3.33l4.505,26.1a4.027,4.027,0,0,1-3.942,4.708L248,601.977A4.014,4.014,0,0,1,244,597.83Z" transform="translate(52.466 -48.758)" fill="#d1d9ec"/>
    <path id="Path_344" data-name="Path 344" d="M90.481,461.734l57.854-4.827a3.942,3.942,0,0,1,4.119,2.322l54.705,123.825L176.626,651.6c.957-2.151,1.665,14.585-5.247.079L84.434,470.3C83.269,467.873,87.767,462.076,90.481,461.734Z" transform="translate(2.691 -83.272)" fill="#4c4c56"/>
    <path id="Path_345" data-name="Path 345" d="M90.481,461.734l57.854-4.827a3.942,3.942,0,0,1,4.119,2.322l54.705,123.825L176.626,651.6c.957-2.151,1.665,14.585-5.247.079L84.434,470.3C83.269,467.873,87.767,462.076,90.481,461.734Z" transform="translate(2.691 -83.272)" opacity="0.15"/>
    <path id="Path_346" data-name="Path 346" d="M89.84,462.432l60.792-7.765a3.943,3.943,0,0,1,4.119,2.322l54.719,123.825-33.1,74.3L86.723,468.059a3.942,3.942,0,0,1,3.109-5.632Z" transform="translate(3.34 -83.97)" fill="#4c4c56"/>
    <path id="Path_347" data-name="Path 347" d="M101.371,468.858l43.95-6.847a3.942,3.942,0,0,1,4.263,2.414l46.028,112.61a3.567,3.567,0,0,1-.079,2.885l-21.077,44.042a3.554,3.554,0,0,1-6.439,0L98.389,474.445a3.942,3.942,0,0,1,2.977-5.587Z" transform="translate(6.98 -81.684)" fill="#44bba4"/>
    <path id="Path_348" data-name="Path 348" d="M439.4,679.55Z" transform="translate(113.347 -13.891)" fill="#fff"/>
    <path id="Path_349" data-name="Path 349" d="M542.633,744.247s-.9,1.5-2.23,3.942l-.118.223c-1.181,2.1-2.628,4.853-4.093,7.87l-3.332.105h-1.1c-39.347,1.391-78.694,3.24-117.936,4.564l-9.587.316h-1.391q-20.463.655-40.881,1.01h-8.106l-6.086.079q-9.482.092-18.925.105h-7.509c-23.11-.066-46.128-.576-69-1.77l-2.544-.145c4.506-9.785,12.539-25.825,19.07-30.953,5.05-3.942,41.314-8.3,74.667-11.5l3.514-.342h.079l9.312-.865c12.766-1.168,24.343-2.112,32.606-2.754l.76-.066-4.3-14.427-6.231-20.985,1.77-17.628.145-1.417h-.188a11.582,11.582,0,0,1-5.247-.655l-62.29-2.157h-1.126l-23.923-.852h0c-12.828-.46-21.942-.8-22.3-.865a5.66,5.66,0,0,1-1.1-.3,4.958,4.958,0,0,1-1.521-.918,6.089,6.089,0,0,1-1.314-1.573h-.839l-3.379.224-1.718.118c-.066-.188-.118-.375-.188-.537-.158-.511-.315-1-.46-1.5h-.894l-11.8-.25h-.21s-30.454,2.322-46.37-3.475h0c-5.837-2.125-9.719-5.337-9.417-10.151a10.972,10.972,0,0,1,.681-3.191c-5.116-9.561,19.87-27.005,38.915-22.192a33.707,33.707,0,0,0,15.818.655,20.357,20.357,0,0,0,7.87-3.58c.237-.171.447-.342.642-.513-.315-.188-.642-.376-.939-.524a14.664,14.664,0,0,0-4.158-1.442l5.168-1.5h.079s18.362-1.678,30.31-2.349h.079c3.554-.188,6.557-.3,8.341-.25,7.87.223,23.2-5.4,23.857-7.134s7.659,0,7.659,0l6.126-2.388c6.126-2.375,9.627-5.613,9.627-8s5.467-4.984,5.467-4.984c2.465-4.145,7.3-8.591,12.39-12.526,4.393-3.4,8.959-6.426,12.342-8.538a248.82,248.82,0,0,1,5.245-25.235c2.322-7.751,9.522-13.5,12.105-15.358l.939-.629a68.01,68.01,0,0,0-2.885-9.6,7.376,7.376,0,0,0-.315-.787c-.263-.616-.537-1.22-.813-1.784l-.407-.787c-.668.131-1.314.25-2.02.342a45.89,45.89,0,0,1-6.558.484,45,45,0,0,1-43.479-32.79v-.079a44.408,44.408,0,0,1-1.573-11.8,43.182,43.182,0,0,1,1.5-11.332h0c.188-.787.434-1.56.681-2.335a2.082,2.082,0,0,1,.092-.263c.118-.355.237-.721.376-1.076a46.119,46.119,0,0,1-5.863.511h-1.314a27.752,27.752,0,0,1-10.979-1.823h0a14.9,14.9,0,0,1-2.427-1.314.316.316,0,0,1-.105-.079,12.3,12.3,0,0,1-2.7-2.138A13.9,13.9,0,0,0,312,431.091c.355-2.833-.118-5.994,1.573-8.3a11.91,11.91,0,0,1,3.069-2.628c6.978-4.761,12.512-11.292,18.82-16.918s13.943-10.492,22.428-10.755c11.384-.355,21.4,7.568,32.684,9.064a88.51,88.51,0,0,1,10.4,1.168,35.81,35.81,0,0,1,10.558,5.35,26.506,26.506,0,0,1,7.528,6.4,22.57,22.57,0,0,1,3.069,7.331,81.075,81.075,0,0,1,2.628,16.8c.3,5.942,0,11.923.629,17.823a30.571,30.571,0,0,0,5.037,14.335h.171a19.7,19.7,0,0,0,1.626,1.994c-1.115.355-2.23.668-3.379.939a53.2,53.2,0,0,1-5.758,1.141,16.774,16.774,0,0,1-2.688.223,8.01,8.01,0,0,1-1.862-.171l1.155.773,3.191,2.151h0l1.207.8,2.426,1.613c.55-1.613,1.314-2.046,2.191-1.941,1.784-1.678,4.446,1.954,4.446,1.954,1.56,2.991,5.758,5.968,9.469,8.172a74.8,74.8,0,0,0,6.728,3.514c49.013,29.209,45.9,72.91,48.79,76.374s3.069,16,3.069,16,7.226,42.615,10.492,46.3.21,4.971,3.056,9.09,2.191,15.135,2.191,15.135,1.968,25.956,8.972,31.582c6.282,5.05,14.677,47.532,16.333,56.215Z" transform="translate(34.666 -103.339)" fill="url(#linear-gradient)"/>
    <path id="Path_350" data-name="Path 350" d="M254.5,556.44s-6.807,10.716-26.095,5.784S183.62,575.944,190.9,585.15s54.221-2.628,54.221-2.628l18.007-3.646-1.181-14.99Z" transform="translate(35.522 -52.249)" fill="#d38884"/>
    <path id="Path_351" data-name="Path 351" d="M254.5,556.44s-6.807,10.716-26.095,5.784S183.62,575.944,190.9,585.15s54.221-2.628,54.221-2.628l18.007-3.646-1.181-14.99Z" transform="translate(35.522 -52.249)" opacity="0.1"/>
    <path id="Path_352" data-name="Path 352" d="M247.076,556.1l-8.354-.434-5.142,1.5s16.29,2.362,11.8,24.435l17.562-1.062Z" transform="translate(49.218 -52.49)" fill="#a36468"/>
    <path id="Path_353" data-name="Path 353" d="M247.076,556.1l-8.354-.434-5.142,1.5s16.29,2.362,11.8,24.435l17.562-1.062Z" transform="translate(49.218 -52.49)" opacity="0.1"/>
    <path id="Path_354" data-name="Path 354" d="M356.445,518.36s-22.926,13.115-29.365,24.015c0,0-5.35,2.628-5.35,4.932s-3.435,5.561-9.43,7.87l-6.008,2.362s-6.86-1.718-7.509,0-15.634,7.278-23.36,7.07-37.922,2.628-37.922,2.628a26.846,26.846,0,0,1,15.206,29.786l71.376-2.99,26.992-6.008,15.869-15.856Z" transform="translate(50.441 -64.113)" fill="#444053"/>
    <path id="Path_355" data-name="Path 355" d="M356.445,518.36s-22.926,13.115-29.365,24.015c0,0-5.35,2.628-5.35,4.932s-3.435,5.561-9.43,7.87l-6.008,2.362s-6.86-1.718-7.509,0-15.634,7.278-23.36,7.07-37.922,2.628-37.922,2.628a26.846,26.846,0,0,1,15.206,29.786l71.376-2.99,26.992-6.008,15.869-15.856Z" transform="translate(50.441 -64.113)" opacity="0.1"/>
    <path id="Path_356" data-name="Path 356" d="M266.191,598.892l-10.1-.188-11.8-.25s-55.742,4.29-54.653-13.536,43.963-24.081,49.937-18.961c4.524,3.869,14.99,6.991,19.765,8.26,1.521.407,2.452.629,2.452.629Z" transform="translate(35.521 -49.819)" fill="#d38884"/>
    <path id="Path_357" data-name="Path 357" d="M250.772,596.513l-10.1-.188c-4.027-13.838.642-21.458,3.293-24.449,1.521.407,2.452.629,2.452.629Z" transform="translate(50.94 -47.435)" opacity="0.1"/>
    <path id="Path_358" data-name="Path 358" d="M257.4,597.655l-10.492.734-4.984.342c-6.86-20.146,4.224-28.081,4.224-28.081h3.28l5.364.642Z" transform="translate(51.121 -47.822)" fill="#a36468"/>
    <path id="Path_359" data-name="Path 359" d="M356.143,501.593,343.709,525.2s-1.9-23.91-7.436-35.176c-1.416-2.885-3.069-4.932-5-5.547-5.247-1.652,24.92-34.718,24.92-34.718a120.016,120.016,0,0,1,13.851,8.748c7.778,5.247,17.142,11.64,23.438,15.74C405.432,481.868,356.143,501.593,356.143,501.593Z" transform="translate(79.467 -85.488)" fill="#d38884"/>
    <path id="Path_360" data-name="Path 360" d="M342.239,489.62s-9.995,6.413-12.766,15.843a264.6,264.6,0,0,0-5.373,26.36s4.506,40.5,6.86,42.428,11.279,42.428,11.279,42.428l8.656-5.784-11.358-51.007S347.092,494.355,342.239,489.62Z" transform="translate(77.423 -73.068)" fill="#444053"/>
    <path id="Path_361" data-name="Path 361" d="M342.239,489.62s-9.995,6.413-12.766,15.843a264.6,264.6,0,0,0-5.373,26.36s4.506,40.5,6.86,42.428,11.279,42.428,11.279,42.428l8.656-5.784-11.358-51.007S347.092,494.355,342.239,489.62Z" transform="translate(77.423 -73.068)" opacity="0.1"/>
    <path id="Path_362" data-name="Path 362" d="M365,405.2H315.04l8.093-78.812H365Z" transform="translate(98.156 101.704)" fill="#a36468"/>
    <path id="Path_363" data-name="Path 363" d="M282.964,679.24h.6l-1.126.434Z" transform="translate(64.443 -13.989)" fill="#67647e"/>
    <path id="Path_364" data-name="Path 364" d="M391.171,656.5l-9.762,3.755-1.314.484-35.176,13.517L331.5,679.414l-18.257,7.018H305.8c-23.11-.066-46.128-.576-69-1.77,4.432-9.719,12.184-25.275,18.507-30.3,4.932-3.942,40.213-8.183,72.779-11.384,4.066-.394,8.072-.773,11.989-1.126l.939-.092c12.933-1.181,24.631-2.138,32.789-2.793l1.314-.105,10.256-.787L386.429,637l1.314,5.613,1.089,4.485Z" transform="translate(50.223 -27.149)" fill="#67647e"/>
    <path id="Path_365" data-name="Path 365" d="M282.964,679.24h.6l-1.126.434Z" transform="translate(64.443 -13.989)" opacity="0.1"/>
    <path id="Path_366" data-name="Path 366" d="M391.171,656.5l-9.762,3.755-1.314.484-35.176,13.517L331.5,679.414l-18.257,7.018H305.8c-23.11-.066-46.128-.576-69-1.77,4.432-9.719,12.184-25.275,18.507-30.3,4.932-3.942,40.213-8.183,72.779-11.384,4.066-.394,8.072-.773,11.989-1.126l.939-.092c12.933-1.181,24.631-2.138,32.789-2.793l1.314-.105,10.256-.787L386.429,637l1.314,5.613,1.089,4.485Z" transform="translate(50.223 -27.149)" opacity="0.1"/>
    <path id="Path_367" data-name="Path 367" d="M282.964,679.24h.6l-1.126.434Z" transform="translate(64.443 -13.989)" fill="#67647e"/>
    <path id="Path_368" data-name="Path 368" d="M315.185,679.24a1.867,1.867,0,0,1-.145.434h0a1.16,1.16,0,0,1,.158-.434Z" transform="translate(74.599 -13.989)" fill="#67647e"/>
    <path id="Path_369" data-name="Path 369" d="M336.315,507.634h-.971l-.145-.434h.971Z" transform="translate(104.436 158.038)" fill="#67647e"/>
    <path id="Path_370" data-name="Path 370" d="M383.137,641.462l-.813,26.992v1.6l-.407,13.365-9.587.315h-1.391q-20.463.655-40.883,1.01h-8.1l-6.086.079q-9.482.092-18.925.105H289.4c6.82-4.224,15.648-8.88,25.143-13.536,4.263-2.1,8.683-4.185,13.115-6.244,11.8-5.482,23.752-10.663,33.5-14.8l1.246-.524c3.777-1.6,7.2-3.03,10.124-4.237,6.321-2.628,10.335-4.2,10.611-4.3Z" transform="translate(66.61 -25.813)" fill="#67647e"/>
    <path id="Path_371" data-name="Path 371" d="M294.462,558.157c2.452,5.116,4.984,10.335,9.037,14.322.642.629,1.757,1.207,2.335.513a1.652,1.652,0,0,0,.25-.971,12.51,12.51,0,0,0-2.362-6.689c-1.314-2.02-2.859-3.856-4.027-5.955s-2.5-6.139-5.129-6.689C291.2,551.979,293.715,556.608,294.462,558.157Z" transform="translate(67.687 -53.44)" opacity="0.1"/>
    <path id="Path_372" data-name="Path 372" d="M369.994,458.478c-.188.655-.376,1.314-.59,1.941A44.187,44.187,0,0,1,336.273,490c-1.416-2.885-3.069-4.932-5-5.548-5.247-1.652,24.92-34.718,24.92-34.718a139.7,139.7,0,0,1,13.8,8.748Z" transform="translate(79.467 -85.497)" opacity="0.1"/>
    <path id="Path_373" data-name="Path 373" d="M382.741,457.281a44.055,44.055,0,1,1-12.9-31.25,44.055,44.055,0,0,1,12.9,31.25Z" transform="translate(68.293 -96.904)" fill="#d38884"/>
    <path id="Path_374" data-name="Path 374" d="M342.969,496.79s-9.18,11.148-7.712,18.441h11.134l8.146-9.18Z" transform="translate(80.848 -70.835)" fill="#67647e"/>
    <path id="Path_375" data-name="Path 375" d="M374.32,460.9,339.3,509.048s9,12.867,13.286,13.517,28.749-56.949,28.749-56.949Z" transform="translate(82.158 -82.017)" opacity="0.1"/>
    <path id="Path_376" data-name="Path 376" d="M374.663,460.24,339.63,508.454s9,12.854,13.286,13.5,28.749-56.936,28.749-56.936Z" transform="translate(82.262 -82.222)" fill="#a36468"/>
    <path id="Path_377" data-name="Path 377" d="M337.2,507.26s-1.718,26.992-3.436,32.356,0,54.64,0,54.64l16.079-6.636-2.793-75.656Z" transform="translate(80.196 -67.572)" fill="#67647e"/>
    <path id="Path_378" data-name="Path 378" d="M336.171,507.2l.145.434h-.971l-.145-.434Z" transform="translate(104.436 158.038)" opacity="0.1"/>
    <path id="Path_379" data-name="Path 379" d="M439.4,679.55Z" transform="translate(113.347 -13.891)" opacity="0.1"/>
    <path id="Path_380" data-name="Path 380" d="M492.04,724.185l-.8,1.314c-.5.817-1.036,1.823-1.731,3.109a1,1,0,0,0-.092.158c-.971,1.8-2.125,4-3.293,6.4-39.347,1.391-78.694,3.24-117.936,4.564l-9.588.316H357.21l-4.119-13.9V726l-.434-1.468-2.628-8.735-2.628-8.88-2.715-9.469-1-3.436-.263-.865-4.277-14.559-5.8-19.765,1.877-18.86h0l.131-1.431,1.69-16.9.237-5.011h0l.131-2.628v-.751h0l.289-6.086.865-18.1.447-9.259h0l.079-1.4h0l.892-18.586,2.531-7.594,1.314-3.777,2.912-8.775.629-2.165h0c.918-3.293,2.767-9.8,4.506-16.053h0l.158-.537h0l.118-.407,1.233-4.445,1.534-5.705c.576-2.191.957-3.755,1.049-4.29a84.1,84.1,0,0,1,5.876-10.492h0c6.558-10.847,16.421-26.808,17.549-32.159a.588.588,0,0,0,0-.131,6.562,6.562,0,0,1,.276-.957c.537-1.6,1.314-2.033,2.125-1.928a2.628,2.628,0,0,1,1.036.407,8.253,8.253,0,0,1,2.046,1.967c1.534,2.951,5.632,5.9,9.272,8.093l.708.407.42.25c3.017,1.718,5.456,2.816,5.456,2.816,48,28.933,45.013,72.228,47.793,75.656s3,15.869,3,15.869,7.07,42.219,10.282,45.9.223,4.932,3,9.011,2.138,14.861,2.138,14.861,1.928,25.706,8.788,31.28S492.04,724.185,492.04,724.185Z" transform="translate(80.301 -82.18)" opacity="0.1"/>
    <path id="Path_381" data-name="Path 381" d="M493.012,723.87l-.576,1h0c-.46.813-1.194,2.1-2.065,3.711l-.092.188c-1,1.849-2.178,4.093-3.344,6.557h-1.1c-39.347,1.391-78.694,3.24-117.936,4.564l-9.588.315L354.2,726.247V726.1l-.434-1.468-2.715-9.182-2.628-8.919-2.628-8.906-1.036-3.567h0l-4.485-15.319-5.929-20.185,1.639-16.408.223-2.191,1.81-18.638h0l.695-14.533.852-17.562.223-4.6.25-5.326.105-2.243L341,559.5l2.531-7.581,1.089-3.267,2.544-7.673.537-1.626s2.452-8.617,4.827-17.155c.092-.315.188-.629.263-.939.21-.734.407-1.468.616-2.191h0c.21-.734.407-1.455.59-2.178.668-2.388,1.314-4.616,1.757-6.452.642-2.4,1.076-4.145,1.168-4.708a77.263,77.263,0,0,1,5.994-10.676c6.2-10.256,15.253-24.92,17.168-31.006a9.812,9.812,0,0,0,.263-.957h0a5,5,0,0,1,1.141-2.628c1.757-1.69,4.367,1.941,4.367,1.941,1.534,2.951,5.632,5.915,9.272,8.093a69.524,69.524,0,0,0,6.557,3.475c48,28.933,45.013,72.228,47.793,75.656s3,15.858,3,15.858,7.07,42.219,10.282,45.9.223,4.932,3,9,2.138,15,2.138,15,1.928,25.719,8.788,31.293S493.012,723.87,493.012,723.87Z" transform="translate(80.615 -82.292)" fill="#444053"/>
    <path id="Path_382" data-name="Path 382" d="M392.939,471.124c-4.708,6.847-12.39,18.886-14.427,27.542,0,0-7.509,7.725-10.3,7.292s2.628,5.784,2.628,5.784l-29.474,40.843,4.185-12.552s8.788-30.861,9.18-33.642,21.732-34.639,23.425-42.653c1.314-6.413,5.508-.642,5.508-.642C385.188,465.982,389.3,468.95,392.939,471.124Z" transform="translate(82.803 -82.075)" opacity="0.1"/>
    <path id="Path_383" data-name="Path 383" d="M392.939,470.491c-4.708,6.834-12.39,18.886-14.427,27.477,0,0-7.509,7.712-10.3,7.292s2.628,5.784,2.628,5.784l-29.474,40.841,4.185-12.552s8.788-30.862,9.18-33.655,21.732-34.625,23.425-42.64c1.314-6.426,5.508-.642,5.508-.642C385.188,465.351,389.3,468.3,392.939,470.491Z" transform="translate(82.803 -82.297)" fill="#444053"/>
    <path id="Path_384" data-name="Path 384" d="M434.332,545.848c.223,9.364-13.5,22.153-14.138,22.9s-42.653,35.412-42.653,35.412L347.374,627.3a25.631,25.631,0,0,1-11.8,5.456l2.065-20.7,2.033-41.97c4.708-5.245,9.272-10.755,9.387-12.512.21-3.633,7.87-7.509,7.87-7.509s5.363-4.506,4.506-7.07,2.846-14.887,2.846-14.887C366.2,493.17,402.2,489.748,402.2,489.748a246.8,246.8,0,0,1,29.576,14.138C443.972,511.17,434.121,536.5,434.332,545.848Z" transform="translate(80.995 -73.029)" opacity="0.1"/>
    <path id="Path_385" data-name="Path 385" d="M256.066,597.655l-10.492.734c-4.432-7.541,1.665-27.74,1.665-27.74h.852l5.364.642Z" transform="translate(52.453 -47.822)" opacity="0.1"/>
    <path id="Path_386" data-name="Path 386" d="M430.488,488.13s-36,3.436-37.922,38.363c0,0-3.646,12.223-2.793,14.8s-4.506,7.07-4.506,7.07-7.712,3.856-7.87,7.509-19.674,23.53-19.674,23.53-8.133,9.259-26.992,10.23-27.647,6.741-27.647,6.741-9.18-6.426-15.869-4.506S248,596.369,248,596.369s-8.636,28.644,2.138,30.441c1.314.21,107.417,3.856,107.417,3.856s7.252,3.422,18.178-4.932S405.9,602.585,405.9,602.585s41.968-34.725,42.659-35.42,14.427-13.549,14.138-22.9,9.653-34.652-2.628-41.97a247.236,247.236,0,0,0-29.579-14.163Z" transform="translate(52.692 -73.532)" fill="#444053"/>
    <path id="Path_387" data-name="Path 387" d="M382.324,457.307a44.057,44.057,0,0,1-2.165,13.68,18.448,18.448,0,0,1-1.626-2.243q-3.07-4.722-6.152-9.443a25.532,25.532,0,0,0-6.255-7.37,8.735,8.735,0,0,0-9.18-.971A9.2,9.2,0,0,0,353,458.317a83.556,83.556,0,0,0,.223,8.683,4.788,4.788,0,0,1-.8,3.135,5.14,5.14,0,0,1-3.379,1.314l-3.942.537a2.816,2.816,0,0,1-3.62-1.8c-3.267-5.916-5.521-13.26-11.639-16.106-3.777-1.757-8.762-1.639-11.187-5.024-1.652-2.309-1.429-5.444-.939-8.249a65.116,65.116,0,0,1,2.3-9.338c.695-2.151,2.243-6.439-1.194-6.873-2.335-.3-5.561,2.178-6.742,3.942a35.029,35.029,0,0,0-2.309,6.113,14.6,14.6,0,0,1-8.073,7.489,23.114,23.114,0,0,1-5.561,1.5,44.147,44.147,0,0,1,86.17,13.562Z" transform="translate(68.71 -96.931)" opacity="0.1"/>
    <path id="Path_388" data-name="Path 388" d="M317.392,432.85a35.842,35.842,0,0,0-2.309,6.1,14.611,14.611,0,0,1-8.054,7.489,30.988,30.988,0,0,1-11.056,1.968c-6.113.188-12.933-.751-16.866-5.429a13.81,13.81,0,0,0,5.247-9.18c.342-2.816-.118-5.942,1.547-8.236a11.8,11.8,0,0,1,2.991-2.531c6.847-4.722,12.25-11.2,18.441-16.763s13.654-10.4,21.965-10.663c11.134-.342,20.985,7.509,32,8.985a87.549,87.549,0,0,1,10.177,1.155,34.7,34.7,0,0,1,10.348,5.247,26.483,26.483,0,0,1,7.383,6.347,22.84,22.84,0,0,1,3,7.265,81.143,81.143,0,0,1,2.628,16.644c.3,5.876,0,11.8.629,17.647a27.971,27.971,0,0,0,6.492,16.132,57.725,57.725,0,0,1-8.932,2.065,9.3,9.3,0,0,1-5.679-.445,10.005,10.005,0,0,1-3.462-3.738l-6.152-9.443a25.533,25.533,0,0,0-6.255-7.37,8.735,8.735,0,0,0-9.18-.971,9.229,9.229,0,0,0-3.942,7.357,83.487,83.487,0,0,0,.223,8.683,4.787,4.787,0,0,1-.8,3.135,5.154,5.154,0,0,1-3.4,1.314l-3.942.537a2.816,2.816,0,0,1-3.619-1.8c-3.267-5.929-5.521-13.26-11.64-16.106-3.777-1.757-8.761-1.639-11.187-5.024-1.652-2.309-1.431-5.444-.939-8.249a65.107,65.107,0,0,1,2.3-9.338c.695-2.151,2.243-6.439-1.194-6.886C321.805,428.495,318.578,430.975,317.392,432.85Z" transform="translate(63.402 -102.365)" fill="#444053"/>
    <path id="Path_389" data-name="Path 389" d="M388.886,503.392a19.213,19.213,0,0,1,9.916.511c-8.093-3.319-21.261-2.046-28.631,2.517C370.837,507.956,386.314,503.747,388.886,503.392Z" transform="translate(91.777 -69.201)" opacity="0.1"/>
    <path id="Path_390" data-name="Path 390" d="M392.609,512.212c8.073.537,16.395,1.665,24.041-.957-6.4-2.2-13.444-.813-20.185-1.481-5.377-.537-10.847-2.4-16.092-1.036-2.191.563-10.256,4.276-9.706,6.991a43.583,43.583,0,0,1,21.942-3.516Z" transform="translate(91.924 -67.265)" opacity="0.1"/>
    <path id="Path_391" data-name="Path 391" d="M371.1,525.041a12.123,12.123,0,0,1,5.011.524,76.626,76.626,0,0,0,18.467,2.033c4.748,0,9.864-.721,13.329-3.942Z" transform="translate(92.067 -62.467)" opacity="0.1"/>
    <path id="Path_392" data-name="Path 392" d="M351.29,557.006a36.96,36.96,0,0,0,18.034,3.28,79.59,79.59,0,0,0,18.152-3.488c2.628-.773,5.482-1.744,7.017-4.027Z" transform="translate(85.894 -53.391)" opacity="0.1"/>
    <path id="Path_393" data-name="Path 393" d="M396.529,560.824a96.348,96.348,0,0,0,40.028,12.39q-10.663-4.277-21.484-8.093a155.567,155.567,0,0,0-22.624-6.06,11.5,11.5,0,0,1,4.079,1.757Z" transform="translate(98.719 -51.432)" opacity="0.1"/>
    <path id="Path_394" data-name="Path 394" d="M413.34,555.641a33.818,33.818,0,0,0,7.462.405,4.256,4.256,0,0,0,3.646-1.314,64,64,0,0,1-16.671-2.452c-1.56-.375-4.367-1.233-5.679-.3C404.592,553.765,410.194,555.015,413.34,555.641Z" transform="translate(101.725 -53.771)" opacity="0.1"/>
    <path id="Path_395" data-name="Path 395" d="M438.547,649.231a54.2,54.2,0,0,0,17.536,20.88c-4.866-12.408-9.811-24.92-17.6-35.767-1.967-2.728-4.906-6.636-8.486-7.134-1.023,3.03,1.56,8.394,2.816,11.24A108.161,108.161,0,0,0,438.547,649.231Z" transform="translate(110.343 -30.2)" opacity="0.1"/>
    <path id="Path_396" data-name="Path 396" d="M327.2,574.565a8.91,8.91,0,0,0,.826,6.139,4.432,4.432,0,0,0,2.491,1.718c-.629-.158-1.314-6.321-1.468-7.162-.289-1.718,0-4.932-1.22-6.2C327.509,570.866,327.395,572.728,327.2,574.565Z" transform="translate(78.301 -48.315)" opacity="0.1"/>
    <path id="Path_397" data-name="Path 397" d="M332.595,572.232a13.982,13.982,0,0,0,6.558,8.88c-2.3-2.833-3.043-6.557-5.037-9.666-.642-1-1.391-2.426-2.628-2.628q.465,1.731,1.1,3.409Z" transform="translate(79.723 -48.394)" opacity="0.1"/>
    <path id="Path_398" data-name="Path 398" d="M331.682,543.067a16.381,16.381,0,0,1-12.984,1.639c-.984-.289-3.28-1.314-2.728-2.754s3.214-.447,4.3-.316l5.705.721C327.026,542.491,330.83,543.567,331.682,543.067Z" transform="translate(74.862 -57.004)" opacity="0.1"/>
    <path id="Path_399" data-name="Path 399" d="M313.21,549.8c2.688-.342,5.1,1.521,7.62,2.531a23.213,23.213,0,0,0,8.656,1.155,4.834,4.834,0,0,0,4.04-1.314C326.693,550.614,320.306,548.894,313.21,549.8Z" transform="translate(74.03 -54.397)" opacity="0.1"/>
    <path id="Path_400" data-name="Path 400" d="M319.97,317.58h.434l3.214,11.555-3.648,3.877Z" transform="translate(99.691 98.959)" fill="#a36468"/>
    <g id="Group_29" data-name="Group 29" transform="translate(342.698 323.779)" opacity="0.1">
      <path id="Path_401" data-name="Path 401" d="M283.89,419.76a27.069,27.069,0,0,0-.59,5.705,12.6,12.6,0,0,0,.355-1.836C283.811,422.369,283.8,421.046,283.89,419.76Z" transform="translate(-277.987 -418.614)"/>
      <path id="Path_402" data-name="Path 402" d="M324.276,421.527a2.309,2.309,0,0,1,2.151,2.628c.616-2.178.957-4.853-1.718-5.247-2.335-.289-5.561,2.191-6.742,4a36.694,36.694,0,0,0-2.309,6.113,14.572,14.572,0,0,1-8.054,7.489,30.99,30.99,0,0,1-11.056,1.967c-5.561.171-11.713-.6-15.74-4.277a13.358,13.358,0,0,1-1.56,1.417c3.942,4.682,10.755,5.613,16.879,5.429a30.977,30.977,0,0,0,11.044-1.967,14.643,14.643,0,0,0,8.072-7.489,35.817,35.817,0,0,1,2.3-6.1C318.728,423.665,321.942,421.238,324.276,421.527Z" transform="translate(-279.25 -418.885)"/>
      <path id="Path_403" data-name="Path 403" d="M374.648,461.177a9.3,9.3,0,0,1-5.679-.447,10.126,10.126,0,0,1-3.462-3.738q-3.07-4.722-6.152-9.443a25.316,25.316,0,0,0-6.244-7.37,8.711,8.711,0,0,0-9.18-.971,9.4,9.4,0,0,0-4,7.357v.355a8.289,8.289,0,0,1,3.58-5.142,8.743,8.743,0,0,1,9.18.971,25.729,25.729,0,0,1,6.255,7.37q3.069,4.722,6.152,9.443a9.9,9.9,0,0,0,3.462,3.738,9.26,9.26,0,0,0,5.666.447,58.151,58.151,0,0,0,8.945-2.065,19.2,19.2,0,0,1-1.6-1.981,56.308,56.308,0,0,1-6.926,1.47Z" transform="translate(-260.344 -412.819)"/>
      <path id="Path_404" data-name="Path 404" d="M347.94,460.269a5.256,5.256,0,0,1-3.379,1.314l-3.942.537a2.816,2.816,0,0,1-3.62-1.8c-3.267-5.929-5.521-13.26-11.639-16.106-3.777-1.757-8.748-1.639-11.174-5.024a9.653,9.653,0,0,1-1.168-6.873c-.066.407-.158.8-.223,1.194-.471,2.816-.708,5.942.957,8.249,2.427,3.379,7.41,3.267,11.174,5.024,6.139,2.846,8.394,10.177,11.66,16.106a3.755,3.755,0,0,0,1.5,1.8,3.843,3.843,0,0,0,2.112.092l3.942-.537a5.142,5.142,0,0,0,3.379-1.314,4.708,4.708,0,0,0,.8-3.135h0A3.944,3.944,0,0,1,347.94,460.269Z" transform="translate(-268.905 -414.7)"/>
    </g>
    <path id="Path_405" data-name="Path 405" d="M755.4,719.192l-8.407-1.168V593.91l1.718.524,5.247,1.613V608l.066,5.39.118,11.1v15.135l.629,55.886V697l.223,19.674v.3Z" transform="translate(209.183 -40.576)" fill="#eaecf0"/>
    <path id="Path_406" data-name="Path 406" d="M758.358,719.345l-4.682-.655v-2.544l-.224-19.674v-1.5l-.629-55.886V623.949l-.118-11.1-.066-5.39V595.52h5.05v16.04l.105,11.989v12.683h0l.486,58.653v1.5l.158,19.5v.315Z" transform="translate(210.943 -40.074)" fill="#d3dae1"/>
    <path id="Path_407" data-name="Path 407" d="M757,695.27Z" transform="translate(212.301 -8.994)" fill="#d3dae1"/>
    <path id="Path_408" data-name="Path 408" d="M1147.849,582.18V689.31q-3.738,2.628-7.659,5.155l-.105-89.186v-9.469Z" transform="translate(331.662 -44.229)" fill="#eaecf0"/>
    <path id="Path_409" data-name="Path 409" d="M1151.459,581V685.532q-2.675,2.146-5.455,4.158V582.547Z" transform="translate(333.507 -44.597)" fill="#d3dae1"/>
    <path id="Path_410" data-name="Path 410" d="M1059.631,721.268c-3.227.655-6.466,1.314-9.706,1.877l-.118-96.938v-4.2l9.351-3.942v8.893Z" transform="translate(303.53 -33.051)" fill="#eaecf0"/>
    <path id="Path_411" data-name="Path 411" d="M1063.562,615.73V720.656c-2.046.447-4.093.866-6.139,1.314l-.434-94.263v-8.893l.616-.289h0Z" transform="translate(305.769 -33.776)" fill="#d3dae1"/>
    <path id="Path_412" data-name="Path 412" d="M640.487,702.03l-8.722-.879L630.65,591.83v-5.2h8.564v5.942Z" transform="translate(172.935 -42.844)" fill="#eaecf0"/>
    <path id="Path_413" data-name="Path 413" d="M644.971,702.717l-6.558-.695L637.1,592.574V586.63h6.623v6.514Z" transform="translate(174.944 -42.844)" fill="#d3dae1"/>
    <path id="Path_414" data-name="Path 414" d="M1039.45,446.508l5.995-2.816v13.233l-5.837,1.954Z" transform="translate(323.862 138.253)" opacity="0.1"/>
    <path id="Path_415" data-name="Path 415" d="M1135.335,408.95V429.2l-5.444,1.823-7.778,2.583-.013-9.469,7.791-13.628Z" transform="translate(349.613 127.426)" opacity="0.1"/>
    <path id="Path_416" data-name="Path 416" d="M1161.24,379.27v56.07l-121.482,40.481-.786-59.966Z" transform="translate(323.712 118.18)" fill="#d48a9b"/>
    <path id="Path_417" data-name="Path 417" d="M611.46,383.515,771.108,353.14l523.327,34.28L1172.17,424.013Z" transform="translate(190.511 110.037)" fill="#efc6cd"/>
    <path id="Path_418" data-name="Path 418" d="M627.838,414.6l.053,6.5-6.61-.576-8.591-.734-.039-5.195Z" transform="translate(190.883 129.186)" opacity="0.1"/>
    <path id="Path_419" data-name="Path 419" d="M741.162,431.691l-5.05-.447-7.083-.6V421.88l7,2.125H741.1Z" transform="translate(227.142 131.454)" opacity="0.1"/>
    <path id="Path_420" data-name="Path 420" d="M611.46,376.3v52.175l561.5,48.279-.787-59.966Z" transform="translate(190.511 117.254)" fill="#d48a9b"/>
    <path id="Path_421" data-name="Path 421" d="M968.324,429.921H894.98V403.31l73.344,5.168Z" transform="translate(278.849 125.67)" fill="#d48a9b"/>
    <path id="Path_422" data-name="Path 422" d="M968.324,429.921H894.98V403.31l73.344,5.168Z" transform="translate(278.849 125.67)" opacity="0.1"/>
    <path id="Path_423" data-name="Path 423" d="M819.87,398.86v42.052L1101.4,462.331v-44.78L991.593,411.32l-10.913,9.732L935.9,417.943l-15.957-11.686Z" transform="translate(255.446 124.283)" opacity="0.1"/>
    <path id="Path_424" data-name="Path 424" d="M818.68,397.67v42.062l281.528,21.4V416.361L990.4,410.13l-10.9,9.745-44.789-3.122-15.957-11.686Z" transform="translate(255.076 123.911)" fill="#fff"/>
    <path id="Path_425" data-name="Path 425" d="M687.872,389.06l66.589,4.682-.773,21.156H710.208L681.13,403.474Z" transform="translate(212.218 121.229)" fill="#d48a9b"/>
    <path id="Path_426" data-name="Path 426" d="M687.872,389.06l66.589,4.682-.773,21.156H710.208L681.13,403.474Z" transform="translate(212.218 121.229)" opacity="0.1"/>
    <path id="Path_427" data-name="Path 427" d="M618.59,384.61v37.774l255.428,20.251V402.525l-98.513-5.85-10.513,7.791-39.715-2.335-16.355-10.124Z" transform="translate(192.733 119.842)" opacity="0.1"/>
    <path id="Path_428" data-name="Path 428" d="M617.4,383.42v37.774l255.428,20.251V401.335L774.317,395.5,763.8,403.277l-39.728-2.335-16.355-10.124Z" transform="translate(192.362 119.472)" fill="#fff"/>
    <path id="Path_429" data-name="Path 429" d="M1047.305,383.53l35.806,2.349-59.324,17.76-30.225-2.178Z" transform="translate(309.56 119.507)" opacity="0.1"/>
    <path id="Path_430" data-name="Path 430" d="M1047.305,382.35l35.806,2.335-59.324,17.759-30.225-2.178Z" transform="translate(309.56 119.138)" fill="#fff"/>
    <path id="Path_431" data-name="Path 431" d="M1049.24,557.493c1.417-.616,2.925.524,4.432.813.852.171,1.744,0,2.628.171,1.757.237,3.488,1.4,5.168.813Z" transform="translate(303.356 -51.976)" fill="#d3dae1"/>
    <path id="Path_432" data-name="Path 432" d="M1047.83,558.3c1.4-.6,2.912.537,4.419.826.866.158,1.757,0,2.628.158,1.744.237,3.488,1.417,5.168.826Z" transform="translate(302.917 -51.724)" fill="#d3dae1"/>
    <path id="Path_433" data-name="Path 433" d="M1044.59,559.942c1.4-.6,2.912.524,4.419.813.866.171,1.744,0,2.628.171,1.757.237,3.5,1.417,5.168.813Z" transform="translate(301.906 -51.213)" fill="#d3dae1"/>
    <path id="Path_434" data-name="Path 434" d="M856.276,368.55l79.835,5.234L919.1,398.219l-87.771-9.387Z" transform="translate(259.018 114.839)" opacity="0.1"/>
    <path id="Path_435" data-name="Path 435" d="M855.089,367.36l79.836,5.221-17.01,24.449-87.784-9.387Z" transform="translate(258.643 114.468)" fill="#3a3768"/>
    <path id="Path_436" data-name="Path 436" d="M857.007,368.73l69.632,4.262L911.808,392.9l-76.556-7.646Z" transform="translate(260.24 114.895)" fill="#d5e1f4"/>
    <path id="Path_437" data-name="Path 437" d="M757,695.27Z" transform="translate(212.301 -8.994)" fill="#3a3768"/>
    <path id="Path_438" data-name="Path 438" d="M757,695.27Z" transform="translate(212.301 -8.994)" opacity="0.1"/>
    <path id="Path_439" data-name="Path 439" d="M756.54,695.27Z" transform="translate(212.158 -8.994)" fill="#3a3768"/>
    <path id="Path_440" data-name="Path 440" d="M887.839,736.52a6.34,6.34,0,0,1-.066,1.115,7.511,7.511,0,0,1-.1.984,22.16,22.16,0,0,1-1.9,6.676h0c-32.987-3.712-66.05-8.17-99.155-12.749l-4.682-.655-8.407-1.168-7.083-.984h0a170.617,170.617,0,0,1-23.136-2.165,119.678,119.678,0,0,1-14.3-3.017c-20.985-2.872-42.088-5.632-63.125-8.159l-2.741-.329c.5-2.23.918-3.58.918-3.58s4.506-17.733,8.26-37.547c.826-4.3,1.613-8.683,2.3-13.023.55-3.475,1.049-6.912,1.468-10.216.236-1.823.434-3.606.6-5.35.092-.865.171-1.731.237-2.628s.145-1.862.21-2.767.092-1.7.131-2.531v-1.239c0-1.77,0-3.619-.066-5.521a162.655,162.655,0,0,0-4.457-28.083c-.376-1.573-.751-3.148-1.141-4.682-.118-.5-.25-.984-.376-1.468-4.237-16.408-9.182-29.812-9.182-29.812a1.517,1.517,0,0,1,0-.223.756.756,0,0,0,0-.158,3.225,3.225,0,0,0,0-.329v-2.335a20.09,20.09,0,0,1,.708-4.066,14.734,14.734,0,0,1,.5-1.391,8.636,8.636,0,0,1,5.9-5.455h0c3.711-.957,9.325,0,17.8,5.024a30.643,30.643,0,0,1,3.943,2.7,16.67,16.67,0,0,1,1.836,1.586c9.706,9.038,14.874,23.949,17.628,37.564.105.486.188.971.289,1.455.329,1.678.6,3.319.852,4.932.445,2.833.8,5.561,1.063,8.093,0,.681.145,1.314.21,2.007s.131,1.314.171,1.941c.171,2.046.289,3.942.375,5.534.223,4.25.188,6.86.188,6.86v.131a3.573,3.573,0,0,1-.066.563.248.248,0,0,0,0,.105v1.179q-.079.826-.188,1.928c-.118,1.126-.25,2.452-.405,3.942-.105,1.1-.237,2.3-.376,3.554-.289,2.628-.6,5.666-.939,8.867-.079.6-.145,1.207-.21,1.81-.3,2.741-.616,5.6-.939,8.486h0c-.355,3.28-.751,6.557-1.126,9.8-.092.708-.188,1.417-.263,2.112-.971,7.87-1.941,15.019-2.728,19.464a18.431,18.431,0,0,0-.263,1.994,6.133,6.133,0,0,0,0,.682,13.394,13.394,0,0,0,0,1.783c.642,11.2,12.749,13.115,12.749,13.115l54.968-1.089,8.157-.158,4.748-.092,42.848-.852h0l3.942-.079,21.313-.421a15.238,15.238,0,0,1,4.29.511,68.09,68.09,0,0,1,18.625,8.146,21.892,21.892,0,0,1,4.814,4.2,1.373,1.373,0,0,1,.188.21,22.688,22.688,0,0,1,5.155,12.276q0,.452,0,.9a11.768,11.768,0,0,1,.039,2.092Z" transform="translate(182.716 -53.222)" fill="#3a3768"/>
    <path id="Path_441" data-name="Path 441" d="M756.54,695.27Z" transform="translate(212.158 -8.994)" opacity="0.1"/>
    <path id="Path_442" data-name="Path 442" d="M887.84,736.546a6.358,6.358,0,0,1-.066,1.115,7.6,7.6,0,0,1-.105.984,22.953,22.953,0,0,1-1.967,6.676c-32.987-3.711-66.05-8.172-99.155-12.749l-4.682-.655-8.407-1.168-7.083-.984h0a170.609,170.609,0,0,1-23.136-2.165,119.652,119.652,0,0,1-14.3-3.017c-20.985-2.872-42.088-5.632-63.125-8.157l-2.741-.328h0c.5-2.309.939-3.711.939-3.711s3.685-14.427,7.187-31.915h0c.25-1.207.484-2.414.721-3.633l.355-1.849c.813-4.29,1.6-8.7,2.3-13.023.55-3.475,1.05-6.912,1.468-10.216.237-1.823.434-3.606.6-5.352.092-.865.171-1.731.236-2.628s.145-1.862.21-2.767.092-1.7.131-2.531v-1.233c0-1.77,0-3.62-.066-5.521a161.314,161.314,0,0,0-4.419-28.081q-.55-2.386-1.141-4.682c-.131-.5-.25-.984-.375-1.468-4.25-16.46-9.18-29.943-9.18-29.943a.414.414,0,0,0,0-.092.74.74,0,0,0,0-.158,3.136,3.136,0,0,0,0-.328v-2.335a20.112,20.112,0,0,1,.668-4.066c.145-.46.3-.939.484-1.391a8.67,8.67,0,0,1,6.216-5.653c3.711-.865,9.259.21,17.549,5.069a31.8,31.8,0,0,1,4.093,2.859h0c.616.511,1.207,1.023,1.784,1.573,9.627,9.09,14.756,23.975,17.484,37.547.105.484.188.984.289,1.468.329,1.665.6,3.319.852,4.919.447,2.833.787,5.548,1.049,8.073.066.695.145,1.378.188,2.033s.131,1.314.171,1.941c.171,2.046.289,3.942.376,5.534.223,4.25.188,6.86.188,6.86v.695a.247.247,0,0,0,0,.105v1.181q-.079.826-.188,1.928c-.118,1.126-.25,2.452-.407,3.942-.131,1.089-.25,2.283-.376,3.554-.289,2.628-.6,5.666-.939,8.867-.079.6-.145,1.207-.21,1.81-.3,2.741-.629,5.632-.939,8.512h0c-.375,3.28-.76,6.557-1.155,9.785-.092.708-.171,1.417-.263,2.112-.957,7.87-1.915,14.912-2.7,19.336a18.245,18.245,0,0,0-.263,2.138,6.04,6.04,0,0,0,0,.681,13.423,13.423,0,0,0,0,1.784c.751,11.076,12.749,12.92,12.749,12.92l54.968-1.076,8.146-.171,4.761-.092,42.927-.839,4.014-.079,21.234-.42a14.345,14.345,0,0,1,4.29.51,67.317,67.317,0,0,1,18.773,8.073,21.615,21.615,0,0,1,4.881,4.277,1.38,1.38,0,0,1,.188.21,22.469,22.469,0,0,1,5.089,12.328q0,.452,0,.9a15.261,15.261,0,0,0-.171,2.176Z" transform="translate(182.715 -53.248)" opacity="0.1"/>
    <path id="Path_443" data-name="Path 443" d="M756.54,695.27Z" transform="translate(212.158 -8.994)" fill="#3a3768"/>
    <path id="Path_444" data-name="Path 444" d="M887.208,745.877l-2.165-.25h0c-32.987-3.712-66.05-8.17-99.155-12.749l-4.682-.655-8.407-1.168-7.083-.984h0a170.628,170.628,0,0,1-23.136-2.165,119.658,119.658,0,0,1-14.3-3.017c-20.985-2.872-42.088-5.632-63.125-8.159a53.735,53.735,0,0,1,1.314-5.455s12.46-49.066,13.233-75.153c.276-9.325-1.573-20.866-4.079-31.871h0c-.376-1.586-.734-3.161-1.126-4.708l-.355-1.468c-4.446-17.247-9.732-31.674-9.732-31.674a21.309,21.309,0,0,1,.3-5.339,14.214,14.214,0,0,1,.315-1.4,10.7,10.7,0,0,1,3.379-5.666h0a1.691,1.691,0,0,1,.25-.188c3.449-2.628,9.64-2.816,20.651,3.646a32.3,32.3,0,0,1,6.152,4.708c.526.5,1.049,1.023,1.547,1.56,8.853,9.588,13.549,24.278,16.014,37.419l.276,1.455c.289,1.639.537,3.253.773,4.814v.131h0c.3,2.065.55,4.053.76,5.942h0a156.463,156.463,0,0,1,.939,16.75s-.511,5.181-1.314,12.644c-.3,2.925-.655,6.2-1.036,9.666v.524l-.188,1.836c-.668,6.047-1.4,12.5-2.151,18.48-.079.734-.171,1.455-.263,2.165-.839,6.728-1.678,12.71-2.373,16.6-2.728,15.188,12.46,17.523,12.46,17.523l51.859-1.023,8.133-.158,4.761-.105h2.628l41.13-.813h3.942l23.607-.471a14.736,14.736,0,0,1,4.288.524,67.652,67.652,0,0,1,18.773,8.054,22.307,22.307,0,0,1,4.419,3.755,2.151,2.151,0,0,1,.223.263,22.716,22.716,0,0,1,2.536,26.179Z" transform="translate(183.441 -53.607)" fill="#3a3768"/>
    <path id="Path_445" data-name="Path 445" d="M958.966,347.05l16.04,34.355h-2.688L953.51,347.457Z" transform="translate(297.085 108.141)" fill="#4c4c56"/>
    <path id="Path_446" data-name="Path 446" d="M958.966,347.05l16.04,34.355h-2.688L953.51,347.457Z" transform="translate(297.085 108.141)" opacity="0.1"/>
    <path id="Path_447" data-name="Path 447" d="M957.67,373.25h16.04v3.593l-16.04.407Z" transform="translate(298.38 116.304)" fill="#4c4c56"/>
    <path id="Path_448" data-name="Path 448" d="M957.67,373.25h16.04v3.593l-16.04.407Z" transform="translate(298.38 116.304)" opacity="0.1"/>
    <path id="Path_449" data-name="Path 449" d="M880.5,424.79v120a8.906,8.906,0,0,0,8.906,8.906h200.015a8.853,8.853,0,0,0,8.854-9.024L1096,424.558a8.853,8.853,0,0,0-8.854-8.683H889.406a8.906,8.906,0,0,0-8.906,8.916Z" transform="translate(250.781 -96.049)" fill="#4c4c56"/>
    <path id="Path_450" data-name="Path 450" d="M880.5,424.79v120a8.906,8.906,0,0,0,8.906,8.906h200.015a8.853,8.853,0,0,0,8.854-9.024L1096,424.558a8.853,8.853,0,0,0-8.854-8.683H889.406a8.906,8.906,0,0,0-8.906,8.916Z" transform="translate(250.781 -96.049)" opacity="0.1"/>
    <path id="Path_451" data-name="Path 451" d="M875,424.791v120a8.906,8.906,0,0,0,8.906,8.906h200.015a8.84,8.84,0,0,0,8.84-9.024l-2.27-120.11a8.854,8.854,0,0,0-8.84-8.683H883.959A8.906,8.906,0,0,0,875,424.791Z" transform="translate(249.066 -96.049)" fill="#4c4c56"/>
    <path id="Path_452" data-name="Path 452" d="M881,430.506V536.153a8.906,8.906,0,0,0,8.906,8.906h185.21a8.854,8.854,0,0,0,8.854-8.854V430.44a8.854,8.854,0,0,0-8.854-8.84H889.906A8.906,8.906,0,0,0,881,430.506Z" transform="translate(250.936 -94.263)" fill="#44bba4"/>
    <path id="Path_453" data-name="Path 453" d="M924.14,348.581l17.589,33.878H981.47L961.6,343.7Z" transform="translate(287.934 107.096)" fill="#4c4c56"/>
    <path id="Path_454" data-name="Path 454" d="M914.158,373.25l-2.938,3.593h60.923V373.25Z" transform="translate(283.909 116.304)" fill="#4c4c56"/>
    <path id="Path_455" data-name="Path 455" d="M750.221,471.278c-4.367-12.276-4.34-25.907-9.64-37.8a46.045,46.045,0,0,1-2.217-5.247,15.369,15.369,0,0,1-.6-3.422l-.329.079-.328.092-.328.131h0l-.3.188a11.487,11.487,0,0,0,.3,1.155,44.132,44.132,0,0,0,2.243,5.247c5.4,11.962,5.364,25.641,9.811,38.035a3.571,3.571,0,0,0,.826,1.455,1.957,1.957,0,0,0,.669.407C750.287,471.447,750.244,471.368,750.221,471.278Zm0,0c-4.367-12.276-4.34-25.907-9.64-37.8a46.045,46.045,0,0,1-2.217-5.247,15.369,15.369,0,0,1-.6-3.422l-.329.079-.328.092-.328.131h0l-.3.188a11.487,11.487,0,0,0,.3,1.155,44.132,44.132,0,0,0,2.243,5.247c5.4,11.962,5.364,25.641,9.811,38.035a3.571,3.571,0,0,0,.826,1.455,1.957,1.957,0,0,0,.669.407C750.287,471.447,750.244,471.368,750.221,471.278Zm0,0c-4.367-12.276-4.34-25.907-9.64-37.8a46.045,46.045,0,0,1-2.217-5.247,15.369,15.369,0,0,1-.6-3.422l-.329.079-.328.092-.328.131h0l-.3.188a11.487,11.487,0,0,0,.3,1.155,44.132,44.132,0,0,0,2.243,5.247c5.4,11.962,5.364,25.641,9.811,38.035a3.571,3.571,0,0,0,.826,1.455,1.957,1.957,0,0,0,.669.407C750.287,471.447,750.244,471.368,750.221,471.278Zm0,0c-4.367-12.276-4.34-25.907-9.64-37.8a46.045,46.045,0,0,1-2.217-5.247,15.369,15.369,0,0,1-.6-3.422l-.329.079-.328.092-.328.131h0l-.3.188a11.487,11.487,0,0,0,.3,1.155,44.132,44.132,0,0,0,2.243,5.247c5.4,11.962,5.364,25.641,9.811,38.035a3.571,3.571,0,0,0,.826,1.455,1.957,1.957,0,0,0,.669.407C750.287,471.447,750.244,471.368,750.221,471.278Zm0,0c-4.367-12.276-4.34-25.907-9.64-37.8a46.045,46.045,0,0,1-2.217-5.247,15.369,15.369,0,0,1-.6-3.422l-.329.079-.328.092-.328.131h0l-.3.188a11.487,11.487,0,0,0,.3,1.155,44.132,44.132,0,0,0,2.243,5.247c5.4,11.962,5.364,25.641,9.811,38.035a3.571,3.571,0,0,0,.826,1.455,1.957,1.957,0,0,0,.669.407C750.287,471.447,750.244,471.368,750.221,471.278Zm0,0c-4.367-12.276-4.34-25.907-9.64-37.8a46.045,46.045,0,0,1-2.217-5.247,15.369,15.369,0,0,1-.6-3.422l-.329.079-.328.092-.328.131h0l-.3.188a11.487,11.487,0,0,0,.3,1.155,44.132,44.132,0,0,0,2.243,5.247c5.4,11.962,5.364,25.641,9.811,38.035a3.571,3.571,0,0,0,.826,1.455,1.957,1.957,0,0,0,.669.407C750.287,471.447,750.244,471.368,750.221,471.278Zm0,0c-4.367-12.276-4.34-25.907-9.64-37.8a46.045,46.045,0,0,1-2.217-5.247,15.369,15.369,0,0,1-.6-3.422l-.329.079-.328.092-.328.131h0l-.3.188a11.487,11.487,0,0,0,.3,1.155,44.132,44.132,0,0,0,2.243,5.247c5.4,11.962,5.364,25.641,9.811,38.035a3.571,3.571,0,0,0,.826,1.455,1.957,1.957,0,0,0,.669.407C750.287,471.447,750.244,471.368,750.221,471.278ZM978.107,593.516h0l-1.01-.188,1.314-.289h0a2,2,0,0,0,.376-.092h0c1.457-.315,2.9-.668,4.318-1.049h0l1.481-.42h0l.21-.066c12.223-3.606-2.033-6.925-20.159-9.387h-.053c-19.569-2.628-43.571-4.34-43.571-4.34l-7.509,1h-.066c-9.18,1.207-23.673,3.192-25.982,3.942-2.816.939-26.624,2.065-34.918,2.441a3.621,3.621,0,0,0-1.234-1.314l-24.488-1.126V586h0l-.188-.079a33.593,33.593,0,0,0-3.319-13.115l-.188-.375c-6.321-11.989-7.594-14.99-7.594-14.99h0a2.469,2.469,0,0,0-.171-.642c-2.125-7.37-9.95-20.185-23.228-38.573l-.46-.642L790,509.427,789.715,508h-8.354a109.237,109.237,0,0,1,5.8-20.735c.171-.421.342-.839.524-1.247l.105-.237c.188-.434.394-.865.589-1.314h1.455a39.912,39.912,0,0,0,38.35-37.117.251.251,0,0,0,0-.1q.079-1.22.079-2.441a39.045,39.045,0,0,0-5.245-19.674c-.105-.188-.21-.376-.328-.55l-.21-.355-.471-.734c2.991-.708,6.557.655,9.18-1.023a6.718,6.718,0,0,0,2.243-2.7,14.051,14.051,0,0,0,1.314-3.942h0a1.288,1.288,0,0,0,0-.223.169.169,0,0,0,0-.079,15.528,15.528,0,0,0,.188-2.7,14.561,14.561,0,0,0-.918-5.456,15.03,15.03,0,0,0-8.448-8.472,57.235,57.235,0,0,0-6.139-1.665c-8.394-2.243-15.49-7.778-23.608-10.86a42.822,42.822,0,0,0-17.694-2.728,25.313,25.313,0,0,0-10.492,2.628,44.918,44.918,0,0,0-7,5.069c-5.837,4.6-12.46,8.538-17.536,14.033a31.34,31.34,0,0,0-2.544,3.148c-.447.642-.852,1.314-1.314,1.967a3.514,3.514,0,0,0-3.162-1.314h0a5.152,5.152,0,0,0-.642,0,12.721,12.721,0,0,0-1.626.171c-1.314.223-11.076,2.816-11.076,4.145a46.141,46.141,0,0,0-11.226,6.9c-7.87,7.2-9.627,18.612-10.624,29.131a269.913,269.913,0,0,0-1.314,36.724c.188,4.459.537,8.919.328,13.378A99.506,99.506,0,0,1,697.57,515.2q-1.69,8-3.659,15.957c-.629,2.628-1.639,5.548-4.211,6.383l.957.131a4.607,4.607,0,0,1-.957.46,28.674,28.674,0,0,0,3.332.328h.774a9.051,9.051,0,0,0,1.877-.223,7.006,7.006,0,0,0,2.375-1.1c.105-.263.188-.524.289-.8a4.434,4.434,0,0,0,1.573-2.44,17.357,17.357,0,0,1-.263,4.432,2.8,2.8,0,0,1-.131.642,18.1,18.1,0,0,1-4.505,8.551l1.314-1a19.31,19.31,0,0,1-1.314,1.586q2.833-2.125,5.666-4.34h0a2.76,2.76,0,0,0,.328-.25h0l3.227-2.544v2.544h0v.589c-.263,9.051-.642,31.28,1.415,36.593.118.315.25.629.355.939,2.347,6.047,3.358,8.656,3.056,11.8-.21,2.191,1.43,8.459,2.335,13.444a16.682,16.682,0,0,1,.421,6.073,8.661,8.661,0,0,0,.236,3.62c.118.576.263,1.194.421,1.836a2.838,2.838,0,0,0,.171.695c1.194,4.774,2.885,10.676,1.115,13.023a10.393,10.393,0,0,0-1.314,2.628c-1.455,3.942-1.69,9.312-3.379,11.489-1.967,2.531-1.314,7.031-1.155,7.607a.232.232,0,0,1,0,.066s-.092.511-.276,1.314c-.223,1.1-.576,2.793-1.023,4.669v.131a66.793,66.793,0,0,1-2.27,7.778h0c-.668,1.784-1.314,3.07-2.065,3.319-2.628.958-3.942,13.273-3.942,13.273s-6.007,9.745-4.866,12.144a16.1,16.1,0,0,0,.852,1.613l-.576.892c-3.214,5.155-7.87,14.519-3.359,19.556a22.3,22.3,0,0,0,5.377,4.106c-.237.524-.484,1.089-.751,1.7-4.958,11.621-12.591,38.613,16.776,50a93.123,93.123,0,0,0,8.906,2.925,119.652,119.652,0,0,0,14.3,3.017,175.217,175.217,0,0,0,20.985,1.877c3.122.105,6.2.131,9.18.105s5.679-.092,8.38-.21q2.4-.092,4.682-.237a244.929,244.929,0,0,0,26.927-2.951l41.97-7.509s17.628.629,24.12,4.354l.188.118s1.063-.616,2.846-1.823h0c.773-.526,1.69-1.155,2.7-1.9a88.608,88.608,0,0,0,25.012-27.831l.145-.25,1.431-.188h.329l1.023-.145,2.125-.3h.375c5.311-.773,10.335-1.626,10.335-1.626s.188,5.863.434,12.657c.079,2.065.145,4.237.223,6.336.25,7.187.471,13.72.471,13.941s5.4,14.427,11.452,28.75l4.722.376q18.7,1.5,37.393,2.478l4.656.236,2.912.145c-2.1-12.71-3.755-24.828-3.755-24.828l-7.791-36.291s-.813-7.509-6.649-40.926c-4.722-27.071-32.527-24.67-42.94-22.768-1.062.188-1.928.376-2.628.524v-2.033s-19.975,1.678-38.035,2.493l-4.393.188c-4.185.158-8.159.25-11.64.25a85.274,85.274,0,0,1-9.18-.376c-13.943-1.6-29.838,3.192-29.838,3.192s-20.316,3.293-23.031,2.086a6.993,6.993,0,0,0-2.3-.473h-1.314a2.1,2.1,0,0,0,1.314-2.335c-.813-3.359-1.141-8,1.141-11.2,1-1.417,2.628-3.646,4.079-5.679l3.541-4.866v-.375l.092-1.431.852-12.749,2.046-11.8.131-.751.188-1.049.131-.76.394.131h0c5.81,2.02,12.39,3.435,17.05,1.81h.092a7.815,7.815,0,0,0,1.076-.458h.21v.879l.079,1.534,21.89-1.194h.328s.852-4.224,1.77-10.047c.066-.473.145-.958.223-1.455s.188-1.314.289-1.915a7.994,7.994,0,0,1,.131-.939h1.314c10.151-.375,24.317-1.233,30.088-3.332h0a6.553,6.553,0,0,0,1.981-1.063c2.452-2.125,11.253-5.168,19.9-7.791h0l3.448-1.023c2.5-.734,4.919-1.417,7.057-2.02,4.958-1.314,8.5-2.283,8.5-2.283s34.1,3.161,59.571-4.2h0l.421-.118C995.459,598.249,989.5,595.679,978.107,593.516Zm-241.973-170.5a7.1,7.1,0,0,0,.145,1.168h0a3.294,3.294,0,0,0,.079.5.9.9,0,0,0,.105.511,11.507,11.507,0,0,0,.3,1.154,44.194,44.194,0,0,0,2.244,5.247c5.4,11.962,5.363,25.641,9.811,38.035a3.568,3.568,0,0,0,.826,1.455,1.952,1.952,0,0,0,.668.407l.316.105H751l-.145.25a1.3,1.3,0,0,1-.105.188l-.092.145c-1.757,2.964-3.633,5.876-5.521,8.448a12.328,12.328,0,0,0-4.551,1.862l-.734.484-.316.237c-.46-2.253-1.089-4.485-1.665-6.715a155,155,0,0,1-5.069-36.383v-2.478c0-3.175.079-6.334.276-9.509a7.867,7.867,0,0,1,1.115-4.172h0a2.872,2.872,0,0,1,1.941-.939Zm14.08,48.279c-4.367-12.276-4.341-25.907-9.64-37.8a45.981,45.981,0,0,1-2.217-5.247,15.367,15.367,0,0,1-.6-3.422l-.329.079-.328.092-.328.131h0l-.3.188a11.507,11.507,0,0,0,.3,1.155,44.125,44.125,0,0,0,2.243,5.247c5.4,11.962,5.364,25.641,9.811,38.035a3.567,3.567,0,0,0,.826,1.455,1.954,1.954,0,0,0,.668.407c-.039-.158-.079-.237-.105-.329Zm0,0c-4.367-12.276-4.341-25.907-9.64-37.8a45.981,45.981,0,0,1-2.217-5.247,15.367,15.367,0,0,1-.6-3.422l-.329.079-.328.092-.328.131h0l-.3.188a11.507,11.507,0,0,0,.3,1.155,44.125,44.125,0,0,0,2.243,5.247c5.4,11.962,5.364,25.641,9.811,38.035a3.567,3.567,0,0,0,.826,1.455,1.954,1.954,0,0,0,.668.407c-.039-.158-.079-.237-.105-.329Zm0,0c-4.367-12.276-4.341-25.907-9.64-37.8a45.981,45.981,0,0,1-2.217-5.247,15.367,15.367,0,0,1-.6-3.422l-.329.079-.328.092-.328.131h0l-.3.188a11.507,11.507,0,0,0,.3,1.155,44.125,44.125,0,0,0,2.243,5.247c5.4,11.962,5.364,25.641,9.811,38.035a3.567,3.567,0,0,0,.826,1.455,1.954,1.954,0,0,0,.668.407c-.039-.158-.079-.237-.105-.329Zm0,0c-4.367-12.276-4.341-25.907-9.64-37.8a45.981,45.981,0,0,1-2.217-5.247,15.367,15.367,0,0,1-.6-3.422l-.329.079-.328.092-.328.131h0l-.3.188a11.507,11.507,0,0,0,.3,1.155,44.125,44.125,0,0,0,2.243,5.247c5.4,11.962,5.364,25.641,9.811,38.035a3.567,3.567,0,0,0,.826,1.455,1.954,1.954,0,0,0,.668.407c-.039-.158-.079-.237-.105-.329Zm0,0c-4.367-12.276-4.341-25.907-9.64-37.8a45.981,45.981,0,0,1-2.217-5.247,15.367,15.367,0,0,1-.6-3.422l-.329.079-.328.092-.328.131h0l-.3.188a11.507,11.507,0,0,0,.3,1.155,44.125,44.125,0,0,0,2.243,5.247c5.4,11.962,5.364,25.641,9.811,38.035a3.567,3.567,0,0,0,.826,1.455,1.954,1.954,0,0,0,.668.407c-.039-.158-.079-.237-.105-.329Zm0,0c-4.367-12.276-4.341-25.907-9.64-37.8a45.981,45.981,0,0,1-2.217-5.247,15.367,15.367,0,0,1-.6-3.422l-.329.079-.328.092-.328.131h0l-.3.188a11.507,11.507,0,0,0,.3,1.155,44.125,44.125,0,0,0,2.243,5.247c5.4,11.962,5.364,25.641,9.811,38.035a3.567,3.567,0,0,0,.826,1.455,1.954,1.954,0,0,0,.668.407c-.039-.158-.079-.237-.105-.329Z" transform="translate(190.961 -106.112)" fill="url(#linear-gradient-2)"/>
    <path id="Path_456" data-name="Path 456" d="M781.995,461.452a30.593,30.593,0,0,0-5.037,7.791c-.188.434-.394.852-.576,1.314-5.8,13.115-7.765,31.674-7.765,31.674s-3.593-1.613-8.683-4.13c-9.482-4.693-24.12-12.512-30.037-18.743-2.628-2.816-3.567-5.311-1.389-7.057a16.162,16.162,0,0,0,1.442-1.314,41.705,41.705,0,0,0,4.577-5.429c1.889-2.628,3.755-5.547,5.508-8.551,1.036-1.757,2.02-3.527,2.938-5.247l.375-.681c3.942-7.462,6.807-13.838,6.807-13.838s1.314.421,3.435,1.168C763.383,441.909,790.362,452.546,781.995,461.452Z" transform="translate(203.045 -89.389)" fill="#efb7b9"/>
    <path id="Path_457" data-name="Path 457" d="M924.087,711.276s1.6,11.884,3.633,24.422l-4.656-.237q-18.676-.971-37.393-2.478c-7.083-16.408-14.427-35.885-14.427-36.186s-.223-6.715-.471-13.877c-.079-2.518-.171-5.116-.25-7.554h0c-.131-3.7-.25-7.031-.315-9.1,0-1.416-.079-2.253-.079-2.253s-6.741,1.181-12.8,2.007l-2.688.355c-1.389.171-2.628.3-3.738.375a9.623,9.623,0,0,1-2.9,0c-2.065-.8,2.23-20.985,2.23-20.985l10.7-25.907,2.991-7.213,1.314-.328c.642-.158,1.5-.342,2.544-.537,10.216-1.877,37.511-4.263,42.141,22.676,5.731,33.274,6.557,40.751,6.557,40.751Z" transform="translate(240.481 -35.335)" fill="#efb7b9"/>
    <path id="Path_458" data-name="Path 458" d="M913.049,728H913Z" transform="translate(261.869 1.203)" fill="#efb7b9"/>
    <path id="Path_459" data-name="Path 459" d="M924.087,711.276s1.6,11.884,3.633,24.422l-4.656-.237q-18.676-.971-37.393-2.478c-7.083-16.408-14.427-35.885-14.427-36.186s-.223-6.715-.471-13.877c-.079-2.518-.171-5.116-.25-7.554h0c-.131-3.7-.25-7.031-.315-9.1,0-1.416-.079-2.253-.079-2.253s-6.741,1.181-12.8,2.007l-2.688.355c-1.389.171-2.628.3-3.738.375a9.623,9.623,0,0,1-2.9,0c-2.065-.8,2.23-20.985,2.23-20.985l10.7-25.907,2.991-7.213,1.314-.328c.642-.158,1.5-.342,2.544-.537,10.216-1.877,37.511-4.263,42.141,22.676,5.731,33.274,6.557,40.751,6.557,40.751Z" transform="translate(240.481 -35.335)" opacity="0.05"/>
    <path id="Path_460" data-name="Path 460" d="M913.049,728H913Z" transform="translate(261.869 1.203)" opacity="0.05"/>
    <path id="Path_461" data-name="Path 461" d="M923.9,733.727q-18.677-.971-37.393-2.478l-4.722-.375L879.7,730.7c-5.876-14.178-11.095-28.042-11.095-28.291s-.223-6.715-.473-13.877c-.3-8.946-.642-18.912-.642-18.912l-.879.145-.376.066h-.473l-2.112.355-1.154.188c-2.086.342-4.6.721-7.07,1.076l-.55.079-1.442.188-1.314.158h0c-1.01.131-1.967.237-2.833.315l-1.062.092a9.183,9.183,0,0,1-2.9,0c-2.065-.8,2.23-20.985,2.23-20.985l13.693-33.118.473-.131c.721-.188,2.243-.537,4.3-.892.773-.131,1.626-.263,2.544-.375,11.884-1.521,34.494-1.089,38.673,23.215,5.731,33.274,6.558,40.751,6.558,40.751l7.646,36.172S922.458,724.375,923.9,733.727Z" transform="translate(239.645 -33.602)" fill="#efb7b9"/>
    <path id="Path_462" data-name="Path 462" d="M867.3,677.1c-.3-8.945-.642-18.925-.642-18.925s-13.115,2.3-19.228,2.741l1.233-4.171s22.455-6.2,22.926-2.7C871.931,656.495,869.044,669.533,867.3,677.1Z" transform="translate(240.477 -22.171)" opacity="0.1"/>
    <path id="Path_463" data-name="Path 463" d="M868.594,611.48v9.482s-1.115,17.05-9.877,43.137c-.188.563-.375,1.115-.589,1.665a59.509,59.509,0,0,1-3.253,7.322c-2.465.342-4.853.629-6.623.76a9.587,9.587,0,0,1-2.9,0c-2.065-.8,2.217-20.985,2.217-20.985l13.693-33.1.484-.131,2.977-7.226a34.571,34.571,0,0,1,3.869-.92Z" transform="translate(239.655 -35.102)" opacity="0.1"/>
    <path id="Path_464" data-name="Path 464" d="M913.72,610.34v10.979s-1.115,17.05-9.877,43.15c-.223.682-.471,1.314-.721,2.007s-.576,1.521-.9,2.253c-.721,1.744-1.534,3.436-2.386,5.069h0a87.6,87.6,0,0,1-23.949,27.409c-.971.751-1.877,1.4-2.628,1.954h-.066c-1.314.892-2.253,1.534-2.859,1.915s-.655.407-.655.407c-6.218-3.817-23.883-4.459-23.883-4.459l-41.236,7.489a238.993,238.993,0,0,1-27.242,3.1l-4.682.224c-2.7.105-5.508.171-8.38.188-2.322,0-4.682,0-7.083-.092h0a170.576,170.576,0,0,1-23.136-2.165A115.517,115.517,0,0,1,721.545,707a87.871,87.871,0,0,1-8.636-2.886c-28.855-11.332-21.34-38.206-16.474-49.839.263-.616.511-1.181.751-1.7,1.076-2.375,1.877-3.764,1.877-3.764l1.915-4.629h0l3.135-7.594.695-1.665.188-.486,2.322-5.632,32.789-4.25,24.094-3.122,7.331-.939,4.971-.642,9.482-1.233,3.567-.46a44.388,44.388,0,0,1,6.65-.524,9.293,9.293,0,0,1,3.54.524c2.628,1.194,22.611-2.065,22.611-2.065s15.6-4.774,29.286-3.192a162.9,162.9,0,0,0,20.343.131h0l1.678-.079,2.178-.092h.473C894.045,612.018,913.72,610.34,913.72,610.34Z" transform="translate(191.986 -35.456)" fill="#444053"/>
    <path id="Path_465" data-name="Path 465" d="M775.059,635.8s-15.739,35.82-16.395,36.448-.629,11.8,0,11.148,22.455-49.026,22.455-49.026Z" transform="translate(212.67 -27.969)" opacity="0.1"/>
    <path id="Path_466" data-name="Path 466" d="M841.629,612.4s-7.962,5.142-10.348,9.285-24.2,45.368-29.6,51.412a132.089,132.089,0,0,0-12.105,17.221c-.629,1.089-.629,7.935,3.192,1.4s2.872-7.633,10.348-15.74,15.74-26.429,18.939-30.088,7.646-14.643,13.22-21.182l10.676-12.473Z" transform="translate(222.355 -34.866)" opacity="0.1"/>
    <path id="Path_467" data-name="Path 467" d="M833.471,666.554s-5.574-3.817-10.821,2.7S833.471,666.554,833.471,666.554Z" transform="translate(232.428 -18.287)" opacity="0.1"/>
    <path id="Path_468" data-name="Path 468" d="M837.58,667.79s-4.616,8.054-6.847,8.7S837.58,667.79,837.58,667.79Z" transform="translate(235.165 -17.555)" opacity="0.1"/>
    <path id="Path_469" data-name="Path 469" d="M832.277,669.32s-3.659,6.383-6.847,5.731Z" transform="translate(233.622 -17.079)" opacity="0.1"/>
    <path id="Path_470" data-name="Path 470" d="M812.664,539.885s33.747-1.429,37.09-2.544S882.7,532.41,882.7,532.41s87.718,6.2,62.733,13.693-58.9,4.29-58.9,4.29-33.118,8.6-38.206,13.115-42.666,4.616-42.666,4.616Z" transform="translate(227.463 -59.737)" fill="#efb7b9"/>
    <path id="Path_471" data-name="Path 471" d="M812.664,539.885s33.747-1.429,37.09-2.544S882.7,532.41,882.7,532.41s87.718,6.2,62.733,13.693-58.9,4.29-58.9,4.29-33.118,8.6-38.206,13.115-42.666,4.616-42.666,4.616Z" transform="translate(227.463 -59.737)" opacity="0.05"/>
    <path id="Path_472" data-name="Path 472" d="M724.225,479.663s-30.888,10.492-15.922,37.248,34.231,39.347,34.231,39.347L792.2,590.647s20.853,11.936,30.4,7l15.6-1.314,2.628-40.926s-13.115,10.19-27.387-3.942-31.845-23.726-33.274-31.351S742.206,473.132,724.225,479.663Z" transform="translate(195.855 -76.397)" fill="#a36468"/>
    <path id="Path_473" data-name="Path 473" d="M793.87,548.432s16.079,5.731,15.45,6.047-15.45,5.889-15.45,5.889l1.115,21.811,21.811-1.194s7.962-39.715,1.115-43.7l-24.041-1.115Z" transform="translate(223.789 -58.568)" fill="#67647e"/>
    <path id="Path_474" data-name="Path 474" d="M793.87,548.432s16.079,5.731,15.45,6.047-15.45,5.889-15.45,5.889l1.115,21.811,21.811-1.194s7.962-39.715,1.115-43.7l-24.041-1.115Z" transform="translate(223.789 -58.568)" opacity="0.1"/>
    <path id="Path_475" data-name="Path 475" d="M778.273,461.441a30.582,30.582,0,0,0-5.037,7.791c-.188.434-.394.852-.576,1.314-11.713,0-20.132-9.1-27.321-17.247-1.314-1.5-4.629.773-5.718-.918-.118-.188-.236-.394-.375-.589l.375-.682c3.942-7.462,6.807-13.838,6.807-13.838s1.314.42,3.436,1.168C759.663,441.9,786.642,452.531,778.273,461.441Z" transform="translate(206.768 -89.378)" opacity="0.1"/>
    <path id="Path_476" data-name="Path 476" d="M813.761,440.939A39.479,39.479,0,0,1,774.65,480.4h-.375a39.412,39.412,0,0,1-29.615-13.378,40.223,40.223,0,0,1-3.62-4.787,39.492,39.492,0,1,1,72.726-21.3Z" transform="translate(205.382 -100.551)" fill="#efb7b9"/>
    <path id="Path_477" data-name="Path 477" d="M785.914,618.22s-3,3.672-6.321,7.1a24.65,24.65,0,0,1-6.9,5.632c-3.942,1.442-21.965,15.122-21.965,15.122s-14.322,9.719-17.981,12.578-16.879,1.115-16.879,1.115-12.723-2.78-20.606-7.87a51.218,51.218,0,0,1,2.628-5.456l8.276-20.067,32.789-4.237Z" transform="translate(193.069 -33.001)" opacity="0.1"/>
    <path id="Path_478" data-name="Path 478" d="M786.791,616.28s-2.991,3.672-6.308,7.1a25.61,25.61,0,0,1-6.9,5.632c-3.942,1.431-21.965,15.122-21.965,15.122s-14.335,9.719-17.994,12.578-16.866,1.115-16.866,1.115-18.152-3.942-24.527-11.148c-4.459-5.024.158-14.335,3.306-19.464a39.377,39.377,0,0,1,2.425-3.619Z" transform="translate(191.548 -33.605)" fill="#67647e"/>
    <path id="Path_479" data-name="Path 479" d="M792.906,535.527c-10.834-.957-46.5-44.594-46.5-44.594l.813-1.115L754.7,479.47h17.484l1.928,9.548c13.3,18.651,21.129,31.622,23.255,39.048C798.9,533.468,797.443,535.933,792.906,535.527Z" transform="translate(209.003 -76.23)" fill="#67647e"/>
    <path id="Path_480" data-name="Path 480" d="M792.906,533.068c-10.834-.957-46.5-44.594-46.5-44.594l.813-1.115A201.387,201.387,0,0,1,765.2,506.132c26.1,30.717,31.267,22.139,32.159,19.464C798.9,531.011,797.443,533.476,792.906,533.068Z" transform="translate(209.003 -73.773)" opacity="0.1"/>
    <path id="Path_481" data-name="Path 481" d="M785.569,616.28s-2.991,3.672-6.308,7.1a17.894,17.894,0,0,1-5.469,1.181c-4.145-.158-13.693,6.383-13.693,6.383s-16.866-.957-20.054.787-15.45,2.065-15.45,2.065c-22.442,6.4-28.644-3.319-30.285-6.558a39.378,39.378,0,0,1,2.425-3.619Z" transform="translate(192.769 -33.605)" opacity="0.1"/>
    <path id="Path_482" data-name="Path 482" d="M824.646,565.577a13.858,13.858,0,0,1-.188,1.823c-.079.589-.158,1.194-.25,1.757a28.847,28.847,0,0,1-2.872,9.3c-2.859,4.774-11.621,23.4-11.621,23.4l-.59,3.436-.3,1.8-.315,1.77-2.138,12.552-.957,14.493s-5.247,7.322-7.476,10.492-1.915,7.8-1.115,11.148-7.322,3.817-7.322,3.817-11.463,5.574-15.608,5.416-13.693,6.347-13.693,6.347-16.866-.957-20.054.8-15.45,2.065-15.45,2.065c-24.03,6.834-29.444-4.787-30.559-7.175s4.774-12.092,4.774-12.092,1.314-12.263,3.817-13.22,5.574-17.181,5.574-17.181-.958-4.945,1.115-7.646,1.915-10.348,4.616-14.007-2.859-15.922-1.9-19.109-3.03-16.079-2.715-19.425-.787-6.047-3.345-12.736c-2.178-5.705-1.56-31.059-1.314-38.324,0-1.233.066-1.941.066-1.941s2.23-7.175,8.119-21.5c4.459-10.847,14.493-14.951,19.1-16.29a23.961,23.961,0,0,1,2.4-.59,16.842,16.842,0,0,1,3.379.852c4.643,1.56,13.928,5.981,27.176,18.362a203.66,203.66,0,0,1,16.565,17.47c29.865,35.106,32.3,18.717,32.3,18.717s1.314,2.991,7.462,14.925A37.98,37.98,0,0,1,824.646,565.577Z" transform="translate(192.673 -77.704)" fill="#a36468"/>
    <path id="Path_483" data-name="Path 483" d="M766.86,483.677,736.9,459.78s-10.795,1.314-15.253,19.438l30.835,27.005Z" transform="translate(201.288 -82.367)" opacity="0.1"/>
    <path id="Path_484" data-name="Path 484" d="M767,483.963l-5.244,7.331-5.324,7.509-4.014,5.889L727.8,483.958l-4.237-3.672-2.377-2.02c2.4-9.8,6.663-14.69,10.061-17.05a12.5,12.5,0,0,1,5.247-2.348Z" transform="translate(201.144 -82.651)" fill="#67647e"/>
    <path id="Path_485" data-name="Path 485" d="M946.378,553.386c-25,7.476-58.9,4.3-58.9,4.3s-33.118,8.591-38.206,13.115c-3.28,2.872-20.028,3.942-31.477,4.367-6.36.237-11.121.25-11.121.25l6.991-28.239,4.04-.188c9.064-.42,30.428-1.5,33.052-2.375,3.344-1.115,32.947-4.932,32.947-4.932S971.368,545.9,946.378,553.386Z" transform="translate(227.779 -57.472)" fill="#efb7b9"/>
    <path id="Path_486" data-name="Path 486" d="M820.717,565.071a28.841,28.841,0,0,1-2.872,9.3c-2.859,4.774-11.621,23.4-11.621,23.4l-1.207,7.07a86.246,86.246,0,0,1-11.8-5.429L743.5,564.981s-19.267-12.578-34.231-39.347,15.922-37.248,15.922-37.248c17.981-6.558,54.443,32.789,55.873,40.436s18.961,17.195,33.274,31.351A29.118,29.118,0,0,0,820.717,565.071Z" transform="translate(196.156 -73.681)" opacity="0.1"/>
    <path id="Path_487" data-name="Path 487" d="M821.162,562.466c-.118,1.247-.263,2.44-.447,3.58a28.851,28.851,0,0,1-2.872,9.3c-2.859,4.774-11.621,23.4-11.621,23.4l-.59,3.436a85.107,85.107,0,0,1-12.46-5.666L743.5,562.072s-19.267-12.578-34.231-39.347,15.922-37.261,15.922-37.261c17.981-6.557,54.443,32.789,55.873,40.436s18.961,17.195,33.274,31.372a28.72,28.72,0,0,0,6.82,5.195Z" transform="translate(196.156 -74.593)" opacity="0.1"/>
    <path id="Path_488" data-name="Path 488" d="M841.727,562.733l-2.544,40.907-15.608,1.314a7.634,7.634,0,0,1-1.062.458c-9.95,3.646-29.339-7.462-29.339-7.462L743.5,563.521s-19.267-12.578-34.231-39.347S725.2,486.926,725.2,486.926c17.981-6.558,54.443,32.789,55.873,40.436s18.961,17.194,33.274,31.351a28.589,28.589,0,0,0,7.162,5.247,19.556,19.556,0,0,0,20.223-1.228Z" transform="translate(196.157 -74.136)" fill="#a36468"/>
    <path id="Path_489" data-name="Path 489" d="M814.094,544.55l-2.544,40.907-15.608,1.314a7.615,7.615,0,0,1-1.062.46l-1.01-19.883s14.808-5.574,15.45-5.889-15.45-6.047-15.45-6.047V545.9a19.555,19.555,0,0,0,20.225-1.352Z" transform="translate(223.789 -55.954)" opacity="0.1"/>
    <path id="Path_490" data-name="Path 490" d="M817.741,573.369c-6.36.236-11.121.25-11.121.25l7.057-28.173,4.04-.188C820.313,549.734,819.2,562.877,817.741,573.369Z" transform="translate(227.762 -55.734)" opacity="0.1"/>
    <path id="Path_491" data-name="Path 491" d="M794.84,555.714s16.079,5.731,15.45,6.047-15.45,5.889-15.45,5.889l1.115,21.811,21.811-1.194s7.962-39.715,1.115-43.7l-24.041-1.115Z" transform="translate(224.092 -56.298)" fill="#67647e"/>
    <path id="Path_492" data-name="Path 492" d="M724.487,572.71s-5.416,5.09-9.877,6.439Z" transform="translate(199.094 -47.181)" opacity="0.1"/>
    <path id="Path_493" data-name="Path 493" d="M712.31,585.168s13.207-.486,14.8-3.191S712.31,585.168,712.31,585.168Z" transform="translate(198.377 -44.515)" opacity="0.1"/>
    <path id="Path_494" data-name="Path 494" d="M707.33,599.7c.8,0,16.708-2.23,17.352-4.3Z" transform="translate(196.826 -40.112)" opacity="0.1"/>
    <path id="Path_495" data-name="Path 495" d="M703.57,609.428c5.731-.171,15.437-6.383,15.437-6.383Z" transform="translate(195.654 -37.732)" opacity="0.1"/>
    <path id="Path_496" data-name="Path 496" d="M731.85,612.264s34.543,0,36.133-6.36S731.85,612.264,731.85,612.264Z" transform="translate(204.466 -37.393)" opacity="0.1"/>
    <path id="Path_497" data-name="Path 497" d="M751.63,543.589c.642,0,27.221,0,29.773-3.659S751.63,543.589,751.63,543.589Z" transform="translate(210.629 -57.714)" opacity="0.1"/>
    <path id="Path_498" data-name="Path 498" d="M737.763,463.728a25.456,25.456,0,0,1,.342,3.942,24.366,24.366,0,0,1-.394,4.367A37.813,37.813,0,0,1,735.245,480l-.276.642c-.394.918-.813,1.81-1.247,2.7a74.293,74.293,0,0,1-6.873,11.332,123.9,123.9,0,0,1-20.617,21.441q-2.007,1.689-4.053,3.345c0-1.233.066-1.941.066-1.941s2.23-7.175,8.119-21.5c4.459-10.847,14.493-14.951,19.1-16.29l-2.375-2.02c2.4-9.8,6.663-14.69,10.061-17.05C737.356,461.629,737.605,462.652,737.763,463.728Z" transform="translate(195.221 -82.09)" opacity="0.1"/>
    <path id="Path_499" data-name="Path 499" d="M807.951,420.336a4.616,4.616,0,0,0-1.155.458c-2.491,1.378-3.214,4.643-5.247,6.7-2.349,2.425-6.021,2.793-9.364,3.214s-7.083,1.247-8.854,4.119c-1.314,2.138-1.194,4.827-1.665,7.292a2.322,2.322,0,0,1-.511,1.207,2.361,2.361,0,0,1-1.6.524c-6.558.46-11.332-1.8-17.471-3.379a9.332,9.332,0,0,0-8.448,1.314,9.608,9.608,0,0,0-2.491,7.423v.237a50.687,50.687,0,0,1,.236,7.87,12.985,12.985,0,0,1-6.86,9.614,12.131,12.131,0,0,1-4.958,1.417,4.013,4.013,0,0,1-1.967-.289c1.168-1.994,2.283-3.942,3.306-5.916a39.489,39.489,0,1,1,67-41.816Z" transform="translate(205.421 -100.448)" opacity="0.1"/>
    <path id="Path_500" data-name="Path 500" d="M832.331,420.537a6.662,6.662,0,0,1-2.191,2.688c-2.991,1.941-7.278-.188-10.4,1.534-2.5,1.378-3.214,4.643-5.247,6.7-2.335,2.425-6.007,2.793-9.364,3.214s-7.07,1.247-8.854,4.119c-1.314,2.138-1.181,4.813-1.665,7.292a2.217,2.217,0,0,1-.512,1.207,2.4,2.4,0,0,1-1.6.524c-6.558.46-11.332-1.81-17.47-3.379a9.312,9.312,0,0,0-8.433,1.314,9.139,9.139,0,0,0-2.5,7.421,57.481,57.481,0,0,1,.25,8.073,13.115,13.115,0,0,1-11.8,11.031,3.227,3.227,0,0,1-2.427-.616,3.476,3.476,0,0,1-.8-1.444c-4.367-12.276-4.327-25.907-9.627-37.813a42.742,42.742,0,0,1-2.217-5.247c-.105-.376-.21-.751-.289-1.126a17.234,17.234,0,0,1-.315-2.3,3.278,3.278,0,0,0-1.5.616,2.771,2.771,0,0,0-.421.447,7.777,7.777,0,0,0-1.1,4.158,157.393,157.393,0,0,0,4.722,48.751,50.959,50.959,0,0,1,2.27,12.237,32.7,32.7,0,0,1-3.148,12.972c-8.223,18.961-24.749,32.853-41.183,45.407a18.271,18.271,0,0,0,4.881-13.549,5.35,5.35,0,0,1-4.158,3.725,16.027,16.027,0,0,1-5.863-.092c2.517-.826,3.5-3.79,4.13-6.36q1.928-7.87,3.58-15.882a100.036,100.036,0,0,0,2.309-15.5c.188-4.432-.145-8.88-.329-13.329a269.765,269.765,0,0,1,1.314-36.527c.971-10.492,2.728-21.837,10.427-29a45.3,45.3,0,0,1,11.018-6.873c0-1.314,9.614-3.942,10.888-4.119a10.336,10.336,0,0,1,1.6-.188,3.293,3.293,0,0,1,3.422,1.8c.473-.852,1-1.69,1.547-2.491a29.054,29.054,0,0,1,2.493-3.135c5-5.508,11.476-9.387,17.26-14.059a44.41,44.41,0,0,1,6.873-5.069,24.736,24.736,0,0,1,10.3-2.628,41.774,41.774,0,0,1,17.379,2.728c7.975,3.069,14.938,8.578,23.189,10.808a55.153,55.153,0,0,1,6.021,1.665,14.585,14.585,0,0,1,7.607,20.224Z" transform="translate(191.847 -105.684)" fill="#444053"/>
    <g id="Group_30" data-name="Group 30" transform="translate(883.158 304.398)" opacity="0.1">
      <path id="Path_501" data-name="Path 501" d="M699.516,503.488a18.124,18.124,0,0,0,1.194-7.738,5.376,5.376,0,0,1-4.171,3.725,8.522,8.522,0,0,1-1.521.223,6.588,6.588,0,0,1-3.7,4.774,16.042,16.042,0,0,0,5.863.105,6.559,6.559,0,0,0,2.335-1.089Z" transform="translate(-691.32 -375.558)"/>
      <path id="Path_502" data-name="Path 502" d="M823.4,404.11a14.664,14.664,0,0,1-1.575,5.955,6.757,6.757,0,0,1-2.2,2.628c-2.977,1.941-7.279-.188-10.4,1.534-2.491,1.378-3.214,4.656-5.247,6.7-2.349,2.426-6.021,2.816-9.364,3.214s-7.083,1.314-8.853,4.119c-1.314,2.138-1.194,4.827-1.665,7.292a1.836,1.836,0,0,1-2.112,1.744c-6.557.46-11.332-1.81-17.47-3.4a9.332,9.332,0,0,0-8.448,1.314,9.637,9.637,0,0,0-2.491,7.436,55.326,55.326,0,0,1,.236,8.073,13.036,13.036,0,0,1-11.8,11.044,3.264,3.264,0,0,1-2.425-.616,3.526,3.526,0,0,1-.8-1.455c-4.367-12.276-4.341-25.907-9.64-37.8a45.874,45.874,0,0,1-2.2-5.247,15.382,15.382,0,0,1-.616-3.422,2.886,2.886,0,0,0-1.915,1.063,8.058,8.058,0,0,0-1.1,4.158,158.277,158.277,0,0,0,1.314,31.477,158.632,158.632,0,0,1-.642-26.416,7.777,7.777,0,0,1,1.1-4.158,2.754,2.754,0,0,1,1.915-1.062,15.519,15.519,0,0,0,.6,3.422,44.855,44.855,0,0,0,2.217,5.247c5.247,11.91,5.247,25.532,9.627,37.8a3.618,3.618,0,0,0,.813,1.455,3.175,3.175,0,0,0,2.412.721,13.115,13.115,0,0,0,11.8-11.031,57.463,57.463,0,0,0-.25-8.073,9.846,9.846,0,0,1,2.5-7.436,9.124,9.124,0,0,1,8.433-1.314c6.139,1.573,10.889,3.843,17.47,3.379a2.4,2.4,0,0,0,1.6-.524,2.269,2.269,0,0,0,.512-1.22c.484-2.465.342-5.155,1.665-7.278,1.783-2.872,5.508-3.712,8.853-4.13s7.031-.773,9.387-3.191c1.981-2.065,2.688-5.324,5.247-6.715,3.109-1.718,7.41.421,10.4-1.521a6.663,6.663,0,0,0,2.174-2.713A14.875,14.875,0,0,0,823.4,404.11Z" transform="translate(-681.437 -404.11)"/>
      <path id="Path_503" data-name="Path 503" d="M738.978,461.732a32.789,32.789,0,0,1-3.135,12.971c-7.357,16.958-21.366,29.865-35.99,41.367a18.361,18.361,0,0,1-4.564,9.18c16.421-12.539,32.973-26.427,41.183-45.394a32.7,32.7,0,0,0,3.148-12.972,28.718,28.718,0,0,0-.668-5.705A5.4,5.4,0,0,1,738.978,461.732Z" transform="translate(-690.083 -386.331)"/>
    </g>
    <path id="Path_504" data-name="Path 504" d="M731.234,404c-1.181,5.429-2.816,12.486-4.027,16.119a19.679,19.679,0,0,1-.315-2.3,3.241,3.241,0,0,0-1.481.616c0-3.817.46-9.5.852-13.746a3.306,3.306,0,0,1,3.435,1.8A22.744,22.744,0,0,1,731.234,404Z" transform="translate(202.46 -99.746)" opacity="0.1"/>
    <path id="Path_505" data-name="Path 505" d="M730.76,404c-1.181,5.429-2.816,12.486-4.027,16.119a17.214,17.214,0,0,1-.316-2.3,3.28,3.28,0,0,0-1.5.616c0-3.817.46-9.5.865-13.746a3.293,3.293,0,0,1,3.423,1.8C729.684,405.652,730.274,404.813,730.76,404Z" transform="translate(202.303 -99.746)" fill="#67647e"/>
    <g id="Group_31" data-name="Group 31" transform="translate(1190.316 -0.03)" opacity="0.7">
      <path id="Path_506" data-name="Path 506" d="M933,179.57h217.288V390.916H933Z" transform="translate(-923.176 -169.641)" fill="#2e001e"/>
      <path id="Path_507" data-name="Path 507" d="M925.51,172V403.152h237.04V172Zm9.877,9.89h217.288V393.277H935.334Z" transform="translate(-925.51 -172)" fill="#ff2bc2"/>
      <path id="Path_508" data-name="Path 508" d="M1087.032,256.1a13.494,13.494,0,0,0-5.731-1c-12.434,0-20.735,9.588-20.735,25.485,0,18.178,8.5,25.483,19.556,25.483a18.437,18.437,0,0,0,6.82-1.089V256.1Zm-44.279,25.288c0-23.018,14.808-41,39.11-41a41.066,41.066,0,0,1,5.129.21V214.911a1,1,0,0,1,1-1h15.9c.786,0,.984.3.984.8v90.27a69.586,69.586,0,0,0,.5,9.68c0,.695,0,.8-.589,1.089a58.929,58.929,0,0,1-25.288,5.732c-21.432,0-36.724-13.233-36.724-40.094Zm-33.672-16.012,27.687,53.59c.5.787.188,1.573-.589,1.573H1019a1.928,1.928,0,0,1-2.065-1.314q-9.482-19.556-19.359-40.594h-.188c-5.929,13.233-12.447,27.661-18.773,40.659a1.9,1.9,0,0,1-1.784,1.089H960.434c-.984,0-1.076-.8-.589-1.391L986.9,266.942l-26.166-51.6a.878.878,0,0,1,.695-1.481H978.41c.984,0,1.481.188,1.77,1.089,6.231,13.115,12.552,26.074,18.48,39.347h.188c5.718-13.036,12.039-26.232,18.073-39.11.484-.8.787-1.314,1.77-1.314H1034.6c.787,0,1.076.589.589,1.481l-26.068,50.091Z" transform="translate(-914.898 -158.961)" fill="#ff2bc2"/>
    </g>
    <g id="Group_32" data-name="Group 32" transform="translate(248.948 14.463)" opacity="0.7">
      <path id="Path_509" data-name="Path 509" d="M258.327,244.46,332.588,389.8,207.77,244.46Z" transform="translate(-207.77 -163.917)" fill="#ea6c00"/>
      <path id="Path_510" data-name="Path 510" d="M377.207,244.46,302.94,389.8,427.749,244.46Z" transform="translate(-178.118 -163.917)" fill="#ea6c00"/>
      <path id="Path_511" data-name="Path 511" d="M246.31,244.46H394.82L320.572,389.8Z" transform="translate(-195.763 -163.917)" fill="#fdad00"/>
      <path id="Path_512" data-name="Path 512" d="M320.581,183.05l-70.353,7.436-3.942,73.107Z" transform="translate(-195.773 -183.05)" fill="#fdd231"/>
      <path id="Path_513" data-name="Path 513" d="M302.93,183.05l70.34,7.436,3.942,73.107Z" transform="translate(-178.121 -183.05)" fill="#fdd231"/>
      <path id="Path_514" data-name="Path 514" d="M411.036,261.827,356.58,188.72l3.942,73.107Z" transform="translate(-161.405 -181.284)" fill="#fdad00"/>
      <path id="Path_515" data-name="Path 515" d="M207.77,261.827l54.456-73.107-3.942,73.107Z" transform="translate(-207.77 -181.284)" fill="#fdad00"/>
      <path id="Path_516" data-name="Path 516" d="M320.572,183.05,246.31,263.588H394.82Z" transform="translate(-195.763 -183.05)" fill="#feeeb7"/>
    </g>
  </g>
</svg>
